G04 #@! TF.GenerationSoftware,KiCad,Pcbnew,7.0.0*
G04 #@! TF.CreationDate,2023-03-12T15:47:32-04:00*
G04 #@! TF.ProjectId,board,626f6172-642e-46b6-9963-61645f706362,rev?*
G04 #@! TF.SameCoordinates,Original*
G04 #@! TF.FileFunction,Soldermask,Bot*
G04 #@! TF.FilePolarity,Negative*
%FSLAX46Y46*%
G04 Gerber Fmt 4.6, Leading zero omitted, Abs format (unit mm)*
G04 Created by KiCad (PCBNEW 7.0.0) date 2023-03-12 15:47:32*
%MOMM*%
%LPD*%
G01*
G04 APERTURE LIST*
G04 Aperture macros list*
%AMRoundRect*
0 Rectangle with rounded corners*
0 $1 Rounding radius*
0 $2 $3 $4 $5 $6 $7 $8 $9 X,Y pos of 4 corners*
0 Add a 4 corners polygon primitive as box body*
4,1,4,$2,$3,$4,$5,$6,$7,$8,$9,$2,$3,0*
0 Add four circle primitives for the rounded corners*
1,1,$1+$1,$2,$3*
1,1,$1+$1,$4,$5*
1,1,$1+$1,$6,$7*
1,1,$1+$1,$8,$9*
0 Add four rect primitives between the rounded corners*
20,1,$1+$1,$2,$3,$4,$5,0*
20,1,$1+$1,$4,$5,$6,$7,0*
20,1,$1+$1,$6,$7,$8,$9,0*
20,1,$1+$1,$8,$9,$2,$3,0*%
G04 Aperture macros list end*
%ADD10O,1.900000X1.200000*%
%ADD11C,1.450000*%
%ADD12R,1.050000X1.000000*%
%ADD13C,1.000000*%
%ADD14R,4.064000X1.524000*%
%ADD15R,2.200000X1.050000*%
%ADD16R,1.700000X1.700000*%
%ADD17O,1.700000X1.700000*%
%ADD18C,2.200000*%
%ADD19RoundRect,0.249999X-1.025001X-1.025001X1.025001X-1.025001X1.025001X1.025001X-1.025001X1.025001X0*%
%ADD20RoundRect,0.250000X0.350000X0.625000X-0.350000X0.625000X-0.350000X-0.625000X0.350000X-0.625000X0*%
%ADD21O,1.200000X1.750000*%
G04 APERTURE END LIST*
D10*
X117062499Y-96499999D03*
D11*
X119762500Y-97500000D03*
X119762500Y-102500000D03*
D10*
X117062499Y-103499999D03*
D12*
X178564999Y-99999999D03*
D13*
X178550000Y-100000000D03*
D14*
X180999999Y-97459999D03*
D15*
X180069999Y-98524999D03*
X180069999Y-101474999D03*
D14*
X180999999Y-102539999D03*
D16*
X145173999Y-130225999D03*
D17*
X145173999Y-127685999D03*
X147713999Y-130225999D03*
X147713999Y-127685999D03*
X150253999Y-130225999D03*
X150253999Y-127685999D03*
X152793999Y-130225999D03*
X152793999Y-127685999D03*
X155333999Y-130225999D03*
X155333999Y-127685999D03*
D16*
X131965999Y-114960599D03*
D17*
X134505999Y-114960599D03*
X137045999Y-114960599D03*
X139585999Y-114960599D03*
X142125999Y-114960599D03*
X144665999Y-114960599D03*
X147205999Y-114960599D03*
X149745999Y-114960599D03*
X152285999Y-114960599D03*
X154825999Y-114960599D03*
X157365999Y-114960599D03*
X159905999Y-114960599D03*
X162445999Y-114960599D03*
X164985999Y-114960599D03*
D18*
X170000000Y-80000000D03*
X130000000Y-80000000D03*
X130000000Y-120000000D03*
X170000000Y-120000000D03*
D16*
X164985999Y-84459999D03*
D17*
X162445999Y-84459999D03*
X159905999Y-84459999D03*
X157365999Y-84459999D03*
X154825999Y-84459999D03*
X152285999Y-84459999D03*
X149745999Y-84459999D03*
X147205999Y-84459999D03*
X144665999Y-84459999D03*
X142125999Y-84459999D03*
X139585999Y-84459999D03*
X137045999Y-84459999D03*
X134505999Y-84459999D03*
X131965999Y-84459999D03*
D19*
X179464000Y-88824000D03*
D20*
X151450000Y-71900000D03*
D21*
X149449999Y-71899999D03*
M02*
