G04 #@! TF.GenerationSoftware,KiCad,Pcbnew,5.1.9+dfsg1-1~bpo10+1*
G04 #@! TF.CreationDate,2021-10-27T00:19:12-04:00*
G04 #@! TF.ProjectId,board,626f6172-642e-46b6-9963-61645f706362,rev?*
G04 #@! TF.SameCoordinates,Original*
G04 #@! TF.FileFunction,Soldermask,Top*
G04 #@! TF.FilePolarity,Negative*
%FSLAX46Y46*%
G04 Gerber Fmt 4.6, Leading zero omitted, Abs format (unit mm)*
G04 Created by KiCad (PCBNEW 5.1.9+dfsg1-1~bpo10+1) date 2021-10-27 00:19:12*
%MOMM*%
%LPD*%
G01*
G04 APERTURE LIST*
%ADD10C,2.301600*%
%ADD11O,1.301600X1.851600*%
%ADD12C,0.100000*%
%ADD13O,1.801600X1.801600*%
%ADD14C,1.101600*%
%ADD15O,2.001600X1.301600*%
%ADD16C,1.551600*%
G04 APERTURE END LIST*
G36*
G01*
X151075000Y-79049200D02*
X151725000Y-79049200D01*
G75*
G02*
X151775800Y-79100000I0J-50800D01*
G01*
X151775800Y-80800000D01*
G75*
G02*
X151725000Y-80850800I-50800J0D01*
G01*
X151075000Y-80850800D01*
G75*
G02*
X151024200Y-80800000I0J50800D01*
G01*
X151024200Y-79100000D01*
G75*
G02*
X151075000Y-79049200I50800J0D01*
G01*
G37*
G36*
G01*
X149175000Y-79049200D02*
X149825000Y-79049200D01*
G75*
G02*
X149875800Y-79100000I0J-50800D01*
G01*
X149875800Y-80800000D01*
G75*
G02*
X149825000Y-80850800I-50800J0D01*
G01*
X149175000Y-80850800D01*
G75*
G02*
X149124200Y-80800000I0J50800D01*
G01*
X149124200Y-79100000D01*
G75*
G02*
X149175000Y-79049200I50800J0D01*
G01*
G37*
G36*
G01*
X149175000Y-76899200D02*
X149825000Y-76899200D01*
G75*
G02*
X149875800Y-76950000I0J-50800D01*
G01*
X149875800Y-78550000D01*
G75*
G02*
X149825000Y-78600800I-50800J0D01*
G01*
X149175000Y-78600800D01*
G75*
G02*
X149124200Y-78550000I0J50800D01*
G01*
X149124200Y-76950000D01*
G75*
G02*
X149175000Y-76899200I50800J0D01*
G01*
G37*
G36*
G01*
X150125000Y-76849200D02*
X150775000Y-76849200D01*
G75*
G02*
X150825800Y-76900000I0J-50800D01*
G01*
X150825800Y-78600000D01*
G75*
G02*
X150775000Y-78650800I-50800J0D01*
G01*
X150125000Y-78650800D01*
G75*
G02*
X150074200Y-78600000I0J50800D01*
G01*
X150074200Y-76900000D01*
G75*
G02*
X150125000Y-76849200I50800J0D01*
G01*
G37*
G36*
G01*
X151075000Y-76849200D02*
X151725000Y-76849200D01*
G75*
G02*
X151775800Y-76900000I0J-50800D01*
G01*
X151775800Y-78600000D01*
G75*
G02*
X151725000Y-78650800I-50800J0D01*
G01*
X151075000Y-78650800D01*
G75*
G02*
X151024200Y-78600000I0J50800D01*
G01*
X151024200Y-76900000D01*
G75*
G02*
X151075000Y-76849200I50800J0D01*
G01*
G37*
G36*
G01*
X122400000Y-106769200D02*
X123700000Y-106769200D01*
G75*
G02*
X123750800Y-106820000I0J-50800D01*
G01*
X123750800Y-108620000D01*
G75*
G02*
X123700000Y-108670800I-50800J0D01*
G01*
X122400000Y-108670800D01*
G75*
G02*
X122349200Y-108620000I0J50800D01*
G01*
X122349200Y-106820000D01*
G75*
G02*
X122400000Y-106769200I50800J0D01*
G01*
G37*
G36*
G01*
X126900000Y-106769200D02*
X128200000Y-106769200D01*
G75*
G02*
X128250800Y-106820000I0J-50800D01*
G01*
X128250800Y-108620000D01*
G75*
G02*
X128200000Y-108670800I-50800J0D01*
G01*
X126900000Y-108670800D01*
G75*
G02*
X126849200Y-108620000I0J50800D01*
G01*
X126849200Y-106820000D01*
G75*
G02*
X126900000Y-106769200I50800J0D01*
G01*
G37*
G36*
G01*
X126900000Y-114729200D02*
X128200000Y-114729200D01*
G75*
G02*
X128250800Y-114780000I0J-50800D01*
G01*
X128250800Y-116580000D01*
G75*
G02*
X128200000Y-116630800I-50800J0D01*
G01*
X126900000Y-116630800D01*
G75*
G02*
X126849200Y-116580000I0J50800D01*
G01*
X126849200Y-114780000D01*
G75*
G02*
X126900000Y-114729200I50800J0D01*
G01*
G37*
G36*
G01*
X122400000Y-114729200D02*
X123700000Y-114729200D01*
G75*
G02*
X123750800Y-114780000I0J-50800D01*
G01*
X123750800Y-116580000D01*
G75*
G02*
X123700000Y-116630800I-50800J0D01*
G01*
X122400000Y-116630800D01*
G75*
G02*
X122349200Y-116580000I0J50800D01*
G01*
X122349200Y-114780000D01*
G75*
G02*
X122400000Y-114729200I50800J0D01*
G01*
G37*
G36*
G01*
X144100000Y-69928800D02*
X143300000Y-69928800D01*
G75*
G02*
X143249200Y-69878000I0J50800D01*
G01*
X143249200Y-68178000D01*
G75*
G02*
X143300000Y-68127200I50800J0D01*
G01*
X144100000Y-68127200D01*
G75*
G02*
X144150800Y-68178000I0J-50800D01*
G01*
X144150800Y-69878000D01*
G75*
G02*
X144100000Y-69928800I-50800J0D01*
G01*
G37*
G36*
G01*
X145050000Y-71928800D02*
X144250000Y-71928800D01*
G75*
G02*
X144199200Y-71878000I0J50800D01*
G01*
X144199200Y-70178000D01*
G75*
G02*
X144250000Y-70127200I50800J0D01*
G01*
X145050000Y-70127200D01*
G75*
G02*
X145100800Y-70178000I0J-50800D01*
G01*
X145100800Y-71878000D01*
G75*
G02*
X145050000Y-71928800I-50800J0D01*
G01*
G37*
G36*
G01*
X143150000Y-71928800D02*
X142350000Y-71928800D01*
G75*
G02*
X142299200Y-71878000I0J50800D01*
G01*
X142299200Y-70178000D01*
G75*
G02*
X142350000Y-70127200I50800J0D01*
G01*
X143150000Y-70127200D01*
G75*
G02*
X143200800Y-70178000I0J-50800D01*
G01*
X143200800Y-71878000D01*
G75*
G02*
X143150000Y-71928800I-50800J0D01*
G01*
G37*
D10*
X130000000Y-80000000D03*
D11*
X149450000Y-71900000D03*
G36*
G01*
X152100800Y-71245365D02*
X152100800Y-72554635D01*
G75*
G02*
X151829635Y-72825800I-271165J0D01*
G01*
X151070365Y-72825800D01*
G75*
G02*
X150799200Y-72554635I0J271165D01*
G01*
X150799200Y-71245365D01*
G75*
G02*
X151070365Y-70974200I271165J0D01*
G01*
X151829635Y-70974200D01*
G75*
G02*
X152100800Y-71245365I0J-271165D01*
G01*
G37*
G36*
G01*
X156030763Y-76000800D02*
X154718237Y-76000800D01*
G75*
G02*
X154448700Y-75731263I0J269537D01*
G01*
X154448700Y-74868737D01*
G75*
G02*
X154718237Y-74599200I269537J0D01*
G01*
X156030763Y-74599200D01*
G75*
G02*
X156300300Y-74868737I0J-269537D01*
G01*
X156300300Y-75731263D01*
G75*
G02*
X156030763Y-76000800I-269537J0D01*
G01*
G37*
G36*
G01*
X156030763Y-79100800D02*
X154718237Y-79100800D01*
G75*
G02*
X154448700Y-78831263I0J269537D01*
G01*
X154448700Y-77968737D01*
G75*
G02*
X154718237Y-77699200I269537J0D01*
G01*
X156030763Y-77699200D01*
G75*
G02*
X156300300Y-77968737I0J-269537D01*
G01*
X156300300Y-78831263D01*
G75*
G02*
X156030763Y-79100800I-269537J0D01*
G01*
G37*
G36*
G01*
X158293403Y-77699200D02*
X159605929Y-77699200D01*
G75*
G02*
X159875466Y-77968737I0J-269537D01*
G01*
X159875466Y-78831263D01*
G75*
G02*
X159605929Y-79100800I-269537J0D01*
G01*
X158293403Y-79100800D01*
G75*
G02*
X158023866Y-78831263I0J269537D01*
G01*
X158023866Y-77968737D01*
G75*
G02*
X158293403Y-77699200I269537J0D01*
G01*
G37*
G36*
G01*
X158293403Y-74599200D02*
X159605929Y-74599200D01*
G75*
G02*
X159875466Y-74868737I0J-269537D01*
G01*
X159875466Y-75731263D01*
G75*
G02*
X159605929Y-76000800I-269537J0D01*
G01*
X158293403Y-76000800D01*
G75*
G02*
X158023866Y-75731263I0J269537D01*
G01*
X158023866Y-74868737D01*
G75*
G02*
X158293403Y-74599200I269537J0D01*
G01*
G37*
G36*
G01*
X161868569Y-77699200D02*
X163181095Y-77699200D01*
G75*
G02*
X163450632Y-77968737I0J-269537D01*
G01*
X163450632Y-78831263D01*
G75*
G02*
X163181095Y-79100800I-269537J0D01*
G01*
X161868569Y-79100800D01*
G75*
G02*
X161599032Y-78831263I0J269537D01*
G01*
X161599032Y-77968737D01*
G75*
G02*
X161868569Y-77699200I269537J0D01*
G01*
G37*
G36*
G01*
X161868569Y-74599200D02*
X163181095Y-74599200D01*
G75*
G02*
X163450632Y-74868737I0J-269537D01*
G01*
X163450632Y-75731263D01*
G75*
G02*
X163181095Y-76000800I-269537J0D01*
G01*
X161868569Y-76000800D01*
G75*
G02*
X161599032Y-75731263I0J269537D01*
G01*
X161599032Y-74868737D01*
G75*
G02*
X161868569Y-74599200I269537J0D01*
G01*
G37*
G36*
G01*
X166756263Y-76000800D02*
X165443737Y-76000800D01*
G75*
G02*
X165174200Y-75731263I0J269537D01*
G01*
X165174200Y-74868737D01*
G75*
G02*
X165443737Y-74599200I269537J0D01*
G01*
X166756263Y-74599200D01*
G75*
G02*
X167025800Y-74868737I0J-269537D01*
G01*
X167025800Y-75731263D01*
G75*
G02*
X166756263Y-76000800I-269537J0D01*
G01*
G37*
G36*
G01*
X166756263Y-79100800D02*
X165443737Y-79100800D01*
G75*
G02*
X165174200Y-78831263I0J269537D01*
G01*
X165174200Y-77968737D01*
G75*
G02*
X165443737Y-77699200I269537J0D01*
G01*
X166756263Y-77699200D01*
G75*
G02*
X167025800Y-77968737I0J-269537D01*
G01*
X167025800Y-78831263D01*
G75*
G02*
X166756263Y-79100800I-269537J0D01*
G01*
G37*
G36*
G01*
X136991700Y-93322929D02*
X136991700Y-92010403D01*
G75*
G02*
X137261237Y-91740866I269537J0D01*
G01*
X138123763Y-91740866D01*
G75*
G02*
X138393300Y-92010403I0J-269537D01*
G01*
X138393300Y-93322929D01*
G75*
G02*
X138123763Y-93592466I-269537J0D01*
G01*
X137261237Y-93592466D01*
G75*
G02*
X136991700Y-93322929I0J269537D01*
G01*
G37*
G36*
G01*
X133891700Y-93322929D02*
X133891700Y-92010403D01*
G75*
G02*
X134161237Y-91740866I269537J0D01*
G01*
X135023763Y-91740866D01*
G75*
G02*
X135293300Y-92010403I0J-269537D01*
G01*
X135293300Y-93322929D01*
G75*
G02*
X135023763Y-93592466I-269537J0D01*
G01*
X134161237Y-93592466D01*
G75*
G02*
X133891700Y-93322929I0J269537D01*
G01*
G37*
G36*
G01*
X138106263Y-123915800D02*
X136793737Y-123915800D01*
G75*
G02*
X136524200Y-123646263I0J269537D01*
G01*
X136524200Y-122783737D01*
G75*
G02*
X136793737Y-122514200I269537J0D01*
G01*
X138106263Y-122514200D01*
G75*
G02*
X138375800Y-122783737I0J-269537D01*
G01*
X138375800Y-123646263D01*
G75*
G02*
X138106263Y-123915800I-269537J0D01*
G01*
G37*
G36*
G01*
X138106263Y-127015800D02*
X136793737Y-127015800D01*
G75*
G02*
X136524200Y-126746263I0J269537D01*
G01*
X136524200Y-125883737D01*
G75*
G02*
X136793737Y-125614200I269537J0D01*
G01*
X138106263Y-125614200D01*
G75*
G02*
X138375800Y-125883737I0J-269537D01*
G01*
X138375800Y-126746263D01*
G75*
G02*
X138106263Y-127015800I-269537J0D01*
G01*
G37*
G36*
G01*
X167656263Y-123950800D02*
X166343737Y-123950800D01*
G75*
G02*
X166074200Y-123681263I0J269537D01*
G01*
X166074200Y-122818737D01*
G75*
G02*
X166343737Y-122549200I269537J0D01*
G01*
X167656263Y-122549200D01*
G75*
G02*
X167925800Y-122818737I0J-269537D01*
G01*
X167925800Y-123681263D01*
G75*
G02*
X167656263Y-123950800I-269537J0D01*
G01*
G37*
G36*
G01*
X167656263Y-127050800D02*
X166343737Y-127050800D01*
G75*
G02*
X166074200Y-126781263I0J269537D01*
G01*
X166074200Y-125918737D01*
G75*
G02*
X166343737Y-125649200I269537J0D01*
G01*
X167656263Y-125649200D01*
G75*
G02*
X167925800Y-125918737I0J-269537D01*
G01*
X167925800Y-126781263D01*
G75*
G02*
X167656263Y-127050800I-269537J0D01*
G01*
G37*
G36*
G01*
X137277737Y-77676700D02*
X138590263Y-77676700D01*
G75*
G02*
X138859800Y-77946237I0J-269537D01*
G01*
X138859800Y-78808763D01*
G75*
G02*
X138590263Y-79078300I-269537J0D01*
G01*
X137277737Y-79078300D01*
G75*
G02*
X137008200Y-78808763I0J269537D01*
G01*
X137008200Y-77946237D01*
G75*
G02*
X137277737Y-77676700I269537J0D01*
G01*
G37*
G36*
G01*
X137277737Y-74576700D02*
X138590263Y-74576700D01*
G75*
G02*
X138859800Y-74846237I0J-269537D01*
G01*
X138859800Y-75708763D01*
G75*
G02*
X138590263Y-75978300I-269537J0D01*
G01*
X137277737Y-75978300D01*
G75*
G02*
X137008200Y-75708763I0J269537D01*
G01*
X137008200Y-74846237D01*
G75*
G02*
X137277737Y-74576700I269537J0D01*
G01*
G37*
G36*
G01*
X164006263Y-123915800D02*
X162693737Y-123915800D01*
G75*
G02*
X162424200Y-123646263I0J269537D01*
G01*
X162424200Y-122783737D01*
G75*
G02*
X162693737Y-122514200I269537J0D01*
G01*
X164006263Y-122514200D01*
G75*
G02*
X164275800Y-122783737I0J-269537D01*
G01*
X164275800Y-123646263D01*
G75*
G02*
X164006263Y-123915800I-269537J0D01*
G01*
G37*
G36*
G01*
X164006263Y-127015800D02*
X162693737Y-127015800D01*
G75*
G02*
X162424200Y-126746263I0J269537D01*
G01*
X162424200Y-125883737D01*
G75*
G02*
X162693737Y-125614200I269537J0D01*
G01*
X164006263Y-125614200D01*
G75*
G02*
X164275800Y-125883737I0J-269537D01*
G01*
X164275800Y-126746263D01*
G75*
G02*
X164006263Y-127015800I-269537J0D01*
G01*
G37*
G36*
G01*
X141706263Y-123915800D02*
X140393737Y-123915800D01*
G75*
G02*
X140124200Y-123646263I0J269537D01*
G01*
X140124200Y-122783737D01*
G75*
G02*
X140393737Y-122514200I269537J0D01*
G01*
X141706263Y-122514200D01*
G75*
G02*
X141975800Y-122783737I0J-269537D01*
G01*
X141975800Y-123646263D01*
G75*
G02*
X141706263Y-123915800I-269537J0D01*
G01*
G37*
G36*
G01*
X141706263Y-127015800D02*
X140393737Y-127015800D01*
G75*
G02*
X140124200Y-126746263I0J269537D01*
G01*
X140124200Y-125883737D01*
G75*
G02*
X140393737Y-125614200I269537J0D01*
G01*
X141706263Y-125614200D01*
G75*
G02*
X141975800Y-125883737I0J-269537D01*
G01*
X141975800Y-126746263D01*
G75*
G02*
X141706263Y-127015800I-269537J0D01*
G01*
G37*
D12*
G36*
X159867802Y-69371887D02*
G01*
X159867802Y-69353466D01*
X159868047Y-69348486D01*
X159872857Y-69299655D01*
X159873588Y-69294725D01*
X159883160Y-69246600D01*
X159884372Y-69241763D01*
X159898616Y-69194808D01*
X159900295Y-69190115D01*
X159919072Y-69144782D01*
X159921204Y-69140274D01*
X159944335Y-69097001D01*
X159946897Y-69092727D01*
X159974157Y-69051928D01*
X159977127Y-69047923D01*
X160008255Y-69009994D01*
X160011603Y-69006300D01*
X160046300Y-68971603D01*
X160049994Y-68968255D01*
X160087923Y-68937127D01*
X160091928Y-68934157D01*
X160132727Y-68906897D01*
X160137001Y-68904335D01*
X160180274Y-68881204D01*
X160184782Y-68879072D01*
X160230115Y-68860295D01*
X160234808Y-68858616D01*
X160281763Y-68844372D01*
X160286600Y-68843160D01*
X160334725Y-68833588D01*
X160339655Y-68832857D01*
X160388486Y-68828047D01*
X160393466Y-68827802D01*
X160411887Y-68827802D01*
X160418000Y-68827200D01*
X160918000Y-68827200D01*
X160924113Y-68827802D01*
X160942534Y-68827802D01*
X160947514Y-68828047D01*
X160996345Y-68832857D01*
X161001275Y-68833588D01*
X161049400Y-68843160D01*
X161054237Y-68844372D01*
X161101192Y-68858616D01*
X161105885Y-68860295D01*
X161151218Y-68879072D01*
X161155726Y-68881204D01*
X161198999Y-68904335D01*
X161203273Y-68906897D01*
X161244072Y-68934157D01*
X161248077Y-68937127D01*
X161286006Y-68968255D01*
X161289700Y-68971603D01*
X161324397Y-69006300D01*
X161327745Y-69009994D01*
X161358873Y-69047923D01*
X161361843Y-69051928D01*
X161389103Y-69092727D01*
X161391665Y-69097001D01*
X161414796Y-69140274D01*
X161416928Y-69144782D01*
X161435705Y-69190115D01*
X161437384Y-69194808D01*
X161451628Y-69241763D01*
X161452840Y-69246600D01*
X161462412Y-69294725D01*
X161463143Y-69299655D01*
X161467953Y-69348486D01*
X161468198Y-69353466D01*
X161468198Y-69371887D01*
X161468800Y-69378000D01*
X161468800Y-69878000D01*
X161467824Y-69887911D01*
X161464933Y-69897440D01*
X161460239Y-69906223D01*
X161453921Y-69913921D01*
X161446223Y-69920239D01*
X161437440Y-69924933D01*
X161427911Y-69927824D01*
X161418000Y-69928800D01*
X159918000Y-69928800D01*
X159908089Y-69927824D01*
X159898560Y-69924933D01*
X159889777Y-69920239D01*
X159882079Y-69913921D01*
X159875761Y-69906223D01*
X159871067Y-69897440D01*
X159868176Y-69887911D01*
X159867200Y-69878000D01*
X159867200Y-69378000D01*
X159867802Y-69371887D01*
G37*
G36*
X159868176Y-70168089D02*
G01*
X159871067Y-70158560D01*
X159875761Y-70149777D01*
X159882079Y-70142079D01*
X159889777Y-70135761D01*
X159898560Y-70131067D01*
X159908089Y-70128176D01*
X159918000Y-70127200D01*
X161418000Y-70127200D01*
X161427911Y-70128176D01*
X161437440Y-70131067D01*
X161446223Y-70135761D01*
X161453921Y-70142079D01*
X161460239Y-70149777D01*
X161464933Y-70158560D01*
X161467824Y-70168089D01*
X161468800Y-70178000D01*
X161468800Y-70678000D01*
X161468198Y-70684113D01*
X161468198Y-70702534D01*
X161467953Y-70707514D01*
X161463143Y-70756345D01*
X161462412Y-70761275D01*
X161452840Y-70809400D01*
X161451628Y-70814237D01*
X161437384Y-70861192D01*
X161435705Y-70865885D01*
X161416928Y-70911218D01*
X161414796Y-70915726D01*
X161391665Y-70958999D01*
X161389103Y-70963273D01*
X161361843Y-71004072D01*
X161358873Y-71008077D01*
X161327745Y-71046006D01*
X161324397Y-71049700D01*
X161289700Y-71084397D01*
X161286006Y-71087745D01*
X161248077Y-71118873D01*
X161244072Y-71121843D01*
X161203273Y-71149103D01*
X161198999Y-71151665D01*
X161155726Y-71174796D01*
X161151218Y-71176928D01*
X161105885Y-71195705D01*
X161101192Y-71197384D01*
X161054237Y-71211628D01*
X161049400Y-71212840D01*
X161001275Y-71222412D01*
X160996345Y-71223143D01*
X160947514Y-71227953D01*
X160942534Y-71228198D01*
X160924113Y-71228198D01*
X160918000Y-71228800D01*
X160418000Y-71228800D01*
X160411887Y-71228198D01*
X160393466Y-71228198D01*
X160388486Y-71227953D01*
X160339655Y-71223143D01*
X160334725Y-71222412D01*
X160286600Y-71212840D01*
X160281763Y-71211628D01*
X160234808Y-71197384D01*
X160230115Y-71195705D01*
X160184782Y-71176928D01*
X160180274Y-71174796D01*
X160137001Y-71151665D01*
X160132727Y-71149103D01*
X160091928Y-71121843D01*
X160087923Y-71118873D01*
X160049994Y-71087745D01*
X160046300Y-71084397D01*
X160011603Y-71049700D01*
X160008255Y-71046006D01*
X159977127Y-71008077D01*
X159974157Y-71004072D01*
X159946897Y-70963273D01*
X159944335Y-70958999D01*
X159921204Y-70915726D01*
X159919072Y-70911218D01*
X159900295Y-70865885D01*
X159898616Y-70861192D01*
X159884372Y-70814237D01*
X159883160Y-70809400D01*
X159873588Y-70761275D01*
X159872857Y-70756345D01*
X159868047Y-70707514D01*
X159867802Y-70702534D01*
X159867802Y-70684113D01*
X159867200Y-70678000D01*
X159867200Y-70178000D01*
X159868176Y-70168089D01*
G37*
D13*
X164986000Y-114960600D03*
X162446000Y-114960600D03*
X159906000Y-114960600D03*
X157366000Y-114960600D03*
X154826000Y-114960600D03*
X152286000Y-114960600D03*
X149746000Y-114960600D03*
X147206000Y-114960600D03*
X144666000Y-114960600D03*
X142126000Y-114960600D03*
X139586000Y-114960600D03*
X137046000Y-114960600D03*
X134506000Y-114960600D03*
G36*
G01*
X132816000Y-115861400D02*
X131116000Y-115861400D01*
G75*
G02*
X131065200Y-115810600I0J50800D01*
G01*
X131065200Y-114110600D01*
G75*
G02*
X131116000Y-114059800I50800J0D01*
G01*
X132816000Y-114059800D01*
G75*
G02*
X132866800Y-114110600I0J-50800D01*
G01*
X132866800Y-115810600D01*
G75*
G02*
X132816000Y-115861400I-50800J0D01*
G01*
G37*
G36*
G01*
X157857976Y-69375800D02*
X156542024Y-69375800D01*
G75*
G02*
X156274200Y-69107976I0J267824D01*
G01*
X156274200Y-68117024D01*
G75*
G02*
X156542024Y-67849200I267824J0D01*
G01*
X157857976Y-67849200D01*
G75*
G02*
X158125800Y-68117024I0J-267824D01*
G01*
X158125800Y-69107976D01*
G75*
G02*
X157857976Y-69375800I-267824J0D01*
G01*
G37*
G36*
G01*
X157857976Y-72350800D02*
X156542024Y-72350800D01*
G75*
G02*
X156274200Y-72082976I0J267824D01*
G01*
X156274200Y-71092024D01*
G75*
G02*
X156542024Y-70824200I267824J0D01*
G01*
X157857976Y-70824200D01*
G75*
G02*
X158125800Y-71092024I0J-267824D01*
G01*
X158125800Y-72082976D01*
G75*
G02*
X157857976Y-72350800I-267824J0D01*
G01*
G37*
G36*
G01*
X141008024Y-77596700D02*
X142323976Y-77596700D01*
G75*
G02*
X142591800Y-77864524I0J-267824D01*
G01*
X142591800Y-78855476D01*
G75*
G02*
X142323976Y-79123300I-267824J0D01*
G01*
X141008024Y-79123300D01*
G75*
G02*
X140740200Y-78855476I0J267824D01*
G01*
X140740200Y-77864524D01*
G75*
G02*
X141008024Y-77596700I267824J0D01*
G01*
G37*
G36*
G01*
X141008024Y-74621700D02*
X142323976Y-74621700D01*
G75*
G02*
X142591800Y-74889524I0J-267824D01*
G01*
X142591800Y-75880476D01*
G75*
G02*
X142323976Y-76148300I-267824J0D01*
G01*
X141008024Y-76148300D01*
G75*
G02*
X140740200Y-75880476I0J267824D01*
G01*
X140740200Y-74889524D01*
G75*
G02*
X141008024Y-74621700I267824J0D01*
G01*
G37*
G36*
G01*
X130313700Y-103956634D02*
X130313700Y-102593366D01*
G75*
G02*
X130582866Y-102324200I269166J0D01*
G01*
X131471134Y-102324200D01*
G75*
G02*
X131740300Y-102593366I0J-269166D01*
G01*
X131740300Y-103956634D01*
G75*
G02*
X131471134Y-104225800I-269166J0D01*
G01*
X130582866Y-104225800D01*
G75*
G02*
X130313700Y-103956634I0J269166D01*
G01*
G37*
G36*
G01*
X127188700Y-103956634D02*
X127188700Y-102593366D01*
G75*
G02*
X127457866Y-102324200I269166J0D01*
G01*
X128346134Y-102324200D01*
G75*
G02*
X128615300Y-102593366I0J-269166D01*
G01*
X128615300Y-103956634D01*
G75*
G02*
X128346134Y-104225800I-269166J0D01*
G01*
X127457866Y-104225800D01*
G75*
G02*
X127188700Y-103956634I0J269166D01*
G01*
G37*
G36*
G01*
X135263300Y-99088364D02*
X135263300Y-100451632D01*
G75*
G02*
X134994134Y-100720798I-269166J0D01*
G01*
X134105866Y-100720798D01*
G75*
G02*
X133836700Y-100451632I0J269166D01*
G01*
X133836700Y-99088364D01*
G75*
G02*
X134105866Y-98819198I269166J0D01*
G01*
X134994134Y-98819198D01*
G75*
G02*
X135263300Y-99088364I0J-269166D01*
G01*
G37*
G36*
G01*
X138388300Y-99088364D02*
X138388300Y-100451632D01*
G75*
G02*
X138119134Y-100720798I-269166J0D01*
G01*
X137230866Y-100720798D01*
G75*
G02*
X136961700Y-100451632I0J269166D01*
G01*
X136961700Y-99088364D01*
G75*
G02*
X137230866Y-98819198I269166J0D01*
G01*
X138119134Y-98819198D01*
G75*
G02*
X138388300Y-99088364I0J-269166D01*
G01*
G37*
G36*
G01*
X130311700Y-100527634D02*
X130311700Y-99164366D01*
G75*
G02*
X130580866Y-98895200I269166J0D01*
G01*
X131469134Y-98895200D01*
G75*
G02*
X131738300Y-99164366I0J-269166D01*
G01*
X131738300Y-100527634D01*
G75*
G02*
X131469134Y-100796800I-269166J0D01*
G01*
X130580866Y-100796800D01*
G75*
G02*
X130311700Y-100527634I0J269166D01*
G01*
G37*
G36*
G01*
X127186700Y-100527634D02*
X127186700Y-99164366D01*
G75*
G02*
X127455866Y-98895200I269166J0D01*
G01*
X128344134Y-98895200D01*
G75*
G02*
X128613300Y-99164366I0J-269166D01*
G01*
X128613300Y-100527634D01*
G75*
G02*
X128344134Y-100796800I-269166J0D01*
G01*
X127455866Y-100796800D01*
G75*
G02*
X127186700Y-100527634I0J269166D01*
G01*
G37*
G36*
G01*
X155922366Y-108149200D02*
X157285634Y-108149200D01*
G75*
G02*
X157554800Y-108418366I0J-269166D01*
G01*
X157554800Y-109306634D01*
G75*
G02*
X157285634Y-109575800I-269166J0D01*
G01*
X155922366Y-109575800D01*
G75*
G02*
X155653200Y-109306634I0J269166D01*
G01*
X155653200Y-108418366D01*
G75*
G02*
X155922366Y-108149200I269166J0D01*
G01*
G37*
G36*
G01*
X155922366Y-105024200D02*
X157285634Y-105024200D01*
G75*
G02*
X157554800Y-105293366I0J-269166D01*
G01*
X157554800Y-106181634D01*
G75*
G02*
X157285634Y-106450800I-269166J0D01*
G01*
X155922366Y-106450800D01*
G75*
G02*
X155653200Y-106181634I0J269166D01*
G01*
X155653200Y-105293366D01*
G75*
G02*
X155922366Y-105024200I269166J0D01*
G01*
G37*
G36*
G01*
X130311700Y-96971634D02*
X130311700Y-95608366D01*
G75*
G02*
X130580866Y-95339200I269166J0D01*
G01*
X131469134Y-95339200D01*
G75*
G02*
X131738300Y-95608366I0J-269166D01*
G01*
X131738300Y-96971634D01*
G75*
G02*
X131469134Y-97240800I-269166J0D01*
G01*
X130580866Y-97240800D01*
G75*
G02*
X130311700Y-96971634I0J269166D01*
G01*
G37*
G36*
G01*
X127186700Y-96971634D02*
X127186700Y-95608366D01*
G75*
G02*
X127455866Y-95339200I269166J0D01*
G01*
X128344134Y-95339200D01*
G75*
G02*
X128613300Y-95608366I0J-269166D01*
G01*
X128613300Y-96971634D01*
G75*
G02*
X128344134Y-97240800I-269166J0D01*
G01*
X127455866Y-97240800D01*
G75*
G02*
X127186700Y-96971634I0J269166D01*
G01*
G37*
G36*
G01*
X152881634Y-109100800D02*
X151518366Y-109100800D01*
G75*
G02*
X151249200Y-108831634I0J269166D01*
G01*
X151249200Y-107943366D01*
G75*
G02*
X151518366Y-107674200I269166J0D01*
G01*
X152881634Y-107674200D01*
G75*
G02*
X153150800Y-107943366I0J-269166D01*
G01*
X153150800Y-108831634D01*
G75*
G02*
X152881634Y-109100800I-269166J0D01*
G01*
G37*
G36*
G01*
X152881634Y-112225800D02*
X151518366Y-112225800D01*
G75*
G02*
X151249200Y-111956634I0J269166D01*
G01*
X151249200Y-111068366D01*
G75*
G02*
X151518366Y-110799200I269166J0D01*
G01*
X152881634Y-110799200D01*
G75*
G02*
X153150800Y-111068366I0J-269166D01*
G01*
X153150800Y-111956634D01*
G75*
G02*
X152881634Y-112225800I-269166J0D01*
G01*
G37*
G36*
G01*
X136961700Y-107444964D02*
X136961700Y-106081696D01*
G75*
G02*
X137230866Y-105812530I269166J0D01*
G01*
X138119134Y-105812530D01*
G75*
G02*
X138388300Y-106081696I0J-269166D01*
G01*
X138388300Y-107444964D01*
G75*
G02*
X138119134Y-107714130I-269166J0D01*
G01*
X137230866Y-107714130D01*
G75*
G02*
X136961700Y-107444964I0J269166D01*
G01*
G37*
G36*
G01*
X133836700Y-107444964D02*
X133836700Y-106081696D01*
G75*
G02*
X134105866Y-105812530I269166J0D01*
G01*
X134994134Y-105812530D01*
G75*
G02*
X135263300Y-106081696I0J-269166D01*
G01*
X135263300Y-107444964D01*
G75*
G02*
X134994134Y-107714130I-269166J0D01*
G01*
X134105866Y-107714130D01*
G75*
G02*
X133836700Y-107444964I0J269166D01*
G01*
G37*
G36*
G01*
X146109634Y-76008300D02*
X144746366Y-76008300D01*
G75*
G02*
X144477200Y-75739134I0J269166D01*
G01*
X144477200Y-74850866D01*
G75*
G02*
X144746366Y-74581700I269166J0D01*
G01*
X146109634Y-74581700D01*
G75*
G02*
X146378800Y-74850866I0J-269166D01*
G01*
X146378800Y-75739134D01*
G75*
G02*
X146109634Y-76008300I-269166J0D01*
G01*
G37*
G36*
G01*
X146109634Y-79133300D02*
X144746366Y-79133300D01*
G75*
G02*
X144477200Y-78864134I0J269166D01*
G01*
X144477200Y-77975866D01*
G75*
G02*
X144746366Y-77706700I269166J0D01*
G01*
X146109634Y-77706700D01*
G75*
G02*
X146378800Y-77975866I0J-269166D01*
G01*
X146378800Y-78864134D01*
G75*
G02*
X146109634Y-79133300I-269166J0D01*
G01*
G37*
G36*
G01*
X136961700Y-103948298D02*
X136961700Y-102585030D01*
G75*
G02*
X137230866Y-102315864I269166J0D01*
G01*
X138119134Y-102315864D01*
G75*
G02*
X138388300Y-102585030I0J-269166D01*
G01*
X138388300Y-103948298D01*
G75*
G02*
X138119134Y-104217464I-269166J0D01*
G01*
X137230866Y-104217464D01*
G75*
G02*
X136961700Y-103948298I0J269166D01*
G01*
G37*
G36*
G01*
X133836700Y-103948298D02*
X133836700Y-102585030D01*
G75*
G02*
X134105866Y-102315864I269166J0D01*
G01*
X134994134Y-102315864D01*
G75*
G02*
X135263300Y-102585030I0J-269166D01*
G01*
X135263300Y-103948298D01*
G75*
G02*
X134994134Y-104217464I-269166J0D01*
G01*
X134105866Y-104217464D01*
G75*
G02*
X133836700Y-103948298I0J269166D01*
G01*
G37*
G36*
G01*
X135263300Y-109778366D02*
X135263300Y-111141634D01*
G75*
G02*
X134994134Y-111410800I-269166J0D01*
G01*
X134105866Y-111410800D01*
G75*
G02*
X133836700Y-111141634I0J269166D01*
G01*
X133836700Y-109778366D01*
G75*
G02*
X134105866Y-109509200I269166J0D01*
G01*
X134994134Y-109509200D01*
G75*
G02*
X135263300Y-109778366I0J-269166D01*
G01*
G37*
G36*
G01*
X138388300Y-109778366D02*
X138388300Y-111141634D01*
G75*
G02*
X138119134Y-111410800I-269166J0D01*
G01*
X137230866Y-111410800D01*
G75*
G02*
X136961700Y-111141634I0J269166D01*
G01*
X136961700Y-109778366D01*
G75*
G02*
X137230866Y-109509200I269166J0D01*
G01*
X138119134Y-109509200D01*
G75*
G02*
X138388300Y-109778366I0J-269166D01*
G01*
G37*
G36*
G01*
X173745700Y-85187634D02*
X173745700Y-83824366D01*
G75*
G02*
X174014866Y-83555200I269166J0D01*
G01*
X174903134Y-83555200D01*
G75*
G02*
X175172300Y-83824366I0J-269166D01*
G01*
X175172300Y-85187634D01*
G75*
G02*
X174903134Y-85456800I-269166J0D01*
G01*
X174014866Y-85456800D01*
G75*
G02*
X173745700Y-85187634I0J269166D01*
G01*
G37*
G36*
G01*
X170620700Y-85187634D02*
X170620700Y-83824366D01*
G75*
G02*
X170889866Y-83555200I269166J0D01*
G01*
X171778134Y-83555200D01*
G75*
G02*
X172047300Y-83824366I0J-269166D01*
G01*
X172047300Y-85187634D01*
G75*
G02*
X171778134Y-85456800I-269166J0D01*
G01*
X170889866Y-85456800D01*
G75*
G02*
X170620700Y-85187634I0J269166D01*
G01*
G37*
G36*
G01*
X158968366Y-125614200D02*
X160331634Y-125614200D01*
G75*
G02*
X160600800Y-125883366I0J-269166D01*
G01*
X160600800Y-126771634D01*
G75*
G02*
X160331634Y-127040800I-269166J0D01*
G01*
X158968366Y-127040800D01*
G75*
G02*
X158699200Y-126771634I0J269166D01*
G01*
X158699200Y-125883366D01*
G75*
G02*
X158968366Y-125614200I269166J0D01*
G01*
G37*
G36*
G01*
X158968366Y-122489200D02*
X160331634Y-122489200D01*
G75*
G02*
X160600800Y-122758366I0J-269166D01*
G01*
X160600800Y-123646634D01*
G75*
G02*
X160331634Y-123915800I-269166J0D01*
G01*
X158968366Y-123915800D01*
G75*
G02*
X158699200Y-123646634I0J269166D01*
G01*
X158699200Y-122758366D01*
G75*
G02*
X158968366Y-122489200I269166J0D01*
G01*
G37*
G36*
G01*
X130181634Y-90150800D02*
X128818366Y-90150800D01*
G75*
G02*
X128549200Y-89881634I0J269166D01*
G01*
X128549200Y-88993366D01*
G75*
G02*
X128818366Y-88724200I269166J0D01*
G01*
X130181634Y-88724200D01*
G75*
G02*
X130450800Y-88993366I0J-269166D01*
G01*
X130450800Y-89881634D01*
G75*
G02*
X130181634Y-90150800I-269166J0D01*
G01*
G37*
G36*
G01*
X130181634Y-93275800D02*
X128818366Y-93275800D01*
G75*
G02*
X128549200Y-93006634I0J269166D01*
G01*
X128549200Y-92118366D01*
G75*
G02*
X128818366Y-91849200I269166J0D01*
G01*
X130181634Y-91849200D01*
G75*
G02*
X130450800Y-92118366I0J-269166D01*
G01*
X130450800Y-93006634D01*
G75*
G02*
X130181634Y-93275800I-269166J0D01*
G01*
G37*
G36*
G01*
X124763400Y-93645834D02*
X124763400Y-92282566D01*
G75*
G02*
X125032566Y-92013400I269166J0D01*
G01*
X125920834Y-92013400D01*
G75*
G02*
X126190000Y-92282566I0J-269166D01*
G01*
X126190000Y-93645834D01*
G75*
G02*
X125920834Y-93915000I-269166J0D01*
G01*
X125032566Y-93915000D01*
G75*
G02*
X124763400Y-93645834I0J269166D01*
G01*
G37*
G36*
G01*
X121638400Y-93645834D02*
X121638400Y-92282566D01*
G75*
G02*
X121907566Y-92013400I269166J0D01*
G01*
X122795834Y-92013400D01*
G75*
G02*
X123065000Y-92282566I0J-269166D01*
G01*
X123065000Y-93645834D01*
G75*
G02*
X122795834Y-93915000I-269166J0D01*
G01*
X121907566Y-93915000D01*
G75*
G02*
X121638400Y-93645834I0J269166D01*
G01*
G37*
G36*
G01*
X123500000Y-87149200D02*
X124300000Y-87149200D01*
G75*
G02*
X124350800Y-87200000I0J-50800D01*
G01*
X124350800Y-89100000D01*
G75*
G02*
X124300000Y-89150800I-50800J0D01*
G01*
X123500000Y-89150800D01*
G75*
G02*
X123449200Y-89100000I0J50800D01*
G01*
X123449200Y-87200000D01*
G75*
G02*
X123500000Y-87149200I50800J0D01*
G01*
G37*
G36*
G01*
X122550000Y-84149200D02*
X123350000Y-84149200D01*
G75*
G02*
X123400800Y-84200000I0J-50800D01*
G01*
X123400800Y-86100000D01*
G75*
G02*
X123350000Y-86150800I-50800J0D01*
G01*
X122550000Y-86150800D01*
G75*
G02*
X122499200Y-86100000I0J50800D01*
G01*
X122499200Y-84200000D01*
G75*
G02*
X122550000Y-84149200I50800J0D01*
G01*
G37*
G36*
G01*
X124450000Y-84149200D02*
X125250000Y-84149200D01*
G75*
G02*
X125300800Y-84200000I0J-50800D01*
G01*
X125300800Y-86100000D01*
G75*
G02*
X125250000Y-86150800I-50800J0D01*
G01*
X124450000Y-86150800D01*
G75*
G02*
X124399200Y-86100000I0J50800D01*
G01*
X124399200Y-84200000D01*
G75*
G02*
X124450000Y-84149200I50800J0D01*
G01*
G37*
G36*
G01*
X164136000Y-83559200D02*
X165836000Y-83559200D01*
G75*
G02*
X165886800Y-83610000I0J-50800D01*
G01*
X165886800Y-85310000D01*
G75*
G02*
X165836000Y-85360800I-50800J0D01*
G01*
X164136000Y-85360800D01*
G75*
G02*
X164085200Y-85310000I0J50800D01*
G01*
X164085200Y-83610000D01*
G75*
G02*
X164136000Y-83559200I50800J0D01*
G01*
G37*
X162446000Y-84460000D03*
X159906000Y-84460000D03*
X157366000Y-84460000D03*
X154826000Y-84460000D03*
X152286000Y-84460000D03*
X149746000Y-84460000D03*
X147206000Y-84460000D03*
X144666000Y-84460000D03*
X142126000Y-84460000D03*
X139586000Y-84460000D03*
X137046000Y-84460000D03*
X134506000Y-84460000D03*
X131966000Y-84460000D03*
D10*
X130000000Y-120000000D03*
X170000000Y-120000000D03*
X170000000Y-80000000D03*
G36*
G01*
X160600000Y-93300800D02*
X159400000Y-93300800D01*
G75*
G02*
X159349200Y-93250000I0J50800D01*
G01*
X159349200Y-90750000D01*
G75*
G02*
X159400000Y-90699200I50800J0D01*
G01*
X160600000Y-90699200D01*
G75*
G02*
X160650800Y-90750000I0J-50800D01*
G01*
X160650800Y-93250000D01*
G75*
G02*
X160600000Y-93300800I-50800J0D01*
G01*
G37*
G36*
G01*
X162600000Y-93300800D02*
X161400000Y-93300800D01*
G75*
G02*
X161349200Y-93250000I0J50800D01*
G01*
X161349200Y-90750000D01*
G75*
G02*
X161400000Y-90699200I50800J0D01*
G01*
X162600000Y-90699200D01*
G75*
G02*
X162650800Y-90750000I0J-50800D01*
G01*
X162650800Y-93250000D01*
G75*
G02*
X162600000Y-93300800I-50800J0D01*
G01*
G37*
G36*
G01*
X164600000Y-93300800D02*
X163400000Y-93300800D01*
G75*
G02*
X163349200Y-93250000I0J50800D01*
G01*
X163349200Y-90750000D01*
G75*
G02*
X163400000Y-90699200I50800J0D01*
G01*
X164600000Y-90699200D01*
G75*
G02*
X164650800Y-90750000I0J-50800D01*
G01*
X164650800Y-93250000D01*
G75*
G02*
X164600000Y-93300800I-50800J0D01*
G01*
G37*
G36*
G01*
X166600000Y-93300800D02*
X165400000Y-93300800D01*
G75*
G02*
X165349200Y-93250000I0J50800D01*
G01*
X165349200Y-90750000D01*
G75*
G02*
X165400000Y-90699200I50800J0D01*
G01*
X166600000Y-90699200D01*
G75*
G02*
X166650800Y-90750000I0J-50800D01*
G01*
X166650800Y-93250000D01*
G75*
G02*
X166600000Y-93300800I-50800J0D01*
G01*
G37*
G36*
G01*
X168600000Y-93300800D02*
X167400000Y-93300800D01*
G75*
G02*
X167349200Y-93250000I0J50800D01*
G01*
X167349200Y-90750000D01*
G75*
G02*
X167400000Y-90699200I50800J0D01*
G01*
X168600000Y-90699200D01*
G75*
G02*
X168650800Y-90750000I0J-50800D01*
G01*
X168650800Y-93250000D01*
G75*
G02*
X168600000Y-93300800I-50800J0D01*
G01*
G37*
G36*
G01*
X170600000Y-93300800D02*
X169400000Y-93300800D01*
G75*
G02*
X169349200Y-93250000I0J50800D01*
G01*
X169349200Y-90750000D01*
G75*
G02*
X169400000Y-90699200I50800J0D01*
G01*
X170600000Y-90699200D01*
G75*
G02*
X170650800Y-90750000I0J-50800D01*
G01*
X170650800Y-93250000D01*
G75*
G02*
X170600000Y-93300800I-50800J0D01*
G01*
G37*
G36*
G01*
X172600000Y-93300800D02*
X171400000Y-93300800D01*
G75*
G02*
X171349200Y-93250000I0J50800D01*
G01*
X171349200Y-90750000D01*
G75*
G02*
X171400000Y-90699200I50800J0D01*
G01*
X172600000Y-90699200D01*
G75*
G02*
X172650800Y-90750000I0J-50800D01*
G01*
X172650800Y-93250000D01*
G75*
G02*
X172600000Y-93300800I-50800J0D01*
G01*
G37*
G36*
G01*
X174600000Y-93300800D02*
X173400000Y-93300800D01*
G75*
G02*
X173349200Y-93250000I0J50800D01*
G01*
X173349200Y-90750000D01*
G75*
G02*
X173400000Y-90699200I50800J0D01*
G01*
X174600000Y-90699200D01*
G75*
G02*
X174650800Y-90750000I0J-50800D01*
G01*
X174650800Y-93250000D01*
G75*
G02*
X174600000Y-93300800I-50800J0D01*
G01*
G37*
G36*
G01*
X174600000Y-109300800D02*
X173400000Y-109300800D01*
G75*
G02*
X173349200Y-109250000I0J50800D01*
G01*
X173349200Y-106750000D01*
G75*
G02*
X173400000Y-106699200I50800J0D01*
G01*
X174600000Y-106699200D01*
G75*
G02*
X174650800Y-106750000I0J-50800D01*
G01*
X174650800Y-109250000D01*
G75*
G02*
X174600000Y-109300800I-50800J0D01*
G01*
G37*
G36*
G01*
X172600000Y-109300800D02*
X171400000Y-109300800D01*
G75*
G02*
X171349200Y-109250000I0J50800D01*
G01*
X171349200Y-106750000D01*
G75*
G02*
X171400000Y-106699200I50800J0D01*
G01*
X172600000Y-106699200D01*
G75*
G02*
X172650800Y-106750000I0J-50800D01*
G01*
X172650800Y-109250000D01*
G75*
G02*
X172600000Y-109300800I-50800J0D01*
G01*
G37*
G36*
G01*
X170600000Y-109300800D02*
X169400000Y-109300800D01*
G75*
G02*
X169349200Y-109250000I0J50800D01*
G01*
X169349200Y-106750000D01*
G75*
G02*
X169400000Y-106699200I50800J0D01*
G01*
X170600000Y-106699200D01*
G75*
G02*
X170650800Y-106750000I0J-50800D01*
G01*
X170650800Y-109250000D01*
G75*
G02*
X170600000Y-109300800I-50800J0D01*
G01*
G37*
G36*
G01*
X168600000Y-109300800D02*
X167400000Y-109300800D01*
G75*
G02*
X167349200Y-109250000I0J50800D01*
G01*
X167349200Y-106750000D01*
G75*
G02*
X167400000Y-106699200I50800J0D01*
G01*
X168600000Y-106699200D01*
G75*
G02*
X168650800Y-106750000I0J-50800D01*
G01*
X168650800Y-109250000D01*
G75*
G02*
X168600000Y-109300800I-50800J0D01*
G01*
G37*
G36*
G01*
X166600000Y-109300800D02*
X165400000Y-109300800D01*
G75*
G02*
X165349200Y-109250000I0J50800D01*
G01*
X165349200Y-106750000D01*
G75*
G02*
X165400000Y-106699200I50800J0D01*
G01*
X166600000Y-106699200D01*
G75*
G02*
X166650800Y-106750000I0J-50800D01*
G01*
X166650800Y-109250000D01*
G75*
G02*
X166600000Y-109300800I-50800J0D01*
G01*
G37*
G36*
G01*
X164600000Y-109300800D02*
X163400000Y-109300800D01*
G75*
G02*
X163349200Y-109250000I0J50800D01*
G01*
X163349200Y-106750000D01*
G75*
G02*
X163400000Y-106699200I50800J0D01*
G01*
X164600000Y-106699200D01*
G75*
G02*
X164650800Y-106750000I0J-50800D01*
G01*
X164650800Y-109250000D01*
G75*
G02*
X164600000Y-109300800I-50800J0D01*
G01*
G37*
G36*
G01*
X162600000Y-109300800D02*
X161400000Y-109300800D01*
G75*
G02*
X161349200Y-109250000I0J50800D01*
G01*
X161349200Y-106750000D01*
G75*
G02*
X161400000Y-106699200I50800J0D01*
G01*
X162600000Y-106699200D01*
G75*
G02*
X162650800Y-106750000I0J-50800D01*
G01*
X162650800Y-109250000D01*
G75*
G02*
X162600000Y-109300800I-50800J0D01*
G01*
G37*
G36*
G01*
X160600000Y-109300800D02*
X159400000Y-109300800D01*
G75*
G02*
X159349200Y-109250000I0J50800D01*
G01*
X159349200Y-106750000D01*
G75*
G02*
X159400000Y-106699200I50800J0D01*
G01*
X160600000Y-106699200D01*
G75*
G02*
X160650800Y-106750000I0J-50800D01*
G01*
X160650800Y-109250000D01*
G75*
G02*
X160600000Y-109300800I-50800J0D01*
G01*
G37*
G36*
G01*
X133142024Y-125511700D02*
X134457976Y-125511700D01*
G75*
G02*
X134725800Y-125779524I0J-267824D01*
G01*
X134725800Y-126770476D01*
G75*
G02*
X134457976Y-127038300I-267824J0D01*
G01*
X133142024Y-127038300D01*
G75*
G02*
X132874200Y-126770476I0J267824D01*
G01*
X132874200Y-125779524D01*
G75*
G02*
X133142024Y-125511700I267824J0D01*
G01*
G37*
G36*
G01*
X133142024Y-122536700D02*
X134457976Y-122536700D01*
G75*
G02*
X134725800Y-122804524I0J-267824D01*
G01*
X134725800Y-123795476D01*
G75*
G02*
X134457976Y-124063300I-267824J0D01*
G01*
X133142024Y-124063300D01*
G75*
G02*
X132874200Y-123795476I0J267824D01*
G01*
X132874200Y-122804524D01*
G75*
G02*
X133142024Y-122536700I267824J0D01*
G01*
G37*
D13*
X155334000Y-127686000D03*
X155334000Y-130226000D03*
X152794000Y-127686000D03*
X152794000Y-130226000D03*
X150254000Y-127686000D03*
X150254000Y-130226000D03*
X147714000Y-127686000D03*
X147714000Y-130226000D03*
X145174000Y-127686000D03*
G36*
G01*
X146024000Y-131126800D02*
X144324000Y-131126800D01*
G75*
G02*
X144273200Y-131076000I0J50800D01*
G01*
X144273200Y-129376000D01*
G75*
G02*
X144324000Y-129325200I50800J0D01*
G01*
X146024000Y-129325200D01*
G75*
G02*
X146074800Y-129376000I0J-50800D01*
G01*
X146074800Y-131076000D01*
G75*
G02*
X146024000Y-131126800I-50800J0D01*
G01*
G37*
D14*
X178550000Y-100000000D03*
G36*
G01*
X178970000Y-97894200D02*
X181170000Y-97894200D01*
G75*
G02*
X181220800Y-97945000I0J-50800D01*
G01*
X181220800Y-98995000D01*
G75*
G02*
X181170000Y-99045800I-50800J0D01*
G01*
X178970000Y-99045800D01*
G75*
G02*
X178919200Y-98995000I0J50800D01*
G01*
X178919200Y-97945000D01*
G75*
G02*
X178970000Y-97894200I50800J0D01*
G01*
G37*
G36*
G01*
X178970000Y-100954200D02*
X181170000Y-100954200D01*
G75*
G02*
X181220800Y-101005000I0J-50800D01*
G01*
X181220800Y-102055000D01*
G75*
G02*
X181170000Y-102105800I-50800J0D01*
G01*
X178970000Y-102105800D01*
G75*
G02*
X178919200Y-102055000I0J50800D01*
G01*
X178919200Y-101005000D01*
G75*
G02*
X178970000Y-100954200I50800J0D01*
G01*
G37*
G36*
G01*
X178968000Y-99187200D02*
X183032000Y-99187200D01*
G75*
G02*
X183082800Y-99238000I0J-50800D01*
G01*
X183082800Y-100762000D01*
G75*
G02*
X183032000Y-100812800I-50800J0D01*
G01*
X178968000Y-100812800D01*
G75*
G02*
X178917200Y-100762000I0J50800D01*
G01*
X178917200Y-99238000D01*
G75*
G02*
X178968000Y-99187200I50800J0D01*
G01*
G37*
G36*
G01*
X178968000Y-96647200D02*
X183032000Y-96647200D01*
G75*
G02*
X183082800Y-96698000I0J-50800D01*
G01*
X183082800Y-98222000D01*
G75*
G02*
X183032000Y-98272800I-50800J0D01*
G01*
X178968000Y-98272800D01*
G75*
G02*
X178917200Y-98222000I0J50800D01*
G01*
X178917200Y-96698000D01*
G75*
G02*
X178968000Y-96647200I50800J0D01*
G01*
G37*
G36*
G01*
X178968000Y-101727200D02*
X183032000Y-101727200D01*
G75*
G02*
X183082800Y-101778000I0J-50800D01*
G01*
X183082800Y-103302000D01*
G75*
G02*
X183032000Y-103352800I-50800J0D01*
G01*
X178968000Y-103352800D01*
G75*
G02*
X178917200Y-103302000I0J50800D01*
G01*
X178917200Y-101778000D01*
G75*
G02*
X178968000Y-101727200I50800J0D01*
G01*
G37*
G36*
G01*
X146600800Y-102525000D02*
X146600800Y-103075000D01*
G75*
G02*
X146550000Y-103125800I-50800J0D01*
G01*
X144950000Y-103125800D01*
G75*
G02*
X144899200Y-103075000I0J50800D01*
G01*
X144899200Y-102525000D01*
G75*
G02*
X144950000Y-102474200I50800J0D01*
G01*
X146550000Y-102474200D01*
G75*
G02*
X146600800Y-102525000I0J-50800D01*
G01*
G37*
G36*
G01*
X146600800Y-101725000D02*
X146600800Y-102275000D01*
G75*
G02*
X146550000Y-102325800I-50800J0D01*
G01*
X144950000Y-102325800D01*
G75*
G02*
X144899200Y-102275000I0J50800D01*
G01*
X144899200Y-101725000D01*
G75*
G02*
X144950000Y-101674200I50800J0D01*
G01*
X146550000Y-101674200D01*
G75*
G02*
X146600800Y-101725000I0J-50800D01*
G01*
G37*
G36*
G01*
X146600800Y-100925000D02*
X146600800Y-101475000D01*
G75*
G02*
X146550000Y-101525800I-50800J0D01*
G01*
X144950000Y-101525800D01*
G75*
G02*
X144899200Y-101475000I0J50800D01*
G01*
X144899200Y-100925000D01*
G75*
G02*
X144950000Y-100874200I50800J0D01*
G01*
X146550000Y-100874200D01*
G75*
G02*
X146600800Y-100925000I0J-50800D01*
G01*
G37*
G36*
G01*
X146600800Y-100125000D02*
X146600800Y-100675000D01*
G75*
G02*
X146550000Y-100725800I-50800J0D01*
G01*
X144950000Y-100725800D01*
G75*
G02*
X144899200Y-100675000I0J50800D01*
G01*
X144899200Y-100125000D01*
G75*
G02*
X144950000Y-100074200I50800J0D01*
G01*
X146550000Y-100074200D01*
G75*
G02*
X146600800Y-100125000I0J-50800D01*
G01*
G37*
G36*
G01*
X146600800Y-99325000D02*
X146600800Y-99875000D01*
G75*
G02*
X146550000Y-99925800I-50800J0D01*
G01*
X144950000Y-99925800D01*
G75*
G02*
X144899200Y-99875000I0J50800D01*
G01*
X144899200Y-99325000D01*
G75*
G02*
X144950000Y-99274200I50800J0D01*
G01*
X146550000Y-99274200D01*
G75*
G02*
X146600800Y-99325000I0J-50800D01*
G01*
G37*
G36*
G01*
X146600800Y-98525000D02*
X146600800Y-99075000D01*
G75*
G02*
X146550000Y-99125800I-50800J0D01*
G01*
X144950000Y-99125800D01*
G75*
G02*
X144899200Y-99075000I0J50800D01*
G01*
X144899200Y-98525000D01*
G75*
G02*
X144950000Y-98474200I50800J0D01*
G01*
X146550000Y-98474200D01*
G75*
G02*
X146600800Y-98525000I0J-50800D01*
G01*
G37*
G36*
G01*
X146600800Y-97725000D02*
X146600800Y-98275000D01*
G75*
G02*
X146550000Y-98325800I-50800J0D01*
G01*
X144950000Y-98325800D01*
G75*
G02*
X144899200Y-98275000I0J50800D01*
G01*
X144899200Y-97725000D01*
G75*
G02*
X144950000Y-97674200I50800J0D01*
G01*
X146550000Y-97674200D01*
G75*
G02*
X146600800Y-97725000I0J-50800D01*
G01*
G37*
G36*
G01*
X146600800Y-96925000D02*
X146600800Y-97475000D01*
G75*
G02*
X146550000Y-97525800I-50800J0D01*
G01*
X144950000Y-97525800D01*
G75*
G02*
X144899200Y-97475000I0J50800D01*
G01*
X144899200Y-96925000D01*
G75*
G02*
X144950000Y-96874200I50800J0D01*
G01*
X146550000Y-96874200D01*
G75*
G02*
X146600800Y-96925000I0J-50800D01*
G01*
G37*
G36*
G01*
X147475000Y-96600800D02*
X146925000Y-96600800D01*
G75*
G02*
X146874200Y-96550000I0J50800D01*
G01*
X146874200Y-94950000D01*
G75*
G02*
X146925000Y-94899200I50800J0D01*
G01*
X147475000Y-94899200D01*
G75*
G02*
X147525800Y-94950000I0J-50800D01*
G01*
X147525800Y-96550000D01*
G75*
G02*
X147475000Y-96600800I-50800J0D01*
G01*
G37*
G36*
G01*
X148275000Y-96600800D02*
X147725000Y-96600800D01*
G75*
G02*
X147674200Y-96550000I0J50800D01*
G01*
X147674200Y-94950000D01*
G75*
G02*
X147725000Y-94899200I50800J0D01*
G01*
X148275000Y-94899200D01*
G75*
G02*
X148325800Y-94950000I0J-50800D01*
G01*
X148325800Y-96550000D01*
G75*
G02*
X148275000Y-96600800I-50800J0D01*
G01*
G37*
G36*
G01*
X149075000Y-96600800D02*
X148525000Y-96600800D01*
G75*
G02*
X148474200Y-96550000I0J50800D01*
G01*
X148474200Y-94950000D01*
G75*
G02*
X148525000Y-94899200I50800J0D01*
G01*
X149075000Y-94899200D01*
G75*
G02*
X149125800Y-94950000I0J-50800D01*
G01*
X149125800Y-96550000D01*
G75*
G02*
X149075000Y-96600800I-50800J0D01*
G01*
G37*
G36*
G01*
X149875000Y-96600800D02*
X149325000Y-96600800D01*
G75*
G02*
X149274200Y-96550000I0J50800D01*
G01*
X149274200Y-94950000D01*
G75*
G02*
X149325000Y-94899200I50800J0D01*
G01*
X149875000Y-94899200D01*
G75*
G02*
X149925800Y-94950000I0J-50800D01*
G01*
X149925800Y-96550000D01*
G75*
G02*
X149875000Y-96600800I-50800J0D01*
G01*
G37*
G36*
G01*
X150675000Y-96600800D02*
X150125000Y-96600800D01*
G75*
G02*
X150074200Y-96550000I0J50800D01*
G01*
X150074200Y-94950000D01*
G75*
G02*
X150125000Y-94899200I50800J0D01*
G01*
X150675000Y-94899200D01*
G75*
G02*
X150725800Y-94950000I0J-50800D01*
G01*
X150725800Y-96550000D01*
G75*
G02*
X150675000Y-96600800I-50800J0D01*
G01*
G37*
G36*
G01*
X151475000Y-96600800D02*
X150925000Y-96600800D01*
G75*
G02*
X150874200Y-96550000I0J50800D01*
G01*
X150874200Y-94950000D01*
G75*
G02*
X150925000Y-94899200I50800J0D01*
G01*
X151475000Y-94899200D01*
G75*
G02*
X151525800Y-94950000I0J-50800D01*
G01*
X151525800Y-96550000D01*
G75*
G02*
X151475000Y-96600800I-50800J0D01*
G01*
G37*
G36*
G01*
X152275000Y-96600800D02*
X151725000Y-96600800D01*
G75*
G02*
X151674200Y-96550000I0J50800D01*
G01*
X151674200Y-94950000D01*
G75*
G02*
X151725000Y-94899200I50800J0D01*
G01*
X152275000Y-94899200D01*
G75*
G02*
X152325800Y-94950000I0J-50800D01*
G01*
X152325800Y-96550000D01*
G75*
G02*
X152275000Y-96600800I-50800J0D01*
G01*
G37*
G36*
G01*
X153075000Y-96600800D02*
X152525000Y-96600800D01*
G75*
G02*
X152474200Y-96550000I0J50800D01*
G01*
X152474200Y-94950000D01*
G75*
G02*
X152525000Y-94899200I50800J0D01*
G01*
X153075000Y-94899200D01*
G75*
G02*
X153125800Y-94950000I0J-50800D01*
G01*
X153125800Y-96550000D01*
G75*
G02*
X153075000Y-96600800I-50800J0D01*
G01*
G37*
G36*
G01*
X155100800Y-96925000D02*
X155100800Y-97475000D01*
G75*
G02*
X155050000Y-97525800I-50800J0D01*
G01*
X153450000Y-97525800D01*
G75*
G02*
X153399200Y-97475000I0J50800D01*
G01*
X153399200Y-96925000D01*
G75*
G02*
X153450000Y-96874200I50800J0D01*
G01*
X155050000Y-96874200D01*
G75*
G02*
X155100800Y-96925000I0J-50800D01*
G01*
G37*
G36*
G01*
X155100800Y-97725000D02*
X155100800Y-98275000D01*
G75*
G02*
X155050000Y-98325800I-50800J0D01*
G01*
X153450000Y-98325800D01*
G75*
G02*
X153399200Y-98275000I0J50800D01*
G01*
X153399200Y-97725000D01*
G75*
G02*
X153450000Y-97674200I50800J0D01*
G01*
X155050000Y-97674200D01*
G75*
G02*
X155100800Y-97725000I0J-50800D01*
G01*
G37*
G36*
G01*
X155100800Y-98525000D02*
X155100800Y-99075000D01*
G75*
G02*
X155050000Y-99125800I-50800J0D01*
G01*
X153450000Y-99125800D01*
G75*
G02*
X153399200Y-99075000I0J50800D01*
G01*
X153399200Y-98525000D01*
G75*
G02*
X153450000Y-98474200I50800J0D01*
G01*
X155050000Y-98474200D01*
G75*
G02*
X155100800Y-98525000I0J-50800D01*
G01*
G37*
G36*
G01*
X155100800Y-99325000D02*
X155100800Y-99875000D01*
G75*
G02*
X155050000Y-99925800I-50800J0D01*
G01*
X153450000Y-99925800D01*
G75*
G02*
X153399200Y-99875000I0J50800D01*
G01*
X153399200Y-99325000D01*
G75*
G02*
X153450000Y-99274200I50800J0D01*
G01*
X155050000Y-99274200D01*
G75*
G02*
X155100800Y-99325000I0J-50800D01*
G01*
G37*
G36*
G01*
X155100800Y-100125000D02*
X155100800Y-100675000D01*
G75*
G02*
X155050000Y-100725800I-50800J0D01*
G01*
X153450000Y-100725800D01*
G75*
G02*
X153399200Y-100675000I0J50800D01*
G01*
X153399200Y-100125000D01*
G75*
G02*
X153450000Y-100074200I50800J0D01*
G01*
X155050000Y-100074200D01*
G75*
G02*
X155100800Y-100125000I0J-50800D01*
G01*
G37*
G36*
G01*
X155100800Y-100925000D02*
X155100800Y-101475000D01*
G75*
G02*
X155050000Y-101525800I-50800J0D01*
G01*
X153450000Y-101525800D01*
G75*
G02*
X153399200Y-101475000I0J50800D01*
G01*
X153399200Y-100925000D01*
G75*
G02*
X153450000Y-100874200I50800J0D01*
G01*
X155050000Y-100874200D01*
G75*
G02*
X155100800Y-100925000I0J-50800D01*
G01*
G37*
G36*
G01*
X155100800Y-101725000D02*
X155100800Y-102275000D01*
G75*
G02*
X155050000Y-102325800I-50800J0D01*
G01*
X153450000Y-102325800D01*
G75*
G02*
X153399200Y-102275000I0J50800D01*
G01*
X153399200Y-101725000D01*
G75*
G02*
X153450000Y-101674200I50800J0D01*
G01*
X155050000Y-101674200D01*
G75*
G02*
X155100800Y-101725000I0J-50800D01*
G01*
G37*
G36*
G01*
X155100800Y-102525000D02*
X155100800Y-103075000D01*
G75*
G02*
X155050000Y-103125800I-50800J0D01*
G01*
X153450000Y-103125800D01*
G75*
G02*
X153399200Y-103075000I0J50800D01*
G01*
X153399200Y-102525000D01*
G75*
G02*
X153450000Y-102474200I50800J0D01*
G01*
X155050000Y-102474200D01*
G75*
G02*
X155100800Y-102525000I0J-50800D01*
G01*
G37*
G36*
G01*
X153075000Y-105100800D02*
X152525000Y-105100800D01*
G75*
G02*
X152474200Y-105050000I0J50800D01*
G01*
X152474200Y-103450000D01*
G75*
G02*
X152525000Y-103399200I50800J0D01*
G01*
X153075000Y-103399200D01*
G75*
G02*
X153125800Y-103450000I0J-50800D01*
G01*
X153125800Y-105050000D01*
G75*
G02*
X153075000Y-105100800I-50800J0D01*
G01*
G37*
G36*
G01*
X152275000Y-105100800D02*
X151725000Y-105100800D01*
G75*
G02*
X151674200Y-105050000I0J50800D01*
G01*
X151674200Y-103450000D01*
G75*
G02*
X151725000Y-103399200I50800J0D01*
G01*
X152275000Y-103399200D01*
G75*
G02*
X152325800Y-103450000I0J-50800D01*
G01*
X152325800Y-105050000D01*
G75*
G02*
X152275000Y-105100800I-50800J0D01*
G01*
G37*
G36*
G01*
X151475000Y-105100800D02*
X150925000Y-105100800D01*
G75*
G02*
X150874200Y-105050000I0J50800D01*
G01*
X150874200Y-103450000D01*
G75*
G02*
X150925000Y-103399200I50800J0D01*
G01*
X151475000Y-103399200D01*
G75*
G02*
X151525800Y-103450000I0J-50800D01*
G01*
X151525800Y-105050000D01*
G75*
G02*
X151475000Y-105100800I-50800J0D01*
G01*
G37*
G36*
G01*
X150675000Y-105100800D02*
X150125000Y-105100800D01*
G75*
G02*
X150074200Y-105050000I0J50800D01*
G01*
X150074200Y-103450000D01*
G75*
G02*
X150125000Y-103399200I50800J0D01*
G01*
X150675000Y-103399200D01*
G75*
G02*
X150725800Y-103450000I0J-50800D01*
G01*
X150725800Y-105050000D01*
G75*
G02*
X150675000Y-105100800I-50800J0D01*
G01*
G37*
G36*
G01*
X149875000Y-105100800D02*
X149325000Y-105100800D01*
G75*
G02*
X149274200Y-105050000I0J50800D01*
G01*
X149274200Y-103450000D01*
G75*
G02*
X149325000Y-103399200I50800J0D01*
G01*
X149875000Y-103399200D01*
G75*
G02*
X149925800Y-103450000I0J-50800D01*
G01*
X149925800Y-105050000D01*
G75*
G02*
X149875000Y-105100800I-50800J0D01*
G01*
G37*
G36*
G01*
X149075000Y-105100800D02*
X148525000Y-105100800D01*
G75*
G02*
X148474200Y-105050000I0J50800D01*
G01*
X148474200Y-103450000D01*
G75*
G02*
X148525000Y-103399200I50800J0D01*
G01*
X149075000Y-103399200D01*
G75*
G02*
X149125800Y-103450000I0J-50800D01*
G01*
X149125800Y-105050000D01*
G75*
G02*
X149075000Y-105100800I-50800J0D01*
G01*
G37*
G36*
G01*
X148275000Y-105100800D02*
X147725000Y-105100800D01*
G75*
G02*
X147674200Y-105050000I0J50800D01*
G01*
X147674200Y-103450000D01*
G75*
G02*
X147725000Y-103399200I50800J0D01*
G01*
X148275000Y-103399200D01*
G75*
G02*
X148325800Y-103450000I0J-50800D01*
G01*
X148325800Y-105050000D01*
G75*
G02*
X148275000Y-105100800I-50800J0D01*
G01*
G37*
G36*
G01*
X147475000Y-105100800D02*
X146925000Y-105100800D01*
G75*
G02*
X146874200Y-105050000I0J50800D01*
G01*
X146874200Y-103450000D01*
G75*
G02*
X146925000Y-103399200I50800J0D01*
G01*
X147475000Y-103399200D01*
G75*
G02*
X147525800Y-103450000I0J-50800D01*
G01*
X147525800Y-105050000D01*
G75*
G02*
X147475000Y-105100800I-50800J0D01*
G01*
G37*
G36*
G01*
X116112500Y-96449200D02*
X118012500Y-96449200D01*
G75*
G02*
X118063300Y-96500000I0J-50800D01*
G01*
X118063300Y-97700000D01*
G75*
G02*
X118012500Y-97750800I-50800J0D01*
G01*
X116112500Y-97750800D01*
G75*
G02*
X116061700Y-97700000I0J50800D01*
G01*
X116061700Y-96500000D01*
G75*
G02*
X116112500Y-96449200I50800J0D01*
G01*
G37*
G36*
G01*
X116112500Y-102249200D02*
X118012500Y-102249200D01*
G75*
G02*
X118063300Y-102300000I0J-50800D01*
G01*
X118063300Y-103500000D01*
G75*
G02*
X118012500Y-103550800I-50800J0D01*
G01*
X116112500Y-103550800D01*
G75*
G02*
X116061700Y-103500000I0J50800D01*
G01*
X116061700Y-102300000D01*
G75*
G02*
X116112500Y-102249200I50800J0D01*
G01*
G37*
D15*
X117062500Y-103500000D03*
X117062500Y-96500000D03*
G36*
G01*
X116112500Y-98199200D02*
X118012500Y-98199200D01*
G75*
G02*
X118063300Y-98250000I0J-50800D01*
G01*
X118063300Y-99750000D01*
G75*
G02*
X118012500Y-99800800I-50800J0D01*
G01*
X116112500Y-99800800D01*
G75*
G02*
X116061700Y-99750000I0J50800D01*
G01*
X116061700Y-98250000D01*
G75*
G02*
X116112500Y-98199200I50800J0D01*
G01*
G37*
D16*
X119762500Y-102500000D03*
G36*
G01*
X119087500Y-99749200D02*
X120437500Y-99749200D01*
G75*
G02*
X120488300Y-99800000I0J-50800D01*
G01*
X120488300Y-100200000D01*
G75*
G02*
X120437500Y-100250800I-50800J0D01*
G01*
X119087500Y-100250800D01*
G75*
G02*
X119036700Y-100200000I0J50800D01*
G01*
X119036700Y-99800000D01*
G75*
G02*
X119087500Y-99749200I50800J0D01*
G01*
G37*
G36*
G01*
X119087500Y-100399200D02*
X120437500Y-100399200D01*
G75*
G02*
X120488300Y-100450000I0J-50800D01*
G01*
X120488300Y-100850000D01*
G75*
G02*
X120437500Y-100900800I-50800J0D01*
G01*
X119087500Y-100900800D01*
G75*
G02*
X119036700Y-100850000I0J50800D01*
G01*
X119036700Y-100450000D01*
G75*
G02*
X119087500Y-100399200I50800J0D01*
G01*
G37*
G36*
G01*
X119087500Y-101049200D02*
X120437500Y-101049200D01*
G75*
G02*
X120488300Y-101100000I0J-50800D01*
G01*
X120488300Y-101500000D01*
G75*
G02*
X120437500Y-101550800I-50800J0D01*
G01*
X119087500Y-101550800D01*
G75*
G02*
X119036700Y-101500000I0J50800D01*
G01*
X119036700Y-101100000D01*
G75*
G02*
X119087500Y-101049200I50800J0D01*
G01*
G37*
G36*
G01*
X119087500Y-98449200D02*
X120437500Y-98449200D01*
G75*
G02*
X120488300Y-98500000I0J-50800D01*
G01*
X120488300Y-98900000D01*
G75*
G02*
X120437500Y-98950800I-50800J0D01*
G01*
X119087500Y-98950800D01*
G75*
G02*
X119036700Y-98900000I0J50800D01*
G01*
X119036700Y-98500000D01*
G75*
G02*
X119087500Y-98449200I50800J0D01*
G01*
G37*
G36*
G01*
X119087500Y-99099200D02*
X120437500Y-99099200D01*
G75*
G02*
X120488300Y-99150000I0J-50800D01*
G01*
X120488300Y-99550000D01*
G75*
G02*
X120437500Y-99600800I-50800J0D01*
G01*
X119087500Y-99600800D01*
G75*
G02*
X119036700Y-99550000I0J50800D01*
G01*
X119036700Y-99150000D01*
G75*
G02*
X119087500Y-99099200I50800J0D01*
G01*
G37*
X119762500Y-97500000D03*
G36*
G01*
X116112500Y-100199200D02*
X118012500Y-100199200D01*
G75*
G02*
X118063300Y-100250000I0J-50800D01*
G01*
X118063300Y-101750000D01*
G75*
G02*
X118012500Y-101800800I-50800J0D01*
G01*
X116112500Y-101800800D01*
G75*
G02*
X116061700Y-101750000I0J50800D01*
G01*
X116061700Y-100250000D01*
G75*
G02*
X116112500Y-100199200I50800J0D01*
G01*
G37*
G36*
G01*
X154449200Y-112207976D02*
X154449200Y-110892024D01*
G75*
G02*
X154717024Y-110624200I267824J0D01*
G01*
X155707976Y-110624200D01*
G75*
G02*
X155975800Y-110892024I0J-267824D01*
G01*
X155975800Y-112207976D01*
G75*
G02*
X155707976Y-112475800I-267824J0D01*
G01*
X154717024Y-112475800D01*
G75*
G02*
X154449200Y-112207976I0J267824D01*
G01*
G37*
G36*
G01*
X157424200Y-112207976D02*
X157424200Y-110892024D01*
G75*
G02*
X157692024Y-110624200I267824J0D01*
G01*
X158682976Y-110624200D01*
G75*
G02*
X158950800Y-110892024I0J-267824D01*
G01*
X158950800Y-112207976D01*
G75*
G02*
X158682976Y-112475800I-267824J0D01*
G01*
X157692024Y-112475800D01*
G75*
G02*
X157424200Y-112207976I0J267824D01*
G01*
G37*
G36*
G01*
X135418300Y-95445356D02*
X135418300Y-96761308D01*
G75*
G02*
X135150476Y-97029132I-267824J0D01*
G01*
X134159524Y-97029132D01*
G75*
G02*
X133891700Y-96761308I0J267824D01*
G01*
X133891700Y-95445356D01*
G75*
G02*
X134159524Y-95177532I267824J0D01*
G01*
X135150476Y-95177532D01*
G75*
G02*
X135418300Y-95445356I0J-267824D01*
G01*
G37*
G36*
G01*
X138393300Y-95445356D02*
X138393300Y-96761308D01*
G75*
G02*
X138125476Y-97029132I-267824J0D01*
G01*
X137134524Y-97029132D01*
G75*
G02*
X136866700Y-96761308I0J267824D01*
G01*
X136866700Y-95445356D01*
G75*
G02*
X137134524Y-95177532I267824J0D01*
G01*
X138125476Y-95177532D01*
G75*
G02*
X138393300Y-95445356I0J-267824D01*
G01*
G37*
G36*
G01*
X178138200Y-89889841D02*
X178138200Y-87758159D01*
G75*
G02*
X178398159Y-87498200I259959J0D01*
G01*
X180529841Y-87498200D01*
G75*
G02*
X180789800Y-87758159I0J-259959D01*
G01*
X180789800Y-89889841D01*
G75*
G02*
X180529841Y-90149800I-259959J0D01*
G01*
X178398159Y-90149800D01*
G75*
G02*
X178138200Y-89889841I0J259959D01*
G01*
G37*
D12*
G36*
X130799824Y-124709911D02*
G01*
X130796933Y-124719440D01*
X130792239Y-124728223D01*
X130785921Y-124735921D01*
X130778223Y-124742239D01*
X130769440Y-124746933D01*
X130759911Y-124749824D01*
X130750000Y-124750800D01*
X129250000Y-124750800D01*
X129240089Y-124749824D01*
X129230560Y-124746933D01*
X129221777Y-124742239D01*
X129214079Y-124735921D01*
X129207761Y-124728223D01*
X129203067Y-124719440D01*
X129200176Y-124709911D01*
X129199200Y-124700000D01*
X129199200Y-124200000D01*
X129199802Y-124193887D01*
X129199802Y-124175466D01*
X129200047Y-124170486D01*
X129204857Y-124121655D01*
X129205588Y-124116725D01*
X129215160Y-124068600D01*
X129216372Y-124063763D01*
X129230616Y-124016808D01*
X129232295Y-124012115D01*
X129251072Y-123966782D01*
X129253204Y-123962274D01*
X129276335Y-123919001D01*
X129278897Y-123914727D01*
X129306157Y-123873928D01*
X129309127Y-123869923D01*
X129340255Y-123831994D01*
X129343603Y-123828300D01*
X129378300Y-123793603D01*
X129381994Y-123790255D01*
X129419923Y-123759127D01*
X129423928Y-123756157D01*
X129464727Y-123728897D01*
X129469001Y-123726335D01*
X129512274Y-123703204D01*
X129516782Y-123701072D01*
X129562115Y-123682295D01*
X129566808Y-123680616D01*
X129613763Y-123666372D01*
X129618600Y-123665160D01*
X129666725Y-123655588D01*
X129671655Y-123654857D01*
X129720486Y-123650047D01*
X129725466Y-123649802D01*
X129743887Y-123649802D01*
X129750000Y-123649200D01*
X130250000Y-123649200D01*
X130256113Y-123649802D01*
X130274534Y-123649802D01*
X130279514Y-123650047D01*
X130328345Y-123654857D01*
X130333275Y-123655588D01*
X130381400Y-123665160D01*
X130386237Y-123666372D01*
X130433192Y-123680616D01*
X130437885Y-123682295D01*
X130483218Y-123701072D01*
X130487726Y-123703204D01*
X130530999Y-123726335D01*
X130535273Y-123728897D01*
X130576072Y-123756157D01*
X130580077Y-123759127D01*
X130618006Y-123790255D01*
X130621700Y-123793603D01*
X130656397Y-123828300D01*
X130659745Y-123831994D01*
X130690873Y-123869923D01*
X130693843Y-123873928D01*
X130721103Y-123914727D01*
X130723665Y-123919001D01*
X130746796Y-123962274D01*
X130748928Y-123966782D01*
X130767705Y-124012115D01*
X130769384Y-124016808D01*
X130783628Y-124063763D01*
X130784840Y-124068600D01*
X130794412Y-124116725D01*
X130795143Y-124121655D01*
X130799953Y-124170486D01*
X130800198Y-124175466D01*
X130800198Y-124193887D01*
X130800800Y-124200000D01*
X130800800Y-124700000D01*
X130799824Y-124709911D01*
G37*
G36*
X130800198Y-125506113D02*
G01*
X130800198Y-125524534D01*
X130799953Y-125529514D01*
X130795143Y-125578345D01*
X130794412Y-125583275D01*
X130784840Y-125631400D01*
X130783628Y-125636237D01*
X130769384Y-125683192D01*
X130767705Y-125687885D01*
X130748928Y-125733218D01*
X130746796Y-125737726D01*
X130723665Y-125780999D01*
X130721103Y-125785273D01*
X130693843Y-125826072D01*
X130690873Y-125830077D01*
X130659745Y-125868006D01*
X130656397Y-125871700D01*
X130621700Y-125906397D01*
X130618006Y-125909745D01*
X130580077Y-125940873D01*
X130576072Y-125943843D01*
X130535273Y-125971103D01*
X130530999Y-125973665D01*
X130487726Y-125996796D01*
X130483218Y-125998928D01*
X130437885Y-126017705D01*
X130433192Y-126019384D01*
X130386237Y-126033628D01*
X130381400Y-126034840D01*
X130333275Y-126044412D01*
X130328345Y-126045143D01*
X130279514Y-126049953D01*
X130274534Y-126050198D01*
X130256113Y-126050198D01*
X130250000Y-126050800D01*
X129750000Y-126050800D01*
X129743887Y-126050198D01*
X129725466Y-126050198D01*
X129720486Y-126049953D01*
X129671655Y-126045143D01*
X129666725Y-126044412D01*
X129618600Y-126034840D01*
X129613763Y-126033628D01*
X129566808Y-126019384D01*
X129562115Y-126017705D01*
X129516782Y-125998928D01*
X129512274Y-125996796D01*
X129469001Y-125973665D01*
X129464727Y-125971103D01*
X129423928Y-125943843D01*
X129419923Y-125940873D01*
X129381994Y-125909745D01*
X129378300Y-125906397D01*
X129343603Y-125871700D01*
X129340255Y-125868006D01*
X129309127Y-125830077D01*
X129306157Y-125826072D01*
X129278897Y-125785273D01*
X129276335Y-125780999D01*
X129253204Y-125737726D01*
X129251072Y-125733218D01*
X129232295Y-125687885D01*
X129230616Y-125683192D01*
X129216372Y-125636237D01*
X129215160Y-125631400D01*
X129205588Y-125583275D01*
X129204857Y-125578345D01*
X129200047Y-125529514D01*
X129199802Y-125524534D01*
X129199802Y-125506113D01*
X129199200Y-125500000D01*
X129199200Y-125000000D01*
X129200176Y-124990089D01*
X129203067Y-124980560D01*
X129207761Y-124971777D01*
X129214079Y-124964079D01*
X129221777Y-124957761D01*
X129230560Y-124953067D01*
X129240089Y-124950176D01*
X129250000Y-124949200D01*
X130750000Y-124949200D01*
X130759911Y-124950176D01*
X130769440Y-124953067D01*
X130778223Y-124957761D01*
X130785921Y-124964079D01*
X130792239Y-124971777D01*
X130796933Y-124980560D01*
X130799824Y-124990089D01*
X130800800Y-125000000D01*
X130800800Y-125500000D01*
X130800198Y-125506113D01*
G37*
G36*
G01*
X138388300Y-88318366D02*
X138388300Y-89681634D01*
G75*
G02*
X138119134Y-89950800I-269166J0D01*
G01*
X137230866Y-89950800D01*
G75*
G02*
X136961700Y-89681634I0J269166D01*
G01*
X136961700Y-88318366D01*
G75*
G02*
X137230866Y-88049200I269166J0D01*
G01*
X138119134Y-88049200D01*
G75*
G02*
X138388300Y-88318366I0J-269166D01*
G01*
G37*
G36*
G01*
X135263300Y-88318366D02*
X135263300Y-89681634D01*
G75*
G02*
X134994134Y-89950800I-269166J0D01*
G01*
X134105866Y-89950800D01*
G75*
G02*
X133836700Y-89681634I0J269166D01*
G01*
X133836700Y-88318366D01*
G75*
G02*
X134105866Y-88049200I269166J0D01*
G01*
X134994134Y-88049200D01*
G75*
G02*
X135263300Y-88318366I0J-269166D01*
G01*
G37*
G36*
X140386198Y-70684113D02*
G01*
X140386198Y-70702534D01*
X140385953Y-70707514D01*
X140381143Y-70756345D01*
X140380412Y-70761275D01*
X140370840Y-70809400D01*
X140369628Y-70814237D01*
X140355384Y-70861192D01*
X140353705Y-70865885D01*
X140334928Y-70911218D01*
X140332796Y-70915726D01*
X140309665Y-70958999D01*
X140307103Y-70963273D01*
X140279843Y-71004072D01*
X140276873Y-71008077D01*
X140245745Y-71046006D01*
X140242397Y-71049700D01*
X140207700Y-71084397D01*
X140204006Y-71087745D01*
X140166077Y-71118873D01*
X140162072Y-71121843D01*
X140121273Y-71149103D01*
X140116999Y-71151665D01*
X140073726Y-71174796D01*
X140069218Y-71176928D01*
X140023885Y-71195705D01*
X140019192Y-71197384D01*
X139972237Y-71211628D01*
X139967400Y-71212840D01*
X139919275Y-71222412D01*
X139914345Y-71223143D01*
X139865514Y-71227953D01*
X139860534Y-71228198D01*
X139842113Y-71228198D01*
X139836000Y-71228800D01*
X139336000Y-71228800D01*
X139329887Y-71228198D01*
X139311466Y-71228198D01*
X139306486Y-71227953D01*
X139257655Y-71223143D01*
X139252725Y-71222412D01*
X139204600Y-71212840D01*
X139199763Y-71211628D01*
X139152808Y-71197384D01*
X139148115Y-71195705D01*
X139102782Y-71176928D01*
X139098274Y-71174796D01*
X139055001Y-71151665D01*
X139050727Y-71149103D01*
X139009928Y-71121843D01*
X139005923Y-71118873D01*
X138967994Y-71087745D01*
X138964300Y-71084397D01*
X138929603Y-71049700D01*
X138926255Y-71046006D01*
X138895127Y-71008077D01*
X138892157Y-71004072D01*
X138864897Y-70963273D01*
X138862335Y-70958999D01*
X138839204Y-70915726D01*
X138837072Y-70911218D01*
X138818295Y-70865885D01*
X138816616Y-70861192D01*
X138802372Y-70814237D01*
X138801160Y-70809400D01*
X138791588Y-70761275D01*
X138790857Y-70756345D01*
X138786047Y-70707514D01*
X138785802Y-70702534D01*
X138785802Y-70684113D01*
X138785200Y-70678000D01*
X138785200Y-70178000D01*
X138786176Y-70168089D01*
X138789067Y-70158560D01*
X138793761Y-70149777D01*
X138800079Y-70142079D01*
X138807777Y-70135761D01*
X138816560Y-70131067D01*
X138826089Y-70128176D01*
X138836000Y-70127200D01*
X140336000Y-70127200D01*
X140345911Y-70128176D01*
X140355440Y-70131067D01*
X140364223Y-70135761D01*
X140371921Y-70142079D01*
X140378239Y-70149777D01*
X140382933Y-70158560D01*
X140385824Y-70168089D01*
X140386800Y-70178000D01*
X140386800Y-70678000D01*
X140386198Y-70684113D01*
G37*
G36*
X140385824Y-69887911D02*
G01*
X140382933Y-69897440D01*
X140378239Y-69906223D01*
X140371921Y-69913921D01*
X140364223Y-69920239D01*
X140355440Y-69924933D01*
X140345911Y-69927824D01*
X140336000Y-69928800D01*
X138836000Y-69928800D01*
X138826089Y-69927824D01*
X138816560Y-69924933D01*
X138807777Y-69920239D01*
X138800079Y-69913921D01*
X138793761Y-69906223D01*
X138789067Y-69897440D01*
X138786176Y-69887911D01*
X138785200Y-69878000D01*
X138785200Y-69378000D01*
X138785802Y-69371887D01*
X138785802Y-69353466D01*
X138786047Y-69348486D01*
X138790857Y-69299655D01*
X138791588Y-69294725D01*
X138801160Y-69246600D01*
X138802372Y-69241763D01*
X138816616Y-69194808D01*
X138818295Y-69190115D01*
X138837072Y-69144782D01*
X138839204Y-69140274D01*
X138862335Y-69097001D01*
X138864897Y-69092727D01*
X138892157Y-69051928D01*
X138895127Y-69047923D01*
X138926255Y-69009994D01*
X138929603Y-69006300D01*
X138964300Y-68971603D01*
X138967994Y-68968255D01*
X139005923Y-68937127D01*
X139009928Y-68934157D01*
X139050727Y-68906897D01*
X139055001Y-68904335D01*
X139098274Y-68881204D01*
X139102782Y-68879072D01*
X139148115Y-68860295D01*
X139152808Y-68858616D01*
X139199763Y-68844372D01*
X139204600Y-68843160D01*
X139252725Y-68833588D01*
X139257655Y-68832857D01*
X139306486Y-68828047D01*
X139311466Y-68827802D01*
X139329887Y-68827802D01*
X139336000Y-68827200D01*
X139836000Y-68827200D01*
X139842113Y-68827802D01*
X139860534Y-68827802D01*
X139865514Y-68828047D01*
X139914345Y-68832857D01*
X139919275Y-68833588D01*
X139967400Y-68843160D01*
X139972237Y-68844372D01*
X140019192Y-68858616D01*
X140023885Y-68860295D01*
X140069218Y-68879072D01*
X140073726Y-68881204D01*
X140116999Y-68904335D01*
X140121273Y-68906897D01*
X140162072Y-68934157D01*
X140166077Y-68937127D01*
X140204006Y-68968255D01*
X140207700Y-68971603D01*
X140242397Y-69006300D01*
X140245745Y-69009994D01*
X140276873Y-69047923D01*
X140279843Y-69051928D01*
X140307103Y-69092727D01*
X140309665Y-69097001D01*
X140332796Y-69140274D01*
X140334928Y-69144782D01*
X140353705Y-69190115D01*
X140355384Y-69194808D01*
X140369628Y-69241763D01*
X140370840Y-69246600D01*
X140380412Y-69294725D01*
X140381143Y-69299655D01*
X140385953Y-69348486D01*
X140386198Y-69353466D01*
X140386198Y-69371887D01*
X140386800Y-69378000D01*
X140386800Y-69878000D01*
X140385824Y-69887911D01*
G37*
G36*
X169250176Y-124790089D02*
G01*
X169253067Y-124780560D01*
X169257761Y-124771777D01*
X169264079Y-124764079D01*
X169271777Y-124757761D01*
X169280560Y-124753067D01*
X169290089Y-124750176D01*
X169300000Y-124749200D01*
X170800000Y-124749200D01*
X170809911Y-124750176D01*
X170819440Y-124753067D01*
X170828223Y-124757761D01*
X170835921Y-124764079D01*
X170842239Y-124771777D01*
X170846933Y-124780560D01*
X170849824Y-124790089D01*
X170850800Y-124800000D01*
X170850800Y-125300000D01*
X170850198Y-125306113D01*
X170850198Y-125324534D01*
X170849953Y-125329514D01*
X170845143Y-125378345D01*
X170844412Y-125383275D01*
X170834840Y-125431400D01*
X170833628Y-125436237D01*
X170819384Y-125483192D01*
X170817705Y-125487885D01*
X170798928Y-125533218D01*
X170796796Y-125537726D01*
X170773665Y-125580999D01*
X170771103Y-125585273D01*
X170743843Y-125626072D01*
X170740873Y-125630077D01*
X170709745Y-125668006D01*
X170706397Y-125671700D01*
X170671700Y-125706397D01*
X170668006Y-125709745D01*
X170630077Y-125740873D01*
X170626072Y-125743843D01*
X170585273Y-125771103D01*
X170580999Y-125773665D01*
X170537726Y-125796796D01*
X170533218Y-125798928D01*
X170487885Y-125817705D01*
X170483192Y-125819384D01*
X170436237Y-125833628D01*
X170431400Y-125834840D01*
X170383275Y-125844412D01*
X170378345Y-125845143D01*
X170329514Y-125849953D01*
X170324534Y-125850198D01*
X170306113Y-125850198D01*
X170300000Y-125850800D01*
X169800000Y-125850800D01*
X169793887Y-125850198D01*
X169775466Y-125850198D01*
X169770486Y-125849953D01*
X169721655Y-125845143D01*
X169716725Y-125844412D01*
X169668600Y-125834840D01*
X169663763Y-125833628D01*
X169616808Y-125819384D01*
X169612115Y-125817705D01*
X169566782Y-125798928D01*
X169562274Y-125796796D01*
X169519001Y-125773665D01*
X169514727Y-125771103D01*
X169473928Y-125743843D01*
X169469923Y-125740873D01*
X169431994Y-125709745D01*
X169428300Y-125706397D01*
X169393603Y-125671700D01*
X169390255Y-125668006D01*
X169359127Y-125630077D01*
X169356157Y-125626072D01*
X169328897Y-125585273D01*
X169326335Y-125580999D01*
X169303204Y-125537726D01*
X169301072Y-125533218D01*
X169282295Y-125487885D01*
X169280616Y-125483192D01*
X169266372Y-125436237D01*
X169265160Y-125431400D01*
X169255588Y-125383275D01*
X169254857Y-125378345D01*
X169250047Y-125329514D01*
X169249802Y-125324534D01*
X169249802Y-125306113D01*
X169249200Y-125300000D01*
X169249200Y-124800000D01*
X169250176Y-124790089D01*
G37*
G36*
X169249802Y-123993887D02*
G01*
X169249802Y-123975466D01*
X169250047Y-123970486D01*
X169254857Y-123921655D01*
X169255588Y-123916725D01*
X169265160Y-123868600D01*
X169266372Y-123863763D01*
X169280616Y-123816808D01*
X169282295Y-123812115D01*
X169301072Y-123766782D01*
X169303204Y-123762274D01*
X169326335Y-123719001D01*
X169328897Y-123714727D01*
X169356157Y-123673928D01*
X169359127Y-123669923D01*
X169390255Y-123631994D01*
X169393603Y-123628300D01*
X169428300Y-123593603D01*
X169431994Y-123590255D01*
X169469923Y-123559127D01*
X169473928Y-123556157D01*
X169514727Y-123528897D01*
X169519001Y-123526335D01*
X169562274Y-123503204D01*
X169566782Y-123501072D01*
X169612115Y-123482295D01*
X169616808Y-123480616D01*
X169663763Y-123466372D01*
X169668600Y-123465160D01*
X169716725Y-123455588D01*
X169721655Y-123454857D01*
X169770486Y-123450047D01*
X169775466Y-123449802D01*
X169793887Y-123449802D01*
X169800000Y-123449200D01*
X170300000Y-123449200D01*
X170306113Y-123449802D01*
X170324534Y-123449802D01*
X170329514Y-123450047D01*
X170378345Y-123454857D01*
X170383275Y-123455588D01*
X170431400Y-123465160D01*
X170436237Y-123466372D01*
X170483192Y-123480616D01*
X170487885Y-123482295D01*
X170533218Y-123501072D01*
X170537726Y-123503204D01*
X170580999Y-123526335D01*
X170585273Y-123528897D01*
X170626072Y-123556157D01*
X170630077Y-123559127D01*
X170668006Y-123590255D01*
X170671700Y-123593603D01*
X170706397Y-123628300D01*
X170709745Y-123631994D01*
X170740873Y-123669923D01*
X170743843Y-123673928D01*
X170771103Y-123714727D01*
X170773665Y-123719001D01*
X170796796Y-123762274D01*
X170798928Y-123766782D01*
X170817705Y-123812115D01*
X170819384Y-123816808D01*
X170833628Y-123863763D01*
X170834840Y-123868600D01*
X170844412Y-123916725D01*
X170845143Y-123921655D01*
X170849953Y-123970486D01*
X170850198Y-123975466D01*
X170850198Y-123993887D01*
X170850800Y-124000000D01*
X170850800Y-124500000D01*
X170849824Y-124509911D01*
X170846933Y-124519440D01*
X170842239Y-124528223D01*
X170835921Y-124535921D01*
X170828223Y-124542239D01*
X170819440Y-124546933D01*
X170809911Y-124549824D01*
X170800000Y-124550800D01*
X169300000Y-124550800D01*
X169290089Y-124549824D01*
X169280560Y-124546933D01*
X169271777Y-124542239D01*
X169264079Y-124535921D01*
X169257761Y-124528223D01*
X169253067Y-124519440D01*
X169250176Y-124509911D01*
X169249200Y-124500000D01*
X169249200Y-124000000D01*
X169249802Y-123993887D01*
G37*
G36*
G01*
X133595737Y-74576700D02*
X134908263Y-74576700D01*
G75*
G02*
X135177800Y-74846237I0J-269537D01*
G01*
X135177800Y-75708763D01*
G75*
G02*
X134908263Y-75978300I-269537J0D01*
G01*
X133595737Y-75978300D01*
G75*
G02*
X133326200Y-75708763I0J269537D01*
G01*
X133326200Y-74846237D01*
G75*
G02*
X133595737Y-74576700I269537J0D01*
G01*
G37*
G36*
G01*
X133595737Y-77676700D02*
X134908263Y-77676700D01*
G75*
G02*
X135177800Y-77946237I0J-269537D01*
G01*
X135177800Y-78808763D01*
G75*
G02*
X134908263Y-79078300I-269537J0D01*
G01*
X133595737Y-79078300D01*
G75*
G02*
X133326200Y-78808763I0J269537D01*
G01*
X133326200Y-77946237D01*
G75*
G02*
X133595737Y-77676700I269537J0D01*
G01*
G37*
G36*
G01*
X140518000Y-101050200D02*
X142718000Y-101050200D01*
G75*
G02*
X142768800Y-101101000I0J-50800D01*
G01*
X142768800Y-103376000D01*
G75*
G02*
X142718000Y-103426800I-50800J0D01*
G01*
X140518000Y-103426800D01*
G75*
G02*
X140467200Y-103376000I0J50800D01*
G01*
X140467200Y-101101000D01*
G75*
G02*
X140518000Y-101050200I50800J0D01*
G01*
G37*
G36*
G01*
X140518000Y-106225200D02*
X142718000Y-106225200D01*
G75*
G02*
X142768800Y-106276000I0J-50800D01*
G01*
X142768800Y-108551000D01*
G75*
G02*
X142718000Y-108601800I-50800J0D01*
G01*
X140518000Y-108601800D01*
G75*
G02*
X140467200Y-108551000I0J50800D01*
G01*
X140467200Y-106276000D01*
G75*
G02*
X140518000Y-106225200I50800J0D01*
G01*
G37*
G36*
X129225437Y-124741927D02*
G01*
X129231329Y-124745076D01*
X129240484Y-124747854D01*
X129250094Y-124748800D01*
X130749906Y-124748800D01*
X130759516Y-124747854D01*
X130768671Y-124745076D01*
X130774562Y-124741927D01*
X130776561Y-124741993D01*
X130777504Y-124743756D01*
X130776775Y-124745236D01*
X130775918Y-124745940D01*
X130775759Y-124746058D01*
X130762484Y-124754927D01*
X130745437Y-124771974D01*
X130732042Y-124792021D01*
X130722815Y-124814295D01*
X130718110Y-124837945D01*
X130718110Y-124862051D01*
X130722814Y-124885701D01*
X130732040Y-124907975D01*
X130745434Y-124928023D01*
X130762481Y-124945070D01*
X130775757Y-124953940D01*
X130775915Y-124954057D01*
X130776775Y-124954763D01*
X130777479Y-124956635D01*
X130776210Y-124958181D01*
X130774563Y-124958073D01*
X130768671Y-124954924D01*
X130759516Y-124952146D01*
X130749906Y-124951200D01*
X129250094Y-124951200D01*
X129240484Y-124952146D01*
X129231329Y-124954924D01*
X129225438Y-124958073D01*
X129223439Y-124958007D01*
X129222496Y-124956244D01*
X129223225Y-124954764D01*
X129224082Y-124954060D01*
X129224241Y-124953942D01*
X129237516Y-124945073D01*
X129254563Y-124928026D01*
X129267958Y-124907979D01*
X129277185Y-124885705D01*
X129281890Y-124862055D01*
X129281890Y-124837949D01*
X129277186Y-124814299D01*
X129267960Y-124792025D01*
X129254566Y-124771977D01*
X129237519Y-124754930D01*
X129224243Y-124746060D01*
X129224085Y-124745943D01*
X129223225Y-124745237D01*
X129222521Y-124743365D01*
X129223790Y-124741819D01*
X129225437Y-124741927D01*
G37*
G36*
X169275437Y-124541927D02*
G01*
X169281329Y-124545076D01*
X169290484Y-124547854D01*
X169300094Y-124548800D01*
X170799906Y-124548800D01*
X170809516Y-124547854D01*
X170818671Y-124545076D01*
X170824562Y-124541927D01*
X170826561Y-124541993D01*
X170827504Y-124543756D01*
X170826775Y-124545236D01*
X170825918Y-124545940D01*
X170825759Y-124546058D01*
X170812484Y-124554927D01*
X170795437Y-124571974D01*
X170782042Y-124592021D01*
X170772815Y-124614295D01*
X170768110Y-124637945D01*
X170768110Y-124662051D01*
X170772814Y-124685701D01*
X170782040Y-124707975D01*
X170795434Y-124728023D01*
X170812481Y-124745070D01*
X170825757Y-124753940D01*
X170825915Y-124754057D01*
X170826775Y-124754763D01*
X170827479Y-124756635D01*
X170826210Y-124758181D01*
X170824563Y-124758073D01*
X170818671Y-124754924D01*
X170809516Y-124752146D01*
X170799906Y-124751200D01*
X169300094Y-124751200D01*
X169290484Y-124752146D01*
X169281329Y-124754924D01*
X169275438Y-124758073D01*
X169273439Y-124758007D01*
X169272496Y-124756244D01*
X169273225Y-124754764D01*
X169274082Y-124754060D01*
X169274241Y-124753942D01*
X169287516Y-124745073D01*
X169304563Y-124728026D01*
X169317958Y-124707979D01*
X169327185Y-124685705D01*
X169331890Y-124662055D01*
X169331890Y-124637949D01*
X169327186Y-124614299D01*
X169317960Y-124592025D01*
X169304566Y-124571977D01*
X169287519Y-124554930D01*
X169274243Y-124546060D01*
X169274085Y-124545943D01*
X169273225Y-124545237D01*
X169272521Y-124543365D01*
X169273790Y-124541819D01*
X169275437Y-124541927D01*
G37*
G36*
X151675932Y-103398200D02*
G01*
X151676200Y-103399200D01*
X151676200Y-105100800D01*
X151675200Y-105102532D01*
X151674200Y-105102800D01*
X151525800Y-105102800D01*
X151524068Y-105101800D01*
X151523800Y-105100800D01*
X151523800Y-103399200D01*
X151524800Y-103397468D01*
X151525800Y-103397200D01*
X151674200Y-103397200D01*
X151675932Y-103398200D01*
G37*
G36*
X152475932Y-103398200D02*
G01*
X152476200Y-103399200D01*
X152476200Y-105100800D01*
X152475200Y-105102532D01*
X152474200Y-105102800D01*
X152325800Y-105102800D01*
X152324068Y-105101800D01*
X152323800Y-105100800D01*
X152323800Y-103399200D01*
X152324800Y-103397468D01*
X152325800Y-103397200D01*
X152474200Y-103397200D01*
X152475932Y-103398200D01*
G37*
G36*
X148475932Y-103398200D02*
G01*
X148476200Y-103399200D01*
X148476200Y-105100800D01*
X148475200Y-105102532D01*
X148474200Y-105102800D01*
X148325800Y-105102800D01*
X148324068Y-105101800D01*
X148323800Y-105100800D01*
X148323800Y-103399200D01*
X148324800Y-103397468D01*
X148325800Y-103397200D01*
X148474200Y-103397200D01*
X148475932Y-103398200D01*
G37*
G36*
X149275932Y-103398200D02*
G01*
X149276200Y-103399200D01*
X149276200Y-105100800D01*
X149275200Y-105102532D01*
X149274200Y-105102800D01*
X149125800Y-105102800D01*
X149124068Y-105101800D01*
X149123800Y-105100800D01*
X149123800Y-103399200D01*
X149124800Y-103397468D01*
X149125800Y-103397200D01*
X149274200Y-103397200D01*
X149275932Y-103398200D01*
G37*
G36*
X150875932Y-103398200D02*
G01*
X150876200Y-103399200D01*
X150876200Y-105100800D01*
X150875200Y-105102532D01*
X150874200Y-105102800D01*
X150725800Y-105102800D01*
X150724068Y-105101800D01*
X150723800Y-105100800D01*
X150723800Y-103399200D01*
X150724800Y-103397468D01*
X150725800Y-103397200D01*
X150874200Y-103397200D01*
X150875932Y-103398200D01*
G37*
G36*
X147675932Y-103398200D02*
G01*
X147676200Y-103399200D01*
X147676200Y-105100800D01*
X147675200Y-105102532D01*
X147674200Y-105102800D01*
X147525800Y-105102800D01*
X147524068Y-105101800D01*
X147523800Y-105100800D01*
X147523800Y-103399200D01*
X147524800Y-103397468D01*
X147525800Y-103397200D01*
X147674200Y-103397200D01*
X147675932Y-103398200D01*
G37*
G36*
X150075932Y-103398200D02*
G01*
X150076200Y-103399200D01*
X150076200Y-105100800D01*
X150075200Y-105102532D01*
X150074200Y-105102800D01*
X149925800Y-105102800D01*
X149924068Y-105101800D01*
X149923800Y-105100800D01*
X149923800Y-103399200D01*
X149924800Y-103397468D01*
X149925800Y-103397200D01*
X150074200Y-103397200D01*
X150075932Y-103398200D01*
G37*
G36*
X146602532Y-102324800D02*
G01*
X146602800Y-102325800D01*
X146602800Y-102474200D01*
X146601800Y-102475932D01*
X146600800Y-102476200D01*
X144899200Y-102476200D01*
X144897468Y-102475200D01*
X144897200Y-102474200D01*
X144897200Y-102325800D01*
X144898200Y-102324068D01*
X144899200Y-102323800D01*
X146600800Y-102323800D01*
X146602532Y-102324800D01*
G37*
G36*
X155102532Y-102324800D02*
G01*
X155102800Y-102325800D01*
X155102800Y-102474200D01*
X155101800Y-102475932D01*
X155100800Y-102476200D01*
X153399200Y-102476200D01*
X153397468Y-102475200D01*
X153397200Y-102474200D01*
X153397200Y-102325800D01*
X153398200Y-102324068D01*
X153399200Y-102323800D01*
X155100800Y-102323800D01*
X155102532Y-102324800D01*
G37*
G36*
X120117002Y-101549800D02*
G01*
X120117002Y-101551800D01*
X120115466Y-101552790D01*
X120091279Y-101555172D01*
X120068204Y-101562172D01*
X120046940Y-101573537D01*
X120028303Y-101588832D01*
X120013008Y-101607469D01*
X120001643Y-101628733D01*
X119994643Y-101651808D01*
X119992280Y-101675799D01*
X119994643Y-101699790D01*
X120001643Y-101722865D01*
X120013008Y-101744129D01*
X120028303Y-101762766D01*
X120046940Y-101778061D01*
X120062962Y-101786624D01*
X120064018Y-101788323D01*
X120063075Y-101790086D01*
X120061254Y-101790236D01*
X119987121Y-101759530D01*
X119838343Y-101729936D01*
X119686657Y-101729936D01*
X119537879Y-101759530D01*
X119463746Y-101790236D01*
X119461763Y-101789975D01*
X119460998Y-101788127D01*
X119462038Y-101786624D01*
X119478060Y-101778061D01*
X119496697Y-101762766D01*
X119511992Y-101744129D01*
X119523357Y-101722865D01*
X119530357Y-101699790D01*
X119532720Y-101675799D01*
X119530357Y-101651808D01*
X119523357Y-101628733D01*
X119511992Y-101607469D01*
X119496697Y-101588832D01*
X119478060Y-101573537D01*
X119456796Y-101562172D01*
X119433721Y-101555172D01*
X119409534Y-101552790D01*
X119407908Y-101551625D01*
X119408104Y-101549635D01*
X119409730Y-101548800D01*
X120115270Y-101548800D01*
X120117002Y-101549800D01*
G37*
G36*
X146602532Y-101524800D02*
G01*
X146602800Y-101525800D01*
X146602800Y-101674200D01*
X146601800Y-101675932D01*
X146600800Y-101676200D01*
X144899200Y-101676200D01*
X144897468Y-101675200D01*
X144897200Y-101674200D01*
X144897200Y-101525800D01*
X144898200Y-101524068D01*
X144899200Y-101523800D01*
X146600800Y-101523800D01*
X146602532Y-101524800D01*
G37*
G36*
X155102532Y-101524800D02*
G01*
X155102800Y-101525800D01*
X155102800Y-101674200D01*
X155101800Y-101675932D01*
X155100800Y-101676200D01*
X153399200Y-101676200D01*
X153397468Y-101675200D01*
X153397200Y-101674200D01*
X153397200Y-101525800D01*
X153398200Y-101524068D01*
X153399200Y-101523800D01*
X155100800Y-101523800D01*
X155102532Y-101524800D01*
G37*
G36*
X120490032Y-100899800D02*
G01*
X120490300Y-100900800D01*
X120490300Y-101049200D01*
X120489300Y-101050932D01*
X120488300Y-101051200D01*
X119036700Y-101051200D01*
X119034968Y-101050200D01*
X119034700Y-101049200D01*
X119034700Y-100900800D01*
X119035700Y-100899068D01*
X119036700Y-100898800D01*
X120488300Y-100898800D01*
X120490032Y-100899800D01*
G37*
G36*
X181347531Y-100811800D02*
G01*
X181347531Y-100813800D01*
X181345995Y-100814790D01*
X181321808Y-100817172D01*
X181298733Y-100824172D01*
X181277469Y-100835537D01*
X181258832Y-100850832D01*
X181243537Y-100869469D01*
X181232172Y-100890733D01*
X181225172Y-100913808D01*
X181222800Y-100937893D01*
X181222800Y-100954200D01*
X181221800Y-100955932D01*
X181220800Y-100956200D01*
X178919200Y-100956200D01*
X178917468Y-100955200D01*
X178917200Y-100954200D01*
X178917200Y-100937893D01*
X178915210Y-100917690D01*
X178915200Y-100917494D01*
X178915200Y-100812800D01*
X178916200Y-100811068D01*
X178917200Y-100810800D01*
X181345799Y-100810800D01*
X181347531Y-100811800D01*
G37*
G36*
X155102532Y-100724800D02*
G01*
X155102800Y-100725800D01*
X155102800Y-100874200D01*
X155101800Y-100875932D01*
X155100800Y-100876200D01*
X153399200Y-100876200D01*
X153397468Y-100875200D01*
X153397200Y-100874200D01*
X153397200Y-100725800D01*
X153398200Y-100724068D01*
X153399200Y-100723800D01*
X155100800Y-100723800D01*
X155102532Y-100724800D01*
G37*
G36*
X146602532Y-100724800D02*
G01*
X146602800Y-100725800D01*
X146602800Y-100874200D01*
X146601800Y-100875932D01*
X146600800Y-100876200D01*
X144899200Y-100876200D01*
X144897468Y-100875200D01*
X144897200Y-100874200D01*
X144897200Y-100725800D01*
X144898200Y-100724068D01*
X144899200Y-100723800D01*
X146600800Y-100723800D01*
X146602532Y-100724800D01*
G37*
G36*
X178919200Y-100407998D02*
G01*
X178919200Y-100627634D01*
X178918200Y-100629366D01*
X178916200Y-100629366D01*
X178915210Y-100627830D01*
X178912828Y-100603643D01*
X178905828Y-100580568D01*
X178894463Y-100559304D01*
X178879168Y-100540667D01*
X178860531Y-100525372D01*
X178839267Y-100514007D01*
X178816192Y-100507007D01*
X178792201Y-100504644D01*
X178768210Y-100507007D01*
X178750826Y-100512281D01*
X178748878Y-100511827D01*
X178748297Y-100509913D01*
X178749480Y-100508519D01*
X178808698Y-100483989D01*
X178898150Y-100424220D01*
X178915786Y-100406584D01*
X178917718Y-100406066D01*
X178919200Y-100407998D01*
G37*
G36*
X120490032Y-100249800D02*
G01*
X120490300Y-100250800D01*
X120490300Y-100399200D01*
X120489300Y-100400932D01*
X120488300Y-100401200D01*
X119036700Y-100401200D01*
X119034968Y-100400200D01*
X119034700Y-100399200D01*
X119034700Y-100250800D01*
X119035700Y-100249068D01*
X119036700Y-100248800D01*
X120488300Y-100248800D01*
X120490032Y-100249800D01*
G37*
G36*
X146602532Y-99924800D02*
G01*
X146602800Y-99925800D01*
X146602800Y-100074200D01*
X146601800Y-100075932D01*
X146600800Y-100076200D01*
X144899200Y-100076200D01*
X144897468Y-100075200D01*
X144897200Y-100074200D01*
X144897200Y-99925800D01*
X144898200Y-99924068D01*
X144899200Y-99923800D01*
X146600800Y-99923800D01*
X146602532Y-99924800D01*
G37*
G36*
X155102532Y-99924800D02*
G01*
X155102800Y-99925800D01*
X155102800Y-100074200D01*
X155101800Y-100075932D01*
X155100800Y-100076200D01*
X153399200Y-100076200D01*
X153397468Y-100075200D01*
X153397200Y-100074200D01*
X153397200Y-99925800D01*
X153398200Y-99924068D01*
X153399200Y-99923800D01*
X155100800Y-99923800D01*
X155102532Y-99924800D01*
G37*
G36*
X120490032Y-99599800D02*
G01*
X120490300Y-99600800D01*
X120490300Y-99749200D01*
X120489300Y-99750932D01*
X120488300Y-99751200D01*
X119036700Y-99751200D01*
X119034968Y-99750200D01*
X119034700Y-99749200D01*
X119034700Y-99600800D01*
X119035700Y-99599068D01*
X119036700Y-99598800D01*
X120488300Y-99598800D01*
X120490032Y-99599800D01*
G37*
G36*
X178918365Y-99370740D02*
G01*
X178919200Y-99372366D01*
X178919200Y-99592002D01*
X178918200Y-99593734D01*
X178915786Y-99593416D01*
X178898150Y-99575780D01*
X178808698Y-99516011D01*
X178749480Y-99491481D01*
X178748262Y-99489894D01*
X178749027Y-99488046D01*
X178750826Y-99487719D01*
X178768210Y-99492993D01*
X178792201Y-99495356D01*
X178816192Y-99492993D01*
X178839267Y-99485993D01*
X178860531Y-99474628D01*
X178879168Y-99459333D01*
X178894463Y-99440696D01*
X178905828Y-99419432D01*
X178912828Y-99396357D01*
X178915210Y-99372170D01*
X178916375Y-99370544D01*
X178918365Y-99370740D01*
G37*
G36*
X155102532Y-99124800D02*
G01*
X155102800Y-99125800D01*
X155102800Y-99274200D01*
X155101800Y-99275932D01*
X155100800Y-99276200D01*
X153399200Y-99276200D01*
X153397468Y-99275200D01*
X153397200Y-99274200D01*
X153397200Y-99125800D01*
X153398200Y-99124068D01*
X153399200Y-99123800D01*
X155100800Y-99123800D01*
X155102532Y-99124800D01*
G37*
G36*
X146602532Y-99124800D02*
G01*
X146602800Y-99125800D01*
X146602800Y-99274200D01*
X146601800Y-99275932D01*
X146600800Y-99276200D01*
X144899200Y-99276200D01*
X144897468Y-99275200D01*
X144897200Y-99274200D01*
X144897200Y-99125800D01*
X144898200Y-99124068D01*
X144899200Y-99123800D01*
X146600800Y-99123800D01*
X146602532Y-99124800D01*
G37*
G36*
X181222532Y-99044800D02*
G01*
X181222800Y-99045800D01*
X181222800Y-99062107D01*
X181225172Y-99086192D01*
X181232172Y-99109267D01*
X181243537Y-99130531D01*
X181258832Y-99149168D01*
X181277469Y-99164463D01*
X181298733Y-99175828D01*
X181321808Y-99182828D01*
X181345995Y-99185210D01*
X181347621Y-99186375D01*
X181347425Y-99188365D01*
X181345799Y-99189200D01*
X178917200Y-99189200D01*
X178915468Y-99188200D01*
X178915200Y-99187200D01*
X178915200Y-99082506D01*
X178915210Y-99082310D01*
X178917200Y-99062107D01*
X178917200Y-99045800D01*
X178918200Y-99044068D01*
X178919200Y-99043800D01*
X181220800Y-99043800D01*
X181222532Y-99044800D01*
G37*
G36*
X120490032Y-98949800D02*
G01*
X120490300Y-98950800D01*
X120490300Y-99099200D01*
X120489300Y-99100932D01*
X120488300Y-99101200D01*
X119036700Y-99101200D01*
X119034968Y-99100200D01*
X119034700Y-99099200D01*
X119034700Y-98950800D01*
X119035700Y-98949068D01*
X119036700Y-98948800D01*
X120488300Y-98948800D01*
X120490032Y-98949800D01*
G37*
G36*
X146602532Y-98324800D02*
G01*
X146602800Y-98325800D01*
X146602800Y-98474200D01*
X146601800Y-98475932D01*
X146600800Y-98476200D01*
X144899200Y-98476200D01*
X144897468Y-98475200D01*
X144897200Y-98474200D01*
X144897200Y-98325800D01*
X144898200Y-98324068D01*
X144899200Y-98323800D01*
X146600800Y-98323800D01*
X146602532Y-98324800D01*
G37*
G36*
X155102532Y-98324800D02*
G01*
X155102800Y-98325800D01*
X155102800Y-98474200D01*
X155101800Y-98475932D01*
X155100800Y-98476200D01*
X153399200Y-98476200D01*
X153397468Y-98475200D01*
X153397200Y-98474200D01*
X153397200Y-98325800D01*
X153398200Y-98324068D01*
X153399200Y-98323800D01*
X155100800Y-98323800D01*
X155102532Y-98324800D01*
G37*
G36*
X120063237Y-98210025D02*
G01*
X120064002Y-98211873D01*
X120062962Y-98213376D01*
X120046940Y-98221939D01*
X120028303Y-98237234D01*
X120013008Y-98255871D01*
X120001643Y-98277135D01*
X119994643Y-98300210D01*
X119992280Y-98324201D01*
X119994643Y-98348192D01*
X120001643Y-98371267D01*
X120013008Y-98392531D01*
X120028303Y-98411168D01*
X120046940Y-98426463D01*
X120068204Y-98437828D01*
X120091279Y-98444828D01*
X120115466Y-98447210D01*
X120117092Y-98448375D01*
X120116896Y-98450365D01*
X120115270Y-98451200D01*
X119409730Y-98451200D01*
X119407998Y-98450200D01*
X119407998Y-98448200D01*
X119409534Y-98447210D01*
X119433721Y-98444828D01*
X119456796Y-98437828D01*
X119478060Y-98426463D01*
X119496697Y-98411168D01*
X119511992Y-98392531D01*
X119523357Y-98371267D01*
X119530357Y-98348192D01*
X119532720Y-98324201D01*
X119530357Y-98300210D01*
X119523357Y-98277135D01*
X119511992Y-98255871D01*
X119496697Y-98237234D01*
X119478060Y-98221939D01*
X119462038Y-98213376D01*
X119460982Y-98211677D01*
X119461925Y-98209914D01*
X119463746Y-98209764D01*
X119537879Y-98240470D01*
X119686657Y-98270064D01*
X119838343Y-98270064D01*
X119987121Y-98240470D01*
X120061254Y-98209764D01*
X120063237Y-98210025D01*
G37*
G36*
X146602532Y-97524800D02*
G01*
X146602800Y-97525800D01*
X146602800Y-97674200D01*
X146601800Y-97675932D01*
X146600800Y-97676200D01*
X144899200Y-97676200D01*
X144897468Y-97675200D01*
X144897200Y-97674200D01*
X144897200Y-97525800D01*
X144898200Y-97524068D01*
X144899200Y-97523800D01*
X146600800Y-97523800D01*
X146602532Y-97524800D01*
G37*
G36*
X155102532Y-97524800D02*
G01*
X155102800Y-97525800D01*
X155102800Y-97674200D01*
X155101800Y-97675932D01*
X155100800Y-97676200D01*
X153399200Y-97676200D01*
X153397468Y-97675200D01*
X153397200Y-97674200D01*
X153397200Y-97525800D01*
X153398200Y-97524068D01*
X153399200Y-97523800D01*
X155100800Y-97523800D01*
X155102532Y-97524800D01*
G37*
G36*
X150875932Y-94898200D02*
G01*
X150876200Y-94899200D01*
X150876200Y-96600800D01*
X150875200Y-96602532D01*
X150874200Y-96602800D01*
X150725800Y-96602800D01*
X150724068Y-96601800D01*
X150723800Y-96600800D01*
X150723800Y-94899200D01*
X150724800Y-94897468D01*
X150725800Y-94897200D01*
X150874200Y-94897200D01*
X150875932Y-94898200D01*
G37*
G36*
X149275932Y-94898200D02*
G01*
X149276200Y-94899200D01*
X149276200Y-96600800D01*
X149275200Y-96602532D01*
X149274200Y-96602800D01*
X149125800Y-96602800D01*
X149124068Y-96601800D01*
X149123800Y-96600800D01*
X149123800Y-94899200D01*
X149124800Y-94897468D01*
X149125800Y-94897200D01*
X149274200Y-94897200D01*
X149275932Y-94898200D01*
G37*
G36*
X150075932Y-94898200D02*
G01*
X150076200Y-94899200D01*
X150076200Y-96600800D01*
X150075200Y-96602532D01*
X150074200Y-96602800D01*
X149925800Y-96602800D01*
X149924068Y-96601800D01*
X149923800Y-96600800D01*
X149923800Y-94899200D01*
X149924800Y-94897468D01*
X149925800Y-94897200D01*
X150074200Y-94897200D01*
X150075932Y-94898200D01*
G37*
G36*
X151675932Y-94898200D02*
G01*
X151676200Y-94899200D01*
X151676200Y-96600800D01*
X151675200Y-96602532D01*
X151674200Y-96602800D01*
X151525800Y-96602800D01*
X151524068Y-96601800D01*
X151523800Y-96600800D01*
X151523800Y-94899200D01*
X151524800Y-94897468D01*
X151525800Y-94897200D01*
X151674200Y-94897200D01*
X151675932Y-94898200D01*
G37*
G36*
X152475932Y-94898200D02*
G01*
X152476200Y-94899200D01*
X152476200Y-96600800D01*
X152475200Y-96602532D01*
X152474200Y-96602800D01*
X152325800Y-96602800D01*
X152324068Y-96601800D01*
X152323800Y-96600800D01*
X152323800Y-94899200D01*
X152324800Y-94897468D01*
X152325800Y-94897200D01*
X152474200Y-94897200D01*
X152475932Y-94898200D01*
G37*
G36*
X147675932Y-94898200D02*
G01*
X147676200Y-94899200D01*
X147676200Y-96600800D01*
X147675200Y-96602532D01*
X147674200Y-96602800D01*
X147525800Y-96602800D01*
X147524068Y-96601800D01*
X147523800Y-96600800D01*
X147523800Y-94899200D01*
X147524800Y-94897468D01*
X147525800Y-94897200D01*
X147674200Y-94897200D01*
X147675932Y-94898200D01*
G37*
G36*
X148475932Y-94898200D02*
G01*
X148476200Y-94899200D01*
X148476200Y-96600800D01*
X148475200Y-96602532D01*
X148474200Y-96602800D01*
X148325800Y-96602800D01*
X148324068Y-96601800D01*
X148323800Y-96600800D01*
X148323800Y-94899200D01*
X148324800Y-94897468D01*
X148325800Y-94897200D01*
X148474200Y-94897200D01*
X148475932Y-94898200D01*
G37*
G36*
X180790965Y-89888215D02*
G01*
X180791800Y-89889841D01*
X180791800Y-89984190D01*
X180791790Y-89984386D01*
X180788133Y-90021517D01*
X180788057Y-90021902D01*
X180779015Y-90051709D01*
X180778865Y-90052071D01*
X180764188Y-90079530D01*
X180763970Y-90079856D01*
X180744210Y-90103933D01*
X180743933Y-90104210D01*
X180719856Y-90123970D01*
X180719530Y-90124188D01*
X180692071Y-90138865D01*
X180691709Y-90139015D01*
X180661902Y-90148057D01*
X180661517Y-90148133D01*
X180624386Y-90151790D01*
X180624190Y-90151800D01*
X180529841Y-90151800D01*
X180528109Y-90150800D01*
X180528109Y-90148800D01*
X180529645Y-90147810D01*
X180580161Y-90142835D01*
X180628554Y-90128155D01*
X180673150Y-90104318D01*
X180712239Y-90072239D01*
X180744318Y-90033150D01*
X180768155Y-89988554D01*
X180782835Y-89940161D01*
X180787810Y-89889645D01*
X180788975Y-89888019D01*
X180790965Y-89888215D01*
G37*
G36*
X178140190Y-89889645D02*
G01*
X178145165Y-89940161D01*
X178159845Y-89988554D01*
X178183682Y-90033150D01*
X178215761Y-90072239D01*
X178254850Y-90104318D01*
X178299446Y-90128155D01*
X178347839Y-90142835D01*
X178398355Y-90147810D01*
X178399981Y-90148975D01*
X178399785Y-90150965D01*
X178398159Y-90151800D01*
X178303810Y-90151800D01*
X178303614Y-90151790D01*
X178266483Y-90148133D01*
X178266098Y-90148057D01*
X178236291Y-90139015D01*
X178235929Y-90138865D01*
X178208470Y-90124188D01*
X178208144Y-90123970D01*
X178184067Y-90104210D01*
X178183790Y-90103933D01*
X178164030Y-90079856D01*
X178163812Y-90079530D01*
X178149135Y-90052071D01*
X178148985Y-90051709D01*
X178139943Y-90021902D01*
X178139867Y-90021517D01*
X178136210Y-89984386D01*
X178136200Y-89984190D01*
X178136200Y-89889841D01*
X178137200Y-89888109D01*
X178139200Y-89888109D01*
X178140190Y-89889645D01*
G37*
G36*
X178399891Y-87497200D02*
G01*
X178399891Y-87499200D01*
X178398355Y-87500190D01*
X178347839Y-87505165D01*
X178299446Y-87519845D01*
X178254850Y-87543682D01*
X178215761Y-87575761D01*
X178183682Y-87614850D01*
X178159845Y-87659446D01*
X178145165Y-87707839D01*
X178140190Y-87758355D01*
X178139025Y-87759981D01*
X178137035Y-87759785D01*
X178136200Y-87758159D01*
X178136200Y-87663810D01*
X178136210Y-87663614D01*
X178139867Y-87626483D01*
X178139943Y-87626098D01*
X178148985Y-87596291D01*
X178149135Y-87595929D01*
X178163812Y-87568470D01*
X178164030Y-87568144D01*
X178183790Y-87544067D01*
X178184067Y-87543790D01*
X178208144Y-87524030D01*
X178208470Y-87523812D01*
X178235929Y-87509135D01*
X178236291Y-87508985D01*
X178266098Y-87499943D01*
X178266483Y-87499867D01*
X178303614Y-87496210D01*
X178303810Y-87496200D01*
X178398159Y-87496200D01*
X178399891Y-87497200D01*
G37*
G36*
X180624386Y-87496210D02*
G01*
X180661517Y-87499867D01*
X180661902Y-87499943D01*
X180691709Y-87508985D01*
X180692071Y-87509135D01*
X180719530Y-87523812D01*
X180719856Y-87524030D01*
X180743933Y-87543790D01*
X180744210Y-87544067D01*
X180763970Y-87568144D01*
X180764188Y-87568470D01*
X180778865Y-87595929D01*
X180779015Y-87596291D01*
X180788057Y-87626098D01*
X180788133Y-87626483D01*
X180791790Y-87663614D01*
X180791800Y-87663810D01*
X180791800Y-87758159D01*
X180790800Y-87759891D01*
X180788800Y-87759891D01*
X180787810Y-87758355D01*
X180782835Y-87707839D01*
X180768155Y-87659446D01*
X180744318Y-87614850D01*
X180712239Y-87575761D01*
X180673150Y-87543682D01*
X180628554Y-87519845D01*
X180580161Y-87505165D01*
X180529645Y-87500190D01*
X180528019Y-87499025D01*
X180528215Y-87497035D01*
X180529841Y-87496200D01*
X180624190Y-87496200D01*
X180624386Y-87496210D01*
G37*
G36*
X151025932Y-76848200D02*
G01*
X151026200Y-76849200D01*
X151026200Y-78650800D01*
X151025200Y-78652532D01*
X151024200Y-78652800D01*
X150825800Y-78652800D01*
X150824068Y-78651800D01*
X150823800Y-78650800D01*
X150823800Y-76849200D01*
X150824800Y-76847468D01*
X150825800Y-76847200D01*
X151024200Y-76847200D01*
X151025932Y-76848200D01*
G37*
G36*
X150075932Y-76848200D02*
G01*
X150076200Y-76849200D01*
X150076200Y-78650800D01*
X150075200Y-78652532D01*
X150074200Y-78652800D01*
X150048577Y-78652800D01*
X150047031Y-78652069D01*
X150036168Y-78638832D01*
X150017531Y-78623537D01*
X149996267Y-78612172D01*
X149973192Y-78605172D01*
X149949107Y-78602800D01*
X149875800Y-78602800D01*
X149874068Y-78601800D01*
X149873800Y-78600800D01*
X149873800Y-76899200D01*
X149874800Y-76897468D01*
X149875800Y-76897200D01*
X149949107Y-76897200D01*
X149973192Y-76894828D01*
X149996267Y-76887828D01*
X150017531Y-76876463D01*
X150036168Y-76861168D01*
X150047031Y-76847931D01*
X150048577Y-76847200D01*
X150074200Y-76847200D01*
X150075932Y-76848200D01*
G37*
G36*
X138811437Y-69919927D02*
G01*
X138817329Y-69923076D01*
X138826484Y-69925854D01*
X138836094Y-69926800D01*
X140335906Y-69926800D01*
X140345516Y-69925854D01*
X140354671Y-69923076D01*
X140360562Y-69919927D01*
X140362561Y-69919993D01*
X140363504Y-69921756D01*
X140362775Y-69923236D01*
X140361918Y-69923940D01*
X140361759Y-69924058D01*
X140348484Y-69932927D01*
X140331437Y-69949974D01*
X140318042Y-69970021D01*
X140308815Y-69992295D01*
X140304110Y-70015945D01*
X140304110Y-70040051D01*
X140308814Y-70063701D01*
X140318040Y-70085975D01*
X140331434Y-70106023D01*
X140348481Y-70123070D01*
X140361757Y-70131940D01*
X140361915Y-70132057D01*
X140362775Y-70132763D01*
X140363479Y-70134635D01*
X140362210Y-70136181D01*
X140360563Y-70136073D01*
X140354671Y-70132924D01*
X140345516Y-70130146D01*
X140335906Y-70129200D01*
X138836094Y-70129200D01*
X138826484Y-70130146D01*
X138817329Y-70132924D01*
X138811438Y-70136073D01*
X138809439Y-70136007D01*
X138808496Y-70134244D01*
X138809225Y-70132764D01*
X138810082Y-70132060D01*
X138810241Y-70131942D01*
X138823516Y-70123073D01*
X138840563Y-70106026D01*
X138853958Y-70085979D01*
X138863185Y-70063705D01*
X138867890Y-70040055D01*
X138867890Y-70015949D01*
X138863186Y-69992299D01*
X138853960Y-69970025D01*
X138840566Y-69949977D01*
X138823519Y-69932930D01*
X138810243Y-69924060D01*
X138810085Y-69923943D01*
X138809225Y-69923237D01*
X138808521Y-69921365D01*
X138809790Y-69919819D01*
X138811437Y-69919927D01*
G37*
G36*
X159893437Y-69919927D02*
G01*
X159899329Y-69923076D01*
X159908484Y-69925854D01*
X159918094Y-69926800D01*
X161417906Y-69926800D01*
X161427516Y-69925854D01*
X161436671Y-69923076D01*
X161442562Y-69919927D01*
X161444561Y-69919993D01*
X161445504Y-69921756D01*
X161444775Y-69923236D01*
X161443918Y-69923940D01*
X161443759Y-69924058D01*
X161430484Y-69932927D01*
X161413437Y-69949974D01*
X161400042Y-69970021D01*
X161390815Y-69992295D01*
X161386110Y-70015945D01*
X161386110Y-70040051D01*
X161390814Y-70063701D01*
X161400040Y-70085975D01*
X161413434Y-70106023D01*
X161430481Y-70123070D01*
X161443757Y-70131940D01*
X161443915Y-70132057D01*
X161444775Y-70132763D01*
X161445479Y-70134635D01*
X161444210Y-70136181D01*
X161442563Y-70136073D01*
X161436671Y-70132924D01*
X161427516Y-70130146D01*
X161417906Y-70129200D01*
X159918094Y-70129200D01*
X159908484Y-70130146D01*
X159899329Y-70132924D01*
X159893438Y-70136073D01*
X159891439Y-70136007D01*
X159890496Y-70134244D01*
X159891225Y-70132764D01*
X159892082Y-70132060D01*
X159892241Y-70131942D01*
X159905516Y-70123073D01*
X159922563Y-70106026D01*
X159935958Y-70085979D01*
X159945185Y-70063705D01*
X159949890Y-70040055D01*
X159949890Y-70015949D01*
X159945186Y-69992299D01*
X159935960Y-69970025D01*
X159922566Y-69949977D01*
X159905519Y-69932930D01*
X159892243Y-69924060D01*
X159892085Y-69923943D01*
X159891225Y-69923237D01*
X159890521Y-69921365D01*
X159891790Y-69919819D01*
X159893437Y-69919927D01*
G37*
M02*
