G04 #@! TF.GenerationSoftware,KiCad,Pcbnew,5.1.7+dfsg1-1~bpo10+1*
G04 #@! TF.CreationDate,2020-11-29T21:40:07-05:00*
G04 #@! TF.ProjectId,board,626f6172-642e-46b6-9963-61645f706362,rev?*
G04 #@! TF.SameCoordinates,Original*
G04 #@! TF.FileFunction,Soldermask,Top*
G04 #@! TF.FilePolarity,Negative*
%FSLAX46Y46*%
G04 Gerber Fmt 4.6, Leading zero omitted, Abs format (unit mm)*
G04 Created by KiCad (PCBNEW 5.1.7+dfsg1-1~bpo10+1) date 2020-11-29 21:40:07*
%MOMM*%
%LPD*%
G01*
G04 APERTURE LIST*
%ADD10O,1.301600X1.851600*%
%ADD11C,0.100000*%
%ADD12O,1.801600X1.801600*%
%ADD13C,2.301600*%
%ADD14C,1.601600*%
%ADD15C,1.101600*%
%ADD16O,2.001600X1.301600*%
%ADD17C,1.551600*%
G04 APERTURE END LIST*
D10*
X149450000Y-71900000D03*
G36*
G01*
X152100800Y-71245365D02*
X152100800Y-72554635D01*
G75*
G02*
X151829635Y-72825800I-271165J0D01*
G01*
X151070365Y-72825800D01*
G75*
G02*
X150799200Y-72554635I0J271165D01*
G01*
X150799200Y-71245365D01*
G75*
G02*
X151070365Y-70974200I271165J0D01*
G01*
X151829635Y-70974200D01*
G75*
G02*
X152100800Y-71245365I0J-271165D01*
G01*
G37*
G36*
G01*
X151175000Y-79369200D02*
X151825000Y-79369200D01*
G75*
G02*
X151875800Y-79420000I0J-50800D01*
G01*
X151875800Y-80480000D01*
G75*
G02*
X151825000Y-80530800I-50800J0D01*
G01*
X151175000Y-80530800D01*
G75*
G02*
X151124200Y-80480000I0J50800D01*
G01*
X151124200Y-79420000D01*
G75*
G02*
X151175000Y-79369200I50800J0D01*
G01*
G37*
G36*
G01*
X149275000Y-79369200D02*
X149925000Y-79369200D01*
G75*
G02*
X149975800Y-79420000I0J-50800D01*
G01*
X149975800Y-80480000D01*
G75*
G02*
X149925000Y-80530800I-50800J0D01*
G01*
X149275000Y-80530800D01*
G75*
G02*
X149224200Y-80480000I0J50800D01*
G01*
X149224200Y-79420000D01*
G75*
G02*
X149275000Y-79369200I50800J0D01*
G01*
G37*
G36*
G01*
X149275000Y-77169200D02*
X149925000Y-77169200D01*
G75*
G02*
X149975800Y-77220000I0J-50800D01*
G01*
X149975800Y-78280000D01*
G75*
G02*
X149925000Y-78330800I-50800J0D01*
G01*
X149275000Y-78330800D01*
G75*
G02*
X149224200Y-78280000I0J50800D01*
G01*
X149224200Y-77220000D01*
G75*
G02*
X149275000Y-77169200I50800J0D01*
G01*
G37*
G36*
G01*
X150225000Y-77169200D02*
X150875000Y-77169200D01*
G75*
G02*
X150925800Y-77220000I0J-50800D01*
G01*
X150925800Y-78280000D01*
G75*
G02*
X150875000Y-78330800I-50800J0D01*
G01*
X150225000Y-78330800D01*
G75*
G02*
X150174200Y-78280000I0J50800D01*
G01*
X150174200Y-77220000D01*
G75*
G02*
X150225000Y-77169200I50800J0D01*
G01*
G37*
G36*
G01*
X151175000Y-77169200D02*
X151825000Y-77169200D01*
G75*
G02*
X151875800Y-77220000I0J-50800D01*
G01*
X151875800Y-78280000D01*
G75*
G02*
X151825000Y-78330800I-50800J0D01*
G01*
X151175000Y-78330800D01*
G75*
G02*
X151124200Y-78280000I0J50800D01*
G01*
X151124200Y-77220000D01*
G75*
G02*
X151175000Y-77169200I50800J0D01*
G01*
G37*
G36*
G01*
X156030762Y-76000800D02*
X154718238Y-76000800D01*
G75*
G02*
X154448700Y-75731262I0J269538D01*
G01*
X154448700Y-74868738D01*
G75*
G02*
X154718238Y-74599200I269538J0D01*
G01*
X156030762Y-74599200D01*
G75*
G02*
X156300300Y-74868738I0J-269538D01*
G01*
X156300300Y-75731262D01*
G75*
G02*
X156030762Y-76000800I-269538J0D01*
G01*
G37*
G36*
G01*
X156030762Y-79100800D02*
X154718238Y-79100800D01*
G75*
G02*
X154448700Y-78831262I0J269538D01*
G01*
X154448700Y-77968738D01*
G75*
G02*
X154718238Y-77699200I269538J0D01*
G01*
X156030762Y-77699200D01*
G75*
G02*
X156300300Y-77968738I0J-269538D01*
G01*
X156300300Y-78831262D01*
G75*
G02*
X156030762Y-79100800I-269538J0D01*
G01*
G37*
G36*
G01*
X158293404Y-77699200D02*
X159605928Y-77699200D01*
G75*
G02*
X159875466Y-77968738I0J-269538D01*
G01*
X159875466Y-78831262D01*
G75*
G02*
X159605928Y-79100800I-269538J0D01*
G01*
X158293404Y-79100800D01*
G75*
G02*
X158023866Y-78831262I0J269538D01*
G01*
X158023866Y-77968738D01*
G75*
G02*
X158293404Y-77699200I269538J0D01*
G01*
G37*
G36*
G01*
X158293404Y-74599200D02*
X159605928Y-74599200D01*
G75*
G02*
X159875466Y-74868738I0J-269538D01*
G01*
X159875466Y-75731262D01*
G75*
G02*
X159605928Y-76000800I-269538J0D01*
G01*
X158293404Y-76000800D01*
G75*
G02*
X158023866Y-75731262I0J269538D01*
G01*
X158023866Y-74868738D01*
G75*
G02*
X158293404Y-74599200I269538J0D01*
G01*
G37*
G36*
G01*
X161868570Y-77699200D02*
X163181094Y-77699200D01*
G75*
G02*
X163450632Y-77968738I0J-269538D01*
G01*
X163450632Y-78831262D01*
G75*
G02*
X163181094Y-79100800I-269538J0D01*
G01*
X161868570Y-79100800D01*
G75*
G02*
X161599032Y-78831262I0J269538D01*
G01*
X161599032Y-77968738D01*
G75*
G02*
X161868570Y-77699200I269538J0D01*
G01*
G37*
G36*
G01*
X161868570Y-74599200D02*
X163181094Y-74599200D01*
G75*
G02*
X163450632Y-74868738I0J-269538D01*
G01*
X163450632Y-75731262D01*
G75*
G02*
X163181094Y-76000800I-269538J0D01*
G01*
X161868570Y-76000800D01*
G75*
G02*
X161599032Y-75731262I0J269538D01*
G01*
X161599032Y-74868738D01*
G75*
G02*
X161868570Y-74599200I269538J0D01*
G01*
G37*
G36*
G01*
X166756262Y-76000800D02*
X165443738Y-76000800D01*
G75*
G02*
X165174200Y-75731262I0J269538D01*
G01*
X165174200Y-74868738D01*
G75*
G02*
X165443738Y-74599200I269538J0D01*
G01*
X166756262Y-74599200D01*
G75*
G02*
X167025800Y-74868738I0J-269538D01*
G01*
X167025800Y-75731262D01*
G75*
G02*
X166756262Y-76000800I-269538J0D01*
G01*
G37*
G36*
G01*
X166756262Y-79100800D02*
X165443738Y-79100800D01*
G75*
G02*
X165174200Y-78831262I0J269538D01*
G01*
X165174200Y-77968738D01*
G75*
G02*
X165443738Y-77699200I269538J0D01*
G01*
X166756262Y-77699200D01*
G75*
G02*
X167025800Y-77968738I0J-269538D01*
G01*
X167025800Y-78831262D01*
G75*
G02*
X166756262Y-79100800I-269538J0D01*
G01*
G37*
G36*
G01*
X136661700Y-93544262D02*
X136661700Y-92231738D01*
G75*
G02*
X136931238Y-91962200I269538J0D01*
G01*
X137793762Y-91962200D01*
G75*
G02*
X138063300Y-92231738I0J-269538D01*
G01*
X138063300Y-93544262D01*
G75*
G02*
X137793762Y-93813800I-269538J0D01*
G01*
X136931238Y-93813800D01*
G75*
G02*
X136661700Y-93544262I0J269538D01*
G01*
G37*
G36*
G01*
X133561700Y-93544262D02*
X133561700Y-92231738D01*
G75*
G02*
X133831238Y-91962200I269538J0D01*
G01*
X134693762Y-91962200D01*
G75*
G02*
X134963300Y-92231738I0J-269538D01*
G01*
X134963300Y-93544262D01*
G75*
G02*
X134693762Y-93813800I-269538J0D01*
G01*
X133831238Y-93813800D01*
G75*
G02*
X133561700Y-93544262I0J269538D01*
G01*
G37*
G36*
G01*
X138106262Y-123915800D02*
X136793738Y-123915800D01*
G75*
G02*
X136524200Y-123646262I0J269538D01*
G01*
X136524200Y-122783738D01*
G75*
G02*
X136793738Y-122514200I269538J0D01*
G01*
X138106262Y-122514200D01*
G75*
G02*
X138375800Y-122783738I0J-269538D01*
G01*
X138375800Y-123646262D01*
G75*
G02*
X138106262Y-123915800I-269538J0D01*
G01*
G37*
G36*
G01*
X138106262Y-127015800D02*
X136793738Y-127015800D01*
G75*
G02*
X136524200Y-126746262I0J269538D01*
G01*
X136524200Y-125883738D01*
G75*
G02*
X136793738Y-125614200I269538J0D01*
G01*
X138106262Y-125614200D01*
G75*
G02*
X138375800Y-125883738I0J-269538D01*
G01*
X138375800Y-126746262D01*
G75*
G02*
X138106262Y-127015800I-269538J0D01*
G01*
G37*
G36*
G01*
X147398800Y-108487738D02*
X147398800Y-109800262D01*
G75*
G02*
X147129262Y-110069800I-269538J0D01*
G01*
X146266738Y-110069800D01*
G75*
G02*
X145997200Y-109800262I0J269538D01*
G01*
X145997200Y-108487738D01*
G75*
G02*
X146266738Y-108218200I269538J0D01*
G01*
X147129262Y-108218200D01*
G75*
G02*
X147398800Y-108487738I0J-269538D01*
G01*
G37*
G36*
G01*
X150498800Y-108487738D02*
X150498800Y-109800262D01*
G75*
G02*
X150229262Y-110069800I-269538J0D01*
G01*
X149366738Y-110069800D01*
G75*
G02*
X149097200Y-109800262I0J269538D01*
G01*
X149097200Y-108487738D01*
G75*
G02*
X149366738Y-108218200I269538J0D01*
G01*
X150229262Y-108218200D01*
G75*
G02*
X150498800Y-108487738I0J-269538D01*
G01*
G37*
G36*
G01*
X137393738Y-77699200D02*
X138706262Y-77699200D01*
G75*
G02*
X138975800Y-77968738I0J-269538D01*
G01*
X138975800Y-78831262D01*
G75*
G02*
X138706262Y-79100800I-269538J0D01*
G01*
X137393738Y-79100800D01*
G75*
G02*
X137124200Y-78831262I0J269538D01*
G01*
X137124200Y-77968738D01*
G75*
G02*
X137393738Y-77699200I269538J0D01*
G01*
G37*
G36*
G01*
X137393738Y-74599200D02*
X138706262Y-74599200D01*
G75*
G02*
X138975800Y-74868738I0J-269538D01*
G01*
X138975800Y-75731262D01*
G75*
G02*
X138706262Y-76000800I-269538J0D01*
G01*
X137393738Y-76000800D01*
G75*
G02*
X137124200Y-75731262I0J269538D01*
G01*
X137124200Y-74868738D01*
G75*
G02*
X137393738Y-74599200I269538J0D01*
G01*
G37*
G36*
G01*
X164206262Y-123915800D02*
X162893738Y-123915800D01*
G75*
G02*
X162624200Y-123646262I0J269538D01*
G01*
X162624200Y-122783738D01*
G75*
G02*
X162893738Y-122514200I269538J0D01*
G01*
X164206262Y-122514200D01*
G75*
G02*
X164475800Y-122783738I0J-269538D01*
G01*
X164475800Y-123646262D01*
G75*
G02*
X164206262Y-123915800I-269538J0D01*
G01*
G37*
G36*
G01*
X164206262Y-127015800D02*
X162893738Y-127015800D01*
G75*
G02*
X162624200Y-126746262I0J269538D01*
G01*
X162624200Y-125883738D01*
G75*
G02*
X162893738Y-125614200I269538J0D01*
G01*
X164206262Y-125614200D01*
G75*
G02*
X164475800Y-125883738I0J-269538D01*
G01*
X164475800Y-126746262D01*
G75*
G02*
X164206262Y-127015800I-269538J0D01*
G01*
G37*
G36*
G01*
X141706262Y-123915800D02*
X140393738Y-123915800D01*
G75*
G02*
X140124200Y-123646262I0J269538D01*
G01*
X140124200Y-122783738D01*
G75*
G02*
X140393738Y-122514200I269538J0D01*
G01*
X141706262Y-122514200D01*
G75*
G02*
X141975800Y-122783738I0J-269538D01*
G01*
X141975800Y-123646262D01*
G75*
G02*
X141706262Y-123915800I-269538J0D01*
G01*
G37*
G36*
G01*
X141706262Y-127015800D02*
X140393738Y-127015800D01*
G75*
G02*
X140124200Y-126746262I0J269538D01*
G01*
X140124200Y-125883738D01*
G75*
G02*
X140393738Y-125614200I269538J0D01*
G01*
X141706262Y-125614200D01*
G75*
G02*
X141975800Y-125883738I0J-269538D01*
G01*
X141975800Y-126746262D01*
G75*
G02*
X141706262Y-127015800I-269538J0D01*
G01*
G37*
G36*
G01*
X133350800Y-76550000D02*
X133350800Y-77350000D01*
G75*
G02*
X133300000Y-77400800I-50800J0D01*
G01*
X132400000Y-77400800D01*
G75*
G02*
X132349200Y-77350000I0J50800D01*
G01*
X132349200Y-76550000D01*
G75*
G02*
X132400000Y-76499200I50800J0D01*
G01*
X133300000Y-76499200D01*
G75*
G02*
X133350800Y-76550000I0J-50800D01*
G01*
G37*
G36*
G01*
X135350800Y-75600000D02*
X135350800Y-76400000D01*
G75*
G02*
X135300000Y-76450800I-50800J0D01*
G01*
X134400000Y-76450800D01*
G75*
G02*
X134349200Y-76400000I0J50800D01*
G01*
X134349200Y-75600000D01*
G75*
G02*
X134400000Y-75549200I50800J0D01*
G01*
X135300000Y-75549200D01*
G75*
G02*
X135350800Y-75600000I0J-50800D01*
G01*
G37*
G36*
G01*
X135350800Y-77500000D02*
X135350800Y-78300000D01*
G75*
G02*
X135300000Y-78350800I-50800J0D01*
G01*
X134400000Y-78350800D01*
G75*
G02*
X134349200Y-78300000I0J50800D01*
G01*
X134349200Y-77500000D01*
G75*
G02*
X134400000Y-77449200I50800J0D01*
G01*
X135300000Y-77449200D01*
G75*
G02*
X135350800Y-77500000I0J-50800D01*
G01*
G37*
D11*
G36*
X144456113Y-69699802D02*
G01*
X144474534Y-69699802D01*
X144479514Y-69700047D01*
X144528345Y-69704857D01*
X144533275Y-69705588D01*
X144581400Y-69715160D01*
X144586237Y-69716372D01*
X144633192Y-69730616D01*
X144637885Y-69732295D01*
X144683218Y-69751072D01*
X144687726Y-69753204D01*
X144730999Y-69776335D01*
X144735273Y-69778897D01*
X144776072Y-69806157D01*
X144780077Y-69809127D01*
X144818006Y-69840255D01*
X144821700Y-69843603D01*
X144856397Y-69878300D01*
X144859745Y-69881994D01*
X144890873Y-69919923D01*
X144893843Y-69923928D01*
X144921103Y-69964727D01*
X144923665Y-69969001D01*
X144946796Y-70012274D01*
X144948928Y-70016782D01*
X144967705Y-70062115D01*
X144969384Y-70066808D01*
X144983628Y-70113763D01*
X144984840Y-70118600D01*
X144994412Y-70166725D01*
X144995143Y-70171655D01*
X144999953Y-70220486D01*
X145000198Y-70225466D01*
X145000198Y-70243887D01*
X145000800Y-70250000D01*
X145000800Y-70750000D01*
X145000198Y-70756113D01*
X145000198Y-70774534D01*
X144999953Y-70779514D01*
X144995143Y-70828345D01*
X144994412Y-70833275D01*
X144984840Y-70881400D01*
X144983628Y-70886237D01*
X144969384Y-70933192D01*
X144967705Y-70937885D01*
X144948928Y-70983218D01*
X144946796Y-70987726D01*
X144923665Y-71030999D01*
X144921103Y-71035273D01*
X144893843Y-71076072D01*
X144890873Y-71080077D01*
X144859745Y-71118006D01*
X144856397Y-71121700D01*
X144821700Y-71156397D01*
X144818006Y-71159745D01*
X144780077Y-71190873D01*
X144776072Y-71193843D01*
X144735273Y-71221103D01*
X144730999Y-71223665D01*
X144687726Y-71246796D01*
X144683218Y-71248928D01*
X144637885Y-71267705D01*
X144633192Y-71269384D01*
X144586237Y-71283628D01*
X144581400Y-71284840D01*
X144533275Y-71294412D01*
X144528345Y-71295143D01*
X144479514Y-71299953D01*
X144474534Y-71300198D01*
X144456113Y-71300198D01*
X144450000Y-71300800D01*
X143950000Y-71300800D01*
X143940089Y-71299824D01*
X143930560Y-71296933D01*
X143921777Y-71292239D01*
X143914079Y-71285921D01*
X143907761Y-71278223D01*
X143903067Y-71269440D01*
X143900176Y-71259911D01*
X143899200Y-71250000D01*
X143899200Y-69750000D01*
X143900176Y-69740089D01*
X143903067Y-69730560D01*
X143907761Y-69721777D01*
X143914079Y-69714079D01*
X143921777Y-69707761D01*
X143930560Y-69703067D01*
X143940089Y-69700176D01*
X143950000Y-69699200D01*
X144450000Y-69699200D01*
X144456113Y-69699802D01*
G37*
G36*
X143659911Y-69700176D02*
G01*
X143669440Y-69703067D01*
X143678223Y-69707761D01*
X143685921Y-69714079D01*
X143692239Y-69721777D01*
X143696933Y-69730560D01*
X143699824Y-69740089D01*
X143700800Y-69750000D01*
X143700800Y-71250000D01*
X143699824Y-71259911D01*
X143696933Y-71269440D01*
X143692239Y-71278223D01*
X143685921Y-71285921D01*
X143678223Y-71292239D01*
X143669440Y-71296933D01*
X143659911Y-71299824D01*
X143650000Y-71300800D01*
X143150000Y-71300800D01*
X143143887Y-71300198D01*
X143125466Y-71300198D01*
X143120486Y-71299953D01*
X143071655Y-71295143D01*
X143066725Y-71294412D01*
X143018600Y-71284840D01*
X143013763Y-71283628D01*
X142966808Y-71269384D01*
X142962115Y-71267705D01*
X142916782Y-71248928D01*
X142912274Y-71246796D01*
X142869001Y-71223665D01*
X142864727Y-71221103D01*
X142823928Y-71193843D01*
X142819923Y-71190873D01*
X142781994Y-71159745D01*
X142778300Y-71156397D01*
X142743603Y-71121700D01*
X142740255Y-71118006D01*
X142709127Y-71080077D01*
X142706157Y-71076072D01*
X142678897Y-71035273D01*
X142676335Y-71030999D01*
X142653204Y-70987726D01*
X142651072Y-70983218D01*
X142632295Y-70937885D01*
X142630616Y-70933192D01*
X142616372Y-70886237D01*
X142615160Y-70881400D01*
X142605588Y-70833275D01*
X142604857Y-70828345D01*
X142600047Y-70779514D01*
X142599802Y-70774534D01*
X142599802Y-70756113D01*
X142599200Y-70750000D01*
X142599200Y-70250000D01*
X142599802Y-70243887D01*
X142599802Y-70225466D01*
X142600047Y-70220486D01*
X142604857Y-70171655D01*
X142605588Y-70166725D01*
X142615160Y-70118600D01*
X142616372Y-70113763D01*
X142630616Y-70066808D01*
X142632295Y-70062115D01*
X142651072Y-70016782D01*
X142653204Y-70012274D01*
X142676335Y-69969001D01*
X142678897Y-69964727D01*
X142706157Y-69923928D01*
X142709127Y-69919923D01*
X142740255Y-69881994D01*
X142743603Y-69878300D01*
X142778300Y-69843603D01*
X142781994Y-69840255D01*
X142819923Y-69809127D01*
X142823928Y-69806157D01*
X142864727Y-69778897D01*
X142869001Y-69776335D01*
X142912274Y-69753204D01*
X142916782Y-69751072D01*
X142962115Y-69732295D01*
X142966808Y-69730616D01*
X143013763Y-69716372D01*
X143018600Y-69715160D01*
X143066725Y-69705588D01*
X143071655Y-69704857D01*
X143120486Y-69700047D01*
X143125466Y-69699802D01*
X143143887Y-69699802D01*
X143150000Y-69699200D01*
X143650000Y-69699200D01*
X143659911Y-69700176D01*
G37*
D12*
X164986000Y-114960600D03*
X162446000Y-114960600D03*
X159906000Y-114960600D03*
X157366000Y-114960600D03*
X154826000Y-114960600D03*
X152286000Y-114960600D03*
X149746000Y-114960600D03*
X147206000Y-114960600D03*
X144666000Y-114960600D03*
X142126000Y-114960600D03*
X139586000Y-114960600D03*
X137046000Y-114960600D03*
X134506000Y-114960600D03*
G36*
G01*
X132816000Y-115861400D02*
X131116000Y-115861400D01*
G75*
G02*
X131065200Y-115810600I0J50800D01*
G01*
X131065200Y-114110600D01*
G75*
G02*
X131116000Y-114059800I50800J0D01*
G01*
X132816000Y-114059800D01*
G75*
G02*
X132866800Y-114110600I0J-50800D01*
G01*
X132866800Y-115810600D01*
G75*
G02*
X132816000Y-115861400I-50800J0D01*
G01*
G37*
G36*
G01*
X156675800Y-70042024D02*
X156675800Y-71357976D01*
G75*
G02*
X156407976Y-71625800I-267824J0D01*
G01*
X155417024Y-71625800D01*
G75*
G02*
X155149200Y-71357976I0J267824D01*
G01*
X155149200Y-70042024D01*
G75*
G02*
X155417024Y-69774200I267824J0D01*
G01*
X156407976Y-69774200D01*
G75*
G02*
X156675800Y-70042024I0J-267824D01*
G01*
G37*
G36*
G01*
X159650800Y-70042024D02*
X159650800Y-71357976D01*
G75*
G02*
X159382976Y-71625800I-267824J0D01*
G01*
X158392024Y-71625800D01*
G75*
G02*
X158124200Y-71357976I0J267824D01*
G01*
X158124200Y-70042024D01*
G75*
G02*
X158392024Y-69774200I267824J0D01*
G01*
X159382976Y-69774200D01*
G75*
G02*
X159650800Y-70042024I0J-267824D01*
G01*
G37*
G36*
G01*
X141052024Y-77596700D02*
X142367976Y-77596700D01*
G75*
G02*
X142635800Y-77864524I0J-267824D01*
G01*
X142635800Y-78855476D01*
G75*
G02*
X142367976Y-79123300I-267824J0D01*
G01*
X141052024Y-79123300D01*
G75*
G02*
X140784200Y-78855476I0J267824D01*
G01*
X140784200Y-77864524D01*
G75*
G02*
X141052024Y-77596700I267824J0D01*
G01*
G37*
G36*
G01*
X141052024Y-74621700D02*
X142367976Y-74621700D01*
G75*
G02*
X142635800Y-74889524I0J-267824D01*
G01*
X142635800Y-75880476D01*
G75*
G02*
X142367976Y-76148300I-267824J0D01*
G01*
X141052024Y-76148300D01*
G75*
G02*
X140784200Y-75880476I0J267824D01*
G01*
X140784200Y-74889524D01*
G75*
G02*
X141052024Y-74621700I267824J0D01*
G01*
G37*
G36*
G01*
X130313700Y-103856632D02*
X130313700Y-102493368D01*
G75*
G02*
X130582868Y-102224200I269168J0D01*
G01*
X131471132Y-102224200D01*
G75*
G02*
X131740300Y-102493368I0J-269168D01*
G01*
X131740300Y-103856632D01*
G75*
G02*
X131471132Y-104125800I-269168J0D01*
G01*
X130582868Y-104125800D01*
G75*
G02*
X130313700Y-103856632I0J269168D01*
G01*
G37*
G36*
G01*
X127188700Y-103856632D02*
X127188700Y-102493368D01*
G75*
G02*
X127457868Y-102224200I269168J0D01*
G01*
X128346132Y-102224200D01*
G75*
G02*
X128615300Y-102493368I0J-269168D01*
G01*
X128615300Y-103856632D01*
G75*
G02*
X128346132Y-104125800I-269168J0D01*
G01*
X127457868Y-104125800D01*
G75*
G02*
X127188700Y-103856632I0J269168D01*
G01*
G37*
G36*
G01*
X134709300Y-99064368D02*
X134709300Y-100427632D01*
G75*
G02*
X134440132Y-100696800I-269168J0D01*
G01*
X133551868Y-100696800D01*
G75*
G02*
X133282700Y-100427632I0J269168D01*
G01*
X133282700Y-99064368D01*
G75*
G02*
X133551868Y-98795200I269168J0D01*
G01*
X134440132Y-98795200D01*
G75*
G02*
X134709300Y-99064368I0J-269168D01*
G01*
G37*
G36*
G01*
X137834300Y-99064368D02*
X137834300Y-100427632D01*
G75*
G02*
X137565132Y-100696800I-269168J0D01*
G01*
X136676868Y-100696800D01*
G75*
G02*
X136407700Y-100427632I0J269168D01*
G01*
X136407700Y-99064368D01*
G75*
G02*
X136676868Y-98795200I269168J0D01*
G01*
X137565132Y-98795200D01*
G75*
G02*
X137834300Y-99064368I0J-269168D01*
G01*
G37*
G36*
G01*
X130311700Y-100427632D02*
X130311700Y-99064368D01*
G75*
G02*
X130580868Y-98795200I269168J0D01*
G01*
X131469132Y-98795200D01*
G75*
G02*
X131738300Y-99064368I0J-269168D01*
G01*
X131738300Y-100427632D01*
G75*
G02*
X131469132Y-100696800I-269168J0D01*
G01*
X130580868Y-100696800D01*
G75*
G02*
X130311700Y-100427632I0J269168D01*
G01*
G37*
G36*
G01*
X127186700Y-100427632D02*
X127186700Y-99064368D01*
G75*
G02*
X127455868Y-98795200I269168J0D01*
G01*
X128344132Y-98795200D01*
G75*
G02*
X128613300Y-99064368I0J-269168D01*
G01*
X128613300Y-100427632D01*
G75*
G02*
X128344132Y-100696800I-269168J0D01*
G01*
X127455868Y-100696800D01*
G75*
G02*
X127186700Y-100427632I0J269168D01*
G01*
G37*
G36*
G01*
X155795368Y-107924700D02*
X157158632Y-107924700D01*
G75*
G02*
X157427800Y-108193868I0J-269168D01*
G01*
X157427800Y-109082132D01*
G75*
G02*
X157158632Y-109351300I-269168J0D01*
G01*
X155795368Y-109351300D01*
G75*
G02*
X155526200Y-109082132I0J269168D01*
G01*
X155526200Y-108193868D01*
G75*
G02*
X155795368Y-107924700I269168J0D01*
G01*
G37*
G36*
G01*
X155795368Y-104799700D02*
X157158632Y-104799700D01*
G75*
G02*
X157427800Y-105068868I0J-269168D01*
G01*
X157427800Y-105957132D01*
G75*
G02*
X157158632Y-106226300I-269168J0D01*
G01*
X155795368Y-106226300D01*
G75*
G02*
X155526200Y-105957132I0J269168D01*
G01*
X155526200Y-105068868D01*
G75*
G02*
X155795368Y-104799700I269168J0D01*
G01*
G37*
G36*
G01*
X130311700Y-96871632D02*
X130311700Y-95508368D01*
G75*
G02*
X130580868Y-95239200I269168J0D01*
G01*
X131469132Y-95239200D01*
G75*
G02*
X131738300Y-95508368I0J-269168D01*
G01*
X131738300Y-96871632D01*
G75*
G02*
X131469132Y-97140800I-269168J0D01*
G01*
X130580868Y-97140800D01*
G75*
G02*
X130311700Y-96871632I0J269168D01*
G01*
G37*
G36*
G01*
X127186700Y-96871632D02*
X127186700Y-95508368D01*
G75*
G02*
X127455868Y-95239200I269168J0D01*
G01*
X128344132Y-95239200D01*
G75*
G02*
X128613300Y-95508368I0J-269168D01*
G01*
X128613300Y-96871632D01*
G75*
G02*
X128344132Y-97140800I-269168J0D01*
G01*
X127455868Y-97140800D01*
G75*
G02*
X127186700Y-96871632I0J269168D01*
G01*
G37*
G36*
G01*
X152366368Y-109829700D02*
X153729632Y-109829700D01*
G75*
G02*
X153998800Y-110098868I0J-269168D01*
G01*
X153998800Y-110987132D01*
G75*
G02*
X153729632Y-111256300I-269168J0D01*
G01*
X152366368Y-111256300D01*
G75*
G02*
X152097200Y-110987132I0J269168D01*
G01*
X152097200Y-110098868D01*
G75*
G02*
X152366368Y-109829700I269168J0D01*
G01*
G37*
G36*
G01*
X152366368Y-106704700D02*
X153729632Y-106704700D01*
G75*
G02*
X153998800Y-106973868I0J-269168D01*
G01*
X153998800Y-107862132D01*
G75*
G02*
X153729632Y-108131300I-269168J0D01*
G01*
X152366368Y-108131300D01*
G75*
G02*
X152097200Y-107862132I0J269168D01*
G01*
X152097200Y-106973868D01*
G75*
G02*
X152366368Y-106704700I269168J0D01*
G01*
G37*
G36*
G01*
X136461700Y-107285632D02*
X136461700Y-105922368D01*
G75*
G02*
X136730868Y-105653200I269168J0D01*
G01*
X137619132Y-105653200D01*
G75*
G02*
X137888300Y-105922368I0J-269168D01*
G01*
X137888300Y-107285632D01*
G75*
G02*
X137619132Y-107554800I-269168J0D01*
G01*
X136730868Y-107554800D01*
G75*
G02*
X136461700Y-107285632I0J269168D01*
G01*
G37*
G36*
G01*
X133336700Y-107285632D02*
X133336700Y-105922368D01*
G75*
G02*
X133605868Y-105653200I269168J0D01*
G01*
X134494132Y-105653200D01*
G75*
G02*
X134763300Y-105922368I0J-269168D01*
G01*
X134763300Y-107285632D01*
G75*
G02*
X134494132Y-107554800I-269168J0D01*
G01*
X133605868Y-107554800D01*
G75*
G02*
X133336700Y-107285632I0J269168D01*
G01*
G37*
G36*
G01*
X146081632Y-76000800D02*
X144718368Y-76000800D01*
G75*
G02*
X144449200Y-75731632I0J269168D01*
G01*
X144449200Y-74843368D01*
G75*
G02*
X144718368Y-74574200I269168J0D01*
G01*
X146081632Y-74574200D01*
G75*
G02*
X146350800Y-74843368I0J-269168D01*
G01*
X146350800Y-75731632D01*
G75*
G02*
X146081632Y-76000800I-269168J0D01*
G01*
G37*
G36*
G01*
X146081632Y-79125800D02*
X144718368Y-79125800D01*
G75*
G02*
X144449200Y-78856632I0J269168D01*
G01*
X144449200Y-77968368D01*
G75*
G02*
X144718368Y-77699200I269168J0D01*
G01*
X146081632Y-77699200D01*
G75*
G02*
X146350800Y-77968368I0J-269168D01*
G01*
X146350800Y-78856632D01*
G75*
G02*
X146081632Y-79125800I-269168J0D01*
G01*
G37*
G36*
G01*
X136461700Y-103856632D02*
X136461700Y-102493368D01*
G75*
G02*
X136730868Y-102224200I269168J0D01*
G01*
X137619132Y-102224200D01*
G75*
G02*
X137888300Y-102493368I0J-269168D01*
G01*
X137888300Y-103856632D01*
G75*
G02*
X137619132Y-104125800I-269168J0D01*
G01*
X136730868Y-104125800D01*
G75*
G02*
X136461700Y-103856632I0J269168D01*
G01*
G37*
G36*
G01*
X133336700Y-103856632D02*
X133336700Y-102493368D01*
G75*
G02*
X133605868Y-102224200I269168J0D01*
G01*
X134494132Y-102224200D01*
G75*
G02*
X134763300Y-102493368I0J-269168D01*
G01*
X134763300Y-103856632D01*
G75*
G02*
X134494132Y-104125800I-269168J0D01*
G01*
X133605868Y-104125800D01*
G75*
G02*
X133336700Y-103856632I0J269168D01*
G01*
G37*
G36*
G01*
X134799800Y-109478368D02*
X134799800Y-110841632D01*
G75*
G02*
X134530632Y-111110800I-269168J0D01*
G01*
X133642368Y-111110800D01*
G75*
G02*
X133373200Y-110841632I0J269168D01*
G01*
X133373200Y-109478368D01*
G75*
G02*
X133642368Y-109209200I269168J0D01*
G01*
X134530632Y-109209200D01*
G75*
G02*
X134799800Y-109478368I0J-269168D01*
G01*
G37*
G36*
G01*
X137924800Y-109478368D02*
X137924800Y-110841632D01*
G75*
G02*
X137655632Y-111110800I-269168J0D01*
G01*
X136767368Y-111110800D01*
G75*
G02*
X136498200Y-110841632I0J269168D01*
G01*
X136498200Y-109478368D01*
G75*
G02*
X136767368Y-109209200I269168J0D01*
G01*
X137655632Y-109209200D01*
G75*
G02*
X137924800Y-109478368I0J-269168D01*
G01*
G37*
G36*
G01*
X173745700Y-85187632D02*
X173745700Y-83824368D01*
G75*
G02*
X174014868Y-83555200I269168J0D01*
G01*
X174903132Y-83555200D01*
G75*
G02*
X175172300Y-83824368I0J-269168D01*
G01*
X175172300Y-85187632D01*
G75*
G02*
X174903132Y-85456800I-269168J0D01*
G01*
X174014868Y-85456800D01*
G75*
G02*
X173745700Y-85187632I0J269168D01*
G01*
G37*
G36*
G01*
X170620700Y-85187632D02*
X170620700Y-83824368D01*
G75*
G02*
X170889868Y-83555200I269168J0D01*
G01*
X171778132Y-83555200D01*
G75*
G02*
X172047300Y-83824368I0J-269168D01*
G01*
X172047300Y-85187632D01*
G75*
G02*
X171778132Y-85456800I-269168J0D01*
G01*
X170889868Y-85456800D01*
G75*
G02*
X170620700Y-85187632I0J269168D01*
G01*
G37*
G36*
G01*
X159168368Y-125614200D02*
X160531632Y-125614200D01*
G75*
G02*
X160800800Y-125883368I0J-269168D01*
G01*
X160800800Y-126771632D01*
G75*
G02*
X160531632Y-127040800I-269168J0D01*
G01*
X159168368Y-127040800D01*
G75*
G02*
X158899200Y-126771632I0J269168D01*
G01*
X158899200Y-125883368D01*
G75*
G02*
X159168368Y-125614200I269168J0D01*
G01*
G37*
G36*
G01*
X159168368Y-122489200D02*
X160531632Y-122489200D01*
G75*
G02*
X160800800Y-122758368I0J-269168D01*
G01*
X160800800Y-123646632D01*
G75*
G02*
X160531632Y-123915800I-269168J0D01*
G01*
X159168368Y-123915800D01*
G75*
G02*
X158899200Y-123646632I0J269168D01*
G01*
X158899200Y-122758368D01*
G75*
G02*
X159168368Y-122489200I269168J0D01*
G01*
G37*
G36*
G01*
X130181632Y-89950800D02*
X128818368Y-89950800D01*
G75*
G02*
X128549200Y-89681632I0J269168D01*
G01*
X128549200Y-88793368D01*
G75*
G02*
X128818368Y-88524200I269168J0D01*
G01*
X130181632Y-88524200D01*
G75*
G02*
X130450800Y-88793368I0J-269168D01*
G01*
X130450800Y-89681632D01*
G75*
G02*
X130181632Y-89950800I-269168J0D01*
G01*
G37*
G36*
G01*
X130181632Y-93075800D02*
X128818368Y-93075800D01*
G75*
G02*
X128549200Y-92806632I0J269168D01*
G01*
X128549200Y-91918368D01*
G75*
G02*
X128818368Y-91649200I269168J0D01*
G01*
X130181632Y-91649200D01*
G75*
G02*
X130450800Y-91918368I0J-269168D01*
G01*
X130450800Y-92806632D01*
G75*
G02*
X130181632Y-93075800I-269168J0D01*
G01*
G37*
G36*
G01*
X123065000Y-92282568D02*
X123065000Y-93645832D01*
G75*
G02*
X122795832Y-93915000I-269168J0D01*
G01*
X121907568Y-93915000D01*
G75*
G02*
X121638400Y-93645832I0J269168D01*
G01*
X121638400Y-92282568D01*
G75*
G02*
X121907568Y-92013400I269168J0D01*
G01*
X122795832Y-92013400D01*
G75*
G02*
X123065000Y-92282568I0J-269168D01*
G01*
G37*
G36*
G01*
X126190000Y-92282568D02*
X126190000Y-93645832D01*
G75*
G02*
X125920832Y-93915000I-269168J0D01*
G01*
X125032568Y-93915000D01*
G75*
G02*
X124763400Y-93645832I0J269168D01*
G01*
X124763400Y-92282568D01*
G75*
G02*
X125032568Y-92013400I269168J0D01*
G01*
X125920832Y-92013400D01*
G75*
G02*
X126190000Y-92282568I0J-269168D01*
G01*
G37*
G36*
G01*
X124417200Y-89196000D02*
X124417200Y-88396000D01*
G75*
G02*
X124468000Y-88345200I50800J0D01*
G01*
X126368000Y-88345200D01*
G75*
G02*
X126418800Y-88396000I0J-50800D01*
G01*
X126418800Y-89196000D01*
G75*
G02*
X126368000Y-89246800I-50800J0D01*
G01*
X124468000Y-89246800D01*
G75*
G02*
X124417200Y-89196000I0J50800D01*
G01*
G37*
G36*
G01*
X121417200Y-90146000D02*
X121417200Y-89346000D01*
G75*
G02*
X121468000Y-89295200I50800J0D01*
G01*
X123368000Y-89295200D01*
G75*
G02*
X123418800Y-89346000I0J-50800D01*
G01*
X123418800Y-90146000D01*
G75*
G02*
X123368000Y-90196800I-50800J0D01*
G01*
X121468000Y-90196800D01*
G75*
G02*
X121417200Y-90146000I0J50800D01*
G01*
G37*
G36*
G01*
X121417200Y-88246000D02*
X121417200Y-87446000D01*
G75*
G02*
X121468000Y-87395200I50800J0D01*
G01*
X123368000Y-87395200D01*
G75*
G02*
X123418800Y-87446000I0J-50800D01*
G01*
X123418800Y-88246000D01*
G75*
G02*
X123368000Y-88296800I-50800J0D01*
G01*
X121468000Y-88296800D01*
G75*
G02*
X121417200Y-88246000I0J50800D01*
G01*
G37*
G36*
G01*
X164136000Y-83559200D02*
X165836000Y-83559200D01*
G75*
G02*
X165886800Y-83610000I0J-50800D01*
G01*
X165886800Y-85310000D01*
G75*
G02*
X165836000Y-85360800I-50800J0D01*
G01*
X164136000Y-85360800D01*
G75*
G02*
X164085200Y-85310000I0J50800D01*
G01*
X164085200Y-83610000D01*
G75*
G02*
X164136000Y-83559200I50800J0D01*
G01*
G37*
X162446000Y-84460000D03*
X159906000Y-84460000D03*
X157366000Y-84460000D03*
X154826000Y-84460000D03*
X152286000Y-84460000D03*
X149746000Y-84460000D03*
X147206000Y-84460000D03*
X144666000Y-84460000D03*
X142126000Y-84460000D03*
X139586000Y-84460000D03*
X137046000Y-84460000D03*
X134506000Y-84460000D03*
X131966000Y-84460000D03*
D13*
X130000000Y-120000000D03*
X170000000Y-120000000D03*
X130000000Y-80000000D03*
X170000000Y-80000000D03*
G36*
G01*
X160600000Y-93300800D02*
X159400000Y-93300800D01*
G75*
G02*
X159349200Y-93250000I0J50800D01*
G01*
X159349200Y-90750000D01*
G75*
G02*
X159400000Y-90699200I50800J0D01*
G01*
X160600000Y-90699200D01*
G75*
G02*
X160650800Y-90750000I0J-50800D01*
G01*
X160650800Y-93250000D01*
G75*
G02*
X160600000Y-93300800I-50800J0D01*
G01*
G37*
G36*
G01*
X162600000Y-93300800D02*
X161400000Y-93300800D01*
G75*
G02*
X161349200Y-93250000I0J50800D01*
G01*
X161349200Y-90750000D01*
G75*
G02*
X161400000Y-90699200I50800J0D01*
G01*
X162600000Y-90699200D01*
G75*
G02*
X162650800Y-90750000I0J-50800D01*
G01*
X162650800Y-93250000D01*
G75*
G02*
X162600000Y-93300800I-50800J0D01*
G01*
G37*
G36*
G01*
X164600000Y-93300800D02*
X163400000Y-93300800D01*
G75*
G02*
X163349200Y-93250000I0J50800D01*
G01*
X163349200Y-90750000D01*
G75*
G02*
X163400000Y-90699200I50800J0D01*
G01*
X164600000Y-90699200D01*
G75*
G02*
X164650800Y-90750000I0J-50800D01*
G01*
X164650800Y-93250000D01*
G75*
G02*
X164600000Y-93300800I-50800J0D01*
G01*
G37*
G36*
G01*
X166600000Y-93300800D02*
X165400000Y-93300800D01*
G75*
G02*
X165349200Y-93250000I0J50800D01*
G01*
X165349200Y-90750000D01*
G75*
G02*
X165400000Y-90699200I50800J0D01*
G01*
X166600000Y-90699200D01*
G75*
G02*
X166650800Y-90750000I0J-50800D01*
G01*
X166650800Y-93250000D01*
G75*
G02*
X166600000Y-93300800I-50800J0D01*
G01*
G37*
G36*
G01*
X168600000Y-93300800D02*
X167400000Y-93300800D01*
G75*
G02*
X167349200Y-93250000I0J50800D01*
G01*
X167349200Y-90750000D01*
G75*
G02*
X167400000Y-90699200I50800J0D01*
G01*
X168600000Y-90699200D01*
G75*
G02*
X168650800Y-90750000I0J-50800D01*
G01*
X168650800Y-93250000D01*
G75*
G02*
X168600000Y-93300800I-50800J0D01*
G01*
G37*
G36*
G01*
X170600000Y-93300800D02*
X169400000Y-93300800D01*
G75*
G02*
X169349200Y-93250000I0J50800D01*
G01*
X169349200Y-90750000D01*
G75*
G02*
X169400000Y-90699200I50800J0D01*
G01*
X170600000Y-90699200D01*
G75*
G02*
X170650800Y-90750000I0J-50800D01*
G01*
X170650800Y-93250000D01*
G75*
G02*
X170600000Y-93300800I-50800J0D01*
G01*
G37*
G36*
G01*
X172600000Y-93300800D02*
X171400000Y-93300800D01*
G75*
G02*
X171349200Y-93250000I0J50800D01*
G01*
X171349200Y-90750000D01*
G75*
G02*
X171400000Y-90699200I50800J0D01*
G01*
X172600000Y-90699200D01*
G75*
G02*
X172650800Y-90750000I0J-50800D01*
G01*
X172650800Y-93250000D01*
G75*
G02*
X172600000Y-93300800I-50800J0D01*
G01*
G37*
G36*
G01*
X174600000Y-93300800D02*
X173400000Y-93300800D01*
G75*
G02*
X173349200Y-93250000I0J50800D01*
G01*
X173349200Y-90750000D01*
G75*
G02*
X173400000Y-90699200I50800J0D01*
G01*
X174600000Y-90699200D01*
G75*
G02*
X174650800Y-90750000I0J-50800D01*
G01*
X174650800Y-93250000D01*
G75*
G02*
X174600000Y-93300800I-50800J0D01*
G01*
G37*
G36*
G01*
X174600000Y-109300800D02*
X173400000Y-109300800D01*
G75*
G02*
X173349200Y-109250000I0J50800D01*
G01*
X173349200Y-106750000D01*
G75*
G02*
X173400000Y-106699200I50800J0D01*
G01*
X174600000Y-106699200D01*
G75*
G02*
X174650800Y-106750000I0J-50800D01*
G01*
X174650800Y-109250000D01*
G75*
G02*
X174600000Y-109300800I-50800J0D01*
G01*
G37*
G36*
G01*
X172600000Y-109300800D02*
X171400000Y-109300800D01*
G75*
G02*
X171349200Y-109250000I0J50800D01*
G01*
X171349200Y-106750000D01*
G75*
G02*
X171400000Y-106699200I50800J0D01*
G01*
X172600000Y-106699200D01*
G75*
G02*
X172650800Y-106750000I0J-50800D01*
G01*
X172650800Y-109250000D01*
G75*
G02*
X172600000Y-109300800I-50800J0D01*
G01*
G37*
G36*
G01*
X170600000Y-109300800D02*
X169400000Y-109300800D01*
G75*
G02*
X169349200Y-109250000I0J50800D01*
G01*
X169349200Y-106750000D01*
G75*
G02*
X169400000Y-106699200I50800J0D01*
G01*
X170600000Y-106699200D01*
G75*
G02*
X170650800Y-106750000I0J-50800D01*
G01*
X170650800Y-109250000D01*
G75*
G02*
X170600000Y-109300800I-50800J0D01*
G01*
G37*
G36*
G01*
X168600000Y-109300800D02*
X167400000Y-109300800D01*
G75*
G02*
X167349200Y-109250000I0J50800D01*
G01*
X167349200Y-106750000D01*
G75*
G02*
X167400000Y-106699200I50800J0D01*
G01*
X168600000Y-106699200D01*
G75*
G02*
X168650800Y-106750000I0J-50800D01*
G01*
X168650800Y-109250000D01*
G75*
G02*
X168600000Y-109300800I-50800J0D01*
G01*
G37*
G36*
G01*
X166600000Y-109300800D02*
X165400000Y-109300800D01*
G75*
G02*
X165349200Y-109250000I0J50800D01*
G01*
X165349200Y-106750000D01*
G75*
G02*
X165400000Y-106699200I50800J0D01*
G01*
X166600000Y-106699200D01*
G75*
G02*
X166650800Y-106750000I0J-50800D01*
G01*
X166650800Y-109250000D01*
G75*
G02*
X166600000Y-109300800I-50800J0D01*
G01*
G37*
G36*
G01*
X164600000Y-109300800D02*
X163400000Y-109300800D01*
G75*
G02*
X163349200Y-109250000I0J50800D01*
G01*
X163349200Y-106750000D01*
G75*
G02*
X163400000Y-106699200I50800J0D01*
G01*
X164600000Y-106699200D01*
G75*
G02*
X164650800Y-106750000I0J-50800D01*
G01*
X164650800Y-109250000D01*
G75*
G02*
X164600000Y-109300800I-50800J0D01*
G01*
G37*
G36*
G01*
X162600000Y-109300800D02*
X161400000Y-109300800D01*
G75*
G02*
X161349200Y-109250000I0J50800D01*
G01*
X161349200Y-106750000D01*
G75*
G02*
X161400000Y-106699200I50800J0D01*
G01*
X162600000Y-106699200D01*
G75*
G02*
X162650800Y-106750000I0J-50800D01*
G01*
X162650800Y-109250000D01*
G75*
G02*
X162600000Y-109300800I-50800J0D01*
G01*
G37*
G36*
G01*
X160600000Y-109300800D02*
X159400000Y-109300800D01*
G75*
G02*
X159349200Y-109250000I0J50800D01*
G01*
X159349200Y-106750000D01*
G75*
G02*
X159400000Y-106699200I50800J0D01*
G01*
X160600000Y-106699200D01*
G75*
G02*
X160650800Y-106750000I0J-50800D01*
G01*
X160650800Y-109250000D01*
G75*
G02*
X160600000Y-109300800I-50800J0D01*
G01*
G37*
D14*
X141110000Y-106277000D03*
X141110000Y-101397000D03*
G36*
G01*
X133142024Y-125511700D02*
X134457976Y-125511700D01*
G75*
G02*
X134725800Y-125779524I0J-267824D01*
G01*
X134725800Y-126770476D01*
G75*
G02*
X134457976Y-127038300I-267824J0D01*
G01*
X133142024Y-127038300D01*
G75*
G02*
X132874200Y-126770476I0J267824D01*
G01*
X132874200Y-125779524D01*
G75*
G02*
X133142024Y-125511700I267824J0D01*
G01*
G37*
G36*
G01*
X133142024Y-122536700D02*
X134457976Y-122536700D01*
G75*
G02*
X134725800Y-122804524I0J-267824D01*
G01*
X134725800Y-123795476D01*
G75*
G02*
X134457976Y-124063300I-267824J0D01*
G01*
X133142024Y-124063300D01*
G75*
G02*
X132874200Y-123795476I0J267824D01*
G01*
X132874200Y-122804524D01*
G75*
G02*
X133142024Y-122536700I267824J0D01*
G01*
G37*
D12*
X155334000Y-127686000D03*
X155334000Y-130226000D03*
X152794000Y-127686000D03*
X152794000Y-130226000D03*
X150254000Y-127686000D03*
X150254000Y-130226000D03*
X147714000Y-127686000D03*
X147714000Y-130226000D03*
X145174000Y-127686000D03*
G36*
G01*
X146024000Y-131126800D02*
X144324000Y-131126800D01*
G75*
G02*
X144273200Y-131076000I0J50800D01*
G01*
X144273200Y-129376000D01*
G75*
G02*
X144324000Y-129325200I50800J0D01*
G01*
X146024000Y-129325200D01*
G75*
G02*
X146074800Y-129376000I0J-50800D01*
G01*
X146074800Y-131076000D01*
G75*
G02*
X146024000Y-131126800I-50800J0D01*
G01*
G37*
D15*
X178550000Y-100000000D03*
G36*
G01*
X178970000Y-97894200D02*
X181170000Y-97894200D01*
G75*
G02*
X181220800Y-97945000I0J-50800D01*
G01*
X181220800Y-98995000D01*
G75*
G02*
X181170000Y-99045800I-50800J0D01*
G01*
X178970000Y-99045800D01*
G75*
G02*
X178919200Y-98995000I0J50800D01*
G01*
X178919200Y-97945000D01*
G75*
G02*
X178970000Y-97894200I50800J0D01*
G01*
G37*
G36*
G01*
X178970000Y-100954200D02*
X181170000Y-100954200D01*
G75*
G02*
X181220800Y-101005000I0J-50800D01*
G01*
X181220800Y-102055000D01*
G75*
G02*
X181170000Y-102105800I-50800J0D01*
G01*
X178970000Y-102105800D01*
G75*
G02*
X178919200Y-102055000I0J50800D01*
G01*
X178919200Y-101005000D01*
G75*
G02*
X178970000Y-100954200I50800J0D01*
G01*
G37*
G36*
G01*
X178968000Y-99187200D02*
X183032000Y-99187200D01*
G75*
G02*
X183082800Y-99238000I0J-50800D01*
G01*
X183082800Y-100762000D01*
G75*
G02*
X183032000Y-100812800I-50800J0D01*
G01*
X178968000Y-100812800D01*
G75*
G02*
X178917200Y-100762000I0J50800D01*
G01*
X178917200Y-99238000D01*
G75*
G02*
X178968000Y-99187200I50800J0D01*
G01*
G37*
G36*
G01*
X178968000Y-96647200D02*
X183032000Y-96647200D01*
G75*
G02*
X183082800Y-96698000I0J-50800D01*
G01*
X183082800Y-98222000D01*
G75*
G02*
X183032000Y-98272800I-50800J0D01*
G01*
X178968000Y-98272800D01*
G75*
G02*
X178917200Y-98222000I0J50800D01*
G01*
X178917200Y-96698000D01*
G75*
G02*
X178968000Y-96647200I50800J0D01*
G01*
G37*
G36*
G01*
X178968000Y-101727200D02*
X183032000Y-101727200D01*
G75*
G02*
X183082800Y-101778000I0J-50800D01*
G01*
X183082800Y-103302000D01*
G75*
G02*
X183032000Y-103352800I-50800J0D01*
G01*
X178968000Y-103352800D01*
G75*
G02*
X178917200Y-103302000I0J50800D01*
G01*
X178917200Y-101778000D01*
G75*
G02*
X178968000Y-101727200I50800J0D01*
G01*
G37*
G36*
G01*
X146600800Y-102525000D02*
X146600800Y-103075000D01*
G75*
G02*
X146550000Y-103125800I-50800J0D01*
G01*
X144950000Y-103125800D01*
G75*
G02*
X144899200Y-103075000I0J50800D01*
G01*
X144899200Y-102525000D01*
G75*
G02*
X144950000Y-102474200I50800J0D01*
G01*
X146550000Y-102474200D01*
G75*
G02*
X146600800Y-102525000I0J-50800D01*
G01*
G37*
G36*
G01*
X146600800Y-101725000D02*
X146600800Y-102275000D01*
G75*
G02*
X146550000Y-102325800I-50800J0D01*
G01*
X144950000Y-102325800D01*
G75*
G02*
X144899200Y-102275000I0J50800D01*
G01*
X144899200Y-101725000D01*
G75*
G02*
X144950000Y-101674200I50800J0D01*
G01*
X146550000Y-101674200D01*
G75*
G02*
X146600800Y-101725000I0J-50800D01*
G01*
G37*
G36*
G01*
X146600800Y-100925000D02*
X146600800Y-101475000D01*
G75*
G02*
X146550000Y-101525800I-50800J0D01*
G01*
X144950000Y-101525800D01*
G75*
G02*
X144899200Y-101475000I0J50800D01*
G01*
X144899200Y-100925000D01*
G75*
G02*
X144950000Y-100874200I50800J0D01*
G01*
X146550000Y-100874200D01*
G75*
G02*
X146600800Y-100925000I0J-50800D01*
G01*
G37*
G36*
G01*
X146600800Y-100125000D02*
X146600800Y-100675000D01*
G75*
G02*
X146550000Y-100725800I-50800J0D01*
G01*
X144950000Y-100725800D01*
G75*
G02*
X144899200Y-100675000I0J50800D01*
G01*
X144899200Y-100125000D01*
G75*
G02*
X144950000Y-100074200I50800J0D01*
G01*
X146550000Y-100074200D01*
G75*
G02*
X146600800Y-100125000I0J-50800D01*
G01*
G37*
G36*
G01*
X146600800Y-99325000D02*
X146600800Y-99875000D01*
G75*
G02*
X146550000Y-99925800I-50800J0D01*
G01*
X144950000Y-99925800D01*
G75*
G02*
X144899200Y-99875000I0J50800D01*
G01*
X144899200Y-99325000D01*
G75*
G02*
X144950000Y-99274200I50800J0D01*
G01*
X146550000Y-99274200D01*
G75*
G02*
X146600800Y-99325000I0J-50800D01*
G01*
G37*
G36*
G01*
X146600800Y-98525000D02*
X146600800Y-99075000D01*
G75*
G02*
X146550000Y-99125800I-50800J0D01*
G01*
X144950000Y-99125800D01*
G75*
G02*
X144899200Y-99075000I0J50800D01*
G01*
X144899200Y-98525000D01*
G75*
G02*
X144950000Y-98474200I50800J0D01*
G01*
X146550000Y-98474200D01*
G75*
G02*
X146600800Y-98525000I0J-50800D01*
G01*
G37*
G36*
G01*
X146600800Y-97725000D02*
X146600800Y-98275000D01*
G75*
G02*
X146550000Y-98325800I-50800J0D01*
G01*
X144950000Y-98325800D01*
G75*
G02*
X144899200Y-98275000I0J50800D01*
G01*
X144899200Y-97725000D01*
G75*
G02*
X144950000Y-97674200I50800J0D01*
G01*
X146550000Y-97674200D01*
G75*
G02*
X146600800Y-97725000I0J-50800D01*
G01*
G37*
G36*
G01*
X146600800Y-96925000D02*
X146600800Y-97475000D01*
G75*
G02*
X146550000Y-97525800I-50800J0D01*
G01*
X144950000Y-97525800D01*
G75*
G02*
X144899200Y-97475000I0J50800D01*
G01*
X144899200Y-96925000D01*
G75*
G02*
X144950000Y-96874200I50800J0D01*
G01*
X146550000Y-96874200D01*
G75*
G02*
X146600800Y-96925000I0J-50800D01*
G01*
G37*
G36*
G01*
X147475000Y-96600800D02*
X146925000Y-96600800D01*
G75*
G02*
X146874200Y-96550000I0J50800D01*
G01*
X146874200Y-94950000D01*
G75*
G02*
X146925000Y-94899200I50800J0D01*
G01*
X147475000Y-94899200D01*
G75*
G02*
X147525800Y-94950000I0J-50800D01*
G01*
X147525800Y-96550000D01*
G75*
G02*
X147475000Y-96600800I-50800J0D01*
G01*
G37*
G36*
G01*
X148275000Y-96600800D02*
X147725000Y-96600800D01*
G75*
G02*
X147674200Y-96550000I0J50800D01*
G01*
X147674200Y-94950000D01*
G75*
G02*
X147725000Y-94899200I50800J0D01*
G01*
X148275000Y-94899200D01*
G75*
G02*
X148325800Y-94950000I0J-50800D01*
G01*
X148325800Y-96550000D01*
G75*
G02*
X148275000Y-96600800I-50800J0D01*
G01*
G37*
G36*
G01*
X149075000Y-96600800D02*
X148525000Y-96600800D01*
G75*
G02*
X148474200Y-96550000I0J50800D01*
G01*
X148474200Y-94950000D01*
G75*
G02*
X148525000Y-94899200I50800J0D01*
G01*
X149075000Y-94899200D01*
G75*
G02*
X149125800Y-94950000I0J-50800D01*
G01*
X149125800Y-96550000D01*
G75*
G02*
X149075000Y-96600800I-50800J0D01*
G01*
G37*
G36*
G01*
X149875000Y-96600800D02*
X149325000Y-96600800D01*
G75*
G02*
X149274200Y-96550000I0J50800D01*
G01*
X149274200Y-94950000D01*
G75*
G02*
X149325000Y-94899200I50800J0D01*
G01*
X149875000Y-94899200D01*
G75*
G02*
X149925800Y-94950000I0J-50800D01*
G01*
X149925800Y-96550000D01*
G75*
G02*
X149875000Y-96600800I-50800J0D01*
G01*
G37*
G36*
G01*
X150675000Y-96600800D02*
X150125000Y-96600800D01*
G75*
G02*
X150074200Y-96550000I0J50800D01*
G01*
X150074200Y-94950000D01*
G75*
G02*
X150125000Y-94899200I50800J0D01*
G01*
X150675000Y-94899200D01*
G75*
G02*
X150725800Y-94950000I0J-50800D01*
G01*
X150725800Y-96550000D01*
G75*
G02*
X150675000Y-96600800I-50800J0D01*
G01*
G37*
G36*
G01*
X151475000Y-96600800D02*
X150925000Y-96600800D01*
G75*
G02*
X150874200Y-96550000I0J50800D01*
G01*
X150874200Y-94950000D01*
G75*
G02*
X150925000Y-94899200I50800J0D01*
G01*
X151475000Y-94899200D01*
G75*
G02*
X151525800Y-94950000I0J-50800D01*
G01*
X151525800Y-96550000D01*
G75*
G02*
X151475000Y-96600800I-50800J0D01*
G01*
G37*
G36*
G01*
X152275000Y-96600800D02*
X151725000Y-96600800D01*
G75*
G02*
X151674200Y-96550000I0J50800D01*
G01*
X151674200Y-94950000D01*
G75*
G02*
X151725000Y-94899200I50800J0D01*
G01*
X152275000Y-94899200D01*
G75*
G02*
X152325800Y-94950000I0J-50800D01*
G01*
X152325800Y-96550000D01*
G75*
G02*
X152275000Y-96600800I-50800J0D01*
G01*
G37*
G36*
G01*
X153075000Y-96600800D02*
X152525000Y-96600800D01*
G75*
G02*
X152474200Y-96550000I0J50800D01*
G01*
X152474200Y-94950000D01*
G75*
G02*
X152525000Y-94899200I50800J0D01*
G01*
X153075000Y-94899200D01*
G75*
G02*
X153125800Y-94950000I0J-50800D01*
G01*
X153125800Y-96550000D01*
G75*
G02*
X153075000Y-96600800I-50800J0D01*
G01*
G37*
G36*
G01*
X155100800Y-96925000D02*
X155100800Y-97475000D01*
G75*
G02*
X155050000Y-97525800I-50800J0D01*
G01*
X153450000Y-97525800D01*
G75*
G02*
X153399200Y-97475000I0J50800D01*
G01*
X153399200Y-96925000D01*
G75*
G02*
X153450000Y-96874200I50800J0D01*
G01*
X155050000Y-96874200D01*
G75*
G02*
X155100800Y-96925000I0J-50800D01*
G01*
G37*
G36*
G01*
X155100800Y-97725000D02*
X155100800Y-98275000D01*
G75*
G02*
X155050000Y-98325800I-50800J0D01*
G01*
X153450000Y-98325800D01*
G75*
G02*
X153399200Y-98275000I0J50800D01*
G01*
X153399200Y-97725000D01*
G75*
G02*
X153450000Y-97674200I50800J0D01*
G01*
X155050000Y-97674200D01*
G75*
G02*
X155100800Y-97725000I0J-50800D01*
G01*
G37*
G36*
G01*
X155100800Y-98525000D02*
X155100800Y-99075000D01*
G75*
G02*
X155050000Y-99125800I-50800J0D01*
G01*
X153450000Y-99125800D01*
G75*
G02*
X153399200Y-99075000I0J50800D01*
G01*
X153399200Y-98525000D01*
G75*
G02*
X153450000Y-98474200I50800J0D01*
G01*
X155050000Y-98474200D01*
G75*
G02*
X155100800Y-98525000I0J-50800D01*
G01*
G37*
G36*
G01*
X155100800Y-99325000D02*
X155100800Y-99875000D01*
G75*
G02*
X155050000Y-99925800I-50800J0D01*
G01*
X153450000Y-99925800D01*
G75*
G02*
X153399200Y-99875000I0J50800D01*
G01*
X153399200Y-99325000D01*
G75*
G02*
X153450000Y-99274200I50800J0D01*
G01*
X155050000Y-99274200D01*
G75*
G02*
X155100800Y-99325000I0J-50800D01*
G01*
G37*
G36*
G01*
X155100800Y-100125000D02*
X155100800Y-100675000D01*
G75*
G02*
X155050000Y-100725800I-50800J0D01*
G01*
X153450000Y-100725800D01*
G75*
G02*
X153399200Y-100675000I0J50800D01*
G01*
X153399200Y-100125000D01*
G75*
G02*
X153450000Y-100074200I50800J0D01*
G01*
X155050000Y-100074200D01*
G75*
G02*
X155100800Y-100125000I0J-50800D01*
G01*
G37*
G36*
G01*
X155100800Y-100925000D02*
X155100800Y-101475000D01*
G75*
G02*
X155050000Y-101525800I-50800J0D01*
G01*
X153450000Y-101525800D01*
G75*
G02*
X153399200Y-101475000I0J50800D01*
G01*
X153399200Y-100925000D01*
G75*
G02*
X153450000Y-100874200I50800J0D01*
G01*
X155050000Y-100874200D01*
G75*
G02*
X155100800Y-100925000I0J-50800D01*
G01*
G37*
G36*
G01*
X155100800Y-101725000D02*
X155100800Y-102275000D01*
G75*
G02*
X155050000Y-102325800I-50800J0D01*
G01*
X153450000Y-102325800D01*
G75*
G02*
X153399200Y-102275000I0J50800D01*
G01*
X153399200Y-101725000D01*
G75*
G02*
X153450000Y-101674200I50800J0D01*
G01*
X155050000Y-101674200D01*
G75*
G02*
X155100800Y-101725000I0J-50800D01*
G01*
G37*
G36*
G01*
X155100800Y-102525000D02*
X155100800Y-103075000D01*
G75*
G02*
X155050000Y-103125800I-50800J0D01*
G01*
X153450000Y-103125800D01*
G75*
G02*
X153399200Y-103075000I0J50800D01*
G01*
X153399200Y-102525000D01*
G75*
G02*
X153450000Y-102474200I50800J0D01*
G01*
X155050000Y-102474200D01*
G75*
G02*
X155100800Y-102525000I0J-50800D01*
G01*
G37*
G36*
G01*
X153075000Y-105100800D02*
X152525000Y-105100800D01*
G75*
G02*
X152474200Y-105050000I0J50800D01*
G01*
X152474200Y-103450000D01*
G75*
G02*
X152525000Y-103399200I50800J0D01*
G01*
X153075000Y-103399200D01*
G75*
G02*
X153125800Y-103450000I0J-50800D01*
G01*
X153125800Y-105050000D01*
G75*
G02*
X153075000Y-105100800I-50800J0D01*
G01*
G37*
G36*
G01*
X152275000Y-105100800D02*
X151725000Y-105100800D01*
G75*
G02*
X151674200Y-105050000I0J50800D01*
G01*
X151674200Y-103450000D01*
G75*
G02*
X151725000Y-103399200I50800J0D01*
G01*
X152275000Y-103399200D01*
G75*
G02*
X152325800Y-103450000I0J-50800D01*
G01*
X152325800Y-105050000D01*
G75*
G02*
X152275000Y-105100800I-50800J0D01*
G01*
G37*
G36*
G01*
X151475000Y-105100800D02*
X150925000Y-105100800D01*
G75*
G02*
X150874200Y-105050000I0J50800D01*
G01*
X150874200Y-103450000D01*
G75*
G02*
X150925000Y-103399200I50800J0D01*
G01*
X151475000Y-103399200D01*
G75*
G02*
X151525800Y-103450000I0J-50800D01*
G01*
X151525800Y-105050000D01*
G75*
G02*
X151475000Y-105100800I-50800J0D01*
G01*
G37*
G36*
G01*
X150675000Y-105100800D02*
X150125000Y-105100800D01*
G75*
G02*
X150074200Y-105050000I0J50800D01*
G01*
X150074200Y-103450000D01*
G75*
G02*
X150125000Y-103399200I50800J0D01*
G01*
X150675000Y-103399200D01*
G75*
G02*
X150725800Y-103450000I0J-50800D01*
G01*
X150725800Y-105050000D01*
G75*
G02*
X150675000Y-105100800I-50800J0D01*
G01*
G37*
G36*
G01*
X149875000Y-105100800D02*
X149325000Y-105100800D01*
G75*
G02*
X149274200Y-105050000I0J50800D01*
G01*
X149274200Y-103450000D01*
G75*
G02*
X149325000Y-103399200I50800J0D01*
G01*
X149875000Y-103399200D01*
G75*
G02*
X149925800Y-103450000I0J-50800D01*
G01*
X149925800Y-105050000D01*
G75*
G02*
X149875000Y-105100800I-50800J0D01*
G01*
G37*
G36*
G01*
X149075000Y-105100800D02*
X148525000Y-105100800D01*
G75*
G02*
X148474200Y-105050000I0J50800D01*
G01*
X148474200Y-103450000D01*
G75*
G02*
X148525000Y-103399200I50800J0D01*
G01*
X149075000Y-103399200D01*
G75*
G02*
X149125800Y-103450000I0J-50800D01*
G01*
X149125800Y-105050000D01*
G75*
G02*
X149075000Y-105100800I-50800J0D01*
G01*
G37*
G36*
G01*
X148275000Y-105100800D02*
X147725000Y-105100800D01*
G75*
G02*
X147674200Y-105050000I0J50800D01*
G01*
X147674200Y-103450000D01*
G75*
G02*
X147725000Y-103399200I50800J0D01*
G01*
X148275000Y-103399200D01*
G75*
G02*
X148325800Y-103450000I0J-50800D01*
G01*
X148325800Y-105050000D01*
G75*
G02*
X148275000Y-105100800I-50800J0D01*
G01*
G37*
G36*
G01*
X147475000Y-105100800D02*
X146925000Y-105100800D01*
G75*
G02*
X146874200Y-105050000I0J50800D01*
G01*
X146874200Y-103450000D01*
G75*
G02*
X146925000Y-103399200I50800J0D01*
G01*
X147475000Y-103399200D01*
G75*
G02*
X147525800Y-103450000I0J-50800D01*
G01*
X147525800Y-105050000D01*
G75*
G02*
X147475000Y-105100800I-50800J0D01*
G01*
G37*
G36*
G01*
X116812500Y-96449200D02*
X118712500Y-96449200D01*
G75*
G02*
X118763300Y-96500000I0J-50800D01*
G01*
X118763300Y-97700000D01*
G75*
G02*
X118712500Y-97750800I-50800J0D01*
G01*
X116812500Y-97750800D01*
G75*
G02*
X116761700Y-97700000I0J50800D01*
G01*
X116761700Y-96500000D01*
G75*
G02*
X116812500Y-96449200I50800J0D01*
G01*
G37*
G36*
G01*
X116812500Y-102249200D02*
X118712500Y-102249200D01*
G75*
G02*
X118763300Y-102300000I0J-50800D01*
G01*
X118763300Y-103500000D01*
G75*
G02*
X118712500Y-103550800I-50800J0D01*
G01*
X116812500Y-103550800D01*
G75*
G02*
X116761700Y-103500000I0J50800D01*
G01*
X116761700Y-102300000D01*
G75*
G02*
X116812500Y-102249200I50800J0D01*
G01*
G37*
D16*
X117762500Y-103500000D03*
X117762500Y-96500000D03*
G36*
G01*
X116812500Y-98199200D02*
X118712500Y-98199200D01*
G75*
G02*
X118763300Y-98250000I0J-50800D01*
G01*
X118763300Y-99750000D01*
G75*
G02*
X118712500Y-99800800I-50800J0D01*
G01*
X116812500Y-99800800D01*
G75*
G02*
X116761700Y-99750000I0J50800D01*
G01*
X116761700Y-98250000D01*
G75*
G02*
X116812500Y-98199200I50800J0D01*
G01*
G37*
D17*
X120462500Y-102500000D03*
G36*
G01*
X119787500Y-99749200D02*
X121137500Y-99749200D01*
G75*
G02*
X121188300Y-99800000I0J-50800D01*
G01*
X121188300Y-100200000D01*
G75*
G02*
X121137500Y-100250800I-50800J0D01*
G01*
X119787500Y-100250800D01*
G75*
G02*
X119736700Y-100200000I0J50800D01*
G01*
X119736700Y-99800000D01*
G75*
G02*
X119787500Y-99749200I50800J0D01*
G01*
G37*
G36*
G01*
X119787500Y-100399200D02*
X121137500Y-100399200D01*
G75*
G02*
X121188300Y-100450000I0J-50800D01*
G01*
X121188300Y-100850000D01*
G75*
G02*
X121137500Y-100900800I-50800J0D01*
G01*
X119787500Y-100900800D01*
G75*
G02*
X119736700Y-100850000I0J50800D01*
G01*
X119736700Y-100450000D01*
G75*
G02*
X119787500Y-100399200I50800J0D01*
G01*
G37*
G36*
G01*
X119787500Y-101049200D02*
X121137500Y-101049200D01*
G75*
G02*
X121188300Y-101100000I0J-50800D01*
G01*
X121188300Y-101500000D01*
G75*
G02*
X121137500Y-101550800I-50800J0D01*
G01*
X119787500Y-101550800D01*
G75*
G02*
X119736700Y-101500000I0J50800D01*
G01*
X119736700Y-101100000D01*
G75*
G02*
X119787500Y-101049200I50800J0D01*
G01*
G37*
G36*
G01*
X119787500Y-98449200D02*
X121137500Y-98449200D01*
G75*
G02*
X121188300Y-98500000I0J-50800D01*
G01*
X121188300Y-98900000D01*
G75*
G02*
X121137500Y-98950800I-50800J0D01*
G01*
X119787500Y-98950800D01*
G75*
G02*
X119736700Y-98900000I0J50800D01*
G01*
X119736700Y-98500000D01*
G75*
G02*
X119787500Y-98449200I50800J0D01*
G01*
G37*
G36*
G01*
X119787500Y-99099200D02*
X121137500Y-99099200D01*
G75*
G02*
X121188300Y-99150000I0J-50800D01*
G01*
X121188300Y-99550000D01*
G75*
G02*
X121137500Y-99600800I-50800J0D01*
G01*
X119787500Y-99600800D01*
G75*
G02*
X119736700Y-99550000I0J50800D01*
G01*
X119736700Y-99150000D01*
G75*
G02*
X119787500Y-99099200I50800J0D01*
G01*
G37*
X120462500Y-97500000D03*
G36*
G01*
X116812500Y-100199200D02*
X118712500Y-100199200D01*
G75*
G02*
X118763300Y-100250000I0J-50800D01*
G01*
X118763300Y-101750000D01*
G75*
G02*
X118712500Y-101800800I-50800J0D01*
G01*
X116812500Y-101800800D01*
G75*
G02*
X116761700Y-101750000I0J50800D01*
G01*
X116761700Y-100250000D01*
G75*
G02*
X116812500Y-100199200I50800J0D01*
G01*
G37*
G36*
G01*
X155750200Y-112087976D02*
X155750200Y-110772024D01*
G75*
G02*
X156018024Y-110504200I267824J0D01*
G01*
X157008976Y-110504200D01*
G75*
G02*
X157276800Y-110772024I0J-267824D01*
G01*
X157276800Y-112087976D01*
G75*
G02*
X157008976Y-112355800I-267824J0D01*
G01*
X156018024Y-112355800D01*
G75*
G02*
X155750200Y-112087976I0J267824D01*
G01*
G37*
G36*
G01*
X158725200Y-112087976D02*
X158725200Y-110772024D01*
G75*
G02*
X158993024Y-110504200I267824J0D01*
G01*
X159983976Y-110504200D01*
G75*
G02*
X160251800Y-110772024I0J-267824D01*
G01*
X160251800Y-112087976D01*
G75*
G02*
X159983976Y-112355800I-267824J0D01*
G01*
X158993024Y-112355800D01*
G75*
G02*
X158725200Y-112087976I0J267824D01*
G01*
G37*
G36*
G01*
X134910800Y-95532024D02*
X134910800Y-96847976D01*
G75*
G02*
X134642976Y-97115800I-267824J0D01*
G01*
X133652024Y-97115800D01*
G75*
G02*
X133384200Y-96847976I0J267824D01*
G01*
X133384200Y-95532024D01*
G75*
G02*
X133652024Y-95264200I267824J0D01*
G01*
X134642976Y-95264200D01*
G75*
G02*
X134910800Y-95532024I0J-267824D01*
G01*
G37*
G36*
G01*
X137885800Y-95532024D02*
X137885800Y-96847976D01*
G75*
G02*
X137617976Y-97115800I-267824J0D01*
G01*
X136627024Y-97115800D01*
G75*
G02*
X136359200Y-96847976I0J267824D01*
G01*
X136359200Y-95532024D01*
G75*
G02*
X136627024Y-95264200I267824J0D01*
G01*
X137617976Y-95264200D01*
G75*
G02*
X137885800Y-95532024I0J-267824D01*
G01*
G37*
G36*
G01*
X122400000Y-106894200D02*
X123700000Y-106894200D01*
G75*
G02*
X123750800Y-106945000I0J-50800D01*
G01*
X123750800Y-108495000D01*
G75*
G02*
X123700000Y-108545800I-50800J0D01*
G01*
X122400000Y-108545800D01*
G75*
G02*
X122349200Y-108495000I0J50800D01*
G01*
X122349200Y-106945000D01*
G75*
G02*
X122400000Y-106894200I50800J0D01*
G01*
G37*
G36*
G01*
X126900000Y-106894200D02*
X128200000Y-106894200D01*
G75*
G02*
X128250800Y-106945000I0J-50800D01*
G01*
X128250800Y-108495000D01*
G75*
G02*
X128200000Y-108545800I-50800J0D01*
G01*
X126900000Y-108545800D01*
G75*
G02*
X126849200Y-108495000I0J50800D01*
G01*
X126849200Y-106945000D01*
G75*
G02*
X126900000Y-106894200I50800J0D01*
G01*
G37*
G36*
G01*
X126900000Y-114854200D02*
X128200000Y-114854200D01*
G75*
G02*
X128250800Y-114905000I0J-50800D01*
G01*
X128250800Y-116455000D01*
G75*
G02*
X128200000Y-116505800I-50800J0D01*
G01*
X126900000Y-116505800D01*
G75*
G02*
X126849200Y-116455000I0J50800D01*
G01*
X126849200Y-114905000D01*
G75*
G02*
X126900000Y-114854200I50800J0D01*
G01*
G37*
G36*
G01*
X122400000Y-114854200D02*
X123700000Y-114854200D01*
G75*
G02*
X123750800Y-114905000I0J-50800D01*
G01*
X123750800Y-116455000D01*
G75*
G02*
X123700000Y-116505800I-50800J0D01*
G01*
X122400000Y-116505800D01*
G75*
G02*
X122349200Y-116455000I0J50800D01*
G01*
X122349200Y-114905000D01*
G75*
G02*
X122400000Y-114854200I50800J0D01*
G01*
G37*
G36*
G01*
X177376200Y-89381841D02*
X177376200Y-87250159D01*
G75*
G02*
X177636159Y-86990200I259959J0D01*
G01*
X179767841Y-86990200D01*
G75*
G02*
X180027800Y-87250159I0J-259959D01*
G01*
X180027800Y-89381841D01*
G75*
G02*
X179767841Y-89641800I-259959J0D01*
G01*
X177636159Y-89641800D01*
G75*
G02*
X177376200Y-89381841I0J259959D01*
G01*
G37*
D11*
G36*
X130799824Y-124709911D02*
G01*
X130796933Y-124719440D01*
X130792239Y-124728223D01*
X130785921Y-124735921D01*
X130778223Y-124742239D01*
X130769440Y-124746933D01*
X130759911Y-124749824D01*
X130750000Y-124750800D01*
X129250000Y-124750800D01*
X129240089Y-124749824D01*
X129230560Y-124746933D01*
X129221777Y-124742239D01*
X129214079Y-124735921D01*
X129207761Y-124728223D01*
X129203067Y-124719440D01*
X129200176Y-124709911D01*
X129199200Y-124700000D01*
X129199200Y-124200000D01*
X129199802Y-124193887D01*
X129199802Y-124175466D01*
X129200047Y-124170486D01*
X129204857Y-124121655D01*
X129205588Y-124116725D01*
X129215160Y-124068600D01*
X129216372Y-124063763D01*
X129230616Y-124016808D01*
X129232295Y-124012115D01*
X129251072Y-123966782D01*
X129253204Y-123962274D01*
X129276335Y-123919001D01*
X129278897Y-123914727D01*
X129306157Y-123873928D01*
X129309127Y-123869923D01*
X129340255Y-123831994D01*
X129343603Y-123828300D01*
X129378300Y-123793603D01*
X129381994Y-123790255D01*
X129419923Y-123759127D01*
X129423928Y-123756157D01*
X129464727Y-123728897D01*
X129469001Y-123726335D01*
X129512274Y-123703204D01*
X129516782Y-123701072D01*
X129562115Y-123682295D01*
X129566808Y-123680616D01*
X129613763Y-123666372D01*
X129618600Y-123665160D01*
X129666725Y-123655588D01*
X129671655Y-123654857D01*
X129720486Y-123650047D01*
X129725466Y-123649802D01*
X129743887Y-123649802D01*
X129750000Y-123649200D01*
X130250000Y-123649200D01*
X130256113Y-123649802D01*
X130274534Y-123649802D01*
X130279514Y-123650047D01*
X130328345Y-123654857D01*
X130333275Y-123655588D01*
X130381400Y-123665160D01*
X130386237Y-123666372D01*
X130433192Y-123680616D01*
X130437885Y-123682295D01*
X130483218Y-123701072D01*
X130487726Y-123703204D01*
X130530999Y-123726335D01*
X130535273Y-123728897D01*
X130576072Y-123756157D01*
X130580077Y-123759127D01*
X130618006Y-123790255D01*
X130621700Y-123793603D01*
X130656397Y-123828300D01*
X130659745Y-123831994D01*
X130690873Y-123869923D01*
X130693843Y-123873928D01*
X130721103Y-123914727D01*
X130723665Y-123919001D01*
X130746796Y-123962274D01*
X130748928Y-123966782D01*
X130767705Y-124012115D01*
X130769384Y-124016808D01*
X130783628Y-124063763D01*
X130784840Y-124068600D01*
X130794412Y-124116725D01*
X130795143Y-124121655D01*
X130799953Y-124170486D01*
X130800198Y-124175466D01*
X130800198Y-124193887D01*
X130800800Y-124200000D01*
X130800800Y-124700000D01*
X130799824Y-124709911D01*
G37*
G36*
X130800198Y-125506113D02*
G01*
X130800198Y-125524534D01*
X130799953Y-125529514D01*
X130795143Y-125578345D01*
X130794412Y-125583275D01*
X130784840Y-125631400D01*
X130783628Y-125636237D01*
X130769384Y-125683192D01*
X130767705Y-125687885D01*
X130748928Y-125733218D01*
X130746796Y-125737726D01*
X130723665Y-125780999D01*
X130721103Y-125785273D01*
X130693843Y-125826072D01*
X130690873Y-125830077D01*
X130659745Y-125868006D01*
X130656397Y-125871700D01*
X130621700Y-125906397D01*
X130618006Y-125909745D01*
X130580077Y-125940873D01*
X130576072Y-125943843D01*
X130535273Y-125971103D01*
X130530999Y-125973665D01*
X130487726Y-125996796D01*
X130483218Y-125998928D01*
X130437885Y-126017705D01*
X130433192Y-126019384D01*
X130386237Y-126033628D01*
X130381400Y-126034840D01*
X130333275Y-126044412D01*
X130328345Y-126045143D01*
X130279514Y-126049953D01*
X130274534Y-126050198D01*
X130256113Y-126050198D01*
X130250000Y-126050800D01*
X129750000Y-126050800D01*
X129743887Y-126050198D01*
X129725466Y-126050198D01*
X129720486Y-126049953D01*
X129671655Y-126045143D01*
X129666725Y-126044412D01*
X129618600Y-126034840D01*
X129613763Y-126033628D01*
X129566808Y-126019384D01*
X129562115Y-126017705D01*
X129516782Y-125998928D01*
X129512274Y-125996796D01*
X129469001Y-125973665D01*
X129464727Y-125971103D01*
X129423928Y-125943843D01*
X129419923Y-125940873D01*
X129381994Y-125909745D01*
X129378300Y-125906397D01*
X129343603Y-125871700D01*
X129340255Y-125868006D01*
X129309127Y-125830077D01*
X129306157Y-125826072D01*
X129278897Y-125785273D01*
X129276335Y-125780999D01*
X129253204Y-125737726D01*
X129251072Y-125733218D01*
X129232295Y-125687885D01*
X129230616Y-125683192D01*
X129216372Y-125636237D01*
X129215160Y-125631400D01*
X129205588Y-125583275D01*
X129204857Y-125578345D01*
X129200047Y-125529514D01*
X129199802Y-125524534D01*
X129199802Y-125506113D01*
X129199200Y-125500000D01*
X129199200Y-125000000D01*
X129200176Y-124990089D01*
X129203067Y-124980560D01*
X129207761Y-124971777D01*
X129214079Y-124964079D01*
X129221777Y-124957761D01*
X129230560Y-124953067D01*
X129240089Y-124950176D01*
X129250000Y-124949200D01*
X130750000Y-124949200D01*
X130759911Y-124950176D01*
X130769440Y-124953067D01*
X130778223Y-124957761D01*
X130785921Y-124964079D01*
X130792239Y-124971777D01*
X130796933Y-124980560D01*
X130799824Y-124990089D01*
X130800800Y-125000000D01*
X130800800Y-125500000D01*
X130800198Y-125506113D01*
G37*
G36*
X129225437Y-124741927D02*
G01*
X129231329Y-124745076D01*
X129240484Y-124747854D01*
X129250094Y-124748800D01*
X130749906Y-124748800D01*
X130759516Y-124747854D01*
X130768671Y-124745076D01*
X130774562Y-124741927D01*
X130776561Y-124741993D01*
X130777504Y-124743756D01*
X130776775Y-124745236D01*
X130775918Y-124745940D01*
X130775759Y-124746058D01*
X130762484Y-124754927D01*
X130745437Y-124771974D01*
X130732042Y-124792021D01*
X130722815Y-124814295D01*
X130718110Y-124837945D01*
X130718110Y-124862051D01*
X130722814Y-124885701D01*
X130732040Y-124907975D01*
X130745434Y-124928023D01*
X130762481Y-124945070D01*
X130775757Y-124953940D01*
X130775915Y-124954057D01*
X130776775Y-124954763D01*
X130777479Y-124956635D01*
X130776210Y-124958181D01*
X130774563Y-124958073D01*
X130768671Y-124954924D01*
X130759516Y-124952146D01*
X130749906Y-124951200D01*
X129250094Y-124951200D01*
X129240484Y-124952146D01*
X129231329Y-124954924D01*
X129225438Y-124958073D01*
X129223439Y-124958007D01*
X129222496Y-124956244D01*
X129223225Y-124954764D01*
X129224082Y-124954060D01*
X129224241Y-124953942D01*
X129237516Y-124945073D01*
X129254563Y-124928026D01*
X129267958Y-124907979D01*
X129277185Y-124885705D01*
X129281890Y-124862055D01*
X129281890Y-124837949D01*
X129277186Y-124814299D01*
X129267960Y-124792025D01*
X129254566Y-124771977D01*
X129237519Y-124754930D01*
X129224243Y-124746060D01*
X129224085Y-124745943D01*
X129223225Y-124745237D01*
X129222521Y-124743365D01*
X129223790Y-124741819D01*
X129225437Y-124741927D01*
G37*
G36*
X152475932Y-103398200D02*
G01*
X152476200Y-103399200D01*
X152476200Y-105100800D01*
X152475200Y-105102532D01*
X152474200Y-105102800D01*
X152325800Y-105102800D01*
X152324068Y-105101800D01*
X152323800Y-105100800D01*
X152323800Y-103401200D01*
X151676200Y-103401200D01*
X151676200Y-105100800D01*
X151675200Y-105102532D01*
X151674200Y-105102800D01*
X151525800Y-105102800D01*
X151524068Y-105101800D01*
X151523800Y-105100800D01*
X151523800Y-103401200D01*
X150876200Y-103401200D01*
X150876200Y-105100800D01*
X150875200Y-105102532D01*
X150874200Y-105102800D01*
X150725800Y-105102800D01*
X150724068Y-105101800D01*
X150723800Y-105100800D01*
X150723800Y-103401200D01*
X150076200Y-103401200D01*
X150076200Y-105100800D01*
X150075200Y-105102532D01*
X150074200Y-105102800D01*
X149925800Y-105102800D01*
X149924068Y-105101800D01*
X149923800Y-105100800D01*
X149923800Y-103401200D01*
X149276200Y-103401200D01*
X149276200Y-105100800D01*
X149275200Y-105102532D01*
X149274200Y-105102800D01*
X149125800Y-105102800D01*
X149124068Y-105101800D01*
X149123800Y-105100800D01*
X149123800Y-103401200D01*
X148476200Y-103401200D01*
X148476200Y-105100800D01*
X148475200Y-105102532D01*
X148474200Y-105102800D01*
X148325800Y-105102800D01*
X148324068Y-105101800D01*
X148323800Y-105100800D01*
X148323800Y-103401200D01*
X147676200Y-103401200D01*
X147676200Y-105100800D01*
X147675200Y-105102532D01*
X147674200Y-105102800D01*
X147525800Y-105102800D01*
X147524068Y-105101800D01*
X147523800Y-105100800D01*
X147523800Y-103399200D01*
X147524800Y-103397468D01*
X147525800Y-103397200D01*
X152474200Y-103397200D01*
X152475932Y-103398200D01*
G37*
G36*
X146602532Y-102324800D02*
G01*
X146602800Y-102325800D01*
X146602800Y-102474200D01*
X146601800Y-102475932D01*
X146600800Y-102476200D01*
X144899200Y-102476200D01*
X144897468Y-102475200D01*
X144897200Y-102474200D01*
X144897200Y-102325800D01*
X144898200Y-102324068D01*
X144899200Y-102323800D01*
X146600800Y-102323800D01*
X146602532Y-102324800D01*
G37*
G36*
X155102532Y-102324800D02*
G01*
X155102800Y-102325800D01*
X155102800Y-102474200D01*
X155101800Y-102475932D01*
X155100800Y-102476200D01*
X153399200Y-102476200D01*
X153397468Y-102475200D01*
X153397200Y-102474200D01*
X153397200Y-102325800D01*
X153398200Y-102324068D01*
X153399200Y-102323800D01*
X155100800Y-102323800D01*
X155102532Y-102324800D01*
G37*
G36*
X120817002Y-101549800D02*
G01*
X120817002Y-101551800D01*
X120815466Y-101552790D01*
X120791279Y-101555172D01*
X120768204Y-101562172D01*
X120746940Y-101573537D01*
X120728303Y-101588832D01*
X120713008Y-101607469D01*
X120701643Y-101628733D01*
X120694643Y-101651808D01*
X120692280Y-101675799D01*
X120694643Y-101699790D01*
X120701643Y-101722865D01*
X120713008Y-101744129D01*
X120728303Y-101762766D01*
X120746940Y-101778061D01*
X120762962Y-101786624D01*
X120764018Y-101788323D01*
X120763075Y-101790086D01*
X120761254Y-101790236D01*
X120687121Y-101759530D01*
X120538343Y-101729936D01*
X120386657Y-101729936D01*
X120237879Y-101759530D01*
X120163746Y-101790236D01*
X120161763Y-101789975D01*
X120160998Y-101788127D01*
X120162038Y-101786624D01*
X120178060Y-101778061D01*
X120196697Y-101762766D01*
X120211992Y-101744129D01*
X120223357Y-101722865D01*
X120230357Y-101699790D01*
X120232720Y-101675799D01*
X120230357Y-101651808D01*
X120223357Y-101628733D01*
X120211992Y-101607469D01*
X120196697Y-101588832D01*
X120178060Y-101573537D01*
X120156796Y-101562172D01*
X120133721Y-101555172D01*
X120109534Y-101552790D01*
X120107908Y-101551625D01*
X120108104Y-101549635D01*
X120109730Y-101548800D01*
X120815270Y-101548800D01*
X120817002Y-101549800D01*
G37*
G36*
X146602532Y-101524800D02*
G01*
X146602800Y-101525800D01*
X146602800Y-101674200D01*
X146601800Y-101675932D01*
X146600800Y-101676200D01*
X144899200Y-101676200D01*
X144897468Y-101675200D01*
X144897200Y-101674200D01*
X144897200Y-101525800D01*
X144898200Y-101524068D01*
X144899200Y-101523800D01*
X146600800Y-101523800D01*
X146602532Y-101524800D01*
G37*
G36*
X155102532Y-101524800D02*
G01*
X155102800Y-101525800D01*
X155102800Y-101674200D01*
X155101800Y-101675932D01*
X155100800Y-101676200D01*
X153399200Y-101676200D01*
X153397468Y-101675200D01*
X153397200Y-101674200D01*
X153397200Y-101525800D01*
X153398200Y-101524068D01*
X153399200Y-101523800D01*
X155100800Y-101523800D01*
X155102532Y-101524800D01*
G37*
G36*
X121190032Y-100899800D02*
G01*
X121190300Y-100900800D01*
X121190300Y-101049200D01*
X121189300Y-101050932D01*
X121188300Y-101051200D01*
X119736700Y-101051200D01*
X119734968Y-101050200D01*
X119734700Y-101049200D01*
X119734700Y-100900800D01*
X119735700Y-100899068D01*
X119736700Y-100898800D01*
X121188300Y-100898800D01*
X121190032Y-100899800D01*
G37*
G36*
X181347531Y-100811800D02*
G01*
X181347531Y-100813800D01*
X181345995Y-100814790D01*
X181321808Y-100817172D01*
X181298733Y-100824172D01*
X181277469Y-100835537D01*
X181258832Y-100850832D01*
X181243537Y-100869469D01*
X181232172Y-100890733D01*
X181225172Y-100913808D01*
X181222800Y-100937893D01*
X181222800Y-100954200D01*
X181221800Y-100955932D01*
X181220800Y-100956200D01*
X178919200Y-100956200D01*
X178917468Y-100955200D01*
X178917200Y-100954200D01*
X178917200Y-100937893D01*
X178915210Y-100917690D01*
X178915200Y-100917494D01*
X178915200Y-100812800D01*
X178916200Y-100811068D01*
X178917200Y-100810800D01*
X181345799Y-100810800D01*
X181347531Y-100811800D01*
G37*
G36*
X155102532Y-100724800D02*
G01*
X155102800Y-100725800D01*
X155102800Y-100874200D01*
X155101800Y-100875932D01*
X155100800Y-100876200D01*
X153399200Y-100876200D01*
X153397468Y-100875200D01*
X153397200Y-100874200D01*
X153397200Y-100725800D01*
X153398200Y-100724068D01*
X153399200Y-100723800D01*
X155100800Y-100723800D01*
X155102532Y-100724800D01*
G37*
G36*
X146602532Y-100724800D02*
G01*
X146602800Y-100725800D01*
X146602800Y-100874200D01*
X146601800Y-100875932D01*
X146600800Y-100876200D01*
X144899200Y-100876200D01*
X144897468Y-100875200D01*
X144897200Y-100874200D01*
X144897200Y-100725800D01*
X144898200Y-100724068D01*
X144899200Y-100723800D01*
X146600800Y-100723800D01*
X146602532Y-100724800D01*
G37*
G36*
X178919200Y-100407998D02*
G01*
X178919200Y-100627634D01*
X178918200Y-100629366D01*
X178916200Y-100629366D01*
X178915210Y-100627830D01*
X178912828Y-100603643D01*
X178905828Y-100580568D01*
X178894463Y-100559304D01*
X178879168Y-100540667D01*
X178860531Y-100525372D01*
X178839267Y-100514007D01*
X178816192Y-100507007D01*
X178792201Y-100504644D01*
X178768210Y-100507007D01*
X178750826Y-100512281D01*
X178748878Y-100511827D01*
X178748297Y-100509913D01*
X178749480Y-100508519D01*
X178808698Y-100483989D01*
X178898150Y-100424220D01*
X178915786Y-100406584D01*
X178917718Y-100406066D01*
X178919200Y-100407998D01*
G37*
G36*
X121190032Y-100249800D02*
G01*
X121190300Y-100250800D01*
X121190300Y-100399200D01*
X121189300Y-100400932D01*
X121188300Y-100401200D01*
X119736700Y-100401200D01*
X119734968Y-100400200D01*
X119734700Y-100399200D01*
X119734700Y-100250800D01*
X119735700Y-100249068D01*
X119736700Y-100248800D01*
X121188300Y-100248800D01*
X121190032Y-100249800D01*
G37*
G36*
X155102532Y-99924800D02*
G01*
X155102800Y-99925800D01*
X155102800Y-100074200D01*
X155101800Y-100075932D01*
X155100800Y-100076200D01*
X153399200Y-100076200D01*
X153397468Y-100075200D01*
X153397200Y-100074200D01*
X153397200Y-99925800D01*
X153398200Y-99924068D01*
X153399200Y-99923800D01*
X155100800Y-99923800D01*
X155102532Y-99924800D01*
G37*
G36*
X146602532Y-99924800D02*
G01*
X146602800Y-99925800D01*
X146602800Y-100074200D01*
X146601800Y-100075932D01*
X146600800Y-100076200D01*
X144899200Y-100076200D01*
X144897468Y-100075200D01*
X144897200Y-100074200D01*
X144897200Y-99925800D01*
X144898200Y-99924068D01*
X144899200Y-99923800D01*
X146600800Y-99923800D01*
X146602532Y-99924800D01*
G37*
G36*
X121190032Y-99599800D02*
G01*
X121190300Y-99600800D01*
X121190300Y-99749200D01*
X121189300Y-99750932D01*
X121188300Y-99751200D01*
X119736700Y-99751200D01*
X119734968Y-99750200D01*
X119734700Y-99749200D01*
X119734700Y-99600800D01*
X119735700Y-99599068D01*
X119736700Y-99598800D01*
X121188300Y-99598800D01*
X121190032Y-99599800D01*
G37*
G36*
X178918365Y-99370740D02*
G01*
X178919200Y-99372366D01*
X178919200Y-99592002D01*
X178918200Y-99593734D01*
X178915786Y-99593416D01*
X178898150Y-99575780D01*
X178808698Y-99516011D01*
X178749480Y-99491481D01*
X178748262Y-99489894D01*
X178749027Y-99488046D01*
X178750826Y-99487719D01*
X178768210Y-99492993D01*
X178792201Y-99495356D01*
X178816192Y-99492993D01*
X178839267Y-99485993D01*
X178860531Y-99474628D01*
X178879168Y-99459333D01*
X178894463Y-99440696D01*
X178905828Y-99419432D01*
X178912828Y-99396357D01*
X178915210Y-99372170D01*
X178916375Y-99370544D01*
X178918365Y-99370740D01*
G37*
G36*
X146602532Y-99124800D02*
G01*
X146602800Y-99125800D01*
X146602800Y-99274200D01*
X146601800Y-99275932D01*
X146600800Y-99276200D01*
X144899200Y-99276200D01*
X144897468Y-99275200D01*
X144897200Y-99274200D01*
X144897200Y-99125800D01*
X144898200Y-99124068D01*
X144899200Y-99123800D01*
X146600800Y-99123800D01*
X146602532Y-99124800D01*
G37*
G36*
X155102532Y-99124800D02*
G01*
X155102800Y-99125800D01*
X155102800Y-99274200D01*
X155101800Y-99275932D01*
X155100800Y-99276200D01*
X153399200Y-99276200D01*
X153397468Y-99275200D01*
X153397200Y-99274200D01*
X153397200Y-99125800D01*
X153398200Y-99124068D01*
X153399200Y-99123800D01*
X155100800Y-99123800D01*
X155102532Y-99124800D01*
G37*
G36*
X181222532Y-99044800D02*
G01*
X181222800Y-99045800D01*
X181222800Y-99062107D01*
X181225172Y-99086192D01*
X181232172Y-99109267D01*
X181243537Y-99130531D01*
X181258832Y-99149168D01*
X181277469Y-99164463D01*
X181298733Y-99175828D01*
X181321808Y-99182828D01*
X181345995Y-99185210D01*
X181347621Y-99186375D01*
X181347425Y-99188365D01*
X181345799Y-99189200D01*
X178917200Y-99189200D01*
X178915468Y-99188200D01*
X178915200Y-99187200D01*
X178915200Y-99082506D01*
X178915210Y-99082310D01*
X178917200Y-99062107D01*
X178917200Y-99045800D01*
X178918200Y-99044068D01*
X178919200Y-99043800D01*
X181220800Y-99043800D01*
X181222532Y-99044800D01*
G37*
G36*
X121190032Y-98949800D02*
G01*
X121190300Y-98950800D01*
X121190300Y-99099200D01*
X121189300Y-99100932D01*
X121188300Y-99101200D01*
X119736700Y-99101200D01*
X119734968Y-99100200D01*
X119734700Y-99099200D01*
X119734700Y-98950800D01*
X119735700Y-98949068D01*
X119736700Y-98948800D01*
X121188300Y-98948800D01*
X121190032Y-98949800D01*
G37*
G36*
X155102532Y-98324800D02*
G01*
X155102800Y-98325800D01*
X155102800Y-98474200D01*
X155101800Y-98475932D01*
X155100800Y-98476200D01*
X153399200Y-98476200D01*
X153397468Y-98475200D01*
X153397200Y-98474200D01*
X153397200Y-98325800D01*
X153398200Y-98324068D01*
X153399200Y-98323800D01*
X155100800Y-98323800D01*
X155102532Y-98324800D01*
G37*
G36*
X146602532Y-98324800D02*
G01*
X146602800Y-98325800D01*
X146602800Y-98474200D01*
X146601800Y-98475932D01*
X146600800Y-98476200D01*
X144899200Y-98476200D01*
X144897468Y-98475200D01*
X144897200Y-98474200D01*
X144897200Y-98325800D01*
X144898200Y-98324068D01*
X144899200Y-98323800D01*
X146600800Y-98323800D01*
X146602532Y-98324800D01*
G37*
G36*
X120763237Y-98210025D02*
G01*
X120764002Y-98211873D01*
X120762962Y-98213376D01*
X120746940Y-98221939D01*
X120728303Y-98237234D01*
X120713008Y-98255871D01*
X120701643Y-98277135D01*
X120694643Y-98300210D01*
X120692280Y-98324201D01*
X120694643Y-98348192D01*
X120701643Y-98371267D01*
X120713008Y-98392531D01*
X120728303Y-98411168D01*
X120746940Y-98426463D01*
X120768204Y-98437828D01*
X120791279Y-98444828D01*
X120815466Y-98447210D01*
X120817092Y-98448375D01*
X120816896Y-98450365D01*
X120815270Y-98451200D01*
X120109730Y-98451200D01*
X120107998Y-98450200D01*
X120107998Y-98448200D01*
X120109534Y-98447210D01*
X120133721Y-98444828D01*
X120156796Y-98437828D01*
X120178060Y-98426463D01*
X120196697Y-98411168D01*
X120211992Y-98392531D01*
X120223357Y-98371267D01*
X120230357Y-98348192D01*
X120232720Y-98324201D01*
X120230357Y-98300210D01*
X120223357Y-98277135D01*
X120211992Y-98255871D01*
X120196697Y-98237234D01*
X120178060Y-98221939D01*
X120162038Y-98213376D01*
X120160982Y-98211677D01*
X120161925Y-98209914D01*
X120163746Y-98209764D01*
X120237879Y-98240470D01*
X120386657Y-98270064D01*
X120538343Y-98270064D01*
X120687121Y-98240470D01*
X120761254Y-98209764D01*
X120763237Y-98210025D01*
G37*
G36*
X155102532Y-97524800D02*
G01*
X155102800Y-97525800D01*
X155102800Y-97674200D01*
X155101800Y-97675932D01*
X155100800Y-97676200D01*
X153399200Y-97676200D01*
X153397468Y-97675200D01*
X153397200Y-97674200D01*
X153397200Y-97525800D01*
X153398200Y-97524068D01*
X153399200Y-97523800D01*
X155100800Y-97523800D01*
X155102532Y-97524800D01*
G37*
G36*
X146602532Y-97524800D02*
G01*
X146602800Y-97525800D01*
X146602800Y-97674200D01*
X146601800Y-97675932D01*
X146600800Y-97676200D01*
X144899200Y-97676200D01*
X144897468Y-97675200D01*
X144897200Y-97674200D01*
X144897200Y-97525800D01*
X144898200Y-97524068D01*
X144899200Y-97523800D01*
X146600800Y-97523800D01*
X146602532Y-97524800D01*
G37*
G36*
X152475932Y-94898200D02*
G01*
X152476200Y-94899200D01*
X152476200Y-96600800D01*
X152475200Y-96602532D01*
X152474200Y-96602800D01*
X152325800Y-96602800D01*
X152324068Y-96601800D01*
X152323800Y-96600800D01*
X152323800Y-94901200D01*
X151676200Y-94901200D01*
X151676200Y-96600800D01*
X151675200Y-96602532D01*
X151674200Y-96602800D01*
X151525800Y-96602800D01*
X151524068Y-96601800D01*
X151523800Y-96600800D01*
X151523800Y-94901200D01*
X150876200Y-94901200D01*
X150876200Y-96600800D01*
X150875200Y-96602532D01*
X150874200Y-96602800D01*
X150725800Y-96602800D01*
X150724068Y-96601800D01*
X150723800Y-96600800D01*
X150723800Y-94901200D01*
X150076200Y-94901200D01*
X150076200Y-96600800D01*
X150075200Y-96602532D01*
X150074200Y-96602800D01*
X149925800Y-96602800D01*
X149924068Y-96601800D01*
X149923800Y-96600800D01*
X149923800Y-94901200D01*
X149276200Y-94901200D01*
X149276200Y-96600800D01*
X149275200Y-96602532D01*
X149274200Y-96602800D01*
X149125800Y-96602800D01*
X149124068Y-96601800D01*
X149123800Y-96600800D01*
X149123800Y-94901200D01*
X148476200Y-94901200D01*
X148476200Y-96600800D01*
X148475200Y-96602532D01*
X148474200Y-96602800D01*
X148325800Y-96602800D01*
X148324068Y-96601800D01*
X148323800Y-96600800D01*
X148323800Y-94901200D01*
X147676200Y-94901200D01*
X147676200Y-96600800D01*
X147675200Y-96602532D01*
X147674200Y-96602800D01*
X147525800Y-96602800D01*
X147524068Y-96601800D01*
X147523800Y-96600800D01*
X147523800Y-94899200D01*
X147524800Y-94897468D01*
X147525800Y-94897200D01*
X152474200Y-94897200D01*
X152475932Y-94898200D01*
G37*
G36*
X177378190Y-89381645D02*
G01*
X177383165Y-89432161D01*
X177397845Y-89480554D01*
X177421682Y-89525150D01*
X177453761Y-89564239D01*
X177492850Y-89596318D01*
X177537446Y-89620155D01*
X177585839Y-89634835D01*
X177636355Y-89639810D01*
X177637981Y-89640975D01*
X177637785Y-89642965D01*
X177636159Y-89643800D01*
X177541810Y-89643800D01*
X177541614Y-89643790D01*
X177504483Y-89640133D01*
X177504098Y-89640057D01*
X177474291Y-89631015D01*
X177473929Y-89630865D01*
X177446470Y-89616188D01*
X177446144Y-89615970D01*
X177422067Y-89596210D01*
X177421790Y-89595933D01*
X177402030Y-89571856D01*
X177401812Y-89571530D01*
X177387135Y-89544071D01*
X177386985Y-89543709D01*
X177377943Y-89513902D01*
X177377867Y-89513517D01*
X177374210Y-89476386D01*
X177374200Y-89476190D01*
X177374200Y-89381841D01*
X177375200Y-89380109D01*
X177377200Y-89380109D01*
X177378190Y-89381645D01*
G37*
G36*
X180028965Y-89380215D02*
G01*
X180029800Y-89381841D01*
X180029800Y-89476190D01*
X180029790Y-89476386D01*
X180026133Y-89513517D01*
X180026057Y-89513902D01*
X180017015Y-89543709D01*
X180016865Y-89544071D01*
X180002188Y-89571530D01*
X180001970Y-89571856D01*
X179982210Y-89595933D01*
X179981933Y-89596210D01*
X179957856Y-89615970D01*
X179957530Y-89616188D01*
X179930071Y-89630865D01*
X179929709Y-89631015D01*
X179899902Y-89640057D01*
X179899517Y-89640133D01*
X179862386Y-89643790D01*
X179862190Y-89643800D01*
X179767841Y-89643800D01*
X179766109Y-89642800D01*
X179766109Y-89640800D01*
X179767645Y-89639810D01*
X179818161Y-89634835D01*
X179866554Y-89620155D01*
X179911150Y-89596318D01*
X179950239Y-89564239D01*
X179982318Y-89525150D01*
X180006155Y-89480554D01*
X180020835Y-89432161D01*
X180025810Y-89381645D01*
X180026975Y-89380019D01*
X180028965Y-89380215D01*
G37*
G36*
X177637891Y-86989200D02*
G01*
X177637891Y-86991200D01*
X177636355Y-86992190D01*
X177585839Y-86997165D01*
X177537446Y-87011845D01*
X177492850Y-87035682D01*
X177453761Y-87067761D01*
X177421682Y-87106850D01*
X177397845Y-87151446D01*
X177383165Y-87199839D01*
X177378190Y-87250355D01*
X177377025Y-87251981D01*
X177375035Y-87251785D01*
X177374200Y-87250159D01*
X177374200Y-87155810D01*
X177374210Y-87155614D01*
X177377867Y-87118483D01*
X177377943Y-87118098D01*
X177386985Y-87088291D01*
X177387135Y-87087929D01*
X177401812Y-87060470D01*
X177402030Y-87060144D01*
X177421790Y-87036067D01*
X177422067Y-87035790D01*
X177446144Y-87016030D01*
X177446470Y-87015812D01*
X177473929Y-87001135D01*
X177474291Y-87000985D01*
X177504098Y-86991943D01*
X177504483Y-86991867D01*
X177541614Y-86988210D01*
X177541810Y-86988200D01*
X177636159Y-86988200D01*
X177637891Y-86989200D01*
G37*
G36*
X179862386Y-86988210D02*
G01*
X179899517Y-86991867D01*
X179899902Y-86991943D01*
X179929709Y-87000985D01*
X179930071Y-87001135D01*
X179957530Y-87015812D01*
X179957856Y-87016030D01*
X179981933Y-87035790D01*
X179982210Y-87036067D01*
X180001970Y-87060144D01*
X180002188Y-87060470D01*
X180016865Y-87087929D01*
X180017015Y-87088291D01*
X180026057Y-87118098D01*
X180026133Y-87118483D01*
X180029790Y-87155614D01*
X180029800Y-87155810D01*
X180029800Y-87250159D01*
X180028800Y-87251891D01*
X180026800Y-87251891D01*
X180025810Y-87250355D01*
X180020835Y-87199839D01*
X180006155Y-87151446D01*
X179982318Y-87106850D01*
X179950239Y-87067761D01*
X179911150Y-87035682D01*
X179866554Y-87011845D01*
X179818161Y-86997165D01*
X179767645Y-86992190D01*
X179766019Y-86991025D01*
X179766215Y-86989035D01*
X179767841Y-86988200D01*
X179862190Y-86988200D01*
X179862386Y-86988210D01*
G37*
G36*
X151125932Y-77168200D02*
G01*
X151126200Y-77169200D01*
X151126200Y-78330800D01*
X151125200Y-78332532D01*
X151124200Y-78332800D01*
X150925800Y-78332800D01*
X150924068Y-78331800D01*
X150923800Y-78330800D01*
X150923800Y-77171200D01*
X150176200Y-77171200D01*
X150176200Y-78330800D01*
X150175200Y-78332532D01*
X150174200Y-78332800D01*
X149975800Y-78332800D01*
X149974068Y-78331800D01*
X149973800Y-78330800D01*
X149973800Y-77169200D01*
X149974800Y-77167468D01*
X149975800Y-77167200D01*
X151124200Y-77167200D01*
X151125932Y-77168200D01*
G37*
G36*
X143695236Y-69723225D02*
G01*
X143695940Y-69724082D01*
X143696058Y-69724241D01*
X143704927Y-69737516D01*
X143721974Y-69754563D01*
X143742021Y-69767958D01*
X143764295Y-69777185D01*
X143787945Y-69781890D01*
X143812051Y-69781890D01*
X143835701Y-69777186D01*
X143857975Y-69767960D01*
X143878023Y-69754566D01*
X143895070Y-69737519D01*
X143903940Y-69724243D01*
X143904057Y-69724085D01*
X143904763Y-69723225D01*
X143906635Y-69722521D01*
X143908181Y-69723790D01*
X143908073Y-69725437D01*
X143904924Y-69731329D01*
X143902146Y-69740484D01*
X143901200Y-69750094D01*
X143901200Y-71249906D01*
X143902146Y-71259516D01*
X143904924Y-71268671D01*
X143908073Y-71274562D01*
X143908007Y-71276561D01*
X143906244Y-71277504D01*
X143904764Y-71276775D01*
X143904060Y-71275918D01*
X143903942Y-71275759D01*
X143895073Y-71262484D01*
X143878026Y-71245437D01*
X143857979Y-71232042D01*
X143835705Y-71222815D01*
X143812055Y-71218110D01*
X143787949Y-71218110D01*
X143764299Y-71222814D01*
X143742025Y-71232040D01*
X143721977Y-71245434D01*
X143704930Y-71262481D01*
X143696060Y-71275757D01*
X143695943Y-71275915D01*
X143695237Y-71276775D01*
X143693365Y-71277479D01*
X143691819Y-71276210D01*
X143691927Y-71274563D01*
X143695076Y-71268671D01*
X143697854Y-71259516D01*
X143698800Y-71249906D01*
X143698800Y-69750094D01*
X143697854Y-69740484D01*
X143695076Y-69731329D01*
X143691927Y-69725438D01*
X143691993Y-69723439D01*
X143693756Y-69722496D01*
X143695236Y-69723225D01*
G37*
M02*
