M48
; DRILL file {KiCad 7.0.0} date Sun 12 Mar 2023 03:47:20 PM EDT
; FORMAT={-:-/ absolute / inch / decimal}
; #@! TF.CreationDate,2023-03-12T15:47:20-04:00
; #@! TF.GenerationSoftware,Kicad,Pcbnew,7.0.0
; #@! TF.FileFunction,Plated,1,2,PTH
FMAT,2
INCH
; #@! TA.AperFunction,Plated,PTH,ViaDrill
T1C0.0157
; #@! TA.AperFunction,Plated,PTH,ComponentDrill
T2C0.0236
; #@! TA.AperFunction,Plated,PTH,ComponentDrill
T3C0.0295
; #@! TA.AperFunction,Plated,PTH,ComponentDrill
T4C0.0335
; #@! TA.AperFunction,Plated,PTH,ComponentDrill
T5C0.0394
; #@! TA.AperFunction,Plated,PTH,ComponentDrill
T6C0.0610
%
G90
G05
T1
X4.8455Y-3.267
X4.8474Y-4.1467
X4.848Y-3.9093
X4.874Y-3.939
X5.0118Y-3.3622
X5.0305Y-3.6437
X5.0394Y-4.1496
X5.1955Y-3.857
X5.1955Y-4.427
X5.2232Y-4.7847
X5.2955Y-4.667
X5.3255Y-3.857
X5.3555Y-4.277
X5.3655Y-3.647
X5.4449Y-3.1909
X5.4449Y-3.4134
X5.4955Y-4.647
X5.5492Y-4.7677
X5.5531Y-3.5157
X5.5755Y-2.907
X5.6443Y-3.8558
X5.6655Y-4.017
X5.6693Y-3.6417
X5.6708Y-3.8972
X5.689Y-3.6811
X5.6955Y-2.867
X5.7255Y-3.227
X5.7355Y-4.107
X5.8159Y-5.2293
X5.8248Y-3.9843
X5.8612Y-3.8962
X5.9242Y-3.847
X5.9626Y-2.9321
X5.97Y-3.9426
X5.9705Y-3.998
X6.0039Y-3.8376
X6.0453Y-4.8071
X6.0455Y-3.217
X6.0472Y-4.6122
X6.0755Y-4.267
X6.1055Y-2.847
X6.2185Y-4.9744
X6.2355Y-4.227
X6.2785Y-5.126
X6.3255Y-2.847
X6.3282Y-3.027
X6.3755Y-4.117
X6.376Y-3.7156
X6.3947Y-3.1585
X6.4555Y-4.097
X6.4685Y-3.4577
X6.5055Y-3.927
X6.5355Y-3.027
X6.6155Y-4.097
X6.7055Y-3.457
X6.7717Y-3.7402
X6.9655Y-3.837
T2
X7.0295Y-3.937
T3
X5.8839Y-2.8307
X5.9626Y-2.8307
T4
X4.7151Y-3.8386
X4.7151Y-4.0354
T5
X5.1955Y-3.3252
X5.1955Y-4.526
X5.2955Y-3.3252
X5.2955Y-4.526
X5.3955Y-3.3252
X5.3955Y-4.526
X5.4955Y-3.3252
X5.4955Y-4.526
X5.5955Y-3.3252
X5.5955Y-4.526
X5.6955Y-3.3252
X5.6955Y-4.526
X5.7155Y-5.027
X5.7155Y-5.127
X5.7955Y-3.3252
X5.7955Y-4.526
X5.8155Y-5.027
X5.8155Y-5.127
X5.8955Y-3.3252
X5.8955Y-4.526
X5.9155Y-5.027
X5.9155Y-5.127
X5.9955Y-3.3252
X5.9955Y-4.526
X6.0155Y-5.027
X6.0155Y-5.127
X6.0955Y-3.3252
X6.0955Y-4.526
X6.1155Y-5.027
X6.1155Y-5.127
X6.1955Y-3.3252
X6.1955Y-4.526
X6.2955Y-3.3252
X6.2955Y-4.526
X6.3955Y-3.3252
X6.3955Y-4.526
X6.4955Y-3.3252
X6.4955Y-4.526
T6
X7.0655Y-3.497
T2
G00X4.595Y-3.7992
M15
G01X4.6225Y-3.7992
M16
G05
G00X4.6225Y-4.0748
M15
G01X4.595Y-4.0748
M16
G05
T0
M30
