M48
; DRILL file {KiCad 5.1.7+dfsg1-1~bpo10+1} date Tue Mar 23 16:44:41 2021
; FORMAT={3:3/ absolute / metric / suppress leading zeros}
; #@! TF.CreationDate,2021-03-23T16:44:41-04:00
; #@! TF.GenerationSoftware,Kicad,Pcbnew,5.1.7+dfsg1-1~bpo10+1
FMAT,2
METRIC,TZ
T1C0.400
T2C0.600
T3C0.750
T4C0.850
T5C1.000
T6C1.550
T7C2.200
%
G90
G05
T1
X121298Y-104064
X123076Y-82982
X123139Y-99297
X123800Y-100050
X127300Y-85400
X127902Y-92634
X128000Y-105400
X131966Y-97968
X131966Y-112446
X132669Y-121531
X134506Y-118542
X135268Y-97968
X136030Y-108636
X136284Y-92634
X138300Y-81050
X138300Y-86700
X139586Y-118034
X140950Y-121100
X141050Y-89300
X141618Y-73838
X143366Y-97938
X143904Y-102032
X144000Y-92500
X144039Y-98988
X144412Y-72822
X144500Y-93500
X145428Y-81204
X145682Y-104318
X147950Y-101200
X148875Y-98963
X150475Y-97714
X151450Y-74780
X151637Y-100141
X151650Y-101550
X152286Y-81204
X153250Y-77600
X153550Y-122100
X153600Y-117150
X154318Y-108382
X158128Y-86538
X158382Y-107366
X160668Y-72314
X161938Y-104572
X163970Y-104064
X165240Y-99746
X166150Y-76850
X166612Y-87910
X168034Y-104064
X170320Y-87808
X172000Y-95000
X176924Y-97460
T2
X178550Y-100000
T3
X149450Y-71900
X151450Y-71900
T4
X119763Y-97500
X119763Y-102500
T5
X145174Y-127686
X145174Y-130226
X147714Y-127686
X147714Y-130226
X150254Y-127686
X150254Y-130226
X152794Y-127686
X152794Y-130226
X155334Y-127686
X155334Y-130226
X131966Y-84460
X134506Y-84460
X137046Y-84460
X139586Y-84460
X142126Y-84460
X144666Y-84460
X147206Y-84460
X149746Y-84460
X152286Y-84460
X154826Y-84460
X157366Y-84460
X159906Y-84460
X162446Y-84460
X164986Y-84460
X131966Y-114961
X134506Y-114961
X137046Y-114961
X139586Y-114961
X142126Y-114961
X144666Y-114961
X147206Y-114961
X149746Y-114961
X152286Y-114961
X154826Y-114961
X157366Y-114961
X159906Y-114961
X162446Y-114961
X164986Y-114961
T6
X179464Y-88824
T7
X170000Y-80000
X130000Y-80000
X170000Y-120000
X130000Y-120000
T2
G00X116713Y-96500
M15
G01X117413Y-96500
M16
G05
G00X117413Y-103500
M15
G01X116713Y-103500
M16
G05
T0
M30
