G04 #@! TF.GenerationSoftware,KiCad,Pcbnew,5.1.9+dfsg1-1~bpo10+1*
G04 #@! TF.CreationDate,2021-07-03T16:16:44-04:00*
G04 #@! TF.ProjectId,board,626f6172-642e-46b6-9963-61645f706362,rev?*
G04 #@! TF.SameCoordinates,Original*
G04 #@! TF.FileFunction,Soldermask,Bot*
G04 #@! TF.FilePolarity,Negative*
%FSLAX46Y46*%
G04 Gerber Fmt 4.6, Leading zero omitted, Abs format (unit mm)*
G04 Created by KiCad (PCBNEW 5.1.9+dfsg1-1~bpo10+1) date 2021-07-03 16:16:44*
%MOMM*%
%LPD*%
G01*
G04 APERTURE LIST*
%ADD10C,2.301600*%
%ADD11O,1.301600X1.851600*%
%ADD12O,1.801600X1.801600*%
%ADD13C,1.101600*%
%ADD14O,2.001600X1.301600*%
%ADD15C,1.551600*%
%ADD16C,0.100000*%
G04 APERTURE END LIST*
D10*
X130000000Y-80000000D03*
D11*
X149450000Y-71900000D03*
G36*
G01*
X152100800Y-71245365D02*
X152100800Y-72554635D01*
G75*
G02*
X151829635Y-72825800I-271165J0D01*
G01*
X151070365Y-72825800D01*
G75*
G02*
X150799200Y-72554635I0J271165D01*
G01*
X150799200Y-71245365D01*
G75*
G02*
X151070365Y-70974200I271165J0D01*
G01*
X151829635Y-70974200D01*
G75*
G02*
X152100800Y-71245365I0J-271165D01*
G01*
G37*
D12*
X164986000Y-114960600D03*
X162446000Y-114960600D03*
X159906000Y-114960600D03*
X157366000Y-114960600D03*
X154826000Y-114960600D03*
X152286000Y-114960600D03*
X149746000Y-114960600D03*
X147206000Y-114960600D03*
X144666000Y-114960600D03*
X142126000Y-114960600D03*
X139586000Y-114960600D03*
X137046000Y-114960600D03*
X134506000Y-114960600D03*
G36*
G01*
X132816000Y-115861400D02*
X131116000Y-115861400D01*
G75*
G02*
X131065200Y-115810600I0J50800D01*
G01*
X131065200Y-114110600D01*
G75*
G02*
X131116000Y-114059800I50800J0D01*
G01*
X132816000Y-114059800D01*
G75*
G02*
X132866800Y-114110600I0J-50800D01*
G01*
X132866800Y-115810600D01*
G75*
G02*
X132816000Y-115861400I-50800J0D01*
G01*
G37*
G36*
G01*
X164136000Y-83559200D02*
X165836000Y-83559200D01*
G75*
G02*
X165886800Y-83610000I0J-50800D01*
G01*
X165886800Y-85310000D01*
G75*
G02*
X165836000Y-85360800I-50800J0D01*
G01*
X164136000Y-85360800D01*
G75*
G02*
X164085200Y-85310000I0J50800D01*
G01*
X164085200Y-83610000D01*
G75*
G02*
X164136000Y-83559200I50800J0D01*
G01*
G37*
X162446000Y-84460000D03*
X159906000Y-84460000D03*
X157366000Y-84460000D03*
X154826000Y-84460000D03*
X152286000Y-84460000D03*
X149746000Y-84460000D03*
X147206000Y-84460000D03*
X144666000Y-84460000D03*
X142126000Y-84460000D03*
X139586000Y-84460000D03*
X137046000Y-84460000D03*
X134506000Y-84460000D03*
X131966000Y-84460000D03*
D10*
X130000000Y-120000000D03*
X170000000Y-120000000D03*
X170000000Y-80000000D03*
D12*
X155334000Y-127686000D03*
X155334000Y-130226000D03*
X152794000Y-127686000D03*
X152794000Y-130226000D03*
X150254000Y-127686000D03*
X150254000Y-130226000D03*
X147714000Y-127686000D03*
X147714000Y-130226000D03*
X145174000Y-127686000D03*
G36*
G01*
X146024000Y-131126800D02*
X144324000Y-131126800D01*
G75*
G02*
X144273200Y-131076000I0J50800D01*
G01*
X144273200Y-129376000D01*
G75*
G02*
X144324000Y-129325200I50800J0D01*
G01*
X146024000Y-129325200D01*
G75*
G02*
X146074800Y-129376000I0J-50800D01*
G01*
X146074800Y-131076000D01*
G75*
G02*
X146024000Y-131126800I-50800J0D01*
G01*
G37*
D13*
X178550000Y-100000000D03*
G36*
G01*
X178040000Y-99449200D02*
X179090000Y-99449200D01*
G75*
G02*
X179140800Y-99500000I0J-50800D01*
G01*
X179140800Y-100500000D01*
G75*
G02*
X179090000Y-100550800I-50800J0D01*
G01*
X178040000Y-100550800D01*
G75*
G02*
X177989200Y-100500000I0J50800D01*
G01*
X177989200Y-99500000D01*
G75*
G02*
X178040000Y-99449200I50800J0D01*
G01*
G37*
G36*
G01*
X178970000Y-97949200D02*
X181170000Y-97949200D01*
G75*
G02*
X181220800Y-98000000I0J-50800D01*
G01*
X181220800Y-99050000D01*
G75*
G02*
X181170000Y-99100800I-50800J0D01*
G01*
X178970000Y-99100800D01*
G75*
G02*
X178919200Y-99050000I0J50800D01*
G01*
X178919200Y-98000000D01*
G75*
G02*
X178970000Y-97949200I50800J0D01*
G01*
G37*
G36*
G01*
X178970000Y-100899200D02*
X181170000Y-100899200D01*
G75*
G02*
X181220800Y-100950000I0J-50800D01*
G01*
X181220800Y-102000000D01*
G75*
G02*
X181170000Y-102050800I-50800J0D01*
G01*
X178970000Y-102050800D01*
G75*
G02*
X178919200Y-102000000I0J50800D01*
G01*
X178919200Y-100950000D01*
G75*
G02*
X178970000Y-100899200I50800J0D01*
G01*
G37*
G36*
G01*
X178968000Y-96647200D02*
X183032000Y-96647200D01*
G75*
G02*
X183082800Y-96698000I0J-50800D01*
G01*
X183082800Y-98222000D01*
G75*
G02*
X183032000Y-98272800I-50800J0D01*
G01*
X178968000Y-98272800D01*
G75*
G02*
X178917200Y-98222000I0J50800D01*
G01*
X178917200Y-96698000D01*
G75*
G02*
X178968000Y-96647200I50800J0D01*
G01*
G37*
G36*
G01*
X178968000Y-101727200D02*
X183032000Y-101727200D01*
G75*
G02*
X183082800Y-101778000I0J-50800D01*
G01*
X183082800Y-103302000D01*
G75*
G02*
X183032000Y-103352800I-50800J0D01*
G01*
X178968000Y-103352800D01*
G75*
G02*
X178917200Y-103302000I0J50800D01*
G01*
X178917200Y-101778000D01*
G75*
G02*
X178968000Y-101727200I50800J0D01*
G01*
G37*
D14*
X117062500Y-103500000D03*
X117062500Y-96500000D03*
D15*
X119762500Y-102500000D03*
X119762500Y-97500000D03*
G36*
G01*
X178138200Y-89889841D02*
X178138200Y-87758159D01*
G75*
G02*
X178398159Y-87498200I259959J0D01*
G01*
X180529841Y-87498200D01*
G75*
G02*
X180789800Y-87758159I0J-259959D01*
G01*
X180789800Y-89889841D01*
G75*
G02*
X180529841Y-90149800I-259959J0D01*
G01*
X178398159Y-90149800D01*
G75*
G02*
X178138200Y-89889841I0J259959D01*
G01*
G37*
D16*
G36*
X180790965Y-89888215D02*
G01*
X180791800Y-89889841D01*
X180791800Y-89984190D01*
X180791790Y-89984386D01*
X180788133Y-90021517D01*
X180788057Y-90021902D01*
X180779015Y-90051709D01*
X180778865Y-90052071D01*
X180764188Y-90079530D01*
X180763970Y-90079856D01*
X180744210Y-90103933D01*
X180743933Y-90104210D01*
X180719856Y-90123970D01*
X180719530Y-90124188D01*
X180692071Y-90138865D01*
X180691709Y-90139015D01*
X180661902Y-90148057D01*
X180661517Y-90148133D01*
X180624386Y-90151790D01*
X180624190Y-90151800D01*
X180529841Y-90151800D01*
X180528109Y-90150800D01*
X180528109Y-90148800D01*
X180529645Y-90147810D01*
X180580161Y-90142835D01*
X180628554Y-90128155D01*
X180673150Y-90104318D01*
X180712239Y-90072239D01*
X180744318Y-90033150D01*
X180768155Y-89988554D01*
X180782835Y-89940161D01*
X180787810Y-89889645D01*
X180788975Y-89888019D01*
X180790965Y-89888215D01*
G37*
G36*
X178140190Y-89889645D02*
G01*
X178145165Y-89940161D01*
X178159845Y-89988554D01*
X178183682Y-90033150D01*
X178215761Y-90072239D01*
X178254850Y-90104318D01*
X178299446Y-90128155D01*
X178347839Y-90142835D01*
X178398355Y-90147810D01*
X178399981Y-90148975D01*
X178399785Y-90150965D01*
X178398159Y-90151800D01*
X178303810Y-90151800D01*
X178303614Y-90151790D01*
X178266483Y-90148133D01*
X178266098Y-90148057D01*
X178236291Y-90139015D01*
X178235929Y-90138865D01*
X178208470Y-90124188D01*
X178208144Y-90123970D01*
X178184067Y-90104210D01*
X178183790Y-90103933D01*
X178164030Y-90079856D01*
X178163812Y-90079530D01*
X178149135Y-90052071D01*
X178148985Y-90051709D01*
X178139943Y-90021902D01*
X178139867Y-90021517D01*
X178136210Y-89984386D01*
X178136200Y-89984190D01*
X178136200Y-89889841D01*
X178137200Y-89888109D01*
X178139200Y-89888109D01*
X178140190Y-89889645D01*
G37*
G36*
X178399891Y-87497200D02*
G01*
X178399891Y-87499200D01*
X178398355Y-87500190D01*
X178347839Y-87505165D01*
X178299446Y-87519845D01*
X178254850Y-87543682D01*
X178215761Y-87575761D01*
X178183682Y-87614850D01*
X178159845Y-87659446D01*
X178145165Y-87707839D01*
X178140190Y-87758355D01*
X178139025Y-87759981D01*
X178137035Y-87759785D01*
X178136200Y-87758159D01*
X178136200Y-87663810D01*
X178136210Y-87663614D01*
X178139867Y-87626483D01*
X178139943Y-87626098D01*
X178148985Y-87596291D01*
X178149135Y-87595929D01*
X178163812Y-87568470D01*
X178164030Y-87568144D01*
X178183790Y-87544067D01*
X178184067Y-87543790D01*
X178208144Y-87524030D01*
X178208470Y-87523812D01*
X178235929Y-87509135D01*
X178236291Y-87508985D01*
X178266098Y-87499943D01*
X178266483Y-87499867D01*
X178303614Y-87496210D01*
X178303810Y-87496200D01*
X178398159Y-87496200D01*
X178399891Y-87497200D01*
G37*
G36*
X180624386Y-87496210D02*
G01*
X180661517Y-87499867D01*
X180661902Y-87499943D01*
X180691709Y-87508985D01*
X180692071Y-87509135D01*
X180719530Y-87523812D01*
X180719856Y-87524030D01*
X180743933Y-87543790D01*
X180744210Y-87544067D01*
X180763970Y-87568144D01*
X180764188Y-87568470D01*
X180778865Y-87595929D01*
X180779015Y-87596291D01*
X180788057Y-87626098D01*
X180788133Y-87626483D01*
X180791790Y-87663614D01*
X180791800Y-87663810D01*
X180791800Y-87758159D01*
X180790800Y-87759891D01*
X180788800Y-87759891D01*
X180787810Y-87758355D01*
X180782835Y-87707839D01*
X180768155Y-87659446D01*
X180744318Y-87614850D01*
X180712239Y-87575761D01*
X180673150Y-87543682D01*
X180628554Y-87519845D01*
X180580161Y-87505165D01*
X180529645Y-87500190D01*
X180528019Y-87499025D01*
X180528215Y-87497035D01*
X180529841Y-87496200D01*
X180624190Y-87496200D01*
X180624386Y-87496210D01*
G37*
M02*
