G04 #@! TF.GenerationSoftware,KiCad,Pcbnew,5.1.7+dfsg1-1~bpo10+1*
G04 #@! TF.CreationDate,2020-11-29T21:40:07-05:00*
G04 #@! TF.ProjectId,board,626f6172-642e-46b6-9963-61645f706362,rev?*
G04 #@! TF.SameCoordinates,Original*
G04 #@! TF.FileFunction,Paste,Top*
G04 #@! TF.FilePolarity,Positive*
%FSLAX46Y46*%
G04 Gerber Fmt 4.6, Leading zero omitted, Abs format (unit mm)*
G04 Created by KiCad (PCBNEW 5.1.7+dfsg1-1~bpo10+1) date 2020-11-29 21:40:07*
%MOMM*%
%LPD*%
G01*
G04 APERTURE LIST*
%ADD10R,0.650000X1.060000*%
%ADD11R,0.900000X0.800000*%
%ADD12R,1.900000X0.800000*%
%ADD13R,1.200000X2.500000*%
%ADD14R,2.200000X1.050000*%
%ADD15R,4.064000X1.524000*%
%ADD16R,1.600000X0.550000*%
%ADD17R,0.550000X1.600000*%
%ADD18R,1.900000X1.500000*%
%ADD19R,1.350000X0.400000*%
%ADD20R,1.300000X1.550000*%
G04 APERTURE END LIST*
D10*
X151500000Y-79950000D03*
X149600000Y-79950000D03*
X149600000Y-77750000D03*
X150550000Y-77750000D03*
X151500000Y-77750000D03*
G36*
G01*
X155999500Y-75950000D02*
X154749500Y-75950000D01*
G75*
G02*
X154499500Y-75700000I0J250000D01*
G01*
X154499500Y-74900000D01*
G75*
G02*
X154749500Y-74650000I250000J0D01*
G01*
X155999500Y-74650000D01*
G75*
G02*
X156249500Y-74900000I0J-250000D01*
G01*
X156249500Y-75700000D01*
G75*
G02*
X155999500Y-75950000I-250000J0D01*
G01*
G37*
G36*
G01*
X155999500Y-79050000D02*
X154749500Y-79050000D01*
G75*
G02*
X154499500Y-78800000I0J250000D01*
G01*
X154499500Y-78000000D01*
G75*
G02*
X154749500Y-77750000I250000J0D01*
G01*
X155999500Y-77750000D01*
G75*
G02*
X156249500Y-78000000I0J-250000D01*
G01*
X156249500Y-78800000D01*
G75*
G02*
X155999500Y-79050000I-250000J0D01*
G01*
G37*
G36*
G01*
X158324666Y-77750000D02*
X159574666Y-77750000D01*
G75*
G02*
X159824666Y-78000000I0J-250000D01*
G01*
X159824666Y-78800000D01*
G75*
G02*
X159574666Y-79050000I-250000J0D01*
G01*
X158324666Y-79050000D01*
G75*
G02*
X158074666Y-78800000I0J250000D01*
G01*
X158074666Y-78000000D01*
G75*
G02*
X158324666Y-77750000I250000J0D01*
G01*
G37*
G36*
G01*
X158324666Y-74650000D02*
X159574666Y-74650000D01*
G75*
G02*
X159824666Y-74900000I0J-250000D01*
G01*
X159824666Y-75700000D01*
G75*
G02*
X159574666Y-75950000I-250000J0D01*
G01*
X158324666Y-75950000D01*
G75*
G02*
X158074666Y-75700000I0J250000D01*
G01*
X158074666Y-74900000D01*
G75*
G02*
X158324666Y-74650000I250000J0D01*
G01*
G37*
G36*
G01*
X161899832Y-77750000D02*
X163149832Y-77750000D01*
G75*
G02*
X163399832Y-78000000I0J-250000D01*
G01*
X163399832Y-78800000D01*
G75*
G02*
X163149832Y-79050000I-250000J0D01*
G01*
X161899832Y-79050000D01*
G75*
G02*
X161649832Y-78800000I0J250000D01*
G01*
X161649832Y-78000000D01*
G75*
G02*
X161899832Y-77750000I250000J0D01*
G01*
G37*
G36*
G01*
X161899832Y-74650000D02*
X163149832Y-74650000D01*
G75*
G02*
X163399832Y-74900000I0J-250000D01*
G01*
X163399832Y-75700000D01*
G75*
G02*
X163149832Y-75950000I-250000J0D01*
G01*
X161899832Y-75950000D01*
G75*
G02*
X161649832Y-75700000I0J250000D01*
G01*
X161649832Y-74900000D01*
G75*
G02*
X161899832Y-74650000I250000J0D01*
G01*
G37*
G36*
G01*
X166725000Y-75950000D02*
X165475000Y-75950000D01*
G75*
G02*
X165225000Y-75700000I0J250000D01*
G01*
X165225000Y-74900000D01*
G75*
G02*
X165475000Y-74650000I250000J0D01*
G01*
X166725000Y-74650000D01*
G75*
G02*
X166975000Y-74900000I0J-250000D01*
G01*
X166975000Y-75700000D01*
G75*
G02*
X166725000Y-75950000I-250000J0D01*
G01*
G37*
G36*
G01*
X166725000Y-79050000D02*
X165475000Y-79050000D01*
G75*
G02*
X165225000Y-78800000I0J250000D01*
G01*
X165225000Y-78000000D01*
G75*
G02*
X165475000Y-77750000I250000J0D01*
G01*
X166725000Y-77750000D01*
G75*
G02*
X166975000Y-78000000I0J-250000D01*
G01*
X166975000Y-78800000D01*
G75*
G02*
X166725000Y-79050000I-250000J0D01*
G01*
G37*
G36*
G01*
X136712500Y-93513000D02*
X136712500Y-92263000D01*
G75*
G02*
X136962500Y-92013000I250000J0D01*
G01*
X137762500Y-92013000D01*
G75*
G02*
X138012500Y-92263000I0J-250000D01*
G01*
X138012500Y-93513000D01*
G75*
G02*
X137762500Y-93763000I-250000J0D01*
G01*
X136962500Y-93763000D01*
G75*
G02*
X136712500Y-93513000I0J250000D01*
G01*
G37*
G36*
G01*
X133612500Y-93513000D02*
X133612500Y-92263000D01*
G75*
G02*
X133862500Y-92013000I250000J0D01*
G01*
X134662500Y-92013000D01*
G75*
G02*
X134912500Y-92263000I0J-250000D01*
G01*
X134912500Y-93513000D01*
G75*
G02*
X134662500Y-93763000I-250000J0D01*
G01*
X133862500Y-93763000D01*
G75*
G02*
X133612500Y-93513000I0J250000D01*
G01*
G37*
G36*
G01*
X138075000Y-123865000D02*
X136825000Y-123865000D01*
G75*
G02*
X136575000Y-123615000I0J250000D01*
G01*
X136575000Y-122815000D01*
G75*
G02*
X136825000Y-122565000I250000J0D01*
G01*
X138075000Y-122565000D01*
G75*
G02*
X138325000Y-122815000I0J-250000D01*
G01*
X138325000Y-123615000D01*
G75*
G02*
X138075000Y-123865000I-250000J0D01*
G01*
G37*
G36*
G01*
X138075000Y-126965000D02*
X136825000Y-126965000D01*
G75*
G02*
X136575000Y-126715000I0J250000D01*
G01*
X136575000Y-125915000D01*
G75*
G02*
X136825000Y-125665000I250000J0D01*
G01*
X138075000Y-125665000D01*
G75*
G02*
X138325000Y-125915000I0J-250000D01*
G01*
X138325000Y-126715000D01*
G75*
G02*
X138075000Y-126965000I-250000J0D01*
G01*
G37*
G36*
G01*
X147348000Y-108519000D02*
X147348000Y-109769000D01*
G75*
G02*
X147098000Y-110019000I-250000J0D01*
G01*
X146298000Y-110019000D01*
G75*
G02*
X146048000Y-109769000I0J250000D01*
G01*
X146048000Y-108519000D01*
G75*
G02*
X146298000Y-108269000I250000J0D01*
G01*
X147098000Y-108269000D01*
G75*
G02*
X147348000Y-108519000I0J-250000D01*
G01*
G37*
G36*
G01*
X150448000Y-108519000D02*
X150448000Y-109769000D01*
G75*
G02*
X150198000Y-110019000I-250000J0D01*
G01*
X149398000Y-110019000D01*
G75*
G02*
X149148000Y-109769000I0J250000D01*
G01*
X149148000Y-108519000D01*
G75*
G02*
X149398000Y-108269000I250000J0D01*
G01*
X150198000Y-108269000D01*
G75*
G02*
X150448000Y-108519000I0J-250000D01*
G01*
G37*
G36*
G01*
X137425000Y-77750000D02*
X138675000Y-77750000D01*
G75*
G02*
X138925000Y-78000000I0J-250000D01*
G01*
X138925000Y-78800000D01*
G75*
G02*
X138675000Y-79050000I-250000J0D01*
G01*
X137425000Y-79050000D01*
G75*
G02*
X137175000Y-78800000I0J250000D01*
G01*
X137175000Y-78000000D01*
G75*
G02*
X137425000Y-77750000I250000J0D01*
G01*
G37*
G36*
G01*
X137425000Y-74650000D02*
X138675000Y-74650000D01*
G75*
G02*
X138925000Y-74900000I0J-250000D01*
G01*
X138925000Y-75700000D01*
G75*
G02*
X138675000Y-75950000I-250000J0D01*
G01*
X137425000Y-75950000D01*
G75*
G02*
X137175000Y-75700000I0J250000D01*
G01*
X137175000Y-74900000D01*
G75*
G02*
X137425000Y-74650000I250000J0D01*
G01*
G37*
G36*
G01*
X164175000Y-123865000D02*
X162925000Y-123865000D01*
G75*
G02*
X162675000Y-123615000I0J250000D01*
G01*
X162675000Y-122815000D01*
G75*
G02*
X162925000Y-122565000I250000J0D01*
G01*
X164175000Y-122565000D01*
G75*
G02*
X164425000Y-122815000I0J-250000D01*
G01*
X164425000Y-123615000D01*
G75*
G02*
X164175000Y-123865000I-250000J0D01*
G01*
G37*
G36*
G01*
X164175000Y-126965000D02*
X162925000Y-126965000D01*
G75*
G02*
X162675000Y-126715000I0J250000D01*
G01*
X162675000Y-125915000D01*
G75*
G02*
X162925000Y-125665000I250000J0D01*
G01*
X164175000Y-125665000D01*
G75*
G02*
X164425000Y-125915000I0J-250000D01*
G01*
X164425000Y-126715000D01*
G75*
G02*
X164175000Y-126965000I-250000J0D01*
G01*
G37*
G36*
G01*
X141675000Y-123865000D02*
X140425000Y-123865000D01*
G75*
G02*
X140175000Y-123615000I0J250000D01*
G01*
X140175000Y-122815000D01*
G75*
G02*
X140425000Y-122565000I250000J0D01*
G01*
X141675000Y-122565000D01*
G75*
G02*
X141925000Y-122815000I0J-250000D01*
G01*
X141925000Y-123615000D01*
G75*
G02*
X141675000Y-123865000I-250000J0D01*
G01*
G37*
G36*
G01*
X141675000Y-126965000D02*
X140425000Y-126965000D01*
G75*
G02*
X140175000Y-126715000I0J250000D01*
G01*
X140175000Y-125915000D01*
G75*
G02*
X140425000Y-125665000I250000J0D01*
G01*
X141675000Y-125665000D01*
G75*
G02*
X141925000Y-125915000I0J-250000D01*
G01*
X141925000Y-126715000D01*
G75*
G02*
X141675000Y-126965000I-250000J0D01*
G01*
G37*
D11*
X132850000Y-76950000D03*
X134850000Y-76000000D03*
X134850000Y-77900000D03*
G36*
G01*
X156625000Y-70075000D02*
X156625000Y-71325000D01*
G75*
G02*
X156375000Y-71575000I-250000J0D01*
G01*
X155450000Y-71575000D01*
G75*
G02*
X155200000Y-71325000I0J250000D01*
G01*
X155200000Y-70075000D01*
G75*
G02*
X155450000Y-69825000I250000J0D01*
G01*
X156375000Y-69825000D01*
G75*
G02*
X156625000Y-70075000I0J-250000D01*
G01*
G37*
G36*
G01*
X159600000Y-70075000D02*
X159600000Y-71325000D01*
G75*
G02*
X159350000Y-71575000I-250000J0D01*
G01*
X158425000Y-71575000D01*
G75*
G02*
X158175000Y-71325000I0J250000D01*
G01*
X158175000Y-70075000D01*
G75*
G02*
X158425000Y-69825000I250000J0D01*
G01*
X159350000Y-69825000D01*
G75*
G02*
X159600000Y-70075000I0J-250000D01*
G01*
G37*
G36*
G01*
X141085000Y-77647500D02*
X142335000Y-77647500D01*
G75*
G02*
X142585000Y-77897500I0J-250000D01*
G01*
X142585000Y-78822500D01*
G75*
G02*
X142335000Y-79072500I-250000J0D01*
G01*
X141085000Y-79072500D01*
G75*
G02*
X140835000Y-78822500I0J250000D01*
G01*
X140835000Y-77897500D01*
G75*
G02*
X141085000Y-77647500I250000J0D01*
G01*
G37*
G36*
G01*
X141085000Y-74672500D02*
X142335000Y-74672500D01*
G75*
G02*
X142585000Y-74922500I0J-250000D01*
G01*
X142585000Y-75847500D01*
G75*
G02*
X142335000Y-76097500I-250000J0D01*
G01*
X141085000Y-76097500D01*
G75*
G02*
X140835000Y-75847500I0J250000D01*
G01*
X140835000Y-74922500D01*
G75*
G02*
X141085000Y-74672500I250000J0D01*
G01*
G37*
G36*
G01*
X130364500Y-103825001D02*
X130364500Y-102524999D01*
G75*
G02*
X130614499Y-102275000I249999J0D01*
G01*
X131439501Y-102275000D01*
G75*
G02*
X131689500Y-102524999I0J-249999D01*
G01*
X131689500Y-103825001D01*
G75*
G02*
X131439501Y-104075000I-249999J0D01*
G01*
X130614499Y-104075000D01*
G75*
G02*
X130364500Y-103825001I0J249999D01*
G01*
G37*
G36*
G01*
X127239500Y-103825001D02*
X127239500Y-102524999D01*
G75*
G02*
X127489499Y-102275000I249999J0D01*
G01*
X128314501Y-102275000D01*
G75*
G02*
X128564500Y-102524999I0J-249999D01*
G01*
X128564500Y-103825001D01*
G75*
G02*
X128314501Y-104075000I-249999J0D01*
G01*
X127489499Y-104075000D01*
G75*
G02*
X127239500Y-103825001I0J249999D01*
G01*
G37*
G36*
G01*
X134658500Y-99095999D02*
X134658500Y-100396001D01*
G75*
G02*
X134408501Y-100646000I-249999J0D01*
G01*
X133583499Y-100646000D01*
G75*
G02*
X133333500Y-100396001I0J249999D01*
G01*
X133333500Y-99095999D01*
G75*
G02*
X133583499Y-98846000I249999J0D01*
G01*
X134408501Y-98846000D01*
G75*
G02*
X134658500Y-99095999I0J-249999D01*
G01*
G37*
G36*
G01*
X137783500Y-99095999D02*
X137783500Y-100396001D01*
G75*
G02*
X137533501Y-100646000I-249999J0D01*
G01*
X136708499Y-100646000D01*
G75*
G02*
X136458500Y-100396001I0J249999D01*
G01*
X136458500Y-99095999D01*
G75*
G02*
X136708499Y-98846000I249999J0D01*
G01*
X137533501Y-98846000D01*
G75*
G02*
X137783500Y-99095999I0J-249999D01*
G01*
G37*
G36*
G01*
X130362500Y-100396001D02*
X130362500Y-99095999D01*
G75*
G02*
X130612499Y-98846000I249999J0D01*
G01*
X131437501Y-98846000D01*
G75*
G02*
X131687500Y-99095999I0J-249999D01*
G01*
X131687500Y-100396001D01*
G75*
G02*
X131437501Y-100646000I-249999J0D01*
G01*
X130612499Y-100646000D01*
G75*
G02*
X130362500Y-100396001I0J249999D01*
G01*
G37*
G36*
G01*
X127237500Y-100396001D02*
X127237500Y-99095999D01*
G75*
G02*
X127487499Y-98846000I249999J0D01*
G01*
X128312501Y-98846000D01*
G75*
G02*
X128562500Y-99095999I0J-249999D01*
G01*
X128562500Y-100396001D01*
G75*
G02*
X128312501Y-100646000I-249999J0D01*
G01*
X127487499Y-100646000D01*
G75*
G02*
X127237500Y-100396001I0J249999D01*
G01*
G37*
G36*
G01*
X155826999Y-107975500D02*
X157127001Y-107975500D01*
G75*
G02*
X157377000Y-108225499I0J-249999D01*
G01*
X157377000Y-109050501D01*
G75*
G02*
X157127001Y-109300500I-249999J0D01*
G01*
X155826999Y-109300500D01*
G75*
G02*
X155577000Y-109050501I0J249999D01*
G01*
X155577000Y-108225499D01*
G75*
G02*
X155826999Y-107975500I249999J0D01*
G01*
G37*
G36*
G01*
X155826999Y-104850500D02*
X157127001Y-104850500D01*
G75*
G02*
X157377000Y-105100499I0J-249999D01*
G01*
X157377000Y-105925501D01*
G75*
G02*
X157127001Y-106175500I-249999J0D01*
G01*
X155826999Y-106175500D01*
G75*
G02*
X155577000Y-105925501I0J249999D01*
G01*
X155577000Y-105100499D01*
G75*
G02*
X155826999Y-104850500I249999J0D01*
G01*
G37*
G36*
G01*
X130362500Y-96840001D02*
X130362500Y-95539999D01*
G75*
G02*
X130612499Y-95290000I249999J0D01*
G01*
X131437501Y-95290000D01*
G75*
G02*
X131687500Y-95539999I0J-249999D01*
G01*
X131687500Y-96840001D01*
G75*
G02*
X131437501Y-97090000I-249999J0D01*
G01*
X130612499Y-97090000D01*
G75*
G02*
X130362500Y-96840001I0J249999D01*
G01*
G37*
G36*
G01*
X127237500Y-96840001D02*
X127237500Y-95539999D01*
G75*
G02*
X127487499Y-95290000I249999J0D01*
G01*
X128312501Y-95290000D01*
G75*
G02*
X128562500Y-95539999I0J-249999D01*
G01*
X128562500Y-96840001D01*
G75*
G02*
X128312501Y-97090000I-249999J0D01*
G01*
X127487499Y-97090000D01*
G75*
G02*
X127237500Y-96840001I0J249999D01*
G01*
G37*
G36*
G01*
X152397999Y-109880500D02*
X153698001Y-109880500D01*
G75*
G02*
X153948000Y-110130499I0J-249999D01*
G01*
X153948000Y-110955501D01*
G75*
G02*
X153698001Y-111205500I-249999J0D01*
G01*
X152397999Y-111205500D01*
G75*
G02*
X152148000Y-110955501I0J249999D01*
G01*
X152148000Y-110130499D01*
G75*
G02*
X152397999Y-109880500I249999J0D01*
G01*
G37*
G36*
G01*
X152397999Y-106755500D02*
X153698001Y-106755500D01*
G75*
G02*
X153948000Y-107005499I0J-249999D01*
G01*
X153948000Y-107830501D01*
G75*
G02*
X153698001Y-108080500I-249999J0D01*
G01*
X152397999Y-108080500D01*
G75*
G02*
X152148000Y-107830501I0J249999D01*
G01*
X152148000Y-107005499D01*
G75*
G02*
X152397999Y-106755500I249999J0D01*
G01*
G37*
G36*
G01*
X136512500Y-107254001D02*
X136512500Y-105953999D01*
G75*
G02*
X136762499Y-105704000I249999J0D01*
G01*
X137587501Y-105704000D01*
G75*
G02*
X137837500Y-105953999I0J-249999D01*
G01*
X137837500Y-107254001D01*
G75*
G02*
X137587501Y-107504000I-249999J0D01*
G01*
X136762499Y-107504000D01*
G75*
G02*
X136512500Y-107254001I0J249999D01*
G01*
G37*
G36*
G01*
X133387500Y-107254001D02*
X133387500Y-105953999D01*
G75*
G02*
X133637499Y-105704000I249999J0D01*
G01*
X134462501Y-105704000D01*
G75*
G02*
X134712500Y-105953999I0J-249999D01*
G01*
X134712500Y-107254001D01*
G75*
G02*
X134462501Y-107504000I-249999J0D01*
G01*
X133637499Y-107504000D01*
G75*
G02*
X133387500Y-107254001I0J249999D01*
G01*
G37*
G36*
G01*
X146050001Y-75950000D02*
X144749999Y-75950000D01*
G75*
G02*
X144500000Y-75700001I0J249999D01*
G01*
X144500000Y-74874999D01*
G75*
G02*
X144749999Y-74625000I249999J0D01*
G01*
X146050001Y-74625000D01*
G75*
G02*
X146300000Y-74874999I0J-249999D01*
G01*
X146300000Y-75700001D01*
G75*
G02*
X146050001Y-75950000I-249999J0D01*
G01*
G37*
G36*
G01*
X146050001Y-79075000D02*
X144749999Y-79075000D01*
G75*
G02*
X144500000Y-78825001I0J249999D01*
G01*
X144500000Y-77999999D01*
G75*
G02*
X144749999Y-77750000I249999J0D01*
G01*
X146050001Y-77750000D01*
G75*
G02*
X146300000Y-77999999I0J-249999D01*
G01*
X146300000Y-78825001D01*
G75*
G02*
X146050001Y-79075000I-249999J0D01*
G01*
G37*
G36*
G01*
X136512500Y-103825001D02*
X136512500Y-102524999D01*
G75*
G02*
X136762499Y-102275000I249999J0D01*
G01*
X137587501Y-102275000D01*
G75*
G02*
X137837500Y-102524999I0J-249999D01*
G01*
X137837500Y-103825001D01*
G75*
G02*
X137587501Y-104075000I-249999J0D01*
G01*
X136762499Y-104075000D01*
G75*
G02*
X136512500Y-103825001I0J249999D01*
G01*
G37*
G36*
G01*
X133387500Y-103825001D02*
X133387500Y-102524999D01*
G75*
G02*
X133637499Y-102275000I249999J0D01*
G01*
X134462501Y-102275000D01*
G75*
G02*
X134712500Y-102524999I0J-249999D01*
G01*
X134712500Y-103825001D01*
G75*
G02*
X134462501Y-104075000I-249999J0D01*
G01*
X133637499Y-104075000D01*
G75*
G02*
X133387500Y-103825001I0J249999D01*
G01*
G37*
G36*
G01*
X134749000Y-109509999D02*
X134749000Y-110810001D01*
G75*
G02*
X134499001Y-111060000I-249999J0D01*
G01*
X133673999Y-111060000D01*
G75*
G02*
X133424000Y-110810001I0J249999D01*
G01*
X133424000Y-109509999D01*
G75*
G02*
X133673999Y-109260000I249999J0D01*
G01*
X134499001Y-109260000D01*
G75*
G02*
X134749000Y-109509999I0J-249999D01*
G01*
G37*
G36*
G01*
X137874000Y-109509999D02*
X137874000Y-110810001D01*
G75*
G02*
X137624001Y-111060000I-249999J0D01*
G01*
X136798999Y-111060000D01*
G75*
G02*
X136549000Y-110810001I0J249999D01*
G01*
X136549000Y-109509999D01*
G75*
G02*
X136798999Y-109260000I249999J0D01*
G01*
X137624001Y-109260000D01*
G75*
G02*
X137874000Y-109509999I0J-249999D01*
G01*
G37*
G36*
G01*
X173796500Y-85156001D02*
X173796500Y-83855999D01*
G75*
G02*
X174046499Y-83606000I249999J0D01*
G01*
X174871501Y-83606000D01*
G75*
G02*
X175121500Y-83855999I0J-249999D01*
G01*
X175121500Y-85156001D01*
G75*
G02*
X174871501Y-85406000I-249999J0D01*
G01*
X174046499Y-85406000D01*
G75*
G02*
X173796500Y-85156001I0J249999D01*
G01*
G37*
G36*
G01*
X170671500Y-85156001D02*
X170671500Y-83855999D01*
G75*
G02*
X170921499Y-83606000I249999J0D01*
G01*
X171746501Y-83606000D01*
G75*
G02*
X171996500Y-83855999I0J-249999D01*
G01*
X171996500Y-85156001D01*
G75*
G02*
X171746501Y-85406000I-249999J0D01*
G01*
X170921499Y-85406000D01*
G75*
G02*
X170671500Y-85156001I0J249999D01*
G01*
G37*
G36*
G01*
X159199999Y-125665000D02*
X160500001Y-125665000D01*
G75*
G02*
X160750000Y-125914999I0J-249999D01*
G01*
X160750000Y-126740001D01*
G75*
G02*
X160500001Y-126990000I-249999J0D01*
G01*
X159199999Y-126990000D01*
G75*
G02*
X158950000Y-126740001I0J249999D01*
G01*
X158950000Y-125914999D01*
G75*
G02*
X159199999Y-125665000I249999J0D01*
G01*
G37*
G36*
G01*
X159199999Y-122540000D02*
X160500001Y-122540000D01*
G75*
G02*
X160750000Y-122789999I0J-249999D01*
G01*
X160750000Y-123615001D01*
G75*
G02*
X160500001Y-123865000I-249999J0D01*
G01*
X159199999Y-123865000D01*
G75*
G02*
X158950000Y-123615001I0J249999D01*
G01*
X158950000Y-122789999D01*
G75*
G02*
X159199999Y-122540000I249999J0D01*
G01*
G37*
G36*
G01*
X130150001Y-89900000D02*
X128849999Y-89900000D01*
G75*
G02*
X128600000Y-89650001I0J249999D01*
G01*
X128600000Y-88824999D01*
G75*
G02*
X128849999Y-88575000I249999J0D01*
G01*
X130150001Y-88575000D01*
G75*
G02*
X130400000Y-88824999I0J-249999D01*
G01*
X130400000Y-89650001D01*
G75*
G02*
X130150001Y-89900000I-249999J0D01*
G01*
G37*
G36*
G01*
X130150001Y-93025000D02*
X128849999Y-93025000D01*
G75*
G02*
X128600000Y-92775001I0J249999D01*
G01*
X128600000Y-91949999D01*
G75*
G02*
X128849999Y-91700000I249999J0D01*
G01*
X130150001Y-91700000D01*
G75*
G02*
X130400000Y-91949999I0J-249999D01*
G01*
X130400000Y-92775001D01*
G75*
G02*
X130150001Y-93025000I-249999J0D01*
G01*
G37*
G36*
G01*
X123014200Y-92314199D02*
X123014200Y-93614201D01*
G75*
G02*
X122764201Y-93864200I-249999J0D01*
G01*
X121939199Y-93864200D01*
G75*
G02*
X121689200Y-93614201I0J249999D01*
G01*
X121689200Y-92314199D01*
G75*
G02*
X121939199Y-92064200I249999J0D01*
G01*
X122764201Y-92064200D01*
G75*
G02*
X123014200Y-92314199I0J-249999D01*
G01*
G37*
G36*
G01*
X126139200Y-92314199D02*
X126139200Y-93614201D01*
G75*
G02*
X125889201Y-93864200I-249999J0D01*
G01*
X125064199Y-93864200D01*
G75*
G02*
X124814200Y-93614201I0J249999D01*
G01*
X124814200Y-92314199D01*
G75*
G02*
X125064199Y-92064200I249999J0D01*
G01*
X125889201Y-92064200D01*
G75*
G02*
X126139200Y-92314199I0J-249999D01*
G01*
G37*
D12*
X125418000Y-88796000D03*
X122418000Y-89746000D03*
X122418000Y-87846000D03*
D13*
X160000000Y-92000000D03*
X162000000Y-92000000D03*
X164000000Y-92000000D03*
X166000000Y-92000000D03*
X168000000Y-92000000D03*
X170000000Y-92000000D03*
X172000000Y-92000000D03*
X174000000Y-92000000D03*
X174000000Y-108000000D03*
X172000000Y-108000000D03*
X170000000Y-108000000D03*
X168000000Y-108000000D03*
X166000000Y-108000000D03*
X164000000Y-108000000D03*
X162000000Y-108000000D03*
X160000000Y-108000000D03*
G36*
G01*
X133175000Y-125562500D02*
X134425000Y-125562500D01*
G75*
G02*
X134675000Y-125812500I0J-250000D01*
G01*
X134675000Y-126737500D01*
G75*
G02*
X134425000Y-126987500I-250000J0D01*
G01*
X133175000Y-126987500D01*
G75*
G02*
X132925000Y-126737500I0J250000D01*
G01*
X132925000Y-125812500D01*
G75*
G02*
X133175000Y-125562500I250000J0D01*
G01*
G37*
G36*
G01*
X133175000Y-122587500D02*
X134425000Y-122587500D01*
G75*
G02*
X134675000Y-122837500I0J-250000D01*
G01*
X134675000Y-123762500D01*
G75*
G02*
X134425000Y-124012500I-250000J0D01*
G01*
X133175000Y-124012500D01*
G75*
G02*
X132925000Y-123762500I0J250000D01*
G01*
X132925000Y-122837500D01*
G75*
G02*
X133175000Y-122587500I250000J0D01*
G01*
G37*
D14*
X180070000Y-98470000D03*
X180070000Y-101530000D03*
D15*
X181000000Y-100000000D03*
X181000000Y-97460000D03*
X181000000Y-102540000D03*
D16*
X145750000Y-102800000D03*
X145750000Y-102000000D03*
X145750000Y-101200000D03*
X145750000Y-100400000D03*
X145750000Y-99600000D03*
X145750000Y-98800000D03*
X145750000Y-98000000D03*
X145750000Y-97200000D03*
D17*
X147200000Y-95750000D03*
X148000000Y-95750000D03*
X148800000Y-95750000D03*
X149600000Y-95750000D03*
X150400000Y-95750000D03*
X151200000Y-95750000D03*
X152000000Y-95750000D03*
X152800000Y-95750000D03*
D16*
X154250000Y-97200000D03*
X154250000Y-98000000D03*
X154250000Y-98800000D03*
X154250000Y-99600000D03*
X154250000Y-100400000D03*
X154250000Y-101200000D03*
X154250000Y-102000000D03*
X154250000Y-102800000D03*
D17*
X152800000Y-104250000D03*
X152000000Y-104250000D03*
X151200000Y-104250000D03*
X150400000Y-104250000D03*
X149600000Y-104250000D03*
X148800000Y-104250000D03*
X148000000Y-104250000D03*
X147200000Y-104250000D03*
D18*
X117762500Y-99000000D03*
D19*
X120462500Y-100000000D03*
X120462500Y-100650000D03*
X120462500Y-101300000D03*
X120462500Y-98700000D03*
X120462500Y-99350000D03*
D18*
X117762500Y-101000000D03*
G36*
G01*
X155801000Y-112055000D02*
X155801000Y-110805000D01*
G75*
G02*
X156051000Y-110555000I250000J0D01*
G01*
X156976000Y-110555000D01*
G75*
G02*
X157226000Y-110805000I0J-250000D01*
G01*
X157226000Y-112055000D01*
G75*
G02*
X156976000Y-112305000I-250000J0D01*
G01*
X156051000Y-112305000D01*
G75*
G02*
X155801000Y-112055000I0J250000D01*
G01*
G37*
G36*
G01*
X158776000Y-112055000D02*
X158776000Y-110805000D01*
G75*
G02*
X159026000Y-110555000I250000J0D01*
G01*
X159951000Y-110555000D01*
G75*
G02*
X160201000Y-110805000I0J-250000D01*
G01*
X160201000Y-112055000D01*
G75*
G02*
X159951000Y-112305000I-250000J0D01*
G01*
X159026000Y-112305000D01*
G75*
G02*
X158776000Y-112055000I0J250000D01*
G01*
G37*
G36*
G01*
X134860000Y-95565000D02*
X134860000Y-96815000D01*
G75*
G02*
X134610000Y-97065000I-250000J0D01*
G01*
X133685000Y-97065000D01*
G75*
G02*
X133435000Y-96815000I0J250000D01*
G01*
X133435000Y-95565000D01*
G75*
G02*
X133685000Y-95315000I250000J0D01*
G01*
X134610000Y-95315000D01*
G75*
G02*
X134860000Y-95565000I0J-250000D01*
G01*
G37*
G36*
G01*
X137835000Y-95565000D02*
X137835000Y-96815000D01*
G75*
G02*
X137585000Y-97065000I-250000J0D01*
G01*
X136660000Y-97065000D01*
G75*
G02*
X136410000Y-96815000I0J250000D01*
G01*
X136410000Y-95565000D01*
G75*
G02*
X136660000Y-95315000I250000J0D01*
G01*
X137585000Y-95315000D01*
G75*
G02*
X137835000Y-95565000I0J-250000D01*
G01*
G37*
D20*
X123050000Y-107720000D03*
X127550000Y-107720000D03*
X127550000Y-115680000D03*
X123050000Y-115680000D03*
M02*
