G04 #@! TF.GenerationSoftware,KiCad,Pcbnew,5.1.7+dfsg1-1~bpo10+1*
G04 #@! TF.CreationDate,2020-11-29T21:40:07-05:00*
G04 #@! TF.ProjectId,board,626f6172-642e-46b6-9963-61645f706362,rev?*
G04 #@! TF.SameCoordinates,Original*
G04 #@! TF.FileFunction,Copper,L2,Bot*
G04 #@! TF.FilePolarity,Positive*
%FSLAX46Y46*%
G04 Gerber Fmt 4.6, Leading zero omitted, Abs format (unit mm)*
G04 Created by KiCad (PCBNEW 5.1.7+dfsg1-1~bpo10+1) date 2020-11-29 21:40:07*
%MOMM*%
%LPD*%
G01*
G04 APERTURE LIST*
G04 #@! TA.AperFunction,ComponentPad*
%ADD10O,1.200000X1.750000*%
G04 #@! TD*
G04 #@! TA.AperFunction,ComponentPad*
%ADD11O,1.700000X1.700000*%
G04 #@! TD*
G04 #@! TA.AperFunction,ComponentPad*
%ADD12R,1.700000X1.700000*%
G04 #@! TD*
G04 #@! TA.AperFunction,ComponentPad*
%ADD13C,1.500000*%
G04 #@! TD*
G04 #@! TA.AperFunction,ComponentPad*
%ADD14C,1.000000*%
G04 #@! TD*
G04 #@! TA.AperFunction,SMDPad,CuDef*
%ADD15R,1.050000X1.000000*%
G04 #@! TD*
G04 #@! TA.AperFunction,SMDPad,CuDef*
%ADD16R,2.200000X1.050000*%
G04 #@! TD*
G04 #@! TA.AperFunction,SMDPad,CuDef*
%ADD17R,4.064000X1.524000*%
G04 #@! TD*
G04 #@! TA.AperFunction,ComponentPad*
%ADD18O,1.900000X1.200000*%
G04 #@! TD*
G04 #@! TA.AperFunction,ComponentPad*
%ADD19C,1.450000*%
G04 #@! TD*
G04 #@! TA.AperFunction,ViaPad*
%ADD20C,0.800000*%
G04 #@! TD*
G04 #@! TA.AperFunction,Conductor*
%ADD21C,0.250000*%
G04 #@! TD*
G04 #@! TA.AperFunction,Conductor*
%ADD22C,0.254000*%
G04 #@! TD*
G04 #@! TA.AperFunction,Conductor*
%ADD23C,0.100000*%
G04 #@! TD*
G04 APERTURE END LIST*
D10*
X149450000Y-71900000D03*
G04 #@! TA.AperFunction,ComponentPad*
G36*
G01*
X152050000Y-71274999D02*
X152050000Y-72525001D01*
G75*
G02*
X151800001Y-72775000I-249999J0D01*
G01*
X151099999Y-72775000D01*
G75*
G02*
X150850000Y-72525001I0J249999D01*
G01*
X150850000Y-71274999D01*
G75*
G02*
X151099999Y-71025000I249999J0D01*
G01*
X151800001Y-71025000D01*
G75*
G02*
X152050000Y-71274999I0J-249999D01*
G01*
G37*
G04 #@! TD.AperFunction*
D11*
X164986000Y-114960600D03*
X162446000Y-114960600D03*
X159906000Y-114960600D03*
X157366000Y-114960600D03*
X154826000Y-114960600D03*
X152286000Y-114960600D03*
X149746000Y-114960600D03*
X147206000Y-114960600D03*
X144666000Y-114960600D03*
X142126000Y-114960600D03*
X139586000Y-114960600D03*
X137046000Y-114960600D03*
X134506000Y-114960600D03*
D12*
X131966000Y-114960600D03*
X164986000Y-84460000D03*
D11*
X162446000Y-84460000D03*
X159906000Y-84460000D03*
X157366000Y-84460000D03*
X154826000Y-84460000D03*
X152286000Y-84460000D03*
X149746000Y-84460000D03*
X147206000Y-84460000D03*
X144666000Y-84460000D03*
X142126000Y-84460000D03*
X139586000Y-84460000D03*
X137046000Y-84460000D03*
X134506000Y-84460000D03*
X131966000Y-84460000D03*
D13*
X141110000Y-106277000D03*
X141110000Y-101397000D03*
D11*
X155334000Y-127686000D03*
X155334000Y-130226000D03*
X152794000Y-127686000D03*
X152794000Y-130226000D03*
X150254000Y-127686000D03*
X150254000Y-130226000D03*
X147714000Y-127686000D03*
X147714000Y-130226000D03*
X145174000Y-127686000D03*
D12*
X145174000Y-130226000D03*
D14*
X178550000Y-100000000D03*
D15*
X178565000Y-100000000D03*
D16*
X180070000Y-98525000D03*
X180070000Y-101475000D03*
D17*
X181000000Y-97460000D03*
X181000000Y-102540000D03*
D18*
X117762500Y-103500000D03*
X117762500Y-96500000D03*
D19*
X120462500Y-102500000D03*
X120462500Y-97500000D03*
G04 #@! TA.AperFunction,ComponentPad*
G36*
G01*
X177427000Y-89341001D02*
X177427000Y-87290999D01*
G75*
G02*
X177676999Y-87041000I249999J0D01*
G01*
X179727001Y-87041000D01*
G75*
G02*
X179977000Y-87290999I0J-249999D01*
G01*
X179977000Y-89341001D01*
G75*
G02*
X179727001Y-89591000I-249999J0D01*
G01*
X177676999Y-89591000D01*
G75*
G02*
X177427000Y-89341001I0J249999D01*
G01*
G37*
G04 #@! TD.AperFunction*
D20*
X143904000Y-98984000D03*
X176924000Y-97460000D03*
X172000000Y-95000000D03*
X153048000Y-112192000D03*
X131839000Y-97968000D03*
X145325010Y-109906000D03*
X134500000Y-118600000D03*
X122400000Y-91450000D03*
X125500001Y-90100001D03*
X156550000Y-106999998D03*
X155350000Y-73400000D03*
X155350000Y-73400000D03*
X155350000Y-73400000D03*
X155350000Y-73400000D03*
X166612410Y-87909600D03*
X123330000Y-86538000D03*
X153550000Y-122100000D03*
X153600000Y-119000000D03*
X131950000Y-110150000D03*
X128000000Y-105400000D03*
X135650000Y-108300000D03*
X135850001Y-92850000D03*
X134150000Y-98000000D03*
X142634000Y-97714000D03*
X143370600Y-103175000D03*
X140950000Y-121100000D03*
X138050000Y-73800000D03*
X145400000Y-76800000D03*
X132844347Y-78294347D03*
X133800000Y-82050000D03*
X133949999Y-121100000D03*
X138400000Y-117700000D03*
X161938000Y-104572000D03*
X151650000Y-101550000D03*
X144335800Y-104241800D03*
X124600000Y-98984000D03*
X144000000Y-92500000D03*
X125108000Y-100000000D03*
X144499984Y-93500000D03*
X163970000Y-104064000D03*
X151637153Y-100140847D03*
X165240000Y-99746000D03*
X150475000Y-97714000D03*
X168034000Y-104064000D03*
X148875000Y-98962883D03*
X147950000Y-101200000D03*
X140850000Y-88300000D03*
X138250000Y-86575000D03*
X138200000Y-80850000D03*
X153250000Y-77600000D03*
X166150000Y-76850002D03*
D21*
X139840000Y-84206000D02*
X139586000Y-84460000D01*
X180000000Y-97460000D02*
X176924000Y-97460000D01*
X179070000Y-98390000D02*
X180000000Y-97460000D01*
X179070000Y-98525000D02*
X179070000Y-98390000D01*
X180000000Y-102405000D02*
X179070000Y-101475000D01*
X180000000Y-102540000D02*
X180000000Y-102405000D01*
X176924000Y-97460000D02*
X174460000Y-97460000D01*
X174460000Y-97460000D02*
X172000000Y-95000000D01*
X176924000Y-97460000D02*
X176924000Y-100924000D01*
X178540000Y-102540000D02*
X181000000Y-102540000D01*
X176924000Y-100924000D02*
X178540000Y-102540000D01*
X164986000Y-114960600D02*
X162954000Y-116992600D01*
X134506000Y-118594000D02*
X134500000Y-118600000D01*
X134506000Y-114960600D02*
X134506000Y-118594000D01*
X122400000Y-91450000D02*
X123749999Y-90100001D01*
X123749999Y-90100001D02*
X125500001Y-90100001D01*
X166002810Y-87300000D02*
X166612410Y-87909600D01*
X129832400Y-87300000D02*
X166002810Y-87300000D01*
X129082400Y-86550000D02*
X129832400Y-87300000D01*
X123330000Y-86538000D02*
X123342000Y-86550000D01*
X123342000Y-86550000D02*
X129082400Y-86550000D01*
X153600000Y-122050000D02*
X153550000Y-122100000D01*
X153600000Y-119000000D02*
X153600000Y-122050000D01*
X131950000Y-110150000D02*
X128000000Y-106200000D01*
X128000000Y-106200000D02*
X128000000Y-105400000D01*
X135650000Y-108300000D02*
X132933253Y-105583253D01*
X132933253Y-105583253D02*
X132933253Y-95766748D01*
X132933253Y-95766748D02*
X135850001Y-92850000D01*
X134436000Y-97714000D02*
X134150000Y-98000000D01*
X142634000Y-97714000D02*
X134436000Y-97714000D01*
X143370600Y-105867400D02*
X143370600Y-103175000D01*
X140950999Y-121099001D02*
X140950000Y-121100000D01*
X143370600Y-105867400D02*
X140950999Y-108287001D01*
X140950999Y-108287001D02*
X140950999Y-121099001D01*
X138050000Y-73800000D02*
X142400000Y-73800000D01*
X142400000Y-73800000D02*
X145400000Y-76800000D01*
X132844347Y-81094347D02*
X133800000Y-82050000D01*
X132844347Y-78294347D02*
X132844347Y-81094347D01*
X133949999Y-121100000D02*
X135000000Y-121100000D01*
X135000000Y-121100000D02*
X138400000Y-117700000D01*
X153519000Y-103048000D02*
X160414000Y-103048000D01*
X160414000Y-103048000D02*
X161938000Y-104572000D01*
X151650000Y-101550000D02*
X153519000Y-103011000D01*
X153519000Y-103011000D02*
X153519000Y-103048000D01*
X143500000Y-126012000D02*
X145174000Y-127686000D01*
X143500000Y-115533602D02*
X143500000Y-126012000D01*
X143500000Y-114387598D02*
X143490999Y-114396599D01*
X143500000Y-107439800D02*
X143500000Y-114387598D01*
X143490999Y-114396599D02*
X143490999Y-115524601D01*
X143490999Y-115524601D02*
X143500000Y-115533602D01*
X144386598Y-104292598D02*
X144386598Y-106553202D01*
X144386598Y-106553202D02*
X143500000Y-107439800D01*
X144335800Y-104241800D02*
X144386598Y-104292598D01*
X141672287Y-90172287D02*
X134027713Y-90172287D01*
X144000000Y-92500000D02*
X141672287Y-90172287D01*
X134027713Y-90172287D02*
X131250000Y-92950000D01*
X125166000Y-98984000D02*
X124600000Y-98984000D01*
X131250000Y-92950000D02*
X125166000Y-98984000D01*
X125108000Y-100000000D02*
X134331211Y-90776789D01*
X134331211Y-90776789D02*
X141211088Y-90776789D01*
X143934299Y-93500000D02*
X144499984Y-93500000D01*
X141211088Y-90776789D02*
X143934299Y-93500000D01*
X142126000Y-114599306D02*
X142126000Y-114960600D01*
X163970000Y-104064000D02*
X160922000Y-101016000D01*
X152512306Y-101016000D02*
X151637153Y-100140847D01*
X160922000Y-101016000D02*
X152512306Y-101016000D01*
X150475000Y-97714000D02*
X150983000Y-98222000D01*
X163716000Y-98222000D02*
X164986000Y-99492000D01*
X150983000Y-98222000D02*
X163716000Y-98222000D01*
X165240000Y-99746000D02*
X164986000Y-99492000D01*
X162932883Y-98962883D02*
X166764000Y-102794000D01*
X166764000Y-102794000D02*
X168034000Y-104064000D01*
X148875000Y-98962883D02*
X162932883Y-98962883D01*
X147950000Y-101200000D02*
X147950000Y-95400000D01*
X147950000Y-95400000D02*
X140850000Y-88300000D01*
X138250000Y-86575000D02*
X138250000Y-80900000D01*
X138250000Y-80900000D02*
X138200000Y-80850000D01*
X153999998Y-76850002D02*
X166150000Y-76850002D01*
X153250000Y-77600000D02*
X153999998Y-76850002D01*
D22*
X151736760Y-65754011D02*
X154044736Y-65949387D01*
X156334256Y-66300129D01*
X158594875Y-66804636D01*
X160816278Y-67460605D01*
X162988328Y-68265044D01*
X165101115Y-69214282D01*
X167145000Y-70303989D01*
X169110656Y-71529192D01*
X170989114Y-72884300D01*
X172771804Y-74363131D01*
X174450591Y-75958937D01*
X175042993Y-76603606D01*
X171095576Y-78645374D01*
X170821831Y-78462463D01*
X170506081Y-78331675D01*
X170170883Y-78265000D01*
X169829117Y-78265000D01*
X169493919Y-78331675D01*
X169178169Y-78462463D01*
X168894002Y-78652337D01*
X168652337Y-78894002D01*
X168462463Y-79178169D01*
X168331675Y-79493919D01*
X168265000Y-79829117D01*
X168265000Y-80109465D01*
X162688106Y-82994065D01*
X162592260Y-82975000D01*
X162299740Y-82975000D01*
X162012842Y-83032068D01*
X161742589Y-83144010D01*
X161499368Y-83306525D01*
X161292525Y-83513368D01*
X161176000Y-83687760D01*
X161059475Y-83513368D01*
X160852632Y-83306525D01*
X160609411Y-83144010D01*
X160339158Y-83032068D01*
X160052260Y-82975000D01*
X159759740Y-82975000D01*
X159472842Y-83032068D01*
X159202589Y-83144010D01*
X158959368Y-83306525D01*
X158752525Y-83513368D01*
X158636000Y-83687760D01*
X158519475Y-83513368D01*
X158312632Y-83306525D01*
X158069411Y-83144010D01*
X157799158Y-83032068D01*
X157512260Y-82975000D01*
X157219740Y-82975000D01*
X156932842Y-83032068D01*
X156662589Y-83144010D01*
X156419368Y-83306525D01*
X156212525Y-83513368D01*
X156096000Y-83687760D01*
X155979475Y-83513368D01*
X155772632Y-83306525D01*
X155529411Y-83144010D01*
X155259158Y-83032068D01*
X154972260Y-82975000D01*
X154679740Y-82975000D01*
X154392842Y-83032068D01*
X154122589Y-83144010D01*
X153879368Y-83306525D01*
X153672525Y-83513368D01*
X153556000Y-83687760D01*
X153439475Y-83513368D01*
X153232632Y-83306525D01*
X152989411Y-83144010D01*
X152719158Y-83032068D01*
X152432260Y-82975000D01*
X152139740Y-82975000D01*
X151852842Y-83032068D01*
X151582589Y-83144010D01*
X151339368Y-83306525D01*
X151132525Y-83513368D01*
X151016000Y-83687760D01*
X150899475Y-83513368D01*
X150692632Y-83306525D01*
X150449411Y-83144010D01*
X150179158Y-83032068D01*
X149892260Y-82975000D01*
X149599740Y-82975000D01*
X149312842Y-83032068D01*
X149042589Y-83144010D01*
X148799368Y-83306525D01*
X148592525Y-83513368D01*
X148476000Y-83687760D01*
X148359475Y-83513368D01*
X148152632Y-83306525D01*
X147909411Y-83144010D01*
X147639158Y-83032068D01*
X147352260Y-82975000D01*
X147059740Y-82975000D01*
X146772842Y-83032068D01*
X146502589Y-83144010D01*
X146259368Y-83306525D01*
X146052525Y-83513368D01*
X145936000Y-83687760D01*
X145819475Y-83513368D01*
X145612632Y-83306525D01*
X145369411Y-83144010D01*
X145099158Y-83032068D01*
X144812260Y-82975000D01*
X144519740Y-82975000D01*
X144232842Y-83032068D01*
X143962589Y-83144010D01*
X143719368Y-83306525D01*
X143512525Y-83513368D01*
X143396000Y-83687760D01*
X143279475Y-83513368D01*
X143072632Y-83306525D01*
X142829411Y-83144010D01*
X142559158Y-83032068D01*
X142272260Y-82975000D01*
X141979740Y-82975000D01*
X141692842Y-83032068D01*
X141422589Y-83144010D01*
X141179368Y-83306525D01*
X140972525Y-83513368D01*
X140856000Y-83687760D01*
X140739475Y-83513368D01*
X140532632Y-83306525D01*
X140289411Y-83144010D01*
X140019158Y-83032068D01*
X139732260Y-82975000D01*
X139439740Y-82975000D01*
X139152842Y-83032068D01*
X139010000Y-83091235D01*
X139010000Y-81500700D01*
X139117205Y-81340256D01*
X139195226Y-81151898D01*
X139235000Y-80951939D01*
X139235000Y-80748061D01*
X139195226Y-80548102D01*
X139117205Y-80359744D01*
X139003937Y-80190226D01*
X138859774Y-80046063D01*
X138690256Y-79932795D01*
X138501898Y-79854774D01*
X138301939Y-79815000D01*
X138098061Y-79815000D01*
X137898102Y-79854774D01*
X137709744Y-79932795D01*
X137540226Y-80046063D01*
X137396063Y-80190226D01*
X137282795Y-80359744D01*
X137204774Y-80548102D01*
X137165000Y-80748061D01*
X137165000Y-80951939D01*
X137204774Y-81151898D01*
X137282795Y-81340256D01*
X137396063Y-81509774D01*
X137490001Y-81603712D01*
X137490001Y-83036559D01*
X137479158Y-83032068D01*
X137192260Y-82975000D01*
X136899740Y-82975000D01*
X136612842Y-83032068D01*
X136342589Y-83144010D01*
X136099368Y-83306525D01*
X135892525Y-83513368D01*
X135776000Y-83687760D01*
X135659475Y-83513368D01*
X135452632Y-83306525D01*
X135209411Y-83144010D01*
X134939158Y-83032068D01*
X134652260Y-82975000D01*
X134359740Y-82975000D01*
X134189856Y-83008792D01*
X134290256Y-82967205D01*
X134459774Y-82853937D01*
X134603937Y-82709774D01*
X134717205Y-82540256D01*
X134795226Y-82351898D01*
X134835000Y-82151939D01*
X134835000Y-81948061D01*
X134795226Y-81748102D01*
X134717205Y-81559744D01*
X134603937Y-81390226D01*
X134459774Y-81246063D01*
X134290256Y-81132795D01*
X134101898Y-81054774D01*
X133901939Y-81015000D01*
X133839802Y-81015000D01*
X133604347Y-80779546D01*
X133604347Y-78998058D01*
X133648284Y-78954121D01*
X133761552Y-78784603D01*
X133839573Y-78596245D01*
X133879347Y-78396286D01*
X133879347Y-78192408D01*
X133839573Y-77992449D01*
X133761552Y-77804091D01*
X133648284Y-77634573D01*
X133504121Y-77490410D01*
X133334603Y-77377142D01*
X133146245Y-77299121D01*
X132946286Y-77259347D01*
X132742408Y-77259347D01*
X132542449Y-77299121D01*
X132354091Y-77377142D01*
X132184573Y-77490410D01*
X132040410Y-77634573D01*
X131927142Y-77804091D01*
X131849121Y-77992449D01*
X131809347Y-78192408D01*
X131809347Y-78396286D01*
X131849121Y-78596245D01*
X131927142Y-78784603D01*
X132040410Y-78954121D01*
X132084347Y-78998058D01*
X132084348Y-81057015D01*
X132080671Y-81094347D01*
X132095345Y-81243332D01*
X132138801Y-81386593D01*
X132209373Y-81518623D01*
X132243121Y-81559744D01*
X132304347Y-81634348D01*
X132333345Y-81658146D01*
X132765000Y-82089802D01*
X132765000Y-82151939D01*
X132804774Y-82351898D01*
X132882795Y-82540256D01*
X132996063Y-82709774D01*
X133140226Y-82853937D01*
X133309744Y-82967205D01*
X133498102Y-83045226D01*
X133698061Y-83085000D01*
X133901939Y-83085000D01*
X133984884Y-83068501D01*
X133802589Y-83144010D01*
X133559368Y-83306525D01*
X133352525Y-83513368D01*
X133230805Y-83695534D01*
X133161178Y-83578645D01*
X132966269Y-83362412D01*
X132732920Y-83188359D01*
X132470099Y-83063175D01*
X132322890Y-83018524D01*
X132093000Y-83139845D01*
X132093000Y-84333000D01*
X132113000Y-84333000D01*
X132113000Y-84587000D01*
X132093000Y-84587000D01*
X132093000Y-85780155D01*
X132322890Y-85901476D01*
X132470099Y-85856825D01*
X132732920Y-85731641D01*
X132966269Y-85557588D01*
X133161178Y-85341355D01*
X133230805Y-85224466D01*
X133352525Y-85406632D01*
X133559368Y-85613475D01*
X133802589Y-85775990D01*
X134072842Y-85887932D01*
X134359740Y-85945000D01*
X134652260Y-85945000D01*
X134939158Y-85887932D01*
X135209411Y-85775990D01*
X135452632Y-85613475D01*
X135659475Y-85406632D01*
X135776000Y-85232240D01*
X135892525Y-85406632D01*
X136099368Y-85613475D01*
X136342589Y-85775990D01*
X136612842Y-85887932D01*
X136899740Y-85945000D01*
X137192260Y-85945000D01*
X137471917Y-85889372D01*
X137446063Y-85915226D01*
X137332795Y-86084744D01*
X137254774Y-86273102D01*
X137215000Y-86473061D01*
X137215000Y-86540000D01*
X130147202Y-86540000D01*
X129646203Y-86039002D01*
X129622401Y-86009999D01*
X129506676Y-85915026D01*
X129374647Y-85844454D01*
X129231386Y-85800997D01*
X129119733Y-85790000D01*
X129119722Y-85790000D01*
X129082400Y-85786324D01*
X129045078Y-85790000D01*
X124045711Y-85790000D01*
X123989774Y-85734063D01*
X123820256Y-85620795D01*
X123631898Y-85542774D01*
X123431939Y-85503000D01*
X123228061Y-85503000D01*
X123028102Y-85542774D01*
X122839744Y-85620795D01*
X122670226Y-85734063D01*
X122526063Y-85878226D01*
X122412795Y-86047744D01*
X122334774Y-86236102D01*
X122295000Y-86436061D01*
X122295000Y-86639939D01*
X122334774Y-86839898D01*
X122412795Y-87028256D01*
X122526063Y-87197774D01*
X122670226Y-87341937D01*
X122839744Y-87455205D01*
X123028102Y-87533226D01*
X123228061Y-87573000D01*
X123431939Y-87573000D01*
X123631898Y-87533226D01*
X123820256Y-87455205D01*
X123989774Y-87341937D01*
X124021711Y-87310000D01*
X128767599Y-87310000D01*
X129268601Y-87811002D01*
X129292399Y-87840001D01*
X129408124Y-87934974D01*
X129540153Y-88005546D01*
X129683414Y-88049003D01*
X129795067Y-88060000D01*
X129795076Y-88060000D01*
X129832399Y-88063676D01*
X129869722Y-88060000D01*
X139842462Y-88060000D01*
X139815000Y-88198061D01*
X139815000Y-88401939D01*
X139854774Y-88601898D01*
X139932795Y-88790256D01*
X140046063Y-88959774D01*
X140190226Y-89103937D01*
X140359744Y-89217205D01*
X140548102Y-89295226D01*
X140748061Y-89335000D01*
X140810199Y-89335000D01*
X140887486Y-89412287D01*
X134065035Y-89412287D01*
X134027712Y-89408611D01*
X133990389Y-89412287D01*
X133990380Y-89412287D01*
X133878727Y-89423284D01*
X133735466Y-89466741D01*
X133603437Y-89537313D01*
X133603435Y-89537314D01*
X133603436Y-89537314D01*
X133516709Y-89608488D01*
X133516705Y-89608492D01*
X133487712Y-89632286D01*
X133463918Y-89661279D01*
X130713946Y-92411253D01*
X125034731Y-98043796D01*
X124901898Y-97988774D01*
X124701939Y-97949000D01*
X124498061Y-97949000D01*
X124298102Y-97988774D01*
X124109744Y-98066795D01*
X123940226Y-98180063D01*
X123796063Y-98324226D01*
X123682795Y-98493744D01*
X123604774Y-98682102D01*
X123565000Y-98882061D01*
X123565000Y-99085939D01*
X123604774Y-99285898D01*
X123682795Y-99474256D01*
X123796063Y-99643774D01*
X123940226Y-99787937D01*
X124076759Y-99879165D01*
X124073000Y-99898061D01*
X124073000Y-100101939D01*
X124112774Y-100301898D01*
X124190795Y-100490256D01*
X124304063Y-100659774D01*
X124448226Y-100803937D01*
X124617744Y-100917205D01*
X124806102Y-100995226D01*
X125006061Y-101035000D01*
X125209939Y-101035000D01*
X125409898Y-100995226D01*
X125598256Y-100917205D01*
X125767774Y-100803937D01*
X125911937Y-100659774D01*
X126025205Y-100490256D01*
X126103226Y-100301898D01*
X126143000Y-100101939D01*
X126143000Y-100039801D01*
X130416053Y-95766748D01*
X132169577Y-95766748D01*
X132173254Y-95804080D01*
X132173253Y-105545931D01*
X132169577Y-105583253D01*
X132173253Y-105620575D01*
X132173253Y-105620585D01*
X132184250Y-105732238D01*
X132219261Y-105847656D01*
X132227707Y-105875499D01*
X132298279Y-106007529D01*
X132338124Y-106056079D01*
X132393252Y-106123254D01*
X132422256Y-106147057D01*
X134615000Y-108339803D01*
X134615000Y-108401939D01*
X134654774Y-108601898D01*
X134732795Y-108790256D01*
X134846063Y-108959774D01*
X134990226Y-109103937D01*
X135159744Y-109217205D01*
X135348102Y-109295226D01*
X135548061Y-109335000D01*
X135751939Y-109335000D01*
X135951898Y-109295226D01*
X136140256Y-109217205D01*
X136309774Y-109103937D01*
X136453937Y-108959774D01*
X136567205Y-108790256D01*
X136645226Y-108601898D01*
X136685000Y-108401939D01*
X136685000Y-108198061D01*
X136645226Y-107998102D01*
X136567205Y-107809744D01*
X136453937Y-107640226D01*
X136309774Y-107496063D01*
X136140256Y-107382795D01*
X135951898Y-107304774D01*
X135751939Y-107265000D01*
X135689803Y-107265000D01*
X133693253Y-105268452D01*
X133693253Y-101260589D01*
X139725000Y-101260589D01*
X139725000Y-101533411D01*
X139778225Y-101800989D01*
X139882629Y-102053043D01*
X140034201Y-102279886D01*
X140227114Y-102472799D01*
X140453957Y-102624371D01*
X140706011Y-102728775D01*
X140973589Y-102782000D01*
X141246411Y-102782000D01*
X141513989Y-102728775D01*
X141766043Y-102624371D01*
X141992886Y-102472799D01*
X142185799Y-102279886D01*
X142337371Y-102053043D01*
X142441775Y-101800989D01*
X142495000Y-101533411D01*
X142495000Y-101260589D01*
X142441775Y-100993011D01*
X142337371Y-100740957D01*
X142185799Y-100514114D01*
X141992886Y-100321201D01*
X141766043Y-100169629D01*
X141513989Y-100065225D01*
X141246411Y-100012000D01*
X140973589Y-100012000D01*
X140706011Y-100065225D01*
X140453957Y-100169629D01*
X140227114Y-100321201D01*
X140034201Y-100514114D01*
X139882629Y-100740957D01*
X139778225Y-100993011D01*
X139725000Y-101260589D01*
X133693253Y-101260589D01*
X133693253Y-98931085D01*
X133848102Y-98995226D01*
X134048061Y-99035000D01*
X134251939Y-99035000D01*
X134451898Y-98995226D01*
X134640256Y-98917205D01*
X134809774Y-98803937D01*
X134953937Y-98659774D01*
X135067205Y-98490256D01*
X135073939Y-98474000D01*
X141930289Y-98474000D01*
X141974226Y-98517937D01*
X142143744Y-98631205D01*
X142332102Y-98709226D01*
X142532061Y-98749000D01*
X142735939Y-98749000D01*
X142935898Y-98709226D01*
X143124256Y-98631205D01*
X143293774Y-98517937D01*
X143437937Y-98373774D01*
X143551205Y-98204256D01*
X143629226Y-98015898D01*
X143669000Y-97815939D01*
X143669000Y-97612061D01*
X143629226Y-97412102D01*
X143551205Y-97223744D01*
X143437937Y-97054226D01*
X143293774Y-96910063D01*
X143124256Y-96796795D01*
X142935898Y-96718774D01*
X142735939Y-96679000D01*
X142532061Y-96679000D01*
X142332102Y-96718774D01*
X142143744Y-96796795D01*
X141974226Y-96910063D01*
X141930289Y-96954000D01*
X134473322Y-96954000D01*
X134435999Y-96950324D01*
X134398676Y-96954000D01*
X134398667Y-96954000D01*
X134287014Y-96964997D01*
X134273117Y-96969213D01*
X134251939Y-96965000D01*
X134048061Y-96965000D01*
X133848102Y-97004774D01*
X133693253Y-97068915D01*
X133693253Y-96081549D01*
X135889803Y-93885000D01*
X135951940Y-93885000D01*
X136151899Y-93845226D01*
X136340257Y-93767205D01*
X136509775Y-93653937D01*
X136653938Y-93509774D01*
X136767206Y-93340256D01*
X136845227Y-93151898D01*
X136885001Y-92951939D01*
X136885001Y-92748061D01*
X136845227Y-92548102D01*
X136767206Y-92359744D01*
X136653938Y-92190226D01*
X136509775Y-92046063D01*
X136340257Y-91932795D01*
X136151899Y-91854774D01*
X135951940Y-91815000D01*
X135748062Y-91815000D01*
X135548103Y-91854774D01*
X135359745Y-91932795D01*
X135190227Y-92046063D01*
X135046064Y-92190226D01*
X134932796Y-92359744D01*
X134854775Y-92548102D01*
X134815001Y-92748061D01*
X134815001Y-92810198D01*
X132422251Y-95202949D01*
X132393253Y-95226747D01*
X132369455Y-95255745D01*
X132369454Y-95255746D01*
X132298279Y-95342472D01*
X132227707Y-95474502D01*
X132206719Y-95543693D01*
X132184251Y-95617762D01*
X132173254Y-95729415D01*
X132169577Y-95766748D01*
X130416053Y-95766748D01*
X134646013Y-91536789D01*
X140896287Y-91536789D01*
X143370500Y-94011003D01*
X143394298Y-94040001D01*
X143423296Y-94063799D01*
X143510022Y-94134974D01*
X143642052Y-94205546D01*
X143785260Y-94248987D01*
X143840210Y-94303937D01*
X144009728Y-94417205D01*
X144198086Y-94495226D01*
X144398045Y-94535000D01*
X144601923Y-94535000D01*
X144801882Y-94495226D01*
X144990240Y-94417205D01*
X145159758Y-94303937D01*
X145303921Y-94159774D01*
X145417189Y-93990256D01*
X145431326Y-93956127D01*
X147190001Y-95714803D01*
X147190000Y-100496289D01*
X147146063Y-100540226D01*
X147032795Y-100709744D01*
X146954774Y-100898102D01*
X146915000Y-101098061D01*
X146915000Y-101301939D01*
X146954774Y-101501898D01*
X147032795Y-101690256D01*
X147146063Y-101859774D01*
X147290226Y-102003937D01*
X147459744Y-102117205D01*
X147648102Y-102195226D01*
X147848061Y-102235000D01*
X148051939Y-102235000D01*
X148251898Y-102195226D01*
X148440256Y-102117205D01*
X148609774Y-102003937D01*
X148753937Y-101859774D01*
X148867205Y-101690256D01*
X148945226Y-101501898D01*
X148985000Y-101301939D01*
X148985000Y-101098061D01*
X148945226Y-100898102D01*
X148867205Y-100709744D01*
X148753937Y-100540226D01*
X148710000Y-100496289D01*
X148710000Y-99985339D01*
X148773061Y-99997883D01*
X148976939Y-99997883D01*
X149176898Y-99958109D01*
X149365256Y-99880088D01*
X149534774Y-99766820D01*
X149578711Y-99722883D01*
X150690003Y-99722883D01*
X150641927Y-99838949D01*
X150602153Y-100038908D01*
X150602153Y-100242786D01*
X150641927Y-100442745D01*
X150719948Y-100631103D01*
X150833216Y-100800621D01*
X150884442Y-100851847D01*
X150846063Y-100890226D01*
X150732795Y-101059744D01*
X150654774Y-101248102D01*
X150615000Y-101448061D01*
X150615000Y-101651939D01*
X150654774Y-101851898D01*
X150732795Y-102040256D01*
X150846063Y-102209774D01*
X150990226Y-102353937D01*
X151159744Y-102467205D01*
X151348102Y-102545226D01*
X151548061Y-102585000D01*
X151739998Y-102585000D01*
X152900080Y-103491837D01*
X152978999Y-103588001D01*
X153094724Y-103682974D01*
X153226753Y-103753546D01*
X153370014Y-103797003D01*
X153481667Y-103808000D01*
X153519000Y-103811677D01*
X153556333Y-103808000D01*
X156477000Y-103808000D01*
X156477000Y-113208000D01*
X156477792Y-113222157D01*
X156482978Y-113246507D01*
X156492816Y-113269377D01*
X156506927Y-113289889D01*
X156524768Y-113307253D01*
X156545653Y-113320804D01*
X156949031Y-113529448D01*
X156932842Y-113532668D01*
X156662589Y-113644610D01*
X156419368Y-113807125D01*
X156212525Y-114013968D01*
X156096000Y-114188360D01*
X155979475Y-114013968D01*
X155772632Y-113807125D01*
X155529411Y-113644610D01*
X155259158Y-113532668D01*
X154972260Y-113475600D01*
X154679740Y-113475600D01*
X154392842Y-113532668D01*
X154122589Y-113644610D01*
X153879368Y-113807125D01*
X153672525Y-114013968D01*
X153556000Y-114188360D01*
X153439475Y-114013968D01*
X153232632Y-113807125D01*
X152989411Y-113644610D01*
X152719158Y-113532668D01*
X152432260Y-113475600D01*
X152139740Y-113475600D01*
X151852842Y-113532668D01*
X151582589Y-113644610D01*
X151339368Y-113807125D01*
X151132525Y-114013968D01*
X151016000Y-114188360D01*
X150899475Y-114013968D01*
X150692632Y-113807125D01*
X150449411Y-113644610D01*
X150179158Y-113532668D01*
X149892260Y-113475600D01*
X149599740Y-113475600D01*
X149312842Y-113532668D01*
X149042589Y-113644610D01*
X148799368Y-113807125D01*
X148592525Y-114013968D01*
X148476000Y-114188360D01*
X148359475Y-114013968D01*
X148152632Y-113807125D01*
X147909411Y-113644610D01*
X147639158Y-113532668D01*
X147352260Y-113475600D01*
X147059740Y-113475600D01*
X146772842Y-113532668D01*
X146502589Y-113644610D01*
X146259368Y-113807125D01*
X146052525Y-114013968D01*
X145936000Y-114188360D01*
X145819475Y-114013968D01*
X145612632Y-113807125D01*
X145369411Y-113644610D01*
X145099158Y-113532668D01*
X144812260Y-113475600D01*
X144519740Y-113475600D01*
X144260000Y-113527266D01*
X144260000Y-107754601D01*
X144897601Y-107117001D01*
X144926599Y-107093203D01*
X144990348Y-107015525D01*
X145021572Y-106977479D01*
X145092144Y-106845449D01*
X145135601Y-106702188D01*
X145146598Y-106590535D01*
X145146598Y-106590525D01*
X145150274Y-106553202D01*
X145146598Y-106515879D01*
X145146598Y-104891306D01*
X145253005Y-104732056D01*
X145331026Y-104543698D01*
X145370800Y-104343739D01*
X145370800Y-104139861D01*
X145331026Y-103939902D01*
X145253005Y-103751544D01*
X145139737Y-103582026D01*
X144995574Y-103437863D01*
X144826056Y-103324595D01*
X144637698Y-103246574D01*
X144437739Y-103206800D01*
X144405600Y-103206800D01*
X144405600Y-103073061D01*
X144365826Y-102873102D01*
X144287805Y-102684744D01*
X144174537Y-102515226D01*
X144030374Y-102371063D01*
X143860856Y-102257795D01*
X143672498Y-102179774D01*
X143472539Y-102140000D01*
X143268661Y-102140000D01*
X143068702Y-102179774D01*
X142880344Y-102257795D01*
X142710826Y-102371063D01*
X142566663Y-102515226D01*
X142453395Y-102684744D01*
X142375374Y-102873102D01*
X142335600Y-103073061D01*
X142335600Y-103276939D01*
X142375374Y-103476898D01*
X142453395Y-103665256D01*
X142566663Y-103834774D01*
X142610601Y-103878712D01*
X142610600Y-105552598D01*
X142397376Y-105765822D01*
X142337371Y-105620957D01*
X142185799Y-105394114D01*
X141992886Y-105201201D01*
X141766043Y-105049629D01*
X141513989Y-104945225D01*
X141246411Y-104892000D01*
X140973589Y-104892000D01*
X140706011Y-104945225D01*
X140453957Y-105049629D01*
X140227114Y-105201201D01*
X140034201Y-105394114D01*
X139882629Y-105620957D01*
X139778225Y-105873011D01*
X139725000Y-106140589D01*
X139725000Y-106413411D01*
X139778225Y-106680989D01*
X139882629Y-106933043D01*
X140034201Y-107159886D01*
X140227114Y-107352799D01*
X140453957Y-107504371D01*
X140598823Y-107564376D01*
X140440002Y-107723197D01*
X140410998Y-107747000D01*
X140359506Y-107809744D01*
X140316025Y-107862725D01*
X140253446Y-107979801D01*
X140245453Y-107994755D01*
X140201996Y-108138016D01*
X140190999Y-108249669D01*
X140190999Y-108249679D01*
X140187323Y-108287001D01*
X140190999Y-108324323D01*
X140190999Y-113603847D01*
X140019158Y-113532668D01*
X139732260Y-113475600D01*
X139439740Y-113475600D01*
X139152842Y-113532668D01*
X138882589Y-113644610D01*
X138639368Y-113807125D01*
X138432525Y-114013968D01*
X138316000Y-114188360D01*
X138199475Y-114013968D01*
X137992632Y-113807125D01*
X137749411Y-113644610D01*
X137479158Y-113532668D01*
X137192260Y-113475600D01*
X136899740Y-113475600D01*
X136612842Y-113532668D01*
X136342589Y-113644610D01*
X136099368Y-113807125D01*
X135892525Y-114013968D01*
X135770805Y-114196134D01*
X135701178Y-114079245D01*
X135506269Y-113863012D01*
X135272920Y-113688959D01*
X135010099Y-113563775D01*
X134862890Y-113519124D01*
X134633000Y-113640445D01*
X134633000Y-114833600D01*
X134653000Y-114833600D01*
X134653000Y-115087600D01*
X134633000Y-115087600D01*
X134633000Y-116280755D01*
X134862890Y-116402076D01*
X135010099Y-116357425D01*
X135272920Y-116232241D01*
X135506269Y-116058188D01*
X135701178Y-115841955D01*
X135770805Y-115725066D01*
X135892525Y-115907232D01*
X136099368Y-116114075D01*
X136342589Y-116276590D01*
X136612842Y-116388532D01*
X136899740Y-116445600D01*
X137192260Y-116445600D01*
X137479158Y-116388532D01*
X137749411Y-116276590D01*
X137992632Y-116114075D01*
X138199475Y-115907232D01*
X138316000Y-115732840D01*
X138432525Y-115907232D01*
X138639368Y-116114075D01*
X138882589Y-116276590D01*
X139152842Y-116388532D01*
X139439740Y-116445600D01*
X139732260Y-116445600D01*
X140019158Y-116388532D01*
X140191000Y-116317353D01*
X140191000Y-120395289D01*
X140146063Y-120440226D01*
X140032795Y-120609744D01*
X139954774Y-120798102D01*
X139915000Y-120998061D01*
X139915000Y-121201939D01*
X139954774Y-121401898D01*
X140032795Y-121590256D01*
X140146063Y-121759774D01*
X140290226Y-121903937D01*
X140459744Y-122017205D01*
X140648102Y-122095226D01*
X140848061Y-122135000D01*
X141051939Y-122135000D01*
X141251898Y-122095226D01*
X141440256Y-122017205D01*
X141609774Y-121903937D01*
X141753937Y-121759774D01*
X141867205Y-121590256D01*
X141945226Y-121401898D01*
X141985000Y-121201939D01*
X141985000Y-120998061D01*
X141945226Y-120798102D01*
X141867205Y-120609744D01*
X141753937Y-120440226D01*
X141710999Y-120397288D01*
X141710999Y-116392144D01*
X141979740Y-116445600D01*
X142272260Y-116445600D01*
X142559158Y-116388532D01*
X142740000Y-116313625D01*
X142740001Y-125974668D01*
X142736324Y-126012000D01*
X142750998Y-126160985D01*
X142794454Y-126304246D01*
X142865026Y-126436276D01*
X142936201Y-126523002D01*
X142960000Y-126552001D01*
X142988998Y-126575799D01*
X143732791Y-127319592D01*
X143689000Y-127539740D01*
X143689000Y-127832260D01*
X143746068Y-128119158D01*
X143858010Y-128389411D01*
X144020525Y-128632632D01*
X144152380Y-128764487D01*
X144079820Y-128786498D01*
X143969506Y-128845463D01*
X143872815Y-128924815D01*
X143793463Y-129021506D01*
X143734498Y-129131820D01*
X143698188Y-129251518D01*
X143685928Y-129376000D01*
X143685928Y-131076000D01*
X143698188Y-131200482D01*
X143734498Y-131320180D01*
X143793463Y-131430494D01*
X143872815Y-131527185D01*
X143969506Y-131606537D01*
X144079820Y-131665502D01*
X144199518Y-131701812D01*
X144324000Y-131714072D01*
X146024000Y-131714072D01*
X146148482Y-131701812D01*
X146268180Y-131665502D01*
X146378494Y-131606537D01*
X146475185Y-131527185D01*
X146554537Y-131430494D01*
X146613502Y-131320180D01*
X146637966Y-131239534D01*
X146713731Y-131323588D01*
X146947080Y-131497641D01*
X147209901Y-131622825D01*
X147357110Y-131667476D01*
X147587000Y-131546155D01*
X147587000Y-130353000D01*
X147841000Y-130353000D01*
X147841000Y-131546155D01*
X148070890Y-131667476D01*
X148218099Y-131622825D01*
X148480920Y-131497641D01*
X148714269Y-131323588D01*
X148909178Y-131107355D01*
X148984000Y-130981745D01*
X149058822Y-131107355D01*
X149253731Y-131323588D01*
X149487080Y-131497641D01*
X149749901Y-131622825D01*
X149897110Y-131667476D01*
X150127000Y-131546155D01*
X150127000Y-130353000D01*
X147841000Y-130353000D01*
X147587000Y-130353000D01*
X147567000Y-130353000D01*
X147567000Y-130099000D01*
X147587000Y-130099000D01*
X147587000Y-130079000D01*
X147841000Y-130079000D01*
X147841000Y-130099000D01*
X150127000Y-130099000D01*
X150127000Y-130079000D01*
X150381000Y-130079000D01*
X150381000Y-130099000D01*
X150401000Y-130099000D01*
X150401000Y-130353000D01*
X150381000Y-130353000D01*
X150381000Y-131546155D01*
X150610890Y-131667476D01*
X150758099Y-131622825D01*
X151020920Y-131497641D01*
X151254269Y-131323588D01*
X151449178Y-131107355D01*
X151518805Y-130990466D01*
X151640525Y-131172632D01*
X151847368Y-131379475D01*
X152090589Y-131541990D01*
X152360842Y-131653932D01*
X152647740Y-131711000D01*
X152940260Y-131711000D01*
X153227158Y-131653932D01*
X153497411Y-131541990D01*
X153740632Y-131379475D01*
X153947475Y-131172632D01*
X154069195Y-130990466D01*
X154138822Y-131107355D01*
X154333731Y-131323588D01*
X154567080Y-131497641D01*
X154829901Y-131622825D01*
X154977110Y-131667476D01*
X155207000Y-131546155D01*
X155207000Y-130353000D01*
X155461000Y-130353000D01*
X155461000Y-131546155D01*
X155690890Y-131667476D01*
X155838099Y-131622825D01*
X156100920Y-131497641D01*
X156334269Y-131323588D01*
X156529178Y-131107355D01*
X156678157Y-130857252D01*
X156775481Y-130582891D01*
X156654814Y-130353000D01*
X155461000Y-130353000D01*
X155207000Y-130353000D01*
X155187000Y-130353000D01*
X155187000Y-130099000D01*
X155207000Y-130099000D01*
X155207000Y-130079000D01*
X155461000Y-130079000D01*
X155461000Y-130099000D01*
X156654814Y-130099000D01*
X156775481Y-129869109D01*
X156678157Y-129594748D01*
X156529178Y-129344645D01*
X156334269Y-129128412D01*
X156104594Y-128957100D01*
X156280632Y-128839475D01*
X156487475Y-128632632D01*
X156649990Y-128389411D01*
X156761932Y-128119158D01*
X156819000Y-127832260D01*
X156819000Y-127539740D01*
X156761932Y-127252842D01*
X156649990Y-126982589D01*
X156487475Y-126739368D01*
X156280632Y-126532525D01*
X156037411Y-126370010D01*
X155767158Y-126258068D01*
X155480260Y-126201000D01*
X155187740Y-126201000D01*
X154900842Y-126258068D01*
X154630589Y-126370010D01*
X154387368Y-126532525D01*
X154180525Y-126739368D01*
X154064000Y-126913760D01*
X153947475Y-126739368D01*
X153740632Y-126532525D01*
X153497411Y-126370010D01*
X153227158Y-126258068D01*
X152940260Y-126201000D01*
X152647740Y-126201000D01*
X152360842Y-126258068D01*
X152090589Y-126370010D01*
X151847368Y-126532525D01*
X151640525Y-126739368D01*
X151524000Y-126913760D01*
X151407475Y-126739368D01*
X151200632Y-126532525D01*
X150957411Y-126370010D01*
X150687158Y-126258068D01*
X150400260Y-126201000D01*
X150107740Y-126201000D01*
X149820842Y-126258068D01*
X149550589Y-126370010D01*
X149307368Y-126532525D01*
X149100525Y-126739368D01*
X148984000Y-126913760D01*
X148867475Y-126739368D01*
X148660632Y-126532525D01*
X148417411Y-126370010D01*
X148147158Y-126258068D01*
X147860260Y-126201000D01*
X147567740Y-126201000D01*
X147280842Y-126258068D01*
X147010589Y-126370010D01*
X146767368Y-126532525D01*
X146560525Y-126739368D01*
X146444000Y-126913760D01*
X146327475Y-126739368D01*
X146120632Y-126532525D01*
X145877411Y-126370010D01*
X145607158Y-126258068D01*
X145320260Y-126201000D01*
X145027740Y-126201000D01*
X144807592Y-126244791D01*
X144260000Y-125697199D01*
X144260000Y-121998061D01*
X152515000Y-121998061D01*
X152515000Y-122201939D01*
X152554774Y-122401898D01*
X152632795Y-122590256D01*
X152746063Y-122759774D01*
X152890226Y-122903937D01*
X153059744Y-123017205D01*
X153248102Y-123095226D01*
X153448061Y-123135000D01*
X153651939Y-123135000D01*
X153851898Y-123095226D01*
X154040256Y-123017205D01*
X154209774Y-122903937D01*
X154353937Y-122759774D01*
X154467205Y-122590256D01*
X154545226Y-122401898D01*
X154585000Y-122201939D01*
X154585000Y-121998061D01*
X154545226Y-121798102D01*
X154467205Y-121609744D01*
X154360000Y-121449300D01*
X154360000Y-119703711D01*
X154403937Y-119659774D01*
X154517205Y-119490256D01*
X154595226Y-119301898D01*
X154635000Y-119101939D01*
X154635000Y-118898061D01*
X154595226Y-118698102D01*
X154517205Y-118509744D01*
X154403937Y-118340226D01*
X154259774Y-118196063D01*
X154090256Y-118082795D01*
X153901898Y-118004774D01*
X153701939Y-117965000D01*
X153498061Y-117965000D01*
X153298102Y-118004774D01*
X153109744Y-118082795D01*
X152940226Y-118196063D01*
X152796063Y-118340226D01*
X152682795Y-118509744D01*
X152604774Y-118698102D01*
X152565000Y-118898061D01*
X152565000Y-119101939D01*
X152604774Y-119301898D01*
X152682795Y-119490256D01*
X152796063Y-119659774D01*
X152840000Y-119703711D01*
X152840001Y-121346288D01*
X152746063Y-121440226D01*
X152632795Y-121609744D01*
X152554774Y-121798102D01*
X152515000Y-121998061D01*
X144260000Y-121998061D01*
X144260000Y-116393934D01*
X144519740Y-116445600D01*
X144812260Y-116445600D01*
X145099158Y-116388532D01*
X145369411Y-116276590D01*
X145612632Y-116114075D01*
X145819475Y-115907232D01*
X145936000Y-115732840D01*
X146052525Y-115907232D01*
X146259368Y-116114075D01*
X146502589Y-116276590D01*
X146772842Y-116388532D01*
X147059740Y-116445600D01*
X147352260Y-116445600D01*
X147639158Y-116388532D01*
X147909411Y-116276590D01*
X148152632Y-116114075D01*
X148359475Y-115907232D01*
X148476000Y-115732840D01*
X148592525Y-115907232D01*
X148799368Y-116114075D01*
X149042589Y-116276590D01*
X149312842Y-116388532D01*
X149599740Y-116445600D01*
X149892260Y-116445600D01*
X150179158Y-116388532D01*
X150449411Y-116276590D01*
X150692632Y-116114075D01*
X150899475Y-115907232D01*
X151016000Y-115732840D01*
X151132525Y-115907232D01*
X151339368Y-116114075D01*
X151582589Y-116276590D01*
X151852842Y-116388532D01*
X152139740Y-116445600D01*
X152432260Y-116445600D01*
X152719158Y-116388532D01*
X152989411Y-116276590D01*
X153232632Y-116114075D01*
X153439475Y-115907232D01*
X153556000Y-115732840D01*
X153672525Y-115907232D01*
X153879368Y-116114075D01*
X154122589Y-116276590D01*
X154392842Y-116388532D01*
X154679740Y-116445600D01*
X154972260Y-116445600D01*
X155259158Y-116388532D01*
X155529411Y-116276590D01*
X155772632Y-116114075D01*
X155979475Y-115907232D01*
X156096000Y-115732840D01*
X156212525Y-115907232D01*
X156419368Y-116114075D01*
X156662589Y-116276590D01*
X156932842Y-116388532D01*
X157219740Y-116445600D01*
X157512260Y-116445600D01*
X157799158Y-116388532D01*
X158069411Y-116276590D01*
X158312632Y-116114075D01*
X158519475Y-115907232D01*
X158636000Y-115732840D01*
X158752525Y-115907232D01*
X158959368Y-116114075D01*
X159202589Y-116276590D01*
X159472842Y-116388532D01*
X159759740Y-116445600D01*
X160052260Y-116445600D01*
X160339158Y-116388532D01*
X160609411Y-116276590D01*
X160852632Y-116114075D01*
X161059475Y-115907232D01*
X161176000Y-115732840D01*
X161292525Y-115907232D01*
X161499368Y-116114075D01*
X161742589Y-116276590D01*
X162012842Y-116388532D01*
X162299740Y-116445600D01*
X162586925Y-116445600D01*
X168357907Y-119430590D01*
X168331675Y-119493919D01*
X168265000Y-119829117D01*
X168265000Y-120170883D01*
X168331675Y-120506081D01*
X168462463Y-120821831D01*
X168652337Y-121105998D01*
X168894002Y-121347663D01*
X169178169Y-121537537D01*
X169493919Y-121668325D01*
X169829117Y-121735000D01*
X170170883Y-121735000D01*
X170506081Y-121668325D01*
X170821831Y-121537537D01*
X171105998Y-121347663D01*
X171347663Y-121105998D01*
X171411710Y-121010144D01*
X175359411Y-123052058D01*
X174450591Y-124041063D01*
X172771804Y-125636869D01*
X170989114Y-127115700D01*
X169110656Y-128470808D01*
X167145000Y-129696011D01*
X165101115Y-130785718D01*
X162988328Y-131734956D01*
X160816278Y-132539395D01*
X158594875Y-133195364D01*
X156334256Y-133699871D01*
X154044736Y-134050613D01*
X151736760Y-134245989D01*
X149420860Y-134285109D01*
X147107602Y-134167794D01*
X144807542Y-133894579D01*
X142531173Y-133466711D01*
X140288883Y-132886142D01*
X138090903Y-132155521D01*
X135947261Y-131278181D01*
X133867739Y-130258127D01*
X131861824Y-129100012D01*
X129938670Y-127809120D01*
X128107051Y-126391341D01*
X126375324Y-124853145D01*
X124751392Y-123201549D01*
X123242663Y-121444090D01*
X122035644Y-119829117D01*
X128265000Y-119829117D01*
X128265000Y-120170883D01*
X128331675Y-120506081D01*
X128462463Y-120821831D01*
X128652337Y-121105998D01*
X128894002Y-121347663D01*
X129178169Y-121537537D01*
X129493919Y-121668325D01*
X129829117Y-121735000D01*
X130170883Y-121735000D01*
X130506081Y-121668325D01*
X130821831Y-121537537D01*
X131105998Y-121347663D01*
X131347663Y-121105998D01*
X131419784Y-120998061D01*
X132914999Y-120998061D01*
X132914999Y-121201939D01*
X132954773Y-121401898D01*
X133032794Y-121590256D01*
X133146062Y-121759774D01*
X133290225Y-121903937D01*
X133459743Y-122017205D01*
X133648101Y-122095226D01*
X133848060Y-122135000D01*
X134051938Y-122135000D01*
X134251897Y-122095226D01*
X134440255Y-122017205D01*
X134609773Y-121903937D01*
X134653710Y-121860000D01*
X134962678Y-121860000D01*
X135000000Y-121863676D01*
X135037322Y-121860000D01*
X135037333Y-121860000D01*
X135148986Y-121849003D01*
X135292247Y-121805546D01*
X135424276Y-121734974D01*
X135540001Y-121640001D01*
X135563804Y-121610997D01*
X138439802Y-118735000D01*
X138501939Y-118735000D01*
X138701898Y-118695226D01*
X138890256Y-118617205D01*
X139059774Y-118503937D01*
X139203937Y-118359774D01*
X139317205Y-118190256D01*
X139395226Y-118001898D01*
X139435000Y-117801939D01*
X139435000Y-117598061D01*
X139395226Y-117398102D01*
X139317205Y-117209744D01*
X139203937Y-117040226D01*
X139059774Y-116896063D01*
X138890256Y-116782795D01*
X138701898Y-116704774D01*
X138501939Y-116665000D01*
X138298061Y-116665000D01*
X138098102Y-116704774D01*
X137909744Y-116782795D01*
X137740226Y-116896063D01*
X137596063Y-117040226D01*
X137482795Y-117209744D01*
X137404774Y-117398102D01*
X137365000Y-117598061D01*
X137365000Y-117660198D01*
X134685199Y-120340000D01*
X134653710Y-120340000D01*
X134609773Y-120296063D01*
X134440255Y-120182795D01*
X134251897Y-120104774D01*
X134051938Y-120065000D01*
X133848060Y-120065000D01*
X133648101Y-120104774D01*
X133459743Y-120182795D01*
X133290225Y-120296063D01*
X133146062Y-120440226D01*
X133032794Y-120609744D01*
X132954773Y-120798102D01*
X132914999Y-120998061D01*
X131419784Y-120998061D01*
X131537537Y-120821831D01*
X131668325Y-120506081D01*
X131735000Y-120170883D01*
X131735000Y-119829117D01*
X131668325Y-119493919D01*
X131537537Y-119178169D01*
X131347663Y-118894002D01*
X131105998Y-118652337D01*
X130821831Y-118462463D01*
X130506081Y-118331675D01*
X130170883Y-118265000D01*
X129829117Y-118265000D01*
X129493919Y-118331675D01*
X129178169Y-118462463D01*
X128894002Y-118652337D01*
X128652337Y-118894002D01*
X128462463Y-119178169D01*
X128331675Y-119493919D01*
X128265000Y-119829117D01*
X122035644Y-119829117D01*
X121856022Y-119588787D01*
X120597795Y-117644105D01*
X119473724Y-115618916D01*
X118765209Y-114110600D01*
X130477928Y-114110600D01*
X130477928Y-115810600D01*
X130490188Y-115935082D01*
X130526498Y-116054780D01*
X130585463Y-116165094D01*
X130664815Y-116261785D01*
X130761506Y-116341137D01*
X130871820Y-116400102D01*
X130991518Y-116436412D01*
X131116000Y-116448672D01*
X132816000Y-116448672D01*
X132940482Y-116436412D01*
X133060180Y-116400102D01*
X133170494Y-116341137D01*
X133267185Y-116261785D01*
X133346537Y-116165094D01*
X133405502Y-116054780D01*
X133429966Y-115974134D01*
X133505731Y-116058188D01*
X133739080Y-116232241D01*
X134001901Y-116357425D01*
X134149110Y-116402076D01*
X134379000Y-116280755D01*
X134379000Y-115087600D01*
X134359000Y-115087600D01*
X134359000Y-114833600D01*
X134379000Y-114833600D01*
X134379000Y-113640445D01*
X134149110Y-113519124D01*
X134001901Y-113563775D01*
X133739080Y-113688959D01*
X133505731Y-113863012D01*
X133429966Y-113947066D01*
X133405502Y-113866420D01*
X133346537Y-113756106D01*
X133267185Y-113659415D01*
X133170494Y-113580063D01*
X133060180Y-113521098D01*
X132940482Y-113484788D01*
X132816000Y-113472528D01*
X131116000Y-113472528D01*
X130991518Y-113484788D01*
X130871820Y-113521098D01*
X130761506Y-113580063D01*
X130664815Y-113659415D01*
X130585463Y-113756106D01*
X130526498Y-113866420D01*
X130490188Y-113986118D01*
X130477928Y-114110600D01*
X118765209Y-114110600D01*
X118488937Y-113522462D01*
X117647928Y-111364308D01*
X116954533Y-109154302D01*
X116411918Y-106902526D01*
X116138313Y-105298061D01*
X126965000Y-105298061D01*
X126965000Y-105501939D01*
X127004774Y-105701898D01*
X127082795Y-105890256D01*
X127196063Y-106059774D01*
X127240000Y-106103711D01*
X127240000Y-106162678D01*
X127236324Y-106200000D01*
X127240000Y-106237322D01*
X127240000Y-106237332D01*
X127250997Y-106348985D01*
X127277089Y-106435000D01*
X127294454Y-106492246D01*
X127365026Y-106624276D01*
X127370608Y-106631077D01*
X127459999Y-106740001D01*
X127489003Y-106763804D01*
X130915000Y-110189802D01*
X130915000Y-110251939D01*
X130954774Y-110451898D01*
X131032795Y-110640256D01*
X131146063Y-110809774D01*
X131290226Y-110953937D01*
X131459744Y-111067205D01*
X131648102Y-111145226D01*
X131848061Y-111185000D01*
X132051939Y-111185000D01*
X132251898Y-111145226D01*
X132440256Y-111067205D01*
X132609774Y-110953937D01*
X132753937Y-110809774D01*
X132867205Y-110640256D01*
X132945226Y-110451898D01*
X132985000Y-110251939D01*
X132985000Y-110048061D01*
X132945226Y-109848102D01*
X132867205Y-109659744D01*
X132753937Y-109490226D01*
X132609774Y-109346063D01*
X132440256Y-109232795D01*
X132251898Y-109154774D01*
X132051939Y-109115000D01*
X131989802Y-109115000D01*
X128856263Y-105981462D01*
X128917205Y-105890256D01*
X128995226Y-105701898D01*
X129035000Y-105501939D01*
X129035000Y-105298061D01*
X128995226Y-105098102D01*
X128917205Y-104909744D01*
X128803937Y-104740226D01*
X128659774Y-104596063D01*
X128490256Y-104482795D01*
X128301898Y-104404774D01*
X128101939Y-104365000D01*
X127898061Y-104365000D01*
X127698102Y-104404774D01*
X127509744Y-104482795D01*
X127340226Y-104596063D01*
X127196063Y-104740226D01*
X127082795Y-104909744D01*
X127004774Y-105098102D01*
X126965000Y-105298061D01*
X116138313Y-105298061D01*
X116022558Y-104619256D01*
X115941039Y-103817609D01*
X116219038Y-103817609D01*
X116222909Y-103855282D01*
X116315079Y-104080533D01*
X116449422Y-104283474D01*
X116620775Y-104456307D01*
X116822554Y-104592390D01*
X117047004Y-104686493D01*
X117285500Y-104735000D01*
X117635500Y-104735000D01*
X117635500Y-103627000D01*
X117889500Y-103627000D01*
X117889500Y-104735000D01*
X118239500Y-104735000D01*
X118477996Y-104686493D01*
X118702446Y-104592390D01*
X118904225Y-104456307D01*
X119075578Y-104283474D01*
X119209921Y-104080533D01*
X119302091Y-103855282D01*
X119305962Y-103817609D01*
X119181231Y-103627000D01*
X117889500Y-103627000D01*
X117635500Y-103627000D01*
X116343769Y-103627000D01*
X116219038Y-103817609D01*
X115941039Y-103817609D01*
X115902552Y-103439133D01*
X119702972Y-103439133D01*
X119765465Y-103675450D01*
X120008178Y-103788850D01*
X120268349Y-103852719D01*
X120535982Y-103864604D01*
X120800791Y-103824048D01*
X121052600Y-103732609D01*
X121159535Y-103675450D01*
X121222028Y-103439133D01*
X120462500Y-102679605D01*
X119702972Y-103439133D01*
X115902552Y-103439133D01*
X115876444Y-103182391D01*
X116219038Y-103182391D01*
X116343769Y-103373000D01*
X117635500Y-103373000D01*
X117635500Y-102265000D01*
X117889500Y-102265000D01*
X117889500Y-103373000D01*
X119181231Y-103373000D01*
X119295003Y-103199138D01*
X119523367Y-103259528D01*
X120282895Y-102500000D01*
X120642105Y-102500000D01*
X121401633Y-103259528D01*
X121637950Y-103197035D01*
X121751350Y-102954322D01*
X121815219Y-102694151D01*
X121827104Y-102426518D01*
X121786548Y-102161709D01*
X121695109Y-101909900D01*
X121637950Y-101802965D01*
X121401633Y-101740472D01*
X120642105Y-102500000D01*
X120282895Y-102500000D01*
X119523367Y-101740472D01*
X119287050Y-101802965D01*
X119173650Y-102045678D01*
X119109781Y-102305849D01*
X119097896Y-102573482D01*
X119133115Y-102803442D01*
X119075578Y-102716526D01*
X118904225Y-102543693D01*
X118702446Y-102407610D01*
X118477996Y-102313507D01*
X118239500Y-102265000D01*
X117889500Y-102265000D01*
X117635500Y-102265000D01*
X117285500Y-102265000D01*
X117047004Y-102313507D01*
X116822554Y-102407610D01*
X116620775Y-102543693D01*
X116449422Y-102716526D01*
X116315079Y-102919467D01*
X116222909Y-103144718D01*
X116219038Y-103182391D01*
X115876444Y-103182391D01*
X115788229Y-102314909D01*
X115762748Y-101560867D01*
X119702972Y-101560867D01*
X120462500Y-102320395D01*
X121222028Y-101560867D01*
X121159535Y-101324550D01*
X120916822Y-101211150D01*
X120656651Y-101147281D01*
X120389018Y-101135396D01*
X120124209Y-101175952D01*
X119872400Y-101267391D01*
X119765465Y-101324550D01*
X119702972Y-101560867D01*
X115762748Y-101560867D01*
X115710000Y-100000000D01*
X115762747Y-98439133D01*
X119702972Y-98439133D01*
X119765465Y-98675450D01*
X120008178Y-98788850D01*
X120268349Y-98852719D01*
X120535982Y-98864604D01*
X120800791Y-98824048D01*
X121052600Y-98732609D01*
X121159535Y-98675450D01*
X121222028Y-98439133D01*
X120462500Y-97679605D01*
X119702972Y-98439133D01*
X115762747Y-98439133D01*
X115788229Y-97685091D01*
X115876443Y-96817609D01*
X116219038Y-96817609D01*
X116222909Y-96855282D01*
X116315079Y-97080533D01*
X116449422Y-97283474D01*
X116620775Y-97456307D01*
X116822554Y-97592390D01*
X117047004Y-97686493D01*
X117285500Y-97735000D01*
X117635500Y-97735000D01*
X117635500Y-96627000D01*
X117889500Y-96627000D01*
X117889500Y-97735000D01*
X118239500Y-97735000D01*
X118477996Y-97686493D01*
X118702446Y-97592390D01*
X118904225Y-97456307D01*
X119075578Y-97283474D01*
X119138671Y-97188164D01*
X119109781Y-97305849D01*
X119097896Y-97573482D01*
X119138452Y-97838291D01*
X119229891Y-98090100D01*
X119287050Y-98197035D01*
X119523367Y-98259528D01*
X120282895Y-97500000D01*
X120642105Y-97500000D01*
X121401633Y-98259528D01*
X121637950Y-98197035D01*
X121751350Y-97954322D01*
X121815219Y-97694151D01*
X121827104Y-97426518D01*
X121786548Y-97161709D01*
X121695109Y-96909900D01*
X121637950Y-96802965D01*
X121401633Y-96740472D01*
X120642105Y-97500000D01*
X120282895Y-97500000D01*
X119523367Y-96740472D01*
X119295003Y-96800862D01*
X119181231Y-96627000D01*
X117889500Y-96627000D01*
X117635500Y-96627000D01*
X116343769Y-96627000D01*
X116219038Y-96817609D01*
X115876443Y-96817609D01*
X115902550Y-96560867D01*
X119702972Y-96560867D01*
X120462500Y-97320395D01*
X121222028Y-96560867D01*
X121159535Y-96324550D01*
X120916822Y-96211150D01*
X120656651Y-96147281D01*
X120389018Y-96135396D01*
X120124209Y-96175952D01*
X119872400Y-96267391D01*
X119765465Y-96324550D01*
X119702972Y-96560867D01*
X115902550Y-96560867D01*
X115941038Y-96182391D01*
X116219038Y-96182391D01*
X116343769Y-96373000D01*
X117635500Y-96373000D01*
X117635500Y-95265000D01*
X117889500Y-95265000D01*
X117889500Y-96373000D01*
X119181231Y-96373000D01*
X119305962Y-96182391D01*
X119302091Y-96144718D01*
X119209921Y-95919467D01*
X119075578Y-95716526D01*
X118904225Y-95543693D01*
X118702446Y-95407610D01*
X118477996Y-95313507D01*
X118239500Y-95265000D01*
X117889500Y-95265000D01*
X117635500Y-95265000D01*
X117285500Y-95265000D01*
X117047004Y-95313507D01*
X116822554Y-95407610D01*
X116620775Y-95543693D01*
X116449422Y-95716526D01*
X116315079Y-95919467D01*
X116222909Y-96144718D01*
X116219038Y-96182391D01*
X115941038Y-96182391D01*
X116022558Y-95380744D01*
X116411918Y-93097474D01*
X116954533Y-90845698D01*
X117647928Y-88635692D01*
X118488937Y-86477538D01*
X119269008Y-84816891D01*
X130524519Y-84816891D01*
X130621843Y-85091252D01*
X130770822Y-85341355D01*
X130965731Y-85557588D01*
X131199080Y-85731641D01*
X131461901Y-85856825D01*
X131609110Y-85901476D01*
X131839000Y-85780155D01*
X131839000Y-84587000D01*
X130645186Y-84587000D01*
X130524519Y-84816891D01*
X119269008Y-84816891D01*
X119473724Y-84381084D01*
X119628012Y-84103109D01*
X130524519Y-84103109D01*
X130645186Y-84333000D01*
X131839000Y-84333000D01*
X131839000Y-83139845D01*
X131609110Y-83018524D01*
X131461901Y-83063175D01*
X131199080Y-83188359D01*
X130965731Y-83362412D01*
X130770822Y-83578645D01*
X130621843Y-83828748D01*
X130524519Y-84103109D01*
X119628012Y-84103109D01*
X120597795Y-82355895D01*
X121856022Y-80411213D01*
X122291076Y-79829117D01*
X128265000Y-79829117D01*
X128265000Y-80170883D01*
X128331675Y-80506081D01*
X128462463Y-80821831D01*
X128652337Y-81105998D01*
X128894002Y-81347663D01*
X129178169Y-81537537D01*
X129493919Y-81668325D01*
X129829117Y-81735000D01*
X130170883Y-81735000D01*
X130506081Y-81668325D01*
X130821831Y-81537537D01*
X131105998Y-81347663D01*
X131347663Y-81105998D01*
X131537537Y-80821831D01*
X131668325Y-80506081D01*
X131735000Y-80170883D01*
X131735000Y-79829117D01*
X131668325Y-79493919D01*
X131537537Y-79178169D01*
X131347663Y-78894002D01*
X131105998Y-78652337D01*
X130821831Y-78462463D01*
X130506081Y-78331675D01*
X130170883Y-78265000D01*
X129829117Y-78265000D01*
X129493919Y-78331675D01*
X129178169Y-78462463D01*
X128894002Y-78652337D01*
X128652337Y-78894002D01*
X128462463Y-79178169D01*
X128331675Y-79493919D01*
X128265000Y-79829117D01*
X122291076Y-79829117D01*
X123242663Y-78555910D01*
X124751392Y-76798451D01*
X126375324Y-75146855D01*
X128006400Y-73698061D01*
X137015000Y-73698061D01*
X137015000Y-73901939D01*
X137054774Y-74101898D01*
X137132795Y-74290256D01*
X137246063Y-74459774D01*
X137390226Y-74603937D01*
X137559744Y-74717205D01*
X137748102Y-74795226D01*
X137948061Y-74835000D01*
X138151939Y-74835000D01*
X138351898Y-74795226D01*
X138540256Y-74717205D01*
X138709774Y-74603937D01*
X138753711Y-74560000D01*
X142085199Y-74560000D01*
X144365000Y-76839802D01*
X144365000Y-76901939D01*
X144404774Y-77101898D01*
X144482795Y-77290256D01*
X144596063Y-77459774D01*
X144740226Y-77603937D01*
X144909744Y-77717205D01*
X145098102Y-77795226D01*
X145298061Y-77835000D01*
X145501939Y-77835000D01*
X145701898Y-77795226D01*
X145890256Y-77717205D01*
X146059774Y-77603937D01*
X146165650Y-77498061D01*
X152215000Y-77498061D01*
X152215000Y-77701939D01*
X152254774Y-77901898D01*
X152332795Y-78090256D01*
X152446063Y-78259774D01*
X152590226Y-78403937D01*
X152759744Y-78517205D01*
X152948102Y-78595226D01*
X153148061Y-78635000D01*
X153351939Y-78635000D01*
X153551898Y-78595226D01*
X153740256Y-78517205D01*
X153909774Y-78403937D01*
X154053937Y-78259774D01*
X154167205Y-78090256D01*
X154245226Y-77901898D01*
X154285000Y-77701939D01*
X154285000Y-77639802D01*
X154314800Y-77610002D01*
X165446289Y-77610002D01*
X165490226Y-77653939D01*
X165659744Y-77767207D01*
X165848102Y-77845228D01*
X166048061Y-77885002D01*
X166251939Y-77885002D01*
X166451898Y-77845228D01*
X166640256Y-77767207D01*
X166809774Y-77653939D01*
X166953937Y-77509776D01*
X167067205Y-77340258D01*
X167145226Y-77151900D01*
X167185000Y-76951941D01*
X167185000Y-76748063D01*
X167145226Y-76548104D01*
X167067205Y-76359746D01*
X166953937Y-76190228D01*
X166809774Y-76046065D01*
X166640256Y-75932797D01*
X166451898Y-75854776D01*
X166251939Y-75815002D01*
X166048061Y-75815002D01*
X165848102Y-75854776D01*
X165659744Y-75932797D01*
X165490226Y-76046065D01*
X165446289Y-76090002D01*
X154037320Y-76090002D01*
X153999997Y-76086326D01*
X153962674Y-76090002D01*
X153962665Y-76090002D01*
X153851012Y-76100999D01*
X153707751Y-76144456D01*
X153575722Y-76215028D01*
X153459997Y-76310001D01*
X153436199Y-76339000D01*
X153210198Y-76565000D01*
X153148061Y-76565000D01*
X152948102Y-76604774D01*
X152759744Y-76682795D01*
X152590226Y-76796063D01*
X152446063Y-76940226D01*
X152332795Y-77109744D01*
X152254774Y-77298102D01*
X152215000Y-77498061D01*
X146165650Y-77498061D01*
X146203937Y-77459774D01*
X146317205Y-77290256D01*
X146395226Y-77101898D01*
X146435000Y-76901939D01*
X146435000Y-76698061D01*
X146395226Y-76498102D01*
X146317205Y-76309744D01*
X146203937Y-76140226D01*
X146059774Y-75996063D01*
X145890256Y-75882795D01*
X145701898Y-75804774D01*
X145501939Y-75765000D01*
X145439802Y-75765000D01*
X142963804Y-73289003D01*
X142940001Y-73259999D01*
X142824276Y-73165026D01*
X142692247Y-73094454D01*
X142548986Y-73050997D01*
X142437333Y-73040000D01*
X142437322Y-73040000D01*
X142400000Y-73036324D01*
X142362678Y-73040000D01*
X138753711Y-73040000D01*
X138709774Y-72996063D01*
X138540256Y-72882795D01*
X138351898Y-72804774D01*
X138151939Y-72765000D01*
X137948061Y-72765000D01*
X137748102Y-72804774D01*
X137559744Y-72882795D01*
X137390226Y-72996063D01*
X137246063Y-73140226D01*
X137132795Y-73309744D01*
X137054774Y-73498102D01*
X137015000Y-73698061D01*
X128006400Y-73698061D01*
X128107051Y-73608659D01*
X129938670Y-72190880D01*
X130182816Y-72027000D01*
X148215000Y-72027000D01*
X148215000Y-72302000D01*
X148263507Y-72540496D01*
X148357610Y-72764946D01*
X148493693Y-72966725D01*
X148666526Y-73138078D01*
X148869467Y-73272421D01*
X149094718Y-73364591D01*
X149132391Y-73368462D01*
X149323000Y-73243731D01*
X149323000Y-72027000D01*
X148215000Y-72027000D01*
X130182816Y-72027000D01*
X130970913Y-71498000D01*
X148215000Y-71498000D01*
X148215000Y-71773000D01*
X149323000Y-71773000D01*
X149323000Y-70556269D01*
X149577000Y-70556269D01*
X149577000Y-71773000D01*
X149597000Y-71773000D01*
X149597000Y-72027000D01*
X149577000Y-72027000D01*
X149577000Y-73243731D01*
X149767609Y-73368462D01*
X149805282Y-73364591D01*
X150030533Y-73272421D01*
X150233474Y-73138078D01*
X150359033Y-73013594D01*
X150361595Y-73018387D01*
X150472038Y-73152962D01*
X150606613Y-73263405D01*
X150760149Y-73345472D01*
X150926745Y-73396008D01*
X151099999Y-73413072D01*
X151800001Y-73413072D01*
X151973255Y-73396008D01*
X152139851Y-73345472D01*
X152293387Y-73263405D01*
X152427962Y-73152962D01*
X152538405Y-73018387D01*
X152620472Y-72864851D01*
X152671008Y-72698255D01*
X152688072Y-72525001D01*
X152688072Y-71274999D01*
X152671008Y-71101745D01*
X152620472Y-70935149D01*
X152538405Y-70781613D01*
X152427962Y-70647038D01*
X152293387Y-70536595D01*
X152139851Y-70454528D01*
X151973255Y-70403992D01*
X151800001Y-70386928D01*
X151099999Y-70386928D01*
X150926745Y-70403992D01*
X150760149Y-70454528D01*
X150606613Y-70536595D01*
X150472038Y-70647038D01*
X150361595Y-70781613D01*
X150359033Y-70786406D01*
X150233474Y-70661922D01*
X150030533Y-70527579D01*
X149805282Y-70435409D01*
X149767609Y-70431538D01*
X149577000Y-70556269D01*
X149323000Y-70556269D01*
X149132391Y-70431538D01*
X149094718Y-70435409D01*
X148869467Y-70527579D01*
X148666526Y-70661922D01*
X148493693Y-70833275D01*
X148357610Y-71035054D01*
X148263507Y-71259504D01*
X148215000Y-71498000D01*
X130970913Y-71498000D01*
X131861824Y-70899988D01*
X133867739Y-69741873D01*
X135947261Y-68721819D01*
X138090903Y-67844479D01*
X140288883Y-67113858D01*
X142531173Y-66533289D01*
X144807542Y-66105421D01*
X147107602Y-65832206D01*
X149420860Y-65714891D01*
X151736760Y-65754011D01*
G04 #@! TA.AperFunction,Conductor*
D23*
G36*
X151736760Y-65754011D02*
G01*
X154044736Y-65949387D01*
X156334256Y-66300129D01*
X158594875Y-66804636D01*
X160816278Y-67460605D01*
X162988328Y-68265044D01*
X165101115Y-69214282D01*
X167145000Y-70303989D01*
X169110656Y-71529192D01*
X170989114Y-72884300D01*
X172771804Y-74363131D01*
X174450591Y-75958937D01*
X175042993Y-76603606D01*
X171095576Y-78645374D01*
X170821831Y-78462463D01*
X170506081Y-78331675D01*
X170170883Y-78265000D01*
X169829117Y-78265000D01*
X169493919Y-78331675D01*
X169178169Y-78462463D01*
X168894002Y-78652337D01*
X168652337Y-78894002D01*
X168462463Y-79178169D01*
X168331675Y-79493919D01*
X168265000Y-79829117D01*
X168265000Y-80109465D01*
X162688106Y-82994065D01*
X162592260Y-82975000D01*
X162299740Y-82975000D01*
X162012842Y-83032068D01*
X161742589Y-83144010D01*
X161499368Y-83306525D01*
X161292525Y-83513368D01*
X161176000Y-83687760D01*
X161059475Y-83513368D01*
X160852632Y-83306525D01*
X160609411Y-83144010D01*
X160339158Y-83032068D01*
X160052260Y-82975000D01*
X159759740Y-82975000D01*
X159472842Y-83032068D01*
X159202589Y-83144010D01*
X158959368Y-83306525D01*
X158752525Y-83513368D01*
X158636000Y-83687760D01*
X158519475Y-83513368D01*
X158312632Y-83306525D01*
X158069411Y-83144010D01*
X157799158Y-83032068D01*
X157512260Y-82975000D01*
X157219740Y-82975000D01*
X156932842Y-83032068D01*
X156662589Y-83144010D01*
X156419368Y-83306525D01*
X156212525Y-83513368D01*
X156096000Y-83687760D01*
X155979475Y-83513368D01*
X155772632Y-83306525D01*
X155529411Y-83144010D01*
X155259158Y-83032068D01*
X154972260Y-82975000D01*
X154679740Y-82975000D01*
X154392842Y-83032068D01*
X154122589Y-83144010D01*
X153879368Y-83306525D01*
X153672525Y-83513368D01*
X153556000Y-83687760D01*
X153439475Y-83513368D01*
X153232632Y-83306525D01*
X152989411Y-83144010D01*
X152719158Y-83032068D01*
X152432260Y-82975000D01*
X152139740Y-82975000D01*
X151852842Y-83032068D01*
X151582589Y-83144010D01*
X151339368Y-83306525D01*
X151132525Y-83513368D01*
X151016000Y-83687760D01*
X150899475Y-83513368D01*
X150692632Y-83306525D01*
X150449411Y-83144010D01*
X150179158Y-83032068D01*
X149892260Y-82975000D01*
X149599740Y-82975000D01*
X149312842Y-83032068D01*
X149042589Y-83144010D01*
X148799368Y-83306525D01*
X148592525Y-83513368D01*
X148476000Y-83687760D01*
X148359475Y-83513368D01*
X148152632Y-83306525D01*
X147909411Y-83144010D01*
X147639158Y-83032068D01*
X147352260Y-82975000D01*
X147059740Y-82975000D01*
X146772842Y-83032068D01*
X146502589Y-83144010D01*
X146259368Y-83306525D01*
X146052525Y-83513368D01*
X145936000Y-83687760D01*
X145819475Y-83513368D01*
X145612632Y-83306525D01*
X145369411Y-83144010D01*
X145099158Y-83032068D01*
X144812260Y-82975000D01*
X144519740Y-82975000D01*
X144232842Y-83032068D01*
X143962589Y-83144010D01*
X143719368Y-83306525D01*
X143512525Y-83513368D01*
X143396000Y-83687760D01*
X143279475Y-83513368D01*
X143072632Y-83306525D01*
X142829411Y-83144010D01*
X142559158Y-83032068D01*
X142272260Y-82975000D01*
X141979740Y-82975000D01*
X141692842Y-83032068D01*
X141422589Y-83144010D01*
X141179368Y-83306525D01*
X140972525Y-83513368D01*
X140856000Y-83687760D01*
X140739475Y-83513368D01*
X140532632Y-83306525D01*
X140289411Y-83144010D01*
X140019158Y-83032068D01*
X139732260Y-82975000D01*
X139439740Y-82975000D01*
X139152842Y-83032068D01*
X139010000Y-83091235D01*
X139010000Y-81500700D01*
X139117205Y-81340256D01*
X139195226Y-81151898D01*
X139235000Y-80951939D01*
X139235000Y-80748061D01*
X139195226Y-80548102D01*
X139117205Y-80359744D01*
X139003937Y-80190226D01*
X138859774Y-80046063D01*
X138690256Y-79932795D01*
X138501898Y-79854774D01*
X138301939Y-79815000D01*
X138098061Y-79815000D01*
X137898102Y-79854774D01*
X137709744Y-79932795D01*
X137540226Y-80046063D01*
X137396063Y-80190226D01*
X137282795Y-80359744D01*
X137204774Y-80548102D01*
X137165000Y-80748061D01*
X137165000Y-80951939D01*
X137204774Y-81151898D01*
X137282795Y-81340256D01*
X137396063Y-81509774D01*
X137490001Y-81603712D01*
X137490001Y-83036559D01*
X137479158Y-83032068D01*
X137192260Y-82975000D01*
X136899740Y-82975000D01*
X136612842Y-83032068D01*
X136342589Y-83144010D01*
X136099368Y-83306525D01*
X135892525Y-83513368D01*
X135776000Y-83687760D01*
X135659475Y-83513368D01*
X135452632Y-83306525D01*
X135209411Y-83144010D01*
X134939158Y-83032068D01*
X134652260Y-82975000D01*
X134359740Y-82975000D01*
X134189856Y-83008792D01*
X134290256Y-82967205D01*
X134459774Y-82853937D01*
X134603937Y-82709774D01*
X134717205Y-82540256D01*
X134795226Y-82351898D01*
X134835000Y-82151939D01*
X134835000Y-81948061D01*
X134795226Y-81748102D01*
X134717205Y-81559744D01*
X134603937Y-81390226D01*
X134459774Y-81246063D01*
X134290256Y-81132795D01*
X134101898Y-81054774D01*
X133901939Y-81015000D01*
X133839802Y-81015000D01*
X133604347Y-80779546D01*
X133604347Y-78998058D01*
X133648284Y-78954121D01*
X133761552Y-78784603D01*
X133839573Y-78596245D01*
X133879347Y-78396286D01*
X133879347Y-78192408D01*
X133839573Y-77992449D01*
X133761552Y-77804091D01*
X133648284Y-77634573D01*
X133504121Y-77490410D01*
X133334603Y-77377142D01*
X133146245Y-77299121D01*
X132946286Y-77259347D01*
X132742408Y-77259347D01*
X132542449Y-77299121D01*
X132354091Y-77377142D01*
X132184573Y-77490410D01*
X132040410Y-77634573D01*
X131927142Y-77804091D01*
X131849121Y-77992449D01*
X131809347Y-78192408D01*
X131809347Y-78396286D01*
X131849121Y-78596245D01*
X131927142Y-78784603D01*
X132040410Y-78954121D01*
X132084347Y-78998058D01*
X132084348Y-81057015D01*
X132080671Y-81094347D01*
X132095345Y-81243332D01*
X132138801Y-81386593D01*
X132209373Y-81518623D01*
X132243121Y-81559744D01*
X132304347Y-81634348D01*
X132333345Y-81658146D01*
X132765000Y-82089802D01*
X132765000Y-82151939D01*
X132804774Y-82351898D01*
X132882795Y-82540256D01*
X132996063Y-82709774D01*
X133140226Y-82853937D01*
X133309744Y-82967205D01*
X133498102Y-83045226D01*
X133698061Y-83085000D01*
X133901939Y-83085000D01*
X133984884Y-83068501D01*
X133802589Y-83144010D01*
X133559368Y-83306525D01*
X133352525Y-83513368D01*
X133230805Y-83695534D01*
X133161178Y-83578645D01*
X132966269Y-83362412D01*
X132732920Y-83188359D01*
X132470099Y-83063175D01*
X132322890Y-83018524D01*
X132093000Y-83139845D01*
X132093000Y-84333000D01*
X132113000Y-84333000D01*
X132113000Y-84587000D01*
X132093000Y-84587000D01*
X132093000Y-85780155D01*
X132322890Y-85901476D01*
X132470099Y-85856825D01*
X132732920Y-85731641D01*
X132966269Y-85557588D01*
X133161178Y-85341355D01*
X133230805Y-85224466D01*
X133352525Y-85406632D01*
X133559368Y-85613475D01*
X133802589Y-85775990D01*
X134072842Y-85887932D01*
X134359740Y-85945000D01*
X134652260Y-85945000D01*
X134939158Y-85887932D01*
X135209411Y-85775990D01*
X135452632Y-85613475D01*
X135659475Y-85406632D01*
X135776000Y-85232240D01*
X135892525Y-85406632D01*
X136099368Y-85613475D01*
X136342589Y-85775990D01*
X136612842Y-85887932D01*
X136899740Y-85945000D01*
X137192260Y-85945000D01*
X137471917Y-85889372D01*
X137446063Y-85915226D01*
X137332795Y-86084744D01*
X137254774Y-86273102D01*
X137215000Y-86473061D01*
X137215000Y-86540000D01*
X130147202Y-86540000D01*
X129646203Y-86039002D01*
X129622401Y-86009999D01*
X129506676Y-85915026D01*
X129374647Y-85844454D01*
X129231386Y-85800997D01*
X129119733Y-85790000D01*
X129119722Y-85790000D01*
X129082400Y-85786324D01*
X129045078Y-85790000D01*
X124045711Y-85790000D01*
X123989774Y-85734063D01*
X123820256Y-85620795D01*
X123631898Y-85542774D01*
X123431939Y-85503000D01*
X123228061Y-85503000D01*
X123028102Y-85542774D01*
X122839744Y-85620795D01*
X122670226Y-85734063D01*
X122526063Y-85878226D01*
X122412795Y-86047744D01*
X122334774Y-86236102D01*
X122295000Y-86436061D01*
X122295000Y-86639939D01*
X122334774Y-86839898D01*
X122412795Y-87028256D01*
X122526063Y-87197774D01*
X122670226Y-87341937D01*
X122839744Y-87455205D01*
X123028102Y-87533226D01*
X123228061Y-87573000D01*
X123431939Y-87573000D01*
X123631898Y-87533226D01*
X123820256Y-87455205D01*
X123989774Y-87341937D01*
X124021711Y-87310000D01*
X128767599Y-87310000D01*
X129268601Y-87811002D01*
X129292399Y-87840001D01*
X129408124Y-87934974D01*
X129540153Y-88005546D01*
X129683414Y-88049003D01*
X129795067Y-88060000D01*
X129795076Y-88060000D01*
X129832399Y-88063676D01*
X129869722Y-88060000D01*
X139842462Y-88060000D01*
X139815000Y-88198061D01*
X139815000Y-88401939D01*
X139854774Y-88601898D01*
X139932795Y-88790256D01*
X140046063Y-88959774D01*
X140190226Y-89103937D01*
X140359744Y-89217205D01*
X140548102Y-89295226D01*
X140748061Y-89335000D01*
X140810199Y-89335000D01*
X140887486Y-89412287D01*
X134065035Y-89412287D01*
X134027712Y-89408611D01*
X133990389Y-89412287D01*
X133990380Y-89412287D01*
X133878727Y-89423284D01*
X133735466Y-89466741D01*
X133603437Y-89537313D01*
X133603435Y-89537314D01*
X133603436Y-89537314D01*
X133516709Y-89608488D01*
X133516705Y-89608492D01*
X133487712Y-89632286D01*
X133463918Y-89661279D01*
X130713946Y-92411253D01*
X125034731Y-98043796D01*
X124901898Y-97988774D01*
X124701939Y-97949000D01*
X124498061Y-97949000D01*
X124298102Y-97988774D01*
X124109744Y-98066795D01*
X123940226Y-98180063D01*
X123796063Y-98324226D01*
X123682795Y-98493744D01*
X123604774Y-98682102D01*
X123565000Y-98882061D01*
X123565000Y-99085939D01*
X123604774Y-99285898D01*
X123682795Y-99474256D01*
X123796063Y-99643774D01*
X123940226Y-99787937D01*
X124076759Y-99879165D01*
X124073000Y-99898061D01*
X124073000Y-100101939D01*
X124112774Y-100301898D01*
X124190795Y-100490256D01*
X124304063Y-100659774D01*
X124448226Y-100803937D01*
X124617744Y-100917205D01*
X124806102Y-100995226D01*
X125006061Y-101035000D01*
X125209939Y-101035000D01*
X125409898Y-100995226D01*
X125598256Y-100917205D01*
X125767774Y-100803937D01*
X125911937Y-100659774D01*
X126025205Y-100490256D01*
X126103226Y-100301898D01*
X126143000Y-100101939D01*
X126143000Y-100039801D01*
X130416053Y-95766748D01*
X132169577Y-95766748D01*
X132173254Y-95804080D01*
X132173253Y-105545931D01*
X132169577Y-105583253D01*
X132173253Y-105620575D01*
X132173253Y-105620585D01*
X132184250Y-105732238D01*
X132219261Y-105847656D01*
X132227707Y-105875499D01*
X132298279Y-106007529D01*
X132338124Y-106056079D01*
X132393252Y-106123254D01*
X132422256Y-106147057D01*
X134615000Y-108339803D01*
X134615000Y-108401939D01*
X134654774Y-108601898D01*
X134732795Y-108790256D01*
X134846063Y-108959774D01*
X134990226Y-109103937D01*
X135159744Y-109217205D01*
X135348102Y-109295226D01*
X135548061Y-109335000D01*
X135751939Y-109335000D01*
X135951898Y-109295226D01*
X136140256Y-109217205D01*
X136309774Y-109103937D01*
X136453937Y-108959774D01*
X136567205Y-108790256D01*
X136645226Y-108601898D01*
X136685000Y-108401939D01*
X136685000Y-108198061D01*
X136645226Y-107998102D01*
X136567205Y-107809744D01*
X136453937Y-107640226D01*
X136309774Y-107496063D01*
X136140256Y-107382795D01*
X135951898Y-107304774D01*
X135751939Y-107265000D01*
X135689803Y-107265000D01*
X133693253Y-105268452D01*
X133693253Y-101260589D01*
X139725000Y-101260589D01*
X139725000Y-101533411D01*
X139778225Y-101800989D01*
X139882629Y-102053043D01*
X140034201Y-102279886D01*
X140227114Y-102472799D01*
X140453957Y-102624371D01*
X140706011Y-102728775D01*
X140973589Y-102782000D01*
X141246411Y-102782000D01*
X141513989Y-102728775D01*
X141766043Y-102624371D01*
X141992886Y-102472799D01*
X142185799Y-102279886D01*
X142337371Y-102053043D01*
X142441775Y-101800989D01*
X142495000Y-101533411D01*
X142495000Y-101260589D01*
X142441775Y-100993011D01*
X142337371Y-100740957D01*
X142185799Y-100514114D01*
X141992886Y-100321201D01*
X141766043Y-100169629D01*
X141513989Y-100065225D01*
X141246411Y-100012000D01*
X140973589Y-100012000D01*
X140706011Y-100065225D01*
X140453957Y-100169629D01*
X140227114Y-100321201D01*
X140034201Y-100514114D01*
X139882629Y-100740957D01*
X139778225Y-100993011D01*
X139725000Y-101260589D01*
X133693253Y-101260589D01*
X133693253Y-98931085D01*
X133848102Y-98995226D01*
X134048061Y-99035000D01*
X134251939Y-99035000D01*
X134451898Y-98995226D01*
X134640256Y-98917205D01*
X134809774Y-98803937D01*
X134953937Y-98659774D01*
X135067205Y-98490256D01*
X135073939Y-98474000D01*
X141930289Y-98474000D01*
X141974226Y-98517937D01*
X142143744Y-98631205D01*
X142332102Y-98709226D01*
X142532061Y-98749000D01*
X142735939Y-98749000D01*
X142935898Y-98709226D01*
X143124256Y-98631205D01*
X143293774Y-98517937D01*
X143437937Y-98373774D01*
X143551205Y-98204256D01*
X143629226Y-98015898D01*
X143669000Y-97815939D01*
X143669000Y-97612061D01*
X143629226Y-97412102D01*
X143551205Y-97223744D01*
X143437937Y-97054226D01*
X143293774Y-96910063D01*
X143124256Y-96796795D01*
X142935898Y-96718774D01*
X142735939Y-96679000D01*
X142532061Y-96679000D01*
X142332102Y-96718774D01*
X142143744Y-96796795D01*
X141974226Y-96910063D01*
X141930289Y-96954000D01*
X134473322Y-96954000D01*
X134435999Y-96950324D01*
X134398676Y-96954000D01*
X134398667Y-96954000D01*
X134287014Y-96964997D01*
X134273117Y-96969213D01*
X134251939Y-96965000D01*
X134048061Y-96965000D01*
X133848102Y-97004774D01*
X133693253Y-97068915D01*
X133693253Y-96081549D01*
X135889803Y-93885000D01*
X135951940Y-93885000D01*
X136151899Y-93845226D01*
X136340257Y-93767205D01*
X136509775Y-93653937D01*
X136653938Y-93509774D01*
X136767206Y-93340256D01*
X136845227Y-93151898D01*
X136885001Y-92951939D01*
X136885001Y-92748061D01*
X136845227Y-92548102D01*
X136767206Y-92359744D01*
X136653938Y-92190226D01*
X136509775Y-92046063D01*
X136340257Y-91932795D01*
X136151899Y-91854774D01*
X135951940Y-91815000D01*
X135748062Y-91815000D01*
X135548103Y-91854774D01*
X135359745Y-91932795D01*
X135190227Y-92046063D01*
X135046064Y-92190226D01*
X134932796Y-92359744D01*
X134854775Y-92548102D01*
X134815001Y-92748061D01*
X134815001Y-92810198D01*
X132422251Y-95202949D01*
X132393253Y-95226747D01*
X132369455Y-95255745D01*
X132369454Y-95255746D01*
X132298279Y-95342472D01*
X132227707Y-95474502D01*
X132206719Y-95543693D01*
X132184251Y-95617762D01*
X132173254Y-95729415D01*
X132169577Y-95766748D01*
X130416053Y-95766748D01*
X134646013Y-91536789D01*
X140896287Y-91536789D01*
X143370500Y-94011003D01*
X143394298Y-94040001D01*
X143423296Y-94063799D01*
X143510022Y-94134974D01*
X143642052Y-94205546D01*
X143785260Y-94248987D01*
X143840210Y-94303937D01*
X144009728Y-94417205D01*
X144198086Y-94495226D01*
X144398045Y-94535000D01*
X144601923Y-94535000D01*
X144801882Y-94495226D01*
X144990240Y-94417205D01*
X145159758Y-94303937D01*
X145303921Y-94159774D01*
X145417189Y-93990256D01*
X145431326Y-93956127D01*
X147190001Y-95714803D01*
X147190000Y-100496289D01*
X147146063Y-100540226D01*
X147032795Y-100709744D01*
X146954774Y-100898102D01*
X146915000Y-101098061D01*
X146915000Y-101301939D01*
X146954774Y-101501898D01*
X147032795Y-101690256D01*
X147146063Y-101859774D01*
X147290226Y-102003937D01*
X147459744Y-102117205D01*
X147648102Y-102195226D01*
X147848061Y-102235000D01*
X148051939Y-102235000D01*
X148251898Y-102195226D01*
X148440256Y-102117205D01*
X148609774Y-102003937D01*
X148753937Y-101859774D01*
X148867205Y-101690256D01*
X148945226Y-101501898D01*
X148985000Y-101301939D01*
X148985000Y-101098061D01*
X148945226Y-100898102D01*
X148867205Y-100709744D01*
X148753937Y-100540226D01*
X148710000Y-100496289D01*
X148710000Y-99985339D01*
X148773061Y-99997883D01*
X148976939Y-99997883D01*
X149176898Y-99958109D01*
X149365256Y-99880088D01*
X149534774Y-99766820D01*
X149578711Y-99722883D01*
X150690003Y-99722883D01*
X150641927Y-99838949D01*
X150602153Y-100038908D01*
X150602153Y-100242786D01*
X150641927Y-100442745D01*
X150719948Y-100631103D01*
X150833216Y-100800621D01*
X150884442Y-100851847D01*
X150846063Y-100890226D01*
X150732795Y-101059744D01*
X150654774Y-101248102D01*
X150615000Y-101448061D01*
X150615000Y-101651939D01*
X150654774Y-101851898D01*
X150732795Y-102040256D01*
X150846063Y-102209774D01*
X150990226Y-102353937D01*
X151159744Y-102467205D01*
X151348102Y-102545226D01*
X151548061Y-102585000D01*
X151739998Y-102585000D01*
X152900080Y-103491837D01*
X152978999Y-103588001D01*
X153094724Y-103682974D01*
X153226753Y-103753546D01*
X153370014Y-103797003D01*
X153481667Y-103808000D01*
X153519000Y-103811677D01*
X153556333Y-103808000D01*
X156477000Y-103808000D01*
X156477000Y-113208000D01*
X156477792Y-113222157D01*
X156482978Y-113246507D01*
X156492816Y-113269377D01*
X156506927Y-113289889D01*
X156524768Y-113307253D01*
X156545653Y-113320804D01*
X156949031Y-113529448D01*
X156932842Y-113532668D01*
X156662589Y-113644610D01*
X156419368Y-113807125D01*
X156212525Y-114013968D01*
X156096000Y-114188360D01*
X155979475Y-114013968D01*
X155772632Y-113807125D01*
X155529411Y-113644610D01*
X155259158Y-113532668D01*
X154972260Y-113475600D01*
X154679740Y-113475600D01*
X154392842Y-113532668D01*
X154122589Y-113644610D01*
X153879368Y-113807125D01*
X153672525Y-114013968D01*
X153556000Y-114188360D01*
X153439475Y-114013968D01*
X153232632Y-113807125D01*
X152989411Y-113644610D01*
X152719158Y-113532668D01*
X152432260Y-113475600D01*
X152139740Y-113475600D01*
X151852842Y-113532668D01*
X151582589Y-113644610D01*
X151339368Y-113807125D01*
X151132525Y-114013968D01*
X151016000Y-114188360D01*
X150899475Y-114013968D01*
X150692632Y-113807125D01*
X150449411Y-113644610D01*
X150179158Y-113532668D01*
X149892260Y-113475600D01*
X149599740Y-113475600D01*
X149312842Y-113532668D01*
X149042589Y-113644610D01*
X148799368Y-113807125D01*
X148592525Y-114013968D01*
X148476000Y-114188360D01*
X148359475Y-114013968D01*
X148152632Y-113807125D01*
X147909411Y-113644610D01*
X147639158Y-113532668D01*
X147352260Y-113475600D01*
X147059740Y-113475600D01*
X146772842Y-113532668D01*
X146502589Y-113644610D01*
X146259368Y-113807125D01*
X146052525Y-114013968D01*
X145936000Y-114188360D01*
X145819475Y-114013968D01*
X145612632Y-113807125D01*
X145369411Y-113644610D01*
X145099158Y-113532668D01*
X144812260Y-113475600D01*
X144519740Y-113475600D01*
X144260000Y-113527266D01*
X144260000Y-107754601D01*
X144897601Y-107117001D01*
X144926599Y-107093203D01*
X144990348Y-107015525D01*
X145021572Y-106977479D01*
X145092144Y-106845449D01*
X145135601Y-106702188D01*
X145146598Y-106590535D01*
X145146598Y-106590525D01*
X145150274Y-106553202D01*
X145146598Y-106515879D01*
X145146598Y-104891306D01*
X145253005Y-104732056D01*
X145331026Y-104543698D01*
X145370800Y-104343739D01*
X145370800Y-104139861D01*
X145331026Y-103939902D01*
X145253005Y-103751544D01*
X145139737Y-103582026D01*
X144995574Y-103437863D01*
X144826056Y-103324595D01*
X144637698Y-103246574D01*
X144437739Y-103206800D01*
X144405600Y-103206800D01*
X144405600Y-103073061D01*
X144365826Y-102873102D01*
X144287805Y-102684744D01*
X144174537Y-102515226D01*
X144030374Y-102371063D01*
X143860856Y-102257795D01*
X143672498Y-102179774D01*
X143472539Y-102140000D01*
X143268661Y-102140000D01*
X143068702Y-102179774D01*
X142880344Y-102257795D01*
X142710826Y-102371063D01*
X142566663Y-102515226D01*
X142453395Y-102684744D01*
X142375374Y-102873102D01*
X142335600Y-103073061D01*
X142335600Y-103276939D01*
X142375374Y-103476898D01*
X142453395Y-103665256D01*
X142566663Y-103834774D01*
X142610601Y-103878712D01*
X142610600Y-105552598D01*
X142397376Y-105765822D01*
X142337371Y-105620957D01*
X142185799Y-105394114D01*
X141992886Y-105201201D01*
X141766043Y-105049629D01*
X141513989Y-104945225D01*
X141246411Y-104892000D01*
X140973589Y-104892000D01*
X140706011Y-104945225D01*
X140453957Y-105049629D01*
X140227114Y-105201201D01*
X140034201Y-105394114D01*
X139882629Y-105620957D01*
X139778225Y-105873011D01*
X139725000Y-106140589D01*
X139725000Y-106413411D01*
X139778225Y-106680989D01*
X139882629Y-106933043D01*
X140034201Y-107159886D01*
X140227114Y-107352799D01*
X140453957Y-107504371D01*
X140598823Y-107564376D01*
X140440002Y-107723197D01*
X140410998Y-107747000D01*
X140359506Y-107809744D01*
X140316025Y-107862725D01*
X140253446Y-107979801D01*
X140245453Y-107994755D01*
X140201996Y-108138016D01*
X140190999Y-108249669D01*
X140190999Y-108249679D01*
X140187323Y-108287001D01*
X140190999Y-108324323D01*
X140190999Y-113603847D01*
X140019158Y-113532668D01*
X139732260Y-113475600D01*
X139439740Y-113475600D01*
X139152842Y-113532668D01*
X138882589Y-113644610D01*
X138639368Y-113807125D01*
X138432525Y-114013968D01*
X138316000Y-114188360D01*
X138199475Y-114013968D01*
X137992632Y-113807125D01*
X137749411Y-113644610D01*
X137479158Y-113532668D01*
X137192260Y-113475600D01*
X136899740Y-113475600D01*
X136612842Y-113532668D01*
X136342589Y-113644610D01*
X136099368Y-113807125D01*
X135892525Y-114013968D01*
X135770805Y-114196134D01*
X135701178Y-114079245D01*
X135506269Y-113863012D01*
X135272920Y-113688959D01*
X135010099Y-113563775D01*
X134862890Y-113519124D01*
X134633000Y-113640445D01*
X134633000Y-114833600D01*
X134653000Y-114833600D01*
X134653000Y-115087600D01*
X134633000Y-115087600D01*
X134633000Y-116280755D01*
X134862890Y-116402076D01*
X135010099Y-116357425D01*
X135272920Y-116232241D01*
X135506269Y-116058188D01*
X135701178Y-115841955D01*
X135770805Y-115725066D01*
X135892525Y-115907232D01*
X136099368Y-116114075D01*
X136342589Y-116276590D01*
X136612842Y-116388532D01*
X136899740Y-116445600D01*
X137192260Y-116445600D01*
X137479158Y-116388532D01*
X137749411Y-116276590D01*
X137992632Y-116114075D01*
X138199475Y-115907232D01*
X138316000Y-115732840D01*
X138432525Y-115907232D01*
X138639368Y-116114075D01*
X138882589Y-116276590D01*
X139152842Y-116388532D01*
X139439740Y-116445600D01*
X139732260Y-116445600D01*
X140019158Y-116388532D01*
X140191000Y-116317353D01*
X140191000Y-120395289D01*
X140146063Y-120440226D01*
X140032795Y-120609744D01*
X139954774Y-120798102D01*
X139915000Y-120998061D01*
X139915000Y-121201939D01*
X139954774Y-121401898D01*
X140032795Y-121590256D01*
X140146063Y-121759774D01*
X140290226Y-121903937D01*
X140459744Y-122017205D01*
X140648102Y-122095226D01*
X140848061Y-122135000D01*
X141051939Y-122135000D01*
X141251898Y-122095226D01*
X141440256Y-122017205D01*
X141609774Y-121903937D01*
X141753937Y-121759774D01*
X141867205Y-121590256D01*
X141945226Y-121401898D01*
X141985000Y-121201939D01*
X141985000Y-120998061D01*
X141945226Y-120798102D01*
X141867205Y-120609744D01*
X141753937Y-120440226D01*
X141710999Y-120397288D01*
X141710999Y-116392144D01*
X141979740Y-116445600D01*
X142272260Y-116445600D01*
X142559158Y-116388532D01*
X142740000Y-116313625D01*
X142740001Y-125974668D01*
X142736324Y-126012000D01*
X142750998Y-126160985D01*
X142794454Y-126304246D01*
X142865026Y-126436276D01*
X142936201Y-126523002D01*
X142960000Y-126552001D01*
X142988998Y-126575799D01*
X143732791Y-127319592D01*
X143689000Y-127539740D01*
X143689000Y-127832260D01*
X143746068Y-128119158D01*
X143858010Y-128389411D01*
X144020525Y-128632632D01*
X144152380Y-128764487D01*
X144079820Y-128786498D01*
X143969506Y-128845463D01*
X143872815Y-128924815D01*
X143793463Y-129021506D01*
X143734498Y-129131820D01*
X143698188Y-129251518D01*
X143685928Y-129376000D01*
X143685928Y-131076000D01*
X143698188Y-131200482D01*
X143734498Y-131320180D01*
X143793463Y-131430494D01*
X143872815Y-131527185D01*
X143969506Y-131606537D01*
X144079820Y-131665502D01*
X144199518Y-131701812D01*
X144324000Y-131714072D01*
X146024000Y-131714072D01*
X146148482Y-131701812D01*
X146268180Y-131665502D01*
X146378494Y-131606537D01*
X146475185Y-131527185D01*
X146554537Y-131430494D01*
X146613502Y-131320180D01*
X146637966Y-131239534D01*
X146713731Y-131323588D01*
X146947080Y-131497641D01*
X147209901Y-131622825D01*
X147357110Y-131667476D01*
X147587000Y-131546155D01*
X147587000Y-130353000D01*
X147841000Y-130353000D01*
X147841000Y-131546155D01*
X148070890Y-131667476D01*
X148218099Y-131622825D01*
X148480920Y-131497641D01*
X148714269Y-131323588D01*
X148909178Y-131107355D01*
X148984000Y-130981745D01*
X149058822Y-131107355D01*
X149253731Y-131323588D01*
X149487080Y-131497641D01*
X149749901Y-131622825D01*
X149897110Y-131667476D01*
X150127000Y-131546155D01*
X150127000Y-130353000D01*
X147841000Y-130353000D01*
X147587000Y-130353000D01*
X147567000Y-130353000D01*
X147567000Y-130099000D01*
X147587000Y-130099000D01*
X147587000Y-130079000D01*
X147841000Y-130079000D01*
X147841000Y-130099000D01*
X150127000Y-130099000D01*
X150127000Y-130079000D01*
X150381000Y-130079000D01*
X150381000Y-130099000D01*
X150401000Y-130099000D01*
X150401000Y-130353000D01*
X150381000Y-130353000D01*
X150381000Y-131546155D01*
X150610890Y-131667476D01*
X150758099Y-131622825D01*
X151020920Y-131497641D01*
X151254269Y-131323588D01*
X151449178Y-131107355D01*
X151518805Y-130990466D01*
X151640525Y-131172632D01*
X151847368Y-131379475D01*
X152090589Y-131541990D01*
X152360842Y-131653932D01*
X152647740Y-131711000D01*
X152940260Y-131711000D01*
X153227158Y-131653932D01*
X153497411Y-131541990D01*
X153740632Y-131379475D01*
X153947475Y-131172632D01*
X154069195Y-130990466D01*
X154138822Y-131107355D01*
X154333731Y-131323588D01*
X154567080Y-131497641D01*
X154829901Y-131622825D01*
X154977110Y-131667476D01*
X155207000Y-131546155D01*
X155207000Y-130353000D01*
X155461000Y-130353000D01*
X155461000Y-131546155D01*
X155690890Y-131667476D01*
X155838099Y-131622825D01*
X156100920Y-131497641D01*
X156334269Y-131323588D01*
X156529178Y-131107355D01*
X156678157Y-130857252D01*
X156775481Y-130582891D01*
X156654814Y-130353000D01*
X155461000Y-130353000D01*
X155207000Y-130353000D01*
X155187000Y-130353000D01*
X155187000Y-130099000D01*
X155207000Y-130099000D01*
X155207000Y-130079000D01*
X155461000Y-130079000D01*
X155461000Y-130099000D01*
X156654814Y-130099000D01*
X156775481Y-129869109D01*
X156678157Y-129594748D01*
X156529178Y-129344645D01*
X156334269Y-129128412D01*
X156104594Y-128957100D01*
X156280632Y-128839475D01*
X156487475Y-128632632D01*
X156649990Y-128389411D01*
X156761932Y-128119158D01*
X156819000Y-127832260D01*
X156819000Y-127539740D01*
X156761932Y-127252842D01*
X156649990Y-126982589D01*
X156487475Y-126739368D01*
X156280632Y-126532525D01*
X156037411Y-126370010D01*
X155767158Y-126258068D01*
X155480260Y-126201000D01*
X155187740Y-126201000D01*
X154900842Y-126258068D01*
X154630589Y-126370010D01*
X154387368Y-126532525D01*
X154180525Y-126739368D01*
X154064000Y-126913760D01*
X153947475Y-126739368D01*
X153740632Y-126532525D01*
X153497411Y-126370010D01*
X153227158Y-126258068D01*
X152940260Y-126201000D01*
X152647740Y-126201000D01*
X152360842Y-126258068D01*
X152090589Y-126370010D01*
X151847368Y-126532525D01*
X151640525Y-126739368D01*
X151524000Y-126913760D01*
X151407475Y-126739368D01*
X151200632Y-126532525D01*
X150957411Y-126370010D01*
X150687158Y-126258068D01*
X150400260Y-126201000D01*
X150107740Y-126201000D01*
X149820842Y-126258068D01*
X149550589Y-126370010D01*
X149307368Y-126532525D01*
X149100525Y-126739368D01*
X148984000Y-126913760D01*
X148867475Y-126739368D01*
X148660632Y-126532525D01*
X148417411Y-126370010D01*
X148147158Y-126258068D01*
X147860260Y-126201000D01*
X147567740Y-126201000D01*
X147280842Y-126258068D01*
X147010589Y-126370010D01*
X146767368Y-126532525D01*
X146560525Y-126739368D01*
X146444000Y-126913760D01*
X146327475Y-126739368D01*
X146120632Y-126532525D01*
X145877411Y-126370010D01*
X145607158Y-126258068D01*
X145320260Y-126201000D01*
X145027740Y-126201000D01*
X144807592Y-126244791D01*
X144260000Y-125697199D01*
X144260000Y-121998061D01*
X152515000Y-121998061D01*
X152515000Y-122201939D01*
X152554774Y-122401898D01*
X152632795Y-122590256D01*
X152746063Y-122759774D01*
X152890226Y-122903937D01*
X153059744Y-123017205D01*
X153248102Y-123095226D01*
X153448061Y-123135000D01*
X153651939Y-123135000D01*
X153851898Y-123095226D01*
X154040256Y-123017205D01*
X154209774Y-122903937D01*
X154353937Y-122759774D01*
X154467205Y-122590256D01*
X154545226Y-122401898D01*
X154585000Y-122201939D01*
X154585000Y-121998061D01*
X154545226Y-121798102D01*
X154467205Y-121609744D01*
X154360000Y-121449300D01*
X154360000Y-119703711D01*
X154403937Y-119659774D01*
X154517205Y-119490256D01*
X154595226Y-119301898D01*
X154635000Y-119101939D01*
X154635000Y-118898061D01*
X154595226Y-118698102D01*
X154517205Y-118509744D01*
X154403937Y-118340226D01*
X154259774Y-118196063D01*
X154090256Y-118082795D01*
X153901898Y-118004774D01*
X153701939Y-117965000D01*
X153498061Y-117965000D01*
X153298102Y-118004774D01*
X153109744Y-118082795D01*
X152940226Y-118196063D01*
X152796063Y-118340226D01*
X152682795Y-118509744D01*
X152604774Y-118698102D01*
X152565000Y-118898061D01*
X152565000Y-119101939D01*
X152604774Y-119301898D01*
X152682795Y-119490256D01*
X152796063Y-119659774D01*
X152840000Y-119703711D01*
X152840001Y-121346288D01*
X152746063Y-121440226D01*
X152632795Y-121609744D01*
X152554774Y-121798102D01*
X152515000Y-121998061D01*
X144260000Y-121998061D01*
X144260000Y-116393934D01*
X144519740Y-116445600D01*
X144812260Y-116445600D01*
X145099158Y-116388532D01*
X145369411Y-116276590D01*
X145612632Y-116114075D01*
X145819475Y-115907232D01*
X145936000Y-115732840D01*
X146052525Y-115907232D01*
X146259368Y-116114075D01*
X146502589Y-116276590D01*
X146772842Y-116388532D01*
X147059740Y-116445600D01*
X147352260Y-116445600D01*
X147639158Y-116388532D01*
X147909411Y-116276590D01*
X148152632Y-116114075D01*
X148359475Y-115907232D01*
X148476000Y-115732840D01*
X148592525Y-115907232D01*
X148799368Y-116114075D01*
X149042589Y-116276590D01*
X149312842Y-116388532D01*
X149599740Y-116445600D01*
X149892260Y-116445600D01*
X150179158Y-116388532D01*
X150449411Y-116276590D01*
X150692632Y-116114075D01*
X150899475Y-115907232D01*
X151016000Y-115732840D01*
X151132525Y-115907232D01*
X151339368Y-116114075D01*
X151582589Y-116276590D01*
X151852842Y-116388532D01*
X152139740Y-116445600D01*
X152432260Y-116445600D01*
X152719158Y-116388532D01*
X152989411Y-116276590D01*
X153232632Y-116114075D01*
X153439475Y-115907232D01*
X153556000Y-115732840D01*
X153672525Y-115907232D01*
X153879368Y-116114075D01*
X154122589Y-116276590D01*
X154392842Y-116388532D01*
X154679740Y-116445600D01*
X154972260Y-116445600D01*
X155259158Y-116388532D01*
X155529411Y-116276590D01*
X155772632Y-116114075D01*
X155979475Y-115907232D01*
X156096000Y-115732840D01*
X156212525Y-115907232D01*
X156419368Y-116114075D01*
X156662589Y-116276590D01*
X156932842Y-116388532D01*
X157219740Y-116445600D01*
X157512260Y-116445600D01*
X157799158Y-116388532D01*
X158069411Y-116276590D01*
X158312632Y-116114075D01*
X158519475Y-115907232D01*
X158636000Y-115732840D01*
X158752525Y-115907232D01*
X158959368Y-116114075D01*
X159202589Y-116276590D01*
X159472842Y-116388532D01*
X159759740Y-116445600D01*
X160052260Y-116445600D01*
X160339158Y-116388532D01*
X160609411Y-116276590D01*
X160852632Y-116114075D01*
X161059475Y-115907232D01*
X161176000Y-115732840D01*
X161292525Y-115907232D01*
X161499368Y-116114075D01*
X161742589Y-116276590D01*
X162012842Y-116388532D01*
X162299740Y-116445600D01*
X162586925Y-116445600D01*
X168357907Y-119430590D01*
X168331675Y-119493919D01*
X168265000Y-119829117D01*
X168265000Y-120170883D01*
X168331675Y-120506081D01*
X168462463Y-120821831D01*
X168652337Y-121105998D01*
X168894002Y-121347663D01*
X169178169Y-121537537D01*
X169493919Y-121668325D01*
X169829117Y-121735000D01*
X170170883Y-121735000D01*
X170506081Y-121668325D01*
X170821831Y-121537537D01*
X171105998Y-121347663D01*
X171347663Y-121105998D01*
X171411710Y-121010144D01*
X175359411Y-123052058D01*
X174450591Y-124041063D01*
X172771804Y-125636869D01*
X170989114Y-127115700D01*
X169110656Y-128470808D01*
X167145000Y-129696011D01*
X165101115Y-130785718D01*
X162988328Y-131734956D01*
X160816278Y-132539395D01*
X158594875Y-133195364D01*
X156334256Y-133699871D01*
X154044736Y-134050613D01*
X151736760Y-134245989D01*
X149420860Y-134285109D01*
X147107602Y-134167794D01*
X144807542Y-133894579D01*
X142531173Y-133466711D01*
X140288883Y-132886142D01*
X138090903Y-132155521D01*
X135947261Y-131278181D01*
X133867739Y-130258127D01*
X131861824Y-129100012D01*
X129938670Y-127809120D01*
X128107051Y-126391341D01*
X126375324Y-124853145D01*
X124751392Y-123201549D01*
X123242663Y-121444090D01*
X122035644Y-119829117D01*
X128265000Y-119829117D01*
X128265000Y-120170883D01*
X128331675Y-120506081D01*
X128462463Y-120821831D01*
X128652337Y-121105998D01*
X128894002Y-121347663D01*
X129178169Y-121537537D01*
X129493919Y-121668325D01*
X129829117Y-121735000D01*
X130170883Y-121735000D01*
X130506081Y-121668325D01*
X130821831Y-121537537D01*
X131105998Y-121347663D01*
X131347663Y-121105998D01*
X131419784Y-120998061D01*
X132914999Y-120998061D01*
X132914999Y-121201939D01*
X132954773Y-121401898D01*
X133032794Y-121590256D01*
X133146062Y-121759774D01*
X133290225Y-121903937D01*
X133459743Y-122017205D01*
X133648101Y-122095226D01*
X133848060Y-122135000D01*
X134051938Y-122135000D01*
X134251897Y-122095226D01*
X134440255Y-122017205D01*
X134609773Y-121903937D01*
X134653710Y-121860000D01*
X134962678Y-121860000D01*
X135000000Y-121863676D01*
X135037322Y-121860000D01*
X135037333Y-121860000D01*
X135148986Y-121849003D01*
X135292247Y-121805546D01*
X135424276Y-121734974D01*
X135540001Y-121640001D01*
X135563804Y-121610997D01*
X138439802Y-118735000D01*
X138501939Y-118735000D01*
X138701898Y-118695226D01*
X138890256Y-118617205D01*
X139059774Y-118503937D01*
X139203937Y-118359774D01*
X139317205Y-118190256D01*
X139395226Y-118001898D01*
X139435000Y-117801939D01*
X139435000Y-117598061D01*
X139395226Y-117398102D01*
X139317205Y-117209744D01*
X139203937Y-117040226D01*
X139059774Y-116896063D01*
X138890256Y-116782795D01*
X138701898Y-116704774D01*
X138501939Y-116665000D01*
X138298061Y-116665000D01*
X138098102Y-116704774D01*
X137909744Y-116782795D01*
X137740226Y-116896063D01*
X137596063Y-117040226D01*
X137482795Y-117209744D01*
X137404774Y-117398102D01*
X137365000Y-117598061D01*
X137365000Y-117660198D01*
X134685199Y-120340000D01*
X134653710Y-120340000D01*
X134609773Y-120296063D01*
X134440255Y-120182795D01*
X134251897Y-120104774D01*
X134051938Y-120065000D01*
X133848060Y-120065000D01*
X133648101Y-120104774D01*
X133459743Y-120182795D01*
X133290225Y-120296063D01*
X133146062Y-120440226D01*
X133032794Y-120609744D01*
X132954773Y-120798102D01*
X132914999Y-120998061D01*
X131419784Y-120998061D01*
X131537537Y-120821831D01*
X131668325Y-120506081D01*
X131735000Y-120170883D01*
X131735000Y-119829117D01*
X131668325Y-119493919D01*
X131537537Y-119178169D01*
X131347663Y-118894002D01*
X131105998Y-118652337D01*
X130821831Y-118462463D01*
X130506081Y-118331675D01*
X130170883Y-118265000D01*
X129829117Y-118265000D01*
X129493919Y-118331675D01*
X129178169Y-118462463D01*
X128894002Y-118652337D01*
X128652337Y-118894002D01*
X128462463Y-119178169D01*
X128331675Y-119493919D01*
X128265000Y-119829117D01*
X122035644Y-119829117D01*
X121856022Y-119588787D01*
X120597795Y-117644105D01*
X119473724Y-115618916D01*
X118765209Y-114110600D01*
X130477928Y-114110600D01*
X130477928Y-115810600D01*
X130490188Y-115935082D01*
X130526498Y-116054780D01*
X130585463Y-116165094D01*
X130664815Y-116261785D01*
X130761506Y-116341137D01*
X130871820Y-116400102D01*
X130991518Y-116436412D01*
X131116000Y-116448672D01*
X132816000Y-116448672D01*
X132940482Y-116436412D01*
X133060180Y-116400102D01*
X133170494Y-116341137D01*
X133267185Y-116261785D01*
X133346537Y-116165094D01*
X133405502Y-116054780D01*
X133429966Y-115974134D01*
X133505731Y-116058188D01*
X133739080Y-116232241D01*
X134001901Y-116357425D01*
X134149110Y-116402076D01*
X134379000Y-116280755D01*
X134379000Y-115087600D01*
X134359000Y-115087600D01*
X134359000Y-114833600D01*
X134379000Y-114833600D01*
X134379000Y-113640445D01*
X134149110Y-113519124D01*
X134001901Y-113563775D01*
X133739080Y-113688959D01*
X133505731Y-113863012D01*
X133429966Y-113947066D01*
X133405502Y-113866420D01*
X133346537Y-113756106D01*
X133267185Y-113659415D01*
X133170494Y-113580063D01*
X133060180Y-113521098D01*
X132940482Y-113484788D01*
X132816000Y-113472528D01*
X131116000Y-113472528D01*
X130991518Y-113484788D01*
X130871820Y-113521098D01*
X130761506Y-113580063D01*
X130664815Y-113659415D01*
X130585463Y-113756106D01*
X130526498Y-113866420D01*
X130490188Y-113986118D01*
X130477928Y-114110600D01*
X118765209Y-114110600D01*
X118488937Y-113522462D01*
X117647928Y-111364308D01*
X116954533Y-109154302D01*
X116411918Y-106902526D01*
X116138313Y-105298061D01*
X126965000Y-105298061D01*
X126965000Y-105501939D01*
X127004774Y-105701898D01*
X127082795Y-105890256D01*
X127196063Y-106059774D01*
X127240000Y-106103711D01*
X127240000Y-106162678D01*
X127236324Y-106200000D01*
X127240000Y-106237322D01*
X127240000Y-106237332D01*
X127250997Y-106348985D01*
X127277089Y-106435000D01*
X127294454Y-106492246D01*
X127365026Y-106624276D01*
X127370608Y-106631077D01*
X127459999Y-106740001D01*
X127489003Y-106763804D01*
X130915000Y-110189802D01*
X130915000Y-110251939D01*
X130954774Y-110451898D01*
X131032795Y-110640256D01*
X131146063Y-110809774D01*
X131290226Y-110953937D01*
X131459744Y-111067205D01*
X131648102Y-111145226D01*
X131848061Y-111185000D01*
X132051939Y-111185000D01*
X132251898Y-111145226D01*
X132440256Y-111067205D01*
X132609774Y-110953937D01*
X132753937Y-110809774D01*
X132867205Y-110640256D01*
X132945226Y-110451898D01*
X132985000Y-110251939D01*
X132985000Y-110048061D01*
X132945226Y-109848102D01*
X132867205Y-109659744D01*
X132753937Y-109490226D01*
X132609774Y-109346063D01*
X132440256Y-109232795D01*
X132251898Y-109154774D01*
X132051939Y-109115000D01*
X131989802Y-109115000D01*
X128856263Y-105981462D01*
X128917205Y-105890256D01*
X128995226Y-105701898D01*
X129035000Y-105501939D01*
X129035000Y-105298061D01*
X128995226Y-105098102D01*
X128917205Y-104909744D01*
X128803937Y-104740226D01*
X128659774Y-104596063D01*
X128490256Y-104482795D01*
X128301898Y-104404774D01*
X128101939Y-104365000D01*
X127898061Y-104365000D01*
X127698102Y-104404774D01*
X127509744Y-104482795D01*
X127340226Y-104596063D01*
X127196063Y-104740226D01*
X127082795Y-104909744D01*
X127004774Y-105098102D01*
X126965000Y-105298061D01*
X116138313Y-105298061D01*
X116022558Y-104619256D01*
X115941039Y-103817609D01*
X116219038Y-103817609D01*
X116222909Y-103855282D01*
X116315079Y-104080533D01*
X116449422Y-104283474D01*
X116620775Y-104456307D01*
X116822554Y-104592390D01*
X117047004Y-104686493D01*
X117285500Y-104735000D01*
X117635500Y-104735000D01*
X117635500Y-103627000D01*
X117889500Y-103627000D01*
X117889500Y-104735000D01*
X118239500Y-104735000D01*
X118477996Y-104686493D01*
X118702446Y-104592390D01*
X118904225Y-104456307D01*
X119075578Y-104283474D01*
X119209921Y-104080533D01*
X119302091Y-103855282D01*
X119305962Y-103817609D01*
X119181231Y-103627000D01*
X117889500Y-103627000D01*
X117635500Y-103627000D01*
X116343769Y-103627000D01*
X116219038Y-103817609D01*
X115941039Y-103817609D01*
X115902552Y-103439133D01*
X119702972Y-103439133D01*
X119765465Y-103675450D01*
X120008178Y-103788850D01*
X120268349Y-103852719D01*
X120535982Y-103864604D01*
X120800791Y-103824048D01*
X121052600Y-103732609D01*
X121159535Y-103675450D01*
X121222028Y-103439133D01*
X120462500Y-102679605D01*
X119702972Y-103439133D01*
X115902552Y-103439133D01*
X115876444Y-103182391D01*
X116219038Y-103182391D01*
X116343769Y-103373000D01*
X117635500Y-103373000D01*
X117635500Y-102265000D01*
X117889500Y-102265000D01*
X117889500Y-103373000D01*
X119181231Y-103373000D01*
X119295003Y-103199138D01*
X119523367Y-103259528D01*
X120282895Y-102500000D01*
X120642105Y-102500000D01*
X121401633Y-103259528D01*
X121637950Y-103197035D01*
X121751350Y-102954322D01*
X121815219Y-102694151D01*
X121827104Y-102426518D01*
X121786548Y-102161709D01*
X121695109Y-101909900D01*
X121637950Y-101802965D01*
X121401633Y-101740472D01*
X120642105Y-102500000D01*
X120282895Y-102500000D01*
X119523367Y-101740472D01*
X119287050Y-101802965D01*
X119173650Y-102045678D01*
X119109781Y-102305849D01*
X119097896Y-102573482D01*
X119133115Y-102803442D01*
X119075578Y-102716526D01*
X118904225Y-102543693D01*
X118702446Y-102407610D01*
X118477996Y-102313507D01*
X118239500Y-102265000D01*
X117889500Y-102265000D01*
X117635500Y-102265000D01*
X117285500Y-102265000D01*
X117047004Y-102313507D01*
X116822554Y-102407610D01*
X116620775Y-102543693D01*
X116449422Y-102716526D01*
X116315079Y-102919467D01*
X116222909Y-103144718D01*
X116219038Y-103182391D01*
X115876444Y-103182391D01*
X115788229Y-102314909D01*
X115762748Y-101560867D01*
X119702972Y-101560867D01*
X120462500Y-102320395D01*
X121222028Y-101560867D01*
X121159535Y-101324550D01*
X120916822Y-101211150D01*
X120656651Y-101147281D01*
X120389018Y-101135396D01*
X120124209Y-101175952D01*
X119872400Y-101267391D01*
X119765465Y-101324550D01*
X119702972Y-101560867D01*
X115762748Y-101560867D01*
X115710000Y-100000000D01*
X115762747Y-98439133D01*
X119702972Y-98439133D01*
X119765465Y-98675450D01*
X120008178Y-98788850D01*
X120268349Y-98852719D01*
X120535982Y-98864604D01*
X120800791Y-98824048D01*
X121052600Y-98732609D01*
X121159535Y-98675450D01*
X121222028Y-98439133D01*
X120462500Y-97679605D01*
X119702972Y-98439133D01*
X115762747Y-98439133D01*
X115788229Y-97685091D01*
X115876443Y-96817609D01*
X116219038Y-96817609D01*
X116222909Y-96855282D01*
X116315079Y-97080533D01*
X116449422Y-97283474D01*
X116620775Y-97456307D01*
X116822554Y-97592390D01*
X117047004Y-97686493D01*
X117285500Y-97735000D01*
X117635500Y-97735000D01*
X117635500Y-96627000D01*
X117889500Y-96627000D01*
X117889500Y-97735000D01*
X118239500Y-97735000D01*
X118477996Y-97686493D01*
X118702446Y-97592390D01*
X118904225Y-97456307D01*
X119075578Y-97283474D01*
X119138671Y-97188164D01*
X119109781Y-97305849D01*
X119097896Y-97573482D01*
X119138452Y-97838291D01*
X119229891Y-98090100D01*
X119287050Y-98197035D01*
X119523367Y-98259528D01*
X120282895Y-97500000D01*
X120642105Y-97500000D01*
X121401633Y-98259528D01*
X121637950Y-98197035D01*
X121751350Y-97954322D01*
X121815219Y-97694151D01*
X121827104Y-97426518D01*
X121786548Y-97161709D01*
X121695109Y-96909900D01*
X121637950Y-96802965D01*
X121401633Y-96740472D01*
X120642105Y-97500000D01*
X120282895Y-97500000D01*
X119523367Y-96740472D01*
X119295003Y-96800862D01*
X119181231Y-96627000D01*
X117889500Y-96627000D01*
X117635500Y-96627000D01*
X116343769Y-96627000D01*
X116219038Y-96817609D01*
X115876443Y-96817609D01*
X115902550Y-96560867D01*
X119702972Y-96560867D01*
X120462500Y-97320395D01*
X121222028Y-96560867D01*
X121159535Y-96324550D01*
X120916822Y-96211150D01*
X120656651Y-96147281D01*
X120389018Y-96135396D01*
X120124209Y-96175952D01*
X119872400Y-96267391D01*
X119765465Y-96324550D01*
X119702972Y-96560867D01*
X115902550Y-96560867D01*
X115941038Y-96182391D01*
X116219038Y-96182391D01*
X116343769Y-96373000D01*
X117635500Y-96373000D01*
X117635500Y-95265000D01*
X117889500Y-95265000D01*
X117889500Y-96373000D01*
X119181231Y-96373000D01*
X119305962Y-96182391D01*
X119302091Y-96144718D01*
X119209921Y-95919467D01*
X119075578Y-95716526D01*
X118904225Y-95543693D01*
X118702446Y-95407610D01*
X118477996Y-95313507D01*
X118239500Y-95265000D01*
X117889500Y-95265000D01*
X117635500Y-95265000D01*
X117285500Y-95265000D01*
X117047004Y-95313507D01*
X116822554Y-95407610D01*
X116620775Y-95543693D01*
X116449422Y-95716526D01*
X116315079Y-95919467D01*
X116222909Y-96144718D01*
X116219038Y-96182391D01*
X115941038Y-96182391D01*
X116022558Y-95380744D01*
X116411918Y-93097474D01*
X116954533Y-90845698D01*
X117647928Y-88635692D01*
X118488937Y-86477538D01*
X119269008Y-84816891D01*
X130524519Y-84816891D01*
X130621843Y-85091252D01*
X130770822Y-85341355D01*
X130965731Y-85557588D01*
X131199080Y-85731641D01*
X131461901Y-85856825D01*
X131609110Y-85901476D01*
X131839000Y-85780155D01*
X131839000Y-84587000D01*
X130645186Y-84587000D01*
X130524519Y-84816891D01*
X119269008Y-84816891D01*
X119473724Y-84381084D01*
X119628012Y-84103109D01*
X130524519Y-84103109D01*
X130645186Y-84333000D01*
X131839000Y-84333000D01*
X131839000Y-83139845D01*
X131609110Y-83018524D01*
X131461901Y-83063175D01*
X131199080Y-83188359D01*
X130965731Y-83362412D01*
X130770822Y-83578645D01*
X130621843Y-83828748D01*
X130524519Y-84103109D01*
X119628012Y-84103109D01*
X120597795Y-82355895D01*
X121856022Y-80411213D01*
X122291076Y-79829117D01*
X128265000Y-79829117D01*
X128265000Y-80170883D01*
X128331675Y-80506081D01*
X128462463Y-80821831D01*
X128652337Y-81105998D01*
X128894002Y-81347663D01*
X129178169Y-81537537D01*
X129493919Y-81668325D01*
X129829117Y-81735000D01*
X130170883Y-81735000D01*
X130506081Y-81668325D01*
X130821831Y-81537537D01*
X131105998Y-81347663D01*
X131347663Y-81105998D01*
X131537537Y-80821831D01*
X131668325Y-80506081D01*
X131735000Y-80170883D01*
X131735000Y-79829117D01*
X131668325Y-79493919D01*
X131537537Y-79178169D01*
X131347663Y-78894002D01*
X131105998Y-78652337D01*
X130821831Y-78462463D01*
X130506081Y-78331675D01*
X130170883Y-78265000D01*
X129829117Y-78265000D01*
X129493919Y-78331675D01*
X129178169Y-78462463D01*
X128894002Y-78652337D01*
X128652337Y-78894002D01*
X128462463Y-79178169D01*
X128331675Y-79493919D01*
X128265000Y-79829117D01*
X122291076Y-79829117D01*
X123242663Y-78555910D01*
X124751392Y-76798451D01*
X126375324Y-75146855D01*
X128006400Y-73698061D01*
X137015000Y-73698061D01*
X137015000Y-73901939D01*
X137054774Y-74101898D01*
X137132795Y-74290256D01*
X137246063Y-74459774D01*
X137390226Y-74603937D01*
X137559744Y-74717205D01*
X137748102Y-74795226D01*
X137948061Y-74835000D01*
X138151939Y-74835000D01*
X138351898Y-74795226D01*
X138540256Y-74717205D01*
X138709774Y-74603937D01*
X138753711Y-74560000D01*
X142085199Y-74560000D01*
X144365000Y-76839802D01*
X144365000Y-76901939D01*
X144404774Y-77101898D01*
X144482795Y-77290256D01*
X144596063Y-77459774D01*
X144740226Y-77603937D01*
X144909744Y-77717205D01*
X145098102Y-77795226D01*
X145298061Y-77835000D01*
X145501939Y-77835000D01*
X145701898Y-77795226D01*
X145890256Y-77717205D01*
X146059774Y-77603937D01*
X146165650Y-77498061D01*
X152215000Y-77498061D01*
X152215000Y-77701939D01*
X152254774Y-77901898D01*
X152332795Y-78090256D01*
X152446063Y-78259774D01*
X152590226Y-78403937D01*
X152759744Y-78517205D01*
X152948102Y-78595226D01*
X153148061Y-78635000D01*
X153351939Y-78635000D01*
X153551898Y-78595226D01*
X153740256Y-78517205D01*
X153909774Y-78403937D01*
X154053937Y-78259774D01*
X154167205Y-78090256D01*
X154245226Y-77901898D01*
X154285000Y-77701939D01*
X154285000Y-77639802D01*
X154314800Y-77610002D01*
X165446289Y-77610002D01*
X165490226Y-77653939D01*
X165659744Y-77767207D01*
X165848102Y-77845228D01*
X166048061Y-77885002D01*
X166251939Y-77885002D01*
X166451898Y-77845228D01*
X166640256Y-77767207D01*
X166809774Y-77653939D01*
X166953937Y-77509776D01*
X167067205Y-77340258D01*
X167145226Y-77151900D01*
X167185000Y-76951941D01*
X167185000Y-76748063D01*
X167145226Y-76548104D01*
X167067205Y-76359746D01*
X166953937Y-76190228D01*
X166809774Y-76046065D01*
X166640256Y-75932797D01*
X166451898Y-75854776D01*
X166251939Y-75815002D01*
X166048061Y-75815002D01*
X165848102Y-75854776D01*
X165659744Y-75932797D01*
X165490226Y-76046065D01*
X165446289Y-76090002D01*
X154037320Y-76090002D01*
X153999997Y-76086326D01*
X153962674Y-76090002D01*
X153962665Y-76090002D01*
X153851012Y-76100999D01*
X153707751Y-76144456D01*
X153575722Y-76215028D01*
X153459997Y-76310001D01*
X153436199Y-76339000D01*
X153210198Y-76565000D01*
X153148061Y-76565000D01*
X152948102Y-76604774D01*
X152759744Y-76682795D01*
X152590226Y-76796063D01*
X152446063Y-76940226D01*
X152332795Y-77109744D01*
X152254774Y-77298102D01*
X152215000Y-77498061D01*
X146165650Y-77498061D01*
X146203937Y-77459774D01*
X146317205Y-77290256D01*
X146395226Y-77101898D01*
X146435000Y-76901939D01*
X146435000Y-76698061D01*
X146395226Y-76498102D01*
X146317205Y-76309744D01*
X146203937Y-76140226D01*
X146059774Y-75996063D01*
X145890256Y-75882795D01*
X145701898Y-75804774D01*
X145501939Y-75765000D01*
X145439802Y-75765000D01*
X142963804Y-73289003D01*
X142940001Y-73259999D01*
X142824276Y-73165026D01*
X142692247Y-73094454D01*
X142548986Y-73050997D01*
X142437333Y-73040000D01*
X142437322Y-73040000D01*
X142400000Y-73036324D01*
X142362678Y-73040000D01*
X138753711Y-73040000D01*
X138709774Y-72996063D01*
X138540256Y-72882795D01*
X138351898Y-72804774D01*
X138151939Y-72765000D01*
X137948061Y-72765000D01*
X137748102Y-72804774D01*
X137559744Y-72882795D01*
X137390226Y-72996063D01*
X137246063Y-73140226D01*
X137132795Y-73309744D01*
X137054774Y-73498102D01*
X137015000Y-73698061D01*
X128006400Y-73698061D01*
X128107051Y-73608659D01*
X129938670Y-72190880D01*
X130182816Y-72027000D01*
X148215000Y-72027000D01*
X148215000Y-72302000D01*
X148263507Y-72540496D01*
X148357610Y-72764946D01*
X148493693Y-72966725D01*
X148666526Y-73138078D01*
X148869467Y-73272421D01*
X149094718Y-73364591D01*
X149132391Y-73368462D01*
X149323000Y-73243731D01*
X149323000Y-72027000D01*
X148215000Y-72027000D01*
X130182816Y-72027000D01*
X130970913Y-71498000D01*
X148215000Y-71498000D01*
X148215000Y-71773000D01*
X149323000Y-71773000D01*
X149323000Y-70556269D01*
X149577000Y-70556269D01*
X149577000Y-71773000D01*
X149597000Y-71773000D01*
X149597000Y-72027000D01*
X149577000Y-72027000D01*
X149577000Y-73243731D01*
X149767609Y-73368462D01*
X149805282Y-73364591D01*
X150030533Y-73272421D01*
X150233474Y-73138078D01*
X150359033Y-73013594D01*
X150361595Y-73018387D01*
X150472038Y-73152962D01*
X150606613Y-73263405D01*
X150760149Y-73345472D01*
X150926745Y-73396008D01*
X151099999Y-73413072D01*
X151800001Y-73413072D01*
X151973255Y-73396008D01*
X152139851Y-73345472D01*
X152293387Y-73263405D01*
X152427962Y-73152962D01*
X152538405Y-73018387D01*
X152620472Y-72864851D01*
X152671008Y-72698255D01*
X152688072Y-72525001D01*
X152688072Y-71274999D01*
X152671008Y-71101745D01*
X152620472Y-70935149D01*
X152538405Y-70781613D01*
X152427962Y-70647038D01*
X152293387Y-70536595D01*
X152139851Y-70454528D01*
X151973255Y-70403992D01*
X151800001Y-70386928D01*
X151099999Y-70386928D01*
X150926745Y-70403992D01*
X150760149Y-70454528D01*
X150606613Y-70536595D01*
X150472038Y-70647038D01*
X150361595Y-70781613D01*
X150359033Y-70786406D01*
X150233474Y-70661922D01*
X150030533Y-70527579D01*
X149805282Y-70435409D01*
X149767609Y-70431538D01*
X149577000Y-70556269D01*
X149323000Y-70556269D01*
X149132391Y-70431538D01*
X149094718Y-70435409D01*
X148869467Y-70527579D01*
X148666526Y-70661922D01*
X148493693Y-70833275D01*
X148357610Y-71035054D01*
X148263507Y-71259504D01*
X148215000Y-71498000D01*
X130970913Y-71498000D01*
X131861824Y-70899988D01*
X133867739Y-69741873D01*
X135947261Y-68721819D01*
X138090903Y-67844479D01*
X140288883Y-67113858D01*
X142531173Y-66533289D01*
X144807542Y-66105421D01*
X147107602Y-65832206D01*
X149420860Y-65714891D01*
X151736760Y-65754011D01*
G37*
G04 #@! TD.AperFunction*
M02*
