G04 #@! TF.GenerationSoftware,KiCad,Pcbnew,7.0.0*
G04 #@! TF.CreationDate,2023-03-12T15:47:31-04:00*
G04 #@! TF.ProjectId,board,626f6172-642e-46b6-9963-61645f706362,rev?*
G04 #@! TF.SameCoordinates,Original*
G04 #@! TF.FileFunction,Soldermask,Top*
G04 #@! TF.FilePolarity,Negative*
%FSLAX46Y46*%
G04 Gerber Fmt 4.6, Leading zero omitted, Abs format (unit mm)*
G04 Created by KiCad (PCBNEW 7.0.0) date 2023-03-12 15:47:31*
%MOMM*%
%LPD*%
G01*
G04 APERTURE LIST*
G04 Aperture macros list*
%AMRoundRect*
0 Rectangle with rounded corners*
0 $1 Rounding radius*
0 $2 $3 $4 $5 $6 $7 $8 $9 X,Y pos of 4 corners*
0 Add a 4 corners polygon primitive as box body*
4,1,4,$2,$3,$4,$5,$6,$7,$8,$9,$2,$3,0*
0 Add four circle primitives for the rounded corners*
1,1,$1+$1,$2,$3*
1,1,$1+$1,$4,$5*
1,1,$1+$1,$6,$7*
1,1,$1+$1,$8,$9*
0 Add four rect primitives between the rounded corners*
20,1,$1+$1,$2,$3,$4,$5,0*
20,1,$1+$1,$4,$5,$6,$7,0*
20,1,$1+$1,$6,$7,$8,$9,0*
20,1,$1+$1,$8,$9,$2,$3,0*%
%AMFreePoly0*
4,1,19,0.500000,-0.750000,0.000000,-0.750000,0.000000,-0.744911,-0.071157,-0.744911,-0.207708,-0.704816,-0.327430,-0.627875,-0.420627,-0.520320,-0.479746,-0.390866,-0.500000,-0.250000,-0.500000,0.250000,-0.479746,0.390866,-0.420627,0.520320,-0.327430,0.627875,-0.207708,0.704816,-0.071157,0.744911,0.000000,0.744911,0.000000,0.750000,0.500000,0.750000,0.500000,-0.750000,0.500000,-0.750000,
$1*%
%AMFreePoly1*
4,1,19,0.000000,0.744911,0.071157,0.744911,0.207708,0.704816,0.327430,0.627875,0.420627,0.520320,0.479746,0.390866,0.500000,0.250000,0.500000,-0.250000,0.479746,-0.390866,0.420627,-0.520320,0.327430,-0.627875,0.207708,-0.704816,0.071157,-0.744911,0.000000,-0.744911,0.000000,-0.750000,-0.500000,-0.750000,-0.500000,0.750000,0.000000,0.750000,0.000000,0.744911,0.000000,0.744911,
$1*%
G04 Aperture macros list end*
%ADD10RoundRect,0.250000X0.650000X-0.412500X0.650000X0.412500X-0.650000X0.412500X-0.650000X-0.412500X0*%
%ADD11RoundRect,0.250000X-0.412500X-0.650000X0.412500X-0.650000X0.412500X0.650000X-0.412500X0.650000X0*%
%ADD12R,0.550000X1.600000*%
%ADD13R,1.600000X0.550000*%
%ADD14R,1.350000X0.400000*%
%ADD15O,1.900000X1.200000*%
%ADD16R,1.900000X1.200000*%
%ADD17C,1.450000*%
%ADD18R,1.900000X1.500000*%
%ADD19R,4.064000X1.524000*%
%ADD20C,1.000000*%
%ADD21R,2.200000X1.050000*%
%ADD22R,1.700000X1.700000*%
%ADD23O,1.700000X1.700000*%
%ADD24RoundRect,0.250000X-0.400000X-0.625000X0.400000X-0.625000X0.400000X0.625000X-0.400000X0.625000X0*%
%ADD25RoundRect,0.250000X0.412500X0.650000X-0.412500X0.650000X-0.412500X-0.650000X0.412500X-0.650000X0*%
%ADD26RoundRect,0.250000X0.625000X-0.400000X0.625000X0.400000X-0.625000X0.400000X-0.625000X-0.400000X0*%
%ADD27RoundRect,0.250001X0.462499X0.624999X-0.462499X0.624999X-0.462499X-0.624999X0.462499X-0.624999X0*%
%ADD28C,2.200000*%
%ADD29RoundRect,0.249999X-1.025001X-1.025001X1.025001X-1.025001X1.025001X1.025001X-1.025001X1.025001X0*%
%ADD30RoundRect,0.250001X-0.462499X-0.624999X0.462499X-0.624999X0.462499X0.624999X-0.462499X0.624999X0*%
%ADD31R,1.200000X2.500000*%
%ADD32RoundRect,0.250001X-0.624999X0.462499X-0.624999X-0.462499X0.624999X-0.462499X0.624999X0.462499X0*%
%ADD33R,1.900000X0.800000*%
%ADD34RoundRect,0.250000X-0.625000X0.400000X-0.625000X-0.400000X0.625000X-0.400000X0.625000X0.400000X0*%
%ADD35RoundRect,0.150000X-0.150000X0.512500X-0.150000X-0.512500X0.150000X-0.512500X0.150000X0.512500X0*%
%ADD36RoundRect,0.150000X0.150000X-0.587500X0.150000X0.587500X-0.150000X0.587500X-0.150000X-0.587500X0*%
%ADD37FreePoly0,90.000000*%
%ADD38FreePoly1,90.000000*%
%ADD39RoundRect,0.250000X-0.650000X0.412500X-0.650000X-0.412500X0.650000X-0.412500X0.650000X0.412500X0*%
%ADD40FreePoly0,270.000000*%
%ADD41FreePoly1,270.000000*%
%ADD42RoundRect,0.250000X0.350000X0.625000X-0.350000X0.625000X-0.350000X-0.625000X0.350000X-0.625000X0*%
%ADD43O,1.200000X1.750000*%
%ADD44RoundRect,0.250001X0.624999X-0.462499X0.624999X0.462499X-0.624999X0.462499X-0.624999X-0.462499X0*%
%ADD45R,2.200000X2.275000*%
%ADD46R,1.300000X1.550000*%
G04 APERTURE END LIST*
D10*
X129500000Y-92562500D03*
X129500000Y-89437500D03*
D11*
X127900000Y-96290000D03*
X131025000Y-96290000D03*
D12*
X147199999Y-104249999D03*
X147999999Y-104249999D03*
X148799999Y-104249999D03*
X149599999Y-104249999D03*
X150399999Y-104249999D03*
X151199999Y-104249999D03*
X151999999Y-104249999D03*
X152799999Y-104249999D03*
D13*
X154249999Y-102799999D03*
X154249999Y-101999999D03*
X154249999Y-101199999D03*
X154249999Y-100399999D03*
X154249999Y-99599999D03*
X154249999Y-98799999D03*
X154249999Y-97999999D03*
X154249999Y-97199999D03*
D12*
X152799999Y-95749999D03*
X151999999Y-95749999D03*
X151199999Y-95749999D03*
X150399999Y-95749999D03*
X149599999Y-95749999D03*
X148799999Y-95749999D03*
X147999999Y-95749999D03*
X147199999Y-95749999D03*
D13*
X145749999Y-97199999D03*
X145749999Y-97999999D03*
X145749999Y-98799999D03*
X145749999Y-99599999D03*
X145749999Y-100399999D03*
X145749999Y-101199999D03*
X145749999Y-101999999D03*
X145749999Y-102799999D03*
D14*
X119762499Y-98699999D03*
X119762499Y-99349999D03*
X119762499Y-99999999D03*
X119762499Y-100649999D03*
X119762499Y-101299999D03*
D15*
X117062499Y-96499999D03*
D16*
X117062499Y-97099999D03*
D17*
X119762500Y-97500000D03*
D18*
X117062499Y-98999999D03*
X117062499Y-100999999D03*
D17*
X119762500Y-102500000D03*
D16*
X117062499Y-102899999D03*
D15*
X117062499Y-103499999D03*
D19*
X180999999Y-99999999D03*
D20*
X178550000Y-100000000D03*
D19*
X180999999Y-97459999D03*
D21*
X180069999Y-98469999D03*
X180069999Y-101529999D03*
D19*
X180999999Y-102539999D03*
D11*
X171334000Y-84506000D03*
X174459000Y-84506000D03*
D22*
X145173999Y-130225999D03*
D23*
X145173999Y-127685999D03*
X147713999Y-130225999D03*
X147713999Y-127685999D03*
X150253999Y-130225999D03*
X150253999Y-127685999D03*
X152793999Y-130225999D03*
X152793999Y-127685999D03*
X155333999Y-130225999D03*
X155333999Y-127685999D03*
D11*
X134550000Y-106763330D03*
X137675000Y-106763330D03*
D24*
X134592500Y-92666666D03*
X137692500Y-92666666D03*
D11*
X127902000Y-103275000D03*
X131027000Y-103275000D03*
D25*
X137675000Y-99769998D03*
X134550000Y-99769998D03*
D11*
X134550000Y-103266664D03*
X137675000Y-103266664D03*
X127900000Y-99846000D03*
X131025000Y-99846000D03*
D26*
X163350000Y-126315000D03*
X163350000Y-123215000D03*
D11*
X122351700Y-92964200D03*
X125476700Y-92964200D03*
D22*
X131965999Y-114960599D03*
D23*
X134505999Y-114960599D03*
X137045999Y-114960599D03*
X139585999Y-114960599D03*
X142125999Y-114960599D03*
X144665999Y-114960599D03*
X147205999Y-114960599D03*
X149745999Y-114960599D03*
X152285999Y-114960599D03*
X154825999Y-114960599D03*
X157365999Y-114960599D03*
X159905999Y-114960599D03*
X162445999Y-114960599D03*
X164985999Y-114960599D03*
D27*
X137630000Y-96103332D03*
X134655000Y-96103332D03*
D28*
X170000000Y-80000000D03*
X130000000Y-80000000D03*
X130000000Y-120000000D03*
X170000000Y-120000000D03*
D22*
X164985999Y-84459999D03*
D23*
X162445999Y-84459999D03*
X159905999Y-84459999D03*
X157365999Y-84459999D03*
X154825999Y-84459999D03*
X152285999Y-84459999D03*
X149745999Y-84459999D03*
X147205999Y-84459999D03*
X144665999Y-84459999D03*
X142125999Y-84459999D03*
X139585999Y-84459999D03*
X137045999Y-84459999D03*
X134505999Y-84459999D03*
X131965999Y-84459999D03*
D29*
X179464000Y-88824000D03*
D25*
X137675000Y-110460000D03*
X134550000Y-110460000D03*
D10*
X152200000Y-111512500D03*
X152200000Y-108387500D03*
D30*
X155212500Y-111550000D03*
X158187500Y-111550000D03*
D31*
X159999999Y-107999999D03*
X161999999Y-107999999D03*
X163999999Y-107999999D03*
X165999999Y-107999999D03*
X167999999Y-107999999D03*
X169999999Y-107999999D03*
X171999999Y-107999999D03*
X173999999Y-107999999D03*
X173999999Y-91999999D03*
X171999999Y-91999999D03*
X169999999Y-91999999D03*
X167999999Y-91999999D03*
X165999999Y-91999999D03*
X163999999Y-91999999D03*
X161999999Y-91999999D03*
X159999999Y-91999999D03*
D32*
X133800000Y-123300000D03*
X133800000Y-126275000D03*
D33*
X125337999Y-87233999D03*
X125337999Y-85333999D03*
X122337999Y-86283999D03*
D26*
X141050000Y-126315000D03*
X141050000Y-123215000D03*
D32*
X141666000Y-75385000D03*
X141666000Y-78360000D03*
D34*
X137934000Y-75277500D03*
X137934000Y-78377500D03*
D26*
X166100000Y-78400000D03*
X166100000Y-75300000D03*
D34*
X158949666Y-75300000D03*
X158949666Y-78400000D03*
D35*
X151400000Y-77712500D03*
X150450000Y-77712500D03*
X149500000Y-77712500D03*
X149500000Y-79987500D03*
X151400000Y-79987500D03*
D36*
X142750000Y-70965500D03*
X144650000Y-70965500D03*
X143700000Y-69090500D03*
D37*
X160668000Y-70678000D03*
D38*
X160668000Y-69378000D03*
D34*
X162524832Y-75300000D03*
X162524832Y-78400000D03*
D26*
X167000000Y-126350000D03*
X167000000Y-123250000D03*
X155374500Y-78400000D03*
X155374500Y-75300000D03*
D10*
X145428000Y-78420000D03*
X145428000Y-75295000D03*
D39*
X159650000Y-123202500D03*
X159650000Y-126327500D03*
D40*
X130000000Y-124200000D03*
D41*
X130000000Y-125500000D03*
D42*
X151450000Y-71900000D03*
D43*
X149449999Y-71899999D03*
D44*
X157200000Y-71587500D03*
X157200000Y-68612500D03*
D26*
X137450000Y-126315000D03*
X137450000Y-123215000D03*
D25*
X137675000Y-89000000D03*
X134550000Y-89000000D03*
D40*
X139586000Y-69378000D03*
D41*
X139586000Y-70678000D03*
D37*
X170050000Y-125300000D03*
D38*
X170050000Y-124000000D03*
D45*
X141617999Y-102238499D03*
X141617999Y-107413499D03*
D34*
X134252000Y-75277500D03*
X134252000Y-78377500D03*
D39*
X156604000Y-105737500D03*
X156604000Y-108862500D03*
D46*
X127549999Y-107719999D03*
X127549999Y-115679999D03*
X123049999Y-107719999D03*
X123049999Y-115679999D03*
M02*
