G04 #@! TF.GenerationSoftware,KiCad,Pcbnew,7.0.0*
G04 #@! TF.CreationDate,2023-03-12T15:47:31-04:00*
G04 #@! TF.ProjectId,board,626f6172-642e-46b6-9963-61645f706362,rev?*
G04 #@! TF.SameCoordinates,Original*
G04 #@! TF.FileFunction,Legend,Bot*
G04 #@! TF.FilePolarity,Positive*
%FSLAX46Y46*%
G04 Gerber Fmt 4.6, Leading zero omitted, Abs format (unit mm)*
G04 Created by KiCad (PCBNEW 7.0.0) date 2023-03-12 15:47:31*
%MOMM*%
%LPD*%
G01*
G04 APERTURE LIST*
%ADD10C,0.300000*%
%ADD11C,0.200000*%
G04 APERTURE END LIST*
D10*
X148996771Y-69677442D02*
X150139629Y-69677442D01*
X150927171Y-69677442D02*
X152070029Y-69677442D01*
X151498600Y-70248871D02*
X151498600Y-69106014D01*
D11*
X159497619Y-121057380D02*
X159497619Y-120390714D01*
X159497619Y-120485952D02*
X159450000Y-120438333D01*
X159450000Y-120438333D02*
X159354762Y-120390714D01*
X159354762Y-120390714D02*
X159211905Y-120390714D01*
X159211905Y-120390714D02*
X159116667Y-120438333D01*
X159116667Y-120438333D02*
X159069048Y-120533571D01*
X159069048Y-120533571D02*
X159069048Y-121057380D01*
X159069048Y-120533571D02*
X159021429Y-120438333D01*
X159021429Y-120438333D02*
X158926191Y-120390714D01*
X158926191Y-120390714D02*
X158783334Y-120390714D01*
X158783334Y-120390714D02*
X158688095Y-120438333D01*
X158688095Y-120438333D02*
X158640476Y-120533571D01*
X158640476Y-120533571D02*
X158640476Y-121057380D01*
X157735715Y-121057380D02*
X157735715Y-120533571D01*
X157735715Y-120533571D02*
X157783334Y-120438333D01*
X157783334Y-120438333D02*
X157878572Y-120390714D01*
X157878572Y-120390714D02*
X158069048Y-120390714D01*
X158069048Y-120390714D02*
X158164286Y-120438333D01*
X157735715Y-121009761D02*
X157830953Y-121057380D01*
X157830953Y-121057380D02*
X158069048Y-121057380D01*
X158069048Y-121057380D02*
X158164286Y-121009761D01*
X158164286Y-121009761D02*
X158211905Y-120914523D01*
X158211905Y-120914523D02*
X158211905Y-120819285D01*
X158211905Y-120819285D02*
X158164286Y-120724047D01*
X158164286Y-120724047D02*
X158069048Y-120676428D01*
X158069048Y-120676428D02*
X157830953Y-120676428D01*
X157830953Y-120676428D02*
X157735715Y-120628809D01*
X156830953Y-121057380D02*
X156830953Y-120057380D01*
X156830953Y-121009761D02*
X156926191Y-121057380D01*
X156926191Y-121057380D02*
X157116667Y-121057380D01*
X157116667Y-121057380D02*
X157211905Y-121009761D01*
X157211905Y-121009761D02*
X157259524Y-120962142D01*
X157259524Y-120962142D02*
X157307143Y-120866904D01*
X157307143Y-120866904D02*
X157307143Y-120581190D01*
X157307143Y-120581190D02*
X157259524Y-120485952D01*
X157259524Y-120485952D02*
X157211905Y-120438333D01*
X157211905Y-120438333D02*
X157116667Y-120390714D01*
X157116667Y-120390714D02*
X156926191Y-120390714D01*
X156926191Y-120390714D02*
X156830953Y-120438333D01*
X155973810Y-121009761D02*
X156069048Y-121057380D01*
X156069048Y-121057380D02*
X156259524Y-121057380D01*
X156259524Y-121057380D02*
X156354762Y-121009761D01*
X156354762Y-121009761D02*
X156402381Y-120914523D01*
X156402381Y-120914523D02*
X156402381Y-120533571D01*
X156402381Y-120533571D02*
X156354762Y-120438333D01*
X156354762Y-120438333D02*
X156259524Y-120390714D01*
X156259524Y-120390714D02*
X156069048Y-120390714D01*
X156069048Y-120390714D02*
X155973810Y-120438333D01*
X155973810Y-120438333D02*
X155926191Y-120533571D01*
X155926191Y-120533571D02*
X155926191Y-120628809D01*
X155926191Y-120628809D02*
X156402381Y-120724047D01*
X154992857Y-120390714D02*
X154802381Y-121057380D01*
X154802381Y-121057380D02*
X154611905Y-120581190D01*
X154611905Y-120581190D02*
X154421429Y-121057380D01*
X154421429Y-121057380D02*
X154230953Y-120390714D01*
X153850000Y-121057380D02*
X153850000Y-120390714D01*
X153850000Y-120057380D02*
X153897619Y-120105000D01*
X153897619Y-120105000D02*
X153850000Y-120152619D01*
X153850000Y-120152619D02*
X153802381Y-120105000D01*
X153802381Y-120105000D02*
X153850000Y-120057380D01*
X153850000Y-120057380D02*
X153850000Y-120152619D01*
X153516667Y-120390714D02*
X153135715Y-120390714D01*
X153373810Y-120057380D02*
X153373810Y-120914523D01*
X153373810Y-120914523D02*
X153326191Y-121009761D01*
X153326191Y-121009761D02*
X153230953Y-121057380D01*
X153230953Y-121057380D02*
X153135715Y-121057380D01*
X152802381Y-121057380D02*
X152802381Y-120057380D01*
X152373810Y-121057380D02*
X152373810Y-120533571D01*
X152373810Y-120533571D02*
X152421429Y-120438333D01*
X152421429Y-120438333D02*
X152516667Y-120390714D01*
X152516667Y-120390714D02*
X152659524Y-120390714D01*
X152659524Y-120390714D02*
X152754762Y-120438333D01*
X152754762Y-120438333D02*
X152802381Y-120485952D01*
X150535715Y-120390714D02*
X151297619Y-120676428D01*
X151297619Y-120676428D02*
X150535715Y-120962142D01*
X150154762Y-120057380D02*
X149535715Y-120057380D01*
X149535715Y-120057380D02*
X149869048Y-120438333D01*
X149869048Y-120438333D02*
X149726191Y-120438333D01*
X149726191Y-120438333D02*
X149630953Y-120485952D01*
X149630953Y-120485952D02*
X149583334Y-120533571D01*
X149583334Y-120533571D02*
X149535715Y-120628809D01*
X149535715Y-120628809D02*
X149535715Y-120866904D01*
X149535715Y-120866904D02*
X149583334Y-120962142D01*
X149583334Y-120962142D02*
X149630953Y-121009761D01*
X149630953Y-121009761D02*
X149726191Y-121057380D01*
X149726191Y-121057380D02*
X150011905Y-121057380D01*
X150011905Y-121057380D02*
X150107143Y-121009761D01*
X150107143Y-121009761D02*
X150154762Y-120962142D01*
X148507143Y-121057380D02*
X148507143Y-120057380D01*
X148507143Y-120438333D02*
X148411905Y-120390714D01*
X148411905Y-120390714D02*
X148221429Y-120390714D01*
X148221429Y-120390714D02*
X148126191Y-120438333D01*
X148126191Y-120438333D02*
X148078572Y-120485952D01*
X148078572Y-120485952D02*
X148030953Y-120581190D01*
X148030953Y-120581190D02*
X148030953Y-120866904D01*
X148030953Y-120866904D02*
X148078572Y-120962142D01*
X148078572Y-120962142D02*
X148126191Y-121009761D01*
X148126191Y-121009761D02*
X148221429Y-121057380D01*
X148221429Y-121057380D02*
X148411905Y-121057380D01*
X148411905Y-121057380D02*
X148507143Y-121009761D01*
X147697619Y-120390714D02*
X147459524Y-121057380D01*
X147221429Y-120390714D02*
X147459524Y-121057380D01*
X147459524Y-121057380D02*
X147554762Y-121295476D01*
X147554762Y-121295476D02*
X147602381Y-121343095D01*
X147602381Y-121343095D02*
X147697619Y-121390714D01*
X146097619Y-121057380D02*
X146192857Y-121009761D01*
X146192857Y-121009761D02*
X146240476Y-120914523D01*
X146240476Y-120914523D02*
X146240476Y-120057380D01*
X145716666Y-121057380D02*
X145716666Y-120390714D01*
X145716666Y-120057380D02*
X145764285Y-120105000D01*
X145764285Y-120105000D02*
X145716666Y-120152619D01*
X145716666Y-120152619D02*
X145669047Y-120105000D01*
X145669047Y-120105000D02*
X145716666Y-120057380D01*
X145716666Y-120057380D02*
X145716666Y-120152619D01*
X145240476Y-121057380D02*
X145240476Y-120057380D01*
X145240476Y-120438333D02*
X145145238Y-120390714D01*
X145145238Y-120390714D02*
X144954762Y-120390714D01*
X144954762Y-120390714D02*
X144859524Y-120438333D01*
X144859524Y-120438333D02*
X144811905Y-120485952D01*
X144811905Y-120485952D02*
X144764286Y-120581190D01*
X144764286Y-120581190D02*
X144764286Y-120866904D01*
X144764286Y-120866904D02*
X144811905Y-120962142D01*
X144811905Y-120962142D02*
X144859524Y-121009761D01*
X144859524Y-121009761D02*
X144954762Y-121057380D01*
X144954762Y-121057380D02*
X145145238Y-121057380D01*
X145145238Y-121057380D02*
X145240476Y-121009761D01*
X144335714Y-121057380D02*
X144335714Y-120390714D01*
X144335714Y-120581190D02*
X144288095Y-120485952D01*
X144288095Y-120485952D02*
X144240476Y-120438333D01*
X144240476Y-120438333D02*
X144145238Y-120390714D01*
X144145238Y-120390714D02*
X144050000Y-120390714D01*
X143335714Y-121009761D02*
X143430952Y-121057380D01*
X143430952Y-121057380D02*
X143621428Y-121057380D01*
X143621428Y-121057380D02*
X143716666Y-121009761D01*
X143716666Y-121009761D02*
X143764285Y-120914523D01*
X143764285Y-120914523D02*
X143764285Y-120533571D01*
X143764285Y-120533571D02*
X143716666Y-120438333D01*
X143716666Y-120438333D02*
X143621428Y-120390714D01*
X143621428Y-120390714D02*
X143430952Y-120390714D01*
X143430952Y-120390714D02*
X143335714Y-120438333D01*
X143335714Y-120438333D02*
X143288095Y-120533571D01*
X143288095Y-120533571D02*
X143288095Y-120628809D01*
X143288095Y-120628809D02*
X143764285Y-120724047D01*
X142716666Y-121057380D02*
X142811904Y-121009761D01*
X142811904Y-121009761D02*
X142859523Y-120914523D01*
X142859523Y-120914523D02*
X142859523Y-120057380D01*
X141907142Y-121057380D02*
X141907142Y-120533571D01*
X141907142Y-120533571D02*
X141954761Y-120438333D01*
X141954761Y-120438333D02*
X142049999Y-120390714D01*
X142049999Y-120390714D02*
X142240475Y-120390714D01*
X142240475Y-120390714D02*
X142335713Y-120438333D01*
X141907142Y-121009761D02*
X142002380Y-121057380D01*
X142002380Y-121057380D02*
X142240475Y-121057380D01*
X142240475Y-121057380D02*
X142335713Y-121009761D01*
X142335713Y-121009761D02*
X142383332Y-120914523D01*
X142383332Y-120914523D02*
X142383332Y-120819285D01*
X142383332Y-120819285D02*
X142335713Y-120724047D01*
X142335713Y-120724047D02*
X142240475Y-120676428D01*
X142240475Y-120676428D02*
X142002380Y-120676428D01*
X142002380Y-120676428D02*
X141907142Y-120628809D01*
X141430951Y-121057380D02*
X141430951Y-120057380D01*
X141430951Y-120438333D02*
X141335713Y-120390714D01*
X141335713Y-120390714D02*
X141145237Y-120390714D01*
X141145237Y-120390714D02*
X141049999Y-120438333D01*
X141049999Y-120438333D02*
X141002380Y-120485952D01*
X141002380Y-120485952D02*
X140954761Y-120581190D01*
X140954761Y-120581190D02*
X140954761Y-120866904D01*
X140954761Y-120866904D02*
X141002380Y-120962142D01*
X141002380Y-120962142D02*
X141049999Y-121009761D01*
X141049999Y-121009761D02*
X141145237Y-121057380D01*
X141145237Y-121057380D02*
X141335713Y-121057380D01*
X141335713Y-121057380D02*
X141430951Y-121009761D01*
X158969047Y-123010714D02*
X159207142Y-123010714D01*
X159207142Y-123010714D02*
X159207142Y-121582142D01*
X159207142Y-121582142D02*
X158969047Y-121582142D01*
X158016666Y-122582142D02*
X158064285Y-122629761D01*
X158064285Y-122629761D02*
X158207142Y-122677380D01*
X158207142Y-122677380D02*
X158302380Y-122677380D01*
X158302380Y-122677380D02*
X158445237Y-122629761D01*
X158445237Y-122629761D02*
X158540475Y-122534523D01*
X158540475Y-122534523D02*
X158588094Y-122439285D01*
X158588094Y-122439285D02*
X158635713Y-122248809D01*
X158635713Y-122248809D02*
X158635713Y-122105952D01*
X158635713Y-122105952D02*
X158588094Y-121915476D01*
X158588094Y-121915476D02*
X158540475Y-121820238D01*
X158540475Y-121820238D02*
X158445237Y-121725000D01*
X158445237Y-121725000D02*
X158302380Y-121677380D01*
X158302380Y-121677380D02*
X158207142Y-121677380D01*
X158207142Y-121677380D02*
X158064285Y-121725000D01*
X158064285Y-121725000D02*
X158016666Y-121772619D01*
X157588094Y-122153571D02*
X157254761Y-122153571D01*
X157111904Y-122677380D02*
X157588094Y-122677380D01*
X157588094Y-122677380D02*
X157588094Y-121677380D01*
X157588094Y-121677380D02*
X157111904Y-121677380D01*
X156111904Y-122677380D02*
X156445237Y-122201190D01*
X156683332Y-122677380D02*
X156683332Y-121677380D01*
X156683332Y-121677380D02*
X156302380Y-121677380D01*
X156302380Y-121677380D02*
X156207142Y-121725000D01*
X156207142Y-121725000D02*
X156159523Y-121772619D01*
X156159523Y-121772619D02*
X156111904Y-121867857D01*
X156111904Y-121867857D02*
X156111904Y-122010714D01*
X156111904Y-122010714D02*
X156159523Y-122105952D01*
X156159523Y-122105952D02*
X156207142Y-122153571D01*
X156207142Y-122153571D02*
X156302380Y-122201190D01*
X156302380Y-122201190D02*
X156683332Y-122201190D01*
X155683332Y-122677380D02*
X155683332Y-121677380D01*
X155683332Y-121677380D02*
X155111904Y-122677380D01*
X155111904Y-122677380D02*
X155111904Y-121677380D01*
X154635713Y-122296428D02*
X153873809Y-122296428D01*
X153207142Y-121677380D02*
X153016666Y-121677380D01*
X153016666Y-121677380D02*
X152921428Y-121725000D01*
X152921428Y-121725000D02*
X152826190Y-121820238D01*
X152826190Y-121820238D02*
X152778571Y-122010714D01*
X152778571Y-122010714D02*
X152778571Y-122344047D01*
X152778571Y-122344047D02*
X152826190Y-122534523D01*
X152826190Y-122534523D02*
X152921428Y-122629761D01*
X152921428Y-122629761D02*
X153016666Y-122677380D01*
X153016666Y-122677380D02*
X153207142Y-122677380D01*
X153207142Y-122677380D02*
X153302380Y-122629761D01*
X153302380Y-122629761D02*
X153397618Y-122534523D01*
X153397618Y-122534523D02*
X153445237Y-122344047D01*
X153445237Y-122344047D02*
X153445237Y-122010714D01*
X153445237Y-122010714D02*
X153397618Y-121820238D01*
X153397618Y-121820238D02*
X153302380Y-121725000D01*
X153302380Y-121725000D02*
X153207142Y-121677380D01*
X152349999Y-122677380D02*
X152349999Y-121677380D01*
X152349999Y-122153571D02*
X151778571Y-122153571D01*
X151778571Y-122677380D02*
X151778571Y-121677380D01*
X151302380Y-122296428D02*
X150540476Y-122296428D01*
X150111904Y-122629761D02*
X149969047Y-122677380D01*
X149969047Y-122677380D02*
X149730952Y-122677380D01*
X149730952Y-122677380D02*
X149635714Y-122629761D01*
X149635714Y-122629761D02*
X149588095Y-122582142D01*
X149588095Y-122582142D02*
X149540476Y-122486904D01*
X149540476Y-122486904D02*
X149540476Y-122391666D01*
X149540476Y-122391666D02*
X149588095Y-122296428D01*
X149588095Y-122296428D02*
X149635714Y-122248809D01*
X149635714Y-122248809D02*
X149730952Y-122201190D01*
X149730952Y-122201190D02*
X149921428Y-122153571D01*
X149921428Y-122153571D02*
X150016666Y-122105952D01*
X150016666Y-122105952D02*
X150064285Y-122058333D01*
X150064285Y-122058333D02*
X150111904Y-121963095D01*
X150111904Y-121963095D02*
X150111904Y-121867857D01*
X150111904Y-121867857D02*
X150064285Y-121772619D01*
X150064285Y-121772619D02*
X150016666Y-121725000D01*
X150016666Y-121725000D02*
X149921428Y-121677380D01*
X149921428Y-121677380D02*
X149683333Y-121677380D01*
X149683333Y-121677380D02*
X149540476Y-121725000D01*
X148607142Y-122010714D02*
X148369047Y-122677380D01*
X148369047Y-122677380D02*
X148130952Y-122010714D01*
X147749999Y-122582142D02*
X147702380Y-122629761D01*
X147702380Y-122629761D02*
X147749999Y-122677380D01*
X147749999Y-122677380D02*
X147797618Y-122629761D01*
X147797618Y-122629761D02*
X147749999Y-122582142D01*
X147749999Y-122582142D02*
X147749999Y-122677380D01*
X147321428Y-121772619D02*
X147273809Y-121725000D01*
X147273809Y-121725000D02*
X147178571Y-121677380D01*
X147178571Y-121677380D02*
X146940476Y-121677380D01*
X146940476Y-121677380D02*
X146845238Y-121725000D01*
X146845238Y-121725000D02*
X146797619Y-121772619D01*
X146797619Y-121772619D02*
X146750000Y-121867857D01*
X146750000Y-121867857D02*
X146750000Y-121963095D01*
X146750000Y-121963095D02*
X146797619Y-122105952D01*
X146797619Y-122105952D02*
X147369047Y-122677380D01*
X147369047Y-122677380D02*
X146750000Y-122677380D01*
X146273809Y-122629761D02*
X146273809Y-122677380D01*
X146273809Y-122677380D02*
X146321428Y-122772619D01*
X146321428Y-122772619D02*
X146369047Y-122820238D01*
X145292857Y-121772619D02*
X145245238Y-121725000D01*
X145245238Y-121725000D02*
X145150000Y-121677380D01*
X145150000Y-121677380D02*
X144911905Y-121677380D01*
X144911905Y-121677380D02*
X144816667Y-121725000D01*
X144816667Y-121725000D02*
X144769048Y-121772619D01*
X144769048Y-121772619D02*
X144721429Y-121867857D01*
X144721429Y-121867857D02*
X144721429Y-121963095D01*
X144721429Y-121963095D02*
X144769048Y-122105952D01*
X144769048Y-122105952D02*
X145340476Y-122677380D01*
X145340476Y-122677380D02*
X144721429Y-122677380D01*
X144102381Y-121677380D02*
X144007143Y-121677380D01*
X144007143Y-121677380D02*
X143911905Y-121725000D01*
X143911905Y-121725000D02*
X143864286Y-121772619D01*
X143864286Y-121772619D02*
X143816667Y-121867857D01*
X143816667Y-121867857D02*
X143769048Y-122058333D01*
X143769048Y-122058333D02*
X143769048Y-122296428D01*
X143769048Y-122296428D02*
X143816667Y-122486904D01*
X143816667Y-122486904D02*
X143864286Y-122582142D01*
X143864286Y-122582142D02*
X143911905Y-122629761D01*
X143911905Y-122629761D02*
X144007143Y-122677380D01*
X144007143Y-122677380D02*
X144102381Y-122677380D01*
X144102381Y-122677380D02*
X144197619Y-122629761D01*
X144197619Y-122629761D02*
X144245238Y-122582142D01*
X144245238Y-122582142D02*
X144292857Y-122486904D01*
X144292857Y-122486904D02*
X144340476Y-122296428D01*
X144340476Y-122296428D02*
X144340476Y-122058333D01*
X144340476Y-122058333D02*
X144292857Y-121867857D01*
X144292857Y-121867857D02*
X144245238Y-121772619D01*
X144245238Y-121772619D02*
X144197619Y-121725000D01*
X144197619Y-121725000D02*
X144102381Y-121677380D01*
X143388095Y-121772619D02*
X143340476Y-121725000D01*
X143340476Y-121725000D02*
X143245238Y-121677380D01*
X143245238Y-121677380D02*
X143007143Y-121677380D01*
X143007143Y-121677380D02*
X142911905Y-121725000D01*
X142911905Y-121725000D02*
X142864286Y-121772619D01*
X142864286Y-121772619D02*
X142816667Y-121867857D01*
X142816667Y-121867857D02*
X142816667Y-121963095D01*
X142816667Y-121963095D02*
X142864286Y-122105952D01*
X142864286Y-122105952D02*
X143435714Y-122677380D01*
X143435714Y-122677380D02*
X142816667Y-122677380D01*
X141864286Y-122677380D02*
X142435714Y-122677380D01*
X142150000Y-122677380D02*
X142150000Y-121677380D01*
X142150000Y-121677380D02*
X142245238Y-121820238D01*
X142245238Y-121820238D02*
X142340476Y-121915476D01*
X142340476Y-121915476D02*
X142435714Y-121963095D01*
X141530952Y-123010714D02*
X141292857Y-123010714D01*
X141292857Y-123010714D02*
X141292857Y-121582142D01*
X141292857Y-121582142D02*
X141530952Y-121582142D01*
M02*
