M48
; DRILL file {KiCad 5.1.7+dfsg1-1~bpo10+1} date Sun Nov 29 21:40:11 2020
; FORMAT={3:3/ absolute / metric / suppress leading zeros}
; #@! TF.CreationDate,2020-11-29T21:40:11-05:00
; #@! TF.GenerationSoftware,Kicad,Pcbnew,5.1.7+dfsg1-1~bpo10+1
FMAT,2
METRIC,TZ
T1C0.400
T2C0.600
T3C0.750
T4C0.800
T5C0.850
T6C1.000
T7C1.550
T8C2.200
%
G90
G05
T1
X122400Y-91450
X123330Y-86538
X124600Y-98984
X125108Y-100000
X125500Y-90100
X128000Y-105400
X131839Y-97968
X131950Y-110150
X132844Y-78294
X133800Y-82050
X133950Y-121100
X134150Y-98000
X134500Y-118600
X135650Y-108300
X135850Y-92850
X138050Y-73800
X138200Y-80850
X138250Y-86575
X138400Y-117700
X140850Y-88300
X140950Y-121100
X142634Y-97714
X143371Y-103175
X143904Y-98984
X144000Y-92500
X144336Y-104242
X144500Y-93500
X145325Y-109906
X145400Y-76800
X147950Y-101200
X148875Y-98963
X150475Y-97714
X151637Y-100141
X151650Y-101550
X153048Y-112192
X153250Y-77600
X153550Y-122100
X153600Y-119000
X155350Y-73400
X155350Y-73400
X155350Y-73400
X155350Y-73400
X156550Y-107000
X161938Y-104572
X163970Y-104064
X165240Y-99746
X166150Y-76850
X166612Y-87910
X168034Y-104064
X172000Y-95000
X176924Y-97460
T2
X178550Y-100000
T3
X149450Y-71900
X151450Y-71900
T4
X141110Y-101397
X141110Y-106277
T5
X120463Y-97500
X120463Y-102500
T6
X131966Y-114961
X134506Y-114961
X137046Y-114961
X139586Y-114961
X142126Y-114961
X144666Y-114961
X147206Y-114961
X149746Y-114961
X152286Y-114961
X154826Y-114961
X157366Y-114961
X159906Y-114961
X162446Y-114961
X164986Y-114961
X131966Y-84460
X134506Y-84460
X137046Y-84460
X139586Y-84460
X142126Y-84460
X144666Y-84460
X147206Y-84460
X149746Y-84460
X152286Y-84460
X154826Y-84460
X157366Y-84460
X159906Y-84460
X162446Y-84460
X164986Y-84460
X145174Y-127686
X145174Y-130226
X147714Y-127686
X147714Y-130226
X150254Y-127686
X150254Y-130226
X152794Y-127686
X152794Y-130226
X155334Y-127686
X155334Y-130226
T7
X178702Y-88316
T8
X130000Y-120000
X170000Y-120000
X170000Y-80000
X130000Y-80000
T2
G00X117413Y-96500
M15
G01X118113Y-96500
M16
G05
G00X118113Y-103500
M15
G01X117413Y-103500
M16
G05
T0
M30
