G04 #@! TF.GenerationSoftware,KiCad,Pcbnew,5.1.9+dfsg1-1~bpo10+1*
G04 #@! TF.CreationDate,2021-10-25T22:06:13-04:00*
G04 #@! TF.ProjectId,wifi_shield,77696669-5f73-4686-9965-6c642e6b6963,rev?*
G04 #@! TF.SameCoordinates,Original*
G04 #@! TF.FileFunction,Soldermask,Top*
G04 #@! TF.FilePolarity,Negative*
%FSLAX46Y46*%
G04 Gerber Fmt 4.6, Leading zero omitted, Abs format (unit mm)*
G04 Created by KiCad (PCBNEW 5.1.9+dfsg1-1~bpo10+1) date 2021-10-25 22:06:13*
%MOMM*%
%LPD*%
G01*
G04 APERTURE LIST*
%ADD10O,1.801600X1.801600*%
%ADD11O,1.101600X1.101600*%
%ADD12C,0.100000*%
G04 APERTURE END LIST*
G36*
G01*
X147100000Y-69400800D02*
X145400000Y-69400800D01*
G75*
G02*
X145349200Y-69350000I0J50800D01*
G01*
X145349200Y-67650000D01*
G75*
G02*
X145400000Y-67599200I50800J0D01*
G01*
X147100000Y-67599200D01*
G75*
G02*
X147150800Y-67650000I0J-50800D01*
G01*
X147150800Y-69350000D01*
G75*
G02*
X147100000Y-69400800I-50800J0D01*
G01*
G37*
D10*
X148790000Y-68500000D03*
X151330000Y-68500000D03*
X153870000Y-68500000D03*
X172620000Y-80700000D03*
X170080000Y-80700000D03*
X167540000Y-80700000D03*
G36*
G01*
X165850000Y-81600800D02*
X164150000Y-81600800D01*
G75*
G02*
X164099200Y-81550000I0J50800D01*
G01*
X164099200Y-79850000D01*
G75*
G02*
X164150000Y-79799200I50800J0D01*
G01*
X165850000Y-79799200D01*
G75*
G02*
X165900800Y-79850000I0J-50800D01*
G01*
X165900800Y-81550000D01*
G75*
G02*
X165850000Y-81600800I-50800J0D01*
G01*
G37*
G36*
G01*
X164136000Y-83559200D02*
X165836000Y-83559200D01*
G75*
G02*
X165886800Y-83610000I0J-50800D01*
G01*
X165886800Y-85310000D01*
G75*
G02*
X165836000Y-85360800I-50800J0D01*
G01*
X164136000Y-85360800D01*
G75*
G02*
X164085200Y-85310000I0J50800D01*
G01*
X164085200Y-83610000D01*
G75*
G02*
X164136000Y-83559200I50800J0D01*
G01*
G37*
X162446000Y-84460000D03*
X159906000Y-84460000D03*
X157366000Y-84460000D03*
X154826000Y-84460000D03*
X152286000Y-84460000D03*
X149746000Y-84460000D03*
X147206000Y-84460000D03*
X144666000Y-84460000D03*
X142126000Y-84460000D03*
X139586000Y-84460000D03*
X137046000Y-84460000D03*
X134506000Y-84460000D03*
X131966000Y-84460000D03*
X164986000Y-114960600D03*
X162446000Y-114960600D03*
X159906000Y-114960600D03*
X157366000Y-114960600D03*
X154826000Y-114960600D03*
X152286000Y-114960600D03*
X149746000Y-114960600D03*
X147206000Y-114960600D03*
X144666000Y-114960600D03*
X142126000Y-114960600D03*
X139586000Y-114960600D03*
X137046000Y-114960600D03*
X134506000Y-114960600D03*
G36*
G01*
X132816000Y-115861400D02*
X131116000Y-115861400D01*
G75*
G02*
X131065200Y-115810600I0J50800D01*
G01*
X131065200Y-114110600D01*
G75*
G02*
X131116000Y-114059800I50800J0D01*
G01*
X132816000Y-114059800D01*
G75*
G02*
X132866800Y-114110600I0J-50800D01*
G01*
X132866800Y-115810600D01*
G75*
G02*
X132816000Y-115861400I-50800J0D01*
G01*
G37*
G36*
G01*
X134100000Y-79599200D02*
X135800000Y-79599200D01*
G75*
G02*
X135850800Y-79650000I0J-50800D01*
G01*
X135850800Y-81350000D01*
G75*
G02*
X135800000Y-81400800I-50800J0D01*
G01*
X134100000Y-81400800D01*
G75*
G02*
X134049200Y-81350000I0J50800D01*
G01*
X134049200Y-79650000D01*
G75*
G02*
X134100000Y-79599200I50800J0D01*
G01*
G37*
X132410000Y-80500000D03*
X129870000Y-80500000D03*
X127330000Y-80500000D03*
G36*
G01*
X122449200Y-89260000D02*
X122449200Y-87560000D01*
G75*
G02*
X122500000Y-87509200I50800J0D01*
G01*
X124200000Y-87509200D01*
G75*
G02*
X124250800Y-87560000I0J-50800D01*
G01*
X124250800Y-89260000D01*
G75*
G02*
X124200000Y-89310800I-50800J0D01*
G01*
X122500000Y-89310800D01*
G75*
G02*
X122449200Y-89260000I0J50800D01*
G01*
G37*
X123350000Y-90950000D03*
X123350000Y-93490000D03*
X123350000Y-96030000D03*
X123350000Y-98570000D03*
X123350000Y-101110000D03*
G36*
G01*
X126399200Y-77550000D02*
X126399200Y-75850000D01*
G75*
G02*
X126450000Y-75799200I50800J0D01*
G01*
X128150000Y-75799200D01*
G75*
G02*
X128200800Y-75850000I0J-50800D01*
G01*
X128200800Y-77550000D01*
G75*
G02*
X128150000Y-77600800I-50800J0D01*
G01*
X126450000Y-77600800D01*
G75*
G02*
X126399200Y-77550000I0J50800D01*
G01*
G37*
G36*
G01*
X175599200Y-115850000D02*
X175599200Y-114150000D01*
G75*
G02*
X175650000Y-114099200I50800J0D01*
G01*
X177350000Y-114099200D01*
G75*
G02*
X177400800Y-114150000I0J-50800D01*
G01*
X177400800Y-115850000D01*
G75*
G02*
X177350000Y-115900800I-50800J0D01*
G01*
X175650000Y-115900800D01*
G75*
G02*
X175599200Y-115850000I0J50800D01*
G01*
G37*
G36*
G01*
X148845200Y-132600000D02*
X148845200Y-130900000D01*
G75*
G02*
X148896000Y-130849200I50800J0D01*
G01*
X150596000Y-130849200D01*
G75*
G02*
X150646800Y-130900000I0J-50800D01*
G01*
X150646800Y-132600000D01*
G75*
G02*
X150596000Y-132650800I-50800J0D01*
G01*
X148896000Y-132650800D01*
G75*
G02*
X148845200Y-132600000I0J50800D01*
G01*
G37*
G36*
G01*
X175599200Y-85350000D02*
X175599200Y-83650000D01*
G75*
G02*
X175650000Y-83599200I50800J0D01*
G01*
X177350000Y-83599200D01*
G75*
G02*
X177400800Y-83650000I0J-50800D01*
G01*
X177400800Y-85350000D01*
G75*
G02*
X177350000Y-85400800I-50800J0D01*
G01*
X175650000Y-85400800D01*
G75*
G02*
X175599200Y-85350000I0J50800D01*
G01*
G37*
G36*
G01*
X171799200Y-77750000D02*
X171799200Y-76050000D01*
G75*
G02*
X171850000Y-75999200I50800J0D01*
G01*
X173550000Y-75999200D01*
G75*
G02*
X173600800Y-76050000I0J-50800D01*
G01*
X173600800Y-77750000D01*
G75*
G02*
X173550000Y-77800800I-50800J0D01*
G01*
X171850000Y-77800800D01*
G75*
G02*
X171799200Y-77750000I0J50800D01*
G01*
G37*
G36*
G01*
X117679400Y-101916800D02*
X117679400Y-100216800D01*
G75*
G02*
X117730200Y-100166000I50800J0D01*
G01*
X119430200Y-100166000D01*
G75*
G02*
X119481000Y-100216800I0J-50800D01*
G01*
X119481000Y-101916800D01*
G75*
G02*
X119430200Y-101967600I-50800J0D01*
G01*
X117730200Y-101967600D01*
G75*
G02*
X117679400Y-101916800I0J50800D01*
G01*
G37*
G36*
G01*
X132008800Y-122868000D02*
X132008800Y-123868000D01*
G75*
G02*
X131958000Y-123918800I-50800J0D01*
G01*
X130958000Y-123918800D01*
G75*
G02*
X130907200Y-123868000I0J50800D01*
G01*
X130907200Y-122868000D01*
G75*
G02*
X130958000Y-122817200I50800J0D01*
G01*
X131958000Y-122817200D01*
G75*
G02*
X132008800Y-122868000I0J-50800D01*
G01*
G37*
D11*
X130188000Y-123368000D03*
X131458000Y-122098000D03*
X130188000Y-122098000D03*
X131458000Y-120828000D03*
X130188000Y-120828000D03*
X131458000Y-119558000D03*
X130188000Y-119558000D03*
X131458000Y-118288000D03*
X130188000Y-118288000D03*
D12*
G36*
X130908365Y-123045110D02*
G01*
X130909200Y-123046736D01*
X130909200Y-123689264D01*
X130908200Y-123690996D01*
X130906200Y-123690996D01*
X130905210Y-123689460D01*
X130902828Y-123665273D01*
X130895828Y-123642198D01*
X130884463Y-123620934D01*
X130869168Y-123602297D01*
X130850531Y-123587002D01*
X130829267Y-123575637D01*
X130806192Y-123568637D01*
X130782201Y-123566274D01*
X130758210Y-123568637D01*
X130735135Y-123575637D01*
X130713871Y-123587002D01*
X130695234Y-123602297D01*
X130679876Y-123621012D01*
X130676606Y-123625906D01*
X130674812Y-123626791D01*
X130673149Y-123625680D01*
X130673095Y-123624030D01*
X130713159Y-123527307D01*
X130734148Y-123421789D01*
X130734148Y-123314211D01*
X130713159Y-123208693D01*
X130673095Y-123111970D01*
X130673356Y-123109987D01*
X130675204Y-123109222D01*
X130676606Y-123110094D01*
X130679876Y-123114988D01*
X130695234Y-123133703D01*
X130713871Y-123148998D01*
X130735135Y-123160363D01*
X130758210Y-123167363D01*
X130782201Y-123169726D01*
X130806192Y-123167363D01*
X130829267Y-123160363D01*
X130850531Y-123148998D01*
X130869168Y-123133703D01*
X130884463Y-123115066D01*
X130895828Y-123093802D01*
X130902828Y-123070727D01*
X130905210Y-123046540D01*
X130906375Y-123044914D01*
X130908365Y-123045110D01*
G37*
G36*
X130360385Y-122618825D02*
G01*
X130361150Y-122620673D01*
X130360110Y-122622176D01*
X130344089Y-122630738D01*
X130325452Y-122646033D01*
X130310157Y-122664670D01*
X130298791Y-122685933D01*
X130291791Y-122709008D01*
X130289428Y-122732999D01*
X130291791Y-122756990D01*
X130298791Y-122780065D01*
X130310156Y-122801329D01*
X130325451Y-122819966D01*
X130344088Y-122835261D01*
X130360109Y-122843824D01*
X130361165Y-122845523D01*
X130360222Y-122847286D01*
X130358401Y-122847436D01*
X130347307Y-122842841D01*
X130241789Y-122821852D01*
X130134211Y-122821852D01*
X130028693Y-122842841D01*
X130017598Y-122847436D01*
X130015615Y-122847175D01*
X130014850Y-122845327D01*
X130015890Y-122843824D01*
X130031911Y-122835262D01*
X130050548Y-122819967D01*
X130065843Y-122801330D01*
X130077209Y-122780067D01*
X130084209Y-122756992D01*
X130086572Y-122733001D01*
X130084209Y-122709010D01*
X130077209Y-122685935D01*
X130065844Y-122664671D01*
X130050549Y-122646034D01*
X130031912Y-122630739D01*
X130015891Y-122622176D01*
X130014835Y-122620477D01*
X130015778Y-122618714D01*
X130017599Y-122618564D01*
X130028693Y-122623159D01*
X130134211Y-122644148D01*
X130241789Y-122644148D01*
X130347307Y-122623159D01*
X130358402Y-122618564D01*
X130360385Y-122618825D01*
G37*
G36*
X131716013Y-122583356D02*
G01*
X131716778Y-122585204D01*
X131715906Y-122586606D01*
X131711012Y-122589876D01*
X131692297Y-122605234D01*
X131677002Y-122623871D01*
X131665637Y-122645135D01*
X131658637Y-122668210D01*
X131656274Y-122692201D01*
X131658637Y-122716192D01*
X131665637Y-122739267D01*
X131677002Y-122760531D01*
X131692297Y-122779168D01*
X131710934Y-122794463D01*
X131732198Y-122805828D01*
X131755273Y-122812828D01*
X131779460Y-122815210D01*
X131781086Y-122816375D01*
X131780890Y-122818365D01*
X131779264Y-122819200D01*
X131136736Y-122819200D01*
X131135004Y-122818200D01*
X131135004Y-122816200D01*
X131136540Y-122815210D01*
X131160727Y-122812828D01*
X131183802Y-122805828D01*
X131205066Y-122794463D01*
X131223703Y-122779168D01*
X131238998Y-122760531D01*
X131250363Y-122739267D01*
X131257363Y-122716192D01*
X131259726Y-122692201D01*
X131257363Y-122668210D01*
X131250363Y-122645135D01*
X131238998Y-122623871D01*
X131223703Y-122605234D01*
X131204988Y-122589876D01*
X131200094Y-122586606D01*
X131199209Y-122584812D01*
X131200320Y-122583149D01*
X131201970Y-122583095D01*
X131298693Y-122623159D01*
X131404211Y-122644148D01*
X131511789Y-122644148D01*
X131617307Y-122623159D01*
X131714030Y-122583095D01*
X131716013Y-122583356D01*
G37*
G36*
X130937287Y-121925776D02*
G01*
X130937437Y-121927597D01*
X130932841Y-121938693D01*
X130911852Y-122044211D01*
X130911852Y-122151789D01*
X130932841Y-122257307D01*
X130937436Y-122268402D01*
X130937175Y-122270385D01*
X130935327Y-122271150D01*
X130933824Y-122270110D01*
X130925262Y-122254089D01*
X130909967Y-122235452D01*
X130891330Y-122220157D01*
X130870067Y-122208791D01*
X130846992Y-122201791D01*
X130823001Y-122199428D01*
X130799010Y-122201791D01*
X130775935Y-122208791D01*
X130754671Y-122220156D01*
X130736034Y-122235451D01*
X130720739Y-122254088D01*
X130712175Y-122270111D01*
X130710476Y-122271167D01*
X130708713Y-122270224D01*
X130708563Y-122268403D01*
X130713159Y-122257307D01*
X130734148Y-122151789D01*
X130734148Y-122044211D01*
X130713159Y-121938693D01*
X130708564Y-121927598D01*
X130708825Y-121925615D01*
X130710673Y-121924850D01*
X130712176Y-121925890D01*
X130720738Y-121941911D01*
X130736033Y-121960548D01*
X130754670Y-121975843D01*
X130775933Y-121987209D01*
X130799008Y-121994209D01*
X130822999Y-121996572D01*
X130846990Y-121994209D01*
X130870065Y-121987209D01*
X130891329Y-121975844D01*
X130909966Y-121960549D01*
X130925261Y-121941912D01*
X130933825Y-121925889D01*
X130935524Y-121924833D01*
X130937287Y-121925776D01*
G37*
G36*
X130360385Y-121348825D02*
G01*
X130361150Y-121350673D01*
X130360110Y-121352176D01*
X130344089Y-121360738D01*
X130325452Y-121376033D01*
X130310157Y-121394670D01*
X130298791Y-121415933D01*
X130291791Y-121439008D01*
X130289428Y-121462999D01*
X130291791Y-121486990D01*
X130298791Y-121510065D01*
X130310156Y-121531329D01*
X130325451Y-121549966D01*
X130344088Y-121565261D01*
X130360109Y-121573824D01*
X130361165Y-121575523D01*
X130360222Y-121577286D01*
X130358401Y-121577436D01*
X130347307Y-121572841D01*
X130241789Y-121551852D01*
X130134211Y-121551852D01*
X130028693Y-121572841D01*
X130017598Y-121577436D01*
X130015615Y-121577175D01*
X130014850Y-121575327D01*
X130015890Y-121573824D01*
X130031911Y-121565262D01*
X130050548Y-121549967D01*
X130065843Y-121531330D01*
X130077209Y-121510067D01*
X130084209Y-121486992D01*
X130086572Y-121463001D01*
X130084209Y-121439010D01*
X130077209Y-121415935D01*
X130065844Y-121394671D01*
X130050549Y-121376034D01*
X130031912Y-121360739D01*
X130015891Y-121352176D01*
X130014835Y-121350477D01*
X130015778Y-121348714D01*
X130017599Y-121348564D01*
X130028693Y-121353159D01*
X130134211Y-121374148D01*
X130241789Y-121374148D01*
X130347307Y-121353159D01*
X130358402Y-121348564D01*
X130360385Y-121348825D01*
G37*
G36*
X131630385Y-121348825D02*
G01*
X131631150Y-121350673D01*
X131630110Y-121352176D01*
X131614089Y-121360738D01*
X131595452Y-121376033D01*
X131580157Y-121394670D01*
X131568791Y-121415933D01*
X131561791Y-121439008D01*
X131559428Y-121462999D01*
X131561791Y-121486990D01*
X131568791Y-121510065D01*
X131580156Y-121531329D01*
X131595451Y-121549966D01*
X131614088Y-121565261D01*
X131630109Y-121573824D01*
X131631165Y-121575523D01*
X131630222Y-121577286D01*
X131628401Y-121577436D01*
X131617307Y-121572841D01*
X131511789Y-121551852D01*
X131404211Y-121551852D01*
X131298693Y-121572841D01*
X131287598Y-121577436D01*
X131285615Y-121577175D01*
X131284850Y-121575327D01*
X131285890Y-121573824D01*
X131301911Y-121565262D01*
X131320548Y-121549967D01*
X131335843Y-121531330D01*
X131347209Y-121510067D01*
X131354209Y-121486992D01*
X131356572Y-121463001D01*
X131354209Y-121439010D01*
X131347209Y-121415935D01*
X131335844Y-121394671D01*
X131320549Y-121376034D01*
X131301912Y-121360739D01*
X131285891Y-121352176D01*
X131284835Y-121350477D01*
X131285778Y-121348714D01*
X131287599Y-121348564D01*
X131298693Y-121353159D01*
X131404211Y-121374148D01*
X131511789Y-121374148D01*
X131617307Y-121353159D01*
X131628402Y-121348564D01*
X131630385Y-121348825D01*
G37*
G36*
X130937287Y-120655776D02*
G01*
X130937437Y-120657597D01*
X130932841Y-120668693D01*
X130911852Y-120774211D01*
X130911852Y-120881789D01*
X130932841Y-120987307D01*
X130937436Y-120998402D01*
X130937175Y-121000385D01*
X130935327Y-121001150D01*
X130933824Y-121000110D01*
X130925262Y-120984089D01*
X130909967Y-120965452D01*
X130891330Y-120950157D01*
X130870067Y-120938791D01*
X130846992Y-120931791D01*
X130823001Y-120929428D01*
X130799010Y-120931791D01*
X130775935Y-120938791D01*
X130754671Y-120950156D01*
X130736034Y-120965451D01*
X130720739Y-120984088D01*
X130712175Y-121000111D01*
X130710476Y-121001167D01*
X130708713Y-121000224D01*
X130708563Y-120998403D01*
X130713159Y-120987307D01*
X130734148Y-120881789D01*
X130734148Y-120774211D01*
X130713159Y-120668693D01*
X130708564Y-120657598D01*
X130708825Y-120655615D01*
X130710673Y-120654850D01*
X130712176Y-120655890D01*
X130720738Y-120671911D01*
X130736033Y-120690548D01*
X130754670Y-120705843D01*
X130775933Y-120717209D01*
X130799008Y-120724209D01*
X130822999Y-120726572D01*
X130846990Y-120724209D01*
X130870065Y-120717209D01*
X130891329Y-120705844D01*
X130909966Y-120690549D01*
X130925261Y-120671912D01*
X130933825Y-120655889D01*
X130935524Y-120654833D01*
X130937287Y-120655776D01*
G37*
G36*
X130360385Y-120078825D02*
G01*
X130361150Y-120080673D01*
X130360110Y-120082176D01*
X130344089Y-120090738D01*
X130325452Y-120106033D01*
X130310157Y-120124670D01*
X130298791Y-120145933D01*
X130291791Y-120169008D01*
X130289428Y-120192999D01*
X130291791Y-120216990D01*
X130298791Y-120240065D01*
X130310156Y-120261329D01*
X130325451Y-120279966D01*
X130344088Y-120295261D01*
X130360109Y-120303824D01*
X130361165Y-120305523D01*
X130360222Y-120307286D01*
X130358401Y-120307436D01*
X130347307Y-120302841D01*
X130241789Y-120281852D01*
X130134211Y-120281852D01*
X130028693Y-120302841D01*
X130017598Y-120307436D01*
X130015615Y-120307175D01*
X130014850Y-120305327D01*
X130015890Y-120303824D01*
X130031911Y-120295262D01*
X130050548Y-120279967D01*
X130065843Y-120261330D01*
X130077209Y-120240067D01*
X130084209Y-120216992D01*
X130086572Y-120193001D01*
X130084209Y-120169010D01*
X130077209Y-120145935D01*
X130065844Y-120124671D01*
X130050549Y-120106034D01*
X130031912Y-120090739D01*
X130015891Y-120082176D01*
X130014835Y-120080477D01*
X130015778Y-120078714D01*
X130017599Y-120078564D01*
X130028693Y-120083159D01*
X130134211Y-120104148D01*
X130241789Y-120104148D01*
X130347307Y-120083159D01*
X130358402Y-120078564D01*
X130360385Y-120078825D01*
G37*
G36*
X131630385Y-120078825D02*
G01*
X131631150Y-120080673D01*
X131630110Y-120082176D01*
X131614089Y-120090738D01*
X131595452Y-120106033D01*
X131580157Y-120124670D01*
X131568791Y-120145933D01*
X131561791Y-120169008D01*
X131559428Y-120192999D01*
X131561791Y-120216990D01*
X131568791Y-120240065D01*
X131580156Y-120261329D01*
X131595451Y-120279966D01*
X131614088Y-120295261D01*
X131630109Y-120303824D01*
X131631165Y-120305523D01*
X131630222Y-120307286D01*
X131628401Y-120307436D01*
X131617307Y-120302841D01*
X131511789Y-120281852D01*
X131404211Y-120281852D01*
X131298693Y-120302841D01*
X131287598Y-120307436D01*
X131285615Y-120307175D01*
X131284850Y-120305327D01*
X131285890Y-120303824D01*
X131301911Y-120295262D01*
X131320548Y-120279967D01*
X131335843Y-120261330D01*
X131347209Y-120240067D01*
X131354209Y-120216992D01*
X131356572Y-120193001D01*
X131354209Y-120169010D01*
X131347209Y-120145935D01*
X131335844Y-120124671D01*
X131320549Y-120106034D01*
X131301912Y-120090739D01*
X131285891Y-120082176D01*
X131284835Y-120080477D01*
X131285778Y-120078714D01*
X131287599Y-120078564D01*
X131298693Y-120083159D01*
X131404211Y-120104148D01*
X131511789Y-120104148D01*
X131617307Y-120083159D01*
X131628402Y-120078564D01*
X131630385Y-120078825D01*
G37*
G36*
X130937287Y-119385776D02*
G01*
X130937437Y-119387597D01*
X130932841Y-119398693D01*
X130911852Y-119504211D01*
X130911852Y-119611789D01*
X130932841Y-119717307D01*
X130937436Y-119728402D01*
X130937175Y-119730385D01*
X130935327Y-119731150D01*
X130933824Y-119730110D01*
X130925262Y-119714089D01*
X130909967Y-119695452D01*
X130891330Y-119680157D01*
X130870067Y-119668791D01*
X130846992Y-119661791D01*
X130823001Y-119659428D01*
X130799010Y-119661791D01*
X130775935Y-119668791D01*
X130754671Y-119680156D01*
X130736034Y-119695451D01*
X130720739Y-119714088D01*
X130712175Y-119730111D01*
X130710476Y-119731167D01*
X130708713Y-119730224D01*
X130708563Y-119728403D01*
X130713159Y-119717307D01*
X130734148Y-119611789D01*
X130734148Y-119504211D01*
X130713159Y-119398693D01*
X130708564Y-119387598D01*
X130708825Y-119385615D01*
X130710673Y-119384850D01*
X130712176Y-119385890D01*
X130720738Y-119401911D01*
X130736033Y-119420548D01*
X130754670Y-119435843D01*
X130775933Y-119447209D01*
X130799008Y-119454209D01*
X130822999Y-119456572D01*
X130846990Y-119454209D01*
X130870065Y-119447209D01*
X130891329Y-119435844D01*
X130909966Y-119420549D01*
X130925261Y-119401912D01*
X130933825Y-119385889D01*
X130935524Y-119384833D01*
X130937287Y-119385776D01*
G37*
G36*
X130360385Y-118808825D02*
G01*
X130361150Y-118810673D01*
X130360110Y-118812176D01*
X130344089Y-118820738D01*
X130325452Y-118836033D01*
X130310157Y-118854670D01*
X130298791Y-118875933D01*
X130291791Y-118899008D01*
X130289428Y-118922999D01*
X130291791Y-118946990D01*
X130298791Y-118970065D01*
X130310156Y-118991329D01*
X130325451Y-119009966D01*
X130344088Y-119025261D01*
X130360109Y-119033824D01*
X130361165Y-119035523D01*
X130360222Y-119037286D01*
X130358401Y-119037436D01*
X130347307Y-119032841D01*
X130241789Y-119011852D01*
X130134211Y-119011852D01*
X130028693Y-119032841D01*
X130017598Y-119037436D01*
X130015615Y-119037175D01*
X130014850Y-119035327D01*
X130015890Y-119033824D01*
X130031911Y-119025262D01*
X130050548Y-119009967D01*
X130065843Y-118991330D01*
X130077209Y-118970067D01*
X130084209Y-118946992D01*
X130086572Y-118923001D01*
X130084209Y-118899010D01*
X130077209Y-118875935D01*
X130065844Y-118854671D01*
X130050549Y-118836034D01*
X130031912Y-118820739D01*
X130015891Y-118812176D01*
X130014835Y-118810477D01*
X130015778Y-118808714D01*
X130017599Y-118808564D01*
X130028693Y-118813159D01*
X130134211Y-118834148D01*
X130241789Y-118834148D01*
X130347307Y-118813159D01*
X130358402Y-118808564D01*
X130360385Y-118808825D01*
G37*
G36*
X131630385Y-118808825D02*
G01*
X131631150Y-118810673D01*
X131630110Y-118812176D01*
X131614089Y-118820738D01*
X131595452Y-118836033D01*
X131580157Y-118854670D01*
X131568791Y-118875933D01*
X131561791Y-118899008D01*
X131559428Y-118922999D01*
X131561791Y-118946990D01*
X131568791Y-118970065D01*
X131580156Y-118991329D01*
X131595451Y-119009966D01*
X131614088Y-119025261D01*
X131630109Y-119033824D01*
X131631165Y-119035523D01*
X131630222Y-119037286D01*
X131628401Y-119037436D01*
X131617307Y-119032841D01*
X131511789Y-119011852D01*
X131404211Y-119011852D01*
X131298693Y-119032841D01*
X131287598Y-119037436D01*
X131285615Y-119037175D01*
X131284850Y-119035327D01*
X131285890Y-119033824D01*
X131301911Y-119025262D01*
X131320548Y-119009967D01*
X131335843Y-118991330D01*
X131347209Y-118970067D01*
X131354209Y-118946992D01*
X131356572Y-118923001D01*
X131354209Y-118899010D01*
X131347209Y-118875935D01*
X131335844Y-118854671D01*
X131320549Y-118836034D01*
X131301912Y-118820739D01*
X131285891Y-118812176D01*
X131284835Y-118810477D01*
X131285778Y-118808714D01*
X131287599Y-118808564D01*
X131298693Y-118813159D01*
X131404211Y-118834148D01*
X131511789Y-118834148D01*
X131617307Y-118813159D01*
X131628402Y-118808564D01*
X131630385Y-118808825D01*
G37*
G36*
X130937287Y-118115776D02*
G01*
X130937437Y-118117597D01*
X130932841Y-118128693D01*
X130911852Y-118234211D01*
X130911852Y-118341789D01*
X130932841Y-118447307D01*
X130937436Y-118458402D01*
X130937175Y-118460385D01*
X130935327Y-118461150D01*
X130933824Y-118460110D01*
X130925262Y-118444089D01*
X130909967Y-118425452D01*
X130891330Y-118410157D01*
X130870067Y-118398791D01*
X130846992Y-118391791D01*
X130823001Y-118389428D01*
X130799010Y-118391791D01*
X130775935Y-118398791D01*
X130754671Y-118410156D01*
X130736034Y-118425451D01*
X130720739Y-118444088D01*
X130712175Y-118460111D01*
X130710476Y-118461167D01*
X130708713Y-118460224D01*
X130708563Y-118458403D01*
X130713159Y-118447307D01*
X130734148Y-118341789D01*
X130734148Y-118234211D01*
X130713159Y-118128693D01*
X130708564Y-118117598D01*
X130708825Y-118115615D01*
X130710673Y-118114850D01*
X130712176Y-118115890D01*
X130720738Y-118131911D01*
X130736033Y-118150548D01*
X130754670Y-118165843D01*
X130775933Y-118177209D01*
X130799008Y-118184209D01*
X130822999Y-118186572D01*
X130846990Y-118184209D01*
X130870065Y-118177209D01*
X130891329Y-118165844D01*
X130909966Y-118150549D01*
X130925261Y-118131912D01*
X130933825Y-118115889D01*
X130935524Y-118114833D01*
X130937287Y-118115776D01*
G37*
M02*
