G04 #@! TF.GenerationSoftware,KiCad,Pcbnew,5.1.9+dfsg1-1~bpo10+1*
G04 #@! TF.CreationDate,2021-11-05T17:59:57-04:00*
G04 #@! TF.ProjectId,wifi_shield,77696669-5f73-4686-9965-6c642e6b6963,rev?*
G04 #@! TF.SameCoordinates,Original*
G04 #@! TF.FileFunction,Legend,Top*
G04 #@! TF.FilePolarity,Positive*
%FSLAX46Y46*%
G04 Gerber Fmt 4.6, Leading zero omitted, Abs format (unit mm)*
G04 Created by KiCad (PCBNEW 5.1.9+dfsg1-1~bpo10+1) date 2021-11-05 17:59:57*
%MOMM*%
%LPD*%
G01*
G04 APERTURE LIST*
%ADD10C,0.150000*%
%ADD11C,0.200000*%
%ADD12C,0.010000*%
%ADD13C,0.120000*%
G04 APERTURE END LIST*
D10*
X167242028Y-77259028D02*
X166956314Y-77259028D01*
X166956314Y-76659028D01*
X167442028Y-76944742D02*
X167642028Y-76944742D01*
X167727742Y-77259028D02*
X167442028Y-77259028D01*
X167442028Y-76659028D01*
X167727742Y-76659028D01*
X167984885Y-77259028D02*
X167984885Y-76659028D01*
X168127742Y-76659028D01*
X168213457Y-76687600D01*
X168270600Y-76744742D01*
X168299171Y-76801885D01*
X168327742Y-76916171D01*
X168327742Y-77001885D01*
X168299171Y-77116171D01*
X168270600Y-77173314D01*
X168213457Y-77230457D01*
X168127742Y-77259028D01*
X167984885Y-77259028D01*
X168442028Y-77316171D02*
X168899171Y-77316171D01*
X169356314Y-76687600D02*
X169299171Y-76659028D01*
X169213457Y-76659028D01*
X169127742Y-76687600D01*
X169070600Y-76744742D01*
X169042028Y-76801885D01*
X169013457Y-76916171D01*
X169013457Y-77001885D01*
X169042028Y-77116171D01*
X169070600Y-77173314D01*
X169127742Y-77230457D01*
X169213457Y-77259028D01*
X169270600Y-77259028D01*
X169356314Y-77230457D01*
X169384885Y-77201885D01*
X169384885Y-77001885D01*
X169270600Y-77001885D01*
X169642028Y-77259028D02*
X169642028Y-76659028D01*
X169984885Y-77259028D01*
X169984885Y-76659028D01*
X170270600Y-77259028D02*
X170270600Y-76659028D01*
X170413457Y-76659028D01*
X170499171Y-76687600D01*
X170556314Y-76744742D01*
X170584885Y-76801885D01*
X170613457Y-76916171D01*
X170613457Y-77001885D01*
X170584885Y-77116171D01*
X170556314Y-77173314D01*
X170499171Y-77230457D01*
X170413457Y-77259028D01*
X170270600Y-77259028D01*
D11*
X128227380Y-123947095D02*
X127227380Y-123947095D01*
X127227380Y-123566142D01*
X127275000Y-123470904D01*
X127322619Y-123423285D01*
X127417857Y-123375666D01*
X127560714Y-123375666D01*
X127655952Y-123423285D01*
X127703571Y-123470904D01*
X127751190Y-123566142D01*
X127751190Y-123947095D01*
X128227380Y-122947095D02*
X127227380Y-122947095D01*
X127941666Y-122613761D01*
X127227380Y-122280428D01*
X128227380Y-122280428D01*
X127227380Y-121899476D02*
X127227380Y-121232809D01*
X128227380Y-121661380D01*
X127227380Y-120661380D02*
X127227380Y-120566142D01*
X127275000Y-120470904D01*
X127322619Y-120423285D01*
X127417857Y-120375666D01*
X127608333Y-120328047D01*
X127846428Y-120328047D01*
X128036904Y-120375666D01*
X128132142Y-120423285D01*
X128179761Y-120470904D01*
X128227380Y-120566142D01*
X128227380Y-120661380D01*
X128179761Y-120756619D01*
X128132142Y-120804238D01*
X128036904Y-120851857D01*
X127846428Y-120899476D01*
X127608333Y-120899476D01*
X127417857Y-120851857D01*
X127322619Y-120804238D01*
X127275000Y-120756619D01*
X127227380Y-120661380D01*
X127227380Y-119709000D02*
X127227380Y-119613761D01*
X127275000Y-119518523D01*
X127322619Y-119470904D01*
X127417857Y-119423285D01*
X127608333Y-119375666D01*
X127846428Y-119375666D01*
X128036904Y-119423285D01*
X128132142Y-119470904D01*
X128179761Y-119518523D01*
X128227380Y-119613761D01*
X128227380Y-119709000D01*
X128179761Y-119804238D01*
X128132142Y-119851857D01*
X128036904Y-119899476D01*
X127846428Y-119947095D01*
X127608333Y-119947095D01*
X127417857Y-119899476D01*
X127322619Y-119851857D01*
X127275000Y-119804238D01*
X127227380Y-119709000D01*
X127227380Y-119042333D02*
X127227380Y-118423285D01*
X127608333Y-118756619D01*
X127608333Y-118613761D01*
X127655952Y-118518523D01*
X127703571Y-118470904D01*
X127798809Y-118423285D01*
X128036904Y-118423285D01*
X128132142Y-118470904D01*
X128179761Y-118518523D01*
X128227380Y-118613761D01*
X128227380Y-118899476D01*
X128179761Y-118994714D01*
X128132142Y-119042333D01*
D10*
X117448457Y-103751228D02*
X117162742Y-103751228D01*
X117162742Y-103151228D01*
X117648457Y-103436942D02*
X117848457Y-103436942D01*
X117934171Y-103751228D02*
X117648457Y-103751228D01*
X117648457Y-103151228D01*
X117934171Y-103151228D01*
X118191314Y-103751228D02*
X118191314Y-103151228D01*
X118334171Y-103151228D01*
X118419885Y-103179800D01*
X118477028Y-103236942D01*
X118505600Y-103294085D01*
X118534171Y-103408371D01*
X118534171Y-103494085D01*
X118505600Y-103608371D01*
X118477028Y-103665514D01*
X118419885Y-103722657D01*
X118334171Y-103751228D01*
X118191314Y-103751228D01*
X118648457Y-103808371D02*
X119105600Y-103808371D01*
X119219885Y-103579800D02*
X119505600Y-103579800D01*
X119162742Y-103751228D02*
X119362742Y-103151228D01*
X119562742Y-103751228D01*
X120077028Y-103751228D02*
X119734171Y-103751228D01*
X119905600Y-103751228D02*
X119905600Y-103151228D01*
X119848457Y-103236942D01*
X119791314Y-103294085D01*
X119734171Y-103322657D01*
X129869057Y-77005028D02*
X129583342Y-77005028D01*
X129583342Y-76405028D01*
X130069057Y-76690742D02*
X130269057Y-76690742D01*
X130354771Y-77005028D02*
X130069057Y-77005028D01*
X130069057Y-76405028D01*
X130354771Y-76405028D01*
X130611914Y-77005028D02*
X130611914Y-76405028D01*
X130754771Y-76405028D01*
X130840485Y-76433600D01*
X130897628Y-76490742D01*
X130926200Y-76547885D01*
X130954771Y-76662171D01*
X130954771Y-76747885D01*
X130926200Y-76862171D01*
X130897628Y-76919314D01*
X130840485Y-76976457D01*
X130754771Y-77005028D01*
X130611914Y-77005028D01*
X131069057Y-77062171D02*
X131526200Y-77062171D01*
X131954771Y-76405028D02*
X131669057Y-76405028D01*
X131640485Y-76690742D01*
X131669057Y-76662171D01*
X131726200Y-76633600D01*
X131869057Y-76633600D01*
X131926200Y-76662171D01*
X131954771Y-76690742D01*
X131983342Y-76747885D01*
X131983342Y-76890742D01*
X131954771Y-76947885D01*
X131926200Y-76976457D01*
X131869057Y-77005028D01*
X131726200Y-77005028D01*
X131669057Y-76976457D01*
X131640485Y-76947885D01*
X132154771Y-76405028D02*
X132354771Y-77005028D01*
X132554771Y-76405028D01*
X175385857Y-87190428D02*
X175100142Y-87190428D01*
X175100142Y-86590428D01*
X175585857Y-86876142D02*
X175785857Y-86876142D01*
X175871571Y-87190428D02*
X175585857Y-87190428D01*
X175585857Y-86590428D01*
X175871571Y-86590428D01*
X176128714Y-87190428D02*
X176128714Y-86590428D01*
X176271571Y-86590428D01*
X176357285Y-86619000D01*
X176414428Y-86676142D01*
X176443000Y-86733285D01*
X176471571Y-86847571D01*
X176471571Y-86933285D01*
X176443000Y-87047571D01*
X176414428Y-87104714D01*
X176357285Y-87161857D01*
X176271571Y-87190428D01*
X176128714Y-87190428D01*
X176585857Y-87247571D02*
X177043000Y-87247571D01*
X177471571Y-86590428D02*
X177185857Y-86590428D01*
X177157285Y-86876142D01*
X177185857Y-86847571D01*
X177243000Y-86819000D01*
X177385857Y-86819000D01*
X177443000Y-86847571D01*
X177471571Y-86876142D01*
X177500142Y-86933285D01*
X177500142Y-87076142D01*
X177471571Y-87133285D01*
X177443000Y-87161857D01*
X177385857Y-87190428D01*
X177243000Y-87190428D01*
X177185857Y-87161857D01*
X177157285Y-87133285D01*
X177671571Y-86590428D02*
X177871571Y-87190428D01*
X178071571Y-86590428D01*
X175014428Y-117670428D02*
X174728714Y-117670428D01*
X174728714Y-117070428D01*
X175214428Y-117356142D02*
X175414428Y-117356142D01*
X175500142Y-117670428D02*
X175214428Y-117670428D01*
X175214428Y-117070428D01*
X175500142Y-117070428D01*
X175757285Y-117670428D02*
X175757285Y-117070428D01*
X175900142Y-117070428D01*
X175985857Y-117099000D01*
X176043000Y-117156142D01*
X176071571Y-117213285D01*
X176100142Y-117327571D01*
X176100142Y-117413285D01*
X176071571Y-117527571D01*
X176043000Y-117584714D01*
X175985857Y-117641857D01*
X175900142Y-117670428D01*
X175757285Y-117670428D01*
X176214428Y-117727571D02*
X176671571Y-117727571D01*
X177128714Y-117099000D02*
X177071571Y-117070428D01*
X176985857Y-117070428D01*
X176900142Y-117099000D01*
X176843000Y-117156142D01*
X176814428Y-117213285D01*
X176785857Y-117327571D01*
X176785857Y-117413285D01*
X176814428Y-117527571D01*
X176843000Y-117584714D01*
X176900142Y-117641857D01*
X176985857Y-117670428D01*
X177043000Y-117670428D01*
X177128714Y-117641857D01*
X177157285Y-117613285D01*
X177157285Y-117413285D01*
X177043000Y-117413285D01*
X177414428Y-117670428D02*
X177414428Y-117070428D01*
X177757285Y-117670428D01*
X177757285Y-117070428D01*
X178043000Y-117670428D02*
X178043000Y-117070428D01*
X178185857Y-117070428D01*
X178271571Y-117099000D01*
X178328714Y-117156142D01*
X178357285Y-117213285D01*
X178385857Y-117327571D01*
X178385857Y-117413285D01*
X178357285Y-117527571D01*
X178328714Y-117584714D01*
X178271571Y-117641857D01*
X178185857Y-117670428D01*
X178043000Y-117670428D01*
X148588857Y-129735428D02*
X148303142Y-129735428D01*
X148303142Y-129135428D01*
X148788857Y-129421142D02*
X148988857Y-129421142D01*
X149074571Y-129735428D02*
X148788857Y-129735428D01*
X148788857Y-129135428D01*
X149074571Y-129135428D01*
X149331714Y-129735428D02*
X149331714Y-129135428D01*
X149474571Y-129135428D01*
X149560285Y-129164000D01*
X149617428Y-129221142D01*
X149646000Y-129278285D01*
X149674571Y-129392571D01*
X149674571Y-129478285D01*
X149646000Y-129592571D01*
X149617428Y-129649714D01*
X149560285Y-129706857D01*
X149474571Y-129735428D01*
X149331714Y-129735428D01*
X149788857Y-129792571D02*
X150246000Y-129792571D01*
X150360285Y-129564000D02*
X150646000Y-129564000D01*
X150303142Y-129735428D02*
X150503142Y-129135428D01*
X150703142Y-129735428D01*
X151217428Y-129735428D02*
X150874571Y-129735428D01*
X151046000Y-129735428D02*
X151046000Y-129135428D01*
X150988857Y-129221142D01*
X150931714Y-129278285D01*
X150874571Y-129306857D01*
X130049857Y-85494885D02*
X130078428Y-85409171D01*
X130078428Y-85266314D01*
X130049857Y-85209171D01*
X130021285Y-85180600D01*
X129964142Y-85152028D01*
X129907000Y-85152028D01*
X129849857Y-85180600D01*
X129821285Y-85209171D01*
X129792714Y-85266314D01*
X129764142Y-85380600D01*
X129735571Y-85437742D01*
X129707000Y-85466314D01*
X129649857Y-85494885D01*
X129592714Y-85494885D01*
X129535571Y-85466314D01*
X129507000Y-85437742D01*
X129478428Y-85380600D01*
X129478428Y-85237742D01*
X129507000Y-85152028D01*
X130078428Y-84609171D02*
X130078428Y-84894885D01*
X129478428Y-84894885D01*
X130021285Y-84066314D02*
X130049857Y-84094885D01*
X130078428Y-84180600D01*
X130078428Y-84237742D01*
X130049857Y-84323457D01*
X129992714Y-84380600D01*
X129935571Y-84409171D01*
X129821285Y-84437742D01*
X129735571Y-84437742D01*
X129621285Y-84409171D01*
X129564142Y-84380600D01*
X129507000Y-84323457D01*
X129478428Y-84237742D01*
X129478428Y-84180600D01*
X129507000Y-84094885D01*
X129535571Y-84066314D01*
X130078428Y-83809171D02*
X129478428Y-83809171D01*
X130078428Y-83466314D02*
X129735571Y-83723457D01*
X129478428Y-83466314D02*
X129821285Y-83809171D01*
X127713057Y-85285371D02*
X127741628Y-85199657D01*
X127741628Y-85056800D01*
X127713057Y-84999657D01*
X127684485Y-84971085D01*
X127627342Y-84942514D01*
X127570200Y-84942514D01*
X127513057Y-84971085D01*
X127484485Y-84999657D01*
X127455914Y-85056800D01*
X127427342Y-85171085D01*
X127398771Y-85228228D01*
X127370200Y-85256800D01*
X127313057Y-85285371D01*
X127255914Y-85285371D01*
X127198771Y-85256800D01*
X127170200Y-85228228D01*
X127141628Y-85171085D01*
X127141628Y-85028228D01*
X127170200Y-84942514D01*
X127741628Y-84685371D02*
X127141628Y-84685371D01*
X127141628Y-84542514D01*
X127170200Y-84456800D01*
X127227342Y-84399657D01*
X127284485Y-84371085D01*
X127398771Y-84342514D01*
X127484485Y-84342514D01*
X127598771Y-84371085D01*
X127655914Y-84399657D01*
X127713057Y-84456800D01*
X127741628Y-84542514D01*
X127741628Y-84685371D01*
X127570200Y-84113942D02*
X127570200Y-83828228D01*
X127741628Y-84171085D02*
X127141628Y-83971085D01*
X127741628Y-83771085D01*
X130312076Y-82595218D02*
X129887812Y-83019482D01*
X129786796Y-82918467D01*
X129746390Y-82837654D01*
X129746390Y-82756842D01*
X129766593Y-82696233D01*
X129827203Y-82595218D01*
X129887812Y-82534609D01*
X129988827Y-82474000D01*
X130049436Y-82453796D01*
X130130248Y-82453796D01*
X130211061Y-82494203D01*
X130312076Y-82595218D01*
X129584766Y-82352781D02*
X129604969Y-82413390D01*
X129604969Y-82453796D01*
X129584766Y-82514406D01*
X129564563Y-82534609D01*
X129503954Y-82554812D01*
X129463548Y-82554812D01*
X129402938Y-82534609D01*
X129322126Y-82453796D01*
X129301923Y-82393187D01*
X129301923Y-82352781D01*
X129322126Y-82292172D01*
X129342329Y-82271969D01*
X129402938Y-82251766D01*
X129443345Y-82251766D01*
X129503954Y-82271969D01*
X129584766Y-82352781D01*
X129645375Y-82372984D01*
X129685781Y-82372984D01*
X129746390Y-82352781D01*
X129827203Y-82271969D01*
X129847406Y-82211360D01*
X129847406Y-82170954D01*
X129827203Y-82110345D01*
X129746390Y-82029532D01*
X129685781Y-82009329D01*
X129645375Y-82009329D01*
X129584766Y-82029532D01*
X129503954Y-82110345D01*
X129483751Y-82170954D01*
X129483751Y-82211360D01*
X129503954Y-82271969D01*
X127899076Y-82595218D02*
X127474812Y-83019482D01*
X127373796Y-82918467D01*
X127333390Y-82837654D01*
X127333390Y-82756842D01*
X127353593Y-82696233D01*
X127414203Y-82595218D01*
X127474812Y-82534609D01*
X127575827Y-82474000D01*
X127636436Y-82453796D01*
X127717248Y-82453796D01*
X127798061Y-82494203D01*
X127899076Y-82595218D01*
X127090954Y-82635624D02*
X126808111Y-82352781D01*
X127414203Y-82110345D01*
X134947316Y-78564380D02*
X134967519Y-78624990D01*
X135028128Y-78685599D01*
X135108941Y-78726005D01*
X135189753Y-78726005D01*
X135250362Y-78705802D01*
X135351377Y-78645193D01*
X135411986Y-78584583D01*
X135472596Y-78483568D01*
X135492799Y-78422959D01*
X135492799Y-78342147D01*
X135452393Y-78261335D01*
X135411986Y-78220928D01*
X135331174Y-78180522D01*
X135290768Y-78180522D01*
X135149347Y-78321944D01*
X135230159Y-78402756D01*
X135149347Y-77958289D02*
X134725083Y-78382553D01*
X134906910Y-77715852D01*
X134482646Y-78140116D01*
X134704880Y-77513822D02*
X134280616Y-77938086D01*
X134179600Y-77837071D01*
X134139194Y-77756258D01*
X134139194Y-77675446D01*
X134159397Y-77614837D01*
X134220006Y-77513822D01*
X134280616Y-77453213D01*
X134381631Y-77392603D01*
X134442240Y-77372400D01*
X134523052Y-77372400D01*
X134603864Y-77412806D01*
X134704880Y-77513822D01*
X132766944Y-78786614D02*
X132504304Y-78523974D01*
X132807350Y-78503771D01*
X132746741Y-78443162D01*
X132726538Y-78382553D01*
X132726538Y-78342147D01*
X132746741Y-78281538D01*
X132847756Y-78180522D01*
X132908365Y-78160319D01*
X132948771Y-78160319D01*
X133009380Y-78180522D01*
X133130599Y-78301741D01*
X133150802Y-78362350D01*
X133150802Y-78402756D01*
X132383086Y-78402756D02*
X132665928Y-77837071D01*
X132100243Y-78119913D01*
X131999228Y-78018898D02*
X131736588Y-77756258D01*
X132039634Y-77736055D01*
X131979025Y-77675446D01*
X131958822Y-77614837D01*
X131958822Y-77574431D01*
X131979025Y-77513822D01*
X132080040Y-77412806D01*
X132140649Y-77392603D01*
X132181055Y-77392603D01*
X132241664Y-77412806D01*
X132362883Y-77534025D01*
X132383086Y-77594634D01*
X132383086Y-77635040D01*
X164665316Y-78818380D02*
X164685519Y-78878990D01*
X164746128Y-78939599D01*
X164826941Y-78980005D01*
X164907753Y-78980005D01*
X164968362Y-78959802D01*
X165069377Y-78899193D01*
X165129986Y-78838583D01*
X165190596Y-78737568D01*
X165210799Y-78676959D01*
X165210799Y-78596147D01*
X165170393Y-78515335D01*
X165129986Y-78474928D01*
X165049174Y-78434522D01*
X165008768Y-78434522D01*
X164867347Y-78575944D01*
X164948159Y-78656756D01*
X164867347Y-78212289D02*
X164443083Y-78636553D01*
X164624910Y-77969852D01*
X164200646Y-78394116D01*
X164422880Y-77767822D02*
X163998616Y-78192086D01*
X163897600Y-78091071D01*
X163857194Y-78010258D01*
X163857194Y-77929446D01*
X163877397Y-77868837D01*
X163938006Y-77767822D01*
X163998616Y-77707213D01*
X164099631Y-77646603D01*
X164160240Y-77626400D01*
X164241052Y-77626400D01*
X164321864Y-77666806D01*
X164422880Y-77767822D01*
X167427944Y-78998614D02*
X167165304Y-78735974D01*
X167468350Y-78715771D01*
X167407741Y-78655162D01*
X167387538Y-78594553D01*
X167387538Y-78554147D01*
X167407741Y-78493538D01*
X167508756Y-78392522D01*
X167569365Y-78372319D01*
X167609771Y-78372319D01*
X167670380Y-78392522D01*
X167791599Y-78513741D01*
X167811802Y-78574350D01*
X167811802Y-78614756D01*
X167044086Y-78614756D02*
X167326928Y-78049071D01*
X166761243Y-78331913D01*
X166660228Y-78230898D02*
X166397588Y-77968258D01*
X166700634Y-77948055D01*
X166640025Y-77887446D01*
X166619822Y-77826837D01*
X166619822Y-77786431D01*
X166640025Y-77725822D01*
X166741040Y-77624806D01*
X166801649Y-77604603D01*
X166842055Y-77604603D01*
X166902664Y-77624806D01*
X167023883Y-77746025D01*
X167044086Y-77806634D01*
X167044086Y-77847040D01*
X146504316Y-72087380D02*
X146524519Y-72147990D01*
X146585128Y-72208599D01*
X146665941Y-72249005D01*
X146746753Y-72249005D01*
X146807362Y-72228802D01*
X146908377Y-72168193D01*
X146968986Y-72107583D01*
X147029596Y-72006568D01*
X147049799Y-71945959D01*
X147049799Y-71865147D01*
X147009393Y-71784335D01*
X146968986Y-71743928D01*
X146888174Y-71703522D01*
X146847768Y-71703522D01*
X146706347Y-71844944D01*
X146787159Y-71925756D01*
X146706347Y-71481289D02*
X146282083Y-71905553D01*
X146463910Y-71238852D01*
X146039646Y-71663116D01*
X146261880Y-71036822D02*
X145837616Y-71461086D01*
X145736600Y-71360071D01*
X145696194Y-71279258D01*
X145696194Y-71198446D01*
X145716397Y-71137837D01*
X145777006Y-71036822D01*
X145837616Y-70976213D01*
X145938631Y-70915603D01*
X145999240Y-70895400D01*
X146080052Y-70895400D01*
X146160864Y-70935806D01*
X146261880Y-71036822D01*
X149266944Y-72267614D02*
X149004304Y-72004974D01*
X149307350Y-71984771D01*
X149246741Y-71924162D01*
X149226538Y-71863553D01*
X149226538Y-71823147D01*
X149246741Y-71762538D01*
X149347756Y-71661522D01*
X149408365Y-71641319D01*
X149448771Y-71641319D01*
X149509380Y-71661522D01*
X149630599Y-71782741D01*
X149650802Y-71843350D01*
X149650802Y-71883756D01*
X148883086Y-71883756D02*
X149165928Y-71318071D01*
X148600243Y-71600913D01*
X148499228Y-71499898D02*
X148236588Y-71237258D01*
X148539634Y-71217055D01*
X148479025Y-71156446D01*
X148458822Y-71095837D01*
X148458822Y-71055431D01*
X148479025Y-70994822D01*
X148580040Y-70893806D01*
X148640649Y-70873603D01*
X148681055Y-70873603D01*
X148741664Y-70893806D01*
X148862883Y-71015025D01*
X148883086Y-71075634D01*
X148883086Y-71116040D01*
X170308857Y-86028285D02*
X170337428Y-85942571D01*
X170337428Y-85799714D01*
X170308857Y-85742571D01*
X170280285Y-85714000D01*
X170223142Y-85685428D01*
X170166000Y-85685428D01*
X170108857Y-85714000D01*
X170080285Y-85742571D01*
X170051714Y-85799714D01*
X170023142Y-85914000D01*
X169994571Y-85971142D01*
X169966000Y-85999714D01*
X169908857Y-86028285D01*
X169851714Y-86028285D01*
X169794571Y-85999714D01*
X169766000Y-85971142D01*
X169737428Y-85914000D01*
X169737428Y-85771142D01*
X169766000Y-85685428D01*
X170337428Y-85142571D02*
X170337428Y-85428285D01*
X169737428Y-85428285D01*
X170280285Y-84599714D02*
X170308857Y-84628285D01*
X170337428Y-84714000D01*
X170337428Y-84771142D01*
X170308857Y-84856857D01*
X170251714Y-84914000D01*
X170194571Y-84942571D01*
X170080285Y-84971142D01*
X169994571Y-84971142D01*
X169880285Y-84942571D01*
X169823142Y-84914000D01*
X169766000Y-84856857D01*
X169737428Y-84771142D01*
X169737428Y-84714000D01*
X169766000Y-84628285D01*
X169794571Y-84599714D01*
X170337428Y-84342571D02*
X169737428Y-84342571D01*
X170337428Y-83999714D02*
X169994571Y-84256857D01*
X169737428Y-83999714D02*
X170080285Y-84342571D01*
X172932857Y-85361571D02*
X172961428Y-85275857D01*
X172961428Y-85133000D01*
X172932857Y-85075857D01*
X172904285Y-85047285D01*
X172847142Y-85018714D01*
X172790000Y-85018714D01*
X172732857Y-85047285D01*
X172704285Y-85075857D01*
X172675714Y-85133000D01*
X172647142Y-85247285D01*
X172618571Y-85304428D01*
X172590000Y-85333000D01*
X172532857Y-85361571D01*
X172475714Y-85361571D01*
X172418571Y-85333000D01*
X172390000Y-85304428D01*
X172361428Y-85247285D01*
X172361428Y-85104428D01*
X172390000Y-85018714D01*
X172961428Y-84761571D02*
X172361428Y-84761571D01*
X172361428Y-84618714D01*
X172390000Y-84533000D01*
X172447142Y-84475857D01*
X172504285Y-84447285D01*
X172618571Y-84418714D01*
X172704285Y-84418714D01*
X172818571Y-84447285D01*
X172875714Y-84475857D01*
X172932857Y-84533000D01*
X172961428Y-84618714D01*
X172961428Y-84761571D01*
X172790000Y-84190142D02*
X172790000Y-83904428D01*
X172961428Y-84247285D02*
X172361428Y-84047285D01*
X172961428Y-83847285D01*
X170571076Y-82976218D02*
X170146812Y-83400482D01*
X170045796Y-83299467D01*
X170005390Y-83218654D01*
X170005390Y-83137842D01*
X170025593Y-83077233D01*
X170086203Y-82976218D01*
X170146812Y-82915609D01*
X170247827Y-82855000D01*
X170308436Y-82834796D01*
X170389248Y-82834796D01*
X170470061Y-82875203D01*
X170571076Y-82976218D01*
X169843766Y-82733781D02*
X169863969Y-82794390D01*
X169863969Y-82834796D01*
X169843766Y-82895406D01*
X169823563Y-82915609D01*
X169762954Y-82935812D01*
X169722548Y-82935812D01*
X169661938Y-82915609D01*
X169581126Y-82834796D01*
X169560923Y-82774187D01*
X169560923Y-82733781D01*
X169581126Y-82673172D01*
X169601329Y-82652969D01*
X169661938Y-82632766D01*
X169702345Y-82632766D01*
X169762954Y-82652969D01*
X169843766Y-82733781D01*
X169904375Y-82753984D01*
X169944781Y-82753984D01*
X170005390Y-82733781D01*
X170086203Y-82652969D01*
X170106406Y-82592360D01*
X170106406Y-82551954D01*
X170086203Y-82491345D01*
X170005390Y-82410532D01*
X169944781Y-82390329D01*
X169904375Y-82390329D01*
X169843766Y-82410532D01*
X169762954Y-82491345D01*
X169742751Y-82551954D01*
X169742751Y-82592360D01*
X169762954Y-82652969D01*
X173238076Y-82849218D02*
X172813812Y-83273482D01*
X172712796Y-83172467D01*
X172672390Y-83091654D01*
X172672390Y-83010842D01*
X172692593Y-82950233D01*
X172753203Y-82849218D01*
X172813812Y-82788609D01*
X172914827Y-82728000D01*
X172975436Y-82707796D01*
X173056248Y-82707796D01*
X173137061Y-82748203D01*
X173238076Y-82849218D01*
X172429954Y-82889624D02*
X172147111Y-82606781D01*
X172753203Y-82364345D01*
X151639857Y-74471285D02*
X151668428Y-74385571D01*
X151668428Y-74242714D01*
X151639857Y-74185571D01*
X151611285Y-74157000D01*
X151554142Y-74128428D01*
X151497000Y-74128428D01*
X151439857Y-74157000D01*
X151411285Y-74185571D01*
X151382714Y-74242714D01*
X151354142Y-74357000D01*
X151325571Y-74414142D01*
X151297000Y-74442714D01*
X151239857Y-74471285D01*
X151182714Y-74471285D01*
X151125571Y-74442714D01*
X151097000Y-74414142D01*
X151068428Y-74357000D01*
X151068428Y-74214142D01*
X151097000Y-74128428D01*
X151668428Y-73585571D02*
X151668428Y-73871285D01*
X151068428Y-73871285D01*
X151611285Y-73042714D02*
X151639857Y-73071285D01*
X151668428Y-73157000D01*
X151668428Y-73214142D01*
X151639857Y-73299857D01*
X151582714Y-73357000D01*
X151525571Y-73385571D01*
X151411285Y-73414142D01*
X151325571Y-73414142D01*
X151211285Y-73385571D01*
X151154142Y-73357000D01*
X151097000Y-73299857D01*
X151068428Y-73214142D01*
X151068428Y-73157000D01*
X151097000Y-73071285D01*
X151125571Y-73042714D01*
X151668428Y-72785571D02*
X151068428Y-72785571D01*
X151668428Y-72442714D02*
X151325571Y-72699857D01*
X151068428Y-72442714D02*
X151411285Y-72785571D01*
X154263857Y-73804571D02*
X154292428Y-73718857D01*
X154292428Y-73576000D01*
X154263857Y-73518857D01*
X154235285Y-73490285D01*
X154178142Y-73461714D01*
X154121000Y-73461714D01*
X154063857Y-73490285D01*
X154035285Y-73518857D01*
X154006714Y-73576000D01*
X153978142Y-73690285D01*
X153949571Y-73747428D01*
X153921000Y-73776000D01*
X153863857Y-73804571D01*
X153806714Y-73804571D01*
X153749571Y-73776000D01*
X153721000Y-73747428D01*
X153692428Y-73690285D01*
X153692428Y-73547428D01*
X153721000Y-73461714D01*
X154292428Y-73204571D02*
X153692428Y-73204571D01*
X153692428Y-73061714D01*
X153721000Y-72976000D01*
X153778142Y-72918857D01*
X153835285Y-72890285D01*
X153949571Y-72861714D01*
X154035285Y-72861714D01*
X154149571Y-72890285D01*
X154206714Y-72918857D01*
X154263857Y-72976000D01*
X154292428Y-73061714D01*
X154292428Y-73204571D01*
X154121000Y-72633142D02*
X154121000Y-72347428D01*
X154292428Y-72690285D02*
X153692428Y-72490285D01*
X154292428Y-72290285D01*
X151902076Y-71419218D02*
X151477812Y-71843482D01*
X151376796Y-71742467D01*
X151336390Y-71661654D01*
X151336390Y-71580842D01*
X151356593Y-71520233D01*
X151417203Y-71419218D01*
X151477812Y-71358609D01*
X151578827Y-71298000D01*
X151639436Y-71277796D01*
X151720248Y-71277796D01*
X151801061Y-71318203D01*
X151902076Y-71419218D01*
X151174766Y-71176781D02*
X151194969Y-71237390D01*
X151194969Y-71277796D01*
X151174766Y-71338406D01*
X151154563Y-71358609D01*
X151093954Y-71378812D01*
X151053548Y-71378812D01*
X150992938Y-71358609D01*
X150912126Y-71277796D01*
X150891923Y-71217187D01*
X150891923Y-71176781D01*
X150912126Y-71116172D01*
X150932329Y-71095969D01*
X150992938Y-71075766D01*
X151033345Y-71075766D01*
X151093954Y-71095969D01*
X151174766Y-71176781D01*
X151235375Y-71196984D01*
X151275781Y-71196984D01*
X151336390Y-71176781D01*
X151417203Y-71095969D01*
X151437406Y-71035360D01*
X151437406Y-70994954D01*
X151417203Y-70934345D01*
X151336390Y-70853532D01*
X151275781Y-70833329D01*
X151235375Y-70833329D01*
X151174766Y-70853532D01*
X151093954Y-70934345D01*
X151073751Y-70994954D01*
X151073751Y-71035360D01*
X151093954Y-71095969D01*
X154569076Y-71292218D02*
X154144812Y-71716482D01*
X154043796Y-71615467D01*
X154003390Y-71534654D01*
X154003390Y-71453842D01*
X154023593Y-71393233D01*
X154084203Y-71292218D01*
X154144812Y-71231609D01*
X154245827Y-71171000D01*
X154306436Y-71150796D01*
X154387248Y-71150796D01*
X154468061Y-71191203D01*
X154569076Y-71292218D01*
X153760954Y-71332624D02*
X153478111Y-71049781D01*
X154084203Y-70807345D01*
D11*
X160580809Y-81148380D02*
X160580809Y-80148380D01*
X161009380Y-80243619D02*
X161057000Y-80196000D01*
X161152238Y-80148380D01*
X161390333Y-80148380D01*
X161485571Y-80196000D01*
X161533190Y-80243619D01*
X161580809Y-80338857D01*
X161580809Y-80434095D01*
X161533190Y-80576952D01*
X160961761Y-81148380D01*
X161580809Y-81148380D01*
X162580809Y-81053142D02*
X162533190Y-81100761D01*
X162390333Y-81148380D01*
X162295095Y-81148380D01*
X162152238Y-81100761D01*
X162057000Y-81005523D01*
X162009380Y-80910285D01*
X161961761Y-80719809D01*
X161961761Y-80576952D01*
X162009380Y-80386476D01*
X162057000Y-80291238D01*
X162152238Y-80196000D01*
X162295095Y-80148380D01*
X162390333Y-80148380D01*
X162533190Y-80196000D01*
X162580809Y-80243619D01*
X156262809Y-68939380D02*
X156262809Y-67939380D01*
X156691380Y-68034619D02*
X156739000Y-67987000D01*
X156834238Y-67939380D01*
X157072333Y-67939380D01*
X157167571Y-67987000D01*
X157215190Y-68034619D01*
X157262809Y-68129857D01*
X157262809Y-68225095D01*
X157215190Y-68367952D01*
X156643761Y-68939380D01*
X157262809Y-68939380D01*
X158262809Y-68844142D02*
X158215190Y-68891761D01*
X158072333Y-68939380D01*
X157977095Y-68939380D01*
X157834238Y-68891761D01*
X157739000Y-68796523D01*
X157691380Y-68701285D01*
X157643761Y-68510809D01*
X157643761Y-68367952D01*
X157691380Y-68177476D01*
X157739000Y-68082238D01*
X157834238Y-67987000D01*
X157977095Y-67939380D01*
X158072333Y-67939380D01*
X158215190Y-67987000D01*
X158262809Y-68034619D01*
X137492209Y-81148380D02*
X137492209Y-80148380D01*
X137920780Y-80243619D02*
X137968400Y-80196000D01*
X138063638Y-80148380D01*
X138301733Y-80148380D01*
X138396971Y-80196000D01*
X138444590Y-80243619D01*
X138492209Y-80338857D01*
X138492209Y-80434095D01*
X138444590Y-80576952D01*
X137873161Y-81148380D01*
X138492209Y-81148380D01*
X139492209Y-81053142D02*
X139444590Y-81100761D01*
X139301733Y-81148380D01*
X139206495Y-81148380D01*
X139063638Y-81100761D01*
X138968400Y-81005523D01*
X138920780Y-80910285D01*
X138873161Y-80719809D01*
X138873161Y-80576952D01*
X138920780Y-80386476D01*
X138968400Y-80291238D01*
X139063638Y-80196000D01*
X139206495Y-80148380D01*
X139301733Y-80148380D01*
X139444590Y-80196000D01*
X139492209Y-80243619D01*
X126525580Y-92222495D02*
X125525580Y-92222495D01*
X125525580Y-91841542D01*
X125573200Y-91746304D01*
X125620819Y-91698685D01*
X125716057Y-91651066D01*
X125858914Y-91651066D01*
X125954152Y-91698685D01*
X126001771Y-91746304D01*
X126049390Y-91841542D01*
X126049390Y-92222495D01*
X126525580Y-91222495D02*
X125525580Y-91222495D01*
X126239866Y-90889161D01*
X125525580Y-90555828D01*
X126525580Y-90555828D01*
X125525580Y-90174876D02*
X125525580Y-89508209D01*
X126525580Y-89936780D01*
X125525580Y-88936780D02*
X125525580Y-88841542D01*
X125573200Y-88746304D01*
X125620819Y-88698685D01*
X125716057Y-88651066D01*
X125906533Y-88603447D01*
X126144628Y-88603447D01*
X126335104Y-88651066D01*
X126430342Y-88698685D01*
X126477961Y-88746304D01*
X126525580Y-88841542D01*
X126525580Y-88936780D01*
X126477961Y-89032019D01*
X126430342Y-89079638D01*
X126335104Y-89127257D01*
X126144628Y-89174876D01*
X125906533Y-89174876D01*
X125716057Y-89127257D01*
X125620819Y-89079638D01*
X125573200Y-89032019D01*
X125525580Y-88936780D01*
X125525580Y-87984400D02*
X125525580Y-87889161D01*
X125573200Y-87793923D01*
X125620819Y-87746304D01*
X125716057Y-87698685D01*
X125906533Y-87651066D01*
X126144628Y-87651066D01*
X126335104Y-87698685D01*
X126430342Y-87746304D01*
X126477961Y-87793923D01*
X126525580Y-87889161D01*
X126525580Y-87984400D01*
X126477961Y-88079638D01*
X126430342Y-88127257D01*
X126335104Y-88174876D01*
X126144628Y-88222495D01*
X125906533Y-88222495D01*
X125716057Y-88174876D01*
X125620819Y-88127257D01*
X125573200Y-88079638D01*
X125525580Y-87984400D01*
X125525580Y-87317733D02*
X125525580Y-86698685D01*
X125906533Y-87032019D01*
X125906533Y-86889161D01*
X125954152Y-86793923D01*
X126001771Y-86746304D01*
X126097009Y-86698685D01*
X126335104Y-86698685D01*
X126430342Y-86746304D01*
X126477961Y-86793923D01*
X126525580Y-86889161D01*
X126525580Y-87174876D01*
X126477961Y-87270114D01*
X126430342Y-87317733D01*
D10*
X162244428Y-119538857D02*
X162244428Y-119196000D01*
X162844428Y-119367428D02*
X162244428Y-119367428D01*
X162244428Y-119053142D02*
X162844428Y-118653142D01*
X162244428Y-118653142D02*
X162844428Y-119053142D01*
X162301571Y-118453142D02*
X162273000Y-118424571D01*
X162244428Y-118367428D01*
X162244428Y-118224571D01*
X162273000Y-118167428D01*
X162301571Y-118138857D01*
X162358714Y-118110285D01*
X162415857Y-118110285D01*
X162501571Y-118138857D01*
X162844428Y-118481714D01*
X162844428Y-118110285D01*
X160253628Y-88752514D02*
X159967914Y-88952514D01*
X160253628Y-89095371D02*
X159653628Y-89095371D01*
X159653628Y-88866800D01*
X159682200Y-88809657D01*
X159710771Y-88781085D01*
X159767914Y-88752514D01*
X159853628Y-88752514D01*
X159910771Y-88781085D01*
X159939342Y-88809657D01*
X159967914Y-88866800D01*
X159967914Y-89095371D01*
X159653628Y-88552514D02*
X160253628Y-88152514D01*
X159653628Y-88152514D02*
X160253628Y-88552514D01*
X159710771Y-87952514D02*
X159682200Y-87923942D01*
X159653628Y-87866800D01*
X159653628Y-87723942D01*
X159682200Y-87666800D01*
X159710771Y-87638228D01*
X159767914Y-87609657D01*
X159825057Y-87609657D01*
X159910771Y-87638228D01*
X160253628Y-87981085D01*
X160253628Y-87609657D01*
X147731428Y-90020857D02*
X147131428Y-90020857D01*
X147560000Y-89820857D01*
X147131428Y-89620857D01*
X147731428Y-89620857D01*
X147731428Y-89335142D02*
X147131428Y-89335142D01*
X147702857Y-89078000D02*
X147731428Y-88992285D01*
X147731428Y-88849428D01*
X147702857Y-88792285D01*
X147674285Y-88763714D01*
X147617142Y-88735142D01*
X147560000Y-88735142D01*
X147502857Y-88763714D01*
X147474285Y-88792285D01*
X147445714Y-88849428D01*
X147417142Y-88963714D01*
X147388571Y-89020857D01*
X147360000Y-89049428D01*
X147302857Y-89078000D01*
X147245714Y-89078000D01*
X147188571Y-89049428D01*
X147160000Y-89020857D01*
X147131428Y-88963714D01*
X147131428Y-88820857D01*
X147160000Y-88735142D01*
X147131428Y-88363714D02*
X147131428Y-88249428D01*
X147160000Y-88192285D01*
X147217142Y-88135142D01*
X147331428Y-88106571D01*
X147531428Y-88106571D01*
X147645714Y-88135142D01*
X147702857Y-88192285D01*
X147731428Y-88249428D01*
X147731428Y-88363714D01*
X147702857Y-88420857D01*
X147645714Y-88478000D01*
X147531428Y-88506571D01*
X147331428Y-88506571D01*
X147217142Y-88478000D01*
X147160000Y-88420857D01*
X147131428Y-88363714D01*
X137371428Y-122071428D02*
X137371428Y-122357142D01*
X136771428Y-122357142D01*
X137057142Y-121871428D02*
X137057142Y-121671428D01*
X137371428Y-121585714D02*
X137371428Y-121871428D01*
X136771428Y-121871428D01*
X136771428Y-121585714D01*
X137371428Y-121328571D02*
X136771428Y-121328571D01*
X136771428Y-121185714D01*
X136800000Y-121100000D01*
X136857142Y-121042857D01*
X136914285Y-121014285D01*
X137028571Y-120985714D01*
X137114285Y-120985714D01*
X137228571Y-121014285D01*
X137285714Y-121042857D01*
X137342857Y-121100000D01*
X137371428Y-121185714D01*
X137371428Y-121328571D01*
X137428571Y-120871428D02*
X137428571Y-120414285D01*
X137342857Y-120300000D02*
X137371428Y-120214285D01*
X137371428Y-120071428D01*
X137342857Y-120014285D01*
X137314285Y-119985714D01*
X137257142Y-119957142D01*
X137200000Y-119957142D01*
X137142857Y-119985714D01*
X137114285Y-120014285D01*
X137085714Y-120071428D01*
X137057142Y-120185714D01*
X137028571Y-120242857D01*
X137000000Y-120271428D01*
X136942857Y-120300000D01*
X136885714Y-120300000D01*
X136828571Y-120271428D01*
X136800000Y-120242857D01*
X136771428Y-120185714D01*
X136771428Y-120042857D01*
X136800000Y-119957142D01*
X136771428Y-119785714D02*
X136771428Y-119442857D01*
X137371428Y-119614285D02*
X136771428Y-119614285D01*
X137371428Y-118900000D02*
X137085714Y-119100000D01*
X137371428Y-119242857D02*
X136771428Y-119242857D01*
X136771428Y-119014285D01*
X136800000Y-118957142D01*
X136828571Y-118928571D01*
X136885714Y-118900000D01*
X136971428Y-118900000D01*
X137028571Y-118928571D01*
X137057142Y-118957142D01*
X137085714Y-119014285D01*
X137085714Y-119242857D01*
X137371428Y-118642857D02*
X136771428Y-118642857D01*
X137371428Y-118357142D02*
X136771428Y-118357142D01*
X136771428Y-118128571D01*
X136800000Y-118071428D01*
X136828571Y-118042857D01*
X136885714Y-118014285D01*
X136971428Y-118014285D01*
X137028571Y-118042857D01*
X137057142Y-118071428D01*
X137085714Y-118128571D01*
X137085714Y-118357142D01*
X165361116Y-87285380D02*
X165381319Y-87345990D01*
X165441928Y-87406599D01*
X165522741Y-87447005D01*
X165603553Y-87447005D01*
X165664162Y-87426802D01*
X165765177Y-87366193D01*
X165825786Y-87305583D01*
X165886396Y-87204568D01*
X165906599Y-87143959D01*
X165906599Y-87063147D01*
X165866193Y-86982335D01*
X165825786Y-86941928D01*
X165744974Y-86901522D01*
X165704568Y-86901522D01*
X165563147Y-87042944D01*
X165643959Y-87123756D01*
X165563147Y-86679289D02*
X165138883Y-87103553D01*
X165320710Y-86436852D01*
X164896446Y-86861116D01*
X165118680Y-86234822D02*
X164694416Y-86659086D01*
X164593400Y-86558071D01*
X164552994Y-86477258D01*
X164552994Y-86396446D01*
X164573197Y-86335837D01*
X164633806Y-86234822D01*
X164694416Y-86174213D01*
X164795431Y-86113603D01*
X164856040Y-86093400D01*
X164936852Y-86093400D01*
X165017664Y-86133806D01*
X165118680Y-86234822D01*
X162861116Y-87285380D02*
X162881319Y-87345990D01*
X162941928Y-87406599D01*
X163022741Y-87447005D01*
X163103553Y-87447005D01*
X163164162Y-87426802D01*
X163265177Y-87366193D01*
X163325786Y-87305583D01*
X163386396Y-87204568D01*
X163406599Y-87143959D01*
X163406599Y-87063147D01*
X163366193Y-86982335D01*
X163325786Y-86941928D01*
X163244974Y-86901522D01*
X163204568Y-86901522D01*
X163063147Y-87042944D01*
X163143959Y-87123756D01*
X163063147Y-86679289D02*
X162638883Y-87103553D01*
X162820710Y-86436852D01*
X162396446Y-86861116D01*
X162618680Y-86234822D02*
X162194416Y-86659086D01*
X162093400Y-86558071D01*
X162052994Y-86477258D01*
X162052994Y-86396446D01*
X162073197Y-86335837D01*
X162133806Y-86234822D01*
X162194416Y-86174213D01*
X162295431Y-86113603D01*
X162356040Y-86093400D01*
X162436852Y-86093400D01*
X162517664Y-86133806D01*
X162618680Y-86234822D01*
X135042944Y-87507614D02*
X134780304Y-87244974D01*
X135083350Y-87224771D01*
X135022741Y-87164162D01*
X135002538Y-87103553D01*
X135002538Y-87063147D01*
X135022741Y-87002538D01*
X135123756Y-86901522D01*
X135184365Y-86881319D01*
X135224771Y-86881319D01*
X135285380Y-86901522D01*
X135406599Y-87022741D01*
X135426802Y-87083350D01*
X135426802Y-87123756D01*
X134659086Y-87123756D02*
X134941928Y-86558071D01*
X134376243Y-86840913D01*
X134275228Y-86739898D02*
X134012588Y-86477258D01*
X134315634Y-86457055D01*
X134255025Y-86396446D01*
X134234822Y-86335837D01*
X134234822Y-86295431D01*
X134255025Y-86234822D01*
X134356040Y-86133806D01*
X134416649Y-86113603D01*
X134457055Y-86113603D01*
X134517664Y-86133806D01*
X134638883Y-86255025D01*
X134659086Y-86315634D01*
X134659086Y-86356040D01*
X152918076Y-86786218D02*
X152493812Y-87210482D01*
X152392796Y-87109467D01*
X152352390Y-87028654D01*
X152352390Y-86947842D01*
X152372593Y-86887233D01*
X152433203Y-86786218D01*
X152493812Y-86725609D01*
X152594827Y-86665000D01*
X152655436Y-86644796D01*
X152736248Y-86644796D01*
X152817061Y-86685203D01*
X152918076Y-86786218D01*
X152473609Y-86341751D02*
X152392796Y-86260938D01*
X152332187Y-86240735D01*
X152291781Y-86240735D01*
X152190766Y-86260938D01*
X152089751Y-86321548D01*
X151928126Y-86483172D01*
X151907923Y-86543781D01*
X151907923Y-86584187D01*
X151928126Y-86644796D01*
X152008938Y-86725609D01*
X152069548Y-86745812D01*
X152109954Y-86745812D01*
X152170563Y-86725609D01*
X152271578Y-86624593D01*
X152291781Y-86563984D01*
X152291781Y-86523578D01*
X152271578Y-86462969D01*
X152190766Y-86382157D01*
X152130157Y-86361954D01*
X152089751Y-86361954D01*
X152029142Y-86382157D01*
X158125076Y-86659218D02*
X157700812Y-87083482D01*
X157599796Y-86982467D01*
X157559390Y-86901654D01*
X157559390Y-86820842D01*
X157579593Y-86760233D01*
X157640203Y-86659218D01*
X157700812Y-86598609D01*
X157801827Y-86538000D01*
X157862436Y-86517796D01*
X157943248Y-86517796D01*
X158024061Y-86558203D01*
X158125076Y-86659218D01*
X157316954Y-86699624D02*
X157034111Y-86416781D01*
X157640203Y-86174345D01*
X155458076Y-86786218D02*
X155033812Y-87210482D01*
X154932796Y-87109467D01*
X154892390Y-87028654D01*
X154892390Y-86947842D01*
X154912593Y-86887233D01*
X154973203Y-86786218D01*
X155033812Y-86725609D01*
X155134827Y-86665000D01*
X155195436Y-86644796D01*
X155276248Y-86644796D01*
X155357061Y-86685203D01*
X155458076Y-86786218D01*
X154730766Y-86543781D02*
X154750969Y-86604390D01*
X154750969Y-86644796D01*
X154730766Y-86705406D01*
X154710563Y-86725609D01*
X154649954Y-86745812D01*
X154609548Y-86745812D01*
X154548938Y-86725609D01*
X154468126Y-86644796D01*
X154447923Y-86584187D01*
X154447923Y-86543781D01*
X154468126Y-86483172D01*
X154488329Y-86462969D01*
X154548938Y-86442766D01*
X154589345Y-86442766D01*
X154649954Y-86462969D01*
X154730766Y-86543781D01*
X154791375Y-86563984D01*
X154831781Y-86563984D01*
X154892390Y-86543781D01*
X154973203Y-86462969D01*
X154993406Y-86402360D01*
X154993406Y-86361954D01*
X154973203Y-86301345D01*
X154892390Y-86220532D01*
X154831781Y-86200329D01*
X154791375Y-86200329D01*
X154730766Y-86220532D01*
X154649954Y-86301345D01*
X154629751Y-86361954D01*
X154629751Y-86402360D01*
X154649954Y-86462969D01*
X140339294Y-87730564D02*
X140622137Y-87164879D01*
X140056451Y-87447722D01*
X139975639Y-86962848D02*
X139935233Y-86882036D01*
X139935233Y-86841630D01*
X139955436Y-86781021D01*
X140016045Y-86720412D01*
X140076654Y-86700209D01*
X140117061Y-86700209D01*
X140177670Y-86720412D01*
X140339294Y-86882036D01*
X139915030Y-87306300D01*
X139773609Y-87164879D01*
X139753406Y-87104270D01*
X139753406Y-87063864D01*
X139773609Y-87003254D01*
X139814015Y-86962848D01*
X139874624Y-86942645D01*
X139915030Y-86942645D01*
X139975639Y-86962848D01*
X140117061Y-87104270D01*
X139814015Y-86599193D02*
X139611984Y-86397163D01*
X139975639Y-86518381D02*
X139409954Y-86801224D01*
X139692796Y-86235538D01*
X139187720Y-86578990D02*
X138945284Y-86336554D01*
X139490766Y-86033508D02*
X139066502Y-86457772D01*
X138864471Y-86255742D02*
X138622035Y-86013305D01*
X139167517Y-85710259D02*
X138743253Y-86134523D01*
X142960106Y-87115248D02*
X142535842Y-87539512D01*
X142434827Y-87438497D01*
X142394421Y-87357685D01*
X142394421Y-87276873D01*
X142414624Y-87216264D01*
X142475233Y-87115248D01*
X142535842Y-87054639D01*
X142636857Y-86994030D01*
X142697467Y-86973827D01*
X142778279Y-86973827D01*
X142859091Y-87014233D01*
X142960106Y-87115248D01*
X142313609Y-86468751D02*
X142556045Y-86711187D01*
X142434827Y-86589969D02*
X142010563Y-87014233D01*
X142111578Y-86994030D01*
X142192390Y-86994030D01*
X142253000Y-87014233D01*
X141747923Y-86751593D02*
X141485284Y-86488954D01*
X141788329Y-86468751D01*
X141727720Y-86408142D01*
X141707517Y-86347532D01*
X141707517Y-86307126D01*
X141727720Y-86246517D01*
X141828735Y-86145502D01*
X141889345Y-86125299D01*
X141929751Y-86125299D01*
X141990360Y-86145502D01*
X142111578Y-86266720D01*
X142131781Y-86327329D01*
X142131781Y-86367735D01*
X145500106Y-87216848D02*
X145075842Y-87641112D01*
X144974827Y-87540097D01*
X144934421Y-87459285D01*
X144934421Y-87378473D01*
X144954624Y-87317864D01*
X145015233Y-87216848D01*
X145075842Y-87156239D01*
X145176857Y-87095630D01*
X145237467Y-87075427D01*
X145318279Y-87075427D01*
X145399091Y-87115833D01*
X145500106Y-87216848D01*
X144853609Y-86570351D02*
X145096045Y-86812787D01*
X144974827Y-86691569D02*
X144550563Y-87115833D01*
X144651578Y-87095630D01*
X144732390Y-87095630D01*
X144793000Y-87115833D01*
X144308126Y-86792584D02*
X144267720Y-86792584D01*
X144207111Y-86772381D01*
X144106096Y-86671366D01*
X144085893Y-86610757D01*
X144085893Y-86570351D01*
X144106096Y-86509742D01*
X144146502Y-86469335D01*
X144227314Y-86428929D01*
X144712187Y-86428929D01*
X144449548Y-86166290D01*
X150580106Y-87242248D02*
X150155842Y-87666512D01*
X150054827Y-87565497D01*
X150014421Y-87484685D01*
X150014421Y-87403873D01*
X150034624Y-87343264D01*
X150095233Y-87242248D01*
X150155842Y-87181639D01*
X150256857Y-87121030D01*
X150317467Y-87100827D01*
X150398279Y-87100827D01*
X150479091Y-87141233D01*
X150580106Y-87242248D01*
X149933609Y-86595751D02*
X150176045Y-86838187D01*
X150054827Y-86716969D02*
X149630563Y-87141233D01*
X149731578Y-87121030D01*
X149812390Y-87121030D01*
X149873000Y-87141233D01*
X149246705Y-86757375D02*
X149206299Y-86716969D01*
X149186096Y-86656360D01*
X149186096Y-86615954D01*
X149206299Y-86555345D01*
X149266908Y-86454329D01*
X149367923Y-86353314D01*
X149468938Y-86292705D01*
X149529548Y-86272502D01*
X149569954Y-86272502D01*
X149630563Y-86292705D01*
X149670969Y-86333111D01*
X149691172Y-86393720D01*
X149691172Y-86434126D01*
X149670969Y-86494735D01*
X149610360Y-86595751D01*
X149509345Y-86696766D01*
X149408329Y-86757375D01*
X149347720Y-86777578D01*
X149307314Y-86777578D01*
X149246705Y-86757375D01*
X137021477Y-86952747D02*
X137223507Y-87154777D01*
X137445741Y-86972950D01*
X137405335Y-86972950D01*
X137344725Y-86952747D01*
X137243710Y-86851732D01*
X137223507Y-86791122D01*
X137223507Y-86750716D01*
X137243710Y-86690107D01*
X137344725Y-86589092D01*
X137405335Y-86568889D01*
X137445741Y-86568889D01*
X137506350Y-86589092D01*
X137607365Y-86690107D01*
X137627568Y-86750716D01*
X137627568Y-86791122D01*
X136880055Y-86811325D02*
X137162898Y-86245640D01*
X136597213Y-86528483D01*
X148040106Y-87216848D02*
X147615842Y-87641112D01*
X147514827Y-87540097D01*
X147474421Y-87459285D01*
X147474421Y-87378473D01*
X147494624Y-87317864D01*
X147555233Y-87216848D01*
X147615842Y-87156239D01*
X147716857Y-87095630D01*
X147777467Y-87075427D01*
X147858279Y-87075427D01*
X147939091Y-87115833D01*
X148040106Y-87216848D01*
X147393609Y-86570351D02*
X147636045Y-86812787D01*
X147514827Y-86691569D02*
X147090563Y-87115833D01*
X147191578Y-87095630D01*
X147272390Y-87095630D01*
X147333000Y-87115833D01*
X146989548Y-86166290D02*
X147231984Y-86408726D01*
X147110766Y-86287508D02*
X146686502Y-86711772D01*
X146787517Y-86691569D01*
X146868329Y-86691569D01*
X146928938Y-86711772D01*
X160505076Y-86913218D02*
X160080812Y-87337482D01*
X159979796Y-87236467D01*
X159939390Y-87155654D01*
X159939390Y-87074842D01*
X159959593Y-87014233D01*
X160020203Y-86913218D01*
X160080812Y-86852609D01*
X160181827Y-86792000D01*
X160242436Y-86771796D01*
X160323248Y-86771796D01*
X160404061Y-86812203D01*
X160505076Y-86913218D01*
X159474720Y-86731390D02*
X159555532Y-86812203D01*
X159616142Y-86832406D01*
X159656548Y-86832406D01*
X159757563Y-86812203D01*
X159858578Y-86751593D01*
X160020203Y-86589969D01*
X160040406Y-86529360D01*
X160040406Y-86488954D01*
X160020203Y-86428345D01*
X159939390Y-86347532D01*
X159878781Y-86327329D01*
X159838375Y-86327329D01*
X159777766Y-86347532D01*
X159676751Y-86448548D01*
X159656548Y-86509157D01*
X159656548Y-86549563D01*
X159676751Y-86610172D01*
X159757563Y-86690984D01*
X159818172Y-86711187D01*
X159858578Y-86711187D01*
X159919187Y-86690984D01*
X132280316Y-87327380D02*
X132300519Y-87387990D01*
X132361128Y-87448599D01*
X132441941Y-87489005D01*
X132522753Y-87489005D01*
X132583362Y-87468802D01*
X132684377Y-87408193D01*
X132744986Y-87347583D01*
X132805596Y-87246568D01*
X132825799Y-87185959D01*
X132825799Y-87105147D01*
X132785393Y-87024335D01*
X132744986Y-86983928D01*
X132664174Y-86943522D01*
X132623768Y-86943522D01*
X132482347Y-87084944D01*
X132563159Y-87165756D01*
X132482347Y-86721289D02*
X132058083Y-87145553D01*
X132239910Y-86478852D01*
X131815646Y-86903116D01*
X132037880Y-86276822D02*
X131613616Y-86701086D01*
X131512600Y-86600071D01*
X131472194Y-86519258D01*
X131472194Y-86438446D01*
X131492397Y-86377837D01*
X131553006Y-86276822D01*
X131613616Y-86216213D01*
X131714631Y-86155603D01*
X131775240Y-86135400D01*
X131856052Y-86135400D01*
X131936864Y-86175806D01*
X132037880Y-86276822D01*
X157819857Y-89171571D02*
X157848428Y-89085857D01*
X157848428Y-88943000D01*
X157819857Y-88885857D01*
X157791285Y-88857285D01*
X157734142Y-88828714D01*
X157677000Y-88828714D01*
X157619857Y-88857285D01*
X157591285Y-88885857D01*
X157562714Y-88943000D01*
X157534142Y-89057285D01*
X157505571Y-89114428D01*
X157477000Y-89143000D01*
X157419857Y-89171571D01*
X157362714Y-89171571D01*
X157305571Y-89143000D01*
X157277000Y-89114428D01*
X157248428Y-89057285D01*
X157248428Y-88914428D01*
X157277000Y-88828714D01*
X157848428Y-88571571D02*
X157248428Y-88571571D01*
X157248428Y-88428714D01*
X157277000Y-88343000D01*
X157334142Y-88285857D01*
X157391285Y-88257285D01*
X157505571Y-88228714D01*
X157591285Y-88228714D01*
X157705571Y-88257285D01*
X157762714Y-88285857D01*
X157819857Y-88343000D01*
X157848428Y-88428714D01*
X157848428Y-88571571D01*
X157677000Y-88000142D02*
X157677000Y-87714428D01*
X157848428Y-88057285D02*
X157248428Y-87857285D01*
X157848428Y-87657285D01*
X155195857Y-89838285D02*
X155224428Y-89752571D01*
X155224428Y-89609714D01*
X155195857Y-89552571D01*
X155167285Y-89524000D01*
X155110142Y-89495428D01*
X155053000Y-89495428D01*
X154995857Y-89524000D01*
X154967285Y-89552571D01*
X154938714Y-89609714D01*
X154910142Y-89724000D01*
X154881571Y-89781142D01*
X154853000Y-89809714D01*
X154795857Y-89838285D01*
X154738714Y-89838285D01*
X154681571Y-89809714D01*
X154653000Y-89781142D01*
X154624428Y-89724000D01*
X154624428Y-89581142D01*
X154653000Y-89495428D01*
X155224428Y-88952571D02*
X155224428Y-89238285D01*
X154624428Y-89238285D01*
X155167285Y-88409714D02*
X155195857Y-88438285D01*
X155224428Y-88524000D01*
X155224428Y-88581142D01*
X155195857Y-88666857D01*
X155138714Y-88724000D01*
X155081571Y-88752571D01*
X154967285Y-88781142D01*
X154881571Y-88781142D01*
X154767285Y-88752571D01*
X154710142Y-88724000D01*
X154653000Y-88666857D01*
X154624428Y-88581142D01*
X154624428Y-88524000D01*
X154653000Y-88438285D01*
X154681571Y-88409714D01*
X155224428Y-88152571D02*
X154624428Y-88152571D01*
X155224428Y-87809714D02*
X154881571Y-88066857D01*
X154624428Y-87809714D02*
X154967285Y-88152571D01*
X152684428Y-89766857D02*
X152084428Y-89766857D01*
X152513000Y-89566857D01*
X152084428Y-89366857D01*
X152684428Y-89366857D01*
X152084428Y-88966857D02*
X152084428Y-88852571D01*
X152113000Y-88795428D01*
X152170142Y-88738285D01*
X152284428Y-88709714D01*
X152484428Y-88709714D01*
X152598714Y-88738285D01*
X152655857Y-88795428D01*
X152684428Y-88852571D01*
X152684428Y-88966857D01*
X152655857Y-89024000D01*
X152598714Y-89081142D01*
X152484428Y-89109714D01*
X152284428Y-89109714D01*
X152170142Y-89081142D01*
X152113000Y-89024000D01*
X152084428Y-88966857D01*
X152655857Y-88481142D02*
X152684428Y-88395428D01*
X152684428Y-88252571D01*
X152655857Y-88195428D01*
X152627285Y-88166857D01*
X152570142Y-88138285D01*
X152513000Y-88138285D01*
X152455857Y-88166857D01*
X152427285Y-88195428D01*
X152398714Y-88252571D01*
X152370142Y-88366857D01*
X152341571Y-88424000D01*
X152313000Y-88452571D01*
X152255857Y-88481142D01*
X152198714Y-88481142D01*
X152141571Y-88452571D01*
X152113000Y-88424000D01*
X152084428Y-88366857D01*
X152084428Y-88224000D01*
X152113000Y-88138285D01*
X152684428Y-87881142D02*
X152084428Y-87881142D01*
X150087285Y-89308142D02*
X150115857Y-89336714D01*
X150144428Y-89422428D01*
X150144428Y-89479571D01*
X150115857Y-89565285D01*
X150058714Y-89622428D01*
X150001571Y-89651000D01*
X149887285Y-89679571D01*
X149801571Y-89679571D01*
X149687285Y-89651000D01*
X149630142Y-89622428D01*
X149573000Y-89565285D01*
X149544428Y-89479571D01*
X149544428Y-89422428D01*
X149573000Y-89336714D01*
X149601571Y-89308142D01*
X150144428Y-88765285D02*
X150144428Y-89051000D01*
X149544428Y-89051000D01*
X150144428Y-88565285D02*
X149544428Y-88565285D01*
X150144428Y-88222428D02*
X149801571Y-88479571D01*
X149544428Y-88222428D02*
X149887285Y-88565285D01*
X145035857Y-89154142D02*
X145064428Y-89068428D01*
X145064428Y-88925571D01*
X145035857Y-88868428D01*
X145007285Y-88839857D01*
X144950142Y-88811285D01*
X144893000Y-88811285D01*
X144835857Y-88839857D01*
X144807285Y-88868428D01*
X144778714Y-88925571D01*
X144750142Y-89039857D01*
X144721571Y-89097000D01*
X144693000Y-89125571D01*
X144635857Y-89154142D01*
X144578714Y-89154142D01*
X144521571Y-89125571D01*
X144493000Y-89097000D01*
X144464428Y-89039857D01*
X144464428Y-88897000D01*
X144493000Y-88811285D01*
X145035857Y-88582714D02*
X145064428Y-88497000D01*
X145064428Y-88354142D01*
X145035857Y-88297000D01*
X145007285Y-88268428D01*
X144950142Y-88239857D01*
X144893000Y-88239857D01*
X144835857Y-88268428D01*
X144807285Y-88297000D01*
X144778714Y-88354142D01*
X144750142Y-88468428D01*
X144721571Y-88525571D01*
X144693000Y-88554142D01*
X144635857Y-88582714D01*
X144578714Y-88582714D01*
X144521571Y-88554142D01*
X144493000Y-88525571D01*
X144464428Y-88468428D01*
X144464428Y-88325571D01*
X144493000Y-88239857D01*
D11*
X136501780Y-112161780D02*
X136406542Y-112114161D01*
X136358923Y-112018923D01*
X136358923Y-111161780D01*
X136882733Y-112161780D02*
X136882733Y-111495114D01*
X136882733Y-111161780D02*
X136835114Y-111209400D01*
X136882733Y-111257019D01*
X136930352Y-111209400D01*
X136882733Y-111161780D01*
X136882733Y-111257019D01*
X137358923Y-112161780D02*
X137358923Y-111161780D01*
X137358923Y-111542733D02*
X137454161Y-111495114D01*
X137644638Y-111495114D01*
X137739876Y-111542733D01*
X137787495Y-111590352D01*
X137835114Y-111685590D01*
X137835114Y-111971304D01*
X137787495Y-112066542D01*
X137739876Y-112114161D01*
X137644638Y-112161780D01*
X137454161Y-112161780D01*
X137358923Y-112114161D01*
X138263685Y-112161780D02*
X138263685Y-111495114D01*
X138263685Y-111685590D02*
X138311304Y-111590352D01*
X138358923Y-111542733D01*
X138454161Y-111495114D01*
X138549400Y-111495114D01*
X139263685Y-112114161D02*
X139168447Y-112161780D01*
X138977971Y-112161780D01*
X138882733Y-112114161D01*
X138835114Y-112018923D01*
X138835114Y-111637971D01*
X138882733Y-111542733D01*
X138977971Y-111495114D01*
X139168447Y-111495114D01*
X139263685Y-111542733D01*
X139311304Y-111637971D01*
X139311304Y-111733209D01*
X138835114Y-111828447D01*
X139882733Y-112161780D02*
X139787495Y-112114161D01*
X139739876Y-112018923D01*
X139739876Y-111161780D01*
X140692257Y-112161780D02*
X140692257Y-111637971D01*
X140644638Y-111542733D01*
X140549400Y-111495114D01*
X140358923Y-111495114D01*
X140263685Y-111542733D01*
X140692257Y-112114161D02*
X140597019Y-112161780D01*
X140358923Y-112161780D01*
X140263685Y-112114161D01*
X140216066Y-112018923D01*
X140216066Y-111923685D01*
X140263685Y-111828447D01*
X140358923Y-111780828D01*
X140597019Y-111780828D01*
X140692257Y-111733209D01*
X141168447Y-112161780D02*
X141168447Y-111161780D01*
X141168447Y-111542733D02*
X141263685Y-111495114D01*
X141454161Y-111495114D01*
X141549400Y-111542733D01*
X141597019Y-111590352D01*
X141644638Y-111685590D01*
X141644638Y-111971304D01*
X141597019Y-112066542D01*
X141549400Y-112114161D01*
X141454161Y-112161780D01*
X141263685Y-112161780D01*
X141168447Y-112114161D01*
X142073209Y-112066542D02*
X142120828Y-112114161D01*
X142073209Y-112161780D01*
X142025590Y-112114161D01*
X142073209Y-112066542D01*
X142073209Y-112161780D01*
X142073209Y-111542733D02*
X142120828Y-111590352D01*
X142073209Y-111637971D01*
X142025590Y-111590352D01*
X142073209Y-111542733D01*
X142073209Y-111637971D01*
X142549400Y-112066542D02*
X142597019Y-112114161D01*
X142549400Y-112161780D01*
X142501780Y-112114161D01*
X142549400Y-112066542D01*
X142549400Y-112161780D01*
X142549400Y-111542733D02*
X142597019Y-111590352D01*
X142549400Y-111637971D01*
X142501780Y-111590352D01*
X142549400Y-111542733D01*
X142549400Y-111637971D01*
X143358923Y-111637971D02*
X143501780Y-111685590D01*
X143549400Y-111733209D01*
X143597019Y-111828447D01*
X143597019Y-111971304D01*
X143549400Y-112066542D01*
X143501780Y-112114161D01*
X143406542Y-112161780D01*
X143025590Y-112161780D01*
X143025590Y-111161780D01*
X143358923Y-111161780D01*
X143454161Y-111209400D01*
X143501780Y-111257019D01*
X143549400Y-111352257D01*
X143549400Y-111447495D01*
X143501780Y-111542733D01*
X143454161Y-111590352D01*
X143358923Y-111637971D01*
X143025590Y-111637971D01*
X144025590Y-112161780D02*
X144025590Y-111495114D01*
X144025590Y-111161780D02*
X143977971Y-111209400D01*
X144025590Y-111257019D01*
X144073209Y-111209400D01*
X144025590Y-111161780D01*
X144025590Y-111257019D01*
X144930352Y-111495114D02*
X144930352Y-112304638D01*
X144882733Y-112399876D01*
X144835114Y-112447495D01*
X144739876Y-112495114D01*
X144597019Y-112495114D01*
X144501780Y-112447495D01*
X144930352Y-112114161D02*
X144835114Y-112161780D01*
X144644638Y-112161780D01*
X144549400Y-112114161D01*
X144501780Y-112066542D01*
X144454161Y-111971304D01*
X144454161Y-111685590D01*
X144501780Y-111590352D01*
X144549400Y-111542733D01*
X144644638Y-111495114D01*
X144835114Y-111495114D01*
X144930352Y-111542733D01*
X146168447Y-112161780D02*
X146168447Y-111161780D01*
X146406542Y-111161780D01*
X146549400Y-111209400D01*
X146644638Y-111304638D01*
X146692257Y-111399876D01*
X146739876Y-111590352D01*
X146739876Y-111733209D01*
X146692257Y-111923685D01*
X146644638Y-112018923D01*
X146549400Y-112114161D01*
X146406542Y-112161780D01*
X146168447Y-112161780D01*
X147311304Y-112161780D02*
X147216066Y-112114161D01*
X147168447Y-112066542D01*
X147120828Y-111971304D01*
X147120828Y-111685590D01*
X147168447Y-111590352D01*
X147216066Y-111542733D01*
X147311304Y-111495114D01*
X147454161Y-111495114D01*
X147549400Y-111542733D01*
X147597019Y-111590352D01*
X147644638Y-111685590D01*
X147644638Y-111971304D01*
X147597019Y-112066542D01*
X147549400Y-112114161D01*
X147454161Y-112161780D01*
X147311304Y-112161780D01*
X147930352Y-111495114D02*
X148311304Y-111495114D01*
X148073209Y-111161780D02*
X148073209Y-112018923D01*
X148120828Y-112114161D01*
X148216066Y-112161780D01*
X148311304Y-112161780D01*
X149692257Y-112495114D02*
X149454161Y-112495114D01*
X149454161Y-111066542D01*
X149692257Y-111066542D01*
X150454161Y-112114161D02*
X150358923Y-112161780D01*
X150168447Y-112161780D01*
X150073209Y-112114161D01*
X150025590Y-112018923D01*
X150025590Y-111637971D01*
X150073209Y-111542733D01*
X150168447Y-111495114D01*
X150358923Y-111495114D01*
X150454161Y-111542733D01*
X150501780Y-111637971D01*
X150501780Y-111733209D01*
X150025590Y-111828447D01*
X150835114Y-112161780D02*
X151358923Y-111495114D01*
X150835114Y-111495114D02*
X151358923Y-112161780D01*
X151597019Y-111495114D02*
X151977971Y-111495114D01*
X151739876Y-111161780D02*
X151739876Y-112018923D01*
X151787495Y-112114161D01*
X151882733Y-112161780D01*
X151977971Y-112161780D01*
X152692257Y-112114161D02*
X152597019Y-112161780D01*
X152406542Y-112161780D01*
X152311304Y-112114161D01*
X152263685Y-112018923D01*
X152263685Y-111637971D01*
X152311304Y-111542733D01*
X152406542Y-111495114D01*
X152597019Y-111495114D01*
X152692257Y-111542733D01*
X152739876Y-111637971D01*
X152739876Y-111733209D01*
X152263685Y-111828447D01*
X153168447Y-111495114D02*
X153168447Y-112161780D01*
X153168447Y-111590352D02*
X153216066Y-111542733D01*
X153311304Y-111495114D01*
X153454161Y-111495114D01*
X153549400Y-111542733D01*
X153597019Y-111637971D01*
X153597019Y-112161780D01*
X154025590Y-112114161D02*
X154120828Y-112161780D01*
X154311304Y-112161780D01*
X154406542Y-112114161D01*
X154454161Y-112018923D01*
X154454161Y-111971304D01*
X154406542Y-111876066D01*
X154311304Y-111828447D01*
X154168447Y-111828447D01*
X154073209Y-111780828D01*
X154025590Y-111685590D01*
X154025590Y-111637971D01*
X154073209Y-111542733D01*
X154168447Y-111495114D01*
X154311304Y-111495114D01*
X154406542Y-111542733D01*
X154882733Y-112161780D02*
X154882733Y-111495114D01*
X154882733Y-111161780D02*
X154835114Y-111209400D01*
X154882733Y-111257019D01*
X154930352Y-111209400D01*
X154882733Y-111161780D01*
X154882733Y-111257019D01*
X155501780Y-112161780D02*
X155406542Y-112114161D01*
X155358923Y-112066542D01*
X155311304Y-111971304D01*
X155311304Y-111685590D01*
X155358923Y-111590352D01*
X155406542Y-111542733D01*
X155501780Y-111495114D01*
X155644638Y-111495114D01*
X155739876Y-111542733D01*
X155787495Y-111590352D01*
X155835114Y-111685590D01*
X155835114Y-111971304D01*
X155787495Y-112066542D01*
X155739876Y-112114161D01*
X155644638Y-112161780D01*
X155501780Y-112161780D01*
X156263685Y-111495114D02*
X156263685Y-112161780D01*
X156263685Y-111590352D02*
X156311304Y-111542733D01*
X156406542Y-111495114D01*
X156549400Y-111495114D01*
X156644638Y-111542733D01*
X156692257Y-111637971D01*
X156692257Y-112161780D01*
X157930352Y-112161780D02*
X157930352Y-111161780D01*
X157930352Y-111542733D02*
X158025590Y-111495114D01*
X158216066Y-111495114D01*
X158311304Y-111542733D01*
X158358923Y-111590352D01*
X158406542Y-111685590D01*
X158406542Y-111971304D01*
X158358923Y-112066542D01*
X158311304Y-112114161D01*
X158216066Y-112161780D01*
X158025590Y-112161780D01*
X157930352Y-112114161D01*
X158977971Y-112161780D02*
X158882733Y-112114161D01*
X158835114Y-112066542D01*
X158787495Y-111971304D01*
X158787495Y-111685590D01*
X158835114Y-111590352D01*
X158882733Y-111542733D01*
X158977971Y-111495114D01*
X159120828Y-111495114D01*
X159216066Y-111542733D01*
X159263685Y-111590352D01*
X159311304Y-111685590D01*
X159311304Y-111971304D01*
X159263685Y-112066542D01*
X159216066Y-112114161D01*
X159120828Y-112161780D01*
X158977971Y-112161780D01*
X160168447Y-112161780D02*
X160168447Y-111637971D01*
X160120828Y-111542733D01*
X160025590Y-111495114D01*
X159835114Y-111495114D01*
X159739876Y-111542733D01*
X160168447Y-112114161D02*
X160073209Y-112161780D01*
X159835114Y-112161780D01*
X159739876Y-112114161D01*
X159692257Y-112018923D01*
X159692257Y-111923685D01*
X159739876Y-111828447D01*
X159835114Y-111780828D01*
X160073209Y-111780828D01*
X160168447Y-111733209D01*
X160644638Y-112161780D02*
X160644638Y-111495114D01*
X160644638Y-111685590D02*
X160692257Y-111590352D01*
X160739876Y-111542733D01*
X160835114Y-111495114D01*
X160930352Y-111495114D01*
X161692257Y-112161780D02*
X161692257Y-111161780D01*
X161692257Y-112114161D02*
X161597019Y-112161780D01*
X161406542Y-112161780D01*
X161311304Y-112114161D01*
X161263685Y-112066542D01*
X161216066Y-111971304D01*
X161216066Y-111685590D01*
X161263685Y-111590352D01*
X161311304Y-111542733D01*
X161406542Y-111495114D01*
X161597019Y-111495114D01*
X161692257Y-111542733D01*
X162216066Y-112114161D02*
X162216066Y-112161780D01*
X162168447Y-112257019D01*
X162120828Y-112304638D01*
X163311304Y-111495114D02*
X163549399Y-112161780D01*
X163787495Y-111495114D01*
X164692257Y-112161780D02*
X164120828Y-112161780D01*
X164406542Y-112161780D02*
X164406542Y-111161780D01*
X164311304Y-111304638D01*
X164216066Y-111399876D01*
X164120828Y-111447495D01*
X165120828Y-112066542D02*
X165168447Y-112114161D01*
X165120828Y-112161780D01*
X165073209Y-112114161D01*
X165120828Y-112066542D01*
X165120828Y-112161780D01*
X165549399Y-111257019D02*
X165597019Y-111209400D01*
X165692257Y-111161780D01*
X165930352Y-111161780D01*
X166025590Y-111209400D01*
X166073209Y-111257019D01*
X166120828Y-111352257D01*
X166120828Y-111447495D01*
X166073209Y-111590352D01*
X165501780Y-112161780D01*
X166120828Y-112161780D01*
X166454161Y-112495114D02*
X166692257Y-112495114D01*
X166692257Y-111066542D01*
X166454161Y-111066542D01*
D10*
X144971428Y-121600000D02*
X144371428Y-121600000D01*
X144371428Y-121371428D01*
X144400000Y-121314285D01*
X144428571Y-121285714D01*
X144485714Y-121257142D01*
X144571428Y-121257142D01*
X144628571Y-121285714D01*
X144657142Y-121314285D01*
X144685714Y-121371428D01*
X144685714Y-121600000D01*
X144971428Y-121000000D02*
X144371428Y-121000000D01*
X144800000Y-120800000D01*
X144371428Y-120600000D01*
X144971428Y-120600000D01*
X144942857Y-120342857D02*
X144971428Y-120257142D01*
X144971428Y-120114285D01*
X144942857Y-120057142D01*
X144914285Y-120028571D01*
X144857142Y-120000000D01*
X144800000Y-120000000D01*
X144742857Y-120028571D01*
X144714285Y-120057142D01*
X144685714Y-120114285D01*
X144657142Y-120228571D01*
X144628571Y-120285714D01*
X144600000Y-120314285D01*
X144542857Y-120342857D01*
X144485714Y-120342857D01*
X144428571Y-120314285D01*
X144400000Y-120285714D01*
X144371428Y-120228571D01*
X144371428Y-120085714D01*
X144400000Y-120000000D01*
X145028571Y-119885714D02*
X145028571Y-119428571D01*
X144942857Y-119314285D02*
X144971428Y-119228571D01*
X144971428Y-119085714D01*
X144942857Y-119028571D01*
X144914285Y-119000000D01*
X144857142Y-118971428D01*
X144800000Y-118971428D01*
X144742857Y-119000000D01*
X144714285Y-119028571D01*
X144685714Y-119085714D01*
X144657142Y-119200000D01*
X144628571Y-119257142D01*
X144600000Y-119285714D01*
X144542857Y-119314285D01*
X144485714Y-119314285D01*
X144428571Y-119285714D01*
X144400000Y-119257142D01*
X144371428Y-119200000D01*
X144371428Y-119057142D01*
X144400000Y-118971428D01*
X144657142Y-118714285D02*
X144657142Y-118514285D01*
X144971428Y-118428571D02*
X144971428Y-118714285D01*
X144371428Y-118714285D01*
X144371428Y-118428571D01*
X144371428Y-118257142D02*
X144371428Y-117914285D01*
X144971428Y-118085714D02*
X144371428Y-118085714D01*
X147477428Y-119054714D02*
X147477428Y-119340428D01*
X146877428Y-119340428D01*
X147163142Y-118854714D02*
X147163142Y-118654714D01*
X147477428Y-118569000D02*
X147477428Y-118854714D01*
X146877428Y-118854714D01*
X146877428Y-118569000D01*
X147477428Y-118311857D02*
X146877428Y-118311857D01*
X146877428Y-118169000D01*
X146906000Y-118083285D01*
X146963142Y-118026142D01*
X147020285Y-117997571D01*
X147134571Y-117969000D01*
X147220285Y-117969000D01*
X147334571Y-117997571D01*
X147391714Y-118026142D01*
X147448857Y-118083285D01*
X147477428Y-118169000D01*
X147477428Y-118311857D01*
X149703142Y-122632714D02*
X149731714Y-122547000D01*
X149760285Y-122518428D01*
X149817428Y-122489857D01*
X149903142Y-122489857D01*
X149960285Y-122518428D01*
X149988857Y-122547000D01*
X150017428Y-122604142D01*
X150017428Y-122832714D01*
X149417428Y-122832714D01*
X149417428Y-122632714D01*
X149446000Y-122575571D01*
X149474571Y-122547000D01*
X149531714Y-122518428D01*
X149588857Y-122518428D01*
X149646000Y-122547000D01*
X149674571Y-122575571D01*
X149703142Y-122632714D01*
X149703142Y-122832714D01*
X149846000Y-122261285D02*
X149846000Y-121975571D01*
X150017428Y-122318428D02*
X149417428Y-122118428D01*
X150017428Y-121918428D01*
X149417428Y-121804142D02*
X149417428Y-121461285D01*
X150017428Y-121632714D02*
X149417428Y-121632714D01*
X149417428Y-121347000D02*
X149417428Y-121004142D01*
X150017428Y-121175571D02*
X149417428Y-121175571D01*
X150074571Y-120947000D02*
X150074571Y-120489857D01*
X150017428Y-120061285D02*
X150017428Y-120347000D01*
X149417428Y-120347000D01*
X149703142Y-119861285D02*
X149703142Y-119661285D01*
X150017428Y-119575571D02*
X150017428Y-119861285D01*
X149417428Y-119861285D01*
X149417428Y-119575571D01*
X149417428Y-119404142D02*
X150017428Y-119204142D01*
X149417428Y-119004142D01*
X149703142Y-118804142D02*
X149703142Y-118604142D01*
X150017428Y-118518428D02*
X150017428Y-118804142D01*
X149417428Y-118804142D01*
X149417428Y-118518428D01*
X150017428Y-117975571D02*
X150017428Y-118261285D01*
X149417428Y-118261285D01*
X157121428Y-119469857D02*
X157121428Y-119127000D01*
X157721428Y-119298428D02*
X157121428Y-119298428D01*
X157121428Y-118984142D02*
X157721428Y-118584142D01*
X157121428Y-118584142D02*
X157721428Y-118984142D01*
X157721428Y-118041285D02*
X157721428Y-118384142D01*
X157721428Y-118212714D02*
X157121428Y-118212714D01*
X157207142Y-118269857D01*
X157264285Y-118327000D01*
X157292857Y-118384142D01*
X160171428Y-119112714D02*
X159885714Y-119312714D01*
X160171428Y-119455571D02*
X159571428Y-119455571D01*
X159571428Y-119227000D01*
X159600000Y-119169857D01*
X159628571Y-119141285D01*
X159685714Y-119112714D01*
X159771428Y-119112714D01*
X159828571Y-119141285D01*
X159857142Y-119169857D01*
X159885714Y-119227000D01*
X159885714Y-119455571D01*
X159571428Y-118912714D02*
X160171428Y-118512714D01*
X159571428Y-118512714D02*
X160171428Y-118912714D01*
X160171428Y-117969857D02*
X160171428Y-118312714D01*
X160171428Y-118141285D02*
X159571428Y-118141285D01*
X159657142Y-118198428D01*
X159714285Y-118255571D01*
X159742857Y-118312714D01*
X134363116Y-113108380D02*
X134383319Y-113168990D01*
X134443928Y-113229599D01*
X134524741Y-113270005D01*
X134605553Y-113270005D01*
X134666162Y-113249802D01*
X134767177Y-113189193D01*
X134827786Y-113128583D01*
X134888396Y-113027568D01*
X134908599Y-112966959D01*
X134908599Y-112886147D01*
X134868193Y-112805335D01*
X134827786Y-112764928D01*
X134746974Y-112724522D01*
X134706568Y-112724522D01*
X134565147Y-112865944D01*
X134645959Y-112946756D01*
X134565147Y-112502289D02*
X134140883Y-112926553D01*
X134322710Y-112259852D01*
X133898446Y-112684116D01*
X134120680Y-112057822D02*
X133696416Y-112482086D01*
X133595400Y-112381071D01*
X133554994Y-112300258D01*
X133554994Y-112219446D01*
X133575197Y-112158837D01*
X133635806Y-112057822D01*
X133696416Y-111997213D01*
X133797431Y-111936603D01*
X133858040Y-111916400D01*
X133938852Y-111916400D01*
X134019664Y-111956806D01*
X134120680Y-112057822D01*
X132208144Y-113330614D02*
X131945504Y-113067974D01*
X132248550Y-113047771D01*
X132187941Y-112987162D01*
X132167738Y-112926553D01*
X132167738Y-112886147D01*
X132187941Y-112825538D01*
X132288956Y-112724522D01*
X132349565Y-112704319D01*
X132389971Y-112704319D01*
X132450580Y-112724522D01*
X132571799Y-112845741D01*
X132592002Y-112906350D01*
X132592002Y-112946756D01*
X131824286Y-112946756D02*
X132107128Y-112381071D01*
X131541443Y-112663913D01*
X131440428Y-112562898D02*
X131177788Y-112300258D01*
X131480834Y-112280055D01*
X131420225Y-112219446D01*
X131400022Y-112158837D01*
X131400022Y-112118431D01*
X131420225Y-112057822D01*
X131521240Y-111956806D01*
X131581849Y-111936603D01*
X131622255Y-111936603D01*
X131682864Y-111956806D01*
X131804083Y-112078025D01*
X131824286Y-112138634D01*
X131824286Y-112179040D01*
X165605116Y-117807380D02*
X165625319Y-117867990D01*
X165685928Y-117928599D01*
X165766741Y-117969005D01*
X165847553Y-117969005D01*
X165908162Y-117948802D01*
X166009177Y-117888193D01*
X166069786Y-117827583D01*
X166130396Y-117726568D01*
X166150599Y-117665959D01*
X166150599Y-117585147D01*
X166110193Y-117504335D01*
X166069786Y-117463928D01*
X165988974Y-117423522D01*
X165948568Y-117423522D01*
X165807147Y-117564944D01*
X165887959Y-117645756D01*
X165807147Y-117201289D02*
X165382883Y-117625553D01*
X165564710Y-116958852D01*
X165140446Y-117383116D01*
X165362680Y-116756822D02*
X164938416Y-117181086D01*
X164837400Y-117080071D01*
X164796994Y-116999258D01*
X164796994Y-116918446D01*
X164817197Y-116857837D01*
X164877806Y-116756822D01*
X164938416Y-116696213D01*
X165039431Y-116635603D01*
X165100040Y-116615400D01*
X165180852Y-116615400D01*
X165261664Y-116655806D01*
X165362680Y-116756822D01*
X147579756Y-117224935D02*
X147377725Y-117022904D01*
X147741380Y-117144122D02*
X147175695Y-117426965D01*
X147458538Y-116861280D01*
X146690822Y-116942092D02*
X146892852Y-117144122D01*
X147115086Y-116962295D01*
X147074680Y-116962295D01*
X147014071Y-116942092D01*
X146913055Y-116841077D01*
X146892852Y-116780467D01*
X146892852Y-116740061D01*
X146913055Y-116679452D01*
X147014071Y-116578437D01*
X147074680Y-116558234D01*
X147115086Y-116558234D01*
X147175695Y-116578437D01*
X147276710Y-116679452D01*
X147296913Y-116740061D01*
X147296913Y-116780467D01*
X137419756Y-117351935D02*
X137217725Y-117149904D01*
X137581380Y-117271122D02*
X137015695Y-117553965D01*
X137298538Y-116988280D01*
X136934883Y-116624625D02*
X137177319Y-116867061D01*
X137056101Y-116745843D02*
X136631837Y-117170107D01*
X136732852Y-117149904D01*
X136813664Y-117149904D01*
X136874274Y-117170107D01*
X150119756Y-117250335D02*
X149917725Y-117048304D01*
X150281380Y-117169522D02*
X149715695Y-117452365D01*
X149998538Y-116886680D01*
X149251025Y-116987695D02*
X149331837Y-117068507D01*
X149392446Y-117088710D01*
X149432852Y-117088710D01*
X149533867Y-117068507D01*
X149634883Y-117007898D01*
X149796507Y-116846274D01*
X149816710Y-116785664D01*
X149816710Y-116745258D01*
X149796507Y-116684649D01*
X149715695Y-116603837D01*
X149655086Y-116583634D01*
X149614680Y-116583634D01*
X149554071Y-116603837D01*
X149453055Y-116704852D01*
X149432852Y-116765461D01*
X149432852Y-116805867D01*
X149453055Y-116866477D01*
X149533867Y-116947289D01*
X149594477Y-116967492D01*
X149634883Y-116967492D01*
X149695492Y-116947289D01*
X145039756Y-117224935D02*
X144837725Y-117022904D01*
X145201380Y-117144122D02*
X144635695Y-117426965D01*
X144918538Y-116861280D01*
X144312446Y-116820874D02*
X144595289Y-116538031D01*
X144251837Y-117083513D02*
X144655898Y-116881483D01*
X144393258Y-116618843D01*
X142499756Y-117250335D02*
X142297725Y-117048304D01*
X142661380Y-117169522D02*
X142095695Y-117452365D01*
X142378538Y-116886680D01*
X141853258Y-117209928D02*
X141590619Y-116947289D01*
X141893664Y-116927086D01*
X141833055Y-116866477D01*
X141812852Y-116805867D01*
X141812852Y-116765461D01*
X141833055Y-116704852D01*
X141934071Y-116603837D01*
X141994680Y-116583634D01*
X142035086Y-116583634D01*
X142095695Y-116603837D01*
X142216913Y-116725055D01*
X142237116Y-116785664D01*
X142237116Y-116826071D01*
X139959756Y-117351935D02*
X139757725Y-117149904D01*
X140121380Y-117271122D02*
X139555695Y-117553965D01*
X139838538Y-116988280D01*
X139333461Y-117250919D02*
X139293055Y-117250919D01*
X139232446Y-117230716D01*
X139131431Y-117129701D01*
X139111228Y-117069092D01*
X139111228Y-117028686D01*
X139131431Y-116968077D01*
X139171837Y-116927671D01*
X139252649Y-116887264D01*
X139737522Y-116887264D01*
X139474883Y-116624625D01*
X155331076Y-117266218D02*
X154906812Y-117690482D01*
X154805796Y-117589467D01*
X154765390Y-117508654D01*
X154765390Y-117427842D01*
X154785593Y-117367233D01*
X154846203Y-117266218D01*
X154906812Y-117205609D01*
X155007827Y-117145000D01*
X155068436Y-117124796D01*
X155149248Y-117124796D01*
X155230061Y-117165203D01*
X155331076Y-117266218D01*
X154543157Y-117246015D02*
X154502751Y-117246015D01*
X154442142Y-117225812D01*
X154341126Y-117124796D01*
X154320923Y-117064187D01*
X154320923Y-117023781D01*
X154341126Y-116963172D01*
X154381532Y-116922766D01*
X154462345Y-116882360D01*
X154947218Y-116882360D01*
X154684578Y-116619720D01*
X157998076Y-117266218D02*
X157573812Y-117690482D01*
X157472796Y-117589467D01*
X157432390Y-117508654D01*
X157432390Y-117427842D01*
X157452593Y-117367233D01*
X157513203Y-117266218D01*
X157573812Y-117205609D01*
X157674827Y-117145000D01*
X157735436Y-117124796D01*
X157816248Y-117124796D01*
X157897061Y-117165203D01*
X157998076Y-117266218D01*
X157189954Y-117306624D02*
X156927314Y-117043984D01*
X157230360Y-117023781D01*
X157169751Y-116963172D01*
X157149548Y-116902563D01*
X157149548Y-116862157D01*
X157169751Y-116801548D01*
X157270766Y-116700532D01*
X157331375Y-116680329D01*
X157371781Y-116680329D01*
X157432390Y-116700532D01*
X157553609Y-116821751D01*
X157573812Y-116882360D01*
X157573812Y-116922766D01*
X152791076Y-117266218D02*
X152366812Y-117690482D01*
X152265796Y-117589467D01*
X152225390Y-117508654D01*
X152225390Y-117427842D01*
X152245593Y-117367233D01*
X152306203Y-117266218D01*
X152366812Y-117205609D01*
X152467827Y-117145000D01*
X152528436Y-117124796D01*
X152609248Y-117124796D01*
X152690061Y-117165203D01*
X152791076Y-117266218D01*
X152144578Y-116619720D02*
X152387015Y-116862157D01*
X152265796Y-116740938D02*
X151841532Y-117165203D01*
X151942548Y-117145000D01*
X152023360Y-117145000D01*
X152083969Y-117165203D01*
X162951076Y-117266218D02*
X162526812Y-117690482D01*
X162425796Y-117589467D01*
X162385390Y-117508654D01*
X162385390Y-117427842D01*
X162405593Y-117367233D01*
X162466203Y-117266218D01*
X162526812Y-117205609D01*
X162627827Y-117145000D01*
X162688436Y-117124796D01*
X162769248Y-117124796D01*
X162850061Y-117165203D01*
X162951076Y-117266218D01*
X161900517Y-117064187D02*
X162102548Y-117266218D01*
X162324781Y-117084390D01*
X162284375Y-117084390D01*
X162223766Y-117064187D01*
X162122751Y-116963172D01*
X162102548Y-116902563D01*
X162102548Y-116862157D01*
X162122751Y-116801548D01*
X162223766Y-116700532D01*
X162284375Y-116680329D01*
X162324781Y-116680329D01*
X162385390Y-116700532D01*
X162486406Y-116801548D01*
X162506609Y-116862157D01*
X162506609Y-116902563D01*
X160411076Y-117266218D02*
X159986812Y-117690482D01*
X159885796Y-117589467D01*
X159845390Y-117508654D01*
X159845390Y-117427842D01*
X159865593Y-117367233D01*
X159926203Y-117266218D01*
X159986812Y-117205609D01*
X160087827Y-117145000D01*
X160148436Y-117124796D01*
X160229248Y-117124796D01*
X160310061Y-117165203D01*
X160411076Y-117266218D01*
X159522142Y-116942969D02*
X159804984Y-116660126D01*
X159461532Y-117205609D02*
X159865593Y-117003578D01*
X159602954Y-116740938D01*
D12*
G36*
X142029366Y-108087506D02*
G01*
X142215284Y-108180204D01*
X142379380Y-108350885D01*
X142424572Y-108414107D01*
X142473804Y-108496834D01*
X142505747Y-108586687D01*
X142524022Y-108706608D01*
X142532248Y-108879537D01*
X142534055Y-109107835D01*
X142525897Y-109420693D01*
X142497541Y-109655598D01*
X142443162Y-109830847D01*
X142356937Y-109964738D01*
X142233041Y-110075569D01*
X142223937Y-110082131D01*
X142101834Y-110149256D01*
X141954800Y-110182467D01*
X141767804Y-110190655D01*
X141463813Y-110190655D01*
X141463685Y-110485762D01*
X141460856Y-110650117D01*
X141443618Y-110746523D01*
X141398570Y-110804343D01*
X141312314Y-110852941D01*
X141291599Y-110862869D01*
X141194662Y-110909398D01*
X141119607Y-110938786D01*
X141063798Y-110941324D01*
X141024597Y-110907302D01*
X140999368Y-110827012D01*
X140985472Y-110690743D01*
X140980273Y-110488787D01*
X140981134Y-110211434D01*
X140985416Y-109848976D01*
X140986753Y-109740560D01*
X140991571Y-109366837D01*
X140995887Y-109122369D01*
X141463557Y-109122369D01*
X141466185Y-109329877D01*
X141477867Y-109465645D01*
X141504297Y-109555192D01*
X141551169Y-109624039D01*
X141582993Y-109657618D01*
X141713092Y-109755869D01*
X141828279Y-109763866D01*
X141947134Y-109682730D01*
X141950147Y-109679736D01*
X141998505Y-109617030D01*
X142027922Y-109531808D01*
X142042760Y-109400564D01*
X142047381Y-109199793D01*
X142047465Y-109155314D01*
X142036298Y-108878639D01*
X141999947Y-108686842D01*
X141934141Y-108569757D01*
X141834607Y-108517215D01*
X141777081Y-108511920D01*
X141640551Y-108536767D01*
X141546902Y-108618581D01*
X141490530Y-108768270D01*
X141465833Y-108996743D01*
X141463557Y-109122369D01*
X140995887Y-109122369D01*
X140996678Y-109077587D01*
X141003278Y-108859970D01*
X141012577Y-108701146D01*
X141025777Y-108588274D01*
X141044085Y-108508513D01*
X141068703Y-108449023D01*
X141100837Y-108396963D01*
X141114615Y-108377373D01*
X141297388Y-108192328D01*
X141528476Y-108087412D01*
X141795790Y-108058163D01*
X142029366Y-108087506D01*
G37*
X142029366Y-108087506D02*
X142215284Y-108180204D01*
X142379380Y-108350885D01*
X142424572Y-108414107D01*
X142473804Y-108496834D01*
X142505747Y-108586687D01*
X142524022Y-108706608D01*
X142532248Y-108879537D01*
X142534055Y-109107835D01*
X142525897Y-109420693D01*
X142497541Y-109655598D01*
X142443162Y-109830847D01*
X142356937Y-109964738D01*
X142233041Y-110075569D01*
X142223937Y-110082131D01*
X142101834Y-110149256D01*
X141954800Y-110182467D01*
X141767804Y-110190655D01*
X141463813Y-110190655D01*
X141463685Y-110485762D01*
X141460856Y-110650117D01*
X141443618Y-110746523D01*
X141398570Y-110804343D01*
X141312314Y-110852941D01*
X141291599Y-110862869D01*
X141194662Y-110909398D01*
X141119607Y-110938786D01*
X141063798Y-110941324D01*
X141024597Y-110907302D01*
X140999368Y-110827012D01*
X140985472Y-110690743D01*
X140980273Y-110488787D01*
X140981134Y-110211434D01*
X140985416Y-109848976D01*
X140986753Y-109740560D01*
X140991571Y-109366837D01*
X140995887Y-109122369D01*
X141463557Y-109122369D01*
X141466185Y-109329877D01*
X141477867Y-109465645D01*
X141504297Y-109555192D01*
X141551169Y-109624039D01*
X141582993Y-109657618D01*
X141713092Y-109755869D01*
X141828279Y-109763866D01*
X141947134Y-109682730D01*
X141950147Y-109679736D01*
X141998505Y-109617030D01*
X142027922Y-109531808D01*
X142042760Y-109400564D01*
X142047381Y-109199793D01*
X142047465Y-109155314D01*
X142036298Y-108878639D01*
X141999947Y-108686842D01*
X141934141Y-108569757D01*
X141834607Y-108517215D01*
X141777081Y-108511920D01*
X141640551Y-108536767D01*
X141546902Y-108618581D01*
X141490530Y-108768270D01*
X141465833Y-108996743D01*
X141463557Y-109122369D01*
X140995887Y-109122369D01*
X140996678Y-109077587D01*
X141003278Y-108859970D01*
X141012577Y-108701146D01*
X141025777Y-108588274D01*
X141044085Y-108508513D01*
X141068703Y-108449023D01*
X141100837Y-108396963D01*
X141114615Y-108377373D01*
X141297388Y-108192328D01*
X141528476Y-108087412D01*
X141795790Y-108058163D01*
X142029366Y-108087506D01*
G36*
X145771916Y-108113865D02*
G01*
X145928072Y-108204190D01*
X146036641Y-108293845D01*
X146116045Y-108387776D01*
X146170746Y-108502646D01*
X146205210Y-108655114D01*
X146223901Y-108861844D01*
X146231281Y-109139496D01*
X146232139Y-109339086D01*
X146232139Y-110073766D01*
X146025338Y-110166472D01*
X145818538Y-110259179D01*
X145794208Y-109454492D01*
X145784155Y-109153966D01*
X145773609Y-108935835D01*
X145760543Y-108785186D01*
X145742929Y-108687107D01*
X145718739Y-108626688D01*
X145685946Y-108589016D01*
X145675425Y-108580862D01*
X145516013Y-108517178D01*
X145354879Y-108542378D01*
X145258959Y-108609238D01*
X145219941Y-108656616D01*
X145192933Y-108718787D01*
X145175768Y-108813039D01*
X145166282Y-108956657D01*
X145162307Y-109166931D01*
X145161641Y-109386070D01*
X145161510Y-109660999D01*
X145156803Y-109855602D01*
X145141046Y-109986851D01*
X145107767Y-110071718D01*
X145050493Y-110127177D01*
X144962753Y-110170201D01*
X144845562Y-110214907D01*
X144717568Y-110263571D01*
X144732804Y-109399910D01*
X144738939Y-109088565D01*
X144746118Y-108858483D01*
X144756405Y-108693614D01*
X144771870Y-108577909D01*
X144794579Y-108495316D01*
X144826599Y-108429788D01*
X144865203Y-108371974D01*
X145051453Y-108187283D01*
X145278721Y-108080481D01*
X145525909Y-108054898D01*
X145771916Y-108113865D01*
G37*
X145771916Y-108113865D02*
X145928072Y-108204190D01*
X146036641Y-108293845D01*
X146116045Y-108387776D01*
X146170746Y-108502646D01*
X146205210Y-108655114D01*
X146223901Y-108861844D01*
X146231281Y-109139496D01*
X146232139Y-109339086D01*
X146232139Y-110073766D01*
X146025338Y-110166472D01*
X145818538Y-110259179D01*
X145794208Y-109454492D01*
X145784155Y-109153966D01*
X145773609Y-108935835D01*
X145760543Y-108785186D01*
X145742929Y-108687107D01*
X145718739Y-108626688D01*
X145685946Y-108589016D01*
X145675425Y-108580862D01*
X145516013Y-108517178D01*
X145354879Y-108542378D01*
X145258959Y-108609238D01*
X145219941Y-108656616D01*
X145192933Y-108718787D01*
X145175768Y-108813039D01*
X145166282Y-108956657D01*
X145162307Y-109166931D01*
X145161641Y-109386070D01*
X145161510Y-109660999D01*
X145156803Y-109855602D01*
X145141046Y-109986851D01*
X145107767Y-110071718D01*
X145050493Y-110127177D01*
X144962753Y-110170201D01*
X144845562Y-110214907D01*
X144717568Y-110263571D01*
X144732804Y-109399910D01*
X144738939Y-109088565D01*
X144746118Y-108858483D01*
X144756405Y-108693614D01*
X144771870Y-108577909D01*
X144794579Y-108495316D01*
X144826599Y-108429788D01*
X144865203Y-108371974D01*
X145051453Y-108187283D01*
X145278721Y-108080481D01*
X145525909Y-108054898D01*
X145771916Y-108113865D01*
G36*
X140156568Y-108094358D02*
G01*
X140384636Y-108214280D01*
X140552952Y-108407278D01*
X140612741Y-108531355D01*
X140659266Y-108717653D01*
X140683082Y-108953045D01*
X140685340Y-109209952D01*
X140667192Y-109460799D01*
X140629789Y-109678009D01*
X140574284Y-109834005D01*
X140557225Y-109860871D01*
X140355170Y-110061415D01*
X140115178Y-110181529D01*
X139854766Y-110216680D01*
X139591447Y-110162337D01*
X139518167Y-110129756D01*
X139375461Y-110029353D01*
X139250214Y-109896225D01*
X139238377Y-109879341D01*
X139190265Y-109797969D01*
X139158462Y-109710984D01*
X139139674Y-109596475D01*
X139130608Y-109432530D01*
X139127971Y-109197240D01*
X139127925Y-109144487D01*
X139128046Y-109127699D01*
X139614515Y-109127699D01*
X139617346Y-109349761D01*
X139628488Y-109497123D01*
X139651909Y-109592308D01*
X139691581Y-109657837D01*
X139711833Y-109679736D01*
X139828260Y-109762953D01*
X139941298Y-109759158D01*
X140055591Y-109686973D01*
X140123759Y-109609911D01*
X140164130Y-109497429D01*
X140186802Y-109320055D01*
X140188357Y-109299367D01*
X140192227Y-108977911D01*
X140151783Y-108739167D01*
X140067574Y-108584600D01*
X139940147Y-108515678D01*
X139894660Y-108511920D01*
X139775219Y-108530821D01*
X139693517Y-108596306D01*
X139643563Y-108721544D01*
X139619366Y-108919704D01*
X139614515Y-109127699D01*
X139128046Y-109127699D01*
X139129737Y-108893765D01*
X139137347Y-108718582D01*
X139154014Y-108597191D01*
X139182999Y-108507847D01*
X139227560Y-108428803D01*
X139237407Y-108414107D01*
X139402920Y-108216011D01*
X139583270Y-108101014D01*
X139802835Y-108055365D01*
X139877395Y-108053135D01*
X140156568Y-108094358D01*
G37*
X140156568Y-108094358D02*
X140384636Y-108214280D01*
X140552952Y-108407278D01*
X140612741Y-108531355D01*
X140659266Y-108717653D01*
X140683082Y-108953045D01*
X140685340Y-109209952D01*
X140667192Y-109460799D01*
X140629789Y-109678009D01*
X140574284Y-109834005D01*
X140557225Y-109860871D01*
X140355170Y-110061415D01*
X140115178Y-110181529D01*
X139854766Y-110216680D01*
X139591447Y-110162337D01*
X139518167Y-110129756D01*
X139375461Y-110029353D01*
X139250214Y-109896225D01*
X139238377Y-109879341D01*
X139190265Y-109797969D01*
X139158462Y-109710984D01*
X139139674Y-109596475D01*
X139130608Y-109432530D01*
X139127971Y-109197240D01*
X139127925Y-109144487D01*
X139128046Y-109127699D01*
X139614515Y-109127699D01*
X139617346Y-109349761D01*
X139628488Y-109497123D01*
X139651909Y-109592308D01*
X139691581Y-109657837D01*
X139711833Y-109679736D01*
X139828260Y-109762953D01*
X139941298Y-109759158D01*
X140055591Y-109686973D01*
X140123759Y-109609911D01*
X140164130Y-109497429D01*
X140186802Y-109320055D01*
X140188357Y-109299367D01*
X140192227Y-108977911D01*
X140151783Y-108739167D01*
X140067574Y-108584600D01*
X139940147Y-108515678D01*
X139894660Y-108511920D01*
X139775219Y-108530821D01*
X139693517Y-108596306D01*
X139643563Y-108721544D01*
X139619366Y-108919704D01*
X139614515Y-109127699D01*
X139128046Y-109127699D01*
X139129737Y-108893765D01*
X139137347Y-108718582D01*
X139154014Y-108597191D01*
X139182999Y-108507847D01*
X139227560Y-108428803D01*
X139237407Y-108414107D01*
X139402920Y-108216011D01*
X139583270Y-108101014D01*
X139802835Y-108055365D01*
X139877395Y-108053135D01*
X140156568Y-108094358D01*
G36*
X143935453Y-108125461D02*
G01*
X144127297Y-108254519D01*
X144275552Y-108440915D01*
X144364116Y-108678109D01*
X144382028Y-108852691D01*
X144379994Y-108925544D01*
X144362960Y-108981324D01*
X144316136Y-109031298D01*
X144224727Y-109086733D01*
X144073942Y-109158896D01*
X143848987Y-109259055D01*
X143847848Y-109259558D01*
X143640785Y-109354396D01*
X143470988Y-109438609D01*
X143355812Y-109503133D01*
X143312610Y-109538900D01*
X143312599Y-109539188D01*
X143350675Y-109617074D01*
X143439716Y-109702924D01*
X143541937Y-109764769D01*
X143593726Y-109777054D01*
X143735016Y-109734564D01*
X143856688Y-109628152D01*
X143916055Y-109511156D01*
X143973167Y-109424905D01*
X144085039Y-109326681D01*
X144216546Y-109241827D01*
X144332568Y-109195681D01*
X144356829Y-109193146D01*
X144384138Y-109234868D01*
X144385784Y-109341519D01*
X144365714Y-109485321D01*
X144327878Y-109638501D01*
X144276223Y-109773283D01*
X144273614Y-109778516D01*
X144118169Y-109995557D01*
X143916707Y-110143185D01*
X143687912Y-110215644D01*
X143450467Y-110207177D01*
X143223054Y-110112027D01*
X143212943Y-110105337D01*
X143034050Y-109943211D01*
X142916420Y-109731682D01*
X142851323Y-109453543D01*
X142842587Y-109375398D01*
X142827114Y-109006549D01*
X142845663Y-108834541D01*
X143312599Y-108834541D01*
X143318666Y-108941838D01*
X143351849Y-108973152D01*
X143434577Y-108949725D01*
X143564979Y-108894348D01*
X143710743Y-108824932D01*
X143714366Y-108823094D01*
X143837917Y-108758108D01*
X143887503Y-108714740D01*
X143875275Y-108669275D01*
X143823788Y-108609536D01*
X143692801Y-108523085D01*
X143551738Y-108516733D01*
X143425205Y-108579649D01*
X143337808Y-108701003D01*
X143312599Y-108834541D01*
X142845663Y-108834541D01*
X142858940Y-108711435D01*
X142940591Y-108477382D01*
X143054261Y-108313413D01*
X143259425Y-108147716D01*
X143485414Y-108065519D01*
X143716125Y-108060281D01*
X143935453Y-108125461D01*
G37*
X143935453Y-108125461D02*
X144127297Y-108254519D01*
X144275552Y-108440915D01*
X144364116Y-108678109D01*
X144382028Y-108852691D01*
X144379994Y-108925544D01*
X144362960Y-108981324D01*
X144316136Y-109031298D01*
X144224727Y-109086733D01*
X144073942Y-109158896D01*
X143848987Y-109259055D01*
X143847848Y-109259558D01*
X143640785Y-109354396D01*
X143470988Y-109438609D01*
X143355812Y-109503133D01*
X143312610Y-109538900D01*
X143312599Y-109539188D01*
X143350675Y-109617074D01*
X143439716Y-109702924D01*
X143541937Y-109764769D01*
X143593726Y-109777054D01*
X143735016Y-109734564D01*
X143856688Y-109628152D01*
X143916055Y-109511156D01*
X143973167Y-109424905D01*
X144085039Y-109326681D01*
X144216546Y-109241827D01*
X144332568Y-109195681D01*
X144356829Y-109193146D01*
X144384138Y-109234868D01*
X144385784Y-109341519D01*
X144365714Y-109485321D01*
X144327878Y-109638501D01*
X144276223Y-109773283D01*
X144273614Y-109778516D01*
X144118169Y-109995557D01*
X143916707Y-110143185D01*
X143687912Y-110215644D01*
X143450467Y-110207177D01*
X143223054Y-110112027D01*
X143212943Y-110105337D01*
X143034050Y-109943211D01*
X142916420Y-109731682D01*
X142851323Y-109453543D01*
X142842587Y-109375398D01*
X142827114Y-109006549D01*
X142845663Y-108834541D01*
X143312599Y-108834541D01*
X143318666Y-108941838D01*
X143351849Y-108973152D01*
X143434577Y-108949725D01*
X143564979Y-108894348D01*
X143710743Y-108824932D01*
X143714366Y-108823094D01*
X143837917Y-108758108D01*
X143887503Y-108714740D01*
X143875275Y-108669275D01*
X143823788Y-108609536D01*
X143692801Y-108523085D01*
X143551738Y-108516733D01*
X143425205Y-108579649D01*
X143337808Y-108701003D01*
X143312599Y-108834541D01*
X142845663Y-108834541D01*
X142858940Y-108711435D01*
X142940591Y-108477382D01*
X143054261Y-108313413D01*
X143259425Y-108147716D01*
X143485414Y-108065519D01*
X143716125Y-108060281D01*
X143935453Y-108125461D01*
G36*
X147983863Y-107857429D02*
G01*
X147998123Y-108056313D01*
X148014502Y-108173511D01*
X148037198Y-108224632D01*
X148070412Y-108225286D01*
X148081181Y-108219183D01*
X148224433Y-108174997D01*
X148410775Y-108177577D01*
X148600224Y-108222999D01*
X148718717Y-108281759D01*
X148840209Y-108375631D01*
X148929023Y-108481865D01*
X148989992Y-108616850D01*
X149027950Y-108796976D01*
X149047732Y-109038633D01*
X149054170Y-109358211D01*
X149054286Y-109419516D01*
X149054361Y-110108147D01*
X148901123Y-110161566D01*
X148792287Y-110197908D01*
X148732574Y-110214828D01*
X148730817Y-110214985D01*
X148724936Y-110169100D01*
X148719932Y-110042539D01*
X148716184Y-109851941D01*
X148714073Y-109613948D01*
X148713748Y-109469252D01*
X148713071Y-109183955D01*
X148709586Y-108979480D01*
X148701112Y-108839334D01*
X148685466Y-108747023D01*
X148660469Y-108686053D01*
X148623938Y-108639931D01*
X148601129Y-108617720D01*
X148444449Y-108528214D01*
X148273474Y-108521511D01*
X148118350Y-108597208D01*
X148089663Y-108624539D01*
X148047587Y-108675929D01*
X148018401Y-108736886D01*
X147999771Y-108825025D01*
X147989361Y-108957961D01*
X147984837Y-109153309D01*
X147983863Y-109422652D01*
X147983863Y-110108147D01*
X147830625Y-110161566D01*
X147721789Y-110197908D01*
X147662076Y-110214828D01*
X147660319Y-110214985D01*
X147655825Y-110168414D01*
X147651775Y-110037051D01*
X147648330Y-109833422D01*
X147645653Y-109570054D01*
X147643906Y-109259471D01*
X147643251Y-108914201D01*
X147643250Y-108898843D01*
X147643250Y-107582701D01*
X147959534Y-107449289D01*
X147983863Y-107857429D01*
G37*
X147983863Y-107857429D02*
X147998123Y-108056313D01*
X148014502Y-108173511D01*
X148037198Y-108224632D01*
X148070412Y-108225286D01*
X148081181Y-108219183D01*
X148224433Y-108174997D01*
X148410775Y-108177577D01*
X148600224Y-108222999D01*
X148718717Y-108281759D01*
X148840209Y-108375631D01*
X148929023Y-108481865D01*
X148989992Y-108616850D01*
X149027950Y-108796976D01*
X149047732Y-109038633D01*
X149054170Y-109358211D01*
X149054286Y-109419516D01*
X149054361Y-110108147D01*
X148901123Y-110161566D01*
X148792287Y-110197908D01*
X148732574Y-110214828D01*
X148730817Y-110214985D01*
X148724936Y-110169100D01*
X148719932Y-110042539D01*
X148716184Y-109851941D01*
X148714073Y-109613948D01*
X148713748Y-109469252D01*
X148713071Y-109183955D01*
X148709586Y-108979480D01*
X148701112Y-108839334D01*
X148685466Y-108747023D01*
X148660469Y-108686053D01*
X148623938Y-108639931D01*
X148601129Y-108617720D01*
X148444449Y-108528214D01*
X148273474Y-108521511D01*
X148118350Y-108597208D01*
X148089663Y-108624539D01*
X148047587Y-108675929D01*
X148018401Y-108736886D01*
X147999771Y-108825025D01*
X147989361Y-108957961D01*
X147984837Y-109153309D01*
X147983863Y-109422652D01*
X147983863Y-110108147D01*
X147830625Y-110161566D01*
X147721789Y-110197908D01*
X147662076Y-110214828D01*
X147660319Y-110214985D01*
X147655825Y-110168414D01*
X147651775Y-110037051D01*
X147648330Y-109833422D01*
X147645653Y-109570054D01*
X147643906Y-109259471D01*
X147643251Y-108914201D01*
X147643250Y-108898843D01*
X147643250Y-107582701D01*
X147959534Y-107449289D01*
X147983863Y-107857429D01*
G36*
X150209441Y-108191601D02*
G01*
X150400105Y-108262403D01*
X150402286Y-108263764D01*
X150520206Y-108350550D01*
X150607260Y-108451973D01*
X150668486Y-108584145D01*
X150708923Y-108763182D01*
X150733609Y-109005195D01*
X150747582Y-109326299D01*
X150748807Y-109372048D01*
X150766400Y-110061869D01*
X150618352Y-110138427D01*
X150511230Y-110190163D01*
X150446551Y-110214678D01*
X150443559Y-110214985D01*
X150432366Y-110169751D01*
X150423475Y-110047736D01*
X150418006Y-109869468D01*
X150416813Y-109725116D01*
X150416786Y-109491271D01*
X150406096Y-109344419D01*
X150368833Y-109274376D01*
X150289088Y-109270958D01*
X150150949Y-109323983D01*
X149942388Y-109421454D01*
X149789029Y-109502409D01*
X149710152Y-109572644D01*
X149686964Y-109649194D01*
X149686928Y-109652982D01*
X149725193Y-109784852D01*
X149838483Y-109856091D01*
X150011864Y-109866410D01*
X150136750Y-109864620D01*
X150202599Y-109900589D01*
X150243664Y-109986985D01*
X150267299Y-110097054D01*
X150233239Y-110159508D01*
X150220414Y-110168446D01*
X150099672Y-110204343D01*
X149930588Y-110209426D01*
X149756461Y-110185631D01*
X149633076Y-110142147D01*
X149462487Y-109997309D01*
X149365519Y-109795694D01*
X149346315Y-109638180D01*
X149360970Y-109496104D01*
X149414001Y-109380127D01*
X149519006Y-109277121D01*
X149689586Y-109173954D01*
X149939338Y-109057496D01*
X149954553Y-109050914D01*
X150179529Y-108946981D01*
X150318357Y-108861743D01*
X150377862Y-108785147D01*
X150364872Y-108707139D01*
X150286212Y-108617664D01*
X150262690Y-108597073D01*
X150105133Y-108517236D01*
X149941877Y-108520597D01*
X149799695Y-108598874D01*
X149705360Y-108743781D01*
X149696595Y-108772224D01*
X149611238Y-108910174D01*
X149502929Y-108976620D01*
X149346315Y-109042471D01*
X149346315Y-108872097D01*
X149393956Y-108624454D01*
X149535359Y-108397307D01*
X149608942Y-108321318D01*
X149776209Y-108223790D01*
X149988926Y-108179640D01*
X150209441Y-108191601D01*
G37*
X150209441Y-108191601D02*
X150400105Y-108262403D01*
X150402286Y-108263764D01*
X150520206Y-108350550D01*
X150607260Y-108451973D01*
X150668486Y-108584145D01*
X150708923Y-108763182D01*
X150733609Y-109005195D01*
X150747582Y-109326299D01*
X150748807Y-109372048D01*
X150766400Y-110061869D01*
X150618352Y-110138427D01*
X150511230Y-110190163D01*
X150446551Y-110214678D01*
X150443559Y-110214985D01*
X150432366Y-110169751D01*
X150423475Y-110047736D01*
X150418006Y-109869468D01*
X150416813Y-109725116D01*
X150416786Y-109491271D01*
X150406096Y-109344419D01*
X150368833Y-109274376D01*
X150289088Y-109270958D01*
X150150949Y-109323983D01*
X149942388Y-109421454D01*
X149789029Y-109502409D01*
X149710152Y-109572644D01*
X149686964Y-109649194D01*
X149686928Y-109652982D01*
X149725193Y-109784852D01*
X149838483Y-109856091D01*
X150011864Y-109866410D01*
X150136750Y-109864620D01*
X150202599Y-109900589D01*
X150243664Y-109986985D01*
X150267299Y-110097054D01*
X150233239Y-110159508D01*
X150220414Y-110168446D01*
X150099672Y-110204343D01*
X149930588Y-110209426D01*
X149756461Y-110185631D01*
X149633076Y-110142147D01*
X149462487Y-109997309D01*
X149365519Y-109795694D01*
X149346315Y-109638180D01*
X149360970Y-109496104D01*
X149414001Y-109380127D01*
X149519006Y-109277121D01*
X149689586Y-109173954D01*
X149939338Y-109057496D01*
X149954553Y-109050914D01*
X150179529Y-108946981D01*
X150318357Y-108861743D01*
X150377862Y-108785147D01*
X150364872Y-108707139D01*
X150286212Y-108617664D01*
X150262690Y-108597073D01*
X150105133Y-108517236D01*
X149941877Y-108520597D01*
X149799695Y-108598874D01*
X149705360Y-108743781D01*
X149696595Y-108772224D01*
X149611238Y-108910174D01*
X149502929Y-108976620D01*
X149346315Y-109042471D01*
X149346315Y-108872097D01*
X149393956Y-108624454D01*
X149535359Y-108397307D01*
X149608942Y-108321318D01*
X149776209Y-108223790D01*
X149988926Y-108179640D01*
X150209441Y-108191601D01*
G36*
X151852772Y-108187534D02*
G01*
X152073809Y-108269099D01*
X152252883Y-108413366D01*
X152322920Y-108514920D01*
X152399271Y-108701268D01*
X152397685Y-108836010D01*
X152317547Y-108926631D01*
X152287896Y-108942040D01*
X152159874Y-108990084D01*
X152094494Y-108977776D01*
X152072348Y-108897098D01*
X152071220Y-108852533D01*
X152030677Y-108688581D01*
X151925002Y-108573891D01*
X151778124Y-108518497D01*
X151613973Y-108532435D01*
X151480537Y-108604827D01*
X151435469Y-108646120D01*
X151403523Y-108696216D01*
X151381944Y-108771942D01*
X151367973Y-108890128D01*
X151358855Y-109067600D01*
X151351831Y-109321186D01*
X151350012Y-109401479D01*
X151343378Y-109676158D01*
X151335836Y-109869481D01*
X151324525Y-109997388D01*
X151306585Y-110075822D01*
X151279155Y-110120725D01*
X151239377Y-110148038D01*
X151213910Y-110160105D01*
X151105756Y-110201367D01*
X151042090Y-110214985D01*
X151021054Y-110169505D01*
X151008213Y-110032006D01*
X151003500Y-109800902D01*
X151006844Y-109474604D01*
X151007886Y-109424276D01*
X151015235Y-109126581D01*
X151023926Y-108909205D01*
X151036292Y-108755153D01*
X151054670Y-108647430D01*
X151081395Y-108569042D01*
X151118802Y-108502994D01*
X151138370Y-108474691D01*
X151250566Y-108349467D01*
X151376050Y-108252063D01*
X151391413Y-108243561D01*
X151616423Y-108176433D01*
X151852772Y-108187534D01*
G37*
X151852772Y-108187534D02*
X152073809Y-108269099D01*
X152252883Y-108413366D01*
X152322920Y-108514920D01*
X152399271Y-108701268D01*
X152397685Y-108836010D01*
X152317547Y-108926631D01*
X152287896Y-108942040D01*
X152159874Y-108990084D01*
X152094494Y-108977776D01*
X152072348Y-108897098D01*
X152071220Y-108852533D01*
X152030677Y-108688581D01*
X151925002Y-108573891D01*
X151778124Y-108518497D01*
X151613973Y-108532435D01*
X151480537Y-108604827D01*
X151435469Y-108646120D01*
X151403523Y-108696216D01*
X151381944Y-108771942D01*
X151367973Y-108890128D01*
X151358855Y-109067600D01*
X151351831Y-109321186D01*
X151350012Y-109401479D01*
X151343378Y-109676158D01*
X151335836Y-109869481D01*
X151324525Y-109997388D01*
X151306585Y-110075822D01*
X151279155Y-110120725D01*
X151239377Y-110148038D01*
X151213910Y-110160105D01*
X151105756Y-110201367D01*
X151042090Y-110214985D01*
X151021054Y-110169505D01*
X151008213Y-110032006D01*
X151003500Y-109800902D01*
X151006844Y-109474604D01*
X151007886Y-109424276D01*
X151015235Y-109126581D01*
X151023926Y-108909205D01*
X151036292Y-108755153D01*
X151054670Y-108647430D01*
X151081395Y-108569042D01*
X151118802Y-108502994D01*
X151138370Y-108474691D01*
X151250566Y-108349467D01*
X151376050Y-108252063D01*
X151391413Y-108243561D01*
X151616423Y-108176433D01*
X151852772Y-108187534D01*
G36*
X154066057Y-108575093D02*
G01*
X154065439Y-108938769D01*
X154063047Y-109218532D01*
X154057871Y-109427784D01*
X154048904Y-109579926D01*
X154035136Y-109688359D01*
X154015561Y-109766485D01*
X153989168Y-109827707D01*
X153969184Y-109862652D01*
X153803683Y-110052157D01*
X153593848Y-110170942D01*
X153361686Y-110213564D01*
X153129208Y-110174583D01*
X152990772Y-110104532D01*
X152845442Y-109983353D01*
X152746395Y-109835354D01*
X152686635Y-109641534D01*
X152659169Y-109382892D01*
X152655279Y-109193146D01*
X152655803Y-109179510D01*
X152995741Y-109179510D01*
X152997817Y-109397096D01*
X153007330Y-109541134D01*
X153029208Y-109635364D01*
X153068376Y-109703523D01*
X153115176Y-109754936D01*
X153272346Y-109854175D01*
X153441100Y-109862653D01*
X153600593Y-109779799D01*
X153613007Y-109768572D01*
X153665991Y-109710171D01*
X153699214Y-109640686D01*
X153717200Y-109537270D01*
X153724475Y-109377073D01*
X153725626Y-109199965D01*
X153723132Y-108977467D01*
X153712808Y-108829037D01*
X153690391Y-108731489D01*
X153651618Y-108661637D01*
X153619826Y-108624539D01*
X153472139Y-108530975D01*
X153302046Y-108519725D01*
X153139692Y-108591190D01*
X153108360Y-108617720D01*
X153055022Y-108676636D01*
X153021731Y-108746837D01*
X153003856Y-108851418D01*
X152996766Y-109013479D01*
X152995741Y-109179510D01*
X152655803Y-109179510D01*
X152667040Y-108887579D01*
X152706987Y-108657993D01*
X152782113Y-108485387D01*
X152899414Y-108350760D01*
X152990772Y-108281759D01*
X153156827Y-108207214D01*
X153349292Y-108172613D01*
X153528199Y-108181875D01*
X153628308Y-108219238D01*
X153667593Y-108229872D01*
X153693661Y-108190225D01*
X153711858Y-108083981D01*
X153725626Y-107922145D01*
X153740699Y-107741902D01*
X153761636Y-107633458D01*
X153799732Y-107571446D01*
X153866285Y-107530499D01*
X153908097Y-107512366D01*
X154066239Y-107446120D01*
X154066057Y-108575093D01*
G37*
X154066057Y-108575093D02*
X154065439Y-108938769D01*
X154063047Y-109218532D01*
X154057871Y-109427784D01*
X154048904Y-109579926D01*
X154035136Y-109688359D01*
X154015561Y-109766485D01*
X153989168Y-109827707D01*
X153969184Y-109862652D01*
X153803683Y-110052157D01*
X153593848Y-110170942D01*
X153361686Y-110213564D01*
X153129208Y-110174583D01*
X152990772Y-110104532D01*
X152845442Y-109983353D01*
X152746395Y-109835354D01*
X152686635Y-109641534D01*
X152659169Y-109382892D01*
X152655279Y-109193146D01*
X152655803Y-109179510D01*
X152995741Y-109179510D01*
X152997817Y-109397096D01*
X153007330Y-109541134D01*
X153029208Y-109635364D01*
X153068376Y-109703523D01*
X153115176Y-109754936D01*
X153272346Y-109854175D01*
X153441100Y-109862653D01*
X153600593Y-109779799D01*
X153613007Y-109768572D01*
X153665991Y-109710171D01*
X153699214Y-109640686D01*
X153717200Y-109537270D01*
X153724475Y-109377073D01*
X153725626Y-109199965D01*
X153723132Y-108977467D01*
X153712808Y-108829037D01*
X153690391Y-108731489D01*
X153651618Y-108661637D01*
X153619826Y-108624539D01*
X153472139Y-108530975D01*
X153302046Y-108519725D01*
X153139692Y-108591190D01*
X153108360Y-108617720D01*
X153055022Y-108676636D01*
X153021731Y-108746837D01*
X153003856Y-108851418D01*
X152996766Y-109013479D01*
X152995741Y-109179510D01*
X152655803Y-109179510D01*
X152667040Y-108887579D01*
X152706987Y-108657993D01*
X152782113Y-108485387D01*
X152899414Y-108350760D01*
X152990772Y-108281759D01*
X153156827Y-108207214D01*
X153349292Y-108172613D01*
X153528199Y-108181875D01*
X153628308Y-108219238D01*
X153667593Y-108229872D01*
X153693661Y-108190225D01*
X153711858Y-108083981D01*
X153725626Y-107922145D01*
X153740699Y-107741902D01*
X153761636Y-107633458D01*
X153799732Y-107571446D01*
X153866285Y-107530499D01*
X153908097Y-107512366D01*
X154066239Y-107446120D01*
X154066057Y-108575093D01*
G36*
X156043073Y-108217400D02*
G01*
X156050499Y-108345422D01*
X156056318Y-108539985D01*
X156060059Y-108785702D01*
X156061258Y-109043426D01*
X156061258Y-109915545D01*
X155907275Y-110069528D01*
X155801163Y-110164412D01*
X155708016Y-110202845D01*
X155580704Y-110200413D01*
X155530168Y-110194223D01*
X155372217Y-110176210D01*
X155241571Y-110165888D01*
X155209725Y-110164935D01*
X155102366Y-110171171D01*
X154948819Y-110186824D01*
X154889283Y-110194223D01*
X154743057Y-110205668D01*
X154644789Y-110180808D01*
X154547350Y-110104058D01*
X154512176Y-110069528D01*
X154358193Y-109915545D01*
X154358193Y-108284246D01*
X154482130Y-108227776D01*
X154588850Y-108185950D01*
X154651287Y-108171307D01*
X154667296Y-108217583D01*
X154682258Y-108346884D01*
X154695178Y-108544914D01*
X154705057Y-108797380D01*
X154709822Y-109010675D01*
X154723135Y-109850042D01*
X154839280Y-109866464D01*
X154944916Y-109854982D01*
X154996677Y-109817805D01*
X155011145Y-109748298D01*
X155023498Y-109600240D01*
X155032752Y-109392391D01*
X155037928Y-109143512D01*
X155038674Y-109015435D01*
X155039419Y-108278145D01*
X155192657Y-108224726D01*
X155301116Y-108188406D01*
X155360113Y-108171468D01*
X155361814Y-108171307D01*
X155367733Y-108217349D01*
X155374239Y-108345018D01*
X155380786Y-108538632D01*
X155386827Y-108782507D01*
X155391048Y-109010675D01*
X155404361Y-109850042D01*
X155696315Y-109850042D01*
X155709713Y-109084275D01*
X155723110Y-108318508D01*
X155865438Y-108244908D01*
X155970522Y-108194366D01*
X156032717Y-108171431D01*
X156034512Y-108171307D01*
X156043073Y-108217400D01*
G37*
X156043073Y-108217400D02*
X156050499Y-108345422D01*
X156056318Y-108539985D01*
X156060059Y-108785702D01*
X156061258Y-109043426D01*
X156061258Y-109915545D01*
X155907275Y-110069528D01*
X155801163Y-110164412D01*
X155708016Y-110202845D01*
X155580704Y-110200413D01*
X155530168Y-110194223D01*
X155372217Y-110176210D01*
X155241571Y-110165888D01*
X155209725Y-110164935D01*
X155102366Y-110171171D01*
X154948819Y-110186824D01*
X154889283Y-110194223D01*
X154743057Y-110205668D01*
X154644789Y-110180808D01*
X154547350Y-110104058D01*
X154512176Y-110069528D01*
X154358193Y-109915545D01*
X154358193Y-108284246D01*
X154482130Y-108227776D01*
X154588850Y-108185950D01*
X154651287Y-108171307D01*
X154667296Y-108217583D01*
X154682258Y-108346884D01*
X154695178Y-108544914D01*
X154705057Y-108797380D01*
X154709822Y-109010675D01*
X154723135Y-109850042D01*
X154839280Y-109866464D01*
X154944916Y-109854982D01*
X154996677Y-109817805D01*
X155011145Y-109748298D01*
X155023498Y-109600240D01*
X155032752Y-109392391D01*
X155037928Y-109143512D01*
X155038674Y-109015435D01*
X155039419Y-108278145D01*
X155192657Y-108224726D01*
X155301116Y-108188406D01*
X155360113Y-108171468D01*
X155361814Y-108171307D01*
X155367733Y-108217349D01*
X155374239Y-108345018D01*
X155380786Y-108538632D01*
X155386827Y-108782507D01*
X155391048Y-109010675D01*
X155404361Y-109850042D01*
X155696315Y-109850042D01*
X155709713Y-109084275D01*
X155723110Y-108318508D01*
X155865438Y-108244908D01*
X155970522Y-108194366D01*
X156032717Y-108171431D01*
X156034512Y-108171307D01*
X156043073Y-108217400D01*
G36*
X157266878Y-108209594D02*
G01*
X157406982Y-108273323D01*
X157516950Y-108350543D01*
X157597524Y-108436887D01*
X157653154Y-108548272D01*
X157688289Y-108700616D01*
X157707379Y-108909835D01*
X157714872Y-109191846D01*
X157715664Y-109377555D01*
X157715664Y-110102046D01*
X157591727Y-110158515D01*
X157494110Y-110199787D01*
X157445750Y-110214985D01*
X157436498Y-110169762D01*
X157429158Y-110047824D01*
X157424664Y-109869772D01*
X157423710Y-109728395D01*
X157419610Y-109524146D01*
X157408554Y-109362113D01*
X157392411Y-109262891D01*
X157379587Y-109241805D01*
X157293386Y-109263338D01*
X157158062Y-109318566D01*
X157001370Y-109393436D01*
X156851063Y-109473892D01*
X156734893Y-109545880D01*
X156680613Y-109595346D01*
X156680398Y-109595881D01*
X156685067Y-109687428D01*
X156726932Y-109774820D01*
X156800435Y-109845802D01*
X156907716Y-109869543D01*
X156999402Y-109866777D01*
X157129258Y-109864741D01*
X157197421Y-109895164D01*
X157238359Y-109975543D01*
X157243521Y-109990700D01*
X157261267Y-110105331D01*
X157213809Y-110174934D01*
X157090107Y-110208105D01*
X156956481Y-110214240D01*
X156716017Y-110168763D01*
X156591538Y-110103817D01*
X156437805Y-109951246D01*
X156356273Y-109763971D01*
X156348956Y-109566085D01*
X156417869Y-109381685D01*
X156521528Y-109266134D01*
X156625023Y-109201442D01*
X156787692Y-109119542D01*
X156977254Y-109036486D01*
X157008850Y-109023795D01*
X157217069Y-108931908D01*
X157337098Y-108850923D01*
X157375701Y-108770413D01*
X157339640Y-108679950D01*
X157277733Y-108609238D01*
X157131413Y-108522170D01*
X156970417Y-108515640D01*
X156822773Y-108582735D01*
X156716510Y-108716544D01*
X156702562Y-108751067D01*
X156621360Y-108878042D01*
X156502808Y-108972309D01*
X156353212Y-109049668D01*
X156353212Y-108830307D01*
X156362017Y-108696280D01*
X156399770Y-108590644D01*
X156483479Y-108477939D01*
X156563836Y-108391127D01*
X156688791Y-108268204D01*
X156785877Y-108202171D01*
X156890154Y-108175684D01*
X157008189Y-108171307D01*
X157266878Y-108209594D01*
G37*
X157266878Y-108209594D02*
X157406982Y-108273323D01*
X157516950Y-108350543D01*
X157597524Y-108436887D01*
X157653154Y-108548272D01*
X157688289Y-108700616D01*
X157707379Y-108909835D01*
X157714872Y-109191846D01*
X157715664Y-109377555D01*
X157715664Y-110102046D01*
X157591727Y-110158515D01*
X157494110Y-110199787D01*
X157445750Y-110214985D01*
X157436498Y-110169762D01*
X157429158Y-110047824D01*
X157424664Y-109869772D01*
X157423710Y-109728395D01*
X157419610Y-109524146D01*
X157408554Y-109362113D01*
X157392411Y-109262891D01*
X157379587Y-109241805D01*
X157293386Y-109263338D01*
X157158062Y-109318566D01*
X157001370Y-109393436D01*
X156851063Y-109473892D01*
X156734893Y-109545880D01*
X156680613Y-109595346D01*
X156680398Y-109595881D01*
X156685067Y-109687428D01*
X156726932Y-109774820D01*
X156800435Y-109845802D01*
X156907716Y-109869543D01*
X156999402Y-109866777D01*
X157129258Y-109864741D01*
X157197421Y-109895164D01*
X157238359Y-109975543D01*
X157243521Y-109990700D01*
X157261267Y-110105331D01*
X157213809Y-110174934D01*
X157090107Y-110208105D01*
X156956481Y-110214240D01*
X156716017Y-110168763D01*
X156591538Y-110103817D01*
X156437805Y-109951246D01*
X156356273Y-109763971D01*
X156348956Y-109566085D01*
X156417869Y-109381685D01*
X156521528Y-109266134D01*
X156625023Y-109201442D01*
X156787692Y-109119542D01*
X156977254Y-109036486D01*
X157008850Y-109023795D01*
X157217069Y-108931908D01*
X157337098Y-108850923D01*
X157375701Y-108770413D01*
X157339640Y-108679950D01*
X157277733Y-108609238D01*
X157131413Y-108522170D01*
X156970417Y-108515640D01*
X156822773Y-108582735D01*
X156716510Y-108716544D01*
X156702562Y-108751067D01*
X156621360Y-108878042D01*
X156502808Y-108972309D01*
X156353212Y-109049668D01*
X156353212Y-108830307D01*
X156362017Y-108696280D01*
X156399770Y-108590644D01*
X156483479Y-108477939D01*
X156563836Y-108391127D01*
X156688791Y-108268204D01*
X156785877Y-108202171D01*
X156890154Y-108175684D01*
X157008189Y-108171307D01*
X157266878Y-108209594D01*
G36*
X158969016Y-108217697D02*
G01*
X159027176Y-108243116D01*
X159165995Y-108353059D01*
X159284705Y-108512030D01*
X159358121Y-108681677D01*
X159370070Y-108765313D01*
X159330009Y-108882078D01*
X159242135Y-108943862D01*
X159147918Y-108981273D01*
X159104777Y-108988167D01*
X159083771Y-108938138D01*
X159042290Y-108829269D01*
X159024092Y-108780076D01*
X158922048Y-108609913D01*
X158774303Y-108525038D01*
X158584855Y-108527648D01*
X158570823Y-108530991D01*
X158469681Y-108578945D01*
X158395324Y-108672432D01*
X158344538Y-108822939D01*
X158314108Y-109041951D01*
X158300818Y-109340956D01*
X158299572Y-109500056D01*
X158298954Y-109750855D01*
X158294905Y-109921825D01*
X158284133Y-110030454D01*
X158263347Y-110094230D01*
X158229255Y-110130643D01*
X158178565Y-110157179D01*
X158175635Y-110158515D01*
X158078018Y-110199787D01*
X158029658Y-110214985D01*
X158022227Y-110169037D01*
X158015866Y-110042034D01*
X158011032Y-109850235D01*
X158008185Y-109609902D01*
X158007618Y-109434024D01*
X158010513Y-109093688D01*
X158021837Y-108835495D01*
X158045546Y-108644374D01*
X158085597Y-108505253D01*
X158145947Y-108403060D01*
X158230553Y-108322724D01*
X158314099Y-108266655D01*
X158514991Y-108192032D01*
X158748796Y-108175202D01*
X158969016Y-108217697D01*
G37*
X158969016Y-108217697D02*
X159027176Y-108243116D01*
X159165995Y-108353059D01*
X159284705Y-108512030D01*
X159358121Y-108681677D01*
X159370070Y-108765313D01*
X159330009Y-108882078D01*
X159242135Y-108943862D01*
X159147918Y-108981273D01*
X159104777Y-108988167D01*
X159083771Y-108938138D01*
X159042290Y-108829269D01*
X159024092Y-108780076D01*
X158922048Y-108609913D01*
X158774303Y-108525038D01*
X158584855Y-108527648D01*
X158570823Y-108530991D01*
X158469681Y-108578945D01*
X158395324Y-108672432D01*
X158344538Y-108822939D01*
X158314108Y-109041951D01*
X158300818Y-109340956D01*
X158299572Y-109500056D01*
X158298954Y-109750855D01*
X158294905Y-109921825D01*
X158284133Y-110030454D01*
X158263347Y-110094230D01*
X158229255Y-110130643D01*
X158178565Y-110157179D01*
X158175635Y-110158515D01*
X158078018Y-110199787D01*
X158029658Y-110214985D01*
X158022227Y-110169037D01*
X158015866Y-110042034D01*
X158011032Y-109850235D01*
X158008185Y-109609902D01*
X158007618Y-109434024D01*
X158010513Y-109093688D01*
X158021837Y-108835495D01*
X158045546Y-108644374D01*
X158085597Y-108505253D01*
X158145947Y-108403060D01*
X158230553Y-108322724D01*
X158314099Y-108266655D01*
X158514991Y-108192032D01*
X158748796Y-108175202D01*
X158969016Y-108217697D01*
G36*
X160648599Y-108245233D02*
G01*
X160841117Y-108371057D01*
X160933974Y-108483696D01*
X161007540Y-108688092D01*
X161013383Y-108849830D01*
X161000147Y-109066094D01*
X160501392Y-109284398D01*
X160258885Y-109395930D01*
X160100429Y-109485650D01*
X160018036Y-109563361D01*
X160003718Y-109638867D01*
X160049487Y-109721971D01*
X160099955Y-109777054D01*
X160246805Y-109865389D01*
X160406528Y-109871579D01*
X160553220Y-109802735D01*
X160660981Y-109665972D01*
X160680255Y-109617680D01*
X160772576Y-109466848D01*
X160878788Y-109402567D01*
X161024476Y-109347576D01*
X161024476Y-109556057D01*
X161011596Y-109697926D01*
X160961143Y-109817563D01*
X160855397Y-109954927D01*
X160839680Y-109972777D01*
X160722055Y-110094986D01*
X160620946Y-110160570D01*
X160494450Y-110190742D01*
X160389584Y-110200623D01*
X160202011Y-110203085D01*
X160068484Y-110171892D01*
X159985183Y-110125579D01*
X159854263Y-110023735D01*
X159763639Y-109913591D01*
X159706287Y-109775069D01*
X159675180Y-109588090D01*
X159663294Y-109332577D01*
X159662345Y-109202894D01*
X159665571Y-109047421D01*
X159959366Y-109047421D01*
X159962773Y-109130827D01*
X159971266Y-109144487D01*
X160027310Y-109125931D01*
X160147918Y-109076822D01*
X160309113Y-109007002D01*
X160342822Y-108991995D01*
X160546539Y-108888404D01*
X160658779Y-108797359D01*
X160683447Y-108712081D01*
X160624445Y-108625794D01*
X160575718Y-108587667D01*
X160399894Y-108511417D01*
X160235327Y-108524014D01*
X160097554Y-108617086D01*
X160002113Y-108782256D01*
X159971514Y-108913357D01*
X159959366Y-109047421D01*
X159665571Y-109047421D01*
X159668632Y-108899919D01*
X159691799Y-108675756D01*
X159737690Y-108512526D01*
X159812154Y-108392352D01*
X159921036Y-108297355D01*
X159968505Y-108266655D01*
X160184138Y-108186703D01*
X160420221Y-108181672D01*
X160648599Y-108245233D01*
G37*
X160648599Y-108245233D02*
X160841117Y-108371057D01*
X160933974Y-108483696D01*
X161007540Y-108688092D01*
X161013383Y-108849830D01*
X161000147Y-109066094D01*
X160501392Y-109284398D01*
X160258885Y-109395930D01*
X160100429Y-109485650D01*
X160018036Y-109563361D01*
X160003718Y-109638867D01*
X160049487Y-109721971D01*
X160099955Y-109777054D01*
X160246805Y-109865389D01*
X160406528Y-109871579D01*
X160553220Y-109802735D01*
X160660981Y-109665972D01*
X160680255Y-109617680D01*
X160772576Y-109466848D01*
X160878788Y-109402567D01*
X161024476Y-109347576D01*
X161024476Y-109556057D01*
X161011596Y-109697926D01*
X160961143Y-109817563D01*
X160855397Y-109954927D01*
X160839680Y-109972777D01*
X160722055Y-110094986D01*
X160620946Y-110160570D01*
X160494450Y-110190742D01*
X160389584Y-110200623D01*
X160202011Y-110203085D01*
X160068484Y-110171892D01*
X159985183Y-110125579D01*
X159854263Y-110023735D01*
X159763639Y-109913591D01*
X159706287Y-109775069D01*
X159675180Y-109588090D01*
X159663294Y-109332577D01*
X159662345Y-109202894D01*
X159665571Y-109047421D01*
X159959366Y-109047421D01*
X159962773Y-109130827D01*
X159971266Y-109144487D01*
X160027310Y-109125931D01*
X160147918Y-109076822D01*
X160309113Y-109007002D01*
X160342822Y-108991995D01*
X160546539Y-108888404D01*
X160658779Y-108797359D01*
X160683447Y-108712081D01*
X160624445Y-108625794D01*
X160575718Y-108587667D01*
X160399894Y-108511417D01*
X160235327Y-108524014D01*
X160097554Y-108617086D01*
X160002113Y-108782256D01*
X159971514Y-108913357D01*
X159959366Y-109047421D01*
X159665571Y-109047421D01*
X159668632Y-108899919D01*
X159691799Y-108675756D01*
X159737690Y-108512526D01*
X159812154Y-108392352D01*
X159921036Y-108297355D01*
X159968505Y-108266655D01*
X160184138Y-108186703D01*
X160420221Y-108181672D01*
X160648599Y-108245233D01*
G36*
X150424557Y-92405997D02*
G01*
X150687877Y-92407439D01*
X150878446Y-92411342D01*
X151008545Y-92418937D01*
X151090457Y-92431450D01*
X151136466Y-92450111D01*
X151158853Y-92476148D01*
X151169902Y-92510788D01*
X151170976Y-92515272D01*
X151187759Y-92596189D01*
X151218825Y-92755842D01*
X151260942Y-92977238D01*
X151310879Y-93243385D01*
X151365403Y-93537290D01*
X151367307Y-93547612D01*
X151421923Y-93835636D01*
X151473022Y-94090115D01*
X151517306Y-94295785D01*
X151551479Y-94437385D01*
X151572243Y-94499650D01*
X151573233Y-94500753D01*
X151634399Y-94531159D01*
X151760510Y-94581828D01*
X151924331Y-94641822D01*
X151925243Y-94642142D01*
X152131588Y-94719704D01*
X152374860Y-94818507D01*
X152604169Y-94917848D01*
X152615022Y-94922760D01*
X152988517Y-95092276D01*
X153815565Y-94527495D01*
X154069277Y-94355320D01*
X154299102Y-94201395D01*
X154491725Y-94074474D01*
X154633832Y-93983309D01*
X154712107Y-93936655D01*
X154719540Y-93933195D01*
X154776424Y-93948600D01*
X154882669Y-94022927D01*
X155042419Y-94159681D01*
X155259816Y-94362368D01*
X155481748Y-94578008D01*
X155695691Y-94790503D01*
X155887169Y-94984410D01*
X156044655Y-95147754D01*
X156156622Y-95268561D01*
X156211543Y-95334855D01*
X156213586Y-95338268D01*
X156219658Y-95383761D01*
X156196784Y-95458056D01*
X156139315Y-95571186D01*
X156041599Y-95733185D01*
X155897984Y-95954086D01*
X155706533Y-96238460D01*
X155536623Y-96488759D01*
X155384738Y-96713250D01*
X155259655Y-96898900D01*
X155170149Y-97032675D01*
X155125000Y-97101542D01*
X155122158Y-97106218D01*
X155127670Y-97172201D01*
X155169455Y-97300448D01*
X155239197Y-97466720D01*
X155264054Y-97519819D01*
X155372511Y-97756377D01*
X155488220Y-98024789D01*
X155582215Y-98257035D01*
X155649945Y-98429407D01*
X155703743Y-98560403D01*
X155734831Y-98628867D01*
X155738696Y-98634142D01*
X155795871Y-98642880D01*
X155930648Y-98666823D01*
X156125106Y-98702562D01*
X156361325Y-98746689D01*
X156621384Y-98795795D01*
X156887363Y-98846472D01*
X157141343Y-98895313D01*
X157365401Y-98938909D01*
X157541620Y-98973851D01*
X157652077Y-98996732D01*
X157679170Y-99003201D01*
X157707156Y-99019167D01*
X157728281Y-99055227D01*
X157743497Y-99123552D01*
X157753753Y-99236315D01*
X157760000Y-99405686D01*
X157763188Y-99643838D01*
X157764267Y-99962942D01*
X157764323Y-100093741D01*
X157764323Y-101157511D01*
X157508863Y-101207933D01*
X157366737Y-101235273D01*
X157154650Y-101275182D01*
X156898393Y-101322845D01*
X156623758Y-101373446D01*
X156547848Y-101387344D01*
X156294421Y-101436617D01*
X156073647Y-101485070D01*
X155904057Y-101528215D01*
X155804180Y-101561563D01*
X155787543Y-101571502D01*
X155746689Y-101641891D01*
X155688113Y-101778283D01*
X155623155Y-101953805D01*
X155610271Y-101991613D01*
X155525134Y-102226030D01*
X155419456Y-102490524D01*
X155316040Y-102728041D01*
X155315530Y-102729144D01*
X155143312Y-103101733D01*
X155709724Y-103934893D01*
X156276135Y-104768053D01*
X155548902Y-105496500D01*
X155328948Y-105713302D01*
X155128332Y-105904414D01*
X154958322Y-106059636D01*
X154830185Y-106168764D01*
X154755189Y-106221595D01*
X154744431Y-106224947D01*
X154681267Y-106198549D01*
X154552380Y-106125160D01*
X154371849Y-106013484D01*
X154153754Y-105872224D01*
X153917954Y-105714027D01*
X153678636Y-105552664D01*
X153465259Y-105412252D01*
X153291375Y-105301431D01*
X153170534Y-105228838D01*
X153116463Y-105203108D01*
X153050494Y-105224880D01*
X152925398Y-105282251D01*
X152766980Y-105363300D01*
X152750187Y-105372309D01*
X152536852Y-105479300D01*
X152390564Y-105531772D01*
X152299580Y-105532330D01*
X152252159Y-105483580D01*
X152251883Y-105482897D01*
X152228180Y-105425164D01*
X152171649Y-105288115D01*
X152086674Y-105082357D01*
X151977638Y-104818498D01*
X151848924Y-104507144D01*
X151704915Y-104158904D01*
X151565451Y-103821744D01*
X151412180Y-103449666D01*
X151271451Y-103104987D01*
X151147482Y-102798271D01*
X151044491Y-102540085D01*
X150966696Y-102340994D01*
X150918314Y-102211565D01*
X150903404Y-102163261D01*
X150940794Y-102107850D01*
X151038598Y-102019538D01*
X151169015Y-101922174D01*
X151540423Y-101614253D01*
X151830730Y-101261304D01*
X152036456Y-100870761D01*
X152154123Y-100450057D01*
X152180251Y-100006629D01*
X152161260Y-99801958D01*
X152057783Y-99377323D01*
X151879573Y-99002336D01*
X151637682Y-98680696D01*
X151343163Y-98416101D01*
X151007071Y-98212250D01*
X150640458Y-98072842D01*
X150254377Y-98001574D01*
X149859881Y-98002145D01*
X149468025Y-98078254D01*
X149089860Y-98233599D01*
X148736440Y-98471879D01*
X148588927Y-98606639D01*
X148306016Y-98952679D01*
X148109032Y-99330826D01*
X147996664Y-99730055D01*
X147967601Y-100139345D01*
X148020531Y-100547672D01*
X148154143Y-100944013D01*
X148367125Y-101317345D01*
X148658166Y-101656645D01*
X148983386Y-101922174D01*
X149118852Y-102023671D01*
X149214549Y-102111025D01*
X149248997Y-102163343D01*
X149230960Y-102220398D01*
X149179662Y-102356698D01*
X149099324Y-102561678D01*
X148994164Y-102824772D01*
X148868404Y-103135416D01*
X148726263Y-103483043D01*
X148586565Y-103821826D01*
X148432441Y-104194222D01*
X148289682Y-104539307D01*
X148162671Y-104846477D01*
X148055789Y-105105125D01*
X147973420Y-105304647D01*
X147919947Y-105434435D01*
X147900133Y-105482897D01*
X147853324Y-105532129D01*
X147762783Y-105531985D01*
X147616858Y-105479877D01*
X147403898Y-105373216D01*
X147402214Y-105372309D01*
X147241870Y-105289536D01*
X147112252Y-105229242D01*
X147039163Y-105203346D01*
X147035937Y-105203108D01*
X146980916Y-105229374D01*
X146859443Y-105302416D01*
X146685071Y-105413595D01*
X146471350Y-105554273D01*
X146234447Y-105714027D01*
X145993255Y-105875779D01*
X145775874Y-106016450D01*
X145596384Y-106127335D01*
X145468864Y-106199730D01*
X145407970Y-106224947D01*
X145351897Y-106191803D01*
X145239160Y-106099173D01*
X145081023Y-105957257D01*
X144888751Y-105776255D01*
X144673609Y-105566369D01*
X144603248Y-105496249D01*
X143875766Y-104767552D01*
X144429495Y-103954900D01*
X144597777Y-103705342D01*
X144745471Y-103481366D01*
X144864290Y-103295949D01*
X144945950Y-103162065D01*
X144982164Y-103092690D01*
X144983225Y-103087755D01*
X144964133Y-103022364D01*
X144912782Y-102890825D01*
X144838060Y-102715181D01*
X144785612Y-102597591D01*
X144687546Y-102372461D01*
X144595193Y-102145015D01*
X144523594Y-101952839D01*
X144504144Y-101894295D01*
X144448886Y-101737956D01*
X144394869Y-101617158D01*
X144365199Y-101571502D01*
X144299724Y-101543561D01*
X144156824Y-101503951D01*
X143955039Y-101457162D01*
X143712912Y-101407683D01*
X143604553Y-101387344D01*
X143329389Y-101336781D01*
X143065454Y-101287822D01*
X142838541Y-101245281D01*
X142674439Y-101213975D01*
X142643538Y-101207933D01*
X142388078Y-101157511D01*
X142388078Y-100093741D01*
X142388652Y-99743950D01*
X142391007Y-99479300D01*
X142396093Y-99287622D01*
X142404861Y-99156744D01*
X142418262Y-99074493D01*
X142437246Y-99028698D01*
X142462762Y-99007188D01*
X142473231Y-99003201D01*
X142536374Y-98989056D01*
X142675875Y-98960834D01*
X142873811Y-98921943D01*
X143112265Y-98875792D01*
X143373314Y-98825788D01*
X143639039Y-98775341D01*
X143891519Y-98727858D01*
X144112835Y-98686748D01*
X144285066Y-98655419D01*
X144390292Y-98637278D01*
X144413705Y-98634142D01*
X144434916Y-98592173D01*
X144481868Y-98480370D01*
X144545781Y-98319888D01*
X144570186Y-98257035D01*
X144668620Y-98014203D01*
X144784534Y-97745918D01*
X144888347Y-97519819D01*
X144964735Y-97346935D01*
X145015556Y-97204877D01*
X145032521Y-97117878D01*
X145029816Y-97106218D01*
X144993961Y-97051170D01*
X144912092Y-96928739D01*
X144792995Y-96751962D01*
X144645458Y-96533877D01*
X144478269Y-96287520D01*
X144445210Y-96238891D01*
X144251220Y-95950773D01*
X144108621Y-95731377D01*
X144011727Y-95570602D01*
X143954854Y-95458346D01*
X143932316Y-95384510D01*
X143938428Y-95338990D01*
X143938584Y-95338700D01*
X143986689Y-95278910D01*
X144093089Y-95163319D01*
X144246252Y-95003909D01*
X144434645Y-94812665D01*
X144646735Y-94601568D01*
X144670653Y-94578008D01*
X144937938Y-94319172D01*
X145144208Y-94129117D01*
X145293608Y-94004337D01*
X145390280Y-93941327D01*
X145432861Y-93933195D01*
X145495004Y-93968672D01*
X145623963Y-94050623D01*
X145806422Y-94170292D01*
X146029067Y-94318926D01*
X146278584Y-94487772D01*
X146336836Y-94527495D01*
X147163884Y-95092276D01*
X147537379Y-94922760D01*
X147764516Y-94823971D01*
X148008328Y-94724617D01*
X148217925Y-94645401D01*
X148227158Y-94642142D01*
X148391105Y-94582129D01*
X148517485Y-94531382D01*
X148579063Y-94500841D01*
X148579168Y-94500753D01*
X148598707Y-94445548D01*
X148631921Y-94309779D01*
X148675513Y-94108709D01*
X148726184Y-93857599D01*
X148780639Y-93571713D01*
X148785094Y-93547612D01*
X148839718Y-93253059D01*
X148889864Y-92985684D01*
X148932302Y-92762480D01*
X148963798Y-92600439D01*
X148981123Y-92516553D01*
X148981425Y-92515272D01*
X148991968Y-92479588D01*
X149012469Y-92452646D01*
X149055211Y-92433218D01*
X149132476Y-92420075D01*
X149256548Y-92411989D01*
X149439709Y-92407732D01*
X149694242Y-92406075D01*
X150032431Y-92405790D01*
X150076200Y-92405790D01*
X150424557Y-92405997D01*
G37*
X150424557Y-92405997D02*
X150687877Y-92407439D01*
X150878446Y-92411342D01*
X151008545Y-92418937D01*
X151090457Y-92431450D01*
X151136466Y-92450111D01*
X151158853Y-92476148D01*
X151169902Y-92510788D01*
X151170976Y-92515272D01*
X151187759Y-92596189D01*
X151218825Y-92755842D01*
X151260942Y-92977238D01*
X151310879Y-93243385D01*
X151365403Y-93537290D01*
X151367307Y-93547612D01*
X151421923Y-93835636D01*
X151473022Y-94090115D01*
X151517306Y-94295785D01*
X151551479Y-94437385D01*
X151572243Y-94499650D01*
X151573233Y-94500753D01*
X151634399Y-94531159D01*
X151760510Y-94581828D01*
X151924331Y-94641822D01*
X151925243Y-94642142D01*
X152131588Y-94719704D01*
X152374860Y-94818507D01*
X152604169Y-94917848D01*
X152615022Y-94922760D01*
X152988517Y-95092276D01*
X153815565Y-94527495D01*
X154069277Y-94355320D01*
X154299102Y-94201395D01*
X154491725Y-94074474D01*
X154633832Y-93983309D01*
X154712107Y-93936655D01*
X154719540Y-93933195D01*
X154776424Y-93948600D01*
X154882669Y-94022927D01*
X155042419Y-94159681D01*
X155259816Y-94362368D01*
X155481748Y-94578008D01*
X155695691Y-94790503D01*
X155887169Y-94984410D01*
X156044655Y-95147754D01*
X156156622Y-95268561D01*
X156211543Y-95334855D01*
X156213586Y-95338268D01*
X156219658Y-95383761D01*
X156196784Y-95458056D01*
X156139315Y-95571186D01*
X156041599Y-95733185D01*
X155897984Y-95954086D01*
X155706533Y-96238460D01*
X155536623Y-96488759D01*
X155384738Y-96713250D01*
X155259655Y-96898900D01*
X155170149Y-97032675D01*
X155125000Y-97101542D01*
X155122158Y-97106218D01*
X155127670Y-97172201D01*
X155169455Y-97300448D01*
X155239197Y-97466720D01*
X155264054Y-97519819D01*
X155372511Y-97756377D01*
X155488220Y-98024789D01*
X155582215Y-98257035D01*
X155649945Y-98429407D01*
X155703743Y-98560403D01*
X155734831Y-98628867D01*
X155738696Y-98634142D01*
X155795871Y-98642880D01*
X155930648Y-98666823D01*
X156125106Y-98702562D01*
X156361325Y-98746689D01*
X156621384Y-98795795D01*
X156887363Y-98846472D01*
X157141343Y-98895313D01*
X157365401Y-98938909D01*
X157541620Y-98973851D01*
X157652077Y-98996732D01*
X157679170Y-99003201D01*
X157707156Y-99019167D01*
X157728281Y-99055227D01*
X157743497Y-99123552D01*
X157753753Y-99236315D01*
X157760000Y-99405686D01*
X157763188Y-99643838D01*
X157764267Y-99962942D01*
X157764323Y-100093741D01*
X157764323Y-101157511D01*
X157508863Y-101207933D01*
X157366737Y-101235273D01*
X157154650Y-101275182D01*
X156898393Y-101322845D01*
X156623758Y-101373446D01*
X156547848Y-101387344D01*
X156294421Y-101436617D01*
X156073647Y-101485070D01*
X155904057Y-101528215D01*
X155804180Y-101561563D01*
X155787543Y-101571502D01*
X155746689Y-101641891D01*
X155688113Y-101778283D01*
X155623155Y-101953805D01*
X155610271Y-101991613D01*
X155525134Y-102226030D01*
X155419456Y-102490524D01*
X155316040Y-102728041D01*
X155315530Y-102729144D01*
X155143312Y-103101733D01*
X155709724Y-103934893D01*
X156276135Y-104768053D01*
X155548902Y-105496500D01*
X155328948Y-105713302D01*
X155128332Y-105904414D01*
X154958322Y-106059636D01*
X154830185Y-106168764D01*
X154755189Y-106221595D01*
X154744431Y-106224947D01*
X154681267Y-106198549D01*
X154552380Y-106125160D01*
X154371849Y-106013484D01*
X154153754Y-105872224D01*
X153917954Y-105714027D01*
X153678636Y-105552664D01*
X153465259Y-105412252D01*
X153291375Y-105301431D01*
X153170534Y-105228838D01*
X153116463Y-105203108D01*
X153050494Y-105224880D01*
X152925398Y-105282251D01*
X152766980Y-105363300D01*
X152750187Y-105372309D01*
X152536852Y-105479300D01*
X152390564Y-105531772D01*
X152299580Y-105532330D01*
X152252159Y-105483580D01*
X152251883Y-105482897D01*
X152228180Y-105425164D01*
X152171649Y-105288115D01*
X152086674Y-105082357D01*
X151977638Y-104818498D01*
X151848924Y-104507144D01*
X151704915Y-104158904D01*
X151565451Y-103821744D01*
X151412180Y-103449666D01*
X151271451Y-103104987D01*
X151147482Y-102798271D01*
X151044491Y-102540085D01*
X150966696Y-102340994D01*
X150918314Y-102211565D01*
X150903404Y-102163261D01*
X150940794Y-102107850D01*
X151038598Y-102019538D01*
X151169015Y-101922174D01*
X151540423Y-101614253D01*
X151830730Y-101261304D01*
X152036456Y-100870761D01*
X152154123Y-100450057D01*
X152180251Y-100006629D01*
X152161260Y-99801958D01*
X152057783Y-99377323D01*
X151879573Y-99002336D01*
X151637682Y-98680696D01*
X151343163Y-98416101D01*
X151007071Y-98212250D01*
X150640458Y-98072842D01*
X150254377Y-98001574D01*
X149859881Y-98002145D01*
X149468025Y-98078254D01*
X149089860Y-98233599D01*
X148736440Y-98471879D01*
X148588927Y-98606639D01*
X148306016Y-98952679D01*
X148109032Y-99330826D01*
X147996664Y-99730055D01*
X147967601Y-100139345D01*
X148020531Y-100547672D01*
X148154143Y-100944013D01*
X148367125Y-101317345D01*
X148658166Y-101656645D01*
X148983386Y-101922174D01*
X149118852Y-102023671D01*
X149214549Y-102111025D01*
X149248997Y-102163343D01*
X149230960Y-102220398D01*
X149179662Y-102356698D01*
X149099324Y-102561678D01*
X148994164Y-102824772D01*
X148868404Y-103135416D01*
X148726263Y-103483043D01*
X148586565Y-103821826D01*
X148432441Y-104194222D01*
X148289682Y-104539307D01*
X148162671Y-104846477D01*
X148055789Y-105105125D01*
X147973420Y-105304647D01*
X147919947Y-105434435D01*
X147900133Y-105482897D01*
X147853324Y-105532129D01*
X147762783Y-105531985D01*
X147616858Y-105479877D01*
X147403898Y-105373216D01*
X147402214Y-105372309D01*
X147241870Y-105289536D01*
X147112252Y-105229242D01*
X147039163Y-105203346D01*
X147035937Y-105203108D01*
X146980916Y-105229374D01*
X146859443Y-105302416D01*
X146685071Y-105413595D01*
X146471350Y-105554273D01*
X146234447Y-105714027D01*
X145993255Y-105875779D01*
X145775874Y-106016450D01*
X145596384Y-106127335D01*
X145468864Y-106199730D01*
X145407970Y-106224947D01*
X145351897Y-106191803D01*
X145239160Y-106099173D01*
X145081023Y-105957257D01*
X144888751Y-105776255D01*
X144673609Y-105566369D01*
X144603248Y-105496249D01*
X143875766Y-104767552D01*
X144429495Y-103954900D01*
X144597777Y-103705342D01*
X144745471Y-103481366D01*
X144864290Y-103295949D01*
X144945950Y-103162065D01*
X144982164Y-103092690D01*
X144983225Y-103087755D01*
X144964133Y-103022364D01*
X144912782Y-102890825D01*
X144838060Y-102715181D01*
X144785612Y-102597591D01*
X144687546Y-102372461D01*
X144595193Y-102145015D01*
X144523594Y-101952839D01*
X144504144Y-101894295D01*
X144448886Y-101737956D01*
X144394869Y-101617158D01*
X144365199Y-101571502D01*
X144299724Y-101543561D01*
X144156824Y-101503951D01*
X143955039Y-101457162D01*
X143712912Y-101407683D01*
X143604553Y-101387344D01*
X143329389Y-101336781D01*
X143065454Y-101287822D01*
X142838541Y-101245281D01*
X142674439Y-101213975D01*
X142643538Y-101207933D01*
X142388078Y-101157511D01*
X142388078Y-100093741D01*
X142388652Y-99743950D01*
X142391007Y-99479300D01*
X142396093Y-99287622D01*
X142404861Y-99156744D01*
X142418262Y-99074493D01*
X142437246Y-99028698D01*
X142462762Y-99007188D01*
X142473231Y-99003201D01*
X142536374Y-98989056D01*
X142675875Y-98960834D01*
X142873811Y-98921943D01*
X143112265Y-98875792D01*
X143373314Y-98825788D01*
X143639039Y-98775341D01*
X143891519Y-98727858D01*
X144112835Y-98686748D01*
X144285066Y-98655419D01*
X144390292Y-98637278D01*
X144413705Y-98634142D01*
X144434916Y-98592173D01*
X144481868Y-98480370D01*
X144545781Y-98319888D01*
X144570186Y-98257035D01*
X144668620Y-98014203D01*
X144784534Y-97745918D01*
X144888347Y-97519819D01*
X144964735Y-97346935D01*
X145015556Y-97204877D01*
X145032521Y-97117878D01*
X145029816Y-97106218D01*
X144993961Y-97051170D01*
X144912092Y-96928739D01*
X144792995Y-96751962D01*
X144645458Y-96533877D01*
X144478269Y-96287520D01*
X144445210Y-96238891D01*
X144251220Y-95950773D01*
X144108621Y-95731377D01*
X144011727Y-95570602D01*
X143954854Y-95458346D01*
X143932316Y-95384510D01*
X143938428Y-95338990D01*
X143938584Y-95338700D01*
X143986689Y-95278910D01*
X144093089Y-95163319D01*
X144246252Y-95003909D01*
X144434645Y-94812665D01*
X144646735Y-94601568D01*
X144670653Y-94578008D01*
X144937938Y-94319172D01*
X145144208Y-94129117D01*
X145293608Y-94004337D01*
X145390280Y-93941327D01*
X145432861Y-93933195D01*
X145495004Y-93968672D01*
X145623963Y-94050623D01*
X145806422Y-94170292D01*
X146029067Y-94318926D01*
X146278584Y-94487772D01*
X146336836Y-94527495D01*
X147163884Y-95092276D01*
X147537379Y-94922760D01*
X147764516Y-94823971D01*
X148008328Y-94724617D01*
X148217925Y-94645401D01*
X148227158Y-94642142D01*
X148391105Y-94582129D01*
X148517485Y-94531382D01*
X148579063Y-94500841D01*
X148579168Y-94500753D01*
X148598707Y-94445548D01*
X148631921Y-94309779D01*
X148675513Y-94108709D01*
X148726184Y-93857599D01*
X148780639Y-93571713D01*
X148785094Y-93547612D01*
X148839718Y-93253059D01*
X148889864Y-92985684D01*
X148932302Y-92762480D01*
X148963798Y-92600439D01*
X148981123Y-92516553D01*
X148981425Y-92515272D01*
X148991968Y-92479588D01*
X149012469Y-92452646D01*
X149055211Y-92433218D01*
X149132476Y-92420075D01*
X149256548Y-92411989D01*
X149439709Y-92407732D01*
X149694242Y-92406075D01*
X150032431Y-92405790D01*
X150076200Y-92405790D01*
X150424557Y-92405997D01*
D13*
X144920000Y-69830000D02*
X144920000Y-68500000D01*
X146250000Y-69830000D02*
X144920000Y-69830000D01*
X147520000Y-69830000D02*
X147520000Y-67170000D01*
X147520000Y-67170000D02*
X155200000Y-67170000D01*
X147520000Y-69830000D02*
X155200000Y-69830000D01*
X155200000Y-69830000D02*
X155200000Y-67170000D01*
X173950000Y-82030000D02*
X173950000Y-79370000D01*
X166270000Y-82030000D02*
X173950000Y-82030000D01*
X166270000Y-79370000D02*
X173950000Y-79370000D01*
X166270000Y-82030000D02*
X166270000Y-79370000D01*
X165000000Y-82030000D02*
X163670000Y-82030000D01*
X163670000Y-82030000D02*
X163670000Y-80700000D01*
X130636000Y-83130000D02*
X130636000Y-85790000D01*
X163716000Y-83130000D02*
X130636000Y-83130000D01*
X163716000Y-85790000D02*
X130636000Y-85790000D01*
X163716000Y-83130000D02*
X163716000Y-85790000D01*
X164986000Y-83130000D02*
X166316000Y-83130000D01*
X166316000Y-83130000D02*
X166316000Y-84460000D01*
X130636000Y-116290600D02*
X130636000Y-114960600D01*
X131966000Y-116290600D02*
X130636000Y-116290600D01*
X133236000Y-116290600D02*
X133236000Y-113630600D01*
X133236000Y-113630600D02*
X166316000Y-113630600D01*
X133236000Y-116290600D02*
X166316000Y-116290600D01*
X166316000Y-116290600D02*
X166316000Y-113630600D01*
X136280000Y-79170000D02*
X136280000Y-80500000D01*
X134950000Y-79170000D02*
X136280000Y-79170000D01*
X133680000Y-79170000D02*
X133680000Y-81830000D01*
X133680000Y-81830000D02*
X126000000Y-81830000D01*
X133680000Y-79170000D02*
X126000000Y-79170000D01*
X126000000Y-79170000D02*
X126000000Y-81830000D01*
X121720000Y-102240000D02*
X124380000Y-102240000D01*
X121720000Y-89480000D02*
X121720000Y-102240000D01*
X124380000Y-89480000D02*
X124380000Y-102240000D01*
X121720000Y-89480000D02*
X124380000Y-89480000D01*
X121720000Y-88210000D02*
X121720000Y-86880000D01*
X121720000Y-86880000D02*
X123050000Y-86880000D01*
X125970000Y-78030000D02*
X128630000Y-78030000D01*
X125970000Y-77970000D02*
X125970000Y-78030000D01*
X128630000Y-77970000D02*
X128630000Y-78030000D01*
X125970000Y-77970000D02*
X128630000Y-77970000D01*
X125970000Y-76700000D02*
X125970000Y-75370000D01*
X125970000Y-75370000D02*
X127300000Y-75370000D01*
X175170000Y-113670000D02*
X176500000Y-113670000D01*
X175170000Y-115000000D02*
X175170000Y-113670000D01*
X175170000Y-116270000D02*
X177830000Y-116270000D01*
X177830000Y-116270000D02*
X177830000Y-116330000D01*
X175170000Y-116270000D02*
X175170000Y-116330000D01*
X175170000Y-116330000D02*
X177830000Y-116330000D01*
X148416000Y-133080000D02*
X151076000Y-133080000D01*
X148416000Y-133020000D02*
X148416000Y-133080000D01*
X151076000Y-133020000D02*
X151076000Y-133080000D01*
X148416000Y-133020000D02*
X151076000Y-133020000D01*
X148416000Y-131750000D02*
X148416000Y-130420000D01*
X148416000Y-130420000D02*
X149746000Y-130420000D01*
X175170000Y-83170000D02*
X176500000Y-83170000D01*
X175170000Y-84500000D02*
X175170000Y-83170000D01*
X175170000Y-85770000D02*
X177830000Y-85770000D01*
X177830000Y-85770000D02*
X177830000Y-85830000D01*
X175170000Y-85770000D02*
X175170000Y-85830000D01*
X175170000Y-85830000D02*
X177830000Y-85830000D01*
X171370000Y-78230000D02*
X174030000Y-78230000D01*
X171370000Y-78170000D02*
X171370000Y-78230000D01*
X174030000Y-78170000D02*
X174030000Y-78230000D01*
X171370000Y-78170000D02*
X174030000Y-78170000D01*
X171370000Y-76900000D02*
X171370000Y-75570000D01*
X171370000Y-75570000D02*
X172700000Y-75570000D01*
X117250200Y-99736800D02*
X118580200Y-99736800D01*
X117250200Y-101066800D02*
X117250200Y-99736800D01*
X117250200Y-102336800D02*
X119910200Y-102336800D01*
X119910200Y-102336800D02*
X119910200Y-102396800D01*
X117250200Y-102336800D02*
X117250200Y-102396800D01*
X117250200Y-102396800D02*
X119910200Y-102396800D01*
X132588000Y-123628000D02*
X131458000Y-123628000D01*
X132588000Y-122868000D02*
X132588000Y-123628000D01*
X129880470Y-123563000D02*
X129058000Y-123563000D01*
X130698000Y-123563000D02*
X130495530Y-123563000D01*
X130698000Y-123431471D02*
X130698000Y-123563000D01*
X130698000Y-122161471D02*
X130698000Y-122304529D01*
X130894529Y-122108000D02*
X130751471Y-122108000D01*
X132588000Y-122108000D02*
X132021471Y-122108000D01*
X129058000Y-123563000D02*
X129058000Y-117093000D01*
X132588000Y-122108000D02*
X132588000Y-117093000D01*
X131150470Y-117093000D02*
X130495530Y-117093000D01*
X129880470Y-117093000D02*
X129058000Y-117093000D01*
X132588000Y-117093000D02*
X131765530Y-117093000D01*
D10*
X142554666Y-67964380D02*
X142554666Y-68678666D01*
X142507047Y-68821523D01*
X142411809Y-68916761D01*
X142268952Y-68964380D01*
X142173714Y-68964380D01*
X142935619Y-67964380D02*
X143602285Y-67964380D01*
X143173714Y-68964380D01*
X175066666Y-80152380D02*
X175066666Y-80866666D01*
X175019047Y-81009523D01*
X174923809Y-81104761D01*
X174780952Y-81152380D01*
X174685714Y-81152380D01*
X176019047Y-80152380D02*
X175542857Y-80152380D01*
X175495238Y-80628571D01*
X175542857Y-80580952D01*
X175638095Y-80533333D01*
X175876190Y-80533333D01*
X175971428Y-80580952D01*
X176019047Y-80628571D01*
X176066666Y-80723809D01*
X176066666Y-80961904D01*
X176019047Y-81057142D01*
X175971428Y-81104761D01*
X175876190Y-81152380D01*
X175638095Y-81152380D01*
X175542857Y-81104761D01*
X175495238Y-81057142D01*
X167466666Y-83952380D02*
X167466666Y-84666666D01*
X167419047Y-84809523D01*
X167323809Y-84904761D01*
X167180952Y-84952380D01*
X167085714Y-84952380D01*
X168371428Y-83952380D02*
X168180952Y-83952380D01*
X168085714Y-84000000D01*
X168038095Y-84047619D01*
X167942857Y-84190476D01*
X167895238Y-84380952D01*
X167895238Y-84761904D01*
X167942857Y-84857142D01*
X167990476Y-84904761D01*
X168085714Y-84952380D01*
X168276190Y-84952380D01*
X168371428Y-84904761D01*
X168419047Y-84857142D01*
X168466666Y-84761904D01*
X168466666Y-84523809D01*
X168419047Y-84428571D01*
X168371428Y-84380952D01*
X168276190Y-84333333D01*
X168085714Y-84333333D01*
X167990476Y-84380952D01*
X167942857Y-84428571D01*
X167895238Y-84523809D01*
X167466666Y-114412980D02*
X167466666Y-115127266D01*
X167419047Y-115270123D01*
X167323809Y-115365361D01*
X167180952Y-115412980D01*
X167085714Y-115412980D01*
X168371428Y-114746314D02*
X168371428Y-115412980D01*
X168133333Y-114365361D02*
X167895238Y-115079647D01*
X168514285Y-115079647D01*
X124066666Y-79952380D02*
X124066666Y-80666666D01*
X124019047Y-80809523D01*
X123923809Y-80904761D01*
X123780952Y-80952380D01*
X123685714Y-80952380D01*
X124447619Y-79952380D02*
X125066666Y-79952380D01*
X124733333Y-80333333D01*
X124876190Y-80333333D01*
X124971428Y-80380952D01*
X125019047Y-80428571D01*
X125066666Y-80523809D01*
X125066666Y-80761904D01*
X125019047Y-80857142D01*
X124971428Y-80904761D01*
X124876190Y-80952380D01*
X124590476Y-80952380D01*
X124495238Y-80904761D01*
X124447619Y-80857142D01*
X119766666Y-87752380D02*
X119766666Y-88466666D01*
X119719047Y-88609523D01*
X119623809Y-88704761D01*
X119480952Y-88752380D01*
X119385714Y-88752380D01*
X120195238Y-87847619D02*
X120242857Y-87800000D01*
X120338095Y-87752380D01*
X120576190Y-87752380D01*
X120671428Y-87800000D01*
X120719047Y-87847619D01*
X120766666Y-87942857D01*
X120766666Y-88038095D01*
X120719047Y-88180952D01*
X120147619Y-88752380D01*
X120766666Y-88752380D01*
X129956266Y-74915980D02*
X129956266Y-75630266D01*
X129908647Y-75773123D01*
X129813409Y-75868361D01*
X129670552Y-75915980D01*
X129575314Y-75915980D01*
X130480076Y-75915980D02*
X130670552Y-75915980D01*
X130765790Y-75868361D01*
X130813409Y-75820742D01*
X130908647Y-75677885D01*
X130956266Y-75487409D01*
X130956266Y-75106457D01*
X130908647Y-75011219D01*
X130861028Y-74963600D01*
X130765790Y-74915980D01*
X130575314Y-74915980D01*
X130480076Y-74963600D01*
X130432457Y-75011219D01*
X130384838Y-75106457D01*
X130384838Y-75344552D01*
X130432457Y-75439790D01*
X130480076Y-75487409D01*
X130575314Y-75535028D01*
X130765790Y-75535028D01*
X130861028Y-75487409D01*
X130908647Y-75439790D01*
X130956266Y-75344552D01*
X175690476Y-112122380D02*
X175690476Y-112836666D01*
X175642857Y-112979523D01*
X175547619Y-113074761D01*
X175404761Y-113122380D01*
X175309523Y-113122380D01*
X176690476Y-113122380D02*
X176119047Y-113122380D01*
X176404761Y-113122380D02*
X176404761Y-112122380D01*
X176309523Y-112265238D01*
X176214285Y-112360476D01*
X176119047Y-112408095D01*
X177309523Y-112122380D02*
X177404761Y-112122380D01*
X177500000Y-112170000D01*
X177547619Y-112217619D01*
X177595238Y-112312857D01*
X177642857Y-112503333D01*
X177642857Y-112741428D01*
X177595238Y-112931904D01*
X177547619Y-113027142D01*
X177500000Y-113074761D01*
X177404761Y-113122380D01*
X177309523Y-113122380D01*
X177214285Y-113074761D01*
X177166666Y-113027142D01*
X177119047Y-112931904D01*
X177071428Y-112741428D01*
X177071428Y-112503333D01*
X177119047Y-112312857D01*
X177166666Y-112217619D01*
X177214285Y-112170000D01*
X177309523Y-112122380D01*
X152238476Y-131964380D02*
X152238476Y-132678666D01*
X152190857Y-132821523D01*
X152095619Y-132916761D01*
X151952761Y-132964380D01*
X151857523Y-132964380D01*
X153238476Y-132964380D02*
X152667047Y-132964380D01*
X152952761Y-132964380D02*
X152952761Y-131964380D01*
X152857523Y-132107238D01*
X152762285Y-132202476D01*
X152667047Y-132250095D01*
X154190857Y-132964380D02*
X153619428Y-132964380D01*
X153905142Y-132964380D02*
X153905142Y-131964380D01*
X153809904Y-132107238D01*
X153714666Y-132202476D01*
X153619428Y-132250095D01*
X178636980Y-85518723D02*
X179351266Y-85518723D01*
X179494123Y-85566342D01*
X179589361Y-85661580D01*
X179636980Y-85804438D01*
X179636980Y-85899676D01*
X179636980Y-84518723D02*
X179636980Y-85090152D01*
X179636980Y-84804438D02*
X178636980Y-84804438D01*
X178779838Y-84899676D01*
X178875076Y-84994914D01*
X178922695Y-85090152D01*
X178732219Y-84137771D02*
X178684600Y-84090152D01*
X178636980Y-83994914D01*
X178636980Y-83756819D01*
X178684600Y-83661580D01*
X178732219Y-83613961D01*
X178827457Y-83566342D01*
X178922695Y-83566342D01*
X179065552Y-83613961D01*
X179636980Y-84185390D01*
X179636980Y-83566342D01*
X168545276Y-75246180D02*
X168545276Y-75960466D01*
X168497657Y-76103323D01*
X168402419Y-76198561D01*
X168259561Y-76246180D01*
X168164323Y-76246180D01*
X169545276Y-76246180D02*
X168973847Y-76246180D01*
X169259561Y-76246180D02*
X169259561Y-75246180D01*
X169164323Y-75389038D01*
X169069085Y-75484276D01*
X168973847Y-75531895D01*
X169878609Y-75246180D02*
X170497657Y-75246180D01*
X170164323Y-75627133D01*
X170307180Y-75627133D01*
X170402419Y-75674752D01*
X170450038Y-75722371D01*
X170497657Y-75817609D01*
X170497657Y-76055704D01*
X170450038Y-76150942D01*
X170402419Y-76198561D01*
X170307180Y-76246180D01*
X170021466Y-76246180D01*
X169926228Y-76198561D01*
X169878609Y-76150942D01*
X117796076Y-97852180D02*
X117796076Y-98566466D01*
X117748457Y-98709323D01*
X117653219Y-98804561D01*
X117510361Y-98852180D01*
X117415123Y-98852180D01*
X118796076Y-98852180D02*
X118224647Y-98852180D01*
X118510361Y-98852180D02*
X118510361Y-97852180D01*
X118415123Y-97995038D01*
X118319885Y-98090276D01*
X118224647Y-98137895D01*
X119653219Y-98185514D02*
X119653219Y-98852180D01*
X119415123Y-97804561D02*
X119177028Y-98518847D01*
X119796076Y-98518847D01*
X130489666Y-124015380D02*
X130489666Y-124729666D01*
X130442047Y-124872523D01*
X130346809Y-124967761D01*
X130203952Y-125015380D01*
X130108714Y-125015380D01*
X131489666Y-125015380D02*
X130918238Y-125015380D01*
X131203952Y-125015380D02*
X131203952Y-124015380D01*
X131108714Y-124158238D01*
X131013476Y-124253476D01*
X130918238Y-124301095D01*
M02*
