G04 #@! TF.GenerationSoftware,KiCad,Pcbnew,5.1.9+dfsg1-1~bpo10+1*
G04 #@! TF.CreationDate,2021-09-15T19:30:04-04:00*
G04 #@! TF.ProjectId,wifi_shield,77696669-5f73-4686-9965-6c642e6b6963,rev?*
G04 #@! TF.SameCoordinates,Original*
G04 #@! TF.FileFunction,Legend,Bot*
G04 #@! TF.FilePolarity,Positive*
%FSLAX46Y46*%
G04 Gerber Fmt 4.6, Leading zero omitted, Abs format (unit mm)*
G04 Created by KiCad (PCBNEW 5.1.9+dfsg1-1~bpo10+1) date 2021-09-15 19:30:04*
%MOMM*%
%LPD*%
G01*
G04 APERTURE LIST*
%ADD10C,0.150000*%
%ADD11C,0.120000*%
G04 APERTURE END LIST*
D10*
X154516228Y-105983257D02*
X154430514Y-106011828D01*
X154287657Y-106011828D01*
X154230514Y-105983257D01*
X154201942Y-105954685D01*
X154173371Y-105897542D01*
X154173371Y-105840400D01*
X154201942Y-105783257D01*
X154230514Y-105754685D01*
X154287657Y-105726114D01*
X154401942Y-105697542D01*
X154459085Y-105668971D01*
X154487657Y-105640400D01*
X154516228Y-105583257D01*
X154516228Y-105526114D01*
X154487657Y-105468971D01*
X154459085Y-105440400D01*
X154401942Y-105411828D01*
X154259085Y-105411828D01*
X154173371Y-105440400D01*
X153916228Y-105697542D02*
X153716228Y-105697542D01*
X153630514Y-106011828D02*
X153916228Y-106011828D01*
X153916228Y-105411828D01*
X153630514Y-105411828D01*
X153030514Y-106011828D02*
X153230514Y-105726114D01*
X153373371Y-106011828D02*
X153373371Y-105411828D01*
X153144800Y-105411828D01*
X153087657Y-105440400D01*
X153059085Y-105468971D01*
X153030514Y-105526114D01*
X153030514Y-105611828D01*
X153059085Y-105668971D01*
X153087657Y-105697542D01*
X153144800Y-105726114D01*
X153373371Y-105726114D01*
X152773371Y-106011828D02*
X152773371Y-105411828D01*
X152516228Y-105840400D02*
X152230514Y-105840400D01*
X152573371Y-106011828D02*
X152373371Y-105411828D01*
X152173371Y-106011828D01*
X151687657Y-106011828D02*
X151973371Y-106011828D01*
X151973371Y-105411828D01*
X151173371Y-106011828D02*
X151516228Y-106011828D01*
X151344800Y-106011828D02*
X151344800Y-105411828D01*
X151401942Y-105497542D01*
X151459085Y-105554685D01*
X151516228Y-105583257D01*
X148394828Y-105957857D02*
X148309114Y-105986428D01*
X148166257Y-105986428D01*
X148109114Y-105957857D01*
X148080542Y-105929285D01*
X148051971Y-105872142D01*
X148051971Y-105815000D01*
X148080542Y-105757857D01*
X148109114Y-105729285D01*
X148166257Y-105700714D01*
X148280542Y-105672142D01*
X148337685Y-105643571D01*
X148366257Y-105615000D01*
X148394828Y-105557857D01*
X148394828Y-105500714D01*
X148366257Y-105443571D01*
X148337685Y-105415000D01*
X148280542Y-105386428D01*
X148137685Y-105386428D01*
X148051971Y-105415000D01*
X147794828Y-105672142D02*
X147594828Y-105672142D01*
X147509114Y-105986428D02*
X147794828Y-105986428D01*
X147794828Y-105386428D01*
X147509114Y-105386428D01*
X146909114Y-105986428D02*
X147109114Y-105700714D01*
X147251971Y-105986428D02*
X147251971Y-105386428D01*
X147023400Y-105386428D01*
X146966257Y-105415000D01*
X146937685Y-105443571D01*
X146909114Y-105500714D01*
X146909114Y-105586428D01*
X146937685Y-105643571D01*
X146966257Y-105672142D01*
X147023400Y-105700714D01*
X147251971Y-105700714D01*
X146651971Y-105986428D02*
X146651971Y-105386428D01*
X146394828Y-105815000D02*
X146109114Y-105815000D01*
X146451971Y-105986428D02*
X146251971Y-105386428D01*
X146051971Y-105986428D01*
X145566257Y-105986428D02*
X145851971Y-105986428D01*
X145851971Y-105386428D01*
X145051971Y-105986428D02*
X145394828Y-105986428D01*
X145223400Y-105986428D02*
X145223400Y-105386428D01*
X145280542Y-105472142D01*
X145337685Y-105529285D01*
X145394828Y-105557857D01*
X141511428Y-93283257D02*
X141425714Y-93311828D01*
X141282857Y-93311828D01*
X141225714Y-93283257D01*
X141197142Y-93254685D01*
X141168571Y-93197542D01*
X141168571Y-93140400D01*
X141197142Y-93083257D01*
X141225714Y-93054685D01*
X141282857Y-93026114D01*
X141397142Y-92997542D01*
X141454285Y-92968971D01*
X141482857Y-92940400D01*
X141511428Y-92883257D01*
X141511428Y-92826114D01*
X141482857Y-92768971D01*
X141454285Y-92740400D01*
X141397142Y-92711828D01*
X141254285Y-92711828D01*
X141168571Y-92740400D01*
X140911428Y-92997542D02*
X140711428Y-92997542D01*
X140625714Y-93311828D02*
X140911428Y-93311828D01*
X140911428Y-92711828D01*
X140625714Y-92711828D01*
X140025714Y-93311828D02*
X140225714Y-93026114D01*
X140368571Y-93311828D02*
X140368571Y-92711828D01*
X140140000Y-92711828D01*
X140082857Y-92740400D01*
X140054285Y-92768971D01*
X140025714Y-92826114D01*
X140025714Y-92911828D01*
X140054285Y-92968971D01*
X140082857Y-92997542D01*
X140140000Y-93026114D01*
X140368571Y-93026114D01*
X139768571Y-93311828D02*
X139768571Y-92711828D01*
X139511428Y-93140400D02*
X139225714Y-93140400D01*
X139568571Y-93311828D02*
X139368571Y-92711828D01*
X139168571Y-93311828D01*
X138682857Y-93311828D02*
X138968571Y-93311828D01*
X138968571Y-92711828D01*
X138511428Y-92768971D02*
X138482857Y-92740400D01*
X138425714Y-92711828D01*
X138282857Y-92711828D01*
X138225714Y-92740400D01*
X138197142Y-92768971D01*
X138168571Y-92826114D01*
X138168571Y-92883257D01*
X138197142Y-92968971D01*
X138540000Y-93311828D01*
X138168571Y-93311828D01*
X141790828Y-99303057D02*
X141705114Y-99331628D01*
X141562257Y-99331628D01*
X141505114Y-99303057D01*
X141476542Y-99274485D01*
X141447971Y-99217342D01*
X141447971Y-99160200D01*
X141476542Y-99103057D01*
X141505114Y-99074485D01*
X141562257Y-99045914D01*
X141676542Y-99017342D01*
X141733685Y-98988771D01*
X141762257Y-98960200D01*
X141790828Y-98903057D01*
X141790828Y-98845914D01*
X141762257Y-98788771D01*
X141733685Y-98760200D01*
X141676542Y-98731628D01*
X141533685Y-98731628D01*
X141447971Y-98760200D01*
X141190828Y-99017342D02*
X140990828Y-99017342D01*
X140905114Y-99331628D02*
X141190828Y-99331628D01*
X141190828Y-98731628D01*
X140905114Y-98731628D01*
X140305114Y-99331628D02*
X140505114Y-99045914D01*
X140647971Y-99331628D02*
X140647971Y-98731628D01*
X140419400Y-98731628D01*
X140362257Y-98760200D01*
X140333685Y-98788771D01*
X140305114Y-98845914D01*
X140305114Y-98931628D01*
X140333685Y-98988771D01*
X140362257Y-99017342D01*
X140419400Y-99045914D01*
X140647971Y-99045914D01*
X140047971Y-99331628D02*
X140047971Y-98731628D01*
X139790828Y-99160200D02*
X139505114Y-99160200D01*
X139847971Y-99331628D02*
X139647971Y-98731628D01*
X139447971Y-99331628D01*
X138962257Y-99331628D02*
X139247971Y-99331628D01*
X139247971Y-98731628D01*
X138790828Y-98788771D02*
X138762257Y-98760200D01*
X138705114Y-98731628D01*
X138562257Y-98731628D01*
X138505114Y-98760200D01*
X138476542Y-98788771D01*
X138447971Y-98845914D01*
X138447971Y-98903057D01*
X138476542Y-98988771D01*
X138819400Y-99331628D01*
X138447971Y-99331628D01*
X148909114Y-99382428D02*
X149109114Y-99096714D01*
X149251971Y-99382428D02*
X149251971Y-98782428D01*
X149023400Y-98782428D01*
X148966257Y-98811000D01*
X148937685Y-98839571D01*
X148909114Y-98896714D01*
X148909114Y-98982428D01*
X148937685Y-99039571D01*
X148966257Y-99068142D01*
X149023400Y-99096714D01*
X149251971Y-99096714D01*
X148651971Y-99068142D02*
X148451971Y-99068142D01*
X148366257Y-99382428D02*
X148651971Y-99382428D01*
X148651971Y-98782428D01*
X148366257Y-98782428D01*
X148137685Y-99353857D02*
X148051971Y-99382428D01*
X147909114Y-99382428D01*
X147851971Y-99353857D01*
X147823400Y-99325285D01*
X147794828Y-99268142D01*
X147794828Y-99211000D01*
X147823400Y-99153857D01*
X147851971Y-99125285D01*
X147909114Y-99096714D01*
X148023400Y-99068142D01*
X148080542Y-99039571D01*
X148109114Y-99011000D01*
X148137685Y-98953857D01*
X148137685Y-98896714D01*
X148109114Y-98839571D01*
X148080542Y-98811000D01*
X148023400Y-98782428D01*
X147880542Y-98782428D01*
X147794828Y-98811000D01*
X147537685Y-99068142D02*
X147337685Y-99068142D01*
X147251971Y-99382428D02*
X147537685Y-99382428D01*
X147537685Y-98782428D01*
X147251971Y-98782428D01*
X147080542Y-98782428D02*
X146737685Y-98782428D01*
X146909114Y-99382428D02*
X146909114Y-98782428D01*
X146537685Y-99153857D02*
X146080542Y-99153857D01*
X145851971Y-98782428D02*
X145480542Y-98782428D01*
X145680542Y-99011000D01*
X145594828Y-99011000D01*
X145537685Y-99039571D01*
X145509114Y-99068142D01*
X145480542Y-99125285D01*
X145480542Y-99268142D01*
X145509114Y-99325285D01*
X145537685Y-99353857D01*
X145594828Y-99382428D01*
X145766257Y-99382428D01*
X145823400Y-99353857D01*
X145851971Y-99325285D01*
X145223400Y-99325285D02*
X145194828Y-99353857D01*
X145223400Y-99382428D01*
X145251971Y-99353857D01*
X145223400Y-99325285D01*
X145223400Y-99382428D01*
X144994828Y-98782428D02*
X144623400Y-98782428D01*
X144823400Y-99011000D01*
X144737685Y-99011000D01*
X144680542Y-99039571D01*
X144651971Y-99068142D01*
X144623400Y-99125285D01*
X144623400Y-99268142D01*
X144651971Y-99325285D01*
X144680542Y-99353857D01*
X144737685Y-99382428D01*
X144909114Y-99382428D01*
X144966257Y-99353857D01*
X144994828Y-99325285D01*
X144423400Y-98982428D02*
X144280542Y-99382428D01*
X144137685Y-98982428D01*
X154965428Y-98684000D02*
X155022571Y-98655428D01*
X155108285Y-98655428D01*
X155194000Y-98684000D01*
X155251142Y-98741142D01*
X155279714Y-98798285D01*
X155308285Y-98912571D01*
X155308285Y-98998285D01*
X155279714Y-99112571D01*
X155251142Y-99169714D01*
X155194000Y-99226857D01*
X155108285Y-99255428D01*
X155051142Y-99255428D01*
X154965428Y-99226857D01*
X154936857Y-99198285D01*
X154936857Y-98998285D01*
X155051142Y-98998285D01*
X154679714Y-99255428D02*
X154679714Y-98655428D01*
X154451142Y-98655428D01*
X154394000Y-98684000D01*
X154365428Y-98712571D01*
X154336857Y-98769714D01*
X154336857Y-98855428D01*
X154365428Y-98912571D01*
X154394000Y-98941142D01*
X154451142Y-98969714D01*
X154679714Y-98969714D01*
X154079714Y-99255428D02*
X154079714Y-98655428D01*
X153679714Y-98655428D02*
X153565428Y-98655428D01*
X153508285Y-98684000D01*
X153451142Y-98741142D01*
X153422571Y-98855428D01*
X153422571Y-99055428D01*
X153451142Y-99169714D01*
X153508285Y-99226857D01*
X153565428Y-99255428D01*
X153679714Y-99255428D01*
X153736857Y-99226857D01*
X153794000Y-99169714D01*
X153822571Y-99055428D01*
X153822571Y-98855428D01*
X153794000Y-98741142D01*
X153736857Y-98684000D01*
X153679714Y-98655428D01*
X153051142Y-98655428D02*
X152994000Y-98655428D01*
X152936857Y-98684000D01*
X152908285Y-98712571D01*
X152879714Y-98769714D01*
X152851142Y-98884000D01*
X152851142Y-99026857D01*
X152879714Y-99141142D01*
X152908285Y-99198285D01*
X152936857Y-99226857D01*
X152994000Y-99255428D01*
X153051142Y-99255428D01*
X153108285Y-99226857D01*
X153136857Y-99198285D01*
X153165428Y-99141142D01*
X153194000Y-99026857D01*
X153194000Y-98884000D01*
X153165428Y-98769714D01*
X153136857Y-98712571D01*
X153108285Y-98684000D01*
X153051142Y-98655428D01*
X152594000Y-99026857D02*
X152136857Y-99026857D01*
X151536857Y-98684000D02*
X151594000Y-98655428D01*
X151679714Y-98655428D01*
X151765428Y-98684000D01*
X151822571Y-98741142D01*
X151851142Y-98798285D01*
X151879714Y-98912571D01*
X151879714Y-98998285D01*
X151851142Y-99112571D01*
X151822571Y-99169714D01*
X151765428Y-99226857D01*
X151679714Y-99255428D01*
X151622571Y-99255428D01*
X151536857Y-99226857D01*
X151508285Y-99198285D01*
X151508285Y-98998285D01*
X151622571Y-98998285D01*
X151251142Y-99255428D02*
X151251142Y-98655428D01*
X150908285Y-99255428D01*
X150908285Y-98655428D01*
X150622571Y-99255428D02*
X150622571Y-98655428D01*
X150479714Y-98655428D01*
X150394000Y-98684000D01*
X150336857Y-98741142D01*
X150308285Y-98798285D01*
X150279714Y-98912571D01*
X150279714Y-98998285D01*
X150308285Y-99112571D01*
X150336857Y-99169714D01*
X150394000Y-99226857D01*
X150479714Y-99255428D01*
X150622571Y-99255428D01*
X154400314Y-92711828D02*
X154200314Y-93311828D01*
X154000314Y-92711828D01*
X153457457Y-93254685D02*
X153486028Y-93283257D01*
X153571742Y-93311828D01*
X153628885Y-93311828D01*
X153714600Y-93283257D01*
X153771742Y-93226114D01*
X153800314Y-93168971D01*
X153828885Y-93054685D01*
X153828885Y-92968971D01*
X153800314Y-92854685D01*
X153771742Y-92797542D01*
X153714600Y-92740400D01*
X153628885Y-92711828D01*
X153571742Y-92711828D01*
X153486028Y-92740400D01*
X153457457Y-92768971D01*
X152857457Y-93254685D02*
X152886028Y-93283257D01*
X152971742Y-93311828D01*
X153028885Y-93311828D01*
X153114600Y-93283257D01*
X153171742Y-93226114D01*
X153200314Y-93168971D01*
X153228885Y-93054685D01*
X153228885Y-92968971D01*
X153200314Y-92854685D01*
X153171742Y-92797542D01*
X153114600Y-92740400D01*
X153028885Y-92711828D01*
X152971742Y-92711828D01*
X152886028Y-92740400D01*
X152857457Y-92768971D01*
X152743171Y-93368971D02*
X152286028Y-93368971D01*
X152143171Y-92997542D02*
X151943171Y-92997542D01*
X151857457Y-93311828D02*
X152143171Y-93311828D01*
X152143171Y-92711828D01*
X151857457Y-92711828D01*
X151628885Y-93283257D02*
X151543171Y-93311828D01*
X151400314Y-93311828D01*
X151343171Y-93283257D01*
X151314600Y-93254685D01*
X151286028Y-93197542D01*
X151286028Y-93140400D01*
X151314600Y-93083257D01*
X151343171Y-93054685D01*
X151400314Y-93026114D01*
X151514600Y-92997542D01*
X151571742Y-92968971D01*
X151600314Y-92940400D01*
X151628885Y-92883257D01*
X151628885Y-92826114D01*
X151600314Y-92768971D01*
X151571742Y-92740400D01*
X151514600Y-92711828D01*
X151371742Y-92711828D01*
X151286028Y-92740400D01*
X151028885Y-93311828D02*
X151028885Y-92711828D01*
X150800314Y-92711828D01*
X150743171Y-92740400D01*
X150714600Y-92768971D01*
X150686028Y-92826114D01*
X150686028Y-92911828D01*
X150714600Y-92968971D01*
X150743171Y-92997542D01*
X150800314Y-93026114D01*
X151028885Y-93026114D01*
X148291657Y-92689600D02*
X148348800Y-92661028D01*
X148434514Y-92661028D01*
X148520228Y-92689600D01*
X148577371Y-92746742D01*
X148605942Y-92803885D01*
X148634514Y-92918171D01*
X148634514Y-93003885D01*
X148605942Y-93118171D01*
X148577371Y-93175314D01*
X148520228Y-93232457D01*
X148434514Y-93261028D01*
X148377371Y-93261028D01*
X148291657Y-93232457D01*
X148263085Y-93203885D01*
X148263085Y-93003885D01*
X148377371Y-93003885D01*
X148005942Y-93261028D02*
X148005942Y-92661028D01*
X147663085Y-93261028D01*
X147663085Y-92661028D01*
X147377371Y-93261028D02*
X147377371Y-92661028D01*
X147234514Y-92661028D01*
X147148800Y-92689600D01*
X147091657Y-92746742D01*
X147063085Y-92803885D01*
X147034514Y-92918171D01*
X147034514Y-93003885D01*
X147063085Y-93118171D01*
X147091657Y-93175314D01*
X147148800Y-93232457D01*
X147234514Y-93261028D01*
X147377371Y-93261028D01*
X146920228Y-93318171D02*
X146463085Y-93318171D01*
X146320228Y-92946742D02*
X146120228Y-92946742D01*
X146034514Y-93261028D02*
X146320228Y-93261028D01*
X146320228Y-92661028D01*
X146034514Y-92661028D01*
X145805942Y-93232457D02*
X145720228Y-93261028D01*
X145577371Y-93261028D01*
X145520228Y-93232457D01*
X145491657Y-93203885D01*
X145463085Y-93146742D01*
X145463085Y-93089600D01*
X145491657Y-93032457D01*
X145520228Y-93003885D01*
X145577371Y-92975314D01*
X145691657Y-92946742D01*
X145748800Y-92918171D01*
X145777371Y-92889600D01*
X145805942Y-92832457D01*
X145805942Y-92775314D01*
X145777371Y-92718171D01*
X145748800Y-92689600D01*
X145691657Y-92661028D01*
X145548800Y-92661028D01*
X145463085Y-92689600D01*
X145205942Y-93261028D02*
X145205942Y-92661028D01*
X144977371Y-92661028D01*
X144920228Y-92689600D01*
X144891657Y-92718171D01*
X144863085Y-92775314D01*
X144863085Y-92861028D01*
X144891657Y-92918171D01*
X144920228Y-92946742D01*
X144977371Y-92975314D01*
X145205942Y-92975314D01*
D11*
X182870000Y-108620000D02*
X182870000Y-92380000D01*
X182870000Y-92380000D02*
X175250000Y-92380000D01*
X159250000Y-92380000D02*
X158630000Y-92380000D01*
X158630000Y-92380000D02*
X158630000Y-94500000D01*
X158630000Y-106500000D02*
X158630000Y-108620000D01*
X158630000Y-108620000D02*
X159250000Y-108620000D01*
X175250000Y-108620000D02*
X182870000Y-108620000D01*
X175250000Y-108620000D02*
X175250000Y-109230000D01*
X146110000Y-95920000D02*
X147510000Y-95920000D01*
X148210000Y-95220000D02*
X148210000Y-94620000D01*
X147510000Y-93920000D02*
X146110000Y-93920000D01*
X145410000Y-94620000D02*
X145410000Y-95220000D01*
X145410000Y-95220000D02*
G75*
G03*
X146110000Y-95920000I700000J0D01*
G01*
X146110000Y-93920000D02*
G75*
G03*
X145410000Y-94620000I0J-700000D01*
G01*
X148210000Y-94620000D02*
G75*
G03*
X147510000Y-93920000I-700000J0D01*
G01*
X147510000Y-95920000D02*
G75*
G03*
X148210000Y-95220000I0J700000D01*
G01*
X140340000Y-80880000D02*
X140340000Y-70880000D01*
X140340000Y-70880000D02*
X160340000Y-70880000D01*
X160340000Y-70880000D02*
X160340000Y-80880000D01*
X160340000Y-81200000D02*
X140340000Y-81200000D01*
X160340000Y-80880000D02*
X160340000Y-81200000D01*
X140340000Y-81200000D02*
X140340000Y-80880000D01*
X151282000Y-100716000D02*
X151282000Y-101316000D01*
X153382000Y-100016000D02*
X151982000Y-100016000D01*
X154082000Y-101316000D02*
X154082000Y-100716000D01*
X151982000Y-102016000D02*
X153382000Y-102016000D01*
X153382000Y-102016000D02*
G75*
G03*
X154082000Y-101316000I0J700000D01*
G01*
X154082000Y-100716000D02*
G75*
G03*
X153382000Y-100016000I-700000J0D01*
G01*
X151982000Y-100016000D02*
G75*
G03*
X151282000Y-100716000I0J-700000D01*
G01*
X151282000Y-101316000D02*
G75*
G03*
X151982000Y-102016000I700000J0D01*
G01*
X138694000Y-94620000D02*
X138694000Y-95220000D01*
X140794000Y-93920000D02*
X139394000Y-93920000D01*
X141494000Y-95220000D02*
X141494000Y-94620000D01*
X139394000Y-95920000D02*
X140794000Y-95920000D01*
X140794000Y-95920000D02*
G75*
G03*
X141494000Y-95220000I0J700000D01*
G01*
X141494000Y-94620000D02*
G75*
G03*
X140794000Y-93920000I-700000J0D01*
G01*
X139394000Y-93920000D02*
G75*
G03*
X138694000Y-94620000I0J-700000D01*
G01*
X138694000Y-95220000D02*
G75*
G03*
X139394000Y-95920000I700000J0D01*
G01*
X138806000Y-100462000D02*
X138806000Y-101062000D01*
X140906000Y-99762000D02*
X139506000Y-99762000D01*
X141606000Y-101062000D02*
X141606000Y-100462000D01*
X139506000Y-101762000D02*
X140906000Y-101762000D01*
X140906000Y-101762000D02*
G75*
G03*
X141606000Y-101062000I0J700000D01*
G01*
X141606000Y-100462000D02*
G75*
G03*
X140906000Y-99762000I-700000J0D01*
G01*
X139506000Y-99762000D02*
G75*
G03*
X138806000Y-100462000I0J-700000D01*
G01*
X138806000Y-101062000D02*
G75*
G03*
X139506000Y-101762000I700000J0D01*
G01*
X152094000Y-108620000D02*
X153494000Y-108620000D01*
X154194000Y-107920000D02*
X154194000Y-107320000D01*
X153494000Y-106620000D02*
X152094000Y-106620000D01*
X151394000Y-107320000D02*
X151394000Y-107920000D01*
X151394000Y-107920000D02*
G75*
G03*
X152094000Y-108620000I700000J0D01*
G01*
X152094000Y-106620000D02*
G75*
G03*
X151394000Y-107320000I0J-700000D01*
G01*
X154194000Y-107320000D02*
G75*
G03*
X153494000Y-106620000I-700000J0D01*
G01*
X153494000Y-108620000D02*
G75*
G03*
X154194000Y-107920000I0J700000D01*
G01*
X151140000Y-94620000D02*
X151140000Y-95220000D01*
X153240000Y-93920000D02*
X151840000Y-93920000D01*
X153940000Y-95220000D02*
X153940000Y-94620000D01*
X151840000Y-95920000D02*
X153240000Y-95920000D01*
X153240000Y-95920000D02*
G75*
G03*
X153940000Y-95220000I0J700000D01*
G01*
X153940000Y-94620000D02*
G75*
G03*
X153240000Y-93920000I-700000J0D01*
G01*
X151840000Y-93920000D02*
G75*
G03*
X151140000Y-94620000I0J-700000D01*
G01*
X151140000Y-95220000D02*
G75*
G03*
X151840000Y-95920000I700000J0D01*
G01*
X145998000Y-102016000D02*
X147398000Y-102016000D01*
X148098000Y-101316000D02*
X148098000Y-100716000D01*
X147398000Y-100016000D02*
X145998000Y-100016000D01*
X145298000Y-100716000D02*
X145298000Y-101316000D01*
X145298000Y-101316000D02*
G75*
G03*
X145998000Y-102016000I700000J0D01*
G01*
X145998000Y-100016000D02*
G75*
G03*
X145298000Y-100716000I0J-700000D01*
G01*
X148098000Y-100716000D02*
G75*
G03*
X147398000Y-100016000I-700000J0D01*
G01*
X147398000Y-102016000D02*
G75*
G03*
X148098000Y-101316000I0J700000D01*
G01*
X145998000Y-108620000D02*
X147398000Y-108620000D01*
X148098000Y-107920000D02*
X148098000Y-107320000D01*
X147398000Y-106620000D02*
X145998000Y-106620000D01*
X145298000Y-107320000D02*
X145298000Y-107920000D01*
X145298000Y-107920000D02*
G75*
G03*
X145998000Y-108620000I700000J0D01*
G01*
X145998000Y-106620000D02*
G75*
G03*
X145298000Y-107320000I0J-700000D01*
G01*
X148098000Y-107320000D02*
G75*
G03*
X147398000Y-106620000I-700000J0D01*
G01*
X147398000Y-108620000D02*
G75*
G03*
X148098000Y-107920000I0J700000D01*
G01*
D10*
X168828733Y-89774980D02*
X168828733Y-90584504D01*
X168781114Y-90679742D01*
X168733495Y-90727361D01*
X168638257Y-90774980D01*
X168447780Y-90774980D01*
X168352542Y-90727361D01*
X168304923Y-90679742D01*
X168257304Y-90584504D01*
X168257304Y-89774980D01*
X167257304Y-90774980D02*
X167828733Y-90774980D01*
X167543019Y-90774980D02*
X167543019Y-89774980D01*
X167638257Y-89917838D01*
X167733495Y-90013076D01*
X167828733Y-90060695D01*
X166828733Y-90679742D02*
X166781114Y-90727361D01*
X166828733Y-90774980D01*
X166876352Y-90727361D01*
X166828733Y-90679742D01*
X166828733Y-90774980D01*
X166828733Y-90155933D02*
X166781114Y-90203552D01*
X166828733Y-90251171D01*
X166876352Y-90203552D01*
X166828733Y-90155933D01*
X166828733Y-90251171D01*
X165590638Y-90251171D02*
X165257304Y-90251171D01*
X165114447Y-90774980D02*
X165590638Y-90774980D01*
X165590638Y-89774980D01*
X165114447Y-89774980D01*
X164733495Y-90727361D02*
X164590638Y-90774980D01*
X164352542Y-90774980D01*
X164257304Y-90727361D01*
X164209685Y-90679742D01*
X164162066Y-90584504D01*
X164162066Y-90489266D01*
X164209685Y-90394028D01*
X164257304Y-90346409D01*
X164352542Y-90298790D01*
X164543019Y-90251171D01*
X164638257Y-90203552D01*
X164685876Y-90155933D01*
X164733495Y-90060695D01*
X164733495Y-89965457D01*
X164685876Y-89870219D01*
X164638257Y-89822600D01*
X164543019Y-89774980D01*
X164304923Y-89774980D01*
X164162066Y-89822600D01*
X163733495Y-90774980D02*
X163733495Y-89774980D01*
X163352542Y-89774980D01*
X163257304Y-89822600D01*
X163209685Y-89870219D01*
X163162066Y-89965457D01*
X163162066Y-90108314D01*
X163209685Y-90203552D01*
X163257304Y-90251171D01*
X163352542Y-90298790D01*
X163733495Y-90298790D01*
X162209685Y-90774980D02*
X162781114Y-90774980D01*
X162495400Y-90774980D02*
X162495400Y-89774980D01*
X162590638Y-89917838D01*
X162685876Y-90013076D01*
X162781114Y-90060695D01*
X161828733Y-89870219D02*
X161781114Y-89822600D01*
X161685876Y-89774980D01*
X161447780Y-89774980D01*
X161352542Y-89822600D01*
X161304923Y-89870219D01*
X161257304Y-89965457D01*
X161257304Y-90060695D01*
X161304923Y-90203552D01*
X161876352Y-90774980D01*
X161257304Y-90774980D01*
X160828733Y-90394028D02*
X160066828Y-90394028D01*
X159590638Y-90251171D02*
X159257304Y-90251171D01*
X159114447Y-90774980D02*
X159590638Y-90774980D01*
X159590638Y-89774980D01*
X159114447Y-89774980D01*
X147743333Y-96404380D02*
X147743333Y-97118666D01*
X147790952Y-97261523D01*
X147886190Y-97356761D01*
X148029047Y-97404380D01*
X148124285Y-97404380D01*
X147267142Y-97404380D02*
X147267142Y-96404380D01*
X146886190Y-96404380D01*
X146790952Y-96452000D01*
X146743333Y-96499619D01*
X146695714Y-96594857D01*
X146695714Y-96737714D01*
X146743333Y-96832952D01*
X146790952Y-96880571D01*
X146886190Y-96928190D01*
X147267142Y-96928190D01*
X146314761Y-96499619D02*
X146267142Y-96452000D01*
X146171904Y-96404380D01*
X145933809Y-96404380D01*
X145838571Y-96452000D01*
X145790952Y-96499619D01*
X145743333Y-96594857D01*
X145743333Y-96690095D01*
X145790952Y-96832952D01*
X146362380Y-97404380D01*
X145743333Y-97404380D01*
X154079333Y-81672380D02*
X154079333Y-82481904D01*
X154031714Y-82577142D01*
X153984095Y-82624761D01*
X153888857Y-82672380D01*
X153698380Y-82672380D01*
X153603142Y-82624761D01*
X153555523Y-82577142D01*
X153507904Y-82481904D01*
X153507904Y-81672380D01*
X153079333Y-81767619D02*
X153031714Y-81720000D01*
X152936476Y-81672380D01*
X152698380Y-81672380D01*
X152603142Y-81720000D01*
X152555523Y-81767619D01*
X152507904Y-81862857D01*
X152507904Y-81958095D01*
X152555523Y-82100952D01*
X153126952Y-82672380D01*
X152507904Y-82672380D01*
X152079333Y-82577142D02*
X152031714Y-82624761D01*
X152079333Y-82672380D01*
X152126952Y-82624761D01*
X152079333Y-82577142D01*
X152079333Y-82672380D01*
X152079333Y-82053333D02*
X152031714Y-82100952D01*
X152079333Y-82148571D01*
X152126952Y-82100952D01*
X152079333Y-82053333D01*
X152079333Y-82148571D01*
X150507904Y-82148571D02*
X150365047Y-82196190D01*
X150317428Y-82243809D01*
X150269809Y-82339047D01*
X150269809Y-82481904D01*
X150317428Y-82577142D01*
X150365047Y-82624761D01*
X150460285Y-82672380D01*
X150841238Y-82672380D01*
X150841238Y-81672380D01*
X150507904Y-81672380D01*
X150412666Y-81720000D01*
X150365047Y-81767619D01*
X150317428Y-81862857D01*
X150317428Y-81958095D01*
X150365047Y-82053333D01*
X150412666Y-82100952D01*
X150507904Y-82148571D01*
X150841238Y-82148571D01*
X149841238Y-82672380D02*
X149841238Y-81672380D01*
X149507904Y-82386666D01*
X149174571Y-81672380D01*
X149174571Y-82672380D01*
X148698380Y-82148571D02*
X148365047Y-82148571D01*
X148222190Y-82672380D02*
X148698380Y-82672380D01*
X148698380Y-81672380D01*
X148222190Y-81672380D01*
X147365047Y-81672380D02*
X147555523Y-81672380D01*
X147650761Y-81720000D01*
X147698380Y-81767619D01*
X147793619Y-81910476D01*
X147841238Y-82100952D01*
X147841238Y-82481904D01*
X147793619Y-82577142D01*
X147746000Y-82624761D01*
X147650761Y-82672380D01*
X147460285Y-82672380D01*
X147365047Y-82624761D01*
X147317428Y-82577142D01*
X147269809Y-82481904D01*
X147269809Y-82243809D01*
X147317428Y-82148571D01*
X147365047Y-82100952D01*
X147460285Y-82053333D01*
X147650761Y-82053333D01*
X147746000Y-82100952D01*
X147793619Y-82148571D01*
X147841238Y-82243809D01*
X146698380Y-82100952D02*
X146793619Y-82053333D01*
X146841238Y-82005714D01*
X146888857Y-81910476D01*
X146888857Y-81862857D01*
X146841238Y-81767619D01*
X146793619Y-81720000D01*
X146698380Y-81672380D01*
X146507904Y-81672380D01*
X146412666Y-81720000D01*
X146365047Y-81767619D01*
X146317428Y-81862857D01*
X146317428Y-81910476D01*
X146365047Y-82005714D01*
X146412666Y-82053333D01*
X146507904Y-82100952D01*
X146698380Y-82100952D01*
X146793619Y-82148571D01*
X146841238Y-82196190D01*
X146888857Y-82291428D01*
X146888857Y-82481904D01*
X146841238Y-82577142D01*
X146793619Y-82624761D01*
X146698380Y-82672380D01*
X146507904Y-82672380D01*
X146412666Y-82624761D01*
X146365047Y-82577142D01*
X146317428Y-82481904D01*
X146317428Y-82291428D01*
X146365047Y-82196190D01*
X146412666Y-82148571D01*
X146507904Y-82100952D01*
X145698380Y-81672380D02*
X145603142Y-81672380D01*
X145507904Y-81720000D01*
X145460285Y-81767619D01*
X145412666Y-81862857D01*
X145365047Y-82053333D01*
X145365047Y-82291428D01*
X145412666Y-82481904D01*
X145460285Y-82577142D01*
X145507904Y-82624761D01*
X145603142Y-82672380D01*
X145698380Y-82672380D01*
X145793619Y-82624761D01*
X145841238Y-82577142D01*
X145888857Y-82481904D01*
X145936476Y-82291428D01*
X145936476Y-82053333D01*
X145888857Y-81862857D01*
X145841238Y-81767619D01*
X145793619Y-81720000D01*
X145698380Y-81672380D01*
X153515333Y-102500380D02*
X153515333Y-103214666D01*
X153562952Y-103357523D01*
X153658190Y-103452761D01*
X153801047Y-103500380D01*
X153896285Y-103500380D01*
X153039142Y-103500380D02*
X153039142Y-102500380D01*
X152658190Y-102500380D01*
X152562952Y-102548000D01*
X152515333Y-102595619D01*
X152467714Y-102690857D01*
X152467714Y-102833714D01*
X152515333Y-102928952D01*
X152562952Y-102976571D01*
X152658190Y-103024190D01*
X153039142Y-103024190D01*
X151515333Y-103500380D02*
X152086761Y-103500380D01*
X151801047Y-103500380D02*
X151801047Y-102500380D01*
X151896285Y-102643238D01*
X151991523Y-102738476D01*
X152086761Y-102786095D01*
X140927333Y-96172380D02*
X140927333Y-96886666D01*
X140974952Y-97029523D01*
X141070190Y-97124761D01*
X141213047Y-97172380D01*
X141308285Y-97172380D01*
X140451142Y-97172380D02*
X140451142Y-96172380D01*
X140070190Y-96172380D01*
X139974952Y-96220000D01*
X139927333Y-96267619D01*
X139879714Y-96362857D01*
X139879714Y-96505714D01*
X139927333Y-96600952D01*
X139974952Y-96648571D01*
X140070190Y-96696190D01*
X140451142Y-96696190D01*
X139308285Y-96600952D02*
X139403523Y-96553333D01*
X139451142Y-96505714D01*
X139498761Y-96410476D01*
X139498761Y-96362857D01*
X139451142Y-96267619D01*
X139403523Y-96220000D01*
X139308285Y-96172380D01*
X139117809Y-96172380D01*
X139022571Y-96220000D01*
X138974952Y-96267619D01*
X138927333Y-96362857D01*
X138927333Y-96410476D01*
X138974952Y-96505714D01*
X139022571Y-96553333D01*
X139117809Y-96600952D01*
X139308285Y-96600952D01*
X139403523Y-96648571D01*
X139451142Y-96696190D01*
X139498761Y-96791428D01*
X139498761Y-96981904D01*
X139451142Y-97077142D01*
X139403523Y-97124761D01*
X139308285Y-97172380D01*
X139117809Y-97172380D01*
X139022571Y-97124761D01*
X138974952Y-97077142D01*
X138927333Y-96981904D01*
X138927333Y-96791428D01*
X138974952Y-96696190D01*
X139022571Y-96648571D01*
X139117809Y-96600952D01*
X141039333Y-102014380D02*
X141039333Y-102728666D01*
X141086952Y-102871523D01*
X141182190Y-102966761D01*
X141325047Y-103014380D01*
X141420285Y-103014380D01*
X140563142Y-103014380D02*
X140563142Y-102014380D01*
X140182190Y-102014380D01*
X140086952Y-102062000D01*
X140039333Y-102109619D01*
X139991714Y-102204857D01*
X139991714Y-102347714D01*
X140039333Y-102442952D01*
X140086952Y-102490571D01*
X140182190Y-102538190D01*
X140563142Y-102538190D01*
X139658380Y-102014380D02*
X138991714Y-102014380D01*
X139420285Y-103014380D01*
X153627333Y-108872380D02*
X153627333Y-109586666D01*
X153674952Y-109729523D01*
X153770190Y-109824761D01*
X153913047Y-109872380D01*
X154008285Y-109872380D01*
X153151142Y-109872380D02*
X153151142Y-108872380D01*
X152770190Y-108872380D01*
X152674952Y-108920000D01*
X152627333Y-108967619D01*
X152579714Y-109062857D01*
X152579714Y-109205714D01*
X152627333Y-109300952D01*
X152674952Y-109348571D01*
X152770190Y-109396190D01*
X153151142Y-109396190D01*
X151722571Y-108872380D02*
X151913047Y-108872380D01*
X152008285Y-108920000D01*
X152055904Y-108967619D01*
X152151142Y-109110476D01*
X152198761Y-109300952D01*
X152198761Y-109681904D01*
X152151142Y-109777142D01*
X152103523Y-109824761D01*
X152008285Y-109872380D01*
X151817809Y-109872380D01*
X151722571Y-109824761D01*
X151674952Y-109777142D01*
X151627333Y-109681904D01*
X151627333Y-109443809D01*
X151674952Y-109348571D01*
X151722571Y-109300952D01*
X151817809Y-109253333D01*
X152008285Y-109253333D01*
X152103523Y-109300952D01*
X152151142Y-109348571D01*
X152198761Y-109443809D01*
X153373333Y-96404380D02*
X153373333Y-97118666D01*
X153420952Y-97261523D01*
X153516190Y-97356761D01*
X153659047Y-97404380D01*
X153754285Y-97404380D01*
X152897142Y-97404380D02*
X152897142Y-96404380D01*
X152516190Y-96404380D01*
X152420952Y-96452000D01*
X152373333Y-96499619D01*
X152325714Y-96594857D01*
X152325714Y-96737714D01*
X152373333Y-96832952D01*
X152420952Y-96880571D01*
X152516190Y-96928190D01*
X152897142Y-96928190D01*
X151992380Y-96404380D02*
X151373333Y-96404380D01*
X151706666Y-96785333D01*
X151563809Y-96785333D01*
X151468571Y-96832952D01*
X151420952Y-96880571D01*
X151373333Y-96975809D01*
X151373333Y-97213904D01*
X151420952Y-97309142D01*
X151468571Y-97356761D01*
X151563809Y-97404380D01*
X151849523Y-97404380D01*
X151944761Y-97356761D01*
X151992380Y-97309142D01*
X147673333Y-102500380D02*
X147673333Y-103214666D01*
X147720952Y-103357523D01*
X147816190Y-103452761D01*
X147959047Y-103500380D01*
X148054285Y-103500380D01*
X147197142Y-103500380D02*
X147197142Y-102500380D01*
X146816190Y-102500380D01*
X146720952Y-102548000D01*
X146673333Y-102595619D01*
X146625714Y-102690857D01*
X146625714Y-102833714D01*
X146673333Y-102928952D01*
X146720952Y-102976571D01*
X146816190Y-103024190D01*
X147197142Y-103024190D01*
X145768571Y-102833714D02*
X145768571Y-103500380D01*
X146006666Y-102452761D02*
X146244761Y-103167047D01*
X145625714Y-103167047D01*
X147531333Y-108872380D02*
X147531333Y-109586666D01*
X147578952Y-109729523D01*
X147674190Y-109824761D01*
X147817047Y-109872380D01*
X147912285Y-109872380D01*
X147055142Y-109872380D02*
X147055142Y-108872380D01*
X146674190Y-108872380D01*
X146578952Y-108920000D01*
X146531333Y-108967619D01*
X146483714Y-109062857D01*
X146483714Y-109205714D01*
X146531333Y-109300952D01*
X146578952Y-109348571D01*
X146674190Y-109396190D01*
X147055142Y-109396190D01*
X145578952Y-108872380D02*
X146055142Y-108872380D01*
X146102761Y-109348571D01*
X146055142Y-109300952D01*
X145959904Y-109253333D01*
X145721809Y-109253333D01*
X145626571Y-109300952D01*
X145578952Y-109348571D01*
X145531333Y-109443809D01*
X145531333Y-109681904D01*
X145578952Y-109777142D01*
X145626571Y-109824761D01*
X145721809Y-109872380D01*
X145959904Y-109872380D01*
X146055142Y-109824761D01*
X146102761Y-109777142D01*
M02*
