M48
; DRILL file {KiCad 7.0.0} date Sun 12 Mar 2023 05:34:11 PM EDT
; FORMAT={-:-/ absolute / inch / decimal}
; #@! TF.CreationDate,2023-03-12T17:34:11-04:00
; #@! TF.GenerationSoftware,Kicad,Pcbnew,7.0.0
; #@! TF.FileFunction,Plated,1,2,PTH
FMAT,2
INCH
; #@! TA.AperFunction,Plated,PTH,ViaDrill
T1C0.0118
; #@! TA.AperFunction,Plated,PTH,ViaDrill
T2C0.0157
; #@! TA.AperFunction,Plated,PTH,ComponentDrill
T3C0.0256
; #@! TA.AperFunction,Plated,PTH,ComponentDrill
T4C0.0394
%
G90
G05
T1
X4.8555Y-4.487
T2
X5.4955Y-3.887
X5.5055Y-3.478
X5.5155Y-4.087
X5.5155Y-4.157
X5.5155Y-4.227
X5.5485Y-4.599
X5.5955Y-4.689
X5.6055Y-3.477
X5.6545Y-3.909
X5.6545Y-4.025
X5.6545Y-4.157
X5.6693Y-2.8465
X5.6693Y-2.9449
X5.7015Y-4.405
X5.8855Y-3.737
X5.8875Y-3.857
X5.8875Y-3.977
X5.8875Y-4.114
X5.9606Y-2.8898
X6.0475Y-4.599
X6.097Y-3.8255
X6.1355Y-4.237
X6.1355Y-4.317
X6.1355Y-4.387
X6.3555Y-3.767
X6.4655Y-3.767
X6.4655Y-3.977
X6.6225Y-3.854
X6.7355Y-3.867
X6.7755Y-3.767
T3
X5.1255Y-4.6428
X5.1255Y-4.6928
X5.1255Y-4.7428
X5.1255Y-4.7928
X5.1255Y-4.8428
X5.1755Y-4.6428
X5.1755Y-4.6928
X5.1755Y-4.7428
X5.1755Y-4.7928
X5.1755Y-4.8428
T4
X4.6685Y-3.979
X4.8445Y-3.4728
X4.8445Y-3.5728
X4.8445Y-3.6728
X4.8445Y-3.7728
X4.8445Y-3.8728
X4.8445Y-3.9728
X5.0118Y-3.0197
X5.013Y-3.1693
X5.113Y-3.1693
X5.1955Y-3.3252
X5.1955Y-4.526
X5.213Y-3.1693
X5.2955Y-3.3252
X5.2955Y-4.526
X5.313Y-3.1693
X5.3955Y-3.3252
X5.3955Y-4.526
X5.4955Y-3.3252
X5.4955Y-4.526
X5.5955Y-3.3252
X5.5955Y-4.526
X5.6955Y-3.3252
X5.6955Y-4.526
X5.7579Y-2.6969
X5.7955Y-3.3252
X5.7955Y-4.526
X5.8579Y-2.6969
X5.8955Y-3.3252
X5.8955Y-4.526
X5.8955Y-5.187
X5.9579Y-2.6969
X5.9955Y-3.3252
X5.9955Y-4.526
X6.0579Y-2.6969
X6.0955Y-3.3252
X6.0955Y-4.526
X6.1955Y-3.3252
X6.1955Y-4.526
X6.2955Y-3.3252
X6.2955Y-4.526
X6.3955Y-3.3252
X6.3955Y-4.526
X6.4955Y-3.3252
X6.4955Y-4.526
X6.4961Y-3.1772
X6.5961Y-3.1772
X6.6961Y-3.1772
X6.7961Y-3.1772
X6.7992Y-3.0276
X6.9488Y-3.3268
X6.9488Y-4.5276
T0
M30
