M48
; DRILL file {KiCad 5.1.9+dfsg1-1~bpo10+1} date Wed Sep 15 19:30:02 2021
; FORMAT={3:3/ absolute / metric / suppress leading zeros}
; #@! TF.CreationDate,2021-09-15T19:30:02-04:00
; #@! TF.GenerationSoftware,Kicad,Pcbnew,5.1.9+dfsg1-1~bpo10+1
FMAT,2
METRIC,TZ
T1C0.400
T2C0.650
T3C1.000
%
G90
G05
T1
X129275Y-104900
X139332Y-88316
X139586Y-98730
X140094Y-103810
X140094Y-105588
X140094Y-107366
X142126Y-105588
X142126Y-119558
X142380Y-88316
X143650Y-101778
X143650Y-99238
X144000Y-72300
X144000Y-74800
X145936Y-109652
X146300Y-81900
X149492Y-97968
X149492Y-94920
X149492Y-101016
X151400Y-73400
X152286Y-104572
X154863Y-97497
X155842Y-107620
X156096Y-109652
X156096Y-111430
X161430Y-95682
X164224Y-95682
X164224Y-101016
X168542Y-98222
X171082Y-98222
X172098Y-95682
T2
X130188Y-118288
X130188Y-119558
X130188Y-120828
X130188Y-122098
X130188Y-123368
X131458Y-118288
X131458Y-119558
X131458Y-120828
X131458Y-122098
X131458Y-123368
T3
X119500Y-100000
X127300Y-76700
X127330Y-80500
X127350Y-84410
X127350Y-86950
X127350Y-89490
X127350Y-92030
X127350Y-94570
X127350Y-97110
X129870Y-80500
X131966Y-84460
X131966Y-114961
X132410Y-80500
X134506Y-84460
X134506Y-114961
X134950Y-80500
X137046Y-84460
X137046Y-114961
X139586Y-84460
X139586Y-114961
X142126Y-84460
X142126Y-114961
X144666Y-84460
X144666Y-114961
X146250Y-69000
X147206Y-84460
X147206Y-114961
X148790Y-69000
X149746Y-84460
X149746Y-114961
X149746Y-131750
X151330Y-69000
X152286Y-84460
X152286Y-114961
X153870Y-69000
X154826Y-84460
X154826Y-114961
X157366Y-84460
X157366Y-114961
X159906Y-84460
X159906Y-114961
X162446Y-84460
X162446Y-114961
X164986Y-84460
X164986Y-114961
X165000Y-80700
X167540Y-80700
X170080Y-80700
X172620Y-80700
X172700Y-76900
X176500Y-84500
X176500Y-115000
T0
M30
