G04 #@! TF.GenerationSoftware,KiCad,Pcbnew,5.1.9+dfsg1-1~bpo10+1*
G04 #@! TF.CreationDate,2021-09-15T19:30:04-04:00*
G04 #@! TF.ProjectId,wifi_shield,77696669-5f73-4686-9965-6c642e6b6963,rev?*
G04 #@! TF.SameCoordinates,Original*
G04 #@! TF.FileFunction,Copper,L2,Bot*
G04 #@! TF.FilePolarity,Positive*
%FSLAX46Y46*%
G04 Gerber Fmt 4.6, Leading zero omitted, Abs format (unit mm)*
G04 Created by KiCad (PCBNEW 5.1.9+dfsg1-1~bpo10+1) date 2021-09-15 19:30:04*
%MOMM*%
%LPD*%
G01*
G04 APERTURE LIST*
G04 #@! TA.AperFunction,SMDPad,CuDef*
%ADD10R,1.000000X2.500000*%
G04 #@! TD*
G04 #@! TA.AperFunction,SMDPad,CuDef*
%ADD11R,1.800000X1.000000*%
G04 #@! TD*
G04 #@! TA.AperFunction,SMDPad,CuDef*
%ADD12C,0.100000*%
G04 #@! TD*
G04 #@! TA.AperFunction,SMDPad,CuDef*
%ADD13R,4.200000X1.000000*%
G04 #@! TD*
G04 #@! TA.AperFunction,ComponentPad*
%ADD14R,1.700000X1.700000*%
G04 #@! TD*
G04 #@! TA.AperFunction,ComponentPad*
%ADD15O,1.700000X1.700000*%
G04 #@! TD*
G04 #@! TA.AperFunction,ComponentPad*
%ADD16R,1.000000X1.000000*%
G04 #@! TD*
G04 #@! TA.AperFunction,ComponentPad*
%ADD17O,1.000000X1.000000*%
G04 #@! TD*
G04 #@! TA.AperFunction,ViaPad*
%ADD18C,0.800000*%
G04 #@! TD*
G04 #@! TA.AperFunction,Conductor*
%ADD19C,0.250000*%
G04 #@! TD*
G04 APERTURE END LIST*
D10*
X174250000Y-108100000D03*
X172250000Y-108100000D03*
X170250000Y-108100000D03*
X168250000Y-108100000D03*
X166250000Y-108100000D03*
X164250000Y-108100000D03*
X162250000Y-108100000D03*
X160250000Y-108100000D03*
D11*
X158750000Y-105500000D03*
X158750000Y-103500000D03*
X158750000Y-101500000D03*
X158750000Y-99500000D03*
X158750000Y-97500000D03*
X158750000Y-95500000D03*
D10*
X160250000Y-92900000D03*
X162250000Y-92900000D03*
X164250000Y-92900000D03*
X166250000Y-92900000D03*
X168250000Y-92900000D03*
X170250000Y-92900000D03*
X172250000Y-92900000D03*
X174250000Y-92900000D03*
G04 #@! TA.AperFunction,SMDPad,CuDef*
D12*
G36*
X147460000Y-94170602D02*
G01*
X147484534Y-94170602D01*
X147533365Y-94175412D01*
X147581490Y-94184984D01*
X147628445Y-94199228D01*
X147673778Y-94218005D01*
X147717051Y-94241136D01*
X147757850Y-94268396D01*
X147795779Y-94299524D01*
X147830476Y-94334221D01*
X147861604Y-94372150D01*
X147888864Y-94412949D01*
X147911995Y-94456222D01*
X147930772Y-94501555D01*
X147945016Y-94548510D01*
X147954588Y-94596635D01*
X147959398Y-94645466D01*
X147959398Y-94670000D01*
X147960000Y-94670000D01*
X147960000Y-95170000D01*
X147959398Y-95170000D01*
X147959398Y-95194534D01*
X147954588Y-95243365D01*
X147945016Y-95291490D01*
X147930772Y-95338445D01*
X147911995Y-95383778D01*
X147888864Y-95427051D01*
X147861604Y-95467850D01*
X147830476Y-95505779D01*
X147795779Y-95540476D01*
X147757850Y-95571604D01*
X147717051Y-95598864D01*
X147673778Y-95621995D01*
X147628445Y-95640772D01*
X147581490Y-95655016D01*
X147533365Y-95664588D01*
X147484534Y-95669398D01*
X147460000Y-95669398D01*
X147460000Y-95670000D01*
X146960000Y-95670000D01*
X146960000Y-94170000D01*
X147460000Y-94170000D01*
X147460000Y-94170602D01*
G37*
G04 #@! TD.AperFunction*
G04 #@! TA.AperFunction,SMDPad,CuDef*
G36*
X146660000Y-95670000D02*
G01*
X146160000Y-95670000D01*
X146160000Y-95669398D01*
X146135466Y-95669398D01*
X146086635Y-95664588D01*
X146038510Y-95655016D01*
X145991555Y-95640772D01*
X145946222Y-95621995D01*
X145902949Y-95598864D01*
X145862150Y-95571604D01*
X145824221Y-95540476D01*
X145789524Y-95505779D01*
X145758396Y-95467850D01*
X145731136Y-95427051D01*
X145708005Y-95383778D01*
X145689228Y-95338445D01*
X145674984Y-95291490D01*
X145665412Y-95243365D01*
X145660602Y-95194534D01*
X145660602Y-95170000D01*
X145660000Y-95170000D01*
X145660000Y-94670000D01*
X145660602Y-94670000D01*
X145660602Y-94645466D01*
X145665412Y-94596635D01*
X145674984Y-94548510D01*
X145689228Y-94501555D01*
X145708005Y-94456222D01*
X145731136Y-94412949D01*
X145758396Y-94372150D01*
X145789524Y-94334221D01*
X145824221Y-94299524D01*
X145862150Y-94268396D01*
X145902949Y-94241136D01*
X145946222Y-94218005D01*
X145991555Y-94199228D01*
X146038510Y-94184984D01*
X146086635Y-94175412D01*
X146135466Y-94170602D01*
X146160000Y-94170602D01*
X146160000Y-94170000D01*
X146660000Y-94170000D01*
X146660000Y-95670000D01*
G37*
G04 #@! TD.AperFunction*
D13*
X139840000Y-79880000D03*
X139840000Y-77340000D03*
X139840000Y-74800000D03*
X139840000Y-72260000D03*
X160160000Y-79880000D03*
X160160000Y-77340000D03*
X160160000Y-74800000D03*
X160160000Y-72260000D03*
G04 #@! TA.AperFunction,SMDPad,CuDef*
D12*
G36*
X152532000Y-101766000D02*
G01*
X152032000Y-101766000D01*
X152032000Y-101765398D01*
X152007466Y-101765398D01*
X151958635Y-101760588D01*
X151910510Y-101751016D01*
X151863555Y-101736772D01*
X151818222Y-101717995D01*
X151774949Y-101694864D01*
X151734150Y-101667604D01*
X151696221Y-101636476D01*
X151661524Y-101601779D01*
X151630396Y-101563850D01*
X151603136Y-101523051D01*
X151580005Y-101479778D01*
X151561228Y-101434445D01*
X151546984Y-101387490D01*
X151537412Y-101339365D01*
X151532602Y-101290534D01*
X151532602Y-101266000D01*
X151532000Y-101266000D01*
X151532000Y-100766000D01*
X151532602Y-100766000D01*
X151532602Y-100741466D01*
X151537412Y-100692635D01*
X151546984Y-100644510D01*
X151561228Y-100597555D01*
X151580005Y-100552222D01*
X151603136Y-100508949D01*
X151630396Y-100468150D01*
X151661524Y-100430221D01*
X151696221Y-100395524D01*
X151734150Y-100364396D01*
X151774949Y-100337136D01*
X151818222Y-100314005D01*
X151863555Y-100295228D01*
X151910510Y-100280984D01*
X151958635Y-100271412D01*
X152007466Y-100266602D01*
X152032000Y-100266602D01*
X152032000Y-100266000D01*
X152532000Y-100266000D01*
X152532000Y-101766000D01*
G37*
G04 #@! TD.AperFunction*
G04 #@! TA.AperFunction,SMDPad,CuDef*
G36*
X153332000Y-100266602D02*
G01*
X153356534Y-100266602D01*
X153405365Y-100271412D01*
X153453490Y-100280984D01*
X153500445Y-100295228D01*
X153545778Y-100314005D01*
X153589051Y-100337136D01*
X153629850Y-100364396D01*
X153667779Y-100395524D01*
X153702476Y-100430221D01*
X153733604Y-100468150D01*
X153760864Y-100508949D01*
X153783995Y-100552222D01*
X153802772Y-100597555D01*
X153817016Y-100644510D01*
X153826588Y-100692635D01*
X153831398Y-100741466D01*
X153831398Y-100766000D01*
X153832000Y-100766000D01*
X153832000Y-101266000D01*
X153831398Y-101266000D01*
X153831398Y-101290534D01*
X153826588Y-101339365D01*
X153817016Y-101387490D01*
X153802772Y-101434445D01*
X153783995Y-101479778D01*
X153760864Y-101523051D01*
X153733604Y-101563850D01*
X153702476Y-101601779D01*
X153667779Y-101636476D01*
X153629850Y-101667604D01*
X153589051Y-101694864D01*
X153545778Y-101717995D01*
X153500445Y-101736772D01*
X153453490Y-101751016D01*
X153405365Y-101760588D01*
X153356534Y-101765398D01*
X153332000Y-101765398D01*
X153332000Y-101766000D01*
X152832000Y-101766000D01*
X152832000Y-100266000D01*
X153332000Y-100266000D01*
X153332000Y-100266602D01*
G37*
G04 #@! TD.AperFunction*
D14*
X146250000Y-69000000D03*
D15*
X148790000Y-69000000D03*
X151330000Y-69000000D03*
X153870000Y-69000000D03*
G04 #@! TA.AperFunction,SMDPad,CuDef*
D12*
G36*
X139944000Y-95670000D02*
G01*
X139444000Y-95670000D01*
X139444000Y-95669398D01*
X139419466Y-95669398D01*
X139370635Y-95664588D01*
X139322510Y-95655016D01*
X139275555Y-95640772D01*
X139230222Y-95621995D01*
X139186949Y-95598864D01*
X139146150Y-95571604D01*
X139108221Y-95540476D01*
X139073524Y-95505779D01*
X139042396Y-95467850D01*
X139015136Y-95427051D01*
X138992005Y-95383778D01*
X138973228Y-95338445D01*
X138958984Y-95291490D01*
X138949412Y-95243365D01*
X138944602Y-95194534D01*
X138944602Y-95170000D01*
X138944000Y-95170000D01*
X138944000Y-94670000D01*
X138944602Y-94670000D01*
X138944602Y-94645466D01*
X138949412Y-94596635D01*
X138958984Y-94548510D01*
X138973228Y-94501555D01*
X138992005Y-94456222D01*
X139015136Y-94412949D01*
X139042396Y-94372150D01*
X139073524Y-94334221D01*
X139108221Y-94299524D01*
X139146150Y-94268396D01*
X139186949Y-94241136D01*
X139230222Y-94218005D01*
X139275555Y-94199228D01*
X139322510Y-94184984D01*
X139370635Y-94175412D01*
X139419466Y-94170602D01*
X139444000Y-94170602D01*
X139444000Y-94170000D01*
X139944000Y-94170000D01*
X139944000Y-95670000D01*
G37*
G04 #@! TD.AperFunction*
G04 #@! TA.AperFunction,SMDPad,CuDef*
G36*
X140744000Y-94170602D02*
G01*
X140768534Y-94170602D01*
X140817365Y-94175412D01*
X140865490Y-94184984D01*
X140912445Y-94199228D01*
X140957778Y-94218005D01*
X141001051Y-94241136D01*
X141041850Y-94268396D01*
X141079779Y-94299524D01*
X141114476Y-94334221D01*
X141145604Y-94372150D01*
X141172864Y-94412949D01*
X141195995Y-94456222D01*
X141214772Y-94501555D01*
X141229016Y-94548510D01*
X141238588Y-94596635D01*
X141243398Y-94645466D01*
X141243398Y-94670000D01*
X141244000Y-94670000D01*
X141244000Y-95170000D01*
X141243398Y-95170000D01*
X141243398Y-95194534D01*
X141238588Y-95243365D01*
X141229016Y-95291490D01*
X141214772Y-95338445D01*
X141195995Y-95383778D01*
X141172864Y-95427051D01*
X141145604Y-95467850D01*
X141114476Y-95505779D01*
X141079779Y-95540476D01*
X141041850Y-95571604D01*
X141001051Y-95598864D01*
X140957778Y-95621995D01*
X140912445Y-95640772D01*
X140865490Y-95655016D01*
X140817365Y-95664588D01*
X140768534Y-95669398D01*
X140744000Y-95669398D01*
X140744000Y-95670000D01*
X140244000Y-95670000D01*
X140244000Y-94170000D01*
X140744000Y-94170000D01*
X140744000Y-94170602D01*
G37*
G04 #@! TD.AperFunction*
G04 #@! TA.AperFunction,SMDPad,CuDef*
G36*
X140056000Y-101512000D02*
G01*
X139556000Y-101512000D01*
X139556000Y-101511398D01*
X139531466Y-101511398D01*
X139482635Y-101506588D01*
X139434510Y-101497016D01*
X139387555Y-101482772D01*
X139342222Y-101463995D01*
X139298949Y-101440864D01*
X139258150Y-101413604D01*
X139220221Y-101382476D01*
X139185524Y-101347779D01*
X139154396Y-101309850D01*
X139127136Y-101269051D01*
X139104005Y-101225778D01*
X139085228Y-101180445D01*
X139070984Y-101133490D01*
X139061412Y-101085365D01*
X139056602Y-101036534D01*
X139056602Y-101012000D01*
X139056000Y-101012000D01*
X139056000Y-100512000D01*
X139056602Y-100512000D01*
X139056602Y-100487466D01*
X139061412Y-100438635D01*
X139070984Y-100390510D01*
X139085228Y-100343555D01*
X139104005Y-100298222D01*
X139127136Y-100254949D01*
X139154396Y-100214150D01*
X139185524Y-100176221D01*
X139220221Y-100141524D01*
X139258150Y-100110396D01*
X139298949Y-100083136D01*
X139342222Y-100060005D01*
X139387555Y-100041228D01*
X139434510Y-100026984D01*
X139482635Y-100017412D01*
X139531466Y-100012602D01*
X139556000Y-100012602D01*
X139556000Y-100012000D01*
X140056000Y-100012000D01*
X140056000Y-101512000D01*
G37*
G04 #@! TD.AperFunction*
G04 #@! TA.AperFunction,SMDPad,CuDef*
G36*
X140856000Y-100012602D02*
G01*
X140880534Y-100012602D01*
X140929365Y-100017412D01*
X140977490Y-100026984D01*
X141024445Y-100041228D01*
X141069778Y-100060005D01*
X141113051Y-100083136D01*
X141153850Y-100110396D01*
X141191779Y-100141524D01*
X141226476Y-100176221D01*
X141257604Y-100214150D01*
X141284864Y-100254949D01*
X141307995Y-100298222D01*
X141326772Y-100343555D01*
X141341016Y-100390510D01*
X141350588Y-100438635D01*
X141355398Y-100487466D01*
X141355398Y-100512000D01*
X141356000Y-100512000D01*
X141356000Y-101012000D01*
X141355398Y-101012000D01*
X141355398Y-101036534D01*
X141350588Y-101085365D01*
X141341016Y-101133490D01*
X141326772Y-101180445D01*
X141307995Y-101225778D01*
X141284864Y-101269051D01*
X141257604Y-101309850D01*
X141226476Y-101347779D01*
X141191779Y-101382476D01*
X141153850Y-101413604D01*
X141113051Y-101440864D01*
X141069778Y-101463995D01*
X141024445Y-101482772D01*
X140977490Y-101497016D01*
X140929365Y-101506588D01*
X140880534Y-101511398D01*
X140856000Y-101511398D01*
X140856000Y-101512000D01*
X140356000Y-101512000D01*
X140356000Y-100012000D01*
X140856000Y-100012000D01*
X140856000Y-100012602D01*
G37*
G04 #@! TD.AperFunction*
G04 #@! TA.AperFunction,SMDPad,CuDef*
G36*
X153444000Y-106870602D02*
G01*
X153468534Y-106870602D01*
X153517365Y-106875412D01*
X153565490Y-106884984D01*
X153612445Y-106899228D01*
X153657778Y-106918005D01*
X153701051Y-106941136D01*
X153741850Y-106968396D01*
X153779779Y-106999524D01*
X153814476Y-107034221D01*
X153845604Y-107072150D01*
X153872864Y-107112949D01*
X153895995Y-107156222D01*
X153914772Y-107201555D01*
X153929016Y-107248510D01*
X153938588Y-107296635D01*
X153943398Y-107345466D01*
X153943398Y-107370000D01*
X153944000Y-107370000D01*
X153944000Y-107870000D01*
X153943398Y-107870000D01*
X153943398Y-107894534D01*
X153938588Y-107943365D01*
X153929016Y-107991490D01*
X153914772Y-108038445D01*
X153895995Y-108083778D01*
X153872864Y-108127051D01*
X153845604Y-108167850D01*
X153814476Y-108205779D01*
X153779779Y-108240476D01*
X153741850Y-108271604D01*
X153701051Y-108298864D01*
X153657778Y-108321995D01*
X153612445Y-108340772D01*
X153565490Y-108355016D01*
X153517365Y-108364588D01*
X153468534Y-108369398D01*
X153444000Y-108369398D01*
X153444000Y-108370000D01*
X152944000Y-108370000D01*
X152944000Y-106870000D01*
X153444000Y-106870000D01*
X153444000Y-106870602D01*
G37*
G04 #@! TD.AperFunction*
G04 #@! TA.AperFunction,SMDPad,CuDef*
G36*
X152644000Y-108370000D02*
G01*
X152144000Y-108370000D01*
X152144000Y-108369398D01*
X152119466Y-108369398D01*
X152070635Y-108364588D01*
X152022510Y-108355016D01*
X151975555Y-108340772D01*
X151930222Y-108321995D01*
X151886949Y-108298864D01*
X151846150Y-108271604D01*
X151808221Y-108240476D01*
X151773524Y-108205779D01*
X151742396Y-108167850D01*
X151715136Y-108127051D01*
X151692005Y-108083778D01*
X151673228Y-108038445D01*
X151658984Y-107991490D01*
X151649412Y-107943365D01*
X151644602Y-107894534D01*
X151644602Y-107870000D01*
X151644000Y-107870000D01*
X151644000Y-107370000D01*
X151644602Y-107370000D01*
X151644602Y-107345466D01*
X151649412Y-107296635D01*
X151658984Y-107248510D01*
X151673228Y-107201555D01*
X151692005Y-107156222D01*
X151715136Y-107112949D01*
X151742396Y-107072150D01*
X151773524Y-107034221D01*
X151808221Y-106999524D01*
X151846150Y-106968396D01*
X151886949Y-106941136D01*
X151930222Y-106918005D01*
X151975555Y-106899228D01*
X152022510Y-106884984D01*
X152070635Y-106875412D01*
X152119466Y-106870602D01*
X152144000Y-106870602D01*
X152144000Y-106870000D01*
X152644000Y-106870000D01*
X152644000Y-108370000D01*
G37*
G04 #@! TD.AperFunction*
G04 #@! TA.AperFunction,SMDPad,CuDef*
G36*
X152390000Y-95670000D02*
G01*
X151890000Y-95670000D01*
X151890000Y-95669398D01*
X151865466Y-95669398D01*
X151816635Y-95664588D01*
X151768510Y-95655016D01*
X151721555Y-95640772D01*
X151676222Y-95621995D01*
X151632949Y-95598864D01*
X151592150Y-95571604D01*
X151554221Y-95540476D01*
X151519524Y-95505779D01*
X151488396Y-95467850D01*
X151461136Y-95427051D01*
X151438005Y-95383778D01*
X151419228Y-95338445D01*
X151404984Y-95291490D01*
X151395412Y-95243365D01*
X151390602Y-95194534D01*
X151390602Y-95170000D01*
X151390000Y-95170000D01*
X151390000Y-94670000D01*
X151390602Y-94670000D01*
X151390602Y-94645466D01*
X151395412Y-94596635D01*
X151404984Y-94548510D01*
X151419228Y-94501555D01*
X151438005Y-94456222D01*
X151461136Y-94412949D01*
X151488396Y-94372150D01*
X151519524Y-94334221D01*
X151554221Y-94299524D01*
X151592150Y-94268396D01*
X151632949Y-94241136D01*
X151676222Y-94218005D01*
X151721555Y-94199228D01*
X151768510Y-94184984D01*
X151816635Y-94175412D01*
X151865466Y-94170602D01*
X151890000Y-94170602D01*
X151890000Y-94170000D01*
X152390000Y-94170000D01*
X152390000Y-95670000D01*
G37*
G04 #@! TD.AperFunction*
G04 #@! TA.AperFunction,SMDPad,CuDef*
G36*
X153190000Y-94170602D02*
G01*
X153214534Y-94170602D01*
X153263365Y-94175412D01*
X153311490Y-94184984D01*
X153358445Y-94199228D01*
X153403778Y-94218005D01*
X153447051Y-94241136D01*
X153487850Y-94268396D01*
X153525779Y-94299524D01*
X153560476Y-94334221D01*
X153591604Y-94372150D01*
X153618864Y-94412949D01*
X153641995Y-94456222D01*
X153660772Y-94501555D01*
X153675016Y-94548510D01*
X153684588Y-94596635D01*
X153689398Y-94645466D01*
X153689398Y-94670000D01*
X153690000Y-94670000D01*
X153690000Y-95170000D01*
X153689398Y-95170000D01*
X153689398Y-95194534D01*
X153684588Y-95243365D01*
X153675016Y-95291490D01*
X153660772Y-95338445D01*
X153641995Y-95383778D01*
X153618864Y-95427051D01*
X153591604Y-95467850D01*
X153560476Y-95505779D01*
X153525779Y-95540476D01*
X153487850Y-95571604D01*
X153447051Y-95598864D01*
X153403778Y-95621995D01*
X153358445Y-95640772D01*
X153311490Y-95655016D01*
X153263365Y-95664588D01*
X153214534Y-95669398D01*
X153190000Y-95669398D01*
X153190000Y-95670000D01*
X152690000Y-95670000D01*
X152690000Y-94170000D01*
X153190000Y-94170000D01*
X153190000Y-94170602D01*
G37*
G04 #@! TD.AperFunction*
G04 #@! TA.AperFunction,SMDPad,CuDef*
G36*
X147348000Y-100266602D02*
G01*
X147372534Y-100266602D01*
X147421365Y-100271412D01*
X147469490Y-100280984D01*
X147516445Y-100295228D01*
X147561778Y-100314005D01*
X147605051Y-100337136D01*
X147645850Y-100364396D01*
X147683779Y-100395524D01*
X147718476Y-100430221D01*
X147749604Y-100468150D01*
X147776864Y-100508949D01*
X147799995Y-100552222D01*
X147818772Y-100597555D01*
X147833016Y-100644510D01*
X147842588Y-100692635D01*
X147847398Y-100741466D01*
X147847398Y-100766000D01*
X147848000Y-100766000D01*
X147848000Y-101266000D01*
X147847398Y-101266000D01*
X147847398Y-101290534D01*
X147842588Y-101339365D01*
X147833016Y-101387490D01*
X147818772Y-101434445D01*
X147799995Y-101479778D01*
X147776864Y-101523051D01*
X147749604Y-101563850D01*
X147718476Y-101601779D01*
X147683779Y-101636476D01*
X147645850Y-101667604D01*
X147605051Y-101694864D01*
X147561778Y-101717995D01*
X147516445Y-101736772D01*
X147469490Y-101751016D01*
X147421365Y-101760588D01*
X147372534Y-101765398D01*
X147348000Y-101765398D01*
X147348000Y-101766000D01*
X146848000Y-101766000D01*
X146848000Y-100266000D01*
X147348000Y-100266000D01*
X147348000Y-100266602D01*
G37*
G04 #@! TD.AperFunction*
G04 #@! TA.AperFunction,SMDPad,CuDef*
G36*
X146548000Y-101766000D02*
G01*
X146048000Y-101766000D01*
X146048000Y-101765398D01*
X146023466Y-101765398D01*
X145974635Y-101760588D01*
X145926510Y-101751016D01*
X145879555Y-101736772D01*
X145834222Y-101717995D01*
X145790949Y-101694864D01*
X145750150Y-101667604D01*
X145712221Y-101636476D01*
X145677524Y-101601779D01*
X145646396Y-101563850D01*
X145619136Y-101523051D01*
X145596005Y-101479778D01*
X145577228Y-101434445D01*
X145562984Y-101387490D01*
X145553412Y-101339365D01*
X145548602Y-101290534D01*
X145548602Y-101266000D01*
X145548000Y-101266000D01*
X145548000Y-100766000D01*
X145548602Y-100766000D01*
X145548602Y-100741466D01*
X145553412Y-100692635D01*
X145562984Y-100644510D01*
X145577228Y-100597555D01*
X145596005Y-100552222D01*
X145619136Y-100508949D01*
X145646396Y-100468150D01*
X145677524Y-100430221D01*
X145712221Y-100395524D01*
X145750150Y-100364396D01*
X145790949Y-100337136D01*
X145834222Y-100314005D01*
X145879555Y-100295228D01*
X145926510Y-100280984D01*
X145974635Y-100271412D01*
X146023466Y-100266602D01*
X146048000Y-100266602D01*
X146048000Y-100266000D01*
X146548000Y-100266000D01*
X146548000Y-101766000D01*
G37*
G04 #@! TD.AperFunction*
G04 #@! TA.AperFunction,SMDPad,CuDef*
G36*
X147348000Y-106870602D02*
G01*
X147372534Y-106870602D01*
X147421365Y-106875412D01*
X147469490Y-106884984D01*
X147516445Y-106899228D01*
X147561778Y-106918005D01*
X147605051Y-106941136D01*
X147645850Y-106968396D01*
X147683779Y-106999524D01*
X147718476Y-107034221D01*
X147749604Y-107072150D01*
X147776864Y-107112949D01*
X147799995Y-107156222D01*
X147818772Y-107201555D01*
X147833016Y-107248510D01*
X147842588Y-107296635D01*
X147847398Y-107345466D01*
X147847398Y-107370000D01*
X147848000Y-107370000D01*
X147848000Y-107870000D01*
X147847398Y-107870000D01*
X147847398Y-107894534D01*
X147842588Y-107943365D01*
X147833016Y-107991490D01*
X147818772Y-108038445D01*
X147799995Y-108083778D01*
X147776864Y-108127051D01*
X147749604Y-108167850D01*
X147718476Y-108205779D01*
X147683779Y-108240476D01*
X147645850Y-108271604D01*
X147605051Y-108298864D01*
X147561778Y-108321995D01*
X147516445Y-108340772D01*
X147469490Y-108355016D01*
X147421365Y-108364588D01*
X147372534Y-108369398D01*
X147348000Y-108369398D01*
X147348000Y-108370000D01*
X146848000Y-108370000D01*
X146848000Y-106870000D01*
X147348000Y-106870000D01*
X147348000Y-106870602D01*
G37*
G04 #@! TD.AperFunction*
G04 #@! TA.AperFunction,SMDPad,CuDef*
G36*
X146548000Y-108370000D02*
G01*
X146048000Y-108370000D01*
X146048000Y-108369398D01*
X146023466Y-108369398D01*
X145974635Y-108364588D01*
X145926510Y-108355016D01*
X145879555Y-108340772D01*
X145834222Y-108321995D01*
X145790949Y-108298864D01*
X145750150Y-108271604D01*
X145712221Y-108240476D01*
X145677524Y-108205779D01*
X145646396Y-108167850D01*
X145619136Y-108127051D01*
X145596005Y-108083778D01*
X145577228Y-108038445D01*
X145562984Y-107991490D01*
X145553412Y-107943365D01*
X145548602Y-107894534D01*
X145548602Y-107870000D01*
X145548000Y-107870000D01*
X145548000Y-107370000D01*
X145548602Y-107370000D01*
X145548602Y-107345466D01*
X145553412Y-107296635D01*
X145562984Y-107248510D01*
X145577228Y-107201555D01*
X145596005Y-107156222D01*
X145619136Y-107112949D01*
X145646396Y-107072150D01*
X145677524Y-107034221D01*
X145712221Y-106999524D01*
X145750150Y-106968396D01*
X145790949Y-106941136D01*
X145834222Y-106918005D01*
X145879555Y-106899228D01*
X145926510Y-106884984D01*
X145974635Y-106875412D01*
X146023466Y-106870602D01*
X146048000Y-106870602D01*
X146048000Y-106870000D01*
X146548000Y-106870000D01*
X146548000Y-108370000D01*
G37*
G04 #@! TD.AperFunction*
D15*
X172620000Y-80700000D03*
X170080000Y-80700000D03*
X167540000Y-80700000D03*
D14*
X165000000Y-80700000D03*
X164986000Y-84460000D03*
D15*
X162446000Y-84460000D03*
X159906000Y-84460000D03*
X157366000Y-84460000D03*
X154826000Y-84460000D03*
X152286000Y-84460000D03*
X149746000Y-84460000D03*
X147206000Y-84460000D03*
X144666000Y-84460000D03*
X142126000Y-84460000D03*
X139586000Y-84460000D03*
X137046000Y-84460000D03*
X134506000Y-84460000D03*
X131966000Y-84460000D03*
X164986000Y-114960600D03*
X162446000Y-114960600D03*
X159906000Y-114960600D03*
X157366000Y-114960600D03*
X154826000Y-114960600D03*
X152286000Y-114960600D03*
X149746000Y-114960600D03*
X147206000Y-114960600D03*
X144666000Y-114960600D03*
X142126000Y-114960600D03*
X139586000Y-114960600D03*
X137046000Y-114960600D03*
X134506000Y-114960600D03*
D14*
X131966000Y-114960600D03*
X134950000Y-80500000D03*
D15*
X132410000Y-80500000D03*
X129870000Y-80500000D03*
X127330000Y-80500000D03*
D14*
X127350000Y-84410000D03*
D15*
X127350000Y-86950000D03*
X127350000Y-89490000D03*
X127350000Y-92030000D03*
X127350000Y-94570000D03*
X127350000Y-97110000D03*
D14*
X127300000Y-76700000D03*
X176500000Y-115000000D03*
X149746000Y-131750000D03*
X176500000Y-84500000D03*
X172700000Y-76900000D03*
X119500000Y-100000000D03*
D16*
X131458000Y-123368000D03*
D17*
X130188000Y-123368000D03*
X131458000Y-122098000D03*
X130188000Y-122098000D03*
X131458000Y-120828000D03*
X130188000Y-120828000D03*
X131458000Y-119558000D03*
X130188000Y-119558000D03*
X131458000Y-118288000D03*
X130188000Y-118288000D03*
D18*
X146300000Y-81900000D03*
X142126000Y-119557996D03*
X140094000Y-103810000D03*
X142126000Y-105588000D03*
X156096000Y-111430000D03*
X156096000Y-109652000D03*
X143650002Y-99238000D03*
X145936000Y-109652000D03*
X140094000Y-107366000D03*
X144000000Y-72300000D03*
X144000000Y-74800000D03*
X151400000Y-73399999D03*
X139332000Y-88316004D03*
X143650000Y-101778000D03*
X140094000Y-105588000D03*
X139586000Y-98730000D03*
X142380000Y-88315996D03*
X149492000Y-101015996D03*
X164224008Y-101016000D03*
X149492000Y-94920000D03*
X161430000Y-95682000D03*
X164224000Y-95682000D03*
X154862990Y-97496990D03*
X168542000Y-98222000D03*
X155842000Y-107620000D03*
X149491996Y-97968000D03*
X172098000Y-95682000D03*
X152286000Y-104572000D03*
X171081990Y-98222000D03*
X129274990Y-104900001D03*
D19*
X164986000Y-81114000D02*
X165500000Y-80600000D01*
X164986000Y-84460000D02*
X164986000Y-81114000D01*
X162446000Y-84460000D02*
X164986000Y-84460000D01*
X165025400Y-115000000D02*
X164986000Y-114960600D01*
X176500000Y-115000000D02*
X165025400Y-115000000D01*
X130188000Y-122098000D02*
X131458000Y-122098000D01*
X146488000Y-81712000D02*
X146300000Y-81900000D01*
X162446000Y-84460000D02*
X159698000Y-81712000D01*
X159698000Y-81712000D02*
X146488000Y-81712000D01*
X146250000Y-76020000D02*
X146250000Y-69000000D01*
X142390000Y-79880000D02*
X146250000Y-76020000D01*
X140040000Y-79880000D02*
X142390000Y-79880000D01*
X132140000Y-84460000D02*
X135014000Y-81586000D01*
X139920000Y-80000000D02*
X140040000Y-79880000D01*
X131966000Y-84460000D02*
X132140000Y-84460000D01*
X135350000Y-80000000D02*
X139920000Y-80000000D01*
X135014000Y-81586000D02*
X135014000Y-80336000D01*
X135014000Y-80336000D02*
X135350000Y-80000000D01*
X159860000Y-87046000D02*
X162446000Y-84460000D01*
X151890000Y-94920000D02*
X151890000Y-94172408D01*
X159016408Y-87046000D02*
X159860000Y-87046000D01*
X151890000Y-94172408D02*
X159016408Y-87046000D01*
X152032000Y-95062000D02*
X152032000Y-101016000D01*
X151890000Y-94920000D02*
X152032000Y-95062000D01*
X152032000Y-102032000D02*
X152032000Y-101016000D01*
X162039600Y-112014200D02*
X160845800Y-112014200D01*
X164986000Y-114960600D02*
X162039600Y-112014200D01*
X156858000Y-106858000D02*
X152032000Y-102032000D01*
X156858000Y-108128000D02*
X156858000Y-106858000D01*
X160845800Y-112014200D02*
X160668000Y-112192000D01*
X160668000Y-111938000D02*
X156858000Y-108128000D01*
X160668000Y-112192000D02*
X160668000Y-111938000D01*
X131458000Y-119558000D02*
X142125996Y-119558000D01*
X142125996Y-119558000D02*
X142126000Y-119557996D01*
X152144000Y-109738600D02*
X152144000Y-107620000D01*
X157366000Y-114960600D02*
X152144000Y-109738600D01*
X140094000Y-103810000D02*
X141872000Y-105588000D01*
X141872000Y-105588000D02*
X142126000Y-105588000D01*
X156096000Y-113690600D02*
X157366000Y-114960600D01*
X156096000Y-111430000D02*
X156096000Y-113690600D01*
X130188000Y-117780000D02*
X130188000Y-118288000D01*
X131204000Y-116764000D02*
X130188000Y-117780000D01*
X144666000Y-114960600D02*
X142862600Y-116764000D01*
X142862600Y-116764000D02*
X131204000Y-116764000D01*
X139444000Y-96105685D02*
X142576315Y-99238000D01*
X139444000Y-94920000D02*
X139444000Y-96105685D01*
X142576315Y-99238000D02*
X143650002Y-99238000D01*
X157137400Y-109652000D02*
X156096000Y-109652000D01*
X162446000Y-114960600D02*
X157137400Y-109652000D01*
X156578600Y-118288000D02*
X131458000Y-118288000D01*
X159906000Y-114960600D02*
X156578600Y-118288000D01*
X146048000Y-107620000D02*
X146048000Y-109540000D01*
X146048000Y-109540000D02*
X145936000Y-109652000D01*
X145794000Y-107366000D02*
X146048000Y-107620000D01*
X140094000Y-107366000D02*
X145794000Y-107366000D01*
X140080000Y-72300000D02*
X140040000Y-72260000D01*
X144000000Y-72300000D02*
X140080000Y-72300000D01*
X135470000Y-72260000D02*
X127230000Y-80500000D01*
X140040000Y-72260000D02*
X135470000Y-72260000D01*
X161520000Y-69000000D02*
X153870000Y-69000000D01*
X173120000Y-80600000D02*
X161520000Y-69000000D01*
X140040000Y-74800000D02*
X144000000Y-74800000D01*
X135470000Y-74800000D02*
X140040000Y-74800000D01*
X129770000Y-80500000D02*
X135470000Y-74800000D01*
X170580000Y-80600000D02*
X163480000Y-73500000D01*
X151330000Y-69000000D02*
X151330000Y-73329999D01*
X151500001Y-73500000D02*
X151400000Y-73399999D01*
X163480000Y-73500000D02*
X151500001Y-73500000D01*
X151330000Y-73329999D02*
X151400000Y-73399999D01*
X135470000Y-77340000D02*
X140040000Y-77340000D01*
X132310000Y-80500000D02*
X135470000Y-77340000D01*
X148790000Y-75035002D02*
X148790000Y-69000000D01*
X152319999Y-78565001D02*
X148790000Y-75035002D01*
X168040000Y-80600000D02*
X166600000Y-78565001D01*
X166600000Y-78565001D02*
X152319999Y-78565001D01*
X141605002Y-82220000D02*
X148790000Y-75035002D01*
X134506000Y-84460000D02*
X136746000Y-82220000D01*
X136746000Y-82220000D02*
X141605002Y-82220000D01*
X139556004Y-88316004D02*
X139332000Y-88316004D01*
X146160000Y-94920000D02*
X139556004Y-88316004D01*
X146048000Y-101016000D02*
X144412000Y-101016000D01*
X144412000Y-101016000D02*
X143650000Y-101778000D01*
X140094000Y-105588000D02*
X132220000Y-113462000D01*
X132220000Y-114706600D02*
X131966000Y-114960600D01*
X132220000Y-113462000D02*
X132220000Y-114706600D01*
X130000000Y-86500000D02*
X127350000Y-84410000D01*
X136300000Y-86500000D02*
X130000000Y-86500000D01*
X137046000Y-84460000D02*
X137046000Y-85754000D01*
X137046000Y-85754000D02*
X136300000Y-86500000D01*
X128156000Y-123368000D02*
X130188000Y-123368000D01*
X124900000Y-120112000D02*
X128156000Y-123368000D01*
X124900000Y-85760000D02*
X124900000Y-120112000D01*
X127350000Y-84410000D02*
X126250000Y-84410000D01*
X126250000Y-84410000D02*
X124900000Y-85760000D01*
X130188000Y-123368000D02*
X131458000Y-123368000D01*
X139586000Y-100732000D02*
X139556000Y-100762000D01*
X139586000Y-98730000D02*
X139586000Y-100732000D01*
X156050004Y-88315996D02*
X142380000Y-88315996D01*
X159906000Y-84460000D02*
X156050004Y-88315996D01*
X149491996Y-101016000D02*
X149492000Y-101015996D01*
X147348000Y-101016000D02*
X149491996Y-101016000D01*
X168666000Y-101016000D02*
X164224008Y-101016000D01*
X174250000Y-108100000D02*
X174250000Y-106600000D01*
X174250000Y-106600000D02*
X168666000Y-101016000D01*
X170250000Y-106600000D02*
X168984000Y-105334000D01*
X170250000Y-108100000D02*
X170250000Y-106600000D01*
X160250000Y-106600000D02*
X160250000Y-108100000D01*
X168984000Y-105334000D02*
X161516000Y-105334000D01*
X147460000Y-94920000D02*
X149492000Y-94920000D01*
X161516000Y-105334000D02*
X161346000Y-105504000D01*
X161346000Y-105504000D02*
X160250000Y-106600000D01*
X161430000Y-105420000D02*
X161346000Y-105504000D01*
X161430000Y-95682000D02*
X161430000Y-105420000D01*
X155210000Y-92900000D02*
X160250000Y-92900000D01*
X153190000Y-94920000D02*
X155210000Y-92900000D01*
X166250000Y-92900000D02*
X166250000Y-93656000D01*
X166250000Y-93656000D02*
X164224000Y-95682000D01*
X153332000Y-99027980D02*
X154862990Y-97496990D01*
X153332000Y-101016000D02*
X153332000Y-99027980D01*
X153444000Y-107620000D02*
X155842000Y-107620000D01*
X140744000Y-94920000D02*
X143792000Y-97968000D01*
X143792000Y-97968000D02*
X149491996Y-97968000D01*
X172250000Y-92900000D02*
X172250000Y-93650000D01*
X172098000Y-93052000D02*
X172098000Y-95682000D01*
X172250000Y-92900000D02*
X172098000Y-93052000D01*
X169558000Y-98222000D02*
X172098000Y-95682000D01*
X168542000Y-98222000D02*
X169558000Y-98222000D01*
X147348000Y-107620000D02*
X150396000Y-104572000D01*
X150396000Y-104572000D02*
X152286000Y-104572000D01*
X147348000Y-106872408D02*
X147348000Y-107620000D01*
X144031592Y-103556000D02*
X147348000Y-106872408D01*
X141814996Y-103556000D02*
X144031592Y-103556000D01*
X140856000Y-100762000D02*
X140856000Y-102597004D01*
X140856000Y-102597004D02*
X141814996Y-103556000D01*
X174250000Y-95053990D02*
X171081990Y-98222000D01*
X174250000Y-92900000D02*
X174250000Y-95053990D01*
X127350000Y-89490000D02*
X129274990Y-91414990D01*
X129274990Y-91414990D02*
X129274990Y-104900001D01*
M02*
