M48
; DRILL file {KiCad 7.0.0} date Mon Nov 18 00:14:15 2024
; FORMAT={-:-/ absolute / metric / decimal}
; #@! TF.CreationDate,2024-11-18T00:14:15-05:00
; #@! TF.GenerationSoftware,Kicad,Pcbnew,7.0.0
; #@! TF.FileFunction,Plated,1,2,PTH
FMAT,2
METRIC
; #@! TA.AperFunction,Plated,PTH,ViaDrill
T1C0.300
; #@! TA.AperFunction,Plated,PTH,ComponentDrill
T2C1.000
%
G90
G05
T1
X129.934Y-86.538
X135.776Y-107.366
X139.332Y-88.341
X139.586Y-98.73
X140.094Y-103.81
X140.094Y-105.588
X140.094Y-107.366
X141.364Y-102.794
X142.38Y-88.316
X142.634Y-104.064
X143.142Y-99.289
X143.625Y-102.235
X143.625Y-105.588
X144.0Y-72.3
X144.0Y-74.8
X145.936Y-97.206
X145.936Y-99.492
X145.936Y-112.167
X145.936Y-118.542
X149.492Y-94.92
X149.492Y-98.476
X149.543Y-101.016
X149.543Y-104.496
X151.4Y-73.4
X152.54Y-110.16
X154.863Y-97.167
X155.842Y-107.62
X155.842Y-109.652
X161.43Y-95.682
X164.224Y-95.682
X164.224Y-101.016
X167.062Y-98.476
X171.082Y-98.222
X172.098Y-95.682
T2
X123.33Y-88.57
X123.33Y-91.11
X123.33Y-93.65
X123.33Y-96.19
X123.33Y-98.73
X123.33Y-101.27
X127.3Y-76.7
X127.33Y-80.5
X129.87Y-80.5
X131.966Y-84.46
X131.966Y-114.961
X132.41Y-80.5
X134.506Y-84.46
X134.506Y-114.961
X134.95Y-80.5
X137.046Y-84.46
X137.046Y-114.961
X139.586Y-84.46
X139.586Y-114.961
X142.126Y-84.46
X142.126Y-114.961
X143.65Y-128.956
X144.666Y-84.46
X144.666Y-114.961
X146.19Y-123.876
X146.19Y-128.956
X146.25Y-69.012
X147.206Y-84.46
X147.206Y-114.961
X148.73Y-123.876
X148.73Y-128.956
X148.79Y-69.012
X149.746Y-84.46
X149.746Y-114.961
X151.27Y-123.876
X151.27Y-128.956
X151.33Y-69.012
X152.286Y-84.46
X152.286Y-114.961
X153.81Y-123.876
X153.81Y-128.956
X153.87Y-69.012
X154.826Y-84.46
X154.826Y-114.961
X156.35Y-128.956
X157.366Y-84.46
X157.366Y-114.961
X159.906Y-84.46
X159.906Y-114.961
X162.446Y-84.46
X162.446Y-114.961
X164.986Y-84.46
X164.986Y-114.961
X165.0Y-80.7
X167.54Y-80.7
X170.08Y-80.7
X170.32Y-84.76
X170.325Y-115.0
X172.62Y-80.7
X172.7Y-76.9
X172.86Y-84.76
X172.865Y-115.0
T0
M30
