G04 #@! TF.GenerationSoftware,KiCad,Pcbnew,5.1.9+dfsg1-1~bpo10+1*
G04 #@! TF.CreationDate,2021-09-15T19:30:04-04:00*
G04 #@! TF.ProjectId,wifi_shield,77696669-5f73-4686-9965-6c642e6b6963,rev?*
G04 #@! TF.SameCoordinates,Original*
G04 #@! TF.FileFunction,Legend,Top*
G04 #@! TF.FilePolarity,Positive*
%FSLAX46Y46*%
G04 Gerber Fmt 4.6, Leading zero omitted, Abs format (unit mm)*
G04 Created by KiCad (PCBNEW 5.1.9+dfsg1-1~bpo10+1) date 2021-09-15 19:30:04*
%MOMM*%
%LPD*%
G01*
G04 APERTURE LIST*
%ADD10C,0.150000*%
%ADD11C,0.200000*%
%ADD12C,0.010000*%
%ADD13C,0.120000*%
G04 APERTURE END LIST*
D10*
X162244428Y-119411857D02*
X162244428Y-119069000D01*
X162844428Y-119240428D02*
X162244428Y-119240428D01*
X162244428Y-118926142D02*
X162844428Y-118526142D01*
X162244428Y-118526142D02*
X162844428Y-118926142D01*
X162301571Y-118326142D02*
X162273000Y-118297571D01*
X162244428Y-118240428D01*
X162244428Y-118097571D01*
X162273000Y-118040428D01*
X162301571Y-118011857D01*
X162358714Y-117983285D01*
X162415857Y-117983285D01*
X162501571Y-118011857D01*
X162844428Y-118354714D01*
X162844428Y-117983285D01*
X160253628Y-88752514D02*
X159967914Y-88952514D01*
X160253628Y-89095371D02*
X159653628Y-89095371D01*
X159653628Y-88866800D01*
X159682200Y-88809657D01*
X159710771Y-88781085D01*
X159767914Y-88752514D01*
X159853628Y-88752514D01*
X159910771Y-88781085D01*
X159939342Y-88809657D01*
X159967914Y-88866800D01*
X159967914Y-89095371D01*
X159653628Y-88552514D02*
X160253628Y-88152514D01*
X159653628Y-88152514D02*
X160253628Y-88552514D01*
X159710771Y-87952514D02*
X159682200Y-87923942D01*
X159653628Y-87866800D01*
X159653628Y-87723942D01*
X159682200Y-87666800D01*
X159710771Y-87638228D01*
X159767914Y-87609657D01*
X159825057Y-87609657D01*
X159910771Y-87638228D01*
X160253628Y-87981085D01*
X160253628Y-87609657D01*
X147731428Y-90020857D02*
X147131428Y-90020857D01*
X147560000Y-89820857D01*
X147131428Y-89620857D01*
X147731428Y-89620857D01*
X147731428Y-89335142D02*
X147131428Y-89335142D01*
X147702857Y-89078000D02*
X147731428Y-88992285D01*
X147731428Y-88849428D01*
X147702857Y-88792285D01*
X147674285Y-88763714D01*
X147617142Y-88735142D01*
X147560000Y-88735142D01*
X147502857Y-88763714D01*
X147474285Y-88792285D01*
X147445714Y-88849428D01*
X147417142Y-88963714D01*
X147388571Y-89020857D01*
X147360000Y-89049428D01*
X147302857Y-89078000D01*
X147245714Y-89078000D01*
X147188571Y-89049428D01*
X147160000Y-89020857D01*
X147131428Y-88963714D01*
X147131428Y-88820857D01*
X147160000Y-88735142D01*
X147131428Y-88363714D02*
X147131428Y-88249428D01*
X147160000Y-88192285D01*
X147217142Y-88135142D01*
X147331428Y-88106571D01*
X147531428Y-88106571D01*
X147645714Y-88135142D01*
X147702857Y-88192285D01*
X147731428Y-88249428D01*
X147731428Y-88363714D01*
X147702857Y-88420857D01*
X147645714Y-88478000D01*
X147531428Y-88506571D01*
X147331428Y-88506571D01*
X147217142Y-88478000D01*
X147160000Y-88420857D01*
X147131428Y-88363714D01*
X137371428Y-122071428D02*
X137371428Y-122357142D01*
X136771428Y-122357142D01*
X137057142Y-121871428D02*
X137057142Y-121671428D01*
X137371428Y-121585714D02*
X137371428Y-121871428D01*
X136771428Y-121871428D01*
X136771428Y-121585714D01*
X137371428Y-121328571D02*
X136771428Y-121328571D01*
X136771428Y-121185714D01*
X136800000Y-121100000D01*
X136857142Y-121042857D01*
X136914285Y-121014285D01*
X137028571Y-120985714D01*
X137114285Y-120985714D01*
X137228571Y-121014285D01*
X137285714Y-121042857D01*
X137342857Y-121100000D01*
X137371428Y-121185714D01*
X137371428Y-121328571D01*
X137428571Y-120871428D02*
X137428571Y-120414285D01*
X137342857Y-120300000D02*
X137371428Y-120214285D01*
X137371428Y-120071428D01*
X137342857Y-120014285D01*
X137314285Y-119985714D01*
X137257142Y-119957142D01*
X137200000Y-119957142D01*
X137142857Y-119985714D01*
X137114285Y-120014285D01*
X137085714Y-120071428D01*
X137057142Y-120185714D01*
X137028571Y-120242857D01*
X137000000Y-120271428D01*
X136942857Y-120300000D01*
X136885714Y-120300000D01*
X136828571Y-120271428D01*
X136800000Y-120242857D01*
X136771428Y-120185714D01*
X136771428Y-120042857D01*
X136800000Y-119957142D01*
X136771428Y-119785714D02*
X136771428Y-119442857D01*
X137371428Y-119614285D02*
X136771428Y-119614285D01*
X137371428Y-118900000D02*
X137085714Y-119100000D01*
X137371428Y-119242857D02*
X136771428Y-119242857D01*
X136771428Y-119014285D01*
X136800000Y-118957142D01*
X136828571Y-118928571D01*
X136885714Y-118900000D01*
X136971428Y-118900000D01*
X137028571Y-118928571D01*
X137057142Y-118957142D01*
X137085714Y-119014285D01*
X137085714Y-119242857D01*
X137371428Y-118642857D02*
X136771428Y-118642857D01*
X137371428Y-118357142D02*
X136771428Y-118357142D01*
X136771428Y-118128571D01*
X136800000Y-118071428D01*
X136828571Y-118042857D01*
X136885714Y-118014285D01*
X136971428Y-118014285D01*
X137028571Y-118042857D01*
X137057142Y-118071428D01*
X137085714Y-118128571D01*
X137085714Y-118357142D01*
X165361116Y-87285380D02*
X165381319Y-87345990D01*
X165441928Y-87406599D01*
X165522741Y-87447005D01*
X165603553Y-87447005D01*
X165664162Y-87426802D01*
X165765177Y-87366193D01*
X165825786Y-87305583D01*
X165886396Y-87204568D01*
X165906599Y-87143959D01*
X165906599Y-87063147D01*
X165866193Y-86982335D01*
X165825786Y-86941928D01*
X165744974Y-86901522D01*
X165704568Y-86901522D01*
X165563147Y-87042944D01*
X165643959Y-87123756D01*
X165563147Y-86679289D02*
X165138883Y-87103553D01*
X165320710Y-86436852D01*
X164896446Y-86861116D01*
X165118680Y-86234822D02*
X164694416Y-86659086D01*
X164593400Y-86558071D01*
X164552994Y-86477258D01*
X164552994Y-86396446D01*
X164573197Y-86335837D01*
X164633806Y-86234822D01*
X164694416Y-86174213D01*
X164795431Y-86113603D01*
X164856040Y-86093400D01*
X164936852Y-86093400D01*
X165017664Y-86133806D01*
X165118680Y-86234822D01*
X162861116Y-87285380D02*
X162881319Y-87345990D01*
X162941928Y-87406599D01*
X163022741Y-87447005D01*
X163103553Y-87447005D01*
X163164162Y-87426802D01*
X163265177Y-87366193D01*
X163325786Y-87305583D01*
X163386396Y-87204568D01*
X163406599Y-87143959D01*
X163406599Y-87063147D01*
X163366193Y-86982335D01*
X163325786Y-86941928D01*
X163244974Y-86901522D01*
X163204568Y-86901522D01*
X163063147Y-87042944D01*
X163143959Y-87123756D01*
X163063147Y-86679289D02*
X162638883Y-87103553D01*
X162820710Y-86436852D01*
X162396446Y-86861116D01*
X162618680Y-86234822D02*
X162194416Y-86659086D01*
X162093400Y-86558071D01*
X162052994Y-86477258D01*
X162052994Y-86396446D01*
X162073197Y-86335837D01*
X162133806Y-86234822D01*
X162194416Y-86174213D01*
X162295431Y-86113603D01*
X162356040Y-86093400D01*
X162436852Y-86093400D01*
X162517664Y-86133806D01*
X162618680Y-86234822D01*
X135042944Y-87507614D02*
X134780304Y-87244974D01*
X135083350Y-87224771D01*
X135022741Y-87164162D01*
X135002538Y-87103553D01*
X135002538Y-87063147D01*
X135022741Y-87002538D01*
X135123756Y-86901522D01*
X135184365Y-86881319D01*
X135224771Y-86881319D01*
X135285380Y-86901522D01*
X135406599Y-87022741D01*
X135426802Y-87083350D01*
X135426802Y-87123756D01*
X134659086Y-87123756D02*
X134941928Y-86558071D01*
X134376243Y-86840913D01*
X134275228Y-86739898D02*
X134012588Y-86477258D01*
X134315634Y-86457055D01*
X134255025Y-86396446D01*
X134234822Y-86335837D01*
X134234822Y-86295431D01*
X134255025Y-86234822D01*
X134356040Y-86133806D01*
X134416649Y-86113603D01*
X134457055Y-86113603D01*
X134517664Y-86133806D01*
X134638883Y-86255025D01*
X134659086Y-86315634D01*
X134659086Y-86356040D01*
X152918076Y-86786218D02*
X152493812Y-87210482D01*
X152392796Y-87109467D01*
X152352390Y-87028654D01*
X152352390Y-86947842D01*
X152372593Y-86887233D01*
X152433203Y-86786218D01*
X152493812Y-86725609D01*
X152594827Y-86665000D01*
X152655436Y-86644796D01*
X152736248Y-86644796D01*
X152817061Y-86685203D01*
X152918076Y-86786218D01*
X152473609Y-86341751D02*
X152392796Y-86260938D01*
X152332187Y-86240735D01*
X152291781Y-86240735D01*
X152190766Y-86260938D01*
X152089751Y-86321548D01*
X151928126Y-86483172D01*
X151907923Y-86543781D01*
X151907923Y-86584187D01*
X151928126Y-86644796D01*
X152008938Y-86725609D01*
X152069548Y-86745812D01*
X152109954Y-86745812D01*
X152170563Y-86725609D01*
X152271578Y-86624593D01*
X152291781Y-86563984D01*
X152291781Y-86523578D01*
X152271578Y-86462969D01*
X152190766Y-86382157D01*
X152130157Y-86361954D01*
X152089751Y-86361954D01*
X152029142Y-86382157D01*
X158125076Y-86659218D02*
X157700812Y-87083482D01*
X157599796Y-86982467D01*
X157559390Y-86901654D01*
X157559390Y-86820842D01*
X157579593Y-86760233D01*
X157640203Y-86659218D01*
X157700812Y-86598609D01*
X157801827Y-86538000D01*
X157862436Y-86517796D01*
X157943248Y-86517796D01*
X158024061Y-86558203D01*
X158125076Y-86659218D01*
X157316954Y-86699624D02*
X157034111Y-86416781D01*
X157640203Y-86174345D01*
X155458076Y-86786218D02*
X155033812Y-87210482D01*
X154932796Y-87109467D01*
X154892390Y-87028654D01*
X154892390Y-86947842D01*
X154912593Y-86887233D01*
X154973203Y-86786218D01*
X155033812Y-86725609D01*
X155134827Y-86665000D01*
X155195436Y-86644796D01*
X155276248Y-86644796D01*
X155357061Y-86685203D01*
X155458076Y-86786218D01*
X154730766Y-86543781D02*
X154750969Y-86604390D01*
X154750969Y-86644796D01*
X154730766Y-86705406D01*
X154710563Y-86725609D01*
X154649954Y-86745812D01*
X154609548Y-86745812D01*
X154548938Y-86725609D01*
X154468126Y-86644796D01*
X154447923Y-86584187D01*
X154447923Y-86543781D01*
X154468126Y-86483172D01*
X154488329Y-86462969D01*
X154548938Y-86442766D01*
X154589345Y-86442766D01*
X154649954Y-86462969D01*
X154730766Y-86543781D01*
X154791375Y-86563984D01*
X154831781Y-86563984D01*
X154892390Y-86543781D01*
X154973203Y-86462969D01*
X154993406Y-86402360D01*
X154993406Y-86361954D01*
X154973203Y-86301345D01*
X154892390Y-86220532D01*
X154831781Y-86200329D01*
X154791375Y-86200329D01*
X154730766Y-86220532D01*
X154649954Y-86301345D01*
X154629751Y-86361954D01*
X154629751Y-86402360D01*
X154649954Y-86462969D01*
X140339294Y-87730564D02*
X140622137Y-87164879D01*
X140056451Y-87447722D01*
X139975639Y-86962848D02*
X139935233Y-86882036D01*
X139935233Y-86841630D01*
X139955436Y-86781021D01*
X140016045Y-86720412D01*
X140076654Y-86700209D01*
X140117061Y-86700209D01*
X140177670Y-86720412D01*
X140339294Y-86882036D01*
X139915030Y-87306300D01*
X139773609Y-87164879D01*
X139753406Y-87104270D01*
X139753406Y-87063864D01*
X139773609Y-87003254D01*
X139814015Y-86962848D01*
X139874624Y-86942645D01*
X139915030Y-86942645D01*
X139975639Y-86962848D01*
X140117061Y-87104270D01*
X139814015Y-86599193D02*
X139611984Y-86397163D01*
X139975639Y-86518381D02*
X139409954Y-86801224D01*
X139692796Y-86235538D01*
X139187720Y-86578990D02*
X138945284Y-86336554D01*
X139490766Y-86033508D02*
X139066502Y-86457772D01*
X138864471Y-86255742D02*
X138622035Y-86013305D01*
X139167517Y-85710259D02*
X138743253Y-86134523D01*
X142960106Y-87115248D02*
X142535842Y-87539512D01*
X142434827Y-87438497D01*
X142394421Y-87357685D01*
X142394421Y-87276873D01*
X142414624Y-87216264D01*
X142475233Y-87115248D01*
X142535842Y-87054639D01*
X142636857Y-86994030D01*
X142697467Y-86973827D01*
X142778279Y-86973827D01*
X142859091Y-87014233D01*
X142960106Y-87115248D01*
X142313609Y-86468751D02*
X142556045Y-86711187D01*
X142434827Y-86589969D02*
X142010563Y-87014233D01*
X142111578Y-86994030D01*
X142192390Y-86994030D01*
X142253000Y-87014233D01*
X141747923Y-86751593D02*
X141485284Y-86488954D01*
X141788329Y-86468751D01*
X141727720Y-86408142D01*
X141707517Y-86347532D01*
X141707517Y-86307126D01*
X141727720Y-86246517D01*
X141828735Y-86145502D01*
X141889345Y-86125299D01*
X141929751Y-86125299D01*
X141990360Y-86145502D01*
X142111578Y-86266720D01*
X142131781Y-86327329D01*
X142131781Y-86367735D01*
X145500106Y-87216848D02*
X145075842Y-87641112D01*
X144974827Y-87540097D01*
X144934421Y-87459285D01*
X144934421Y-87378473D01*
X144954624Y-87317864D01*
X145015233Y-87216848D01*
X145075842Y-87156239D01*
X145176857Y-87095630D01*
X145237467Y-87075427D01*
X145318279Y-87075427D01*
X145399091Y-87115833D01*
X145500106Y-87216848D01*
X144853609Y-86570351D02*
X145096045Y-86812787D01*
X144974827Y-86691569D02*
X144550563Y-87115833D01*
X144651578Y-87095630D01*
X144732390Y-87095630D01*
X144793000Y-87115833D01*
X144308126Y-86792584D02*
X144267720Y-86792584D01*
X144207111Y-86772381D01*
X144106096Y-86671366D01*
X144085893Y-86610757D01*
X144085893Y-86570351D01*
X144106096Y-86509742D01*
X144146502Y-86469335D01*
X144227314Y-86428929D01*
X144712187Y-86428929D01*
X144449548Y-86166290D01*
X150580106Y-87242248D02*
X150155842Y-87666512D01*
X150054827Y-87565497D01*
X150014421Y-87484685D01*
X150014421Y-87403873D01*
X150034624Y-87343264D01*
X150095233Y-87242248D01*
X150155842Y-87181639D01*
X150256857Y-87121030D01*
X150317467Y-87100827D01*
X150398279Y-87100827D01*
X150479091Y-87141233D01*
X150580106Y-87242248D01*
X149933609Y-86595751D02*
X150176045Y-86838187D01*
X150054827Y-86716969D02*
X149630563Y-87141233D01*
X149731578Y-87121030D01*
X149812390Y-87121030D01*
X149873000Y-87141233D01*
X149246705Y-86757375D02*
X149206299Y-86716969D01*
X149186096Y-86656360D01*
X149186096Y-86615954D01*
X149206299Y-86555345D01*
X149266908Y-86454329D01*
X149367923Y-86353314D01*
X149468938Y-86292705D01*
X149529548Y-86272502D01*
X149569954Y-86272502D01*
X149630563Y-86292705D01*
X149670969Y-86333111D01*
X149691172Y-86393720D01*
X149691172Y-86434126D01*
X149670969Y-86494735D01*
X149610360Y-86595751D01*
X149509345Y-86696766D01*
X149408329Y-86757375D01*
X149347720Y-86777578D01*
X149307314Y-86777578D01*
X149246705Y-86757375D01*
X137021477Y-86952747D02*
X137223507Y-87154777D01*
X137445741Y-86972950D01*
X137405335Y-86972950D01*
X137344725Y-86952747D01*
X137243710Y-86851732D01*
X137223507Y-86791122D01*
X137223507Y-86750716D01*
X137243710Y-86690107D01*
X137344725Y-86589092D01*
X137405335Y-86568889D01*
X137445741Y-86568889D01*
X137506350Y-86589092D01*
X137607365Y-86690107D01*
X137627568Y-86750716D01*
X137627568Y-86791122D01*
X136880055Y-86811325D02*
X137162898Y-86245640D01*
X136597213Y-86528483D01*
X148040106Y-87216848D02*
X147615842Y-87641112D01*
X147514827Y-87540097D01*
X147474421Y-87459285D01*
X147474421Y-87378473D01*
X147494624Y-87317864D01*
X147555233Y-87216848D01*
X147615842Y-87156239D01*
X147716857Y-87095630D01*
X147777467Y-87075427D01*
X147858279Y-87075427D01*
X147939091Y-87115833D01*
X148040106Y-87216848D01*
X147393609Y-86570351D02*
X147636045Y-86812787D01*
X147514827Y-86691569D02*
X147090563Y-87115833D01*
X147191578Y-87095630D01*
X147272390Y-87095630D01*
X147333000Y-87115833D01*
X146989548Y-86166290D02*
X147231984Y-86408726D01*
X147110766Y-86287508D02*
X146686502Y-86711772D01*
X146787517Y-86691569D01*
X146868329Y-86691569D01*
X146928938Y-86711772D01*
X160505076Y-86913218D02*
X160080812Y-87337482D01*
X159979796Y-87236467D01*
X159939390Y-87155654D01*
X159939390Y-87074842D01*
X159959593Y-87014233D01*
X160020203Y-86913218D01*
X160080812Y-86852609D01*
X160181827Y-86792000D01*
X160242436Y-86771796D01*
X160323248Y-86771796D01*
X160404061Y-86812203D01*
X160505076Y-86913218D01*
X159474720Y-86731390D02*
X159555532Y-86812203D01*
X159616142Y-86832406D01*
X159656548Y-86832406D01*
X159757563Y-86812203D01*
X159858578Y-86751593D01*
X160020203Y-86589969D01*
X160040406Y-86529360D01*
X160040406Y-86488954D01*
X160020203Y-86428345D01*
X159939390Y-86347532D01*
X159878781Y-86327329D01*
X159838375Y-86327329D01*
X159777766Y-86347532D01*
X159676751Y-86448548D01*
X159656548Y-86509157D01*
X159656548Y-86549563D01*
X159676751Y-86610172D01*
X159757563Y-86690984D01*
X159818172Y-86711187D01*
X159858578Y-86711187D01*
X159919187Y-86690984D01*
X132280316Y-87327380D02*
X132300519Y-87387990D01*
X132361128Y-87448599D01*
X132441941Y-87489005D01*
X132522753Y-87489005D01*
X132583362Y-87468802D01*
X132684377Y-87408193D01*
X132744986Y-87347583D01*
X132805596Y-87246568D01*
X132825799Y-87185959D01*
X132825799Y-87105147D01*
X132785393Y-87024335D01*
X132744986Y-86983928D01*
X132664174Y-86943522D01*
X132623768Y-86943522D01*
X132482347Y-87084944D01*
X132563159Y-87165756D01*
X132482347Y-86721289D02*
X132058083Y-87145553D01*
X132239910Y-86478852D01*
X131815646Y-86903116D01*
X132037880Y-86276822D02*
X131613616Y-86701086D01*
X131512600Y-86600071D01*
X131472194Y-86519258D01*
X131472194Y-86438446D01*
X131492397Y-86377837D01*
X131553006Y-86276822D01*
X131613616Y-86216213D01*
X131714631Y-86155603D01*
X131775240Y-86135400D01*
X131856052Y-86135400D01*
X131936864Y-86175806D01*
X132037880Y-86276822D01*
X157819857Y-89171571D02*
X157848428Y-89085857D01*
X157848428Y-88943000D01*
X157819857Y-88885857D01*
X157791285Y-88857285D01*
X157734142Y-88828714D01*
X157677000Y-88828714D01*
X157619857Y-88857285D01*
X157591285Y-88885857D01*
X157562714Y-88943000D01*
X157534142Y-89057285D01*
X157505571Y-89114428D01*
X157477000Y-89143000D01*
X157419857Y-89171571D01*
X157362714Y-89171571D01*
X157305571Y-89143000D01*
X157277000Y-89114428D01*
X157248428Y-89057285D01*
X157248428Y-88914428D01*
X157277000Y-88828714D01*
X157848428Y-88571571D02*
X157248428Y-88571571D01*
X157248428Y-88428714D01*
X157277000Y-88343000D01*
X157334142Y-88285857D01*
X157391285Y-88257285D01*
X157505571Y-88228714D01*
X157591285Y-88228714D01*
X157705571Y-88257285D01*
X157762714Y-88285857D01*
X157819857Y-88343000D01*
X157848428Y-88428714D01*
X157848428Y-88571571D01*
X157677000Y-88000142D02*
X157677000Y-87714428D01*
X157848428Y-88057285D02*
X157248428Y-87857285D01*
X157848428Y-87657285D01*
X155195857Y-89838285D02*
X155224428Y-89752571D01*
X155224428Y-89609714D01*
X155195857Y-89552571D01*
X155167285Y-89524000D01*
X155110142Y-89495428D01*
X155053000Y-89495428D01*
X154995857Y-89524000D01*
X154967285Y-89552571D01*
X154938714Y-89609714D01*
X154910142Y-89724000D01*
X154881571Y-89781142D01*
X154853000Y-89809714D01*
X154795857Y-89838285D01*
X154738714Y-89838285D01*
X154681571Y-89809714D01*
X154653000Y-89781142D01*
X154624428Y-89724000D01*
X154624428Y-89581142D01*
X154653000Y-89495428D01*
X155224428Y-88952571D02*
X155224428Y-89238285D01*
X154624428Y-89238285D01*
X155167285Y-88409714D02*
X155195857Y-88438285D01*
X155224428Y-88524000D01*
X155224428Y-88581142D01*
X155195857Y-88666857D01*
X155138714Y-88724000D01*
X155081571Y-88752571D01*
X154967285Y-88781142D01*
X154881571Y-88781142D01*
X154767285Y-88752571D01*
X154710142Y-88724000D01*
X154653000Y-88666857D01*
X154624428Y-88581142D01*
X154624428Y-88524000D01*
X154653000Y-88438285D01*
X154681571Y-88409714D01*
X155224428Y-88152571D02*
X154624428Y-88152571D01*
X155224428Y-87809714D02*
X154881571Y-88066857D01*
X154624428Y-87809714D02*
X154967285Y-88152571D01*
X152684428Y-89766857D02*
X152084428Y-89766857D01*
X152513000Y-89566857D01*
X152084428Y-89366857D01*
X152684428Y-89366857D01*
X152084428Y-88966857D02*
X152084428Y-88852571D01*
X152113000Y-88795428D01*
X152170142Y-88738285D01*
X152284428Y-88709714D01*
X152484428Y-88709714D01*
X152598714Y-88738285D01*
X152655857Y-88795428D01*
X152684428Y-88852571D01*
X152684428Y-88966857D01*
X152655857Y-89024000D01*
X152598714Y-89081142D01*
X152484428Y-89109714D01*
X152284428Y-89109714D01*
X152170142Y-89081142D01*
X152113000Y-89024000D01*
X152084428Y-88966857D01*
X152655857Y-88481142D02*
X152684428Y-88395428D01*
X152684428Y-88252571D01*
X152655857Y-88195428D01*
X152627285Y-88166857D01*
X152570142Y-88138285D01*
X152513000Y-88138285D01*
X152455857Y-88166857D01*
X152427285Y-88195428D01*
X152398714Y-88252571D01*
X152370142Y-88366857D01*
X152341571Y-88424000D01*
X152313000Y-88452571D01*
X152255857Y-88481142D01*
X152198714Y-88481142D01*
X152141571Y-88452571D01*
X152113000Y-88424000D01*
X152084428Y-88366857D01*
X152084428Y-88224000D01*
X152113000Y-88138285D01*
X152684428Y-87881142D02*
X152084428Y-87881142D01*
X150087285Y-89308142D02*
X150115857Y-89336714D01*
X150144428Y-89422428D01*
X150144428Y-89479571D01*
X150115857Y-89565285D01*
X150058714Y-89622428D01*
X150001571Y-89651000D01*
X149887285Y-89679571D01*
X149801571Y-89679571D01*
X149687285Y-89651000D01*
X149630142Y-89622428D01*
X149573000Y-89565285D01*
X149544428Y-89479571D01*
X149544428Y-89422428D01*
X149573000Y-89336714D01*
X149601571Y-89308142D01*
X150144428Y-88765285D02*
X150144428Y-89051000D01*
X149544428Y-89051000D01*
X150144428Y-88565285D02*
X149544428Y-88565285D01*
X150144428Y-88222428D02*
X149801571Y-88479571D01*
X149544428Y-88222428D02*
X149887285Y-88565285D01*
X145035857Y-89154142D02*
X145064428Y-89068428D01*
X145064428Y-88925571D01*
X145035857Y-88868428D01*
X145007285Y-88839857D01*
X144950142Y-88811285D01*
X144893000Y-88811285D01*
X144835857Y-88839857D01*
X144807285Y-88868428D01*
X144778714Y-88925571D01*
X144750142Y-89039857D01*
X144721571Y-89097000D01*
X144693000Y-89125571D01*
X144635857Y-89154142D01*
X144578714Y-89154142D01*
X144521571Y-89125571D01*
X144493000Y-89097000D01*
X144464428Y-89039857D01*
X144464428Y-88897000D01*
X144493000Y-88811285D01*
X145035857Y-88582714D02*
X145064428Y-88497000D01*
X145064428Y-88354142D01*
X145035857Y-88297000D01*
X145007285Y-88268428D01*
X144950142Y-88239857D01*
X144893000Y-88239857D01*
X144835857Y-88268428D01*
X144807285Y-88297000D01*
X144778714Y-88354142D01*
X144750142Y-88468428D01*
X144721571Y-88525571D01*
X144693000Y-88554142D01*
X144635857Y-88582714D01*
X144578714Y-88582714D01*
X144521571Y-88554142D01*
X144493000Y-88525571D01*
X144464428Y-88468428D01*
X144464428Y-88325571D01*
X144493000Y-88239857D01*
D11*
X142157142Y-112390380D02*
X142061904Y-112342761D01*
X142014285Y-112247523D01*
X142014285Y-111390380D01*
X142538095Y-112390380D02*
X142538095Y-111723714D01*
X142538095Y-111390380D02*
X142490476Y-111438000D01*
X142538095Y-111485619D01*
X142585714Y-111438000D01*
X142538095Y-111390380D01*
X142538095Y-111485619D01*
X143014285Y-112390380D02*
X143014285Y-111390380D01*
X143014285Y-111771333D02*
X143109523Y-111723714D01*
X143300000Y-111723714D01*
X143395238Y-111771333D01*
X143442857Y-111818952D01*
X143490476Y-111914190D01*
X143490476Y-112199904D01*
X143442857Y-112295142D01*
X143395238Y-112342761D01*
X143300000Y-112390380D01*
X143109523Y-112390380D01*
X143014285Y-112342761D01*
X143919047Y-112390380D02*
X143919047Y-111723714D01*
X143919047Y-111914190D02*
X143966666Y-111818952D01*
X144014285Y-111771333D01*
X144109523Y-111723714D01*
X144204761Y-111723714D01*
X144919047Y-112342761D02*
X144823809Y-112390380D01*
X144633333Y-112390380D01*
X144538095Y-112342761D01*
X144490476Y-112247523D01*
X144490476Y-111866571D01*
X144538095Y-111771333D01*
X144633333Y-111723714D01*
X144823809Y-111723714D01*
X144919047Y-111771333D01*
X144966666Y-111866571D01*
X144966666Y-111961809D01*
X144490476Y-112057047D01*
X145538095Y-112390380D02*
X145442857Y-112342761D01*
X145395238Y-112247523D01*
X145395238Y-111390380D01*
X146347619Y-112390380D02*
X146347619Y-111866571D01*
X146300000Y-111771333D01*
X146204761Y-111723714D01*
X146014285Y-111723714D01*
X145919047Y-111771333D01*
X146347619Y-112342761D02*
X146252380Y-112390380D01*
X146014285Y-112390380D01*
X145919047Y-112342761D01*
X145871428Y-112247523D01*
X145871428Y-112152285D01*
X145919047Y-112057047D01*
X146014285Y-112009428D01*
X146252380Y-112009428D01*
X146347619Y-111961809D01*
X146823809Y-112390380D02*
X146823809Y-111390380D01*
X146823809Y-111771333D02*
X146919047Y-111723714D01*
X147109523Y-111723714D01*
X147204761Y-111771333D01*
X147252380Y-111818952D01*
X147300000Y-111914190D01*
X147300000Y-112199904D01*
X147252380Y-112295142D01*
X147204761Y-112342761D01*
X147109523Y-112390380D01*
X146919047Y-112390380D01*
X146823809Y-112342761D01*
X147728571Y-112295142D02*
X147776190Y-112342761D01*
X147728571Y-112390380D01*
X147680952Y-112342761D01*
X147728571Y-112295142D01*
X147728571Y-112390380D01*
X147728571Y-111771333D02*
X147776190Y-111818952D01*
X147728571Y-111866571D01*
X147680952Y-111818952D01*
X147728571Y-111771333D01*
X147728571Y-111866571D01*
X148204761Y-112295142D02*
X148252380Y-112342761D01*
X148204761Y-112390380D01*
X148157142Y-112342761D01*
X148204761Y-112295142D01*
X148204761Y-112390380D01*
X148204761Y-111771333D02*
X148252380Y-111818952D01*
X148204761Y-111866571D01*
X148157142Y-111818952D01*
X148204761Y-111771333D01*
X148204761Y-111866571D01*
X149014285Y-111866571D02*
X149157142Y-111914190D01*
X149204761Y-111961809D01*
X149252380Y-112057047D01*
X149252380Y-112199904D01*
X149204761Y-112295142D01*
X149157142Y-112342761D01*
X149061904Y-112390380D01*
X148680952Y-112390380D01*
X148680952Y-111390380D01*
X149014285Y-111390380D01*
X149109523Y-111438000D01*
X149157142Y-111485619D01*
X149204761Y-111580857D01*
X149204761Y-111676095D01*
X149157142Y-111771333D01*
X149109523Y-111818952D01*
X149014285Y-111866571D01*
X148680952Y-111866571D01*
X149680952Y-112390380D02*
X149680952Y-111723714D01*
X149680952Y-111390380D02*
X149633333Y-111438000D01*
X149680952Y-111485619D01*
X149728571Y-111438000D01*
X149680952Y-111390380D01*
X149680952Y-111485619D01*
X150585714Y-111723714D02*
X150585714Y-112533238D01*
X150538095Y-112628476D01*
X150490476Y-112676095D01*
X150395238Y-112723714D01*
X150252380Y-112723714D01*
X150157142Y-112676095D01*
X150585714Y-112342761D02*
X150490476Y-112390380D01*
X150300000Y-112390380D01*
X150204761Y-112342761D01*
X150157142Y-112295142D01*
X150109523Y-112199904D01*
X150109523Y-111914190D01*
X150157142Y-111818952D01*
X150204761Y-111771333D01*
X150300000Y-111723714D01*
X150490476Y-111723714D01*
X150585714Y-111771333D01*
X151823809Y-112390380D02*
X151823809Y-111390380D01*
X152061904Y-111390380D01*
X152204761Y-111438000D01*
X152300000Y-111533238D01*
X152347619Y-111628476D01*
X152395238Y-111818952D01*
X152395238Y-111961809D01*
X152347619Y-112152285D01*
X152300000Y-112247523D01*
X152204761Y-112342761D01*
X152061904Y-112390380D01*
X151823809Y-112390380D01*
X152966666Y-112390380D02*
X152871428Y-112342761D01*
X152823809Y-112295142D01*
X152776190Y-112199904D01*
X152776190Y-111914190D01*
X152823809Y-111818952D01*
X152871428Y-111771333D01*
X152966666Y-111723714D01*
X153109523Y-111723714D01*
X153204761Y-111771333D01*
X153252380Y-111818952D01*
X153300000Y-111914190D01*
X153300000Y-112199904D01*
X153252380Y-112295142D01*
X153204761Y-112342761D01*
X153109523Y-112390380D01*
X152966666Y-112390380D01*
X153585714Y-111723714D02*
X153966666Y-111723714D01*
X153728571Y-111390380D02*
X153728571Y-112247523D01*
X153776190Y-112342761D01*
X153871428Y-112390380D01*
X153966666Y-112390380D01*
X155347619Y-112723714D02*
X155109523Y-112723714D01*
X155109523Y-111295142D01*
X155347619Y-111295142D01*
X156109523Y-112342761D02*
X156014285Y-112390380D01*
X155823809Y-112390380D01*
X155728571Y-112342761D01*
X155680952Y-112247523D01*
X155680952Y-111866571D01*
X155728571Y-111771333D01*
X155823809Y-111723714D01*
X156014285Y-111723714D01*
X156109523Y-111771333D01*
X156157142Y-111866571D01*
X156157142Y-111961809D01*
X155680952Y-112057047D01*
X156490476Y-112390380D02*
X157014285Y-111723714D01*
X156490476Y-111723714D02*
X157014285Y-112390380D01*
X157252380Y-111723714D02*
X157633333Y-111723714D01*
X157395238Y-111390380D02*
X157395238Y-112247523D01*
X157442857Y-112342761D01*
X157538095Y-112390380D01*
X157633333Y-112390380D01*
X157966666Y-112295142D02*
X158014285Y-112342761D01*
X157966666Y-112390380D01*
X157919047Y-112342761D01*
X157966666Y-112295142D01*
X157966666Y-112390380D01*
X159204761Y-112390380D02*
X159204761Y-111390380D01*
X159204761Y-111771333D02*
X159300000Y-111723714D01*
X159490476Y-111723714D01*
X159585714Y-111771333D01*
X159633333Y-111818952D01*
X159680952Y-111914190D01*
X159680952Y-112199904D01*
X159633333Y-112295142D01*
X159585714Y-112342761D01*
X159490476Y-112390380D01*
X159300000Y-112390380D01*
X159204761Y-112342761D01*
X160252380Y-112390380D02*
X160157142Y-112342761D01*
X160109523Y-112295142D01*
X160061904Y-112199904D01*
X160061904Y-111914190D01*
X160109523Y-111818952D01*
X160157142Y-111771333D01*
X160252380Y-111723714D01*
X160395238Y-111723714D01*
X160490476Y-111771333D01*
X160538095Y-111818952D01*
X160585714Y-111914190D01*
X160585714Y-112199904D01*
X160538095Y-112295142D01*
X160490476Y-112342761D01*
X160395238Y-112390380D01*
X160252380Y-112390380D01*
X161442857Y-112390380D02*
X161442857Y-111866571D01*
X161395238Y-111771333D01*
X161300000Y-111723714D01*
X161109523Y-111723714D01*
X161014285Y-111771333D01*
X161442857Y-112342761D02*
X161347619Y-112390380D01*
X161109523Y-112390380D01*
X161014285Y-112342761D01*
X160966666Y-112247523D01*
X160966666Y-112152285D01*
X161014285Y-112057047D01*
X161109523Y-112009428D01*
X161347619Y-112009428D01*
X161442857Y-111961809D01*
X161919047Y-112390380D02*
X161919047Y-111723714D01*
X161919047Y-111914190D02*
X161966666Y-111818952D01*
X162014285Y-111771333D01*
X162109523Y-111723714D01*
X162204761Y-111723714D01*
X162966666Y-112390380D02*
X162966666Y-111390380D01*
X162966666Y-112342761D02*
X162871428Y-112390380D01*
X162680952Y-112390380D01*
X162585714Y-112342761D01*
X162538095Y-112295142D01*
X162490476Y-112199904D01*
X162490476Y-111914190D01*
X162538095Y-111818952D01*
X162585714Y-111771333D01*
X162680952Y-111723714D01*
X162871428Y-111723714D01*
X162966666Y-111771333D01*
X163490476Y-112342761D02*
X163490476Y-112390380D01*
X163442857Y-112485619D01*
X163395238Y-112533238D01*
X164585714Y-111723714D02*
X164823809Y-112390380D01*
X165061904Y-111723714D01*
X165966666Y-112390380D02*
X165395238Y-112390380D01*
X165680952Y-112390380D02*
X165680952Y-111390380D01*
X165585714Y-111533238D01*
X165490476Y-111628476D01*
X165395238Y-111676095D01*
X166300000Y-112723714D02*
X166538095Y-112723714D01*
X166538095Y-111295142D01*
X166300000Y-111295142D01*
D10*
X144971428Y-121600000D02*
X144371428Y-121600000D01*
X144371428Y-121371428D01*
X144400000Y-121314285D01*
X144428571Y-121285714D01*
X144485714Y-121257142D01*
X144571428Y-121257142D01*
X144628571Y-121285714D01*
X144657142Y-121314285D01*
X144685714Y-121371428D01*
X144685714Y-121600000D01*
X144971428Y-121000000D02*
X144371428Y-121000000D01*
X144800000Y-120800000D01*
X144371428Y-120600000D01*
X144971428Y-120600000D01*
X144942857Y-120342857D02*
X144971428Y-120257142D01*
X144971428Y-120114285D01*
X144942857Y-120057142D01*
X144914285Y-120028571D01*
X144857142Y-120000000D01*
X144800000Y-120000000D01*
X144742857Y-120028571D01*
X144714285Y-120057142D01*
X144685714Y-120114285D01*
X144657142Y-120228571D01*
X144628571Y-120285714D01*
X144600000Y-120314285D01*
X144542857Y-120342857D01*
X144485714Y-120342857D01*
X144428571Y-120314285D01*
X144400000Y-120285714D01*
X144371428Y-120228571D01*
X144371428Y-120085714D01*
X144400000Y-120000000D01*
X145028571Y-119885714D02*
X145028571Y-119428571D01*
X144942857Y-119314285D02*
X144971428Y-119228571D01*
X144971428Y-119085714D01*
X144942857Y-119028571D01*
X144914285Y-119000000D01*
X144857142Y-118971428D01*
X144800000Y-118971428D01*
X144742857Y-119000000D01*
X144714285Y-119028571D01*
X144685714Y-119085714D01*
X144657142Y-119200000D01*
X144628571Y-119257142D01*
X144600000Y-119285714D01*
X144542857Y-119314285D01*
X144485714Y-119314285D01*
X144428571Y-119285714D01*
X144400000Y-119257142D01*
X144371428Y-119200000D01*
X144371428Y-119057142D01*
X144400000Y-118971428D01*
X144657142Y-118714285D02*
X144657142Y-118514285D01*
X144971428Y-118428571D02*
X144971428Y-118714285D01*
X144371428Y-118714285D01*
X144371428Y-118428571D01*
X144371428Y-118257142D02*
X144371428Y-117914285D01*
X144971428Y-118085714D02*
X144371428Y-118085714D01*
X147477428Y-119054714D02*
X147477428Y-119340428D01*
X146877428Y-119340428D01*
X147163142Y-118854714D02*
X147163142Y-118654714D01*
X147477428Y-118569000D02*
X147477428Y-118854714D01*
X146877428Y-118854714D01*
X146877428Y-118569000D01*
X147477428Y-118311857D02*
X146877428Y-118311857D01*
X146877428Y-118169000D01*
X146906000Y-118083285D01*
X146963142Y-118026142D01*
X147020285Y-117997571D01*
X147134571Y-117969000D01*
X147220285Y-117969000D01*
X147334571Y-117997571D01*
X147391714Y-118026142D01*
X147448857Y-118083285D01*
X147477428Y-118169000D01*
X147477428Y-118311857D01*
X149703142Y-122632714D02*
X149731714Y-122547000D01*
X149760285Y-122518428D01*
X149817428Y-122489857D01*
X149903142Y-122489857D01*
X149960285Y-122518428D01*
X149988857Y-122547000D01*
X150017428Y-122604142D01*
X150017428Y-122832714D01*
X149417428Y-122832714D01*
X149417428Y-122632714D01*
X149446000Y-122575571D01*
X149474571Y-122547000D01*
X149531714Y-122518428D01*
X149588857Y-122518428D01*
X149646000Y-122547000D01*
X149674571Y-122575571D01*
X149703142Y-122632714D01*
X149703142Y-122832714D01*
X149846000Y-122261285D02*
X149846000Y-121975571D01*
X150017428Y-122318428D02*
X149417428Y-122118428D01*
X150017428Y-121918428D01*
X149417428Y-121804142D02*
X149417428Y-121461285D01*
X150017428Y-121632714D02*
X149417428Y-121632714D01*
X149417428Y-121347000D02*
X149417428Y-121004142D01*
X150017428Y-121175571D02*
X149417428Y-121175571D01*
X150074571Y-120947000D02*
X150074571Y-120489857D01*
X150017428Y-120061285D02*
X150017428Y-120347000D01*
X149417428Y-120347000D01*
X149703142Y-119861285D02*
X149703142Y-119661285D01*
X150017428Y-119575571D02*
X150017428Y-119861285D01*
X149417428Y-119861285D01*
X149417428Y-119575571D01*
X149417428Y-119404142D02*
X150017428Y-119204142D01*
X149417428Y-119004142D01*
X149703142Y-118804142D02*
X149703142Y-118604142D01*
X150017428Y-118518428D02*
X150017428Y-118804142D01*
X149417428Y-118804142D01*
X149417428Y-118518428D01*
X150017428Y-117975571D02*
X150017428Y-118261285D01*
X149417428Y-118261285D01*
X157121428Y-119342857D02*
X157121428Y-119000000D01*
X157721428Y-119171428D02*
X157121428Y-119171428D01*
X157121428Y-118857142D02*
X157721428Y-118457142D01*
X157121428Y-118457142D02*
X157721428Y-118857142D01*
X157721428Y-117914285D02*
X157721428Y-118257142D01*
X157721428Y-118085714D02*
X157121428Y-118085714D01*
X157207142Y-118142857D01*
X157264285Y-118200000D01*
X157292857Y-118257142D01*
X160171428Y-118985714D02*
X159885714Y-119185714D01*
X160171428Y-119328571D02*
X159571428Y-119328571D01*
X159571428Y-119100000D01*
X159600000Y-119042857D01*
X159628571Y-119014285D01*
X159685714Y-118985714D01*
X159771428Y-118985714D01*
X159828571Y-119014285D01*
X159857142Y-119042857D01*
X159885714Y-119100000D01*
X159885714Y-119328571D01*
X159571428Y-118785714D02*
X160171428Y-118385714D01*
X159571428Y-118385714D02*
X160171428Y-118785714D01*
X160171428Y-117842857D02*
X160171428Y-118185714D01*
X160171428Y-118014285D02*
X159571428Y-118014285D01*
X159657142Y-118071428D01*
X159714285Y-118128571D01*
X159742857Y-118185714D01*
X134490116Y-117807380D02*
X134510319Y-117867990D01*
X134570928Y-117928599D01*
X134651741Y-117969005D01*
X134732553Y-117969005D01*
X134793162Y-117948802D01*
X134894177Y-117888193D01*
X134954786Y-117827583D01*
X135015396Y-117726568D01*
X135035599Y-117665959D01*
X135035599Y-117585147D01*
X134995193Y-117504335D01*
X134954786Y-117463928D01*
X134873974Y-117423522D01*
X134833568Y-117423522D01*
X134692147Y-117564944D01*
X134772959Y-117645756D01*
X134692147Y-117201289D02*
X134267883Y-117625553D01*
X134449710Y-116958852D01*
X134025446Y-117383116D01*
X134247680Y-116756822D02*
X133823416Y-117181086D01*
X133722400Y-117080071D01*
X133681994Y-116999258D01*
X133681994Y-116918446D01*
X133702197Y-116857837D01*
X133762806Y-116756822D01*
X133823416Y-116696213D01*
X133924431Y-116635603D01*
X133985040Y-116615400D01*
X134065852Y-116615400D01*
X134146664Y-116655806D01*
X134247680Y-116756822D01*
X132335144Y-118029614D02*
X132072504Y-117766974D01*
X132375550Y-117746771D01*
X132314941Y-117686162D01*
X132294738Y-117625553D01*
X132294738Y-117585147D01*
X132314941Y-117524538D01*
X132415956Y-117423522D01*
X132476565Y-117403319D01*
X132516971Y-117403319D01*
X132577580Y-117423522D01*
X132698799Y-117544741D01*
X132719002Y-117605350D01*
X132719002Y-117645756D01*
X131951286Y-117645756D02*
X132234128Y-117080071D01*
X131668443Y-117362913D01*
X131567428Y-117261898D02*
X131304788Y-116999258D01*
X131607834Y-116979055D01*
X131547225Y-116918446D01*
X131527022Y-116857837D01*
X131527022Y-116817431D01*
X131547225Y-116756822D01*
X131648240Y-116655806D01*
X131708849Y-116635603D01*
X131749255Y-116635603D01*
X131809864Y-116655806D01*
X131931083Y-116777025D01*
X131951286Y-116837634D01*
X131951286Y-116878040D01*
X165605116Y-117807380D02*
X165625319Y-117867990D01*
X165685928Y-117928599D01*
X165766741Y-117969005D01*
X165847553Y-117969005D01*
X165908162Y-117948802D01*
X166009177Y-117888193D01*
X166069786Y-117827583D01*
X166130396Y-117726568D01*
X166150599Y-117665959D01*
X166150599Y-117585147D01*
X166110193Y-117504335D01*
X166069786Y-117463928D01*
X165988974Y-117423522D01*
X165948568Y-117423522D01*
X165807147Y-117564944D01*
X165887959Y-117645756D01*
X165807147Y-117201289D02*
X165382883Y-117625553D01*
X165564710Y-116958852D01*
X165140446Y-117383116D01*
X165362680Y-116756822D02*
X164938416Y-117181086D01*
X164837400Y-117080071D01*
X164796994Y-116999258D01*
X164796994Y-116918446D01*
X164817197Y-116857837D01*
X164877806Y-116756822D01*
X164938416Y-116696213D01*
X165039431Y-116635603D01*
X165100040Y-116615400D01*
X165180852Y-116615400D01*
X165261664Y-116655806D01*
X165362680Y-116756822D01*
X147579756Y-117224935D02*
X147377725Y-117022904D01*
X147741380Y-117144122D02*
X147175695Y-117426965D01*
X147458538Y-116861280D01*
X146690822Y-116942092D02*
X146892852Y-117144122D01*
X147115086Y-116962295D01*
X147074680Y-116962295D01*
X147014071Y-116942092D01*
X146913055Y-116841077D01*
X146892852Y-116780467D01*
X146892852Y-116740061D01*
X146913055Y-116679452D01*
X147014071Y-116578437D01*
X147074680Y-116558234D01*
X147115086Y-116558234D01*
X147175695Y-116578437D01*
X147276710Y-116679452D01*
X147296913Y-116740061D01*
X147296913Y-116780467D01*
X137419756Y-117351935D02*
X137217725Y-117149904D01*
X137581380Y-117271122D02*
X137015695Y-117553965D01*
X137298538Y-116988280D01*
X136934883Y-116624625D02*
X137177319Y-116867061D01*
X137056101Y-116745843D02*
X136631837Y-117170107D01*
X136732852Y-117149904D01*
X136813664Y-117149904D01*
X136874274Y-117170107D01*
X150119756Y-117250335D02*
X149917725Y-117048304D01*
X150281380Y-117169522D02*
X149715695Y-117452365D01*
X149998538Y-116886680D01*
X149251025Y-116987695D02*
X149331837Y-117068507D01*
X149392446Y-117088710D01*
X149432852Y-117088710D01*
X149533867Y-117068507D01*
X149634883Y-117007898D01*
X149796507Y-116846274D01*
X149816710Y-116785664D01*
X149816710Y-116745258D01*
X149796507Y-116684649D01*
X149715695Y-116603837D01*
X149655086Y-116583634D01*
X149614680Y-116583634D01*
X149554071Y-116603837D01*
X149453055Y-116704852D01*
X149432852Y-116765461D01*
X149432852Y-116805867D01*
X149453055Y-116866477D01*
X149533867Y-116947289D01*
X149594477Y-116967492D01*
X149634883Y-116967492D01*
X149695492Y-116947289D01*
X145039756Y-117224935D02*
X144837725Y-117022904D01*
X145201380Y-117144122D02*
X144635695Y-117426965D01*
X144918538Y-116861280D01*
X144312446Y-116820874D02*
X144595289Y-116538031D01*
X144251837Y-117083513D02*
X144655898Y-116881483D01*
X144393258Y-116618843D01*
X142499756Y-117250335D02*
X142297725Y-117048304D01*
X142661380Y-117169522D02*
X142095695Y-117452365D01*
X142378538Y-116886680D01*
X141853258Y-117209928D02*
X141590619Y-116947289D01*
X141893664Y-116927086D01*
X141833055Y-116866477D01*
X141812852Y-116805867D01*
X141812852Y-116765461D01*
X141833055Y-116704852D01*
X141934071Y-116603837D01*
X141994680Y-116583634D01*
X142035086Y-116583634D01*
X142095695Y-116603837D01*
X142216913Y-116725055D01*
X142237116Y-116785664D01*
X142237116Y-116826071D01*
X139959756Y-117351935D02*
X139757725Y-117149904D01*
X140121380Y-117271122D02*
X139555695Y-117553965D01*
X139838538Y-116988280D01*
X139333461Y-117250919D02*
X139293055Y-117250919D01*
X139232446Y-117230716D01*
X139131431Y-117129701D01*
X139111228Y-117069092D01*
X139111228Y-117028686D01*
X139131431Y-116968077D01*
X139171837Y-116927671D01*
X139252649Y-116887264D01*
X139737522Y-116887264D01*
X139474883Y-116624625D01*
X155331076Y-117266218D02*
X154906812Y-117690482D01*
X154805796Y-117589467D01*
X154765390Y-117508654D01*
X154765390Y-117427842D01*
X154785593Y-117367233D01*
X154846203Y-117266218D01*
X154906812Y-117205609D01*
X155007827Y-117145000D01*
X155068436Y-117124796D01*
X155149248Y-117124796D01*
X155230061Y-117165203D01*
X155331076Y-117266218D01*
X154543157Y-117246015D02*
X154502751Y-117246015D01*
X154442142Y-117225812D01*
X154341126Y-117124796D01*
X154320923Y-117064187D01*
X154320923Y-117023781D01*
X154341126Y-116963172D01*
X154381532Y-116922766D01*
X154462345Y-116882360D01*
X154947218Y-116882360D01*
X154684578Y-116619720D01*
X157998076Y-117139218D02*
X157573812Y-117563482D01*
X157472796Y-117462467D01*
X157432390Y-117381654D01*
X157432390Y-117300842D01*
X157452593Y-117240233D01*
X157513203Y-117139218D01*
X157573812Y-117078609D01*
X157674827Y-117018000D01*
X157735436Y-116997796D01*
X157816248Y-116997796D01*
X157897061Y-117038203D01*
X157998076Y-117139218D01*
X157189954Y-117179624D02*
X156927314Y-116916984D01*
X157230360Y-116896781D01*
X157169751Y-116836172D01*
X157149548Y-116775563D01*
X157149548Y-116735157D01*
X157169751Y-116674548D01*
X157270766Y-116573532D01*
X157331375Y-116553329D01*
X157371781Y-116553329D01*
X157432390Y-116573532D01*
X157553609Y-116694751D01*
X157573812Y-116755360D01*
X157573812Y-116795766D01*
X152791076Y-117266218D02*
X152366812Y-117690482D01*
X152265796Y-117589467D01*
X152225390Y-117508654D01*
X152225390Y-117427842D01*
X152245593Y-117367233D01*
X152306203Y-117266218D01*
X152366812Y-117205609D01*
X152467827Y-117145000D01*
X152528436Y-117124796D01*
X152609248Y-117124796D01*
X152690061Y-117165203D01*
X152791076Y-117266218D01*
X152144578Y-116619720D02*
X152387015Y-116862157D01*
X152265796Y-116740938D02*
X151841532Y-117165203D01*
X151942548Y-117145000D01*
X152023360Y-117145000D01*
X152083969Y-117165203D01*
X162951076Y-117139218D02*
X162526812Y-117563482D01*
X162425796Y-117462467D01*
X162385390Y-117381654D01*
X162385390Y-117300842D01*
X162405593Y-117240233D01*
X162466203Y-117139218D01*
X162526812Y-117078609D01*
X162627827Y-117018000D01*
X162688436Y-116997796D01*
X162769248Y-116997796D01*
X162850061Y-117038203D01*
X162951076Y-117139218D01*
X161900517Y-116937187D02*
X162102548Y-117139218D01*
X162324781Y-116957390D01*
X162284375Y-116957390D01*
X162223766Y-116937187D01*
X162122751Y-116836172D01*
X162102548Y-116775563D01*
X162102548Y-116735157D01*
X162122751Y-116674548D01*
X162223766Y-116573532D01*
X162284375Y-116553329D01*
X162324781Y-116553329D01*
X162385390Y-116573532D01*
X162486406Y-116674548D01*
X162506609Y-116735157D01*
X162506609Y-116775563D01*
X160411076Y-117139218D02*
X159986812Y-117563482D01*
X159885796Y-117462467D01*
X159845390Y-117381654D01*
X159845390Y-117300842D01*
X159865593Y-117240233D01*
X159926203Y-117139218D01*
X159986812Y-117078609D01*
X160087827Y-117018000D01*
X160148436Y-116997796D01*
X160229248Y-116997796D01*
X160310061Y-117038203D01*
X160411076Y-117139218D01*
X159522142Y-116815969D02*
X159804984Y-116533126D01*
X159461532Y-117078609D02*
X159865593Y-116876578D01*
X159602954Y-116613938D01*
D12*
G36*
X141851566Y-107706506D02*
G01*
X142037484Y-107799204D01*
X142201580Y-107969885D01*
X142246772Y-108033107D01*
X142296004Y-108115834D01*
X142327947Y-108205687D01*
X142346222Y-108325608D01*
X142354448Y-108498537D01*
X142356255Y-108726835D01*
X142348097Y-109039693D01*
X142319741Y-109274598D01*
X142265362Y-109449847D01*
X142179137Y-109583738D01*
X142055241Y-109694569D01*
X142046137Y-109701131D01*
X141924034Y-109768256D01*
X141777000Y-109801467D01*
X141590004Y-109809655D01*
X141286013Y-109809655D01*
X141285885Y-110104762D01*
X141283056Y-110269117D01*
X141265818Y-110365523D01*
X141220770Y-110423343D01*
X141134514Y-110471941D01*
X141113799Y-110481869D01*
X141016862Y-110528398D01*
X140941807Y-110557786D01*
X140885998Y-110560324D01*
X140846797Y-110526302D01*
X140821568Y-110446012D01*
X140807672Y-110309743D01*
X140802473Y-110107787D01*
X140803334Y-109830434D01*
X140807616Y-109467976D01*
X140808953Y-109359560D01*
X140813771Y-108985837D01*
X140818087Y-108741369D01*
X141285757Y-108741369D01*
X141288385Y-108948877D01*
X141300067Y-109084645D01*
X141326497Y-109174192D01*
X141373369Y-109243039D01*
X141405193Y-109276618D01*
X141535292Y-109374869D01*
X141650479Y-109382866D01*
X141769334Y-109301730D01*
X141772347Y-109298736D01*
X141820705Y-109236030D01*
X141850122Y-109150808D01*
X141864960Y-109019564D01*
X141869581Y-108818793D01*
X141869665Y-108774314D01*
X141858498Y-108497639D01*
X141822147Y-108305842D01*
X141756341Y-108188757D01*
X141656807Y-108136215D01*
X141599281Y-108130920D01*
X141462751Y-108155767D01*
X141369102Y-108237581D01*
X141312730Y-108387270D01*
X141288033Y-108615743D01*
X141285757Y-108741369D01*
X140818087Y-108741369D01*
X140818878Y-108696587D01*
X140825478Y-108478970D01*
X140834777Y-108320146D01*
X140847977Y-108207274D01*
X140866285Y-108127513D01*
X140890903Y-108068023D01*
X140923037Y-108015963D01*
X140936815Y-107996373D01*
X141119588Y-107811328D01*
X141350676Y-107706412D01*
X141617990Y-107677163D01*
X141851566Y-107706506D01*
G37*
X141851566Y-107706506D02*
X142037484Y-107799204D01*
X142201580Y-107969885D01*
X142246772Y-108033107D01*
X142296004Y-108115834D01*
X142327947Y-108205687D01*
X142346222Y-108325608D01*
X142354448Y-108498537D01*
X142356255Y-108726835D01*
X142348097Y-109039693D01*
X142319741Y-109274598D01*
X142265362Y-109449847D01*
X142179137Y-109583738D01*
X142055241Y-109694569D01*
X142046137Y-109701131D01*
X141924034Y-109768256D01*
X141777000Y-109801467D01*
X141590004Y-109809655D01*
X141286013Y-109809655D01*
X141285885Y-110104762D01*
X141283056Y-110269117D01*
X141265818Y-110365523D01*
X141220770Y-110423343D01*
X141134514Y-110471941D01*
X141113799Y-110481869D01*
X141016862Y-110528398D01*
X140941807Y-110557786D01*
X140885998Y-110560324D01*
X140846797Y-110526302D01*
X140821568Y-110446012D01*
X140807672Y-110309743D01*
X140802473Y-110107787D01*
X140803334Y-109830434D01*
X140807616Y-109467976D01*
X140808953Y-109359560D01*
X140813771Y-108985837D01*
X140818087Y-108741369D01*
X141285757Y-108741369D01*
X141288385Y-108948877D01*
X141300067Y-109084645D01*
X141326497Y-109174192D01*
X141373369Y-109243039D01*
X141405193Y-109276618D01*
X141535292Y-109374869D01*
X141650479Y-109382866D01*
X141769334Y-109301730D01*
X141772347Y-109298736D01*
X141820705Y-109236030D01*
X141850122Y-109150808D01*
X141864960Y-109019564D01*
X141869581Y-108818793D01*
X141869665Y-108774314D01*
X141858498Y-108497639D01*
X141822147Y-108305842D01*
X141756341Y-108188757D01*
X141656807Y-108136215D01*
X141599281Y-108130920D01*
X141462751Y-108155767D01*
X141369102Y-108237581D01*
X141312730Y-108387270D01*
X141288033Y-108615743D01*
X141285757Y-108741369D01*
X140818087Y-108741369D01*
X140818878Y-108696587D01*
X140825478Y-108478970D01*
X140834777Y-108320146D01*
X140847977Y-108207274D01*
X140866285Y-108127513D01*
X140890903Y-108068023D01*
X140923037Y-108015963D01*
X140936815Y-107996373D01*
X141119588Y-107811328D01*
X141350676Y-107706412D01*
X141617990Y-107677163D01*
X141851566Y-107706506D01*
G36*
X145594116Y-107732865D02*
G01*
X145750272Y-107823190D01*
X145858841Y-107912845D01*
X145938245Y-108006776D01*
X145992946Y-108121646D01*
X146027410Y-108274114D01*
X146046101Y-108480844D01*
X146053481Y-108758496D01*
X146054339Y-108958086D01*
X146054339Y-109692766D01*
X145847538Y-109785472D01*
X145640738Y-109878179D01*
X145616408Y-109073492D01*
X145606355Y-108772966D01*
X145595809Y-108554835D01*
X145582743Y-108404186D01*
X145565129Y-108306107D01*
X145540939Y-108245688D01*
X145508146Y-108208016D01*
X145497625Y-108199862D01*
X145338213Y-108136178D01*
X145177079Y-108161378D01*
X145081159Y-108228238D01*
X145042141Y-108275616D01*
X145015133Y-108337787D01*
X144997968Y-108432039D01*
X144988482Y-108575657D01*
X144984507Y-108785931D01*
X144983841Y-109005070D01*
X144983710Y-109279999D01*
X144979003Y-109474602D01*
X144963246Y-109605851D01*
X144929967Y-109690718D01*
X144872693Y-109746177D01*
X144784953Y-109789201D01*
X144667762Y-109833907D01*
X144539768Y-109882571D01*
X144555004Y-109018910D01*
X144561139Y-108707565D01*
X144568318Y-108477483D01*
X144578605Y-108312614D01*
X144594070Y-108196909D01*
X144616779Y-108114316D01*
X144648799Y-108048788D01*
X144687403Y-107990974D01*
X144873653Y-107806283D01*
X145100921Y-107699481D01*
X145348109Y-107673898D01*
X145594116Y-107732865D01*
G37*
X145594116Y-107732865D02*
X145750272Y-107823190D01*
X145858841Y-107912845D01*
X145938245Y-108006776D01*
X145992946Y-108121646D01*
X146027410Y-108274114D01*
X146046101Y-108480844D01*
X146053481Y-108758496D01*
X146054339Y-108958086D01*
X146054339Y-109692766D01*
X145847538Y-109785472D01*
X145640738Y-109878179D01*
X145616408Y-109073492D01*
X145606355Y-108772966D01*
X145595809Y-108554835D01*
X145582743Y-108404186D01*
X145565129Y-108306107D01*
X145540939Y-108245688D01*
X145508146Y-108208016D01*
X145497625Y-108199862D01*
X145338213Y-108136178D01*
X145177079Y-108161378D01*
X145081159Y-108228238D01*
X145042141Y-108275616D01*
X145015133Y-108337787D01*
X144997968Y-108432039D01*
X144988482Y-108575657D01*
X144984507Y-108785931D01*
X144983841Y-109005070D01*
X144983710Y-109279999D01*
X144979003Y-109474602D01*
X144963246Y-109605851D01*
X144929967Y-109690718D01*
X144872693Y-109746177D01*
X144784953Y-109789201D01*
X144667762Y-109833907D01*
X144539768Y-109882571D01*
X144555004Y-109018910D01*
X144561139Y-108707565D01*
X144568318Y-108477483D01*
X144578605Y-108312614D01*
X144594070Y-108196909D01*
X144616779Y-108114316D01*
X144648799Y-108048788D01*
X144687403Y-107990974D01*
X144873653Y-107806283D01*
X145100921Y-107699481D01*
X145348109Y-107673898D01*
X145594116Y-107732865D01*
G36*
X139978768Y-107713358D02*
G01*
X140206836Y-107833280D01*
X140375152Y-108026278D01*
X140434941Y-108150355D01*
X140481466Y-108336653D01*
X140505282Y-108572045D01*
X140507540Y-108828952D01*
X140489392Y-109079799D01*
X140451989Y-109297009D01*
X140396484Y-109453005D01*
X140379425Y-109479871D01*
X140177370Y-109680415D01*
X139937378Y-109800529D01*
X139676966Y-109835680D01*
X139413647Y-109781337D01*
X139340367Y-109748756D01*
X139197661Y-109648353D01*
X139072414Y-109515225D01*
X139060577Y-109498341D01*
X139012465Y-109416969D01*
X138980662Y-109329984D01*
X138961874Y-109215475D01*
X138952808Y-109051530D01*
X138950171Y-108816240D01*
X138950125Y-108763487D01*
X138950246Y-108746699D01*
X139436715Y-108746699D01*
X139439546Y-108968761D01*
X139450688Y-109116123D01*
X139474109Y-109211308D01*
X139513781Y-109276837D01*
X139534033Y-109298736D01*
X139650460Y-109381953D01*
X139763498Y-109378158D01*
X139877791Y-109305973D01*
X139945959Y-109228911D01*
X139986330Y-109116429D01*
X140009002Y-108939055D01*
X140010557Y-108918367D01*
X140014427Y-108596911D01*
X139973983Y-108358167D01*
X139889774Y-108203600D01*
X139762347Y-108134678D01*
X139716860Y-108130920D01*
X139597419Y-108149821D01*
X139515717Y-108215306D01*
X139465763Y-108340544D01*
X139441566Y-108538704D01*
X139436715Y-108746699D01*
X138950246Y-108746699D01*
X138951937Y-108512765D01*
X138959547Y-108337582D01*
X138976214Y-108216191D01*
X139005199Y-108126847D01*
X139049760Y-108047803D01*
X139059607Y-108033107D01*
X139225120Y-107835011D01*
X139405470Y-107720014D01*
X139625035Y-107674365D01*
X139699595Y-107672135D01*
X139978768Y-107713358D01*
G37*
X139978768Y-107713358D02*
X140206836Y-107833280D01*
X140375152Y-108026278D01*
X140434941Y-108150355D01*
X140481466Y-108336653D01*
X140505282Y-108572045D01*
X140507540Y-108828952D01*
X140489392Y-109079799D01*
X140451989Y-109297009D01*
X140396484Y-109453005D01*
X140379425Y-109479871D01*
X140177370Y-109680415D01*
X139937378Y-109800529D01*
X139676966Y-109835680D01*
X139413647Y-109781337D01*
X139340367Y-109748756D01*
X139197661Y-109648353D01*
X139072414Y-109515225D01*
X139060577Y-109498341D01*
X139012465Y-109416969D01*
X138980662Y-109329984D01*
X138961874Y-109215475D01*
X138952808Y-109051530D01*
X138950171Y-108816240D01*
X138950125Y-108763487D01*
X138950246Y-108746699D01*
X139436715Y-108746699D01*
X139439546Y-108968761D01*
X139450688Y-109116123D01*
X139474109Y-109211308D01*
X139513781Y-109276837D01*
X139534033Y-109298736D01*
X139650460Y-109381953D01*
X139763498Y-109378158D01*
X139877791Y-109305973D01*
X139945959Y-109228911D01*
X139986330Y-109116429D01*
X140009002Y-108939055D01*
X140010557Y-108918367D01*
X140014427Y-108596911D01*
X139973983Y-108358167D01*
X139889774Y-108203600D01*
X139762347Y-108134678D01*
X139716860Y-108130920D01*
X139597419Y-108149821D01*
X139515717Y-108215306D01*
X139465763Y-108340544D01*
X139441566Y-108538704D01*
X139436715Y-108746699D01*
X138950246Y-108746699D01*
X138951937Y-108512765D01*
X138959547Y-108337582D01*
X138976214Y-108216191D01*
X139005199Y-108126847D01*
X139049760Y-108047803D01*
X139059607Y-108033107D01*
X139225120Y-107835011D01*
X139405470Y-107720014D01*
X139625035Y-107674365D01*
X139699595Y-107672135D01*
X139978768Y-107713358D01*
G36*
X143757653Y-107744461D02*
G01*
X143949497Y-107873519D01*
X144097752Y-108059915D01*
X144186316Y-108297109D01*
X144204228Y-108471691D01*
X144202194Y-108544544D01*
X144185160Y-108600324D01*
X144138336Y-108650298D01*
X144046927Y-108705733D01*
X143896142Y-108777896D01*
X143671187Y-108878055D01*
X143670048Y-108878558D01*
X143462985Y-108973396D01*
X143293188Y-109057609D01*
X143178012Y-109122133D01*
X143134810Y-109157900D01*
X143134799Y-109158188D01*
X143172875Y-109236074D01*
X143261916Y-109321924D01*
X143364137Y-109383769D01*
X143415926Y-109396054D01*
X143557216Y-109353564D01*
X143678888Y-109247152D01*
X143738255Y-109130156D01*
X143795367Y-109043905D01*
X143907239Y-108945681D01*
X144038746Y-108860827D01*
X144154768Y-108814681D01*
X144179029Y-108812146D01*
X144206338Y-108853868D01*
X144207984Y-108960519D01*
X144187914Y-109104321D01*
X144150078Y-109257501D01*
X144098423Y-109392283D01*
X144095814Y-109397516D01*
X143940369Y-109614557D01*
X143738907Y-109762185D01*
X143510112Y-109834644D01*
X143272667Y-109826177D01*
X143045254Y-109731027D01*
X143035143Y-109724337D01*
X142856250Y-109562211D01*
X142738620Y-109350682D01*
X142673523Y-109072543D01*
X142664787Y-108994398D01*
X142649314Y-108625549D01*
X142667863Y-108453541D01*
X143134799Y-108453541D01*
X143140866Y-108560838D01*
X143174049Y-108592152D01*
X143256777Y-108568725D01*
X143387179Y-108513348D01*
X143532943Y-108443932D01*
X143536566Y-108442094D01*
X143660117Y-108377108D01*
X143709703Y-108333740D01*
X143697475Y-108288275D01*
X143645988Y-108228536D01*
X143515001Y-108142085D01*
X143373938Y-108135733D01*
X143247405Y-108198649D01*
X143160008Y-108320003D01*
X143134799Y-108453541D01*
X142667863Y-108453541D01*
X142681140Y-108330435D01*
X142762791Y-108096382D01*
X142876461Y-107932413D01*
X143081625Y-107766716D01*
X143307614Y-107684519D01*
X143538325Y-107679281D01*
X143757653Y-107744461D01*
G37*
X143757653Y-107744461D02*
X143949497Y-107873519D01*
X144097752Y-108059915D01*
X144186316Y-108297109D01*
X144204228Y-108471691D01*
X144202194Y-108544544D01*
X144185160Y-108600324D01*
X144138336Y-108650298D01*
X144046927Y-108705733D01*
X143896142Y-108777896D01*
X143671187Y-108878055D01*
X143670048Y-108878558D01*
X143462985Y-108973396D01*
X143293188Y-109057609D01*
X143178012Y-109122133D01*
X143134810Y-109157900D01*
X143134799Y-109158188D01*
X143172875Y-109236074D01*
X143261916Y-109321924D01*
X143364137Y-109383769D01*
X143415926Y-109396054D01*
X143557216Y-109353564D01*
X143678888Y-109247152D01*
X143738255Y-109130156D01*
X143795367Y-109043905D01*
X143907239Y-108945681D01*
X144038746Y-108860827D01*
X144154768Y-108814681D01*
X144179029Y-108812146D01*
X144206338Y-108853868D01*
X144207984Y-108960519D01*
X144187914Y-109104321D01*
X144150078Y-109257501D01*
X144098423Y-109392283D01*
X144095814Y-109397516D01*
X143940369Y-109614557D01*
X143738907Y-109762185D01*
X143510112Y-109834644D01*
X143272667Y-109826177D01*
X143045254Y-109731027D01*
X143035143Y-109724337D01*
X142856250Y-109562211D01*
X142738620Y-109350682D01*
X142673523Y-109072543D01*
X142664787Y-108994398D01*
X142649314Y-108625549D01*
X142667863Y-108453541D01*
X143134799Y-108453541D01*
X143140866Y-108560838D01*
X143174049Y-108592152D01*
X143256777Y-108568725D01*
X143387179Y-108513348D01*
X143532943Y-108443932D01*
X143536566Y-108442094D01*
X143660117Y-108377108D01*
X143709703Y-108333740D01*
X143697475Y-108288275D01*
X143645988Y-108228536D01*
X143515001Y-108142085D01*
X143373938Y-108135733D01*
X143247405Y-108198649D01*
X143160008Y-108320003D01*
X143134799Y-108453541D01*
X142667863Y-108453541D01*
X142681140Y-108330435D01*
X142762791Y-108096382D01*
X142876461Y-107932413D01*
X143081625Y-107766716D01*
X143307614Y-107684519D01*
X143538325Y-107679281D01*
X143757653Y-107744461D01*
G36*
X147806063Y-107476429D02*
G01*
X147820323Y-107675313D01*
X147836702Y-107792511D01*
X147859398Y-107843632D01*
X147892612Y-107844286D01*
X147903381Y-107838183D01*
X148046633Y-107793997D01*
X148232975Y-107796577D01*
X148422424Y-107841999D01*
X148540917Y-107900759D01*
X148662409Y-107994631D01*
X148751223Y-108100865D01*
X148812192Y-108235850D01*
X148850150Y-108415976D01*
X148869932Y-108657633D01*
X148876370Y-108977211D01*
X148876486Y-109038516D01*
X148876561Y-109727147D01*
X148723323Y-109780566D01*
X148614487Y-109816908D01*
X148554774Y-109833828D01*
X148553017Y-109833985D01*
X148547136Y-109788100D01*
X148542132Y-109661539D01*
X148538384Y-109470941D01*
X148536273Y-109232948D01*
X148535948Y-109088252D01*
X148535271Y-108802955D01*
X148531786Y-108598480D01*
X148523312Y-108458334D01*
X148507666Y-108366023D01*
X148482669Y-108305053D01*
X148446138Y-108258931D01*
X148423329Y-108236720D01*
X148266649Y-108147214D01*
X148095674Y-108140511D01*
X147940550Y-108216208D01*
X147911863Y-108243539D01*
X147869787Y-108294929D01*
X147840601Y-108355886D01*
X147821971Y-108444025D01*
X147811561Y-108576961D01*
X147807037Y-108772309D01*
X147806063Y-109041652D01*
X147806063Y-109727147D01*
X147652825Y-109780566D01*
X147543989Y-109816908D01*
X147484276Y-109833828D01*
X147482519Y-109833985D01*
X147478025Y-109787414D01*
X147473975Y-109656051D01*
X147470530Y-109452422D01*
X147467853Y-109189054D01*
X147466106Y-108878471D01*
X147465451Y-108533201D01*
X147465450Y-108517843D01*
X147465450Y-107201701D01*
X147781734Y-107068289D01*
X147806063Y-107476429D01*
G37*
X147806063Y-107476429D02*
X147820323Y-107675313D01*
X147836702Y-107792511D01*
X147859398Y-107843632D01*
X147892612Y-107844286D01*
X147903381Y-107838183D01*
X148046633Y-107793997D01*
X148232975Y-107796577D01*
X148422424Y-107841999D01*
X148540917Y-107900759D01*
X148662409Y-107994631D01*
X148751223Y-108100865D01*
X148812192Y-108235850D01*
X148850150Y-108415976D01*
X148869932Y-108657633D01*
X148876370Y-108977211D01*
X148876486Y-109038516D01*
X148876561Y-109727147D01*
X148723323Y-109780566D01*
X148614487Y-109816908D01*
X148554774Y-109833828D01*
X148553017Y-109833985D01*
X148547136Y-109788100D01*
X148542132Y-109661539D01*
X148538384Y-109470941D01*
X148536273Y-109232948D01*
X148535948Y-109088252D01*
X148535271Y-108802955D01*
X148531786Y-108598480D01*
X148523312Y-108458334D01*
X148507666Y-108366023D01*
X148482669Y-108305053D01*
X148446138Y-108258931D01*
X148423329Y-108236720D01*
X148266649Y-108147214D01*
X148095674Y-108140511D01*
X147940550Y-108216208D01*
X147911863Y-108243539D01*
X147869787Y-108294929D01*
X147840601Y-108355886D01*
X147821971Y-108444025D01*
X147811561Y-108576961D01*
X147807037Y-108772309D01*
X147806063Y-109041652D01*
X147806063Y-109727147D01*
X147652825Y-109780566D01*
X147543989Y-109816908D01*
X147484276Y-109833828D01*
X147482519Y-109833985D01*
X147478025Y-109787414D01*
X147473975Y-109656051D01*
X147470530Y-109452422D01*
X147467853Y-109189054D01*
X147466106Y-108878471D01*
X147465451Y-108533201D01*
X147465450Y-108517843D01*
X147465450Y-107201701D01*
X147781734Y-107068289D01*
X147806063Y-107476429D01*
G36*
X150031641Y-107810601D02*
G01*
X150222305Y-107881403D01*
X150224486Y-107882764D01*
X150342406Y-107969550D01*
X150429460Y-108070973D01*
X150490686Y-108203145D01*
X150531123Y-108382182D01*
X150555809Y-108624195D01*
X150569782Y-108945299D01*
X150571007Y-108991048D01*
X150588600Y-109680869D01*
X150440552Y-109757427D01*
X150333430Y-109809163D01*
X150268751Y-109833678D01*
X150265759Y-109833985D01*
X150254566Y-109788751D01*
X150245675Y-109666736D01*
X150240206Y-109488468D01*
X150239013Y-109344116D01*
X150238986Y-109110271D01*
X150228296Y-108963419D01*
X150191033Y-108893376D01*
X150111288Y-108889958D01*
X149973149Y-108942983D01*
X149764588Y-109040454D01*
X149611229Y-109121409D01*
X149532352Y-109191644D01*
X149509164Y-109268194D01*
X149509128Y-109271982D01*
X149547393Y-109403852D01*
X149660683Y-109475091D01*
X149834064Y-109485410D01*
X149958950Y-109483620D01*
X150024799Y-109519589D01*
X150065864Y-109605985D01*
X150089499Y-109716054D01*
X150055439Y-109778508D01*
X150042614Y-109787446D01*
X149921872Y-109823343D01*
X149752788Y-109828426D01*
X149578661Y-109804631D01*
X149455276Y-109761147D01*
X149284687Y-109616309D01*
X149187719Y-109414694D01*
X149168515Y-109257180D01*
X149183170Y-109115104D01*
X149236201Y-108999127D01*
X149341206Y-108896121D01*
X149511786Y-108792954D01*
X149761538Y-108676496D01*
X149776753Y-108669914D01*
X150001729Y-108565981D01*
X150140557Y-108480743D01*
X150200062Y-108404147D01*
X150187072Y-108326139D01*
X150108412Y-108236664D01*
X150084890Y-108216073D01*
X149927333Y-108136236D01*
X149764077Y-108139597D01*
X149621895Y-108217874D01*
X149527560Y-108362781D01*
X149518795Y-108391224D01*
X149433438Y-108529174D01*
X149325129Y-108595620D01*
X149168515Y-108661471D01*
X149168515Y-108491097D01*
X149216156Y-108243454D01*
X149357559Y-108016307D01*
X149431142Y-107940318D01*
X149598409Y-107842790D01*
X149811126Y-107798640D01*
X150031641Y-107810601D01*
G37*
X150031641Y-107810601D02*
X150222305Y-107881403D01*
X150224486Y-107882764D01*
X150342406Y-107969550D01*
X150429460Y-108070973D01*
X150490686Y-108203145D01*
X150531123Y-108382182D01*
X150555809Y-108624195D01*
X150569782Y-108945299D01*
X150571007Y-108991048D01*
X150588600Y-109680869D01*
X150440552Y-109757427D01*
X150333430Y-109809163D01*
X150268751Y-109833678D01*
X150265759Y-109833985D01*
X150254566Y-109788751D01*
X150245675Y-109666736D01*
X150240206Y-109488468D01*
X150239013Y-109344116D01*
X150238986Y-109110271D01*
X150228296Y-108963419D01*
X150191033Y-108893376D01*
X150111288Y-108889958D01*
X149973149Y-108942983D01*
X149764588Y-109040454D01*
X149611229Y-109121409D01*
X149532352Y-109191644D01*
X149509164Y-109268194D01*
X149509128Y-109271982D01*
X149547393Y-109403852D01*
X149660683Y-109475091D01*
X149834064Y-109485410D01*
X149958950Y-109483620D01*
X150024799Y-109519589D01*
X150065864Y-109605985D01*
X150089499Y-109716054D01*
X150055439Y-109778508D01*
X150042614Y-109787446D01*
X149921872Y-109823343D01*
X149752788Y-109828426D01*
X149578661Y-109804631D01*
X149455276Y-109761147D01*
X149284687Y-109616309D01*
X149187719Y-109414694D01*
X149168515Y-109257180D01*
X149183170Y-109115104D01*
X149236201Y-108999127D01*
X149341206Y-108896121D01*
X149511786Y-108792954D01*
X149761538Y-108676496D01*
X149776753Y-108669914D01*
X150001729Y-108565981D01*
X150140557Y-108480743D01*
X150200062Y-108404147D01*
X150187072Y-108326139D01*
X150108412Y-108236664D01*
X150084890Y-108216073D01*
X149927333Y-108136236D01*
X149764077Y-108139597D01*
X149621895Y-108217874D01*
X149527560Y-108362781D01*
X149518795Y-108391224D01*
X149433438Y-108529174D01*
X149325129Y-108595620D01*
X149168515Y-108661471D01*
X149168515Y-108491097D01*
X149216156Y-108243454D01*
X149357559Y-108016307D01*
X149431142Y-107940318D01*
X149598409Y-107842790D01*
X149811126Y-107798640D01*
X150031641Y-107810601D01*
G36*
X151674972Y-107806534D02*
G01*
X151896009Y-107888099D01*
X152075083Y-108032366D01*
X152145120Y-108133920D01*
X152221471Y-108320268D01*
X152219885Y-108455010D01*
X152139747Y-108545631D01*
X152110096Y-108561040D01*
X151982074Y-108609084D01*
X151916694Y-108596776D01*
X151894548Y-108516098D01*
X151893420Y-108471533D01*
X151852877Y-108307581D01*
X151747202Y-108192891D01*
X151600324Y-108137497D01*
X151436173Y-108151435D01*
X151302737Y-108223827D01*
X151257669Y-108265120D01*
X151225723Y-108315216D01*
X151204144Y-108390942D01*
X151190173Y-108509128D01*
X151181055Y-108686600D01*
X151174031Y-108940186D01*
X151172212Y-109020479D01*
X151165578Y-109295158D01*
X151158036Y-109488481D01*
X151146725Y-109616388D01*
X151128785Y-109694822D01*
X151101355Y-109739725D01*
X151061577Y-109767038D01*
X151036110Y-109779105D01*
X150927956Y-109820367D01*
X150864290Y-109833985D01*
X150843254Y-109788505D01*
X150830413Y-109651006D01*
X150825700Y-109419902D01*
X150829044Y-109093604D01*
X150830086Y-109043276D01*
X150837435Y-108745581D01*
X150846126Y-108528205D01*
X150858492Y-108374153D01*
X150876870Y-108266430D01*
X150903595Y-108188042D01*
X150941002Y-108121994D01*
X150960570Y-108093691D01*
X151072766Y-107968467D01*
X151198250Y-107871063D01*
X151213613Y-107862561D01*
X151438623Y-107795433D01*
X151674972Y-107806534D01*
G37*
X151674972Y-107806534D02*
X151896009Y-107888099D01*
X152075083Y-108032366D01*
X152145120Y-108133920D01*
X152221471Y-108320268D01*
X152219885Y-108455010D01*
X152139747Y-108545631D01*
X152110096Y-108561040D01*
X151982074Y-108609084D01*
X151916694Y-108596776D01*
X151894548Y-108516098D01*
X151893420Y-108471533D01*
X151852877Y-108307581D01*
X151747202Y-108192891D01*
X151600324Y-108137497D01*
X151436173Y-108151435D01*
X151302737Y-108223827D01*
X151257669Y-108265120D01*
X151225723Y-108315216D01*
X151204144Y-108390942D01*
X151190173Y-108509128D01*
X151181055Y-108686600D01*
X151174031Y-108940186D01*
X151172212Y-109020479D01*
X151165578Y-109295158D01*
X151158036Y-109488481D01*
X151146725Y-109616388D01*
X151128785Y-109694822D01*
X151101355Y-109739725D01*
X151061577Y-109767038D01*
X151036110Y-109779105D01*
X150927956Y-109820367D01*
X150864290Y-109833985D01*
X150843254Y-109788505D01*
X150830413Y-109651006D01*
X150825700Y-109419902D01*
X150829044Y-109093604D01*
X150830086Y-109043276D01*
X150837435Y-108745581D01*
X150846126Y-108528205D01*
X150858492Y-108374153D01*
X150876870Y-108266430D01*
X150903595Y-108188042D01*
X150941002Y-108121994D01*
X150960570Y-108093691D01*
X151072766Y-107968467D01*
X151198250Y-107871063D01*
X151213613Y-107862561D01*
X151438623Y-107795433D01*
X151674972Y-107806534D01*
G36*
X153888257Y-108194093D02*
G01*
X153887639Y-108557769D01*
X153885247Y-108837532D01*
X153880071Y-109046784D01*
X153871104Y-109198926D01*
X153857336Y-109307359D01*
X153837761Y-109385485D01*
X153811368Y-109446707D01*
X153791384Y-109481652D01*
X153625883Y-109671157D01*
X153416048Y-109789942D01*
X153183886Y-109832564D01*
X152951408Y-109793583D01*
X152812972Y-109723532D01*
X152667642Y-109602353D01*
X152568595Y-109454354D01*
X152508835Y-109260534D01*
X152481369Y-109001892D01*
X152477479Y-108812146D01*
X152478003Y-108798510D01*
X152817941Y-108798510D01*
X152820017Y-109016096D01*
X152829530Y-109160134D01*
X152851408Y-109254364D01*
X152890576Y-109322523D01*
X152937376Y-109373936D01*
X153094546Y-109473175D01*
X153263300Y-109481653D01*
X153422793Y-109398799D01*
X153435207Y-109387572D01*
X153488191Y-109329171D01*
X153521414Y-109259686D01*
X153539400Y-109156270D01*
X153546675Y-108996073D01*
X153547826Y-108818965D01*
X153545332Y-108596467D01*
X153535008Y-108448037D01*
X153512591Y-108350489D01*
X153473818Y-108280637D01*
X153442026Y-108243539D01*
X153294339Y-108149975D01*
X153124246Y-108138725D01*
X152961892Y-108210190D01*
X152930560Y-108236720D01*
X152877222Y-108295636D01*
X152843931Y-108365837D01*
X152826056Y-108470418D01*
X152818966Y-108632479D01*
X152817941Y-108798510D01*
X152478003Y-108798510D01*
X152489240Y-108506579D01*
X152529187Y-108276993D01*
X152604313Y-108104387D01*
X152721614Y-107969760D01*
X152812972Y-107900759D01*
X152979027Y-107826214D01*
X153171492Y-107791613D01*
X153350399Y-107800875D01*
X153450508Y-107838238D01*
X153489793Y-107848872D01*
X153515861Y-107809225D01*
X153534058Y-107702981D01*
X153547826Y-107541145D01*
X153562899Y-107360902D01*
X153583836Y-107252458D01*
X153621932Y-107190446D01*
X153688485Y-107149499D01*
X153730297Y-107131366D01*
X153888439Y-107065120D01*
X153888257Y-108194093D01*
G37*
X153888257Y-108194093D02*
X153887639Y-108557769D01*
X153885247Y-108837532D01*
X153880071Y-109046784D01*
X153871104Y-109198926D01*
X153857336Y-109307359D01*
X153837761Y-109385485D01*
X153811368Y-109446707D01*
X153791384Y-109481652D01*
X153625883Y-109671157D01*
X153416048Y-109789942D01*
X153183886Y-109832564D01*
X152951408Y-109793583D01*
X152812972Y-109723532D01*
X152667642Y-109602353D01*
X152568595Y-109454354D01*
X152508835Y-109260534D01*
X152481369Y-109001892D01*
X152477479Y-108812146D01*
X152478003Y-108798510D01*
X152817941Y-108798510D01*
X152820017Y-109016096D01*
X152829530Y-109160134D01*
X152851408Y-109254364D01*
X152890576Y-109322523D01*
X152937376Y-109373936D01*
X153094546Y-109473175D01*
X153263300Y-109481653D01*
X153422793Y-109398799D01*
X153435207Y-109387572D01*
X153488191Y-109329171D01*
X153521414Y-109259686D01*
X153539400Y-109156270D01*
X153546675Y-108996073D01*
X153547826Y-108818965D01*
X153545332Y-108596467D01*
X153535008Y-108448037D01*
X153512591Y-108350489D01*
X153473818Y-108280637D01*
X153442026Y-108243539D01*
X153294339Y-108149975D01*
X153124246Y-108138725D01*
X152961892Y-108210190D01*
X152930560Y-108236720D01*
X152877222Y-108295636D01*
X152843931Y-108365837D01*
X152826056Y-108470418D01*
X152818966Y-108632479D01*
X152817941Y-108798510D01*
X152478003Y-108798510D01*
X152489240Y-108506579D01*
X152529187Y-108276993D01*
X152604313Y-108104387D01*
X152721614Y-107969760D01*
X152812972Y-107900759D01*
X152979027Y-107826214D01*
X153171492Y-107791613D01*
X153350399Y-107800875D01*
X153450508Y-107838238D01*
X153489793Y-107848872D01*
X153515861Y-107809225D01*
X153534058Y-107702981D01*
X153547826Y-107541145D01*
X153562899Y-107360902D01*
X153583836Y-107252458D01*
X153621932Y-107190446D01*
X153688485Y-107149499D01*
X153730297Y-107131366D01*
X153888439Y-107065120D01*
X153888257Y-108194093D01*
G36*
X155865273Y-107836400D02*
G01*
X155872699Y-107964422D01*
X155878518Y-108158985D01*
X155882259Y-108404702D01*
X155883458Y-108662426D01*
X155883458Y-109534545D01*
X155729475Y-109688528D01*
X155623363Y-109783412D01*
X155530216Y-109821845D01*
X155402904Y-109819413D01*
X155352368Y-109813223D01*
X155194417Y-109795210D01*
X155063771Y-109784888D01*
X155031925Y-109783935D01*
X154924566Y-109790171D01*
X154771019Y-109805824D01*
X154711483Y-109813223D01*
X154565257Y-109824668D01*
X154466989Y-109799808D01*
X154369550Y-109723058D01*
X154334376Y-109688528D01*
X154180393Y-109534545D01*
X154180393Y-107903246D01*
X154304330Y-107846776D01*
X154411050Y-107804950D01*
X154473487Y-107790307D01*
X154489496Y-107836583D01*
X154504458Y-107965884D01*
X154517378Y-108163914D01*
X154527257Y-108416380D01*
X154532022Y-108629675D01*
X154545335Y-109469042D01*
X154661480Y-109485464D01*
X154767116Y-109473982D01*
X154818877Y-109436805D01*
X154833345Y-109367298D01*
X154845698Y-109219240D01*
X154854952Y-109011391D01*
X154860128Y-108762512D01*
X154860874Y-108634435D01*
X154861619Y-107897145D01*
X155014857Y-107843726D01*
X155123316Y-107807406D01*
X155182313Y-107790468D01*
X155184014Y-107790307D01*
X155189933Y-107836349D01*
X155196439Y-107964018D01*
X155202986Y-108157632D01*
X155209027Y-108401507D01*
X155213248Y-108629675D01*
X155226561Y-109469042D01*
X155518515Y-109469042D01*
X155531913Y-108703275D01*
X155545310Y-107937508D01*
X155687638Y-107863908D01*
X155792722Y-107813366D01*
X155854917Y-107790431D01*
X155856712Y-107790307D01*
X155865273Y-107836400D01*
G37*
X155865273Y-107836400D02*
X155872699Y-107964422D01*
X155878518Y-108158985D01*
X155882259Y-108404702D01*
X155883458Y-108662426D01*
X155883458Y-109534545D01*
X155729475Y-109688528D01*
X155623363Y-109783412D01*
X155530216Y-109821845D01*
X155402904Y-109819413D01*
X155352368Y-109813223D01*
X155194417Y-109795210D01*
X155063771Y-109784888D01*
X155031925Y-109783935D01*
X154924566Y-109790171D01*
X154771019Y-109805824D01*
X154711483Y-109813223D01*
X154565257Y-109824668D01*
X154466989Y-109799808D01*
X154369550Y-109723058D01*
X154334376Y-109688528D01*
X154180393Y-109534545D01*
X154180393Y-107903246D01*
X154304330Y-107846776D01*
X154411050Y-107804950D01*
X154473487Y-107790307D01*
X154489496Y-107836583D01*
X154504458Y-107965884D01*
X154517378Y-108163914D01*
X154527257Y-108416380D01*
X154532022Y-108629675D01*
X154545335Y-109469042D01*
X154661480Y-109485464D01*
X154767116Y-109473982D01*
X154818877Y-109436805D01*
X154833345Y-109367298D01*
X154845698Y-109219240D01*
X154854952Y-109011391D01*
X154860128Y-108762512D01*
X154860874Y-108634435D01*
X154861619Y-107897145D01*
X155014857Y-107843726D01*
X155123316Y-107807406D01*
X155182313Y-107790468D01*
X155184014Y-107790307D01*
X155189933Y-107836349D01*
X155196439Y-107964018D01*
X155202986Y-108157632D01*
X155209027Y-108401507D01*
X155213248Y-108629675D01*
X155226561Y-109469042D01*
X155518515Y-109469042D01*
X155531913Y-108703275D01*
X155545310Y-107937508D01*
X155687638Y-107863908D01*
X155792722Y-107813366D01*
X155854917Y-107790431D01*
X155856712Y-107790307D01*
X155865273Y-107836400D01*
G36*
X157089078Y-107828594D02*
G01*
X157229182Y-107892323D01*
X157339150Y-107969543D01*
X157419724Y-108055887D01*
X157475354Y-108167272D01*
X157510489Y-108319616D01*
X157529579Y-108528835D01*
X157537072Y-108810846D01*
X157537864Y-108996555D01*
X157537864Y-109721046D01*
X157413927Y-109777515D01*
X157316310Y-109818787D01*
X157267950Y-109833985D01*
X157258698Y-109788762D01*
X157251358Y-109666824D01*
X157246864Y-109488772D01*
X157245910Y-109347395D01*
X157241810Y-109143146D01*
X157230754Y-108981113D01*
X157214611Y-108881891D01*
X157201787Y-108860805D01*
X157115586Y-108882338D01*
X156980262Y-108937566D01*
X156823570Y-109012436D01*
X156673263Y-109092892D01*
X156557093Y-109164880D01*
X156502813Y-109214346D01*
X156502598Y-109214881D01*
X156507267Y-109306428D01*
X156549132Y-109393820D01*
X156622635Y-109464802D01*
X156729916Y-109488543D01*
X156821602Y-109485777D01*
X156951458Y-109483741D01*
X157019621Y-109514164D01*
X157060559Y-109594543D01*
X157065721Y-109609700D01*
X157083467Y-109724331D01*
X157036009Y-109793934D01*
X156912307Y-109827105D01*
X156778681Y-109833240D01*
X156538217Y-109787763D01*
X156413738Y-109722817D01*
X156260005Y-109570246D01*
X156178473Y-109382971D01*
X156171156Y-109185085D01*
X156240069Y-109000685D01*
X156343728Y-108885134D01*
X156447223Y-108820442D01*
X156609892Y-108738542D01*
X156799454Y-108655486D01*
X156831050Y-108642795D01*
X157039269Y-108550908D01*
X157159298Y-108469923D01*
X157197901Y-108389413D01*
X157161840Y-108298950D01*
X157099933Y-108228238D01*
X156953613Y-108141170D01*
X156792617Y-108134640D01*
X156644973Y-108201735D01*
X156538710Y-108335544D01*
X156524762Y-108370067D01*
X156443560Y-108497042D01*
X156325008Y-108591309D01*
X156175412Y-108668668D01*
X156175412Y-108449307D01*
X156184217Y-108315280D01*
X156221970Y-108209644D01*
X156305679Y-108096939D01*
X156386036Y-108010127D01*
X156510991Y-107887204D01*
X156608077Y-107821171D01*
X156712354Y-107794684D01*
X156830389Y-107790307D01*
X157089078Y-107828594D01*
G37*
X157089078Y-107828594D02*
X157229182Y-107892323D01*
X157339150Y-107969543D01*
X157419724Y-108055887D01*
X157475354Y-108167272D01*
X157510489Y-108319616D01*
X157529579Y-108528835D01*
X157537072Y-108810846D01*
X157537864Y-108996555D01*
X157537864Y-109721046D01*
X157413927Y-109777515D01*
X157316310Y-109818787D01*
X157267950Y-109833985D01*
X157258698Y-109788762D01*
X157251358Y-109666824D01*
X157246864Y-109488772D01*
X157245910Y-109347395D01*
X157241810Y-109143146D01*
X157230754Y-108981113D01*
X157214611Y-108881891D01*
X157201787Y-108860805D01*
X157115586Y-108882338D01*
X156980262Y-108937566D01*
X156823570Y-109012436D01*
X156673263Y-109092892D01*
X156557093Y-109164880D01*
X156502813Y-109214346D01*
X156502598Y-109214881D01*
X156507267Y-109306428D01*
X156549132Y-109393820D01*
X156622635Y-109464802D01*
X156729916Y-109488543D01*
X156821602Y-109485777D01*
X156951458Y-109483741D01*
X157019621Y-109514164D01*
X157060559Y-109594543D01*
X157065721Y-109609700D01*
X157083467Y-109724331D01*
X157036009Y-109793934D01*
X156912307Y-109827105D01*
X156778681Y-109833240D01*
X156538217Y-109787763D01*
X156413738Y-109722817D01*
X156260005Y-109570246D01*
X156178473Y-109382971D01*
X156171156Y-109185085D01*
X156240069Y-109000685D01*
X156343728Y-108885134D01*
X156447223Y-108820442D01*
X156609892Y-108738542D01*
X156799454Y-108655486D01*
X156831050Y-108642795D01*
X157039269Y-108550908D01*
X157159298Y-108469923D01*
X157197901Y-108389413D01*
X157161840Y-108298950D01*
X157099933Y-108228238D01*
X156953613Y-108141170D01*
X156792617Y-108134640D01*
X156644973Y-108201735D01*
X156538710Y-108335544D01*
X156524762Y-108370067D01*
X156443560Y-108497042D01*
X156325008Y-108591309D01*
X156175412Y-108668668D01*
X156175412Y-108449307D01*
X156184217Y-108315280D01*
X156221970Y-108209644D01*
X156305679Y-108096939D01*
X156386036Y-108010127D01*
X156510991Y-107887204D01*
X156608077Y-107821171D01*
X156712354Y-107794684D01*
X156830389Y-107790307D01*
X157089078Y-107828594D01*
G36*
X158791216Y-107836697D02*
G01*
X158849376Y-107862116D01*
X158988195Y-107972059D01*
X159106905Y-108131030D01*
X159180321Y-108300677D01*
X159192270Y-108384313D01*
X159152209Y-108501078D01*
X159064335Y-108562862D01*
X158970118Y-108600273D01*
X158926977Y-108607167D01*
X158905971Y-108557138D01*
X158864490Y-108448269D01*
X158846292Y-108399076D01*
X158744248Y-108228913D01*
X158596503Y-108144038D01*
X158407055Y-108146648D01*
X158393023Y-108149991D01*
X158291881Y-108197945D01*
X158217524Y-108291432D01*
X158166738Y-108441939D01*
X158136308Y-108660951D01*
X158123018Y-108959956D01*
X158121772Y-109119056D01*
X158121154Y-109369855D01*
X158117105Y-109540825D01*
X158106333Y-109649454D01*
X158085547Y-109713230D01*
X158051455Y-109749643D01*
X158000765Y-109776179D01*
X157997835Y-109777515D01*
X157900218Y-109818787D01*
X157851858Y-109833985D01*
X157844427Y-109788037D01*
X157838066Y-109661034D01*
X157833232Y-109469235D01*
X157830385Y-109228902D01*
X157829818Y-109053024D01*
X157832713Y-108712688D01*
X157844037Y-108454495D01*
X157867746Y-108263374D01*
X157907797Y-108124253D01*
X157968147Y-108022060D01*
X158052753Y-107941724D01*
X158136299Y-107885655D01*
X158337191Y-107811032D01*
X158570996Y-107794202D01*
X158791216Y-107836697D01*
G37*
X158791216Y-107836697D02*
X158849376Y-107862116D01*
X158988195Y-107972059D01*
X159106905Y-108131030D01*
X159180321Y-108300677D01*
X159192270Y-108384313D01*
X159152209Y-108501078D01*
X159064335Y-108562862D01*
X158970118Y-108600273D01*
X158926977Y-108607167D01*
X158905971Y-108557138D01*
X158864490Y-108448269D01*
X158846292Y-108399076D01*
X158744248Y-108228913D01*
X158596503Y-108144038D01*
X158407055Y-108146648D01*
X158393023Y-108149991D01*
X158291881Y-108197945D01*
X158217524Y-108291432D01*
X158166738Y-108441939D01*
X158136308Y-108660951D01*
X158123018Y-108959956D01*
X158121772Y-109119056D01*
X158121154Y-109369855D01*
X158117105Y-109540825D01*
X158106333Y-109649454D01*
X158085547Y-109713230D01*
X158051455Y-109749643D01*
X158000765Y-109776179D01*
X157997835Y-109777515D01*
X157900218Y-109818787D01*
X157851858Y-109833985D01*
X157844427Y-109788037D01*
X157838066Y-109661034D01*
X157833232Y-109469235D01*
X157830385Y-109228902D01*
X157829818Y-109053024D01*
X157832713Y-108712688D01*
X157844037Y-108454495D01*
X157867746Y-108263374D01*
X157907797Y-108124253D01*
X157968147Y-108022060D01*
X158052753Y-107941724D01*
X158136299Y-107885655D01*
X158337191Y-107811032D01*
X158570996Y-107794202D01*
X158791216Y-107836697D01*
G36*
X160470799Y-107864233D02*
G01*
X160663317Y-107990057D01*
X160756174Y-108102696D01*
X160829740Y-108307092D01*
X160835583Y-108468830D01*
X160822347Y-108685094D01*
X160323592Y-108903398D01*
X160081085Y-109014930D01*
X159922629Y-109104650D01*
X159840236Y-109182361D01*
X159825918Y-109257867D01*
X159871687Y-109340971D01*
X159922155Y-109396054D01*
X160069005Y-109484389D01*
X160228728Y-109490579D01*
X160375420Y-109421735D01*
X160483181Y-109284972D01*
X160502455Y-109236680D01*
X160594776Y-109085848D01*
X160700988Y-109021567D01*
X160846676Y-108966576D01*
X160846676Y-109175057D01*
X160833796Y-109316926D01*
X160783343Y-109436563D01*
X160677597Y-109573927D01*
X160661880Y-109591777D01*
X160544255Y-109713986D01*
X160443146Y-109779570D01*
X160316650Y-109809742D01*
X160211784Y-109819623D01*
X160024211Y-109822085D01*
X159890684Y-109790892D01*
X159807383Y-109744579D01*
X159676463Y-109642735D01*
X159585839Y-109532591D01*
X159528487Y-109394069D01*
X159497380Y-109207090D01*
X159485494Y-108951577D01*
X159484545Y-108821894D01*
X159487771Y-108666421D01*
X159781566Y-108666421D01*
X159784973Y-108749827D01*
X159793466Y-108763487D01*
X159849510Y-108744931D01*
X159970118Y-108695822D01*
X160131313Y-108626002D01*
X160165022Y-108610995D01*
X160368739Y-108507404D01*
X160480979Y-108416359D01*
X160505647Y-108331081D01*
X160446645Y-108244794D01*
X160397918Y-108206667D01*
X160222094Y-108130417D01*
X160057527Y-108143014D01*
X159919754Y-108236086D01*
X159824313Y-108401256D01*
X159793714Y-108532357D01*
X159781566Y-108666421D01*
X159487771Y-108666421D01*
X159490832Y-108518919D01*
X159513999Y-108294756D01*
X159559890Y-108131526D01*
X159634354Y-108011352D01*
X159743236Y-107916355D01*
X159790705Y-107885655D01*
X160006338Y-107805703D01*
X160242421Y-107800672D01*
X160470799Y-107864233D01*
G37*
X160470799Y-107864233D02*
X160663317Y-107990057D01*
X160756174Y-108102696D01*
X160829740Y-108307092D01*
X160835583Y-108468830D01*
X160822347Y-108685094D01*
X160323592Y-108903398D01*
X160081085Y-109014930D01*
X159922629Y-109104650D01*
X159840236Y-109182361D01*
X159825918Y-109257867D01*
X159871687Y-109340971D01*
X159922155Y-109396054D01*
X160069005Y-109484389D01*
X160228728Y-109490579D01*
X160375420Y-109421735D01*
X160483181Y-109284972D01*
X160502455Y-109236680D01*
X160594776Y-109085848D01*
X160700988Y-109021567D01*
X160846676Y-108966576D01*
X160846676Y-109175057D01*
X160833796Y-109316926D01*
X160783343Y-109436563D01*
X160677597Y-109573927D01*
X160661880Y-109591777D01*
X160544255Y-109713986D01*
X160443146Y-109779570D01*
X160316650Y-109809742D01*
X160211784Y-109819623D01*
X160024211Y-109822085D01*
X159890684Y-109790892D01*
X159807383Y-109744579D01*
X159676463Y-109642735D01*
X159585839Y-109532591D01*
X159528487Y-109394069D01*
X159497380Y-109207090D01*
X159485494Y-108951577D01*
X159484545Y-108821894D01*
X159487771Y-108666421D01*
X159781566Y-108666421D01*
X159784973Y-108749827D01*
X159793466Y-108763487D01*
X159849510Y-108744931D01*
X159970118Y-108695822D01*
X160131313Y-108626002D01*
X160165022Y-108610995D01*
X160368739Y-108507404D01*
X160480979Y-108416359D01*
X160505647Y-108331081D01*
X160446645Y-108244794D01*
X160397918Y-108206667D01*
X160222094Y-108130417D01*
X160057527Y-108143014D01*
X159919754Y-108236086D01*
X159824313Y-108401256D01*
X159793714Y-108532357D01*
X159781566Y-108666421D01*
X159487771Y-108666421D01*
X159490832Y-108518919D01*
X159513999Y-108294756D01*
X159559890Y-108131526D01*
X159634354Y-108011352D01*
X159743236Y-107916355D01*
X159790705Y-107885655D01*
X160006338Y-107805703D01*
X160242421Y-107800672D01*
X160470799Y-107864233D01*
G36*
X150246757Y-92024997D02*
G01*
X150510077Y-92026439D01*
X150700646Y-92030342D01*
X150830745Y-92037937D01*
X150912657Y-92050450D01*
X150958666Y-92069111D01*
X150981053Y-92095148D01*
X150992102Y-92129788D01*
X150993176Y-92134272D01*
X151009959Y-92215189D01*
X151041025Y-92374842D01*
X151083142Y-92596238D01*
X151133079Y-92862385D01*
X151187603Y-93156290D01*
X151189507Y-93166612D01*
X151244123Y-93454636D01*
X151295222Y-93709115D01*
X151339506Y-93914785D01*
X151373679Y-94056385D01*
X151394443Y-94118650D01*
X151395433Y-94119753D01*
X151456599Y-94150159D01*
X151582710Y-94200828D01*
X151746531Y-94260822D01*
X151747443Y-94261142D01*
X151953788Y-94338704D01*
X152197060Y-94437507D01*
X152426369Y-94536848D01*
X152437222Y-94541760D01*
X152810717Y-94711276D01*
X153637765Y-94146495D01*
X153891477Y-93974320D01*
X154121302Y-93820395D01*
X154313925Y-93693474D01*
X154456032Y-93602309D01*
X154534307Y-93555655D01*
X154541740Y-93552195D01*
X154598624Y-93567600D01*
X154704869Y-93641927D01*
X154864619Y-93778681D01*
X155082016Y-93981368D01*
X155303948Y-94197008D01*
X155517891Y-94409503D01*
X155709369Y-94603410D01*
X155866855Y-94766754D01*
X155978822Y-94887561D01*
X156033743Y-94953855D01*
X156035786Y-94957268D01*
X156041858Y-95002761D01*
X156018984Y-95077056D01*
X155961515Y-95190186D01*
X155863799Y-95352185D01*
X155720184Y-95573086D01*
X155528733Y-95857460D01*
X155358823Y-96107759D01*
X155206938Y-96332250D01*
X155081855Y-96517900D01*
X154992349Y-96651675D01*
X154947200Y-96720542D01*
X154944358Y-96725218D01*
X154949870Y-96791201D01*
X154991655Y-96919448D01*
X155061397Y-97085720D01*
X155086254Y-97138819D01*
X155194711Y-97375377D01*
X155310420Y-97643789D01*
X155404415Y-97876035D01*
X155472145Y-98048407D01*
X155525943Y-98179403D01*
X155557031Y-98247867D01*
X155560896Y-98253142D01*
X155618071Y-98261880D01*
X155752848Y-98285823D01*
X155947306Y-98321562D01*
X156183525Y-98365689D01*
X156443584Y-98414795D01*
X156709563Y-98465472D01*
X156963543Y-98514313D01*
X157187601Y-98557909D01*
X157363820Y-98592851D01*
X157474277Y-98615732D01*
X157501370Y-98622201D01*
X157529356Y-98638167D01*
X157550481Y-98674227D01*
X157565697Y-98742552D01*
X157575953Y-98855315D01*
X157582200Y-99024686D01*
X157585388Y-99262838D01*
X157586467Y-99581942D01*
X157586523Y-99712741D01*
X157586523Y-100776511D01*
X157331063Y-100826933D01*
X157188937Y-100854273D01*
X156976850Y-100894182D01*
X156720593Y-100941845D01*
X156445958Y-100992446D01*
X156370048Y-101006344D01*
X156116621Y-101055617D01*
X155895847Y-101104070D01*
X155726257Y-101147215D01*
X155626380Y-101180563D01*
X155609743Y-101190502D01*
X155568889Y-101260891D01*
X155510313Y-101397283D01*
X155445355Y-101572805D01*
X155432471Y-101610613D01*
X155347334Y-101845030D01*
X155241656Y-102109524D01*
X155138240Y-102347041D01*
X155137730Y-102348144D01*
X154965512Y-102720733D01*
X155531924Y-103553893D01*
X156098335Y-104387053D01*
X155371102Y-105115500D01*
X155151148Y-105332302D01*
X154950532Y-105523414D01*
X154780522Y-105678636D01*
X154652385Y-105787764D01*
X154577389Y-105840595D01*
X154566631Y-105843947D01*
X154503467Y-105817549D01*
X154374580Y-105744160D01*
X154194049Y-105632484D01*
X153975954Y-105491224D01*
X153740154Y-105333027D01*
X153500836Y-105171664D01*
X153287459Y-105031252D01*
X153113575Y-104920431D01*
X152992734Y-104847838D01*
X152938663Y-104822108D01*
X152872694Y-104843880D01*
X152747598Y-104901251D01*
X152589180Y-104982300D01*
X152572387Y-104991309D01*
X152359052Y-105098300D01*
X152212764Y-105150772D01*
X152121780Y-105151330D01*
X152074359Y-105102580D01*
X152074083Y-105101897D01*
X152050380Y-105044164D01*
X151993849Y-104907115D01*
X151908874Y-104701357D01*
X151799838Y-104437498D01*
X151671124Y-104126144D01*
X151527115Y-103777904D01*
X151387651Y-103440744D01*
X151234380Y-103068666D01*
X151093651Y-102723987D01*
X150969682Y-102417271D01*
X150866691Y-102159085D01*
X150788896Y-101959994D01*
X150740514Y-101830565D01*
X150725604Y-101782261D01*
X150762994Y-101726850D01*
X150860798Y-101638538D01*
X150991215Y-101541174D01*
X151362623Y-101233253D01*
X151652930Y-100880304D01*
X151858656Y-100489761D01*
X151976323Y-100069057D01*
X152002451Y-99625629D01*
X151983460Y-99420958D01*
X151879983Y-98996323D01*
X151701773Y-98621336D01*
X151459882Y-98299696D01*
X151165363Y-98035101D01*
X150829271Y-97831250D01*
X150462658Y-97691842D01*
X150076577Y-97620574D01*
X149682081Y-97621145D01*
X149290225Y-97697254D01*
X148912060Y-97852599D01*
X148558640Y-98090879D01*
X148411127Y-98225639D01*
X148128216Y-98571679D01*
X147931232Y-98949826D01*
X147818864Y-99349055D01*
X147789801Y-99758345D01*
X147842731Y-100166672D01*
X147976343Y-100563013D01*
X148189325Y-100936345D01*
X148480366Y-101275645D01*
X148805586Y-101541174D01*
X148941052Y-101642671D01*
X149036749Y-101730025D01*
X149071197Y-101782343D01*
X149053160Y-101839398D01*
X149001862Y-101975698D01*
X148921524Y-102180678D01*
X148816364Y-102443772D01*
X148690604Y-102754416D01*
X148548463Y-103102043D01*
X148408765Y-103440826D01*
X148254641Y-103813222D01*
X148111882Y-104158307D01*
X147984871Y-104465477D01*
X147877989Y-104724125D01*
X147795620Y-104923647D01*
X147742147Y-105053435D01*
X147722333Y-105101897D01*
X147675524Y-105151129D01*
X147584983Y-105150985D01*
X147439058Y-105098877D01*
X147226098Y-104992216D01*
X147224414Y-104991309D01*
X147064070Y-104908536D01*
X146934452Y-104848242D01*
X146861363Y-104822346D01*
X146858137Y-104822108D01*
X146803116Y-104848374D01*
X146681643Y-104921416D01*
X146507271Y-105032595D01*
X146293550Y-105173273D01*
X146056647Y-105333027D01*
X145815455Y-105494779D01*
X145598074Y-105635450D01*
X145418584Y-105746335D01*
X145291064Y-105818730D01*
X145230170Y-105843947D01*
X145174097Y-105810803D01*
X145061360Y-105718173D01*
X144903223Y-105576257D01*
X144710951Y-105395255D01*
X144495809Y-105185369D01*
X144425448Y-105115249D01*
X143697966Y-104386552D01*
X144251695Y-103573900D01*
X144419977Y-103324342D01*
X144567671Y-103100366D01*
X144686490Y-102914949D01*
X144768150Y-102781065D01*
X144804364Y-102711690D01*
X144805425Y-102706755D01*
X144786333Y-102641364D01*
X144734982Y-102509825D01*
X144660260Y-102334181D01*
X144607812Y-102216591D01*
X144509746Y-101991461D01*
X144417393Y-101764015D01*
X144345794Y-101571839D01*
X144326344Y-101513295D01*
X144271086Y-101356956D01*
X144217069Y-101236158D01*
X144187399Y-101190502D01*
X144121924Y-101162561D01*
X143979024Y-101122951D01*
X143777239Y-101076162D01*
X143535112Y-101026683D01*
X143426753Y-101006344D01*
X143151589Y-100955781D01*
X142887654Y-100906822D01*
X142660741Y-100864281D01*
X142496639Y-100832975D01*
X142465738Y-100826933D01*
X142210278Y-100776511D01*
X142210278Y-99712741D01*
X142210852Y-99362950D01*
X142213207Y-99098300D01*
X142218293Y-98906622D01*
X142227061Y-98775744D01*
X142240462Y-98693493D01*
X142259446Y-98647698D01*
X142284962Y-98626188D01*
X142295431Y-98622201D01*
X142358574Y-98608056D01*
X142498075Y-98579834D01*
X142696011Y-98540943D01*
X142934465Y-98494792D01*
X143195514Y-98444788D01*
X143461239Y-98394341D01*
X143713719Y-98346858D01*
X143935035Y-98305748D01*
X144107266Y-98274419D01*
X144212492Y-98256278D01*
X144235905Y-98253142D01*
X144257116Y-98211173D01*
X144304068Y-98099370D01*
X144367981Y-97938888D01*
X144392386Y-97876035D01*
X144490820Y-97633203D01*
X144606734Y-97364918D01*
X144710547Y-97138819D01*
X144786935Y-96965935D01*
X144837756Y-96823877D01*
X144854721Y-96736878D01*
X144852016Y-96725218D01*
X144816161Y-96670170D01*
X144734292Y-96547739D01*
X144615195Y-96370962D01*
X144467658Y-96152877D01*
X144300469Y-95906520D01*
X144267410Y-95857891D01*
X144073420Y-95569773D01*
X143930821Y-95350377D01*
X143833927Y-95189602D01*
X143777054Y-95077346D01*
X143754516Y-95003510D01*
X143760628Y-94957990D01*
X143760784Y-94957700D01*
X143808889Y-94897910D01*
X143915289Y-94782319D01*
X144068452Y-94622909D01*
X144256845Y-94431665D01*
X144468935Y-94220568D01*
X144492853Y-94197008D01*
X144760138Y-93938172D01*
X144966408Y-93748117D01*
X145115808Y-93623337D01*
X145212480Y-93560327D01*
X145255061Y-93552195D01*
X145317204Y-93587672D01*
X145446163Y-93669623D01*
X145628622Y-93789292D01*
X145851267Y-93937926D01*
X146100784Y-94106772D01*
X146159036Y-94146495D01*
X146986084Y-94711276D01*
X147359579Y-94541760D01*
X147586716Y-94442971D01*
X147830528Y-94343617D01*
X148040125Y-94264401D01*
X148049358Y-94261142D01*
X148213305Y-94201129D01*
X148339685Y-94150382D01*
X148401263Y-94119841D01*
X148401368Y-94119753D01*
X148420907Y-94064548D01*
X148454121Y-93928779D01*
X148497713Y-93727709D01*
X148548384Y-93476599D01*
X148602839Y-93190713D01*
X148607294Y-93166612D01*
X148661918Y-92872059D01*
X148712064Y-92604684D01*
X148754502Y-92381480D01*
X148785998Y-92219439D01*
X148803323Y-92135553D01*
X148803625Y-92134272D01*
X148814168Y-92098588D01*
X148834669Y-92071646D01*
X148877411Y-92052218D01*
X148954676Y-92039075D01*
X149078748Y-92030989D01*
X149261909Y-92026732D01*
X149516442Y-92025075D01*
X149854631Y-92024790D01*
X149898400Y-92024790D01*
X150246757Y-92024997D01*
G37*
X150246757Y-92024997D02*
X150510077Y-92026439D01*
X150700646Y-92030342D01*
X150830745Y-92037937D01*
X150912657Y-92050450D01*
X150958666Y-92069111D01*
X150981053Y-92095148D01*
X150992102Y-92129788D01*
X150993176Y-92134272D01*
X151009959Y-92215189D01*
X151041025Y-92374842D01*
X151083142Y-92596238D01*
X151133079Y-92862385D01*
X151187603Y-93156290D01*
X151189507Y-93166612D01*
X151244123Y-93454636D01*
X151295222Y-93709115D01*
X151339506Y-93914785D01*
X151373679Y-94056385D01*
X151394443Y-94118650D01*
X151395433Y-94119753D01*
X151456599Y-94150159D01*
X151582710Y-94200828D01*
X151746531Y-94260822D01*
X151747443Y-94261142D01*
X151953788Y-94338704D01*
X152197060Y-94437507D01*
X152426369Y-94536848D01*
X152437222Y-94541760D01*
X152810717Y-94711276D01*
X153637765Y-94146495D01*
X153891477Y-93974320D01*
X154121302Y-93820395D01*
X154313925Y-93693474D01*
X154456032Y-93602309D01*
X154534307Y-93555655D01*
X154541740Y-93552195D01*
X154598624Y-93567600D01*
X154704869Y-93641927D01*
X154864619Y-93778681D01*
X155082016Y-93981368D01*
X155303948Y-94197008D01*
X155517891Y-94409503D01*
X155709369Y-94603410D01*
X155866855Y-94766754D01*
X155978822Y-94887561D01*
X156033743Y-94953855D01*
X156035786Y-94957268D01*
X156041858Y-95002761D01*
X156018984Y-95077056D01*
X155961515Y-95190186D01*
X155863799Y-95352185D01*
X155720184Y-95573086D01*
X155528733Y-95857460D01*
X155358823Y-96107759D01*
X155206938Y-96332250D01*
X155081855Y-96517900D01*
X154992349Y-96651675D01*
X154947200Y-96720542D01*
X154944358Y-96725218D01*
X154949870Y-96791201D01*
X154991655Y-96919448D01*
X155061397Y-97085720D01*
X155086254Y-97138819D01*
X155194711Y-97375377D01*
X155310420Y-97643789D01*
X155404415Y-97876035D01*
X155472145Y-98048407D01*
X155525943Y-98179403D01*
X155557031Y-98247867D01*
X155560896Y-98253142D01*
X155618071Y-98261880D01*
X155752848Y-98285823D01*
X155947306Y-98321562D01*
X156183525Y-98365689D01*
X156443584Y-98414795D01*
X156709563Y-98465472D01*
X156963543Y-98514313D01*
X157187601Y-98557909D01*
X157363820Y-98592851D01*
X157474277Y-98615732D01*
X157501370Y-98622201D01*
X157529356Y-98638167D01*
X157550481Y-98674227D01*
X157565697Y-98742552D01*
X157575953Y-98855315D01*
X157582200Y-99024686D01*
X157585388Y-99262838D01*
X157586467Y-99581942D01*
X157586523Y-99712741D01*
X157586523Y-100776511D01*
X157331063Y-100826933D01*
X157188937Y-100854273D01*
X156976850Y-100894182D01*
X156720593Y-100941845D01*
X156445958Y-100992446D01*
X156370048Y-101006344D01*
X156116621Y-101055617D01*
X155895847Y-101104070D01*
X155726257Y-101147215D01*
X155626380Y-101180563D01*
X155609743Y-101190502D01*
X155568889Y-101260891D01*
X155510313Y-101397283D01*
X155445355Y-101572805D01*
X155432471Y-101610613D01*
X155347334Y-101845030D01*
X155241656Y-102109524D01*
X155138240Y-102347041D01*
X155137730Y-102348144D01*
X154965512Y-102720733D01*
X155531924Y-103553893D01*
X156098335Y-104387053D01*
X155371102Y-105115500D01*
X155151148Y-105332302D01*
X154950532Y-105523414D01*
X154780522Y-105678636D01*
X154652385Y-105787764D01*
X154577389Y-105840595D01*
X154566631Y-105843947D01*
X154503467Y-105817549D01*
X154374580Y-105744160D01*
X154194049Y-105632484D01*
X153975954Y-105491224D01*
X153740154Y-105333027D01*
X153500836Y-105171664D01*
X153287459Y-105031252D01*
X153113575Y-104920431D01*
X152992734Y-104847838D01*
X152938663Y-104822108D01*
X152872694Y-104843880D01*
X152747598Y-104901251D01*
X152589180Y-104982300D01*
X152572387Y-104991309D01*
X152359052Y-105098300D01*
X152212764Y-105150772D01*
X152121780Y-105151330D01*
X152074359Y-105102580D01*
X152074083Y-105101897D01*
X152050380Y-105044164D01*
X151993849Y-104907115D01*
X151908874Y-104701357D01*
X151799838Y-104437498D01*
X151671124Y-104126144D01*
X151527115Y-103777904D01*
X151387651Y-103440744D01*
X151234380Y-103068666D01*
X151093651Y-102723987D01*
X150969682Y-102417271D01*
X150866691Y-102159085D01*
X150788896Y-101959994D01*
X150740514Y-101830565D01*
X150725604Y-101782261D01*
X150762994Y-101726850D01*
X150860798Y-101638538D01*
X150991215Y-101541174D01*
X151362623Y-101233253D01*
X151652930Y-100880304D01*
X151858656Y-100489761D01*
X151976323Y-100069057D01*
X152002451Y-99625629D01*
X151983460Y-99420958D01*
X151879983Y-98996323D01*
X151701773Y-98621336D01*
X151459882Y-98299696D01*
X151165363Y-98035101D01*
X150829271Y-97831250D01*
X150462658Y-97691842D01*
X150076577Y-97620574D01*
X149682081Y-97621145D01*
X149290225Y-97697254D01*
X148912060Y-97852599D01*
X148558640Y-98090879D01*
X148411127Y-98225639D01*
X148128216Y-98571679D01*
X147931232Y-98949826D01*
X147818864Y-99349055D01*
X147789801Y-99758345D01*
X147842731Y-100166672D01*
X147976343Y-100563013D01*
X148189325Y-100936345D01*
X148480366Y-101275645D01*
X148805586Y-101541174D01*
X148941052Y-101642671D01*
X149036749Y-101730025D01*
X149071197Y-101782343D01*
X149053160Y-101839398D01*
X149001862Y-101975698D01*
X148921524Y-102180678D01*
X148816364Y-102443772D01*
X148690604Y-102754416D01*
X148548463Y-103102043D01*
X148408765Y-103440826D01*
X148254641Y-103813222D01*
X148111882Y-104158307D01*
X147984871Y-104465477D01*
X147877989Y-104724125D01*
X147795620Y-104923647D01*
X147742147Y-105053435D01*
X147722333Y-105101897D01*
X147675524Y-105151129D01*
X147584983Y-105150985D01*
X147439058Y-105098877D01*
X147226098Y-104992216D01*
X147224414Y-104991309D01*
X147064070Y-104908536D01*
X146934452Y-104848242D01*
X146861363Y-104822346D01*
X146858137Y-104822108D01*
X146803116Y-104848374D01*
X146681643Y-104921416D01*
X146507271Y-105032595D01*
X146293550Y-105173273D01*
X146056647Y-105333027D01*
X145815455Y-105494779D01*
X145598074Y-105635450D01*
X145418584Y-105746335D01*
X145291064Y-105818730D01*
X145230170Y-105843947D01*
X145174097Y-105810803D01*
X145061360Y-105718173D01*
X144903223Y-105576257D01*
X144710951Y-105395255D01*
X144495809Y-105185369D01*
X144425448Y-105115249D01*
X143697966Y-104386552D01*
X144251695Y-103573900D01*
X144419977Y-103324342D01*
X144567671Y-103100366D01*
X144686490Y-102914949D01*
X144768150Y-102781065D01*
X144804364Y-102711690D01*
X144805425Y-102706755D01*
X144786333Y-102641364D01*
X144734982Y-102509825D01*
X144660260Y-102334181D01*
X144607812Y-102216591D01*
X144509746Y-101991461D01*
X144417393Y-101764015D01*
X144345794Y-101571839D01*
X144326344Y-101513295D01*
X144271086Y-101356956D01*
X144217069Y-101236158D01*
X144187399Y-101190502D01*
X144121924Y-101162561D01*
X143979024Y-101122951D01*
X143777239Y-101076162D01*
X143535112Y-101026683D01*
X143426753Y-101006344D01*
X143151589Y-100955781D01*
X142887654Y-100906822D01*
X142660741Y-100864281D01*
X142496639Y-100832975D01*
X142465738Y-100826933D01*
X142210278Y-100776511D01*
X142210278Y-99712741D01*
X142210852Y-99362950D01*
X142213207Y-99098300D01*
X142218293Y-98906622D01*
X142227061Y-98775744D01*
X142240462Y-98693493D01*
X142259446Y-98647698D01*
X142284962Y-98626188D01*
X142295431Y-98622201D01*
X142358574Y-98608056D01*
X142498075Y-98579834D01*
X142696011Y-98540943D01*
X142934465Y-98494792D01*
X143195514Y-98444788D01*
X143461239Y-98394341D01*
X143713719Y-98346858D01*
X143935035Y-98305748D01*
X144107266Y-98274419D01*
X144212492Y-98256278D01*
X144235905Y-98253142D01*
X144257116Y-98211173D01*
X144304068Y-98099370D01*
X144367981Y-97938888D01*
X144392386Y-97876035D01*
X144490820Y-97633203D01*
X144606734Y-97364918D01*
X144710547Y-97138819D01*
X144786935Y-96965935D01*
X144837756Y-96823877D01*
X144854721Y-96736878D01*
X144852016Y-96725218D01*
X144816161Y-96670170D01*
X144734292Y-96547739D01*
X144615195Y-96370962D01*
X144467658Y-96152877D01*
X144300469Y-95906520D01*
X144267410Y-95857891D01*
X144073420Y-95569773D01*
X143930821Y-95350377D01*
X143833927Y-95189602D01*
X143777054Y-95077346D01*
X143754516Y-95003510D01*
X143760628Y-94957990D01*
X143760784Y-94957700D01*
X143808889Y-94897910D01*
X143915289Y-94782319D01*
X144068452Y-94622909D01*
X144256845Y-94431665D01*
X144468935Y-94220568D01*
X144492853Y-94197008D01*
X144760138Y-93938172D01*
X144966408Y-93748117D01*
X145115808Y-93623337D01*
X145212480Y-93560327D01*
X145255061Y-93552195D01*
X145317204Y-93587672D01*
X145446163Y-93669623D01*
X145628622Y-93789292D01*
X145851267Y-93937926D01*
X146100784Y-94106772D01*
X146159036Y-94146495D01*
X146986084Y-94711276D01*
X147359579Y-94541760D01*
X147586716Y-94442971D01*
X147830528Y-94343617D01*
X148040125Y-94264401D01*
X148049358Y-94261142D01*
X148213305Y-94201129D01*
X148339685Y-94150382D01*
X148401263Y-94119841D01*
X148401368Y-94119753D01*
X148420907Y-94064548D01*
X148454121Y-93928779D01*
X148497713Y-93727709D01*
X148548384Y-93476599D01*
X148602839Y-93190713D01*
X148607294Y-93166612D01*
X148661918Y-92872059D01*
X148712064Y-92604684D01*
X148754502Y-92381480D01*
X148785998Y-92219439D01*
X148803323Y-92135553D01*
X148803625Y-92134272D01*
X148814168Y-92098588D01*
X148834669Y-92071646D01*
X148877411Y-92052218D01*
X148954676Y-92039075D01*
X149078748Y-92030989D01*
X149261909Y-92026732D01*
X149516442Y-92025075D01*
X149854631Y-92024790D01*
X149898400Y-92024790D01*
X150246757Y-92024997D01*
D13*
X155200000Y-70330000D02*
X155200000Y-67670000D01*
X147520000Y-70330000D02*
X155200000Y-70330000D01*
X147520000Y-67670000D02*
X155200000Y-67670000D01*
X147520000Y-70330000D02*
X147520000Y-67670000D01*
X146250000Y-70330000D02*
X144920000Y-70330000D01*
X144920000Y-70330000D02*
X144920000Y-69000000D01*
X163670000Y-82030000D02*
X163670000Y-80700000D01*
X165000000Y-82030000D02*
X163670000Y-82030000D01*
X166270000Y-82030000D02*
X166270000Y-79370000D01*
X166270000Y-79370000D02*
X173950000Y-79370000D01*
X166270000Y-82030000D02*
X173950000Y-82030000D01*
X173950000Y-82030000D02*
X173950000Y-79370000D01*
X166316000Y-83130000D02*
X166316000Y-84460000D01*
X164986000Y-83130000D02*
X166316000Y-83130000D01*
X163716000Y-83130000D02*
X163716000Y-85790000D01*
X163716000Y-85790000D02*
X130636000Y-85790000D01*
X163716000Y-83130000D02*
X130636000Y-83130000D01*
X130636000Y-83130000D02*
X130636000Y-85790000D01*
X166316000Y-116290600D02*
X166316000Y-113630600D01*
X133236000Y-116290600D02*
X166316000Y-116290600D01*
X133236000Y-113630600D02*
X166316000Y-113630600D01*
X133236000Y-116290600D02*
X133236000Y-113630600D01*
X131966000Y-116290600D02*
X130636000Y-116290600D01*
X130636000Y-116290600D02*
X130636000Y-114960600D01*
X126000000Y-79170000D02*
X126000000Y-81830000D01*
X133680000Y-79170000D02*
X126000000Y-79170000D01*
X133680000Y-81830000D02*
X126000000Y-81830000D01*
X133680000Y-79170000D02*
X133680000Y-81830000D01*
X134950000Y-79170000D02*
X136280000Y-79170000D01*
X136280000Y-79170000D02*
X136280000Y-80500000D01*
X126020000Y-83080000D02*
X127350000Y-83080000D01*
X126020000Y-84410000D02*
X126020000Y-83080000D01*
X126020000Y-85680000D02*
X128680000Y-85680000D01*
X128680000Y-85680000D02*
X128680000Y-98440000D01*
X126020000Y-85680000D02*
X126020000Y-98440000D01*
X126020000Y-98440000D02*
X128680000Y-98440000D01*
X125970000Y-75370000D02*
X127300000Y-75370000D01*
X125970000Y-76700000D02*
X125970000Y-75370000D01*
X125970000Y-77970000D02*
X128630000Y-77970000D01*
X128630000Y-77970000D02*
X128630000Y-78030000D01*
X125970000Y-77970000D02*
X125970000Y-78030000D01*
X125970000Y-78030000D02*
X128630000Y-78030000D01*
X175170000Y-116330000D02*
X177830000Y-116330000D01*
X175170000Y-116270000D02*
X175170000Y-116330000D01*
X177830000Y-116270000D02*
X177830000Y-116330000D01*
X175170000Y-116270000D02*
X177830000Y-116270000D01*
X175170000Y-115000000D02*
X175170000Y-113670000D01*
X175170000Y-113670000D02*
X176500000Y-113670000D01*
X148416000Y-130420000D02*
X149746000Y-130420000D01*
X148416000Y-131750000D02*
X148416000Y-130420000D01*
X148416000Y-133020000D02*
X151076000Y-133020000D01*
X151076000Y-133020000D02*
X151076000Y-133080000D01*
X148416000Y-133020000D02*
X148416000Y-133080000D01*
X148416000Y-133080000D02*
X151076000Y-133080000D01*
X175170000Y-85830000D02*
X177830000Y-85830000D01*
X175170000Y-85770000D02*
X175170000Y-85830000D01*
X177830000Y-85770000D02*
X177830000Y-85830000D01*
X175170000Y-85770000D02*
X177830000Y-85770000D01*
X175170000Y-84500000D02*
X175170000Y-83170000D01*
X175170000Y-83170000D02*
X176500000Y-83170000D01*
X171370000Y-75570000D02*
X172700000Y-75570000D01*
X171370000Y-76900000D02*
X171370000Y-75570000D01*
X171370000Y-78170000D02*
X174030000Y-78170000D01*
X174030000Y-78170000D02*
X174030000Y-78230000D01*
X171370000Y-78170000D02*
X171370000Y-78230000D01*
X171370000Y-78230000D02*
X174030000Y-78230000D01*
X118170000Y-101330000D02*
X120830000Y-101330000D01*
X118170000Y-101270000D02*
X118170000Y-101330000D01*
X120830000Y-101270000D02*
X120830000Y-101330000D01*
X118170000Y-101270000D02*
X120830000Y-101270000D01*
X118170000Y-100000000D02*
X118170000Y-98670000D01*
X118170000Y-98670000D02*
X119500000Y-98670000D01*
X132588000Y-117593000D02*
X131765530Y-117593000D01*
X129880470Y-117593000D02*
X129058000Y-117593000D01*
X131150470Y-117593000D02*
X130495530Y-117593000D01*
X132588000Y-122608000D02*
X132588000Y-117593000D01*
X129058000Y-124063000D02*
X129058000Y-117593000D01*
X132588000Y-122608000D02*
X132021471Y-122608000D01*
X130894529Y-122608000D02*
X130751471Y-122608000D01*
X130698000Y-122661471D02*
X130698000Y-122804529D01*
X130698000Y-123931471D02*
X130698000Y-124063000D01*
X130698000Y-124063000D02*
X130495530Y-124063000D01*
X129880470Y-124063000D02*
X129058000Y-124063000D01*
X132588000Y-123368000D02*
X132588000Y-124128000D01*
X132588000Y-124128000D02*
X131458000Y-124128000D01*
D10*
X142554666Y-68464380D02*
X142554666Y-69178666D01*
X142507047Y-69321523D01*
X142411809Y-69416761D01*
X142268952Y-69464380D01*
X142173714Y-69464380D01*
X142935619Y-68464380D02*
X143602285Y-68464380D01*
X143173714Y-69464380D01*
X175066666Y-80152380D02*
X175066666Y-80866666D01*
X175019047Y-81009523D01*
X174923809Y-81104761D01*
X174780952Y-81152380D01*
X174685714Y-81152380D01*
X176019047Y-80152380D02*
X175542857Y-80152380D01*
X175495238Y-80628571D01*
X175542857Y-80580952D01*
X175638095Y-80533333D01*
X175876190Y-80533333D01*
X175971428Y-80580952D01*
X176019047Y-80628571D01*
X176066666Y-80723809D01*
X176066666Y-80961904D01*
X176019047Y-81057142D01*
X175971428Y-81104761D01*
X175876190Y-81152380D01*
X175638095Y-81152380D01*
X175542857Y-81104761D01*
X175495238Y-81057142D01*
X167466666Y-83952380D02*
X167466666Y-84666666D01*
X167419047Y-84809523D01*
X167323809Y-84904761D01*
X167180952Y-84952380D01*
X167085714Y-84952380D01*
X168371428Y-83952380D02*
X168180952Y-83952380D01*
X168085714Y-84000000D01*
X168038095Y-84047619D01*
X167942857Y-84190476D01*
X167895238Y-84380952D01*
X167895238Y-84761904D01*
X167942857Y-84857142D01*
X167990476Y-84904761D01*
X168085714Y-84952380D01*
X168276190Y-84952380D01*
X168371428Y-84904761D01*
X168419047Y-84857142D01*
X168466666Y-84761904D01*
X168466666Y-84523809D01*
X168419047Y-84428571D01*
X168371428Y-84380952D01*
X168276190Y-84333333D01*
X168085714Y-84333333D01*
X167990476Y-84380952D01*
X167942857Y-84428571D01*
X167895238Y-84523809D01*
X167466666Y-114412980D02*
X167466666Y-115127266D01*
X167419047Y-115270123D01*
X167323809Y-115365361D01*
X167180952Y-115412980D01*
X167085714Y-115412980D01*
X168371428Y-114746314D02*
X168371428Y-115412980D01*
X168133333Y-114365361D02*
X167895238Y-115079647D01*
X168514285Y-115079647D01*
X124066666Y-79952380D02*
X124066666Y-80666666D01*
X124019047Y-80809523D01*
X123923809Y-80904761D01*
X123780952Y-80952380D01*
X123685714Y-80952380D01*
X124447619Y-79952380D02*
X125066666Y-79952380D01*
X124733333Y-80333333D01*
X124876190Y-80333333D01*
X124971428Y-80380952D01*
X125019047Y-80428571D01*
X125066666Y-80523809D01*
X125066666Y-80761904D01*
X125019047Y-80857142D01*
X124971428Y-80904761D01*
X124876190Y-80952380D01*
X124590476Y-80952380D01*
X124495238Y-80904761D01*
X124447619Y-80857142D01*
X124066666Y-83952380D02*
X124066666Y-84666666D01*
X124019047Y-84809523D01*
X123923809Y-84904761D01*
X123780952Y-84952380D01*
X123685714Y-84952380D01*
X124495238Y-84047619D02*
X124542857Y-84000000D01*
X124638095Y-83952380D01*
X124876190Y-83952380D01*
X124971428Y-84000000D01*
X125019047Y-84047619D01*
X125066666Y-84142857D01*
X125066666Y-84238095D01*
X125019047Y-84380952D01*
X124447619Y-84952380D01*
X125066666Y-84952380D01*
X129666666Y-76252380D02*
X129666666Y-76966666D01*
X129619047Y-77109523D01*
X129523809Y-77204761D01*
X129380952Y-77252380D01*
X129285714Y-77252380D01*
X130190476Y-77252380D02*
X130380952Y-77252380D01*
X130476190Y-77204761D01*
X130523809Y-77157142D01*
X130619047Y-77014285D01*
X130666666Y-76823809D01*
X130666666Y-76442857D01*
X130619047Y-76347619D01*
X130571428Y-76300000D01*
X130476190Y-76252380D01*
X130285714Y-76252380D01*
X130190476Y-76300000D01*
X130142857Y-76347619D01*
X130095238Y-76442857D01*
X130095238Y-76680952D01*
X130142857Y-76776190D01*
X130190476Y-76823809D01*
X130285714Y-76871428D01*
X130476190Y-76871428D01*
X130571428Y-76823809D01*
X130619047Y-76776190D01*
X130666666Y-76680952D01*
X175690476Y-112122380D02*
X175690476Y-112836666D01*
X175642857Y-112979523D01*
X175547619Y-113074761D01*
X175404761Y-113122380D01*
X175309523Y-113122380D01*
X176690476Y-113122380D02*
X176119047Y-113122380D01*
X176404761Y-113122380D02*
X176404761Y-112122380D01*
X176309523Y-112265238D01*
X176214285Y-112360476D01*
X176119047Y-112408095D01*
X177309523Y-112122380D02*
X177404761Y-112122380D01*
X177500000Y-112170000D01*
X177547619Y-112217619D01*
X177595238Y-112312857D01*
X177642857Y-112503333D01*
X177642857Y-112741428D01*
X177595238Y-112931904D01*
X177547619Y-113027142D01*
X177500000Y-113074761D01*
X177404761Y-113122380D01*
X177309523Y-113122380D01*
X177214285Y-113074761D01*
X177166666Y-113027142D01*
X177119047Y-112931904D01*
X177071428Y-112741428D01*
X177071428Y-112503333D01*
X177119047Y-112312857D01*
X177166666Y-112217619D01*
X177214285Y-112170000D01*
X177309523Y-112122380D01*
X148936476Y-128872380D02*
X148936476Y-129586666D01*
X148888857Y-129729523D01*
X148793619Y-129824761D01*
X148650761Y-129872380D01*
X148555523Y-129872380D01*
X149936476Y-129872380D02*
X149365047Y-129872380D01*
X149650761Y-129872380D02*
X149650761Y-128872380D01*
X149555523Y-129015238D01*
X149460285Y-129110476D01*
X149365047Y-129158095D01*
X150888857Y-129872380D02*
X150317428Y-129872380D01*
X150603142Y-129872380D02*
X150603142Y-128872380D01*
X150507904Y-129015238D01*
X150412666Y-129110476D01*
X150317428Y-129158095D01*
X175690476Y-86552380D02*
X175690476Y-87266666D01*
X175642857Y-87409523D01*
X175547619Y-87504761D01*
X175404761Y-87552380D01*
X175309523Y-87552380D01*
X176690476Y-87552380D02*
X176119047Y-87552380D01*
X176404761Y-87552380D02*
X176404761Y-86552380D01*
X176309523Y-86695238D01*
X176214285Y-86790476D01*
X176119047Y-86838095D01*
X177071428Y-86647619D02*
X177119047Y-86600000D01*
X177214285Y-86552380D01*
X177452380Y-86552380D01*
X177547619Y-86600000D01*
X177595238Y-86647619D01*
X177642857Y-86742857D01*
X177642857Y-86838095D01*
X177595238Y-86980952D01*
X177023809Y-87552380D01*
X177642857Y-87552380D01*
X168390476Y-76452380D02*
X168390476Y-77166666D01*
X168342857Y-77309523D01*
X168247619Y-77404761D01*
X168104761Y-77452380D01*
X168009523Y-77452380D01*
X169390476Y-77452380D02*
X168819047Y-77452380D01*
X169104761Y-77452380D02*
X169104761Y-76452380D01*
X169009523Y-76595238D01*
X168914285Y-76690476D01*
X168819047Y-76738095D01*
X169723809Y-76452380D02*
X170342857Y-76452380D01*
X170009523Y-76833333D01*
X170152380Y-76833333D01*
X170247619Y-76880952D01*
X170295238Y-76928571D01*
X170342857Y-77023809D01*
X170342857Y-77261904D01*
X170295238Y-77357142D01*
X170247619Y-77404761D01*
X170152380Y-77452380D01*
X169866666Y-77452380D01*
X169771428Y-77404761D01*
X169723809Y-77357142D01*
X118690476Y-97122380D02*
X118690476Y-97836666D01*
X118642857Y-97979523D01*
X118547619Y-98074761D01*
X118404761Y-98122380D01*
X118309523Y-98122380D01*
X119690476Y-98122380D02*
X119119047Y-98122380D01*
X119404761Y-98122380D02*
X119404761Y-97122380D01*
X119309523Y-97265238D01*
X119214285Y-97360476D01*
X119119047Y-97408095D01*
X120547619Y-97455714D02*
X120547619Y-98122380D01*
X120309523Y-97074761D02*
X120071428Y-97789047D01*
X120690476Y-97789047D01*
X130489666Y-124515380D02*
X130489666Y-125229666D01*
X130442047Y-125372523D01*
X130346809Y-125467761D01*
X130203952Y-125515380D01*
X130108714Y-125515380D01*
X131489666Y-125515380D02*
X130918238Y-125515380D01*
X131203952Y-125515380D02*
X131203952Y-124515380D01*
X131108714Y-124658238D01*
X131013476Y-124753476D01*
X130918238Y-124801095D01*
M02*
