G04 #@! TF.GenerationSoftware,KiCad,Pcbnew,5.1.9+dfsg1-1~bpo10+1*
G04 #@! TF.CreationDate,2021-11-05T17:59:57-04:00*
G04 #@! TF.ProjectId,wifi_shield,77696669-5f73-4686-9965-6c642e6b6963,rev?*
G04 #@! TF.SameCoordinates,Original*
G04 #@! TF.FileFunction,Copper,L2,Bot*
G04 #@! TF.FilePolarity,Positive*
%FSLAX46Y46*%
G04 Gerber Fmt 4.6, Leading zero omitted, Abs format (unit mm)*
G04 Created by KiCad (PCBNEW 5.1.9+dfsg1-1~bpo10+1) date 2021-11-05 17:59:57*
%MOMM*%
%LPD*%
G01*
G04 APERTURE LIST*
G04 #@! TA.AperFunction,SMDPad,CuDef*
%ADD10R,1.000000X2.500000*%
G04 #@! TD*
G04 #@! TA.AperFunction,SMDPad,CuDef*
%ADD11R,1.800000X1.000000*%
G04 #@! TD*
G04 #@! TA.AperFunction,SMDPad,CuDef*
%ADD12C,0.100000*%
G04 #@! TD*
G04 #@! TA.AperFunction,SMDPad,CuDef*
%ADD13R,4.200000X1.000000*%
G04 #@! TD*
G04 #@! TA.AperFunction,ComponentPad*
%ADD14R,1.700000X1.700000*%
G04 #@! TD*
G04 #@! TA.AperFunction,ComponentPad*
%ADD15O,1.700000X1.700000*%
G04 #@! TD*
G04 #@! TA.AperFunction,ComponentPad*
%ADD16R,1.000000X1.000000*%
G04 #@! TD*
G04 #@! TA.AperFunction,ComponentPad*
%ADD17O,1.000000X1.000000*%
G04 #@! TD*
G04 #@! TA.AperFunction,ViaPad*
%ADD18C,0.800000*%
G04 #@! TD*
G04 #@! TA.AperFunction,Conductor*
%ADD19C,0.250000*%
G04 #@! TD*
G04 APERTURE END LIST*
D10*
X174250000Y-108100000D03*
X172250000Y-108100000D03*
X170250000Y-108100000D03*
X168250000Y-108100000D03*
X166250000Y-108100000D03*
X164250000Y-108100000D03*
X162250000Y-108100000D03*
X160250000Y-108100000D03*
D11*
X158750000Y-105500000D03*
X158750000Y-103500000D03*
X158750000Y-101500000D03*
X158750000Y-99500000D03*
X158750000Y-97500000D03*
X158750000Y-95500000D03*
D10*
X160250000Y-92900000D03*
X162250000Y-92900000D03*
X164250000Y-92900000D03*
X166250000Y-92900000D03*
X168250000Y-92900000D03*
X170250000Y-92900000D03*
X172250000Y-92900000D03*
X174250000Y-92900000D03*
G04 #@! TA.AperFunction,SMDPad,CuDef*
D12*
G36*
X147094000Y-94170602D02*
G01*
X147118534Y-94170602D01*
X147167365Y-94175412D01*
X147215490Y-94184984D01*
X147262445Y-94199228D01*
X147307778Y-94218005D01*
X147351051Y-94241136D01*
X147391850Y-94268396D01*
X147429779Y-94299524D01*
X147464476Y-94334221D01*
X147495604Y-94372150D01*
X147522864Y-94412949D01*
X147545995Y-94456222D01*
X147564772Y-94501555D01*
X147579016Y-94548510D01*
X147588588Y-94596635D01*
X147593398Y-94645466D01*
X147593398Y-94670000D01*
X147594000Y-94670000D01*
X147594000Y-95170000D01*
X147593398Y-95170000D01*
X147593398Y-95194534D01*
X147588588Y-95243365D01*
X147579016Y-95291490D01*
X147564772Y-95338445D01*
X147545995Y-95383778D01*
X147522864Y-95427051D01*
X147495604Y-95467850D01*
X147464476Y-95505779D01*
X147429779Y-95540476D01*
X147391850Y-95571604D01*
X147351051Y-95598864D01*
X147307778Y-95621995D01*
X147262445Y-95640772D01*
X147215490Y-95655016D01*
X147167365Y-95664588D01*
X147118534Y-95669398D01*
X147094000Y-95669398D01*
X147094000Y-95670000D01*
X146594000Y-95670000D01*
X146594000Y-94170000D01*
X147094000Y-94170000D01*
X147094000Y-94170602D01*
G37*
G04 #@! TD.AperFunction*
G04 #@! TA.AperFunction,SMDPad,CuDef*
G36*
X146294000Y-95670000D02*
G01*
X145794000Y-95670000D01*
X145794000Y-95669398D01*
X145769466Y-95669398D01*
X145720635Y-95664588D01*
X145672510Y-95655016D01*
X145625555Y-95640772D01*
X145580222Y-95621995D01*
X145536949Y-95598864D01*
X145496150Y-95571604D01*
X145458221Y-95540476D01*
X145423524Y-95505779D01*
X145392396Y-95467850D01*
X145365136Y-95427051D01*
X145342005Y-95383778D01*
X145323228Y-95338445D01*
X145308984Y-95291490D01*
X145299412Y-95243365D01*
X145294602Y-95194534D01*
X145294602Y-95170000D01*
X145294000Y-95170000D01*
X145294000Y-94670000D01*
X145294602Y-94670000D01*
X145294602Y-94645466D01*
X145299412Y-94596635D01*
X145308984Y-94548510D01*
X145323228Y-94501555D01*
X145342005Y-94456222D01*
X145365136Y-94412949D01*
X145392396Y-94372150D01*
X145423524Y-94334221D01*
X145458221Y-94299524D01*
X145496150Y-94268396D01*
X145536949Y-94241136D01*
X145580222Y-94218005D01*
X145625555Y-94199228D01*
X145672510Y-94184984D01*
X145720635Y-94175412D01*
X145769466Y-94170602D01*
X145794000Y-94170602D01*
X145794000Y-94170000D01*
X146294000Y-94170000D01*
X146294000Y-95670000D01*
G37*
G04 #@! TD.AperFunction*
D13*
X139840000Y-79880000D03*
X139840000Y-77340000D03*
X139840000Y-74800000D03*
X139840000Y-72260000D03*
X160160000Y-79880000D03*
X160160000Y-77340000D03*
X160160000Y-74800000D03*
X160160000Y-72260000D03*
G04 #@! TA.AperFunction,SMDPad,CuDef*
D12*
G36*
X152532000Y-102020000D02*
G01*
X152032000Y-102020000D01*
X152032000Y-102019398D01*
X152007466Y-102019398D01*
X151958635Y-102014588D01*
X151910510Y-102005016D01*
X151863555Y-101990772D01*
X151818222Y-101971995D01*
X151774949Y-101948864D01*
X151734150Y-101921604D01*
X151696221Y-101890476D01*
X151661524Y-101855779D01*
X151630396Y-101817850D01*
X151603136Y-101777051D01*
X151580005Y-101733778D01*
X151561228Y-101688445D01*
X151546984Y-101641490D01*
X151537412Y-101593365D01*
X151532602Y-101544534D01*
X151532602Y-101520000D01*
X151532000Y-101520000D01*
X151532000Y-101020000D01*
X151532602Y-101020000D01*
X151532602Y-100995466D01*
X151537412Y-100946635D01*
X151546984Y-100898510D01*
X151561228Y-100851555D01*
X151580005Y-100806222D01*
X151603136Y-100762949D01*
X151630396Y-100722150D01*
X151661524Y-100684221D01*
X151696221Y-100649524D01*
X151734150Y-100618396D01*
X151774949Y-100591136D01*
X151818222Y-100568005D01*
X151863555Y-100549228D01*
X151910510Y-100534984D01*
X151958635Y-100525412D01*
X152007466Y-100520602D01*
X152032000Y-100520602D01*
X152032000Y-100520000D01*
X152532000Y-100520000D01*
X152532000Y-102020000D01*
G37*
G04 #@! TD.AperFunction*
G04 #@! TA.AperFunction,SMDPad,CuDef*
G36*
X153332000Y-100520602D02*
G01*
X153356534Y-100520602D01*
X153405365Y-100525412D01*
X153453490Y-100534984D01*
X153500445Y-100549228D01*
X153545778Y-100568005D01*
X153589051Y-100591136D01*
X153629850Y-100618396D01*
X153667779Y-100649524D01*
X153702476Y-100684221D01*
X153733604Y-100722150D01*
X153760864Y-100762949D01*
X153783995Y-100806222D01*
X153802772Y-100851555D01*
X153817016Y-100898510D01*
X153826588Y-100946635D01*
X153831398Y-100995466D01*
X153831398Y-101020000D01*
X153832000Y-101020000D01*
X153832000Y-101520000D01*
X153831398Y-101520000D01*
X153831398Y-101544534D01*
X153826588Y-101593365D01*
X153817016Y-101641490D01*
X153802772Y-101688445D01*
X153783995Y-101733778D01*
X153760864Y-101777051D01*
X153733604Y-101817850D01*
X153702476Y-101855779D01*
X153667779Y-101890476D01*
X153629850Y-101921604D01*
X153589051Y-101948864D01*
X153545778Y-101971995D01*
X153500445Y-101990772D01*
X153453490Y-102005016D01*
X153405365Y-102014588D01*
X153356534Y-102019398D01*
X153332000Y-102019398D01*
X153332000Y-102020000D01*
X152832000Y-102020000D01*
X152832000Y-100520000D01*
X153332000Y-100520000D01*
X153332000Y-100520602D01*
G37*
G04 #@! TD.AperFunction*
D14*
X146250000Y-68500000D03*
D15*
X148790000Y-68500000D03*
X151330000Y-68500000D03*
X153870000Y-68500000D03*
G04 #@! TA.AperFunction,SMDPad,CuDef*
D12*
G36*
X140056000Y-95670000D02*
G01*
X139556000Y-95670000D01*
X139556000Y-95669398D01*
X139531466Y-95669398D01*
X139482635Y-95664588D01*
X139434510Y-95655016D01*
X139387555Y-95640772D01*
X139342222Y-95621995D01*
X139298949Y-95598864D01*
X139258150Y-95571604D01*
X139220221Y-95540476D01*
X139185524Y-95505779D01*
X139154396Y-95467850D01*
X139127136Y-95427051D01*
X139104005Y-95383778D01*
X139085228Y-95338445D01*
X139070984Y-95291490D01*
X139061412Y-95243365D01*
X139056602Y-95194534D01*
X139056602Y-95170000D01*
X139056000Y-95170000D01*
X139056000Y-94670000D01*
X139056602Y-94670000D01*
X139056602Y-94645466D01*
X139061412Y-94596635D01*
X139070984Y-94548510D01*
X139085228Y-94501555D01*
X139104005Y-94456222D01*
X139127136Y-94412949D01*
X139154396Y-94372150D01*
X139185524Y-94334221D01*
X139220221Y-94299524D01*
X139258150Y-94268396D01*
X139298949Y-94241136D01*
X139342222Y-94218005D01*
X139387555Y-94199228D01*
X139434510Y-94184984D01*
X139482635Y-94175412D01*
X139531466Y-94170602D01*
X139556000Y-94170602D01*
X139556000Y-94170000D01*
X140056000Y-94170000D01*
X140056000Y-95670000D01*
G37*
G04 #@! TD.AperFunction*
G04 #@! TA.AperFunction,SMDPad,CuDef*
G36*
X140856000Y-94170602D02*
G01*
X140880534Y-94170602D01*
X140929365Y-94175412D01*
X140977490Y-94184984D01*
X141024445Y-94199228D01*
X141069778Y-94218005D01*
X141113051Y-94241136D01*
X141153850Y-94268396D01*
X141191779Y-94299524D01*
X141226476Y-94334221D01*
X141257604Y-94372150D01*
X141284864Y-94412949D01*
X141307995Y-94456222D01*
X141326772Y-94501555D01*
X141341016Y-94548510D01*
X141350588Y-94596635D01*
X141355398Y-94645466D01*
X141355398Y-94670000D01*
X141356000Y-94670000D01*
X141356000Y-95170000D01*
X141355398Y-95170000D01*
X141355398Y-95194534D01*
X141350588Y-95243365D01*
X141341016Y-95291490D01*
X141326772Y-95338445D01*
X141307995Y-95383778D01*
X141284864Y-95427051D01*
X141257604Y-95467850D01*
X141226476Y-95505779D01*
X141191779Y-95540476D01*
X141153850Y-95571604D01*
X141113051Y-95598864D01*
X141069778Y-95621995D01*
X141024445Y-95640772D01*
X140977490Y-95655016D01*
X140929365Y-95664588D01*
X140880534Y-95669398D01*
X140856000Y-95669398D01*
X140856000Y-95670000D01*
X140356000Y-95670000D01*
X140356000Y-94170000D01*
X140856000Y-94170000D01*
X140856000Y-94170602D01*
G37*
G04 #@! TD.AperFunction*
G04 #@! TA.AperFunction,SMDPad,CuDef*
G36*
X140056000Y-102020000D02*
G01*
X139556000Y-102020000D01*
X139556000Y-102019398D01*
X139531466Y-102019398D01*
X139482635Y-102014588D01*
X139434510Y-102005016D01*
X139387555Y-101990772D01*
X139342222Y-101971995D01*
X139298949Y-101948864D01*
X139258150Y-101921604D01*
X139220221Y-101890476D01*
X139185524Y-101855779D01*
X139154396Y-101817850D01*
X139127136Y-101777051D01*
X139104005Y-101733778D01*
X139085228Y-101688445D01*
X139070984Y-101641490D01*
X139061412Y-101593365D01*
X139056602Y-101544534D01*
X139056602Y-101520000D01*
X139056000Y-101520000D01*
X139056000Y-101020000D01*
X139056602Y-101020000D01*
X139056602Y-100995466D01*
X139061412Y-100946635D01*
X139070984Y-100898510D01*
X139085228Y-100851555D01*
X139104005Y-100806222D01*
X139127136Y-100762949D01*
X139154396Y-100722150D01*
X139185524Y-100684221D01*
X139220221Y-100649524D01*
X139258150Y-100618396D01*
X139298949Y-100591136D01*
X139342222Y-100568005D01*
X139387555Y-100549228D01*
X139434510Y-100534984D01*
X139482635Y-100525412D01*
X139531466Y-100520602D01*
X139556000Y-100520602D01*
X139556000Y-100520000D01*
X140056000Y-100520000D01*
X140056000Y-102020000D01*
G37*
G04 #@! TD.AperFunction*
G04 #@! TA.AperFunction,SMDPad,CuDef*
G36*
X140856000Y-100520602D02*
G01*
X140880534Y-100520602D01*
X140929365Y-100525412D01*
X140977490Y-100534984D01*
X141024445Y-100549228D01*
X141069778Y-100568005D01*
X141113051Y-100591136D01*
X141153850Y-100618396D01*
X141191779Y-100649524D01*
X141226476Y-100684221D01*
X141257604Y-100722150D01*
X141284864Y-100762949D01*
X141307995Y-100806222D01*
X141326772Y-100851555D01*
X141341016Y-100898510D01*
X141350588Y-100946635D01*
X141355398Y-100995466D01*
X141355398Y-101020000D01*
X141356000Y-101020000D01*
X141356000Y-101520000D01*
X141355398Y-101520000D01*
X141355398Y-101544534D01*
X141350588Y-101593365D01*
X141341016Y-101641490D01*
X141326772Y-101688445D01*
X141307995Y-101733778D01*
X141284864Y-101777051D01*
X141257604Y-101817850D01*
X141226476Y-101855779D01*
X141191779Y-101890476D01*
X141153850Y-101921604D01*
X141113051Y-101948864D01*
X141069778Y-101971995D01*
X141024445Y-101990772D01*
X140977490Y-102005016D01*
X140929365Y-102014588D01*
X140880534Y-102019398D01*
X140856000Y-102019398D01*
X140856000Y-102020000D01*
X140356000Y-102020000D01*
X140356000Y-100520000D01*
X140856000Y-100520000D01*
X140856000Y-100520602D01*
G37*
G04 #@! TD.AperFunction*
G04 #@! TA.AperFunction,SMDPad,CuDef*
G36*
X153332000Y-106870602D02*
G01*
X153356534Y-106870602D01*
X153405365Y-106875412D01*
X153453490Y-106884984D01*
X153500445Y-106899228D01*
X153545778Y-106918005D01*
X153589051Y-106941136D01*
X153629850Y-106968396D01*
X153667779Y-106999524D01*
X153702476Y-107034221D01*
X153733604Y-107072150D01*
X153760864Y-107112949D01*
X153783995Y-107156222D01*
X153802772Y-107201555D01*
X153817016Y-107248510D01*
X153826588Y-107296635D01*
X153831398Y-107345466D01*
X153831398Y-107370000D01*
X153832000Y-107370000D01*
X153832000Y-107870000D01*
X153831398Y-107870000D01*
X153831398Y-107894534D01*
X153826588Y-107943365D01*
X153817016Y-107991490D01*
X153802772Y-108038445D01*
X153783995Y-108083778D01*
X153760864Y-108127051D01*
X153733604Y-108167850D01*
X153702476Y-108205779D01*
X153667779Y-108240476D01*
X153629850Y-108271604D01*
X153589051Y-108298864D01*
X153545778Y-108321995D01*
X153500445Y-108340772D01*
X153453490Y-108355016D01*
X153405365Y-108364588D01*
X153356534Y-108369398D01*
X153332000Y-108369398D01*
X153332000Y-108370000D01*
X152832000Y-108370000D01*
X152832000Y-106870000D01*
X153332000Y-106870000D01*
X153332000Y-106870602D01*
G37*
G04 #@! TD.AperFunction*
G04 #@! TA.AperFunction,SMDPad,CuDef*
G36*
X152532000Y-108370000D02*
G01*
X152032000Y-108370000D01*
X152032000Y-108369398D01*
X152007466Y-108369398D01*
X151958635Y-108364588D01*
X151910510Y-108355016D01*
X151863555Y-108340772D01*
X151818222Y-108321995D01*
X151774949Y-108298864D01*
X151734150Y-108271604D01*
X151696221Y-108240476D01*
X151661524Y-108205779D01*
X151630396Y-108167850D01*
X151603136Y-108127051D01*
X151580005Y-108083778D01*
X151561228Y-108038445D01*
X151546984Y-107991490D01*
X151537412Y-107943365D01*
X151532602Y-107894534D01*
X151532602Y-107870000D01*
X151532000Y-107870000D01*
X151532000Y-107370000D01*
X151532602Y-107370000D01*
X151532602Y-107345466D01*
X151537412Y-107296635D01*
X151546984Y-107248510D01*
X151561228Y-107201555D01*
X151580005Y-107156222D01*
X151603136Y-107112949D01*
X151630396Y-107072150D01*
X151661524Y-107034221D01*
X151696221Y-106999524D01*
X151734150Y-106968396D01*
X151774949Y-106941136D01*
X151818222Y-106918005D01*
X151863555Y-106899228D01*
X151910510Y-106884984D01*
X151958635Y-106875412D01*
X152007466Y-106870602D01*
X152032000Y-106870602D01*
X152032000Y-106870000D01*
X152532000Y-106870000D01*
X152532000Y-108370000D01*
G37*
G04 #@! TD.AperFunction*
G04 #@! TA.AperFunction,SMDPad,CuDef*
G36*
X152532000Y-95670000D02*
G01*
X152032000Y-95670000D01*
X152032000Y-95669398D01*
X152007466Y-95669398D01*
X151958635Y-95664588D01*
X151910510Y-95655016D01*
X151863555Y-95640772D01*
X151818222Y-95621995D01*
X151774949Y-95598864D01*
X151734150Y-95571604D01*
X151696221Y-95540476D01*
X151661524Y-95505779D01*
X151630396Y-95467850D01*
X151603136Y-95427051D01*
X151580005Y-95383778D01*
X151561228Y-95338445D01*
X151546984Y-95291490D01*
X151537412Y-95243365D01*
X151532602Y-95194534D01*
X151532602Y-95170000D01*
X151532000Y-95170000D01*
X151532000Y-94670000D01*
X151532602Y-94670000D01*
X151532602Y-94645466D01*
X151537412Y-94596635D01*
X151546984Y-94548510D01*
X151561228Y-94501555D01*
X151580005Y-94456222D01*
X151603136Y-94412949D01*
X151630396Y-94372150D01*
X151661524Y-94334221D01*
X151696221Y-94299524D01*
X151734150Y-94268396D01*
X151774949Y-94241136D01*
X151818222Y-94218005D01*
X151863555Y-94199228D01*
X151910510Y-94184984D01*
X151958635Y-94175412D01*
X152007466Y-94170602D01*
X152032000Y-94170602D01*
X152032000Y-94170000D01*
X152532000Y-94170000D01*
X152532000Y-95670000D01*
G37*
G04 #@! TD.AperFunction*
G04 #@! TA.AperFunction,SMDPad,CuDef*
G36*
X153332000Y-94170602D02*
G01*
X153356534Y-94170602D01*
X153405365Y-94175412D01*
X153453490Y-94184984D01*
X153500445Y-94199228D01*
X153545778Y-94218005D01*
X153589051Y-94241136D01*
X153629850Y-94268396D01*
X153667779Y-94299524D01*
X153702476Y-94334221D01*
X153733604Y-94372150D01*
X153760864Y-94412949D01*
X153783995Y-94456222D01*
X153802772Y-94501555D01*
X153817016Y-94548510D01*
X153826588Y-94596635D01*
X153831398Y-94645466D01*
X153831398Y-94670000D01*
X153832000Y-94670000D01*
X153832000Y-95170000D01*
X153831398Y-95170000D01*
X153831398Y-95194534D01*
X153826588Y-95243365D01*
X153817016Y-95291490D01*
X153802772Y-95338445D01*
X153783995Y-95383778D01*
X153760864Y-95427051D01*
X153733604Y-95467850D01*
X153702476Y-95505779D01*
X153667779Y-95540476D01*
X153629850Y-95571604D01*
X153589051Y-95598864D01*
X153545778Y-95621995D01*
X153500445Y-95640772D01*
X153453490Y-95655016D01*
X153405365Y-95664588D01*
X153356534Y-95669398D01*
X153332000Y-95669398D01*
X153332000Y-95670000D01*
X152832000Y-95670000D01*
X152832000Y-94170000D01*
X153332000Y-94170000D01*
X153332000Y-94170602D01*
G37*
G04 #@! TD.AperFunction*
G04 #@! TA.AperFunction,SMDPad,CuDef*
G36*
X147094000Y-100520602D02*
G01*
X147118534Y-100520602D01*
X147167365Y-100525412D01*
X147215490Y-100534984D01*
X147262445Y-100549228D01*
X147307778Y-100568005D01*
X147351051Y-100591136D01*
X147391850Y-100618396D01*
X147429779Y-100649524D01*
X147464476Y-100684221D01*
X147495604Y-100722150D01*
X147522864Y-100762949D01*
X147545995Y-100806222D01*
X147564772Y-100851555D01*
X147579016Y-100898510D01*
X147588588Y-100946635D01*
X147593398Y-100995466D01*
X147593398Y-101020000D01*
X147594000Y-101020000D01*
X147594000Y-101520000D01*
X147593398Y-101520000D01*
X147593398Y-101544534D01*
X147588588Y-101593365D01*
X147579016Y-101641490D01*
X147564772Y-101688445D01*
X147545995Y-101733778D01*
X147522864Y-101777051D01*
X147495604Y-101817850D01*
X147464476Y-101855779D01*
X147429779Y-101890476D01*
X147391850Y-101921604D01*
X147351051Y-101948864D01*
X147307778Y-101971995D01*
X147262445Y-101990772D01*
X147215490Y-102005016D01*
X147167365Y-102014588D01*
X147118534Y-102019398D01*
X147094000Y-102019398D01*
X147094000Y-102020000D01*
X146594000Y-102020000D01*
X146594000Y-100520000D01*
X147094000Y-100520000D01*
X147094000Y-100520602D01*
G37*
G04 #@! TD.AperFunction*
G04 #@! TA.AperFunction,SMDPad,CuDef*
G36*
X146294000Y-102020000D02*
G01*
X145794000Y-102020000D01*
X145794000Y-102019398D01*
X145769466Y-102019398D01*
X145720635Y-102014588D01*
X145672510Y-102005016D01*
X145625555Y-101990772D01*
X145580222Y-101971995D01*
X145536949Y-101948864D01*
X145496150Y-101921604D01*
X145458221Y-101890476D01*
X145423524Y-101855779D01*
X145392396Y-101817850D01*
X145365136Y-101777051D01*
X145342005Y-101733778D01*
X145323228Y-101688445D01*
X145308984Y-101641490D01*
X145299412Y-101593365D01*
X145294602Y-101544534D01*
X145294602Y-101520000D01*
X145294000Y-101520000D01*
X145294000Y-101020000D01*
X145294602Y-101020000D01*
X145294602Y-100995466D01*
X145299412Y-100946635D01*
X145308984Y-100898510D01*
X145323228Y-100851555D01*
X145342005Y-100806222D01*
X145365136Y-100762949D01*
X145392396Y-100722150D01*
X145423524Y-100684221D01*
X145458221Y-100649524D01*
X145496150Y-100618396D01*
X145536949Y-100591136D01*
X145580222Y-100568005D01*
X145625555Y-100549228D01*
X145672510Y-100534984D01*
X145720635Y-100525412D01*
X145769466Y-100520602D01*
X145794000Y-100520602D01*
X145794000Y-100520000D01*
X146294000Y-100520000D01*
X146294000Y-102020000D01*
G37*
G04 #@! TD.AperFunction*
G04 #@! TA.AperFunction,SMDPad,CuDef*
G36*
X147094000Y-106870602D02*
G01*
X147118534Y-106870602D01*
X147167365Y-106875412D01*
X147215490Y-106884984D01*
X147262445Y-106899228D01*
X147307778Y-106918005D01*
X147351051Y-106941136D01*
X147391850Y-106968396D01*
X147429779Y-106999524D01*
X147464476Y-107034221D01*
X147495604Y-107072150D01*
X147522864Y-107112949D01*
X147545995Y-107156222D01*
X147564772Y-107201555D01*
X147579016Y-107248510D01*
X147588588Y-107296635D01*
X147593398Y-107345466D01*
X147593398Y-107370000D01*
X147594000Y-107370000D01*
X147594000Y-107870000D01*
X147593398Y-107870000D01*
X147593398Y-107894534D01*
X147588588Y-107943365D01*
X147579016Y-107991490D01*
X147564772Y-108038445D01*
X147545995Y-108083778D01*
X147522864Y-108127051D01*
X147495604Y-108167850D01*
X147464476Y-108205779D01*
X147429779Y-108240476D01*
X147391850Y-108271604D01*
X147351051Y-108298864D01*
X147307778Y-108321995D01*
X147262445Y-108340772D01*
X147215490Y-108355016D01*
X147167365Y-108364588D01*
X147118534Y-108369398D01*
X147094000Y-108369398D01*
X147094000Y-108370000D01*
X146594000Y-108370000D01*
X146594000Y-106870000D01*
X147094000Y-106870000D01*
X147094000Y-106870602D01*
G37*
G04 #@! TD.AperFunction*
G04 #@! TA.AperFunction,SMDPad,CuDef*
G36*
X146294000Y-108370000D02*
G01*
X145794000Y-108370000D01*
X145794000Y-108369398D01*
X145769466Y-108369398D01*
X145720635Y-108364588D01*
X145672510Y-108355016D01*
X145625555Y-108340772D01*
X145580222Y-108321995D01*
X145536949Y-108298864D01*
X145496150Y-108271604D01*
X145458221Y-108240476D01*
X145423524Y-108205779D01*
X145392396Y-108167850D01*
X145365136Y-108127051D01*
X145342005Y-108083778D01*
X145323228Y-108038445D01*
X145308984Y-107991490D01*
X145299412Y-107943365D01*
X145294602Y-107894534D01*
X145294602Y-107870000D01*
X145294000Y-107870000D01*
X145294000Y-107370000D01*
X145294602Y-107370000D01*
X145294602Y-107345466D01*
X145299412Y-107296635D01*
X145308984Y-107248510D01*
X145323228Y-107201555D01*
X145342005Y-107156222D01*
X145365136Y-107112949D01*
X145392396Y-107072150D01*
X145423524Y-107034221D01*
X145458221Y-106999524D01*
X145496150Y-106968396D01*
X145536949Y-106941136D01*
X145580222Y-106918005D01*
X145625555Y-106899228D01*
X145672510Y-106884984D01*
X145720635Y-106875412D01*
X145769466Y-106870602D01*
X145794000Y-106870602D01*
X145794000Y-106870000D01*
X146294000Y-106870000D01*
X146294000Y-108370000D01*
G37*
G04 #@! TD.AperFunction*
D15*
X172620000Y-80700000D03*
X170080000Y-80700000D03*
X167540000Y-80700000D03*
D14*
X165000000Y-80700000D03*
X164986000Y-84460000D03*
D15*
X162446000Y-84460000D03*
X159906000Y-84460000D03*
X157366000Y-84460000D03*
X154826000Y-84460000D03*
X152286000Y-84460000D03*
X149746000Y-84460000D03*
X147206000Y-84460000D03*
X144666000Y-84460000D03*
X142126000Y-84460000D03*
X139586000Y-84460000D03*
X137046000Y-84460000D03*
X134506000Y-84460000D03*
X131966000Y-84460000D03*
X164986000Y-114960600D03*
X162446000Y-114960600D03*
X159906000Y-114960600D03*
X157366000Y-114960600D03*
X154826000Y-114960600D03*
X152286000Y-114960600D03*
X149746000Y-114960600D03*
X147206000Y-114960600D03*
X144666000Y-114960600D03*
X142126000Y-114960600D03*
X139586000Y-114960600D03*
X137046000Y-114960600D03*
X134506000Y-114960600D03*
D14*
X131966000Y-114960600D03*
X134950000Y-80500000D03*
D15*
X132410000Y-80500000D03*
X129870000Y-80500000D03*
X127330000Y-80500000D03*
D14*
X123050000Y-88210000D03*
D15*
X123050000Y-90750000D03*
X123050000Y-93290000D03*
X123050000Y-95830000D03*
X123050000Y-98370000D03*
X123050000Y-100910000D03*
D14*
X127300000Y-76700000D03*
X176500000Y-115000000D03*
X149746000Y-131750000D03*
X176500000Y-84500000D03*
X172700000Y-76900000D03*
X118580200Y-101066800D03*
D16*
X131458000Y-122868000D03*
D17*
X130188000Y-122868000D03*
X131458000Y-121598000D03*
X130188000Y-121598000D03*
X131458000Y-120328000D03*
X130188000Y-120328000D03*
X131458000Y-119058000D03*
X130188000Y-119058000D03*
X131458000Y-117788000D03*
X130188000Y-117788000D03*
D18*
X146300000Y-81900000D03*
X140094000Y-103810000D03*
X155842000Y-111430000D03*
X143624602Y-105588000D03*
X142126000Y-119100800D03*
X155842000Y-109652000D03*
X143624600Y-99288798D03*
X140094000Y-107366000D03*
X140932200Y-116814800D03*
X153606800Y-116814798D03*
X144818400Y-111887200D03*
X144000000Y-72300000D03*
X144000000Y-74800000D03*
X151400000Y-73399999D03*
X140094000Y-105588000D03*
X139840000Y-88341402D03*
X143624600Y-102235200D03*
X139586000Y-98730000D03*
X142380000Y-88315996D03*
X149542800Y-101015996D03*
X164224008Y-101016000D03*
X149492000Y-94920000D03*
X161430000Y-95682000D03*
X164224000Y-95682000D03*
X154862990Y-97166790D03*
X155842000Y-107620000D03*
X149542800Y-97968000D03*
X172098000Y-95682000D03*
X168211800Y-97891799D03*
X171081990Y-98222000D03*
X149542800Y-104495800D03*
D19*
X164986000Y-81114000D02*
X165500000Y-80600000D01*
X164986000Y-84460000D02*
X164986000Y-81114000D01*
X165025400Y-115000000D02*
X164986000Y-114960600D01*
X176500000Y-115000000D02*
X165025400Y-115000000D01*
X146488000Y-81712000D02*
X146300000Y-81900000D01*
X162446000Y-84460000D02*
X159698000Y-81712000D01*
X159698000Y-81712000D02*
X146488000Y-81712000D01*
X146250000Y-76020000D02*
X146250000Y-69000000D01*
X142390000Y-79880000D02*
X146250000Y-76020000D01*
X140040000Y-79880000D02*
X142390000Y-79880000D01*
X132140000Y-84460000D02*
X135014000Y-81586000D01*
X139920000Y-80000000D02*
X140040000Y-79880000D01*
X131966000Y-84460000D02*
X132140000Y-84460000D01*
X135350000Y-80000000D02*
X139920000Y-80000000D01*
X135014000Y-81586000D02*
X135014000Y-80336000D01*
X135014000Y-80336000D02*
X135350000Y-80000000D01*
X152032000Y-102032000D02*
X152032000Y-101016000D01*
X164986000Y-114960600D02*
X162039600Y-112014200D01*
X156858000Y-106858000D02*
X152032000Y-102032000D01*
X156858000Y-108128000D02*
X156858000Y-106858000D01*
X160668000Y-111938000D02*
X156858000Y-108128000D01*
X157746408Y-88316000D02*
X158590000Y-88316000D01*
X152032000Y-101016000D02*
X152032000Y-95062000D01*
X158590000Y-88316000D02*
X162446000Y-84460000D01*
X151890000Y-94920000D02*
X151890000Y-94172408D01*
X152032000Y-95062000D02*
X151890000Y-94920000D01*
X151980904Y-94868904D02*
X152032000Y-94920000D01*
X151980904Y-94081504D02*
X151980904Y-94868904D01*
X151980904Y-94081504D02*
X157746408Y-88316000D01*
X151890000Y-94172408D02*
X151980904Y-94081504D01*
X130188000Y-121598000D02*
X131458000Y-121598000D01*
X161963400Y-111938000D02*
X162039600Y-112014200D01*
X160668000Y-111938000D02*
X161963400Y-111938000D01*
X152144000Y-109738600D02*
X152144000Y-107620000D01*
X157366000Y-114960600D02*
X152144000Y-109738600D01*
X155842000Y-113436600D02*
X157366000Y-114960600D01*
X156096000Y-111430000D02*
X155842000Y-111684000D01*
X155842000Y-111684000D02*
X155842000Y-113436600D01*
X140094000Y-103810000D02*
X141872000Y-105588000D01*
X141872000Y-105588000D02*
X143624602Y-105588000D01*
X142125996Y-119558000D02*
X142126000Y-119557996D01*
X142126000Y-119557996D02*
X142126000Y-119100800D01*
X131500800Y-119100800D02*
X131458000Y-119058000D01*
X142126000Y-119100800D02*
X131500800Y-119100800D01*
X131706199Y-117539801D02*
X131458000Y-117788000D01*
X142086799Y-117539801D02*
X131706199Y-117539801D01*
X144666000Y-114960600D02*
X142086799Y-117539801D01*
X157137400Y-109652000D02*
X156096000Y-109652000D01*
X162446000Y-114960600D02*
X157137400Y-109652000D01*
X139444000Y-95648481D02*
X143084317Y-99288798D01*
X139444000Y-94920000D02*
X139444000Y-95648481D01*
X143084317Y-99288798D02*
X143650002Y-99288798D01*
X159906000Y-114960600D02*
X158051802Y-116814798D01*
X158051802Y-116814798D02*
X153606800Y-116814798D01*
X140094000Y-107366000D02*
X144615200Y-111887200D01*
X144615200Y-111887200D02*
X144818400Y-111887200D01*
X146160000Y-110545600D02*
X144818400Y-111887200D01*
X146160000Y-107620000D02*
X146160000Y-110545600D01*
X130188000Y-117297400D02*
X130188000Y-117788000D01*
X140932200Y-116814800D02*
X130670600Y-116814800D01*
X130670600Y-116814800D02*
X130188000Y-117297400D01*
X140080000Y-72300000D02*
X140040000Y-72260000D01*
X144000000Y-72300000D02*
X140080000Y-72300000D01*
X135470000Y-72260000D02*
X127230000Y-80500000D01*
X140040000Y-72260000D02*
X135470000Y-72260000D01*
X153870000Y-68500000D02*
X153870000Y-68564000D01*
X153874000Y-68504000D02*
X153870000Y-68500000D01*
X173120000Y-80600000D02*
X161024000Y-68504000D01*
X161024000Y-68504000D02*
X153874000Y-68504000D01*
X140040000Y-74800000D02*
X144000000Y-74800000D01*
X135470000Y-74800000D02*
X140040000Y-74800000D01*
X129770000Y-80500000D02*
X135470000Y-74800000D01*
X170580000Y-80600000D02*
X163480000Y-73500000D01*
X151500001Y-73500000D02*
X151400000Y-73399999D01*
X163480000Y-73500000D02*
X151500001Y-73500000D01*
X151330000Y-73329999D02*
X151400000Y-73399999D01*
X151330000Y-69409200D02*
X151330000Y-68500000D01*
X151330000Y-69409200D02*
X151330000Y-73329999D01*
X151330000Y-69000000D02*
X151330000Y-69409200D01*
X135470000Y-77340000D02*
X140040000Y-77340000D01*
X132310000Y-80500000D02*
X135470000Y-77340000D01*
X152319999Y-78565001D02*
X148790000Y-75035002D01*
X168040000Y-80600000D02*
X166600000Y-78565001D01*
X166600000Y-78565001D02*
X152319999Y-78565001D01*
X141605002Y-82220000D02*
X148790000Y-75035002D01*
X134506000Y-84460000D02*
X136746000Y-82220000D01*
X136746000Y-82220000D02*
X141605002Y-82220000D01*
X140094000Y-105588000D02*
X132220000Y-113462000D01*
X132220000Y-114706600D02*
X131966000Y-114960600D01*
X132220000Y-113462000D02*
X132220000Y-114706600D01*
X139916202Y-88341402D02*
X139840000Y-88341402D01*
X146160000Y-94920000D02*
X146160000Y-94585200D01*
X146160000Y-94585200D02*
X139916202Y-88341402D01*
X144843800Y-101016000D02*
X143624600Y-102235200D01*
X146048000Y-101016000D02*
X144843800Y-101016000D01*
X148790000Y-69351400D02*
X148790000Y-68500000D01*
X148790000Y-69351400D02*
X148790000Y-69000000D01*
X148790000Y-75035002D02*
X148790000Y-69351400D01*
X133096000Y-88410000D02*
X123350000Y-88410000D01*
X137046000Y-84460000D02*
X133096000Y-88410000D01*
X123350000Y-88410000D02*
X126167200Y-88410000D01*
X126167200Y-88410000D02*
X127267000Y-89509800D01*
X127267000Y-89509800D02*
X127267000Y-121717000D01*
X128418000Y-122868000D02*
X127267000Y-121717000D01*
X130188000Y-122868000D02*
X128418000Y-122868000D01*
X122850000Y-87910000D02*
X123350000Y-88410000D01*
X139586000Y-100732000D02*
X139556000Y-100762000D01*
X139586000Y-98730000D02*
X139586000Y-100732000D01*
X156050004Y-88315996D02*
X142380000Y-88315996D01*
X159906000Y-84460000D02*
X156050004Y-88315996D01*
X149491996Y-101016000D02*
X149492000Y-101015996D01*
X147348000Y-101016000D02*
X149491996Y-101016000D01*
X168666000Y-101016000D02*
X164224008Y-101016000D01*
X174250000Y-108100000D02*
X174250000Y-106600000D01*
X174250000Y-106600000D02*
X168666000Y-101016000D01*
X160250000Y-106600000D02*
X160250000Y-108100000D01*
X147460000Y-94920000D02*
X149492000Y-94920000D01*
X161346000Y-105504000D02*
X160250000Y-106600000D01*
X161430000Y-105420000D02*
X161346000Y-105504000D01*
X161430000Y-95682000D02*
X161430000Y-105420000D01*
X161465200Y-105384800D02*
X161346000Y-105504000D01*
X169034800Y-105384800D02*
X161465200Y-105384800D01*
X170250000Y-108100000D02*
X170250000Y-106600000D01*
X170250000Y-106600000D02*
X169034800Y-105384800D01*
X155210000Y-92900000D02*
X160250000Y-92900000D01*
X153190000Y-94920000D02*
X155210000Y-92900000D01*
X162250000Y-92900000D02*
X160250000Y-92900000D01*
X166250000Y-92900000D02*
X166250000Y-93656000D01*
X166250000Y-93656000D02*
X164224000Y-95682000D01*
X153332000Y-101016000D02*
X153332000Y-98697780D01*
X153332000Y-98697780D02*
X154862990Y-97166790D01*
X153444000Y-107620000D02*
X155842000Y-107620000D01*
X140744000Y-94920000D02*
X143792000Y-97968000D01*
X143792000Y-97968000D02*
X149491996Y-97968000D01*
X172250000Y-92900000D02*
X172250000Y-93650000D01*
X172098000Y-93052000D02*
X172098000Y-95682000D01*
X172250000Y-92900000D02*
X172098000Y-93052000D01*
X169888201Y-97891799D02*
X168211800Y-97891799D01*
X172098000Y-95682000D02*
X169888201Y-97891799D01*
X174250000Y-95053990D02*
X171081990Y-98222000D01*
X174250000Y-92900000D02*
X174250000Y-95053990D01*
X144589800Y-104495800D02*
X149542800Y-104495800D01*
X140856000Y-100762000D02*
X144589800Y-104495800D01*
X149542800Y-105537200D02*
X147460000Y-107620000D01*
X149542800Y-104495800D02*
X149542800Y-105537200D01*
M02*
