G04 #@! TF.GenerationSoftware,KiCad,Pcbnew,5.1.9+dfsg1-1~bpo10+1*
G04 #@! TF.CreationDate,2021-11-05T17:59:57-04:00*
G04 #@! TF.ProjectId,wifi_shield,77696669-5f73-4686-9965-6c642e6b6963,rev?*
G04 #@! TF.SameCoordinates,Original*
G04 #@! TF.FileFunction,Copper,L1,Top*
G04 #@! TF.FilePolarity,Positive*
%FSLAX46Y46*%
G04 Gerber Fmt 4.6, Leading zero omitted, Abs format (unit mm)*
G04 Created by KiCad (PCBNEW 5.1.9+dfsg1-1~bpo10+1) date 2021-11-05 17:59:57*
%MOMM*%
%LPD*%
G01*
G04 APERTURE LIST*
G04 #@! TA.AperFunction,ComponentPad*
%ADD10R,1.700000X1.700000*%
G04 #@! TD*
G04 #@! TA.AperFunction,ComponentPad*
%ADD11O,1.700000X1.700000*%
G04 #@! TD*
G04 #@! TA.AperFunction,ComponentPad*
%ADD12R,1.000000X1.000000*%
G04 #@! TD*
G04 #@! TA.AperFunction,ComponentPad*
%ADD13O,1.000000X1.000000*%
G04 #@! TD*
G04 #@! TA.AperFunction,ViaPad*
%ADD14C,0.800000*%
G04 #@! TD*
G04 #@! TA.AperFunction,Conductor*
%ADD15C,0.250000*%
G04 #@! TD*
G04 APERTURE END LIST*
D10*
X146250000Y-68500000D03*
D11*
X148790000Y-68500000D03*
X151330000Y-68500000D03*
X153870000Y-68500000D03*
X172620000Y-80700000D03*
X170080000Y-80700000D03*
X167540000Y-80700000D03*
D10*
X165000000Y-80700000D03*
X164986000Y-84460000D03*
D11*
X162446000Y-84460000D03*
X159906000Y-84460000D03*
X157366000Y-84460000D03*
X154826000Y-84460000D03*
X152286000Y-84460000D03*
X149746000Y-84460000D03*
X147206000Y-84460000D03*
X144666000Y-84460000D03*
X142126000Y-84460000D03*
X139586000Y-84460000D03*
X137046000Y-84460000D03*
X134506000Y-84460000D03*
X131966000Y-84460000D03*
X164986000Y-114960600D03*
X162446000Y-114960600D03*
X159906000Y-114960600D03*
X157366000Y-114960600D03*
X154826000Y-114960600D03*
X152286000Y-114960600D03*
X149746000Y-114960600D03*
X147206000Y-114960600D03*
X144666000Y-114960600D03*
X142126000Y-114960600D03*
X139586000Y-114960600D03*
X137046000Y-114960600D03*
X134506000Y-114960600D03*
D10*
X131966000Y-114960600D03*
X134950000Y-80500000D03*
D11*
X132410000Y-80500000D03*
X129870000Y-80500000D03*
X127330000Y-80500000D03*
D10*
X123050000Y-88210000D03*
D11*
X123050000Y-90750000D03*
X123050000Y-93290000D03*
X123050000Y-95830000D03*
X123050000Y-98370000D03*
X123050000Y-100910000D03*
D10*
X127300000Y-76700000D03*
X176500000Y-115000000D03*
X149746000Y-131750000D03*
X176500000Y-84500000D03*
X172700000Y-76900000D03*
X118580200Y-101066800D03*
D12*
X131458000Y-122868000D03*
D13*
X130188000Y-122868000D03*
X131458000Y-121598000D03*
X130188000Y-121598000D03*
X131458000Y-120328000D03*
X130188000Y-120328000D03*
X131458000Y-119058000D03*
X130188000Y-119058000D03*
X131458000Y-117788000D03*
X130188000Y-117788000D03*
D14*
X146300000Y-81900000D03*
X140094000Y-103810000D03*
X155842000Y-111430000D03*
X143624602Y-105588000D03*
X142126000Y-119100800D03*
X155842000Y-109652000D03*
X143624600Y-99288798D03*
X140094000Y-107366000D03*
X140932200Y-116814800D03*
X153606800Y-116814798D03*
X144818400Y-111887200D03*
X144000000Y-72300000D03*
X144000000Y-74800000D03*
X151400000Y-73399999D03*
X140094000Y-105588000D03*
X139840000Y-88341402D03*
X143624600Y-102235200D03*
X139586000Y-98730000D03*
X142380000Y-88315996D03*
X149542800Y-101015996D03*
X164224008Y-101016000D03*
X149492000Y-94920000D03*
X161430000Y-95682000D03*
X164224000Y-95682000D03*
X154862990Y-97166790D03*
X155842000Y-107620000D03*
X149542800Y-97968000D03*
X172098000Y-95682000D03*
X168211800Y-97891799D03*
X171081990Y-98222000D03*
X149542800Y-104495800D03*
D15*
X164986000Y-81114000D02*
X165500000Y-80600000D01*
X165500000Y-80600000D02*
X165500000Y-78500000D01*
X167100000Y-76900000D02*
X173100000Y-76900000D01*
X165500000Y-78500000D02*
X167100000Y-76900000D01*
X136062000Y-81712000D02*
X134850000Y-80500000D01*
X146300000Y-81900000D02*
X146112000Y-81712000D01*
X146112000Y-81712000D02*
X136062000Y-81712000D01*
X123350000Y-90950000D02*
X127554000Y-90950000D01*
X131966000Y-86538000D02*
X131966000Y-84460000D01*
X127554000Y-90950000D02*
X131966000Y-86538000D01*
X133405800Y-121598000D02*
X131458000Y-121598000D01*
X134506000Y-114960600D02*
X134506000Y-120497800D01*
X134506000Y-120497800D02*
X133405800Y-121598000D01*
X135242600Y-103810000D02*
X140094000Y-103810000D01*
X127350000Y-95917400D02*
X135242600Y-103810000D01*
X123462600Y-95917400D02*
X123350000Y-96030000D01*
X156096000Y-111430000D02*
X149466602Y-111430000D01*
X144024601Y-105987999D02*
X143624602Y-105588000D01*
X149466602Y-111430000D02*
X144024601Y-105987999D01*
X157366000Y-114960600D02*
X153225800Y-119100800D01*
X153225800Y-119100800D02*
X142126000Y-119100800D01*
X123237400Y-95917400D02*
X122850000Y-95530000D01*
X123780400Y-95917400D02*
X123237400Y-95917400D01*
X123780400Y-95917400D02*
X123462600Y-95917400D01*
X127350000Y-95917400D02*
X123780400Y-95917400D01*
X127437200Y-101110000D02*
X123350000Y-101110000D01*
X135725200Y-109398000D02*
X127437200Y-101110000D01*
X144666000Y-114960600D02*
X139103400Y-109398000D01*
X139103400Y-109398000D02*
X135725200Y-109398000D01*
X122850000Y-100610000D02*
X123350000Y-101110000D01*
X156096000Y-109652000D02*
X153447519Y-109652000D01*
X153447519Y-109652000D02*
X143650002Y-99854483D01*
X143650002Y-99854483D02*
X143650002Y-99288798D01*
X153606798Y-116814800D02*
X153606800Y-116814798D01*
X140932200Y-116814800D02*
X153606798Y-116814800D01*
X159906000Y-114960600D02*
X157112000Y-112166600D01*
X145097800Y-112166600D02*
X144818400Y-111887200D01*
X157112000Y-112166600D02*
X145097800Y-112166600D01*
X136360200Y-107366000D02*
X140094000Y-107366000D01*
X122850000Y-98070000D02*
X123408400Y-98628400D01*
X127622600Y-98628400D02*
X136360200Y-107366000D01*
X123408400Y-98628400D02*
X127622600Y-98628400D01*
X150570000Y-72300000D02*
X144000000Y-72300000D01*
X157366000Y-84460000D02*
X156096000Y-83190000D01*
X156096000Y-83190000D02*
X156096000Y-70726000D01*
X153554600Y-68815400D02*
X153870000Y-68500000D01*
X153554600Y-69315400D02*
X153554600Y-68815400D01*
X153554600Y-69315400D02*
X150570000Y-72300000D01*
X154565900Y-69195900D02*
X153870000Y-68500000D01*
X156096000Y-70726000D02*
X154565900Y-69195900D01*
X149999999Y-74800000D02*
X151400000Y-73399999D01*
X144000000Y-74800000D02*
X149999999Y-74800000D01*
X151400000Y-81034000D02*
X151400000Y-73399999D01*
X154826000Y-84460000D02*
X151400000Y-81034000D01*
X132310000Y-80500000D02*
X132310000Y-82210000D01*
X134506000Y-84406000D02*
X134506000Y-84460000D01*
X132310000Y-82210000D02*
X134506000Y-84406000D01*
X134506000Y-84460000D02*
X138387402Y-88341402D01*
X138387402Y-88341402D02*
X139840000Y-88341402D01*
X140094000Y-105588000D02*
X143446800Y-102235200D01*
X143446800Y-102235200D02*
X143624600Y-102235200D01*
X173663001Y-87336999D02*
X176500000Y-84500000D01*
X137046000Y-84460000D02*
X139922999Y-87336999D01*
X139922999Y-87336999D02*
X173663001Y-87336999D01*
X127300000Y-76700000D02*
X126538600Y-76700000D01*
X122850000Y-80388600D02*
X122850000Y-87910000D01*
X126538600Y-76700000D02*
X122850000Y-80388600D01*
X139586000Y-91109996D02*
X142380000Y-88315996D01*
X139586000Y-98730000D02*
X139586000Y-91109996D01*
X149492000Y-101015996D02*
X164224004Y-101015996D01*
X164224004Y-101015996D02*
X164224008Y-101016000D01*
X149542800Y-94869200D02*
X149492000Y-94920000D01*
X150254000Y-95682000D02*
X149492000Y-94920000D01*
X161430000Y-95682000D02*
X150254000Y-95682000D01*
X164224000Y-95682000D02*
X162750800Y-97155200D01*
X154874580Y-97155200D02*
X154862990Y-97166790D01*
X162739210Y-97166790D02*
X162750800Y-97155200D01*
X154862990Y-97166790D02*
X162739210Y-97166790D01*
X163716000Y-107620000D02*
X172098000Y-99238000D01*
X172098000Y-99238000D02*
X172098000Y-95682000D01*
X155842000Y-107620000D02*
X163716000Y-107620000D01*
X149491996Y-97968000D02*
X149568197Y-97891799D01*
X167646115Y-97891799D02*
X168211800Y-97891799D01*
X149568197Y-97891799D02*
X167646115Y-97891799D01*
X164808190Y-104495800D02*
X149542800Y-104495800D01*
X171081990Y-98222000D02*
X164808190Y-104495800D01*
X137046000Y-114960600D02*
X137046000Y-121590000D01*
X147206000Y-131750000D02*
X149746000Y-131750000D01*
X137046000Y-121590000D02*
X147206000Y-131750000D01*
X118580200Y-102082800D02*
X118580200Y-101066800D01*
X120307400Y-103810000D02*
X118580200Y-102082800D01*
X137046000Y-114960600D02*
X125895400Y-103810000D01*
X125895400Y-103810000D02*
X120307400Y-103810000D01*
M02*
