G04 #@! TF.GenerationSoftware,KiCad,Pcbnew,7.0.0-da2b9df05c~171~ubuntu20.04.1*
G04 #@! TF.CreationDate,2023-03-12T17:59:21-04:00*
G04 #@! TF.ProjectId,wifi_shield,77696669-5f73-4686-9965-6c642e6b6963,rev?*
G04 #@! TF.SameCoordinates,Original*
G04 #@! TF.FileFunction,Legend,Bot*
G04 #@! TF.FilePolarity,Positive*
%FSLAX46Y46*%
G04 Gerber Fmt 4.6, Leading zero omitted, Abs format (unit mm)*
G04 Created by KiCad (PCBNEW 7.0.0-da2b9df05c~171~ubuntu20.04.1) date 2023-03-12 17:59:21*
%MOMM*%
%LPD*%
G01*
G04 APERTURE LIST*
%ADD10C,0.150000*%
%ADD11C,0.200000*%
%ADD12C,0.120000*%
G04 APERTURE END LIST*
D10*
X154260657Y-92664000D02*
X154317800Y-92635428D01*
X154317800Y-92635428D02*
X154403514Y-92635428D01*
X154403514Y-92635428D02*
X154489228Y-92664000D01*
X154489228Y-92664000D02*
X154546371Y-92721142D01*
X154546371Y-92721142D02*
X154574942Y-92778285D01*
X154574942Y-92778285D02*
X154603514Y-92892571D01*
X154603514Y-92892571D02*
X154603514Y-92978285D01*
X154603514Y-92978285D02*
X154574942Y-93092571D01*
X154574942Y-93092571D02*
X154546371Y-93149714D01*
X154546371Y-93149714D02*
X154489228Y-93206857D01*
X154489228Y-93206857D02*
X154403514Y-93235428D01*
X154403514Y-93235428D02*
X154346371Y-93235428D01*
X154346371Y-93235428D02*
X154260657Y-93206857D01*
X154260657Y-93206857D02*
X154232085Y-93178285D01*
X154232085Y-93178285D02*
X154232085Y-92978285D01*
X154232085Y-92978285D02*
X154346371Y-92978285D01*
X153974942Y-93235428D02*
X153974942Y-92635428D01*
X153974942Y-92635428D02*
X153632085Y-93235428D01*
X153632085Y-93235428D02*
X153632085Y-92635428D01*
X153346371Y-93235428D02*
X153346371Y-92635428D01*
X153346371Y-92635428D02*
X153203514Y-92635428D01*
X153203514Y-92635428D02*
X153117800Y-92664000D01*
X153117800Y-92664000D02*
X153060657Y-92721142D01*
X153060657Y-92721142D02*
X153032086Y-92778285D01*
X153032086Y-92778285D02*
X153003514Y-92892571D01*
X153003514Y-92892571D02*
X153003514Y-92978285D01*
X153003514Y-92978285D02*
X153032086Y-93092571D01*
X153032086Y-93092571D02*
X153060657Y-93149714D01*
X153060657Y-93149714D02*
X153117800Y-93206857D01*
X153117800Y-93206857D02*
X153203514Y-93235428D01*
X153203514Y-93235428D02*
X153346371Y-93235428D01*
X152889229Y-93292571D02*
X152432086Y-93292571D01*
X152289228Y-92921142D02*
X152089228Y-92921142D01*
X152003514Y-93235428D02*
X152289228Y-93235428D01*
X152289228Y-93235428D02*
X152289228Y-92635428D01*
X152289228Y-92635428D02*
X152003514Y-92635428D01*
X151774943Y-93206857D02*
X151689229Y-93235428D01*
X151689229Y-93235428D02*
X151546371Y-93235428D01*
X151546371Y-93235428D02*
X151489229Y-93206857D01*
X151489229Y-93206857D02*
X151460657Y-93178285D01*
X151460657Y-93178285D02*
X151432086Y-93121142D01*
X151432086Y-93121142D02*
X151432086Y-93064000D01*
X151432086Y-93064000D02*
X151460657Y-93006857D01*
X151460657Y-93006857D02*
X151489229Y-92978285D01*
X151489229Y-92978285D02*
X151546371Y-92949714D01*
X151546371Y-92949714D02*
X151660657Y-92921142D01*
X151660657Y-92921142D02*
X151717800Y-92892571D01*
X151717800Y-92892571D02*
X151746371Y-92864000D01*
X151746371Y-92864000D02*
X151774943Y-92806857D01*
X151774943Y-92806857D02*
X151774943Y-92749714D01*
X151774943Y-92749714D02*
X151746371Y-92692571D01*
X151746371Y-92692571D02*
X151717800Y-92664000D01*
X151717800Y-92664000D02*
X151660657Y-92635428D01*
X151660657Y-92635428D02*
X151517800Y-92635428D01*
X151517800Y-92635428D02*
X151432086Y-92664000D01*
X151174942Y-93235428D02*
X151174942Y-92635428D01*
X151174942Y-92635428D02*
X150946371Y-92635428D01*
X150946371Y-92635428D02*
X150889228Y-92664000D01*
X150889228Y-92664000D02*
X150860657Y-92692571D01*
X150860657Y-92692571D02*
X150832085Y-92749714D01*
X150832085Y-92749714D02*
X150832085Y-92835428D01*
X150832085Y-92835428D02*
X150860657Y-92892571D01*
X150860657Y-92892571D02*
X150889228Y-92921142D01*
X150889228Y-92921142D02*
X150946371Y-92949714D01*
X150946371Y-92949714D02*
X151174942Y-92949714D01*
X148253514Y-92660828D02*
X148053514Y-93260828D01*
X148053514Y-93260828D02*
X147853514Y-92660828D01*
X147310656Y-93203685D02*
X147339228Y-93232257D01*
X147339228Y-93232257D02*
X147424942Y-93260828D01*
X147424942Y-93260828D02*
X147482085Y-93260828D01*
X147482085Y-93260828D02*
X147567799Y-93232257D01*
X147567799Y-93232257D02*
X147624942Y-93175114D01*
X147624942Y-93175114D02*
X147653513Y-93117971D01*
X147653513Y-93117971D02*
X147682085Y-93003685D01*
X147682085Y-93003685D02*
X147682085Y-92917971D01*
X147682085Y-92917971D02*
X147653513Y-92803685D01*
X147653513Y-92803685D02*
X147624942Y-92746542D01*
X147624942Y-92746542D02*
X147567799Y-92689400D01*
X147567799Y-92689400D02*
X147482085Y-92660828D01*
X147482085Y-92660828D02*
X147424942Y-92660828D01*
X147424942Y-92660828D02*
X147339228Y-92689400D01*
X147339228Y-92689400D02*
X147310656Y-92717971D01*
X146710656Y-93203685D02*
X146739228Y-93232257D01*
X146739228Y-93232257D02*
X146824942Y-93260828D01*
X146824942Y-93260828D02*
X146882085Y-93260828D01*
X146882085Y-93260828D02*
X146967799Y-93232257D01*
X146967799Y-93232257D02*
X147024942Y-93175114D01*
X147024942Y-93175114D02*
X147053513Y-93117971D01*
X147053513Y-93117971D02*
X147082085Y-93003685D01*
X147082085Y-93003685D02*
X147082085Y-92917971D01*
X147082085Y-92917971D02*
X147053513Y-92803685D01*
X147053513Y-92803685D02*
X147024942Y-92746542D01*
X147024942Y-92746542D02*
X146967799Y-92689400D01*
X146967799Y-92689400D02*
X146882085Y-92660828D01*
X146882085Y-92660828D02*
X146824942Y-92660828D01*
X146824942Y-92660828D02*
X146739228Y-92689400D01*
X146739228Y-92689400D02*
X146710656Y-92717971D01*
X146596371Y-93317971D02*
X146139228Y-93317971D01*
X145996370Y-92946542D02*
X145796370Y-92946542D01*
X145710656Y-93260828D02*
X145996370Y-93260828D01*
X145996370Y-93260828D02*
X145996370Y-92660828D01*
X145996370Y-92660828D02*
X145710656Y-92660828D01*
X145482085Y-93232257D02*
X145396371Y-93260828D01*
X145396371Y-93260828D02*
X145253513Y-93260828D01*
X145253513Y-93260828D02*
X145196371Y-93232257D01*
X145196371Y-93232257D02*
X145167799Y-93203685D01*
X145167799Y-93203685D02*
X145139228Y-93146542D01*
X145139228Y-93146542D02*
X145139228Y-93089400D01*
X145139228Y-93089400D02*
X145167799Y-93032257D01*
X145167799Y-93032257D02*
X145196371Y-93003685D01*
X145196371Y-93003685D02*
X145253513Y-92975114D01*
X145253513Y-92975114D02*
X145367799Y-92946542D01*
X145367799Y-92946542D02*
X145424942Y-92917971D01*
X145424942Y-92917971D02*
X145453513Y-92889400D01*
X145453513Y-92889400D02*
X145482085Y-92832257D01*
X145482085Y-92832257D02*
X145482085Y-92775114D01*
X145482085Y-92775114D02*
X145453513Y-92717971D01*
X145453513Y-92717971D02*
X145424942Y-92689400D01*
X145424942Y-92689400D02*
X145367799Y-92660828D01*
X145367799Y-92660828D02*
X145224942Y-92660828D01*
X145224942Y-92660828D02*
X145139228Y-92689400D01*
X144882084Y-93260828D02*
X144882084Y-92660828D01*
X144882084Y-92660828D02*
X144653513Y-92660828D01*
X144653513Y-92660828D02*
X144596370Y-92689400D01*
X144596370Y-92689400D02*
X144567799Y-92717971D01*
X144567799Y-92717971D02*
X144539227Y-92775114D01*
X144539227Y-92775114D02*
X144539227Y-92860828D01*
X144539227Y-92860828D02*
X144567799Y-92917971D01*
X144567799Y-92917971D02*
X144596370Y-92946542D01*
X144596370Y-92946542D02*
X144653513Y-92975114D01*
X144653513Y-92975114D02*
X144882084Y-92975114D01*
X154914628Y-98988600D02*
X154971771Y-98960028D01*
X154971771Y-98960028D02*
X155057485Y-98960028D01*
X155057485Y-98960028D02*
X155143199Y-98988600D01*
X155143199Y-98988600D02*
X155200342Y-99045742D01*
X155200342Y-99045742D02*
X155228913Y-99102885D01*
X155228913Y-99102885D02*
X155257485Y-99217171D01*
X155257485Y-99217171D02*
X155257485Y-99302885D01*
X155257485Y-99302885D02*
X155228913Y-99417171D01*
X155228913Y-99417171D02*
X155200342Y-99474314D01*
X155200342Y-99474314D02*
X155143199Y-99531457D01*
X155143199Y-99531457D02*
X155057485Y-99560028D01*
X155057485Y-99560028D02*
X155000342Y-99560028D01*
X155000342Y-99560028D02*
X154914628Y-99531457D01*
X154914628Y-99531457D02*
X154886056Y-99502885D01*
X154886056Y-99502885D02*
X154886056Y-99302885D01*
X154886056Y-99302885D02*
X155000342Y-99302885D01*
X154628913Y-99560028D02*
X154628913Y-98960028D01*
X154628913Y-98960028D02*
X154400342Y-98960028D01*
X154400342Y-98960028D02*
X154343199Y-98988600D01*
X154343199Y-98988600D02*
X154314628Y-99017171D01*
X154314628Y-99017171D02*
X154286056Y-99074314D01*
X154286056Y-99074314D02*
X154286056Y-99160028D01*
X154286056Y-99160028D02*
X154314628Y-99217171D01*
X154314628Y-99217171D02*
X154343199Y-99245742D01*
X154343199Y-99245742D02*
X154400342Y-99274314D01*
X154400342Y-99274314D02*
X154628913Y-99274314D01*
X154028913Y-99560028D02*
X154028913Y-98960028D01*
X153628914Y-98960028D02*
X153514628Y-98960028D01*
X153514628Y-98960028D02*
X153457485Y-98988600D01*
X153457485Y-98988600D02*
X153400342Y-99045742D01*
X153400342Y-99045742D02*
X153371771Y-99160028D01*
X153371771Y-99160028D02*
X153371771Y-99360028D01*
X153371771Y-99360028D02*
X153400342Y-99474314D01*
X153400342Y-99474314D02*
X153457485Y-99531457D01*
X153457485Y-99531457D02*
X153514628Y-99560028D01*
X153514628Y-99560028D02*
X153628914Y-99560028D01*
X153628914Y-99560028D02*
X153686057Y-99531457D01*
X153686057Y-99531457D02*
X153743199Y-99474314D01*
X153743199Y-99474314D02*
X153771771Y-99360028D01*
X153771771Y-99360028D02*
X153771771Y-99160028D01*
X153771771Y-99160028D02*
X153743199Y-99045742D01*
X153743199Y-99045742D02*
X153686057Y-98988600D01*
X153686057Y-98988600D02*
X153628914Y-98960028D01*
X153000343Y-98960028D02*
X152943200Y-98960028D01*
X152943200Y-98960028D02*
X152886057Y-98988600D01*
X152886057Y-98988600D02*
X152857486Y-99017171D01*
X152857486Y-99017171D02*
X152828914Y-99074314D01*
X152828914Y-99074314D02*
X152800343Y-99188600D01*
X152800343Y-99188600D02*
X152800343Y-99331457D01*
X152800343Y-99331457D02*
X152828914Y-99445742D01*
X152828914Y-99445742D02*
X152857486Y-99502885D01*
X152857486Y-99502885D02*
X152886057Y-99531457D01*
X152886057Y-99531457D02*
X152943200Y-99560028D01*
X152943200Y-99560028D02*
X153000343Y-99560028D01*
X153000343Y-99560028D02*
X153057486Y-99531457D01*
X153057486Y-99531457D02*
X153086057Y-99502885D01*
X153086057Y-99502885D02*
X153114628Y-99445742D01*
X153114628Y-99445742D02*
X153143200Y-99331457D01*
X153143200Y-99331457D02*
X153143200Y-99188600D01*
X153143200Y-99188600D02*
X153114628Y-99074314D01*
X153114628Y-99074314D02*
X153086057Y-99017171D01*
X153086057Y-99017171D02*
X153057486Y-98988600D01*
X153057486Y-98988600D02*
X153000343Y-98960028D01*
X152543199Y-99331457D02*
X152086057Y-99331457D01*
X151486057Y-98988600D02*
X151543200Y-98960028D01*
X151543200Y-98960028D02*
X151628914Y-98960028D01*
X151628914Y-98960028D02*
X151714628Y-98988600D01*
X151714628Y-98988600D02*
X151771771Y-99045742D01*
X151771771Y-99045742D02*
X151800342Y-99102885D01*
X151800342Y-99102885D02*
X151828914Y-99217171D01*
X151828914Y-99217171D02*
X151828914Y-99302885D01*
X151828914Y-99302885D02*
X151800342Y-99417171D01*
X151800342Y-99417171D02*
X151771771Y-99474314D01*
X151771771Y-99474314D02*
X151714628Y-99531457D01*
X151714628Y-99531457D02*
X151628914Y-99560028D01*
X151628914Y-99560028D02*
X151571771Y-99560028D01*
X151571771Y-99560028D02*
X151486057Y-99531457D01*
X151486057Y-99531457D02*
X151457485Y-99502885D01*
X151457485Y-99502885D02*
X151457485Y-99302885D01*
X151457485Y-99302885D02*
X151571771Y-99302885D01*
X151200342Y-99560028D02*
X151200342Y-98960028D01*
X151200342Y-98960028D02*
X150857485Y-99560028D01*
X150857485Y-99560028D02*
X150857485Y-98960028D01*
X150571771Y-99560028D02*
X150571771Y-98960028D01*
X150571771Y-98960028D02*
X150428914Y-98960028D01*
X150428914Y-98960028D02*
X150343200Y-98988600D01*
X150343200Y-98988600D02*
X150286057Y-99045742D01*
X150286057Y-99045742D02*
X150257486Y-99102885D01*
X150257486Y-99102885D02*
X150228914Y-99217171D01*
X150228914Y-99217171D02*
X150228914Y-99302885D01*
X150228914Y-99302885D02*
X150257486Y-99417171D01*
X150257486Y-99417171D02*
X150286057Y-99474314D01*
X150286057Y-99474314D02*
X150343200Y-99531457D01*
X150343200Y-99531457D02*
X150428914Y-99560028D01*
X150428914Y-99560028D02*
X150571771Y-99560028D01*
X148655114Y-99560028D02*
X148855114Y-99274314D01*
X148997971Y-99560028D02*
X148997971Y-98960028D01*
X148997971Y-98960028D02*
X148769400Y-98960028D01*
X148769400Y-98960028D02*
X148712257Y-98988600D01*
X148712257Y-98988600D02*
X148683686Y-99017171D01*
X148683686Y-99017171D02*
X148655114Y-99074314D01*
X148655114Y-99074314D02*
X148655114Y-99160028D01*
X148655114Y-99160028D02*
X148683686Y-99217171D01*
X148683686Y-99217171D02*
X148712257Y-99245742D01*
X148712257Y-99245742D02*
X148769400Y-99274314D01*
X148769400Y-99274314D02*
X148997971Y-99274314D01*
X148397971Y-99245742D02*
X148197971Y-99245742D01*
X148112257Y-99560028D02*
X148397971Y-99560028D01*
X148397971Y-99560028D02*
X148397971Y-98960028D01*
X148397971Y-98960028D02*
X148112257Y-98960028D01*
X147883686Y-99531457D02*
X147797972Y-99560028D01*
X147797972Y-99560028D02*
X147655114Y-99560028D01*
X147655114Y-99560028D02*
X147597972Y-99531457D01*
X147597972Y-99531457D02*
X147569400Y-99502885D01*
X147569400Y-99502885D02*
X147540829Y-99445742D01*
X147540829Y-99445742D02*
X147540829Y-99388600D01*
X147540829Y-99388600D02*
X147569400Y-99331457D01*
X147569400Y-99331457D02*
X147597972Y-99302885D01*
X147597972Y-99302885D02*
X147655114Y-99274314D01*
X147655114Y-99274314D02*
X147769400Y-99245742D01*
X147769400Y-99245742D02*
X147826543Y-99217171D01*
X147826543Y-99217171D02*
X147855114Y-99188600D01*
X147855114Y-99188600D02*
X147883686Y-99131457D01*
X147883686Y-99131457D02*
X147883686Y-99074314D01*
X147883686Y-99074314D02*
X147855114Y-99017171D01*
X147855114Y-99017171D02*
X147826543Y-98988600D01*
X147826543Y-98988600D02*
X147769400Y-98960028D01*
X147769400Y-98960028D02*
X147626543Y-98960028D01*
X147626543Y-98960028D02*
X147540829Y-98988600D01*
X147283685Y-99245742D02*
X147083685Y-99245742D01*
X146997971Y-99560028D02*
X147283685Y-99560028D01*
X147283685Y-99560028D02*
X147283685Y-98960028D01*
X147283685Y-98960028D02*
X146997971Y-98960028D01*
X146826543Y-98960028D02*
X146483686Y-98960028D01*
X146655114Y-99560028D02*
X146655114Y-98960028D01*
X146283685Y-99331457D02*
X145826543Y-99331457D01*
X145597971Y-98960028D02*
X145226543Y-98960028D01*
X145226543Y-98960028D02*
X145426543Y-99188600D01*
X145426543Y-99188600D02*
X145340828Y-99188600D01*
X145340828Y-99188600D02*
X145283686Y-99217171D01*
X145283686Y-99217171D02*
X145255114Y-99245742D01*
X145255114Y-99245742D02*
X145226543Y-99302885D01*
X145226543Y-99302885D02*
X145226543Y-99445742D01*
X145226543Y-99445742D02*
X145255114Y-99502885D01*
X145255114Y-99502885D02*
X145283686Y-99531457D01*
X145283686Y-99531457D02*
X145340828Y-99560028D01*
X145340828Y-99560028D02*
X145512257Y-99560028D01*
X145512257Y-99560028D02*
X145569400Y-99531457D01*
X145569400Y-99531457D02*
X145597971Y-99502885D01*
X144969399Y-99502885D02*
X144940828Y-99531457D01*
X144940828Y-99531457D02*
X144969399Y-99560028D01*
X144969399Y-99560028D02*
X144997971Y-99531457D01*
X144997971Y-99531457D02*
X144969399Y-99502885D01*
X144969399Y-99502885D02*
X144969399Y-99560028D01*
X144740828Y-98960028D02*
X144369400Y-98960028D01*
X144369400Y-98960028D02*
X144569400Y-99188600D01*
X144569400Y-99188600D02*
X144483685Y-99188600D01*
X144483685Y-99188600D02*
X144426543Y-99217171D01*
X144426543Y-99217171D02*
X144397971Y-99245742D01*
X144397971Y-99245742D02*
X144369400Y-99302885D01*
X144369400Y-99302885D02*
X144369400Y-99445742D01*
X144369400Y-99445742D02*
X144397971Y-99502885D01*
X144397971Y-99502885D02*
X144426543Y-99531457D01*
X144426543Y-99531457D02*
X144483685Y-99560028D01*
X144483685Y-99560028D02*
X144655114Y-99560028D01*
X144655114Y-99560028D02*
X144712257Y-99531457D01*
X144712257Y-99531457D02*
X144740828Y-99502885D01*
X144169399Y-99160028D02*
X144026542Y-99560028D01*
X144026542Y-99560028D02*
X143883685Y-99160028D01*
X141943228Y-99531457D02*
X141857514Y-99560028D01*
X141857514Y-99560028D02*
X141714656Y-99560028D01*
X141714656Y-99560028D02*
X141657514Y-99531457D01*
X141657514Y-99531457D02*
X141628942Y-99502885D01*
X141628942Y-99502885D02*
X141600371Y-99445742D01*
X141600371Y-99445742D02*
X141600371Y-99388600D01*
X141600371Y-99388600D02*
X141628942Y-99331457D01*
X141628942Y-99331457D02*
X141657514Y-99302885D01*
X141657514Y-99302885D02*
X141714656Y-99274314D01*
X141714656Y-99274314D02*
X141828942Y-99245742D01*
X141828942Y-99245742D02*
X141886085Y-99217171D01*
X141886085Y-99217171D02*
X141914656Y-99188600D01*
X141914656Y-99188600D02*
X141943228Y-99131457D01*
X141943228Y-99131457D02*
X141943228Y-99074314D01*
X141943228Y-99074314D02*
X141914656Y-99017171D01*
X141914656Y-99017171D02*
X141886085Y-98988600D01*
X141886085Y-98988600D02*
X141828942Y-98960028D01*
X141828942Y-98960028D02*
X141686085Y-98960028D01*
X141686085Y-98960028D02*
X141600371Y-98988600D01*
X141343227Y-99245742D02*
X141143227Y-99245742D01*
X141057513Y-99560028D02*
X141343227Y-99560028D01*
X141343227Y-99560028D02*
X141343227Y-98960028D01*
X141343227Y-98960028D02*
X141057513Y-98960028D01*
X140457513Y-99560028D02*
X140657513Y-99274314D01*
X140800370Y-99560028D02*
X140800370Y-98960028D01*
X140800370Y-98960028D02*
X140571799Y-98960028D01*
X140571799Y-98960028D02*
X140514656Y-98988600D01*
X140514656Y-98988600D02*
X140486085Y-99017171D01*
X140486085Y-99017171D02*
X140457513Y-99074314D01*
X140457513Y-99074314D02*
X140457513Y-99160028D01*
X140457513Y-99160028D02*
X140486085Y-99217171D01*
X140486085Y-99217171D02*
X140514656Y-99245742D01*
X140514656Y-99245742D02*
X140571799Y-99274314D01*
X140571799Y-99274314D02*
X140800370Y-99274314D01*
X140200370Y-99560028D02*
X140200370Y-98960028D01*
X139943228Y-99388600D02*
X139657514Y-99388600D01*
X140000371Y-99560028D02*
X139800371Y-98960028D01*
X139800371Y-98960028D02*
X139600371Y-99560028D01*
X139114656Y-99560028D02*
X139400370Y-99560028D01*
X139400370Y-99560028D02*
X139400370Y-98960028D01*
X138943228Y-99017171D02*
X138914656Y-98988600D01*
X138914656Y-98988600D02*
X138857514Y-98960028D01*
X138857514Y-98960028D02*
X138714656Y-98960028D01*
X138714656Y-98960028D02*
X138657514Y-98988600D01*
X138657514Y-98988600D02*
X138628942Y-99017171D01*
X138628942Y-99017171D02*
X138600371Y-99074314D01*
X138600371Y-99074314D02*
X138600371Y-99131457D01*
X138600371Y-99131457D02*
X138628942Y-99217171D01*
X138628942Y-99217171D02*
X138971799Y-99560028D01*
X138971799Y-99560028D02*
X138600371Y-99560028D01*
X141790828Y-93232257D02*
X141705114Y-93260828D01*
X141705114Y-93260828D02*
X141562256Y-93260828D01*
X141562256Y-93260828D02*
X141505114Y-93232257D01*
X141505114Y-93232257D02*
X141476542Y-93203685D01*
X141476542Y-93203685D02*
X141447971Y-93146542D01*
X141447971Y-93146542D02*
X141447971Y-93089400D01*
X141447971Y-93089400D02*
X141476542Y-93032257D01*
X141476542Y-93032257D02*
X141505114Y-93003685D01*
X141505114Y-93003685D02*
X141562256Y-92975114D01*
X141562256Y-92975114D02*
X141676542Y-92946542D01*
X141676542Y-92946542D02*
X141733685Y-92917971D01*
X141733685Y-92917971D02*
X141762256Y-92889400D01*
X141762256Y-92889400D02*
X141790828Y-92832257D01*
X141790828Y-92832257D02*
X141790828Y-92775114D01*
X141790828Y-92775114D02*
X141762256Y-92717971D01*
X141762256Y-92717971D02*
X141733685Y-92689400D01*
X141733685Y-92689400D02*
X141676542Y-92660828D01*
X141676542Y-92660828D02*
X141533685Y-92660828D01*
X141533685Y-92660828D02*
X141447971Y-92689400D01*
X141190827Y-92946542D02*
X140990827Y-92946542D01*
X140905113Y-93260828D02*
X141190827Y-93260828D01*
X141190827Y-93260828D02*
X141190827Y-92660828D01*
X141190827Y-92660828D02*
X140905113Y-92660828D01*
X140305113Y-93260828D02*
X140505113Y-92975114D01*
X140647970Y-93260828D02*
X140647970Y-92660828D01*
X140647970Y-92660828D02*
X140419399Y-92660828D01*
X140419399Y-92660828D02*
X140362256Y-92689400D01*
X140362256Y-92689400D02*
X140333685Y-92717971D01*
X140333685Y-92717971D02*
X140305113Y-92775114D01*
X140305113Y-92775114D02*
X140305113Y-92860828D01*
X140305113Y-92860828D02*
X140333685Y-92917971D01*
X140333685Y-92917971D02*
X140362256Y-92946542D01*
X140362256Y-92946542D02*
X140419399Y-92975114D01*
X140419399Y-92975114D02*
X140647970Y-92975114D01*
X140047970Y-93260828D02*
X140047970Y-92660828D01*
X139790828Y-93089400D02*
X139505114Y-93089400D01*
X139847971Y-93260828D02*
X139647971Y-92660828D01*
X139647971Y-92660828D02*
X139447971Y-93260828D01*
X138962256Y-93260828D02*
X139247970Y-93260828D01*
X139247970Y-93260828D02*
X139247970Y-92660828D01*
X138790828Y-92717971D02*
X138762256Y-92689400D01*
X138762256Y-92689400D02*
X138705114Y-92660828D01*
X138705114Y-92660828D02*
X138562256Y-92660828D01*
X138562256Y-92660828D02*
X138505114Y-92689400D01*
X138505114Y-92689400D02*
X138476542Y-92717971D01*
X138476542Y-92717971D02*
X138447971Y-92775114D01*
X138447971Y-92775114D02*
X138447971Y-92832257D01*
X138447971Y-92832257D02*
X138476542Y-92917971D01*
X138476542Y-92917971D02*
X138819399Y-93260828D01*
X138819399Y-93260828D02*
X138447971Y-93260828D01*
X148194828Y-105906857D02*
X148109114Y-105935428D01*
X148109114Y-105935428D02*
X147966256Y-105935428D01*
X147966256Y-105935428D02*
X147909114Y-105906857D01*
X147909114Y-105906857D02*
X147880542Y-105878285D01*
X147880542Y-105878285D02*
X147851971Y-105821142D01*
X147851971Y-105821142D02*
X147851971Y-105764000D01*
X147851971Y-105764000D02*
X147880542Y-105706857D01*
X147880542Y-105706857D02*
X147909114Y-105678285D01*
X147909114Y-105678285D02*
X147966256Y-105649714D01*
X147966256Y-105649714D02*
X148080542Y-105621142D01*
X148080542Y-105621142D02*
X148137685Y-105592571D01*
X148137685Y-105592571D02*
X148166256Y-105564000D01*
X148166256Y-105564000D02*
X148194828Y-105506857D01*
X148194828Y-105506857D02*
X148194828Y-105449714D01*
X148194828Y-105449714D02*
X148166256Y-105392571D01*
X148166256Y-105392571D02*
X148137685Y-105364000D01*
X148137685Y-105364000D02*
X148080542Y-105335428D01*
X148080542Y-105335428D02*
X147937685Y-105335428D01*
X147937685Y-105335428D02*
X147851971Y-105364000D01*
X147594827Y-105621142D02*
X147394827Y-105621142D01*
X147309113Y-105935428D02*
X147594827Y-105935428D01*
X147594827Y-105935428D02*
X147594827Y-105335428D01*
X147594827Y-105335428D02*
X147309113Y-105335428D01*
X146709113Y-105935428D02*
X146909113Y-105649714D01*
X147051970Y-105935428D02*
X147051970Y-105335428D01*
X147051970Y-105335428D02*
X146823399Y-105335428D01*
X146823399Y-105335428D02*
X146766256Y-105364000D01*
X146766256Y-105364000D02*
X146737685Y-105392571D01*
X146737685Y-105392571D02*
X146709113Y-105449714D01*
X146709113Y-105449714D02*
X146709113Y-105535428D01*
X146709113Y-105535428D02*
X146737685Y-105592571D01*
X146737685Y-105592571D02*
X146766256Y-105621142D01*
X146766256Y-105621142D02*
X146823399Y-105649714D01*
X146823399Y-105649714D02*
X147051970Y-105649714D01*
X146451970Y-105935428D02*
X146451970Y-105335428D01*
X146194828Y-105764000D02*
X145909114Y-105764000D01*
X146251971Y-105935428D02*
X146051971Y-105335428D01*
X146051971Y-105335428D02*
X145851971Y-105935428D01*
X145366256Y-105935428D02*
X145651970Y-105935428D01*
X145651970Y-105935428D02*
X145651970Y-105335428D01*
X144851971Y-105935428D02*
X145194828Y-105935428D01*
X145023399Y-105935428D02*
X145023399Y-105335428D01*
X145023399Y-105335428D02*
X145080542Y-105421142D01*
X145080542Y-105421142D02*
X145137685Y-105478285D01*
X145137685Y-105478285D02*
X145194828Y-105506857D01*
X154414628Y-105906857D02*
X154328914Y-105935428D01*
X154328914Y-105935428D02*
X154186056Y-105935428D01*
X154186056Y-105935428D02*
X154128914Y-105906857D01*
X154128914Y-105906857D02*
X154100342Y-105878285D01*
X154100342Y-105878285D02*
X154071771Y-105821142D01*
X154071771Y-105821142D02*
X154071771Y-105764000D01*
X154071771Y-105764000D02*
X154100342Y-105706857D01*
X154100342Y-105706857D02*
X154128914Y-105678285D01*
X154128914Y-105678285D02*
X154186056Y-105649714D01*
X154186056Y-105649714D02*
X154300342Y-105621142D01*
X154300342Y-105621142D02*
X154357485Y-105592571D01*
X154357485Y-105592571D02*
X154386056Y-105564000D01*
X154386056Y-105564000D02*
X154414628Y-105506857D01*
X154414628Y-105506857D02*
X154414628Y-105449714D01*
X154414628Y-105449714D02*
X154386056Y-105392571D01*
X154386056Y-105392571D02*
X154357485Y-105364000D01*
X154357485Y-105364000D02*
X154300342Y-105335428D01*
X154300342Y-105335428D02*
X154157485Y-105335428D01*
X154157485Y-105335428D02*
X154071771Y-105364000D01*
X153814627Y-105621142D02*
X153614627Y-105621142D01*
X153528913Y-105935428D02*
X153814627Y-105935428D01*
X153814627Y-105935428D02*
X153814627Y-105335428D01*
X153814627Y-105335428D02*
X153528913Y-105335428D01*
X152928913Y-105935428D02*
X153128913Y-105649714D01*
X153271770Y-105935428D02*
X153271770Y-105335428D01*
X153271770Y-105335428D02*
X153043199Y-105335428D01*
X153043199Y-105335428D02*
X152986056Y-105364000D01*
X152986056Y-105364000D02*
X152957485Y-105392571D01*
X152957485Y-105392571D02*
X152928913Y-105449714D01*
X152928913Y-105449714D02*
X152928913Y-105535428D01*
X152928913Y-105535428D02*
X152957485Y-105592571D01*
X152957485Y-105592571D02*
X152986056Y-105621142D01*
X152986056Y-105621142D02*
X153043199Y-105649714D01*
X153043199Y-105649714D02*
X153271770Y-105649714D01*
X152671770Y-105935428D02*
X152671770Y-105335428D01*
X152414628Y-105764000D02*
X152128914Y-105764000D01*
X152471771Y-105935428D02*
X152271771Y-105335428D01*
X152271771Y-105335428D02*
X152071771Y-105935428D01*
X151586056Y-105935428D02*
X151871770Y-105935428D01*
X151871770Y-105935428D02*
X151871770Y-105335428D01*
X151071771Y-105935428D02*
X151414628Y-105935428D01*
X151243199Y-105935428D02*
X151243199Y-105335428D01*
X151243199Y-105335428D02*
X151300342Y-105421142D01*
X151300342Y-105421142D02*
X151357485Y-105478285D01*
X151357485Y-105478285D02*
X151414628Y-105506857D01*
X136402971Y-72582057D02*
X136317257Y-72610628D01*
X136317257Y-72610628D02*
X136174399Y-72610628D01*
X136174399Y-72610628D02*
X136117257Y-72582057D01*
X136117257Y-72582057D02*
X136088685Y-72553485D01*
X136088685Y-72553485D02*
X136060114Y-72496342D01*
X136060114Y-72496342D02*
X136060114Y-72439200D01*
X136060114Y-72439200D02*
X136088685Y-72382057D01*
X136088685Y-72382057D02*
X136117257Y-72353485D01*
X136117257Y-72353485D02*
X136174399Y-72324914D01*
X136174399Y-72324914D02*
X136288685Y-72296342D01*
X136288685Y-72296342D02*
X136345828Y-72267771D01*
X136345828Y-72267771D02*
X136374399Y-72239200D01*
X136374399Y-72239200D02*
X136402971Y-72182057D01*
X136402971Y-72182057D02*
X136402971Y-72124914D01*
X136402971Y-72124914D02*
X136374399Y-72067771D01*
X136374399Y-72067771D02*
X136345828Y-72039200D01*
X136345828Y-72039200D02*
X136288685Y-72010628D01*
X136288685Y-72010628D02*
X136145828Y-72010628D01*
X136145828Y-72010628D02*
X136060114Y-72039200D01*
X135802970Y-72610628D02*
X135802970Y-72010628D01*
X135802970Y-72010628D02*
X135660113Y-72010628D01*
X135660113Y-72010628D02*
X135574399Y-72039200D01*
X135574399Y-72039200D02*
X135517256Y-72096342D01*
X135517256Y-72096342D02*
X135488685Y-72153485D01*
X135488685Y-72153485D02*
X135460113Y-72267771D01*
X135460113Y-72267771D02*
X135460113Y-72353485D01*
X135460113Y-72353485D02*
X135488685Y-72467771D01*
X135488685Y-72467771D02*
X135517256Y-72524914D01*
X135517256Y-72524914D02*
X135574399Y-72582057D01*
X135574399Y-72582057D02*
X135660113Y-72610628D01*
X135660113Y-72610628D02*
X135802970Y-72610628D01*
X135231542Y-72439200D02*
X134945828Y-72439200D01*
X135288685Y-72610628D02*
X135088685Y-72010628D01*
X135088685Y-72010628D02*
X134888685Y-72610628D01*
X136402970Y-75045857D02*
X136317256Y-75074428D01*
X136317256Y-75074428D02*
X136174398Y-75074428D01*
X136174398Y-75074428D02*
X136117256Y-75045857D01*
X136117256Y-75045857D02*
X136088684Y-75017285D01*
X136088684Y-75017285D02*
X136060113Y-74960142D01*
X136060113Y-74960142D02*
X136060113Y-74903000D01*
X136060113Y-74903000D02*
X136088684Y-74845857D01*
X136088684Y-74845857D02*
X136117256Y-74817285D01*
X136117256Y-74817285D02*
X136174398Y-74788714D01*
X136174398Y-74788714D02*
X136288684Y-74760142D01*
X136288684Y-74760142D02*
X136345827Y-74731571D01*
X136345827Y-74731571D02*
X136374398Y-74703000D01*
X136374398Y-74703000D02*
X136402970Y-74645857D01*
X136402970Y-74645857D02*
X136402970Y-74588714D01*
X136402970Y-74588714D02*
X136374398Y-74531571D01*
X136374398Y-74531571D02*
X136345827Y-74503000D01*
X136345827Y-74503000D02*
X136288684Y-74474428D01*
X136288684Y-74474428D02*
X136145827Y-74474428D01*
X136145827Y-74474428D02*
X136060113Y-74503000D01*
X135517255Y-75074428D02*
X135802969Y-75074428D01*
X135802969Y-75074428D02*
X135802969Y-74474428D01*
X134974398Y-75017285D02*
X135002970Y-75045857D01*
X135002970Y-75045857D02*
X135088684Y-75074428D01*
X135088684Y-75074428D02*
X135145827Y-75074428D01*
X135145827Y-75074428D02*
X135231541Y-75045857D01*
X135231541Y-75045857D02*
X135288684Y-74988714D01*
X135288684Y-74988714D02*
X135317255Y-74931571D01*
X135317255Y-74931571D02*
X135345827Y-74817285D01*
X135345827Y-74817285D02*
X135345827Y-74731571D01*
X135345827Y-74731571D02*
X135317255Y-74617285D01*
X135317255Y-74617285D02*
X135288684Y-74560142D01*
X135288684Y-74560142D02*
X135231541Y-74503000D01*
X135231541Y-74503000D02*
X135145827Y-74474428D01*
X135145827Y-74474428D02*
X135088684Y-74474428D01*
X135088684Y-74474428D02*
X135002970Y-74503000D01*
X135002970Y-74503000D02*
X134974398Y-74531571D01*
X134717255Y-75074428D02*
X134717255Y-74474428D01*
X134374398Y-75074428D02*
X134631541Y-74731571D01*
X134374398Y-74474428D02*
X134717255Y-74817285D01*
X136431542Y-76963628D02*
X136060114Y-76963628D01*
X136060114Y-76963628D02*
X136260114Y-77192200D01*
X136260114Y-77192200D02*
X136174399Y-77192200D01*
X136174399Y-77192200D02*
X136117257Y-77220771D01*
X136117257Y-77220771D02*
X136088685Y-77249342D01*
X136088685Y-77249342D02*
X136060114Y-77306485D01*
X136060114Y-77306485D02*
X136060114Y-77449342D01*
X136060114Y-77449342D02*
X136088685Y-77506485D01*
X136088685Y-77506485D02*
X136117257Y-77535057D01*
X136117257Y-77535057D02*
X136174399Y-77563628D01*
X136174399Y-77563628D02*
X136345828Y-77563628D01*
X136345828Y-77563628D02*
X136402971Y-77535057D01*
X136402971Y-77535057D02*
X136431542Y-77506485D01*
X135888685Y-76963628D02*
X135688685Y-77563628D01*
X135688685Y-77563628D02*
X135488685Y-76963628D01*
X135345827Y-76963628D02*
X134974399Y-76963628D01*
X134974399Y-76963628D02*
X135174399Y-77192200D01*
X135174399Y-77192200D02*
X135088684Y-77192200D01*
X135088684Y-77192200D02*
X135031542Y-77220771D01*
X135031542Y-77220771D02*
X135002970Y-77249342D01*
X135002970Y-77249342D02*
X134974399Y-77306485D01*
X134974399Y-77306485D02*
X134974399Y-77449342D01*
X134974399Y-77449342D02*
X135002970Y-77506485D01*
X135002970Y-77506485D02*
X135031542Y-77535057D01*
X135031542Y-77535057D02*
X135088684Y-77563628D01*
X135088684Y-77563628D02*
X135260113Y-77563628D01*
X135260113Y-77563628D02*
X135317256Y-77535057D01*
X135317256Y-77535057D02*
X135345827Y-77506485D01*
X136060113Y-79532200D02*
X136117256Y-79503628D01*
X136117256Y-79503628D02*
X136202970Y-79503628D01*
X136202970Y-79503628D02*
X136288684Y-79532200D01*
X136288684Y-79532200D02*
X136345827Y-79589342D01*
X136345827Y-79589342D02*
X136374398Y-79646485D01*
X136374398Y-79646485D02*
X136402970Y-79760771D01*
X136402970Y-79760771D02*
X136402970Y-79846485D01*
X136402970Y-79846485D02*
X136374398Y-79960771D01*
X136374398Y-79960771D02*
X136345827Y-80017914D01*
X136345827Y-80017914D02*
X136288684Y-80075057D01*
X136288684Y-80075057D02*
X136202970Y-80103628D01*
X136202970Y-80103628D02*
X136145827Y-80103628D01*
X136145827Y-80103628D02*
X136060113Y-80075057D01*
X136060113Y-80075057D02*
X136031541Y-80046485D01*
X136031541Y-80046485D02*
X136031541Y-79846485D01*
X136031541Y-79846485D02*
X136145827Y-79846485D01*
X135774398Y-80103628D02*
X135774398Y-79503628D01*
X135774398Y-79503628D02*
X135431541Y-80103628D01*
X135431541Y-80103628D02*
X135431541Y-79503628D01*
X135145827Y-80103628D02*
X135145827Y-79503628D01*
X135145827Y-79503628D02*
X135002970Y-79503628D01*
X135002970Y-79503628D02*
X134917256Y-79532200D01*
X134917256Y-79532200D02*
X134860113Y-79589342D01*
X134860113Y-79589342D02*
X134831542Y-79646485D01*
X134831542Y-79646485D02*
X134802970Y-79760771D01*
X134802970Y-79760771D02*
X134802970Y-79846485D01*
X134802970Y-79846485D02*
X134831542Y-79960771D01*
X134831542Y-79960771D02*
X134860113Y-80017914D01*
X134860113Y-80017914D02*
X134917256Y-80075057D01*
X134917256Y-80075057D02*
X135002970Y-80103628D01*
X135002970Y-80103628D02*
X135145827Y-80103628D01*
D11*
X153625381Y-119724980D02*
X153625381Y-118724980D01*
X153625381Y-119105933D02*
X153530143Y-119058314D01*
X153530143Y-119058314D02*
X153339667Y-119058314D01*
X153339667Y-119058314D02*
X153244429Y-119105933D01*
X153244429Y-119105933D02*
X153196810Y-119153552D01*
X153196810Y-119153552D02*
X153149191Y-119248790D01*
X153149191Y-119248790D02*
X153149191Y-119534504D01*
X153149191Y-119534504D02*
X153196810Y-119629742D01*
X153196810Y-119629742D02*
X153244429Y-119677361D01*
X153244429Y-119677361D02*
X153339667Y-119724980D01*
X153339667Y-119724980D02*
X153530143Y-119724980D01*
X153530143Y-119724980D02*
X153625381Y-119677361D01*
X152815857Y-119058314D02*
X152577762Y-119724980D01*
X152339667Y-119058314D02*
X152577762Y-119724980D01*
X152577762Y-119724980D02*
X152673000Y-119963076D01*
X152673000Y-119963076D02*
X152720619Y-120010695D01*
X152720619Y-120010695D02*
X152815857Y-120058314D01*
X151215857Y-119724980D02*
X151311095Y-119677361D01*
X151311095Y-119677361D02*
X151358714Y-119582123D01*
X151358714Y-119582123D02*
X151358714Y-118724980D01*
X150834904Y-119724980D02*
X150834904Y-119058314D01*
X150834904Y-118724980D02*
X150882523Y-118772600D01*
X150882523Y-118772600D02*
X150834904Y-118820219D01*
X150834904Y-118820219D02*
X150787285Y-118772600D01*
X150787285Y-118772600D02*
X150834904Y-118724980D01*
X150834904Y-118724980D02*
X150834904Y-118820219D01*
X150358714Y-119724980D02*
X150358714Y-118724980D01*
X150358714Y-119105933D02*
X150263476Y-119058314D01*
X150263476Y-119058314D02*
X150073000Y-119058314D01*
X150073000Y-119058314D02*
X149977762Y-119105933D01*
X149977762Y-119105933D02*
X149930143Y-119153552D01*
X149930143Y-119153552D02*
X149882524Y-119248790D01*
X149882524Y-119248790D02*
X149882524Y-119534504D01*
X149882524Y-119534504D02*
X149930143Y-119629742D01*
X149930143Y-119629742D02*
X149977762Y-119677361D01*
X149977762Y-119677361D02*
X150073000Y-119724980D01*
X150073000Y-119724980D02*
X150263476Y-119724980D01*
X150263476Y-119724980D02*
X150358714Y-119677361D01*
X149453952Y-119724980D02*
X149453952Y-119058314D01*
X149453952Y-119248790D02*
X149406333Y-119153552D01*
X149406333Y-119153552D02*
X149358714Y-119105933D01*
X149358714Y-119105933D02*
X149263476Y-119058314D01*
X149263476Y-119058314D02*
X149168238Y-119058314D01*
X148453952Y-119677361D02*
X148549190Y-119724980D01*
X148549190Y-119724980D02*
X148739666Y-119724980D01*
X148739666Y-119724980D02*
X148834904Y-119677361D01*
X148834904Y-119677361D02*
X148882523Y-119582123D01*
X148882523Y-119582123D02*
X148882523Y-119201171D01*
X148882523Y-119201171D02*
X148834904Y-119105933D01*
X148834904Y-119105933D02*
X148739666Y-119058314D01*
X148739666Y-119058314D02*
X148549190Y-119058314D01*
X148549190Y-119058314D02*
X148453952Y-119105933D01*
X148453952Y-119105933D02*
X148406333Y-119201171D01*
X148406333Y-119201171D02*
X148406333Y-119296409D01*
X148406333Y-119296409D02*
X148882523Y-119391647D01*
X147834904Y-119724980D02*
X147930142Y-119677361D01*
X147930142Y-119677361D02*
X147977761Y-119582123D01*
X147977761Y-119582123D02*
X147977761Y-118724980D01*
X147025380Y-119724980D02*
X147025380Y-119201171D01*
X147025380Y-119201171D02*
X147072999Y-119105933D01*
X147072999Y-119105933D02*
X147168237Y-119058314D01*
X147168237Y-119058314D02*
X147358713Y-119058314D01*
X147358713Y-119058314D02*
X147453951Y-119105933D01*
X147025380Y-119677361D02*
X147120618Y-119724980D01*
X147120618Y-119724980D02*
X147358713Y-119724980D01*
X147358713Y-119724980D02*
X147453951Y-119677361D01*
X147453951Y-119677361D02*
X147501570Y-119582123D01*
X147501570Y-119582123D02*
X147501570Y-119486885D01*
X147501570Y-119486885D02*
X147453951Y-119391647D01*
X147453951Y-119391647D02*
X147358713Y-119344028D01*
X147358713Y-119344028D02*
X147120618Y-119344028D01*
X147120618Y-119344028D02*
X147025380Y-119296409D01*
X146549189Y-119724980D02*
X146549189Y-118724980D01*
X146549189Y-119105933D02*
X146453951Y-119058314D01*
X146453951Y-119058314D02*
X146263475Y-119058314D01*
X146263475Y-119058314D02*
X146168237Y-119105933D01*
X146168237Y-119105933D02*
X146120618Y-119153552D01*
X146120618Y-119153552D02*
X146072999Y-119248790D01*
X146072999Y-119248790D02*
X146072999Y-119534504D01*
X146072999Y-119534504D02*
X146120618Y-119629742D01*
X146120618Y-119629742D02*
X146168237Y-119677361D01*
X146168237Y-119677361D02*
X146263475Y-119724980D01*
X146263475Y-119724980D02*
X146453951Y-119724980D01*
X146453951Y-119724980D02*
X146549189Y-119677361D01*
X158758714Y-121678314D02*
X158996809Y-121678314D01*
X158996809Y-121678314D02*
X158996809Y-120249742D01*
X158996809Y-120249742D02*
X158758714Y-120249742D01*
X158425380Y-120440219D02*
X158377761Y-120392600D01*
X158377761Y-120392600D02*
X158282523Y-120344980D01*
X158282523Y-120344980D02*
X158044428Y-120344980D01*
X158044428Y-120344980D02*
X157949190Y-120392600D01*
X157949190Y-120392600D02*
X157901571Y-120440219D01*
X157901571Y-120440219D02*
X157853952Y-120535457D01*
X157853952Y-120535457D02*
X157853952Y-120630695D01*
X157853952Y-120630695D02*
X157901571Y-120773552D01*
X157901571Y-120773552D02*
X158472999Y-121344980D01*
X158472999Y-121344980D02*
X157853952Y-121344980D01*
X157234904Y-120344980D02*
X157139666Y-120344980D01*
X157139666Y-120344980D02*
X157044428Y-120392600D01*
X157044428Y-120392600D02*
X156996809Y-120440219D01*
X156996809Y-120440219D02*
X156949190Y-120535457D01*
X156949190Y-120535457D02*
X156901571Y-120725933D01*
X156901571Y-120725933D02*
X156901571Y-120964028D01*
X156901571Y-120964028D02*
X156949190Y-121154504D01*
X156949190Y-121154504D02*
X156996809Y-121249742D01*
X156996809Y-121249742D02*
X157044428Y-121297361D01*
X157044428Y-121297361D02*
X157139666Y-121344980D01*
X157139666Y-121344980D02*
X157234904Y-121344980D01*
X157234904Y-121344980D02*
X157330142Y-121297361D01*
X157330142Y-121297361D02*
X157377761Y-121249742D01*
X157377761Y-121249742D02*
X157425380Y-121154504D01*
X157425380Y-121154504D02*
X157472999Y-120964028D01*
X157472999Y-120964028D02*
X157472999Y-120725933D01*
X157472999Y-120725933D02*
X157425380Y-120535457D01*
X157425380Y-120535457D02*
X157377761Y-120440219D01*
X157377761Y-120440219D02*
X157330142Y-120392600D01*
X157330142Y-120392600D02*
X157234904Y-120344980D01*
X156520618Y-120440219D02*
X156472999Y-120392600D01*
X156472999Y-120392600D02*
X156377761Y-120344980D01*
X156377761Y-120344980D02*
X156139666Y-120344980D01*
X156139666Y-120344980D02*
X156044428Y-120392600D01*
X156044428Y-120392600D02*
X155996809Y-120440219D01*
X155996809Y-120440219D02*
X155949190Y-120535457D01*
X155949190Y-120535457D02*
X155949190Y-120630695D01*
X155949190Y-120630695D02*
X155996809Y-120773552D01*
X155996809Y-120773552D02*
X156568237Y-121344980D01*
X156568237Y-121344980D02*
X155949190Y-121344980D01*
X154996809Y-121344980D02*
X155568237Y-121344980D01*
X155282523Y-121344980D02*
X155282523Y-120344980D01*
X155282523Y-120344980D02*
X155377761Y-120487838D01*
X155377761Y-120487838D02*
X155472999Y-120583076D01*
X155472999Y-120583076D02*
X155568237Y-120630695D01*
X153396809Y-121249742D02*
X153444428Y-121297361D01*
X153444428Y-121297361D02*
X153587285Y-121344980D01*
X153587285Y-121344980D02*
X153682523Y-121344980D01*
X153682523Y-121344980D02*
X153825380Y-121297361D01*
X153825380Y-121297361D02*
X153920618Y-121202123D01*
X153920618Y-121202123D02*
X153968237Y-121106885D01*
X153968237Y-121106885D02*
X154015856Y-120916409D01*
X154015856Y-120916409D02*
X154015856Y-120773552D01*
X154015856Y-120773552D02*
X153968237Y-120583076D01*
X153968237Y-120583076D02*
X153920618Y-120487838D01*
X153920618Y-120487838D02*
X153825380Y-120392600D01*
X153825380Y-120392600D02*
X153682523Y-120344980D01*
X153682523Y-120344980D02*
X153587285Y-120344980D01*
X153587285Y-120344980D02*
X153444428Y-120392600D01*
X153444428Y-120392600D02*
X153396809Y-120440219D01*
X152968237Y-120821171D02*
X152634904Y-120821171D01*
X152492047Y-121344980D02*
X152968237Y-121344980D01*
X152968237Y-121344980D02*
X152968237Y-120344980D01*
X152968237Y-120344980D02*
X152492047Y-120344980D01*
X151492047Y-121344980D02*
X151825380Y-120868790D01*
X152063475Y-121344980D02*
X152063475Y-120344980D01*
X152063475Y-120344980D02*
X151682523Y-120344980D01*
X151682523Y-120344980D02*
X151587285Y-120392600D01*
X151587285Y-120392600D02*
X151539666Y-120440219D01*
X151539666Y-120440219D02*
X151492047Y-120535457D01*
X151492047Y-120535457D02*
X151492047Y-120678314D01*
X151492047Y-120678314D02*
X151539666Y-120773552D01*
X151539666Y-120773552D02*
X151587285Y-120821171D01*
X151587285Y-120821171D02*
X151682523Y-120868790D01*
X151682523Y-120868790D02*
X152063475Y-120868790D01*
X151063475Y-121344980D02*
X151063475Y-120344980D01*
X151063475Y-120344980D02*
X150492047Y-121344980D01*
X150492047Y-121344980D02*
X150492047Y-120344980D01*
X150015856Y-120964028D02*
X149253952Y-120964028D01*
X148587285Y-120344980D02*
X148396809Y-120344980D01*
X148396809Y-120344980D02*
X148301571Y-120392600D01*
X148301571Y-120392600D02*
X148206333Y-120487838D01*
X148206333Y-120487838D02*
X148158714Y-120678314D01*
X148158714Y-120678314D02*
X148158714Y-121011647D01*
X148158714Y-121011647D02*
X148206333Y-121202123D01*
X148206333Y-121202123D02*
X148301571Y-121297361D01*
X148301571Y-121297361D02*
X148396809Y-121344980D01*
X148396809Y-121344980D02*
X148587285Y-121344980D01*
X148587285Y-121344980D02*
X148682523Y-121297361D01*
X148682523Y-121297361D02*
X148777761Y-121202123D01*
X148777761Y-121202123D02*
X148825380Y-121011647D01*
X148825380Y-121011647D02*
X148825380Y-120678314D01*
X148825380Y-120678314D02*
X148777761Y-120487838D01*
X148777761Y-120487838D02*
X148682523Y-120392600D01*
X148682523Y-120392600D02*
X148587285Y-120344980D01*
X147730142Y-121344980D02*
X147730142Y-120344980D01*
X147730142Y-120821171D02*
X147158714Y-120821171D01*
X147158714Y-121344980D02*
X147158714Y-120344980D01*
X146206333Y-121344980D02*
X146682523Y-121344980D01*
X146682523Y-121344980D02*
X146682523Y-120344980D01*
X145872999Y-120964028D02*
X145111095Y-120964028D01*
X144682523Y-121297361D02*
X144539666Y-121344980D01*
X144539666Y-121344980D02*
X144301571Y-121344980D01*
X144301571Y-121344980D02*
X144206333Y-121297361D01*
X144206333Y-121297361D02*
X144158714Y-121249742D01*
X144158714Y-121249742D02*
X144111095Y-121154504D01*
X144111095Y-121154504D02*
X144111095Y-121059266D01*
X144111095Y-121059266D02*
X144158714Y-120964028D01*
X144158714Y-120964028D02*
X144206333Y-120916409D01*
X144206333Y-120916409D02*
X144301571Y-120868790D01*
X144301571Y-120868790D02*
X144492047Y-120821171D01*
X144492047Y-120821171D02*
X144587285Y-120773552D01*
X144587285Y-120773552D02*
X144634904Y-120725933D01*
X144634904Y-120725933D02*
X144682523Y-120630695D01*
X144682523Y-120630695D02*
X144682523Y-120535457D01*
X144682523Y-120535457D02*
X144634904Y-120440219D01*
X144634904Y-120440219D02*
X144587285Y-120392600D01*
X144587285Y-120392600D02*
X144492047Y-120344980D01*
X144492047Y-120344980D02*
X144253952Y-120344980D01*
X144253952Y-120344980D02*
X144111095Y-120392600D01*
X143177761Y-120678314D02*
X142939666Y-121344980D01*
X142939666Y-121344980D02*
X142701571Y-120678314D01*
X142320618Y-121249742D02*
X142272999Y-121297361D01*
X142272999Y-121297361D02*
X142320618Y-121344980D01*
X142320618Y-121344980D02*
X142368237Y-121297361D01*
X142368237Y-121297361D02*
X142320618Y-121249742D01*
X142320618Y-121249742D02*
X142320618Y-121344980D01*
X141892047Y-120440219D02*
X141844428Y-120392600D01*
X141844428Y-120392600D02*
X141749190Y-120344980D01*
X141749190Y-120344980D02*
X141511095Y-120344980D01*
X141511095Y-120344980D02*
X141415857Y-120392600D01*
X141415857Y-120392600D02*
X141368238Y-120440219D01*
X141368238Y-120440219D02*
X141320619Y-120535457D01*
X141320619Y-120535457D02*
X141320619Y-120630695D01*
X141320619Y-120630695D02*
X141368238Y-120773552D01*
X141368238Y-120773552D02*
X141939666Y-121344980D01*
X141939666Y-121344980D02*
X141320619Y-121344980D01*
X140987285Y-121678314D02*
X140749190Y-121678314D01*
X140749190Y-121678314D02*
X140749190Y-120249742D01*
X140749190Y-120249742D02*
X140987285Y-120249742D01*
D10*
X153515333Y-102669380D02*
X153515333Y-103383666D01*
X153515333Y-103383666D02*
X153562952Y-103526523D01*
X153562952Y-103526523D02*
X153658190Y-103621761D01*
X153658190Y-103621761D02*
X153801047Y-103669380D01*
X153801047Y-103669380D02*
X153896285Y-103669380D01*
X153039142Y-103669380D02*
X153039142Y-102669380D01*
X153039142Y-102669380D02*
X152658190Y-102669380D01*
X152658190Y-102669380D02*
X152562952Y-102717000D01*
X152562952Y-102717000D02*
X152515333Y-102764619D01*
X152515333Y-102764619D02*
X152467714Y-102859857D01*
X152467714Y-102859857D02*
X152467714Y-103002714D01*
X152467714Y-103002714D02*
X152515333Y-103097952D01*
X152515333Y-103097952D02*
X152562952Y-103145571D01*
X152562952Y-103145571D02*
X152658190Y-103193190D01*
X152658190Y-103193190D02*
X153039142Y-103193190D01*
X151515333Y-103669380D02*
X152086761Y-103669380D01*
X151801047Y-103669380D02*
X151801047Y-102669380D01*
X151801047Y-102669380D02*
X151896285Y-102812238D01*
X151896285Y-102812238D02*
X151991523Y-102907476D01*
X151991523Y-102907476D02*
X152086761Y-102955095D01*
X147377333Y-96319380D02*
X147377333Y-97033666D01*
X147377333Y-97033666D02*
X147424952Y-97176523D01*
X147424952Y-97176523D02*
X147520190Y-97271761D01*
X147520190Y-97271761D02*
X147663047Y-97319380D01*
X147663047Y-97319380D02*
X147758285Y-97319380D01*
X146901142Y-97319380D02*
X146901142Y-96319380D01*
X146901142Y-96319380D02*
X146520190Y-96319380D01*
X146520190Y-96319380D02*
X146424952Y-96367000D01*
X146424952Y-96367000D02*
X146377333Y-96414619D01*
X146377333Y-96414619D02*
X146329714Y-96509857D01*
X146329714Y-96509857D02*
X146329714Y-96652714D01*
X146329714Y-96652714D02*
X146377333Y-96747952D01*
X146377333Y-96747952D02*
X146424952Y-96795571D01*
X146424952Y-96795571D02*
X146520190Y-96843190D01*
X146520190Y-96843190D02*
X146901142Y-96843190D01*
X145948761Y-96414619D02*
X145901142Y-96367000D01*
X145901142Y-96367000D02*
X145805904Y-96319380D01*
X145805904Y-96319380D02*
X145567809Y-96319380D01*
X145567809Y-96319380D02*
X145472571Y-96367000D01*
X145472571Y-96367000D02*
X145424952Y-96414619D01*
X145424952Y-96414619D02*
X145377333Y-96509857D01*
X145377333Y-96509857D02*
X145377333Y-96605095D01*
X145377333Y-96605095D02*
X145424952Y-96747952D01*
X145424952Y-96747952D02*
X145996380Y-97319380D01*
X145996380Y-97319380D02*
X145377333Y-97319380D01*
X147419333Y-102669380D02*
X147419333Y-103383666D01*
X147419333Y-103383666D02*
X147466952Y-103526523D01*
X147466952Y-103526523D02*
X147562190Y-103621761D01*
X147562190Y-103621761D02*
X147705047Y-103669380D01*
X147705047Y-103669380D02*
X147800285Y-103669380D01*
X146943142Y-103669380D02*
X146943142Y-102669380D01*
X146943142Y-102669380D02*
X146562190Y-102669380D01*
X146562190Y-102669380D02*
X146466952Y-102717000D01*
X146466952Y-102717000D02*
X146419333Y-102764619D01*
X146419333Y-102764619D02*
X146371714Y-102859857D01*
X146371714Y-102859857D02*
X146371714Y-103002714D01*
X146371714Y-103002714D02*
X146419333Y-103097952D01*
X146419333Y-103097952D02*
X146466952Y-103145571D01*
X146466952Y-103145571D02*
X146562190Y-103193190D01*
X146562190Y-103193190D02*
X146943142Y-103193190D01*
X145514571Y-103002714D02*
X145514571Y-103669380D01*
X145752666Y-102621761D02*
X145990761Y-103336047D01*
X145990761Y-103336047D02*
X145371714Y-103336047D01*
X147277333Y-108787380D02*
X147277333Y-109501666D01*
X147277333Y-109501666D02*
X147324952Y-109644523D01*
X147324952Y-109644523D02*
X147420190Y-109739761D01*
X147420190Y-109739761D02*
X147563047Y-109787380D01*
X147563047Y-109787380D02*
X147658285Y-109787380D01*
X146801142Y-109787380D02*
X146801142Y-108787380D01*
X146801142Y-108787380D02*
X146420190Y-108787380D01*
X146420190Y-108787380D02*
X146324952Y-108835000D01*
X146324952Y-108835000D02*
X146277333Y-108882619D01*
X146277333Y-108882619D02*
X146229714Y-108977857D01*
X146229714Y-108977857D02*
X146229714Y-109120714D01*
X146229714Y-109120714D02*
X146277333Y-109215952D01*
X146277333Y-109215952D02*
X146324952Y-109263571D01*
X146324952Y-109263571D02*
X146420190Y-109311190D01*
X146420190Y-109311190D02*
X146801142Y-109311190D01*
X145324952Y-108787380D02*
X145801142Y-108787380D01*
X145801142Y-108787380D02*
X145848761Y-109263571D01*
X145848761Y-109263571D02*
X145801142Y-109215952D01*
X145801142Y-109215952D02*
X145705904Y-109168333D01*
X145705904Y-109168333D02*
X145467809Y-109168333D01*
X145467809Y-109168333D02*
X145372571Y-109215952D01*
X145372571Y-109215952D02*
X145324952Y-109263571D01*
X145324952Y-109263571D02*
X145277333Y-109358809D01*
X145277333Y-109358809D02*
X145277333Y-109596904D01*
X145277333Y-109596904D02*
X145324952Y-109692142D01*
X145324952Y-109692142D02*
X145372571Y-109739761D01*
X145372571Y-109739761D02*
X145467809Y-109787380D01*
X145467809Y-109787380D02*
X145705904Y-109787380D01*
X145705904Y-109787380D02*
X145801142Y-109739761D01*
X145801142Y-109739761D02*
X145848761Y-109692142D01*
X153515333Y-108787380D02*
X153515333Y-109501666D01*
X153515333Y-109501666D02*
X153562952Y-109644523D01*
X153562952Y-109644523D02*
X153658190Y-109739761D01*
X153658190Y-109739761D02*
X153801047Y-109787380D01*
X153801047Y-109787380D02*
X153896285Y-109787380D01*
X153039142Y-109787380D02*
X153039142Y-108787380D01*
X153039142Y-108787380D02*
X152658190Y-108787380D01*
X152658190Y-108787380D02*
X152562952Y-108835000D01*
X152562952Y-108835000D02*
X152515333Y-108882619D01*
X152515333Y-108882619D02*
X152467714Y-108977857D01*
X152467714Y-108977857D02*
X152467714Y-109120714D01*
X152467714Y-109120714D02*
X152515333Y-109215952D01*
X152515333Y-109215952D02*
X152562952Y-109263571D01*
X152562952Y-109263571D02*
X152658190Y-109311190D01*
X152658190Y-109311190D02*
X153039142Y-109311190D01*
X151610571Y-108787380D02*
X151801047Y-108787380D01*
X151801047Y-108787380D02*
X151896285Y-108835000D01*
X151896285Y-108835000D02*
X151943904Y-108882619D01*
X151943904Y-108882619D02*
X152039142Y-109025476D01*
X152039142Y-109025476D02*
X152086761Y-109215952D01*
X152086761Y-109215952D02*
X152086761Y-109596904D01*
X152086761Y-109596904D02*
X152039142Y-109692142D01*
X152039142Y-109692142D02*
X151991523Y-109739761D01*
X151991523Y-109739761D02*
X151896285Y-109787380D01*
X151896285Y-109787380D02*
X151705809Y-109787380D01*
X151705809Y-109787380D02*
X151610571Y-109739761D01*
X151610571Y-109739761D02*
X151562952Y-109692142D01*
X151562952Y-109692142D02*
X151515333Y-109596904D01*
X151515333Y-109596904D02*
X151515333Y-109358809D01*
X151515333Y-109358809D02*
X151562952Y-109263571D01*
X151562952Y-109263571D02*
X151610571Y-109215952D01*
X151610571Y-109215952D02*
X151705809Y-109168333D01*
X151705809Y-109168333D02*
X151896285Y-109168333D01*
X151896285Y-109168333D02*
X151991523Y-109215952D01*
X151991523Y-109215952D02*
X152039142Y-109263571D01*
X152039142Y-109263571D02*
X152086761Y-109358809D01*
X141039333Y-96087380D02*
X141039333Y-96801666D01*
X141039333Y-96801666D02*
X141086952Y-96944523D01*
X141086952Y-96944523D02*
X141182190Y-97039761D01*
X141182190Y-97039761D02*
X141325047Y-97087380D01*
X141325047Y-97087380D02*
X141420285Y-97087380D01*
X140563142Y-97087380D02*
X140563142Y-96087380D01*
X140563142Y-96087380D02*
X140182190Y-96087380D01*
X140182190Y-96087380D02*
X140086952Y-96135000D01*
X140086952Y-96135000D02*
X140039333Y-96182619D01*
X140039333Y-96182619D02*
X139991714Y-96277857D01*
X139991714Y-96277857D02*
X139991714Y-96420714D01*
X139991714Y-96420714D02*
X140039333Y-96515952D01*
X140039333Y-96515952D02*
X140086952Y-96563571D01*
X140086952Y-96563571D02*
X140182190Y-96611190D01*
X140182190Y-96611190D02*
X140563142Y-96611190D01*
X139420285Y-96515952D02*
X139515523Y-96468333D01*
X139515523Y-96468333D02*
X139563142Y-96420714D01*
X139563142Y-96420714D02*
X139610761Y-96325476D01*
X139610761Y-96325476D02*
X139610761Y-96277857D01*
X139610761Y-96277857D02*
X139563142Y-96182619D01*
X139563142Y-96182619D02*
X139515523Y-96135000D01*
X139515523Y-96135000D02*
X139420285Y-96087380D01*
X139420285Y-96087380D02*
X139229809Y-96087380D01*
X139229809Y-96087380D02*
X139134571Y-96135000D01*
X139134571Y-96135000D02*
X139086952Y-96182619D01*
X139086952Y-96182619D02*
X139039333Y-96277857D01*
X139039333Y-96277857D02*
X139039333Y-96325476D01*
X139039333Y-96325476D02*
X139086952Y-96420714D01*
X139086952Y-96420714D02*
X139134571Y-96468333D01*
X139134571Y-96468333D02*
X139229809Y-96515952D01*
X139229809Y-96515952D02*
X139420285Y-96515952D01*
X139420285Y-96515952D02*
X139515523Y-96563571D01*
X139515523Y-96563571D02*
X139563142Y-96611190D01*
X139563142Y-96611190D02*
X139610761Y-96706428D01*
X139610761Y-96706428D02*
X139610761Y-96896904D01*
X139610761Y-96896904D02*
X139563142Y-96992142D01*
X139563142Y-96992142D02*
X139515523Y-97039761D01*
X139515523Y-97039761D02*
X139420285Y-97087380D01*
X139420285Y-97087380D02*
X139229809Y-97087380D01*
X139229809Y-97087380D02*
X139134571Y-97039761D01*
X139134571Y-97039761D02*
X139086952Y-96992142D01*
X139086952Y-96992142D02*
X139039333Y-96896904D01*
X139039333Y-96896904D02*
X139039333Y-96706428D01*
X139039333Y-96706428D02*
X139086952Y-96611190D01*
X139086952Y-96611190D02*
X139134571Y-96563571D01*
X139134571Y-96563571D02*
X139229809Y-96515952D01*
X164757304Y-89689980D02*
X164757304Y-90499504D01*
X164757304Y-90499504D02*
X164709685Y-90594742D01*
X164709685Y-90594742D02*
X164662066Y-90642361D01*
X164662066Y-90642361D02*
X164566828Y-90689980D01*
X164566828Y-90689980D02*
X164376352Y-90689980D01*
X164376352Y-90689980D02*
X164281114Y-90642361D01*
X164281114Y-90642361D02*
X164233495Y-90594742D01*
X164233495Y-90594742D02*
X164185876Y-90499504D01*
X164185876Y-90499504D02*
X164185876Y-89689980D01*
X163185876Y-90689980D02*
X163757304Y-90689980D01*
X163471590Y-90689980D02*
X163471590Y-89689980D01*
X163471590Y-89689980D02*
X163566828Y-89832838D01*
X163566828Y-89832838D02*
X163662066Y-89928076D01*
X163662066Y-89928076D02*
X163757304Y-89975695D01*
X150507904Y-81587380D02*
X150507904Y-82396904D01*
X150507904Y-82396904D02*
X150460285Y-82492142D01*
X150460285Y-82492142D02*
X150412666Y-82539761D01*
X150412666Y-82539761D02*
X150317428Y-82587380D01*
X150317428Y-82587380D02*
X150126952Y-82587380D01*
X150126952Y-82587380D02*
X150031714Y-82539761D01*
X150031714Y-82539761D02*
X149984095Y-82492142D01*
X149984095Y-82492142D02*
X149936476Y-82396904D01*
X149936476Y-82396904D02*
X149936476Y-81587380D01*
X149507904Y-81682619D02*
X149460285Y-81635000D01*
X149460285Y-81635000D02*
X149365047Y-81587380D01*
X149365047Y-81587380D02*
X149126952Y-81587380D01*
X149126952Y-81587380D02*
X149031714Y-81635000D01*
X149031714Y-81635000D02*
X148984095Y-81682619D01*
X148984095Y-81682619D02*
X148936476Y-81777857D01*
X148936476Y-81777857D02*
X148936476Y-81873095D01*
X148936476Y-81873095D02*
X148984095Y-82015952D01*
X148984095Y-82015952D02*
X149555523Y-82587380D01*
X149555523Y-82587380D02*
X148936476Y-82587380D01*
X153515333Y-96319380D02*
X153515333Y-97033666D01*
X153515333Y-97033666D02*
X153562952Y-97176523D01*
X153562952Y-97176523D02*
X153658190Y-97271761D01*
X153658190Y-97271761D02*
X153801047Y-97319380D01*
X153801047Y-97319380D02*
X153896285Y-97319380D01*
X153039142Y-97319380D02*
X153039142Y-96319380D01*
X153039142Y-96319380D02*
X152658190Y-96319380D01*
X152658190Y-96319380D02*
X152562952Y-96367000D01*
X152562952Y-96367000D02*
X152515333Y-96414619D01*
X152515333Y-96414619D02*
X152467714Y-96509857D01*
X152467714Y-96509857D02*
X152467714Y-96652714D01*
X152467714Y-96652714D02*
X152515333Y-96747952D01*
X152515333Y-96747952D02*
X152562952Y-96795571D01*
X152562952Y-96795571D02*
X152658190Y-96843190D01*
X152658190Y-96843190D02*
X153039142Y-96843190D01*
X152134380Y-96319380D02*
X151515333Y-96319380D01*
X151515333Y-96319380D02*
X151848666Y-96700333D01*
X151848666Y-96700333D02*
X151705809Y-96700333D01*
X151705809Y-96700333D02*
X151610571Y-96747952D01*
X151610571Y-96747952D02*
X151562952Y-96795571D01*
X151562952Y-96795571D02*
X151515333Y-96890809D01*
X151515333Y-96890809D02*
X151515333Y-97128904D01*
X151515333Y-97128904D02*
X151562952Y-97224142D01*
X151562952Y-97224142D02*
X151610571Y-97271761D01*
X151610571Y-97271761D02*
X151705809Y-97319380D01*
X151705809Y-97319380D02*
X151991523Y-97319380D01*
X151991523Y-97319380D02*
X152086761Y-97271761D01*
X152086761Y-97271761D02*
X152134380Y-97224142D01*
X141039333Y-102437380D02*
X141039333Y-103151666D01*
X141039333Y-103151666D02*
X141086952Y-103294523D01*
X141086952Y-103294523D02*
X141182190Y-103389761D01*
X141182190Y-103389761D02*
X141325047Y-103437380D01*
X141325047Y-103437380D02*
X141420285Y-103437380D01*
X140563142Y-103437380D02*
X140563142Y-102437380D01*
X140563142Y-102437380D02*
X140182190Y-102437380D01*
X140182190Y-102437380D02*
X140086952Y-102485000D01*
X140086952Y-102485000D02*
X140039333Y-102532619D01*
X140039333Y-102532619D02*
X139991714Y-102627857D01*
X139991714Y-102627857D02*
X139991714Y-102770714D01*
X139991714Y-102770714D02*
X140039333Y-102865952D01*
X140039333Y-102865952D02*
X140086952Y-102913571D01*
X140086952Y-102913571D02*
X140182190Y-102961190D01*
X140182190Y-102961190D02*
X140563142Y-102961190D01*
X139658380Y-102437380D02*
X138991714Y-102437380D01*
X138991714Y-102437380D02*
X139420285Y-103437380D01*
D12*
X151282000Y-100970000D02*
X151282000Y-101570000D01*
X151982000Y-102270000D02*
X153382000Y-102270000D01*
X153382000Y-100270000D02*
X151982000Y-100270000D01*
X154082000Y-101570000D02*
X154082000Y-100970000D01*
X151982000Y-100270000D02*
G75*
G03*
X151282000Y-100970000I-1J-699999D01*
G01*
X151282000Y-101570000D02*
G75*
G03*
X151982000Y-102270000I699999J-1D01*
G01*
X154082000Y-100970000D02*
G75*
G03*
X153382000Y-100270000I-700000J0D01*
G01*
X153382000Y-102270000D02*
G75*
G03*
X154082000Y-101570000I0J700000D01*
G01*
X145044000Y-94620000D02*
X145044000Y-95220000D01*
X145744000Y-95920000D02*
X147144000Y-95920000D01*
X147144000Y-93920000D02*
X145744000Y-93920000D01*
X147844000Y-95220000D02*
X147844000Y-94620000D01*
X145744000Y-93920000D02*
G75*
G03*
X145044000Y-94620000I-1J-699999D01*
G01*
X145044000Y-95220000D02*
G75*
G03*
X145744000Y-95920000I699999J-1D01*
G01*
X147844000Y-94620000D02*
G75*
G03*
X147144000Y-93920000I-700000J0D01*
G01*
X147144000Y-95920000D02*
G75*
G03*
X147844000Y-95220000I0J700000D01*
G01*
X145044000Y-100970000D02*
X145044000Y-101570000D01*
X145744000Y-102270000D02*
X147144000Y-102270000D01*
X147144000Y-100270000D02*
X145744000Y-100270000D01*
X147844000Y-101570000D02*
X147844000Y-100970000D01*
X145744000Y-100270000D02*
G75*
G03*
X145044000Y-100970000I-1J-699999D01*
G01*
X145044000Y-101570000D02*
G75*
G03*
X145744000Y-102270000I699999J-1D01*
G01*
X147844000Y-100970000D02*
G75*
G03*
X147144000Y-100270000I-700000J0D01*
G01*
X147144000Y-102270000D02*
G75*
G03*
X147844000Y-101570000I0J700000D01*
G01*
X145044000Y-107320000D02*
X145044000Y-107920000D01*
X145744000Y-108620000D02*
X147144000Y-108620000D01*
X147144000Y-106620000D02*
X145744000Y-106620000D01*
X147844000Y-107920000D02*
X147844000Y-107320000D01*
X145744000Y-106620000D02*
G75*
G03*
X145044000Y-107320000I-1J-699999D01*
G01*
X145044000Y-107920000D02*
G75*
G03*
X145744000Y-108620000I699999J-1D01*
G01*
X147844000Y-107320000D02*
G75*
G03*
X147144000Y-106620000I-700000J0D01*
G01*
X147144000Y-108620000D02*
G75*
G03*
X147844000Y-107920000I0J700000D01*
G01*
X151282000Y-107320000D02*
X151282000Y-107920000D01*
X151982000Y-108620000D02*
X153382000Y-108620000D01*
X153382000Y-106620000D02*
X151982000Y-106620000D01*
X154082000Y-107920000D02*
X154082000Y-107320000D01*
X151982000Y-106620000D02*
G75*
G03*
X151282000Y-107320000I-1J-699999D01*
G01*
X151282000Y-107920000D02*
G75*
G03*
X151982000Y-108620000I699999J-1D01*
G01*
X154082000Y-107320000D02*
G75*
G03*
X153382000Y-106620000I-700000J0D01*
G01*
X153382000Y-108620000D02*
G75*
G03*
X154082000Y-107920000I0J700000D01*
G01*
X138806000Y-94620000D02*
X138806000Y-95220000D01*
X139506000Y-95920000D02*
X140906000Y-95920000D01*
X140906000Y-93920000D02*
X139506000Y-93920000D01*
X141606000Y-95220000D02*
X141606000Y-94620000D01*
X139506000Y-93920000D02*
G75*
G03*
X138806000Y-94620000I-1J-699999D01*
G01*
X138806000Y-95220000D02*
G75*
G03*
X139506000Y-95920000I699999J-1D01*
G01*
X141606000Y-94620000D02*
G75*
G03*
X140906000Y-93920000I-700000J0D01*
G01*
X140906000Y-95920000D02*
G75*
G03*
X141606000Y-95220000I0J700000D01*
G01*
X158630000Y-108620000D02*
X159250000Y-108620000D01*
X175250000Y-108620000D02*
X175250000Y-109230000D01*
X175250000Y-108620000D02*
X182870000Y-108620000D01*
X182870000Y-108620000D02*
X182870000Y-92380000D01*
X158630000Y-106500000D02*
X158630000Y-108620000D01*
X158630000Y-92380000D02*
X158630000Y-94500000D01*
X159250000Y-92380000D02*
X158630000Y-92380000D01*
X182870000Y-92380000D02*
X175250000Y-92380000D01*
X140340000Y-70880000D02*
X160340000Y-70880000D01*
X140340000Y-80880000D02*
X140340000Y-70880000D01*
X140340000Y-81200000D02*
X140340000Y-80880000D01*
X160340000Y-70880000D02*
X160340000Y-80880000D01*
X160340000Y-80880000D02*
X160340000Y-81200000D01*
X160340000Y-81200000D02*
X140340000Y-81200000D01*
X151282000Y-94620000D02*
X151282000Y-95220000D01*
X151982000Y-95920000D02*
X153382000Y-95920000D01*
X153382000Y-93920000D02*
X151982000Y-93920000D01*
X154082000Y-95220000D02*
X154082000Y-94620000D01*
X151982000Y-93920000D02*
G75*
G03*
X151282000Y-94620000I-1J-699999D01*
G01*
X151282000Y-95220000D02*
G75*
G03*
X151982000Y-95920000I699999J-1D01*
G01*
X154082000Y-94620000D02*
G75*
G03*
X153382000Y-93920000I-700000J0D01*
G01*
X153382000Y-95920000D02*
G75*
G03*
X154082000Y-95220000I0J700000D01*
G01*
X138806000Y-100970000D02*
X138806000Y-101570000D01*
X139506000Y-102270000D02*
X140906000Y-102270000D01*
X140906000Y-100270000D02*
X139506000Y-100270000D01*
X141606000Y-101570000D02*
X141606000Y-100970000D01*
X139506000Y-100270000D02*
G75*
G03*
X138806000Y-100970000I-1J-699999D01*
G01*
X138806000Y-101570000D02*
G75*
G03*
X139506000Y-102270000I699999J-1D01*
G01*
X141606000Y-100970000D02*
G75*
G03*
X140906000Y-100270000I-700000J0D01*
G01*
X140906000Y-102270000D02*
G75*
G03*
X141606000Y-101570000I0J700000D01*
G01*
M02*
