%TF.GenerationSoftware,KiCad,Pcbnew,7.0.0*%
%TF.CreationDate,2024-11-18T00:14:05-05:00*%
%TF.ProjectId,wifi_shield,77696669-5f73-4686-9965-6c642e6b6963,rev?*%
%TF.SameCoordinates,Original*%
%TF.FileFunction,Soldermask,Bot*%
%TF.FilePolarity,Negative*%
%FSLAX46Y46*%
G04 Gerber Fmt 4.6, Leading zero omitted, Abs format (unit mm)*
G04 Created by KiCad (PCBNEW 7.0.0) date 2024-11-18 00:14:05*
%MOMM*%
%LPD*%
G01*
G04 APERTURE LIST*
G04 Aperture macros list*
%AMFreePoly0*
4,1,19,0.500000,-0.750000,0.000000,-0.750000,0.000000,-0.744911,-0.071157,-0.744911,-0.207708,-0.704816,-0.327430,-0.627875,-0.420627,-0.520320,-0.479746,-0.390866,-0.500000,-0.250000,-0.500000,0.250000,-0.479746,0.390866,-0.420627,0.520320,-0.327430,0.627875,-0.207708,0.704816,-0.071157,0.744911,0.000000,0.744911,0.000000,0.750000,0.500000,0.750000,0.500000,-0.750000,0.500000,-0.750000,
$1*%
%AMFreePoly1*
4,1,19,0.000000,0.744911,0.071157,0.744911,0.207708,0.704816,0.327430,0.627875,0.420627,0.520320,0.479746,0.390866,0.500000,0.250000,0.500000,-0.250000,0.479746,-0.390866,0.420627,-0.520320,0.327430,-0.627875,0.207708,-0.704816,0.071157,-0.744911,0.000000,-0.744911,0.000000,-0.750000,-0.500000,-0.750000,-0.500000,0.750000,0.000000,0.750000,0.000000,0.744911,0.000000,0.744911,
$1*%
G04 Aperture macros list end*
%ADD10R,1.700000X1.700000*%
%ADD11O,1.700000X1.700000*%
%ADD12FreePoly0,0.000000*%
%ADD13FreePoly1,0.000000*%
%ADD14R,1.000000X2.500000*%
%ADD15R,1.800000X1.000000*%
%ADD16R,4.200000X1.000000*%
G04 APERTURE END LIST*
D10*
X131965999Y-114960599D03*
D11*
X134505999Y-114960599D03*
X137045999Y-114960599D03*
X139585999Y-114960599D03*
X142125999Y-114960599D03*
X144665999Y-114960599D03*
X147205999Y-114960599D03*
X149745999Y-114960599D03*
X152285999Y-114960599D03*
X154825999Y-114960599D03*
X157365999Y-114960599D03*
X159905999Y-114960599D03*
X162445999Y-114960599D03*
X164985999Y-114960599D03*
D10*
X164985999Y-84459999D03*
D11*
X162445999Y-84459999D03*
X159905999Y-84459999D03*
X157365999Y-84459999D03*
X154825999Y-84459999D03*
X152285999Y-84459999D03*
X149745999Y-84459999D03*
X147205999Y-84459999D03*
X144665999Y-84459999D03*
X142125999Y-84459999D03*
X139585999Y-84459999D03*
X137045999Y-84459999D03*
X134505999Y-84459999D03*
X131965999Y-84459999D03*
D10*
X134949999Y-80499999D03*
D11*
X132409999Y-80499999D03*
X129869999Y-80499999D03*
X127329999Y-80499999D03*
D10*
X164999999Y-80699999D03*
D11*
X167539999Y-80699999D03*
X170079999Y-80699999D03*
X172619999Y-80699999D03*
D10*
X146249999Y-69011999D03*
D11*
X148789999Y-69011999D03*
X151329999Y-69011999D03*
X153869999Y-69011999D03*
D10*
X123329999Y-88569999D03*
D11*
X123329999Y-91109999D03*
X123329999Y-93649999D03*
X123329999Y-96189999D03*
X123329999Y-98729999D03*
X123329999Y-101269999D03*
D10*
X127299999Y-76699999D03*
X172864999Y-114999999D03*
D11*
X170324999Y-114999999D03*
D10*
X172859999Y-84759999D03*
D11*
X170319999Y-84759999D03*
D10*
X172699999Y-76899999D03*
X143649999Y-128955999D03*
D11*
X146189999Y-128955999D03*
X148729999Y-128955999D03*
X151269999Y-128955999D03*
X153809999Y-128955999D03*
X156349999Y-128955999D03*
D10*
X146189999Y-123875999D03*
D11*
X148729999Y-123875999D03*
X151269999Y-123875999D03*
X153809999Y-123875999D03*
D12*
X152032000Y-101270000D03*
D13*
X153332000Y-101270000D03*
D12*
X145794000Y-94920000D03*
D13*
X147094000Y-94920000D03*
D12*
X145794000Y-101270000D03*
D13*
X147094000Y-101270000D03*
D12*
X145794000Y-107620000D03*
D13*
X147094000Y-107620000D03*
D12*
X152032000Y-107620000D03*
D13*
X153332000Y-107620000D03*
D12*
X139556000Y-94920000D03*
D13*
X140856000Y-94920000D03*
D14*
X174249999Y-108099999D03*
X172249999Y-108099999D03*
X170249999Y-108099999D03*
X168249999Y-108099999D03*
X166249999Y-108099999D03*
X164249999Y-108099999D03*
X162249999Y-108099999D03*
X160249999Y-108099999D03*
D15*
X158749999Y-105499999D03*
X158749999Y-103499999D03*
X158749999Y-101499999D03*
X158749999Y-99499999D03*
X158749999Y-97499999D03*
X158749999Y-95499999D03*
D14*
X160249999Y-92899999D03*
X162249999Y-92899999D03*
X164249999Y-92899999D03*
X166249999Y-92899999D03*
X168249999Y-92899999D03*
X170249999Y-92899999D03*
X172249999Y-92899999D03*
X174249999Y-92899999D03*
D16*
X139839999Y-79879999D03*
X139839999Y-77339999D03*
X139839999Y-74799999D03*
X139839999Y-72259999D03*
X160159999Y-72259999D03*
X160159999Y-74799999D03*
X160159999Y-77339999D03*
X160159999Y-79879999D03*
D12*
X152032000Y-94920000D03*
D13*
X153332000Y-94920000D03*
D12*
X139556000Y-101270000D03*
D13*
X140856000Y-101270000D03*
M02*
