G04 #@! TF.GenerationSoftware,KiCad,Pcbnew,5.1.9+dfsg1-1~bpo10+1*
G04 #@! TF.CreationDate,2021-10-25T22:06:13-04:00*
G04 #@! TF.ProjectId,wifi_shield,77696669-5f73-4686-9965-6c642e6b6963,rev?*
G04 #@! TF.SameCoordinates,Original*
G04 #@! TF.FileFunction,Soldermask,Bot*
G04 #@! TF.FilePolarity,Negative*
%FSLAX46Y46*%
G04 Gerber Fmt 4.6, Leading zero omitted, Abs format (unit mm)*
G04 Created by KiCad (PCBNEW 5.1.9+dfsg1-1~bpo10+1) date 2021-10-25 22:06:13*
%MOMM*%
%LPD*%
G01*
G04 APERTURE LIST*
%ADD10C,0.100000*%
%ADD11O,1.801600X1.801600*%
%ADD12O,1.101600X1.101600*%
G04 APERTURE END LIST*
G36*
G01*
X174750000Y-109400800D02*
X173750000Y-109400800D01*
G75*
G02*
X173699200Y-109350000I0J50800D01*
G01*
X173699200Y-106850000D01*
G75*
G02*
X173750000Y-106799200I50800J0D01*
G01*
X174750000Y-106799200D01*
G75*
G02*
X174800800Y-106850000I0J-50800D01*
G01*
X174800800Y-109350000D01*
G75*
G02*
X174750000Y-109400800I-50800J0D01*
G01*
G37*
G36*
G01*
X172750000Y-109400800D02*
X171750000Y-109400800D01*
G75*
G02*
X171699200Y-109350000I0J50800D01*
G01*
X171699200Y-106850000D01*
G75*
G02*
X171750000Y-106799200I50800J0D01*
G01*
X172750000Y-106799200D01*
G75*
G02*
X172800800Y-106850000I0J-50800D01*
G01*
X172800800Y-109350000D01*
G75*
G02*
X172750000Y-109400800I-50800J0D01*
G01*
G37*
G36*
G01*
X170750000Y-109400800D02*
X169750000Y-109400800D01*
G75*
G02*
X169699200Y-109350000I0J50800D01*
G01*
X169699200Y-106850000D01*
G75*
G02*
X169750000Y-106799200I50800J0D01*
G01*
X170750000Y-106799200D01*
G75*
G02*
X170800800Y-106850000I0J-50800D01*
G01*
X170800800Y-109350000D01*
G75*
G02*
X170750000Y-109400800I-50800J0D01*
G01*
G37*
G36*
G01*
X168750000Y-109400800D02*
X167750000Y-109400800D01*
G75*
G02*
X167699200Y-109350000I0J50800D01*
G01*
X167699200Y-106850000D01*
G75*
G02*
X167750000Y-106799200I50800J0D01*
G01*
X168750000Y-106799200D01*
G75*
G02*
X168800800Y-106850000I0J-50800D01*
G01*
X168800800Y-109350000D01*
G75*
G02*
X168750000Y-109400800I-50800J0D01*
G01*
G37*
G36*
G01*
X166750000Y-109400800D02*
X165750000Y-109400800D01*
G75*
G02*
X165699200Y-109350000I0J50800D01*
G01*
X165699200Y-106850000D01*
G75*
G02*
X165750000Y-106799200I50800J0D01*
G01*
X166750000Y-106799200D01*
G75*
G02*
X166800800Y-106850000I0J-50800D01*
G01*
X166800800Y-109350000D01*
G75*
G02*
X166750000Y-109400800I-50800J0D01*
G01*
G37*
G36*
G01*
X164750000Y-109400800D02*
X163750000Y-109400800D01*
G75*
G02*
X163699200Y-109350000I0J50800D01*
G01*
X163699200Y-106850000D01*
G75*
G02*
X163750000Y-106799200I50800J0D01*
G01*
X164750000Y-106799200D01*
G75*
G02*
X164800800Y-106850000I0J-50800D01*
G01*
X164800800Y-109350000D01*
G75*
G02*
X164750000Y-109400800I-50800J0D01*
G01*
G37*
G36*
G01*
X162750000Y-109400800D02*
X161750000Y-109400800D01*
G75*
G02*
X161699200Y-109350000I0J50800D01*
G01*
X161699200Y-106850000D01*
G75*
G02*
X161750000Y-106799200I50800J0D01*
G01*
X162750000Y-106799200D01*
G75*
G02*
X162800800Y-106850000I0J-50800D01*
G01*
X162800800Y-109350000D01*
G75*
G02*
X162750000Y-109400800I-50800J0D01*
G01*
G37*
G36*
G01*
X160750000Y-109400800D02*
X159750000Y-109400800D01*
G75*
G02*
X159699200Y-109350000I0J50800D01*
G01*
X159699200Y-106850000D01*
G75*
G02*
X159750000Y-106799200I50800J0D01*
G01*
X160750000Y-106799200D01*
G75*
G02*
X160800800Y-106850000I0J-50800D01*
G01*
X160800800Y-109350000D01*
G75*
G02*
X160750000Y-109400800I-50800J0D01*
G01*
G37*
G36*
G01*
X159650000Y-106050800D02*
X157850000Y-106050800D01*
G75*
G02*
X157799200Y-106000000I0J50800D01*
G01*
X157799200Y-105000000D01*
G75*
G02*
X157850000Y-104949200I50800J0D01*
G01*
X159650000Y-104949200D01*
G75*
G02*
X159700800Y-105000000I0J-50800D01*
G01*
X159700800Y-106000000D01*
G75*
G02*
X159650000Y-106050800I-50800J0D01*
G01*
G37*
G36*
G01*
X159650000Y-104050800D02*
X157850000Y-104050800D01*
G75*
G02*
X157799200Y-104000000I0J50800D01*
G01*
X157799200Y-103000000D01*
G75*
G02*
X157850000Y-102949200I50800J0D01*
G01*
X159650000Y-102949200D01*
G75*
G02*
X159700800Y-103000000I0J-50800D01*
G01*
X159700800Y-104000000D01*
G75*
G02*
X159650000Y-104050800I-50800J0D01*
G01*
G37*
G36*
G01*
X159650000Y-102050800D02*
X157850000Y-102050800D01*
G75*
G02*
X157799200Y-102000000I0J50800D01*
G01*
X157799200Y-101000000D01*
G75*
G02*
X157850000Y-100949200I50800J0D01*
G01*
X159650000Y-100949200D01*
G75*
G02*
X159700800Y-101000000I0J-50800D01*
G01*
X159700800Y-102000000D01*
G75*
G02*
X159650000Y-102050800I-50800J0D01*
G01*
G37*
G36*
G01*
X159650000Y-100050800D02*
X157850000Y-100050800D01*
G75*
G02*
X157799200Y-100000000I0J50800D01*
G01*
X157799200Y-99000000D01*
G75*
G02*
X157850000Y-98949200I50800J0D01*
G01*
X159650000Y-98949200D01*
G75*
G02*
X159700800Y-99000000I0J-50800D01*
G01*
X159700800Y-100000000D01*
G75*
G02*
X159650000Y-100050800I-50800J0D01*
G01*
G37*
G36*
G01*
X159650000Y-98050800D02*
X157850000Y-98050800D01*
G75*
G02*
X157799200Y-98000000I0J50800D01*
G01*
X157799200Y-97000000D01*
G75*
G02*
X157850000Y-96949200I50800J0D01*
G01*
X159650000Y-96949200D01*
G75*
G02*
X159700800Y-97000000I0J-50800D01*
G01*
X159700800Y-98000000D01*
G75*
G02*
X159650000Y-98050800I-50800J0D01*
G01*
G37*
G36*
G01*
X159650000Y-96050800D02*
X157850000Y-96050800D01*
G75*
G02*
X157799200Y-96000000I0J50800D01*
G01*
X157799200Y-95000000D01*
G75*
G02*
X157850000Y-94949200I50800J0D01*
G01*
X159650000Y-94949200D01*
G75*
G02*
X159700800Y-95000000I0J-50800D01*
G01*
X159700800Y-96000000D01*
G75*
G02*
X159650000Y-96050800I-50800J0D01*
G01*
G37*
G36*
G01*
X160750000Y-94200800D02*
X159750000Y-94200800D01*
G75*
G02*
X159699200Y-94150000I0J50800D01*
G01*
X159699200Y-91650000D01*
G75*
G02*
X159750000Y-91599200I50800J0D01*
G01*
X160750000Y-91599200D01*
G75*
G02*
X160800800Y-91650000I0J-50800D01*
G01*
X160800800Y-94150000D01*
G75*
G02*
X160750000Y-94200800I-50800J0D01*
G01*
G37*
G36*
G01*
X162750000Y-94200800D02*
X161750000Y-94200800D01*
G75*
G02*
X161699200Y-94150000I0J50800D01*
G01*
X161699200Y-91650000D01*
G75*
G02*
X161750000Y-91599200I50800J0D01*
G01*
X162750000Y-91599200D01*
G75*
G02*
X162800800Y-91650000I0J-50800D01*
G01*
X162800800Y-94150000D01*
G75*
G02*
X162750000Y-94200800I-50800J0D01*
G01*
G37*
G36*
G01*
X164750000Y-94200800D02*
X163750000Y-94200800D01*
G75*
G02*
X163699200Y-94150000I0J50800D01*
G01*
X163699200Y-91650000D01*
G75*
G02*
X163750000Y-91599200I50800J0D01*
G01*
X164750000Y-91599200D01*
G75*
G02*
X164800800Y-91650000I0J-50800D01*
G01*
X164800800Y-94150000D01*
G75*
G02*
X164750000Y-94200800I-50800J0D01*
G01*
G37*
G36*
G01*
X166750000Y-94200800D02*
X165750000Y-94200800D01*
G75*
G02*
X165699200Y-94150000I0J50800D01*
G01*
X165699200Y-91650000D01*
G75*
G02*
X165750000Y-91599200I50800J0D01*
G01*
X166750000Y-91599200D01*
G75*
G02*
X166800800Y-91650000I0J-50800D01*
G01*
X166800800Y-94150000D01*
G75*
G02*
X166750000Y-94200800I-50800J0D01*
G01*
G37*
G36*
G01*
X168750000Y-94200800D02*
X167750000Y-94200800D01*
G75*
G02*
X167699200Y-94150000I0J50800D01*
G01*
X167699200Y-91650000D01*
G75*
G02*
X167750000Y-91599200I50800J0D01*
G01*
X168750000Y-91599200D01*
G75*
G02*
X168800800Y-91650000I0J-50800D01*
G01*
X168800800Y-94150000D01*
G75*
G02*
X168750000Y-94200800I-50800J0D01*
G01*
G37*
G36*
G01*
X170750000Y-94200800D02*
X169750000Y-94200800D01*
G75*
G02*
X169699200Y-94150000I0J50800D01*
G01*
X169699200Y-91650000D01*
G75*
G02*
X169750000Y-91599200I50800J0D01*
G01*
X170750000Y-91599200D01*
G75*
G02*
X170800800Y-91650000I0J-50800D01*
G01*
X170800800Y-94150000D01*
G75*
G02*
X170750000Y-94200800I-50800J0D01*
G01*
G37*
G36*
G01*
X172750000Y-94200800D02*
X171750000Y-94200800D01*
G75*
G02*
X171699200Y-94150000I0J50800D01*
G01*
X171699200Y-91650000D01*
G75*
G02*
X171750000Y-91599200I50800J0D01*
G01*
X172750000Y-91599200D01*
G75*
G02*
X172800800Y-91650000I0J-50800D01*
G01*
X172800800Y-94150000D01*
G75*
G02*
X172750000Y-94200800I-50800J0D01*
G01*
G37*
G36*
G01*
X174750000Y-94200800D02*
X173750000Y-94200800D01*
G75*
G02*
X173699200Y-94150000I0J50800D01*
G01*
X173699200Y-91650000D01*
G75*
G02*
X173750000Y-91599200I50800J0D01*
G01*
X174750000Y-91599200D01*
G75*
G02*
X174800800Y-91650000I0J-50800D01*
G01*
X174800800Y-94150000D01*
G75*
G02*
X174750000Y-94200800I-50800J0D01*
G01*
G37*
D10*
G36*
X147100113Y-94119802D02*
G01*
X147118534Y-94119802D01*
X147123514Y-94120047D01*
X147172345Y-94124857D01*
X147177275Y-94125588D01*
X147225400Y-94135160D01*
X147230237Y-94136372D01*
X147277192Y-94150616D01*
X147281885Y-94152295D01*
X147327218Y-94171072D01*
X147331726Y-94173204D01*
X147374999Y-94196335D01*
X147379273Y-94198897D01*
X147420072Y-94226157D01*
X147424077Y-94229127D01*
X147462006Y-94260255D01*
X147465700Y-94263603D01*
X147500397Y-94298300D01*
X147503745Y-94301994D01*
X147534873Y-94339923D01*
X147537843Y-94343928D01*
X147565103Y-94384727D01*
X147567665Y-94389001D01*
X147590796Y-94432274D01*
X147592928Y-94436782D01*
X147611705Y-94482115D01*
X147613384Y-94486808D01*
X147627628Y-94533763D01*
X147628840Y-94538600D01*
X147638412Y-94586725D01*
X147639143Y-94591655D01*
X147643953Y-94640486D01*
X147644198Y-94645466D01*
X147644198Y-94663887D01*
X147644800Y-94670000D01*
X147644800Y-95170000D01*
X147644198Y-95176113D01*
X147644198Y-95194534D01*
X147643953Y-95199514D01*
X147639143Y-95248345D01*
X147638412Y-95253275D01*
X147628840Y-95301400D01*
X147627628Y-95306237D01*
X147613384Y-95353192D01*
X147611705Y-95357885D01*
X147592928Y-95403218D01*
X147590796Y-95407726D01*
X147567665Y-95450999D01*
X147565103Y-95455273D01*
X147537843Y-95496072D01*
X147534873Y-95500077D01*
X147503745Y-95538006D01*
X147500397Y-95541700D01*
X147465700Y-95576397D01*
X147462006Y-95579745D01*
X147424077Y-95610873D01*
X147420072Y-95613843D01*
X147379273Y-95641103D01*
X147374999Y-95643665D01*
X147331726Y-95666796D01*
X147327218Y-95668928D01*
X147281885Y-95687705D01*
X147277192Y-95689384D01*
X147230237Y-95703628D01*
X147225400Y-95704840D01*
X147177275Y-95714412D01*
X147172345Y-95715143D01*
X147123514Y-95719953D01*
X147118534Y-95720198D01*
X147100113Y-95720198D01*
X147094000Y-95720800D01*
X146594000Y-95720800D01*
X146584089Y-95719824D01*
X146574560Y-95716933D01*
X146565777Y-95712239D01*
X146558079Y-95705921D01*
X146551761Y-95698223D01*
X146547067Y-95689440D01*
X146544176Y-95679911D01*
X146543200Y-95670000D01*
X146543200Y-94170000D01*
X146544176Y-94160089D01*
X146547067Y-94150560D01*
X146551761Y-94141777D01*
X146558079Y-94134079D01*
X146565777Y-94127761D01*
X146574560Y-94123067D01*
X146584089Y-94120176D01*
X146594000Y-94119200D01*
X147094000Y-94119200D01*
X147100113Y-94119802D01*
G37*
G36*
X146303911Y-94120176D02*
G01*
X146313440Y-94123067D01*
X146322223Y-94127761D01*
X146329921Y-94134079D01*
X146336239Y-94141777D01*
X146340933Y-94150560D01*
X146343824Y-94160089D01*
X146344800Y-94170000D01*
X146344800Y-95670000D01*
X146343824Y-95679911D01*
X146340933Y-95689440D01*
X146336239Y-95698223D01*
X146329921Y-95705921D01*
X146322223Y-95712239D01*
X146313440Y-95716933D01*
X146303911Y-95719824D01*
X146294000Y-95720800D01*
X145794000Y-95720800D01*
X145787887Y-95720198D01*
X145769466Y-95720198D01*
X145764486Y-95719953D01*
X145715655Y-95715143D01*
X145710725Y-95714412D01*
X145662600Y-95704840D01*
X145657763Y-95703628D01*
X145610808Y-95689384D01*
X145606115Y-95687705D01*
X145560782Y-95668928D01*
X145556274Y-95666796D01*
X145513001Y-95643665D01*
X145508727Y-95641103D01*
X145467928Y-95613843D01*
X145463923Y-95610873D01*
X145425994Y-95579745D01*
X145422300Y-95576397D01*
X145387603Y-95541700D01*
X145384255Y-95538006D01*
X145353127Y-95500077D01*
X145350157Y-95496072D01*
X145322897Y-95455273D01*
X145320335Y-95450999D01*
X145297204Y-95407726D01*
X145295072Y-95403218D01*
X145276295Y-95357885D01*
X145274616Y-95353192D01*
X145260372Y-95306237D01*
X145259160Y-95301400D01*
X145249588Y-95253275D01*
X145248857Y-95248345D01*
X145244047Y-95199514D01*
X145243802Y-95194534D01*
X145243802Y-95176113D01*
X145243200Y-95170000D01*
X145243200Y-94670000D01*
X145243802Y-94663887D01*
X145243802Y-94645466D01*
X145244047Y-94640486D01*
X145248857Y-94591655D01*
X145249588Y-94586725D01*
X145259160Y-94538600D01*
X145260372Y-94533763D01*
X145274616Y-94486808D01*
X145276295Y-94482115D01*
X145295072Y-94436782D01*
X145297204Y-94432274D01*
X145320335Y-94389001D01*
X145322897Y-94384727D01*
X145350157Y-94343928D01*
X145353127Y-94339923D01*
X145384255Y-94301994D01*
X145387603Y-94298300D01*
X145422300Y-94263603D01*
X145425994Y-94260255D01*
X145463923Y-94229127D01*
X145467928Y-94226157D01*
X145508727Y-94198897D01*
X145513001Y-94196335D01*
X145556274Y-94173204D01*
X145560782Y-94171072D01*
X145606115Y-94152295D01*
X145610808Y-94150616D01*
X145657763Y-94136372D01*
X145662600Y-94135160D01*
X145710725Y-94125588D01*
X145715655Y-94124857D01*
X145764486Y-94120047D01*
X145769466Y-94119802D01*
X145787887Y-94119802D01*
X145794000Y-94119200D01*
X146294000Y-94119200D01*
X146303911Y-94120176D01*
G37*
G36*
G01*
X137689200Y-80380000D02*
X137689200Y-79380000D01*
G75*
G02*
X137740000Y-79329200I50800J0D01*
G01*
X141940000Y-79329200D01*
G75*
G02*
X141990800Y-79380000I0J-50800D01*
G01*
X141990800Y-80380000D01*
G75*
G02*
X141940000Y-80430800I-50800J0D01*
G01*
X137740000Y-80430800D01*
G75*
G02*
X137689200Y-80380000I0J50800D01*
G01*
G37*
G36*
G01*
X137689200Y-77840000D02*
X137689200Y-76840000D01*
G75*
G02*
X137740000Y-76789200I50800J0D01*
G01*
X141940000Y-76789200D01*
G75*
G02*
X141990800Y-76840000I0J-50800D01*
G01*
X141990800Y-77840000D01*
G75*
G02*
X141940000Y-77890800I-50800J0D01*
G01*
X137740000Y-77890800D01*
G75*
G02*
X137689200Y-77840000I0J50800D01*
G01*
G37*
G36*
G01*
X137689200Y-75300000D02*
X137689200Y-74300000D01*
G75*
G02*
X137740000Y-74249200I50800J0D01*
G01*
X141940000Y-74249200D01*
G75*
G02*
X141990800Y-74300000I0J-50800D01*
G01*
X141990800Y-75300000D01*
G75*
G02*
X141940000Y-75350800I-50800J0D01*
G01*
X137740000Y-75350800D01*
G75*
G02*
X137689200Y-75300000I0J50800D01*
G01*
G37*
G36*
G01*
X137689200Y-72760000D02*
X137689200Y-71760000D01*
G75*
G02*
X137740000Y-71709200I50800J0D01*
G01*
X141940000Y-71709200D01*
G75*
G02*
X141990800Y-71760000I0J-50800D01*
G01*
X141990800Y-72760000D01*
G75*
G02*
X141940000Y-72810800I-50800J0D01*
G01*
X137740000Y-72810800D01*
G75*
G02*
X137689200Y-72760000I0J50800D01*
G01*
G37*
G36*
G01*
X158009200Y-80380000D02*
X158009200Y-79380000D01*
G75*
G02*
X158060000Y-79329200I50800J0D01*
G01*
X162260000Y-79329200D01*
G75*
G02*
X162310800Y-79380000I0J-50800D01*
G01*
X162310800Y-80380000D01*
G75*
G02*
X162260000Y-80430800I-50800J0D01*
G01*
X158060000Y-80430800D01*
G75*
G02*
X158009200Y-80380000I0J50800D01*
G01*
G37*
G36*
G01*
X158009200Y-77840000D02*
X158009200Y-76840000D01*
G75*
G02*
X158060000Y-76789200I50800J0D01*
G01*
X162260000Y-76789200D01*
G75*
G02*
X162310800Y-76840000I0J-50800D01*
G01*
X162310800Y-77840000D01*
G75*
G02*
X162260000Y-77890800I-50800J0D01*
G01*
X158060000Y-77890800D01*
G75*
G02*
X158009200Y-77840000I0J50800D01*
G01*
G37*
G36*
G01*
X158009200Y-75300000D02*
X158009200Y-74300000D01*
G75*
G02*
X158060000Y-74249200I50800J0D01*
G01*
X162260000Y-74249200D01*
G75*
G02*
X162310800Y-74300000I0J-50800D01*
G01*
X162310800Y-75300000D01*
G75*
G02*
X162260000Y-75350800I-50800J0D01*
G01*
X158060000Y-75350800D01*
G75*
G02*
X158009200Y-75300000I0J50800D01*
G01*
G37*
G36*
G01*
X158009200Y-72760000D02*
X158009200Y-71760000D01*
G75*
G02*
X158060000Y-71709200I50800J0D01*
G01*
X162260000Y-71709200D01*
G75*
G02*
X162310800Y-71760000I0J-50800D01*
G01*
X162310800Y-72760000D01*
G75*
G02*
X162260000Y-72810800I-50800J0D01*
G01*
X158060000Y-72810800D01*
G75*
G02*
X158009200Y-72760000I0J50800D01*
G01*
G37*
G36*
X152541911Y-100470176D02*
G01*
X152551440Y-100473067D01*
X152560223Y-100477761D01*
X152567921Y-100484079D01*
X152574239Y-100491777D01*
X152578933Y-100500560D01*
X152581824Y-100510089D01*
X152582800Y-100520000D01*
X152582800Y-102020000D01*
X152581824Y-102029911D01*
X152578933Y-102039440D01*
X152574239Y-102048223D01*
X152567921Y-102055921D01*
X152560223Y-102062239D01*
X152551440Y-102066933D01*
X152541911Y-102069824D01*
X152532000Y-102070800D01*
X152032000Y-102070800D01*
X152025887Y-102070198D01*
X152007466Y-102070198D01*
X152002486Y-102069953D01*
X151953655Y-102065143D01*
X151948725Y-102064412D01*
X151900600Y-102054840D01*
X151895763Y-102053628D01*
X151848808Y-102039384D01*
X151844115Y-102037705D01*
X151798782Y-102018928D01*
X151794274Y-102016796D01*
X151751001Y-101993665D01*
X151746727Y-101991103D01*
X151705928Y-101963843D01*
X151701923Y-101960873D01*
X151663994Y-101929745D01*
X151660300Y-101926397D01*
X151625603Y-101891700D01*
X151622255Y-101888006D01*
X151591127Y-101850077D01*
X151588157Y-101846072D01*
X151560897Y-101805273D01*
X151558335Y-101800999D01*
X151535204Y-101757726D01*
X151533072Y-101753218D01*
X151514295Y-101707885D01*
X151512616Y-101703192D01*
X151498372Y-101656237D01*
X151497160Y-101651400D01*
X151487588Y-101603275D01*
X151486857Y-101598345D01*
X151482047Y-101549514D01*
X151481802Y-101544534D01*
X151481802Y-101526113D01*
X151481200Y-101520000D01*
X151481200Y-101020000D01*
X151481802Y-101013887D01*
X151481802Y-100995466D01*
X151482047Y-100990486D01*
X151486857Y-100941655D01*
X151487588Y-100936725D01*
X151497160Y-100888600D01*
X151498372Y-100883763D01*
X151512616Y-100836808D01*
X151514295Y-100832115D01*
X151533072Y-100786782D01*
X151535204Y-100782274D01*
X151558335Y-100739001D01*
X151560897Y-100734727D01*
X151588157Y-100693928D01*
X151591127Y-100689923D01*
X151622255Y-100651994D01*
X151625603Y-100648300D01*
X151660300Y-100613603D01*
X151663994Y-100610255D01*
X151701923Y-100579127D01*
X151705928Y-100576157D01*
X151746727Y-100548897D01*
X151751001Y-100546335D01*
X151794274Y-100523204D01*
X151798782Y-100521072D01*
X151844115Y-100502295D01*
X151848808Y-100500616D01*
X151895763Y-100486372D01*
X151900600Y-100485160D01*
X151948725Y-100475588D01*
X151953655Y-100474857D01*
X152002486Y-100470047D01*
X152007466Y-100469802D01*
X152025887Y-100469802D01*
X152032000Y-100469200D01*
X152532000Y-100469200D01*
X152541911Y-100470176D01*
G37*
G36*
X153338113Y-100469802D02*
G01*
X153356534Y-100469802D01*
X153361514Y-100470047D01*
X153410345Y-100474857D01*
X153415275Y-100475588D01*
X153463400Y-100485160D01*
X153468237Y-100486372D01*
X153515192Y-100500616D01*
X153519885Y-100502295D01*
X153565218Y-100521072D01*
X153569726Y-100523204D01*
X153612999Y-100546335D01*
X153617273Y-100548897D01*
X153658072Y-100576157D01*
X153662077Y-100579127D01*
X153700006Y-100610255D01*
X153703700Y-100613603D01*
X153738397Y-100648300D01*
X153741745Y-100651994D01*
X153772873Y-100689923D01*
X153775843Y-100693928D01*
X153803103Y-100734727D01*
X153805665Y-100739001D01*
X153828796Y-100782274D01*
X153830928Y-100786782D01*
X153849705Y-100832115D01*
X153851384Y-100836808D01*
X153865628Y-100883763D01*
X153866840Y-100888600D01*
X153876412Y-100936725D01*
X153877143Y-100941655D01*
X153881953Y-100990486D01*
X153882198Y-100995466D01*
X153882198Y-101013887D01*
X153882800Y-101020000D01*
X153882800Y-101520000D01*
X153882198Y-101526113D01*
X153882198Y-101544534D01*
X153881953Y-101549514D01*
X153877143Y-101598345D01*
X153876412Y-101603275D01*
X153866840Y-101651400D01*
X153865628Y-101656237D01*
X153851384Y-101703192D01*
X153849705Y-101707885D01*
X153830928Y-101753218D01*
X153828796Y-101757726D01*
X153805665Y-101800999D01*
X153803103Y-101805273D01*
X153775843Y-101846072D01*
X153772873Y-101850077D01*
X153741745Y-101888006D01*
X153738397Y-101891700D01*
X153703700Y-101926397D01*
X153700006Y-101929745D01*
X153662077Y-101960873D01*
X153658072Y-101963843D01*
X153617273Y-101991103D01*
X153612999Y-101993665D01*
X153569726Y-102016796D01*
X153565218Y-102018928D01*
X153519885Y-102037705D01*
X153515192Y-102039384D01*
X153468237Y-102053628D01*
X153463400Y-102054840D01*
X153415275Y-102064412D01*
X153410345Y-102065143D01*
X153361514Y-102069953D01*
X153356534Y-102070198D01*
X153338113Y-102070198D01*
X153332000Y-102070800D01*
X152832000Y-102070800D01*
X152822089Y-102069824D01*
X152812560Y-102066933D01*
X152803777Y-102062239D01*
X152796079Y-102055921D01*
X152789761Y-102048223D01*
X152785067Y-102039440D01*
X152782176Y-102029911D01*
X152781200Y-102020000D01*
X152781200Y-100520000D01*
X152782176Y-100510089D01*
X152785067Y-100500560D01*
X152789761Y-100491777D01*
X152796079Y-100484079D01*
X152803777Y-100477761D01*
X152812560Y-100473067D01*
X152822089Y-100470176D01*
X152832000Y-100469200D01*
X153332000Y-100469200D01*
X153338113Y-100469802D01*
G37*
G36*
G01*
X147100000Y-69400800D02*
X145400000Y-69400800D01*
G75*
G02*
X145349200Y-69350000I0J50800D01*
G01*
X145349200Y-67650000D01*
G75*
G02*
X145400000Y-67599200I50800J0D01*
G01*
X147100000Y-67599200D01*
G75*
G02*
X147150800Y-67650000I0J-50800D01*
G01*
X147150800Y-69350000D01*
G75*
G02*
X147100000Y-69400800I-50800J0D01*
G01*
G37*
D11*
X148790000Y-68500000D03*
X151330000Y-68500000D03*
X153870000Y-68500000D03*
D10*
G36*
X140065911Y-94120176D02*
G01*
X140075440Y-94123067D01*
X140084223Y-94127761D01*
X140091921Y-94134079D01*
X140098239Y-94141777D01*
X140102933Y-94150560D01*
X140105824Y-94160089D01*
X140106800Y-94170000D01*
X140106800Y-95670000D01*
X140105824Y-95679911D01*
X140102933Y-95689440D01*
X140098239Y-95698223D01*
X140091921Y-95705921D01*
X140084223Y-95712239D01*
X140075440Y-95716933D01*
X140065911Y-95719824D01*
X140056000Y-95720800D01*
X139556000Y-95720800D01*
X139549887Y-95720198D01*
X139531466Y-95720198D01*
X139526486Y-95719953D01*
X139477655Y-95715143D01*
X139472725Y-95714412D01*
X139424600Y-95704840D01*
X139419763Y-95703628D01*
X139372808Y-95689384D01*
X139368115Y-95687705D01*
X139322782Y-95668928D01*
X139318274Y-95666796D01*
X139275001Y-95643665D01*
X139270727Y-95641103D01*
X139229928Y-95613843D01*
X139225923Y-95610873D01*
X139187994Y-95579745D01*
X139184300Y-95576397D01*
X139149603Y-95541700D01*
X139146255Y-95538006D01*
X139115127Y-95500077D01*
X139112157Y-95496072D01*
X139084897Y-95455273D01*
X139082335Y-95450999D01*
X139059204Y-95407726D01*
X139057072Y-95403218D01*
X139038295Y-95357885D01*
X139036616Y-95353192D01*
X139022372Y-95306237D01*
X139021160Y-95301400D01*
X139011588Y-95253275D01*
X139010857Y-95248345D01*
X139006047Y-95199514D01*
X139005802Y-95194534D01*
X139005802Y-95176113D01*
X139005200Y-95170000D01*
X139005200Y-94670000D01*
X139005802Y-94663887D01*
X139005802Y-94645466D01*
X139006047Y-94640486D01*
X139010857Y-94591655D01*
X139011588Y-94586725D01*
X139021160Y-94538600D01*
X139022372Y-94533763D01*
X139036616Y-94486808D01*
X139038295Y-94482115D01*
X139057072Y-94436782D01*
X139059204Y-94432274D01*
X139082335Y-94389001D01*
X139084897Y-94384727D01*
X139112157Y-94343928D01*
X139115127Y-94339923D01*
X139146255Y-94301994D01*
X139149603Y-94298300D01*
X139184300Y-94263603D01*
X139187994Y-94260255D01*
X139225923Y-94229127D01*
X139229928Y-94226157D01*
X139270727Y-94198897D01*
X139275001Y-94196335D01*
X139318274Y-94173204D01*
X139322782Y-94171072D01*
X139368115Y-94152295D01*
X139372808Y-94150616D01*
X139419763Y-94136372D01*
X139424600Y-94135160D01*
X139472725Y-94125588D01*
X139477655Y-94124857D01*
X139526486Y-94120047D01*
X139531466Y-94119802D01*
X139549887Y-94119802D01*
X139556000Y-94119200D01*
X140056000Y-94119200D01*
X140065911Y-94120176D01*
G37*
G36*
X140862113Y-94119802D02*
G01*
X140880534Y-94119802D01*
X140885514Y-94120047D01*
X140934345Y-94124857D01*
X140939275Y-94125588D01*
X140987400Y-94135160D01*
X140992237Y-94136372D01*
X141039192Y-94150616D01*
X141043885Y-94152295D01*
X141089218Y-94171072D01*
X141093726Y-94173204D01*
X141136999Y-94196335D01*
X141141273Y-94198897D01*
X141182072Y-94226157D01*
X141186077Y-94229127D01*
X141224006Y-94260255D01*
X141227700Y-94263603D01*
X141262397Y-94298300D01*
X141265745Y-94301994D01*
X141296873Y-94339923D01*
X141299843Y-94343928D01*
X141327103Y-94384727D01*
X141329665Y-94389001D01*
X141352796Y-94432274D01*
X141354928Y-94436782D01*
X141373705Y-94482115D01*
X141375384Y-94486808D01*
X141389628Y-94533763D01*
X141390840Y-94538600D01*
X141400412Y-94586725D01*
X141401143Y-94591655D01*
X141405953Y-94640486D01*
X141406198Y-94645466D01*
X141406198Y-94663887D01*
X141406800Y-94670000D01*
X141406800Y-95170000D01*
X141406198Y-95176113D01*
X141406198Y-95194534D01*
X141405953Y-95199514D01*
X141401143Y-95248345D01*
X141400412Y-95253275D01*
X141390840Y-95301400D01*
X141389628Y-95306237D01*
X141375384Y-95353192D01*
X141373705Y-95357885D01*
X141354928Y-95403218D01*
X141352796Y-95407726D01*
X141329665Y-95450999D01*
X141327103Y-95455273D01*
X141299843Y-95496072D01*
X141296873Y-95500077D01*
X141265745Y-95538006D01*
X141262397Y-95541700D01*
X141227700Y-95576397D01*
X141224006Y-95579745D01*
X141186077Y-95610873D01*
X141182072Y-95613843D01*
X141141273Y-95641103D01*
X141136999Y-95643665D01*
X141093726Y-95666796D01*
X141089218Y-95668928D01*
X141043885Y-95687705D01*
X141039192Y-95689384D01*
X140992237Y-95703628D01*
X140987400Y-95704840D01*
X140939275Y-95714412D01*
X140934345Y-95715143D01*
X140885514Y-95719953D01*
X140880534Y-95720198D01*
X140862113Y-95720198D01*
X140856000Y-95720800D01*
X140356000Y-95720800D01*
X140346089Y-95719824D01*
X140336560Y-95716933D01*
X140327777Y-95712239D01*
X140320079Y-95705921D01*
X140313761Y-95698223D01*
X140309067Y-95689440D01*
X140306176Y-95679911D01*
X140305200Y-95670000D01*
X140305200Y-94170000D01*
X140306176Y-94160089D01*
X140309067Y-94150560D01*
X140313761Y-94141777D01*
X140320079Y-94134079D01*
X140327777Y-94127761D01*
X140336560Y-94123067D01*
X140346089Y-94120176D01*
X140356000Y-94119200D01*
X140856000Y-94119200D01*
X140862113Y-94119802D01*
G37*
G36*
X140065911Y-100470176D02*
G01*
X140075440Y-100473067D01*
X140084223Y-100477761D01*
X140091921Y-100484079D01*
X140098239Y-100491777D01*
X140102933Y-100500560D01*
X140105824Y-100510089D01*
X140106800Y-100520000D01*
X140106800Y-102020000D01*
X140105824Y-102029911D01*
X140102933Y-102039440D01*
X140098239Y-102048223D01*
X140091921Y-102055921D01*
X140084223Y-102062239D01*
X140075440Y-102066933D01*
X140065911Y-102069824D01*
X140056000Y-102070800D01*
X139556000Y-102070800D01*
X139549887Y-102070198D01*
X139531466Y-102070198D01*
X139526486Y-102069953D01*
X139477655Y-102065143D01*
X139472725Y-102064412D01*
X139424600Y-102054840D01*
X139419763Y-102053628D01*
X139372808Y-102039384D01*
X139368115Y-102037705D01*
X139322782Y-102018928D01*
X139318274Y-102016796D01*
X139275001Y-101993665D01*
X139270727Y-101991103D01*
X139229928Y-101963843D01*
X139225923Y-101960873D01*
X139187994Y-101929745D01*
X139184300Y-101926397D01*
X139149603Y-101891700D01*
X139146255Y-101888006D01*
X139115127Y-101850077D01*
X139112157Y-101846072D01*
X139084897Y-101805273D01*
X139082335Y-101800999D01*
X139059204Y-101757726D01*
X139057072Y-101753218D01*
X139038295Y-101707885D01*
X139036616Y-101703192D01*
X139022372Y-101656237D01*
X139021160Y-101651400D01*
X139011588Y-101603275D01*
X139010857Y-101598345D01*
X139006047Y-101549514D01*
X139005802Y-101544534D01*
X139005802Y-101526113D01*
X139005200Y-101520000D01*
X139005200Y-101020000D01*
X139005802Y-101013887D01*
X139005802Y-100995466D01*
X139006047Y-100990486D01*
X139010857Y-100941655D01*
X139011588Y-100936725D01*
X139021160Y-100888600D01*
X139022372Y-100883763D01*
X139036616Y-100836808D01*
X139038295Y-100832115D01*
X139057072Y-100786782D01*
X139059204Y-100782274D01*
X139082335Y-100739001D01*
X139084897Y-100734727D01*
X139112157Y-100693928D01*
X139115127Y-100689923D01*
X139146255Y-100651994D01*
X139149603Y-100648300D01*
X139184300Y-100613603D01*
X139187994Y-100610255D01*
X139225923Y-100579127D01*
X139229928Y-100576157D01*
X139270727Y-100548897D01*
X139275001Y-100546335D01*
X139318274Y-100523204D01*
X139322782Y-100521072D01*
X139368115Y-100502295D01*
X139372808Y-100500616D01*
X139419763Y-100486372D01*
X139424600Y-100485160D01*
X139472725Y-100475588D01*
X139477655Y-100474857D01*
X139526486Y-100470047D01*
X139531466Y-100469802D01*
X139549887Y-100469802D01*
X139556000Y-100469200D01*
X140056000Y-100469200D01*
X140065911Y-100470176D01*
G37*
G36*
X140862113Y-100469802D02*
G01*
X140880534Y-100469802D01*
X140885514Y-100470047D01*
X140934345Y-100474857D01*
X140939275Y-100475588D01*
X140987400Y-100485160D01*
X140992237Y-100486372D01*
X141039192Y-100500616D01*
X141043885Y-100502295D01*
X141089218Y-100521072D01*
X141093726Y-100523204D01*
X141136999Y-100546335D01*
X141141273Y-100548897D01*
X141182072Y-100576157D01*
X141186077Y-100579127D01*
X141224006Y-100610255D01*
X141227700Y-100613603D01*
X141262397Y-100648300D01*
X141265745Y-100651994D01*
X141296873Y-100689923D01*
X141299843Y-100693928D01*
X141327103Y-100734727D01*
X141329665Y-100739001D01*
X141352796Y-100782274D01*
X141354928Y-100786782D01*
X141373705Y-100832115D01*
X141375384Y-100836808D01*
X141389628Y-100883763D01*
X141390840Y-100888600D01*
X141400412Y-100936725D01*
X141401143Y-100941655D01*
X141405953Y-100990486D01*
X141406198Y-100995466D01*
X141406198Y-101013887D01*
X141406800Y-101020000D01*
X141406800Y-101520000D01*
X141406198Y-101526113D01*
X141406198Y-101544534D01*
X141405953Y-101549514D01*
X141401143Y-101598345D01*
X141400412Y-101603275D01*
X141390840Y-101651400D01*
X141389628Y-101656237D01*
X141375384Y-101703192D01*
X141373705Y-101707885D01*
X141354928Y-101753218D01*
X141352796Y-101757726D01*
X141329665Y-101800999D01*
X141327103Y-101805273D01*
X141299843Y-101846072D01*
X141296873Y-101850077D01*
X141265745Y-101888006D01*
X141262397Y-101891700D01*
X141227700Y-101926397D01*
X141224006Y-101929745D01*
X141186077Y-101960873D01*
X141182072Y-101963843D01*
X141141273Y-101991103D01*
X141136999Y-101993665D01*
X141093726Y-102016796D01*
X141089218Y-102018928D01*
X141043885Y-102037705D01*
X141039192Y-102039384D01*
X140992237Y-102053628D01*
X140987400Y-102054840D01*
X140939275Y-102064412D01*
X140934345Y-102065143D01*
X140885514Y-102069953D01*
X140880534Y-102070198D01*
X140862113Y-102070198D01*
X140856000Y-102070800D01*
X140356000Y-102070800D01*
X140346089Y-102069824D01*
X140336560Y-102066933D01*
X140327777Y-102062239D01*
X140320079Y-102055921D01*
X140313761Y-102048223D01*
X140309067Y-102039440D01*
X140306176Y-102029911D01*
X140305200Y-102020000D01*
X140305200Y-100520000D01*
X140306176Y-100510089D01*
X140309067Y-100500560D01*
X140313761Y-100491777D01*
X140320079Y-100484079D01*
X140327777Y-100477761D01*
X140336560Y-100473067D01*
X140346089Y-100470176D01*
X140356000Y-100469200D01*
X140856000Y-100469200D01*
X140862113Y-100469802D01*
G37*
G36*
X153338113Y-106819802D02*
G01*
X153356534Y-106819802D01*
X153361514Y-106820047D01*
X153410345Y-106824857D01*
X153415275Y-106825588D01*
X153463400Y-106835160D01*
X153468237Y-106836372D01*
X153515192Y-106850616D01*
X153519885Y-106852295D01*
X153565218Y-106871072D01*
X153569726Y-106873204D01*
X153612999Y-106896335D01*
X153617273Y-106898897D01*
X153658072Y-106926157D01*
X153662077Y-106929127D01*
X153700006Y-106960255D01*
X153703700Y-106963603D01*
X153738397Y-106998300D01*
X153741745Y-107001994D01*
X153772873Y-107039923D01*
X153775843Y-107043928D01*
X153803103Y-107084727D01*
X153805665Y-107089001D01*
X153828796Y-107132274D01*
X153830928Y-107136782D01*
X153849705Y-107182115D01*
X153851384Y-107186808D01*
X153865628Y-107233763D01*
X153866840Y-107238600D01*
X153876412Y-107286725D01*
X153877143Y-107291655D01*
X153881953Y-107340486D01*
X153882198Y-107345466D01*
X153882198Y-107363887D01*
X153882800Y-107370000D01*
X153882800Y-107870000D01*
X153882198Y-107876113D01*
X153882198Y-107894534D01*
X153881953Y-107899514D01*
X153877143Y-107948345D01*
X153876412Y-107953275D01*
X153866840Y-108001400D01*
X153865628Y-108006237D01*
X153851384Y-108053192D01*
X153849705Y-108057885D01*
X153830928Y-108103218D01*
X153828796Y-108107726D01*
X153805665Y-108150999D01*
X153803103Y-108155273D01*
X153775843Y-108196072D01*
X153772873Y-108200077D01*
X153741745Y-108238006D01*
X153738397Y-108241700D01*
X153703700Y-108276397D01*
X153700006Y-108279745D01*
X153662077Y-108310873D01*
X153658072Y-108313843D01*
X153617273Y-108341103D01*
X153612999Y-108343665D01*
X153569726Y-108366796D01*
X153565218Y-108368928D01*
X153519885Y-108387705D01*
X153515192Y-108389384D01*
X153468237Y-108403628D01*
X153463400Y-108404840D01*
X153415275Y-108414412D01*
X153410345Y-108415143D01*
X153361514Y-108419953D01*
X153356534Y-108420198D01*
X153338113Y-108420198D01*
X153332000Y-108420800D01*
X152832000Y-108420800D01*
X152822089Y-108419824D01*
X152812560Y-108416933D01*
X152803777Y-108412239D01*
X152796079Y-108405921D01*
X152789761Y-108398223D01*
X152785067Y-108389440D01*
X152782176Y-108379911D01*
X152781200Y-108370000D01*
X152781200Y-106870000D01*
X152782176Y-106860089D01*
X152785067Y-106850560D01*
X152789761Y-106841777D01*
X152796079Y-106834079D01*
X152803777Y-106827761D01*
X152812560Y-106823067D01*
X152822089Y-106820176D01*
X152832000Y-106819200D01*
X153332000Y-106819200D01*
X153338113Y-106819802D01*
G37*
G36*
X152541911Y-106820176D02*
G01*
X152551440Y-106823067D01*
X152560223Y-106827761D01*
X152567921Y-106834079D01*
X152574239Y-106841777D01*
X152578933Y-106850560D01*
X152581824Y-106860089D01*
X152582800Y-106870000D01*
X152582800Y-108370000D01*
X152581824Y-108379911D01*
X152578933Y-108389440D01*
X152574239Y-108398223D01*
X152567921Y-108405921D01*
X152560223Y-108412239D01*
X152551440Y-108416933D01*
X152541911Y-108419824D01*
X152532000Y-108420800D01*
X152032000Y-108420800D01*
X152025887Y-108420198D01*
X152007466Y-108420198D01*
X152002486Y-108419953D01*
X151953655Y-108415143D01*
X151948725Y-108414412D01*
X151900600Y-108404840D01*
X151895763Y-108403628D01*
X151848808Y-108389384D01*
X151844115Y-108387705D01*
X151798782Y-108368928D01*
X151794274Y-108366796D01*
X151751001Y-108343665D01*
X151746727Y-108341103D01*
X151705928Y-108313843D01*
X151701923Y-108310873D01*
X151663994Y-108279745D01*
X151660300Y-108276397D01*
X151625603Y-108241700D01*
X151622255Y-108238006D01*
X151591127Y-108200077D01*
X151588157Y-108196072D01*
X151560897Y-108155273D01*
X151558335Y-108150999D01*
X151535204Y-108107726D01*
X151533072Y-108103218D01*
X151514295Y-108057885D01*
X151512616Y-108053192D01*
X151498372Y-108006237D01*
X151497160Y-108001400D01*
X151487588Y-107953275D01*
X151486857Y-107948345D01*
X151482047Y-107899514D01*
X151481802Y-107894534D01*
X151481802Y-107876113D01*
X151481200Y-107870000D01*
X151481200Y-107370000D01*
X151481802Y-107363887D01*
X151481802Y-107345466D01*
X151482047Y-107340486D01*
X151486857Y-107291655D01*
X151487588Y-107286725D01*
X151497160Y-107238600D01*
X151498372Y-107233763D01*
X151512616Y-107186808D01*
X151514295Y-107182115D01*
X151533072Y-107136782D01*
X151535204Y-107132274D01*
X151558335Y-107089001D01*
X151560897Y-107084727D01*
X151588157Y-107043928D01*
X151591127Y-107039923D01*
X151622255Y-107001994D01*
X151625603Y-106998300D01*
X151660300Y-106963603D01*
X151663994Y-106960255D01*
X151701923Y-106929127D01*
X151705928Y-106926157D01*
X151746727Y-106898897D01*
X151751001Y-106896335D01*
X151794274Y-106873204D01*
X151798782Y-106871072D01*
X151844115Y-106852295D01*
X151848808Y-106850616D01*
X151895763Y-106836372D01*
X151900600Y-106835160D01*
X151948725Y-106825588D01*
X151953655Y-106824857D01*
X152002486Y-106820047D01*
X152007466Y-106819802D01*
X152025887Y-106819802D01*
X152032000Y-106819200D01*
X152532000Y-106819200D01*
X152541911Y-106820176D01*
G37*
G36*
X152541911Y-94120176D02*
G01*
X152551440Y-94123067D01*
X152560223Y-94127761D01*
X152567921Y-94134079D01*
X152574239Y-94141777D01*
X152578933Y-94150560D01*
X152581824Y-94160089D01*
X152582800Y-94170000D01*
X152582800Y-95670000D01*
X152581824Y-95679911D01*
X152578933Y-95689440D01*
X152574239Y-95698223D01*
X152567921Y-95705921D01*
X152560223Y-95712239D01*
X152551440Y-95716933D01*
X152541911Y-95719824D01*
X152532000Y-95720800D01*
X152032000Y-95720800D01*
X152025887Y-95720198D01*
X152007466Y-95720198D01*
X152002486Y-95719953D01*
X151953655Y-95715143D01*
X151948725Y-95714412D01*
X151900600Y-95704840D01*
X151895763Y-95703628D01*
X151848808Y-95689384D01*
X151844115Y-95687705D01*
X151798782Y-95668928D01*
X151794274Y-95666796D01*
X151751001Y-95643665D01*
X151746727Y-95641103D01*
X151705928Y-95613843D01*
X151701923Y-95610873D01*
X151663994Y-95579745D01*
X151660300Y-95576397D01*
X151625603Y-95541700D01*
X151622255Y-95538006D01*
X151591127Y-95500077D01*
X151588157Y-95496072D01*
X151560897Y-95455273D01*
X151558335Y-95450999D01*
X151535204Y-95407726D01*
X151533072Y-95403218D01*
X151514295Y-95357885D01*
X151512616Y-95353192D01*
X151498372Y-95306237D01*
X151497160Y-95301400D01*
X151487588Y-95253275D01*
X151486857Y-95248345D01*
X151482047Y-95199514D01*
X151481802Y-95194534D01*
X151481802Y-95176113D01*
X151481200Y-95170000D01*
X151481200Y-94670000D01*
X151481802Y-94663887D01*
X151481802Y-94645466D01*
X151482047Y-94640486D01*
X151486857Y-94591655D01*
X151487588Y-94586725D01*
X151497160Y-94538600D01*
X151498372Y-94533763D01*
X151512616Y-94486808D01*
X151514295Y-94482115D01*
X151533072Y-94436782D01*
X151535204Y-94432274D01*
X151558335Y-94389001D01*
X151560897Y-94384727D01*
X151588157Y-94343928D01*
X151591127Y-94339923D01*
X151622255Y-94301994D01*
X151625603Y-94298300D01*
X151660300Y-94263603D01*
X151663994Y-94260255D01*
X151701923Y-94229127D01*
X151705928Y-94226157D01*
X151746727Y-94198897D01*
X151751001Y-94196335D01*
X151794274Y-94173204D01*
X151798782Y-94171072D01*
X151844115Y-94152295D01*
X151848808Y-94150616D01*
X151895763Y-94136372D01*
X151900600Y-94135160D01*
X151948725Y-94125588D01*
X151953655Y-94124857D01*
X152002486Y-94120047D01*
X152007466Y-94119802D01*
X152025887Y-94119802D01*
X152032000Y-94119200D01*
X152532000Y-94119200D01*
X152541911Y-94120176D01*
G37*
G36*
X153338113Y-94119802D02*
G01*
X153356534Y-94119802D01*
X153361514Y-94120047D01*
X153410345Y-94124857D01*
X153415275Y-94125588D01*
X153463400Y-94135160D01*
X153468237Y-94136372D01*
X153515192Y-94150616D01*
X153519885Y-94152295D01*
X153565218Y-94171072D01*
X153569726Y-94173204D01*
X153612999Y-94196335D01*
X153617273Y-94198897D01*
X153658072Y-94226157D01*
X153662077Y-94229127D01*
X153700006Y-94260255D01*
X153703700Y-94263603D01*
X153738397Y-94298300D01*
X153741745Y-94301994D01*
X153772873Y-94339923D01*
X153775843Y-94343928D01*
X153803103Y-94384727D01*
X153805665Y-94389001D01*
X153828796Y-94432274D01*
X153830928Y-94436782D01*
X153849705Y-94482115D01*
X153851384Y-94486808D01*
X153865628Y-94533763D01*
X153866840Y-94538600D01*
X153876412Y-94586725D01*
X153877143Y-94591655D01*
X153881953Y-94640486D01*
X153882198Y-94645466D01*
X153882198Y-94663887D01*
X153882800Y-94670000D01*
X153882800Y-95170000D01*
X153882198Y-95176113D01*
X153882198Y-95194534D01*
X153881953Y-95199514D01*
X153877143Y-95248345D01*
X153876412Y-95253275D01*
X153866840Y-95301400D01*
X153865628Y-95306237D01*
X153851384Y-95353192D01*
X153849705Y-95357885D01*
X153830928Y-95403218D01*
X153828796Y-95407726D01*
X153805665Y-95450999D01*
X153803103Y-95455273D01*
X153775843Y-95496072D01*
X153772873Y-95500077D01*
X153741745Y-95538006D01*
X153738397Y-95541700D01*
X153703700Y-95576397D01*
X153700006Y-95579745D01*
X153662077Y-95610873D01*
X153658072Y-95613843D01*
X153617273Y-95641103D01*
X153612999Y-95643665D01*
X153569726Y-95666796D01*
X153565218Y-95668928D01*
X153519885Y-95687705D01*
X153515192Y-95689384D01*
X153468237Y-95703628D01*
X153463400Y-95704840D01*
X153415275Y-95714412D01*
X153410345Y-95715143D01*
X153361514Y-95719953D01*
X153356534Y-95720198D01*
X153338113Y-95720198D01*
X153332000Y-95720800D01*
X152832000Y-95720800D01*
X152822089Y-95719824D01*
X152812560Y-95716933D01*
X152803777Y-95712239D01*
X152796079Y-95705921D01*
X152789761Y-95698223D01*
X152785067Y-95689440D01*
X152782176Y-95679911D01*
X152781200Y-95670000D01*
X152781200Y-94170000D01*
X152782176Y-94160089D01*
X152785067Y-94150560D01*
X152789761Y-94141777D01*
X152796079Y-94134079D01*
X152803777Y-94127761D01*
X152812560Y-94123067D01*
X152822089Y-94120176D01*
X152832000Y-94119200D01*
X153332000Y-94119200D01*
X153338113Y-94119802D01*
G37*
G36*
X147100113Y-100469802D02*
G01*
X147118534Y-100469802D01*
X147123514Y-100470047D01*
X147172345Y-100474857D01*
X147177275Y-100475588D01*
X147225400Y-100485160D01*
X147230237Y-100486372D01*
X147277192Y-100500616D01*
X147281885Y-100502295D01*
X147327218Y-100521072D01*
X147331726Y-100523204D01*
X147374999Y-100546335D01*
X147379273Y-100548897D01*
X147420072Y-100576157D01*
X147424077Y-100579127D01*
X147462006Y-100610255D01*
X147465700Y-100613603D01*
X147500397Y-100648300D01*
X147503745Y-100651994D01*
X147534873Y-100689923D01*
X147537843Y-100693928D01*
X147565103Y-100734727D01*
X147567665Y-100739001D01*
X147590796Y-100782274D01*
X147592928Y-100786782D01*
X147611705Y-100832115D01*
X147613384Y-100836808D01*
X147627628Y-100883763D01*
X147628840Y-100888600D01*
X147638412Y-100936725D01*
X147639143Y-100941655D01*
X147643953Y-100990486D01*
X147644198Y-100995466D01*
X147644198Y-101013887D01*
X147644800Y-101020000D01*
X147644800Y-101520000D01*
X147644198Y-101526113D01*
X147644198Y-101544534D01*
X147643953Y-101549514D01*
X147639143Y-101598345D01*
X147638412Y-101603275D01*
X147628840Y-101651400D01*
X147627628Y-101656237D01*
X147613384Y-101703192D01*
X147611705Y-101707885D01*
X147592928Y-101753218D01*
X147590796Y-101757726D01*
X147567665Y-101800999D01*
X147565103Y-101805273D01*
X147537843Y-101846072D01*
X147534873Y-101850077D01*
X147503745Y-101888006D01*
X147500397Y-101891700D01*
X147465700Y-101926397D01*
X147462006Y-101929745D01*
X147424077Y-101960873D01*
X147420072Y-101963843D01*
X147379273Y-101991103D01*
X147374999Y-101993665D01*
X147331726Y-102016796D01*
X147327218Y-102018928D01*
X147281885Y-102037705D01*
X147277192Y-102039384D01*
X147230237Y-102053628D01*
X147225400Y-102054840D01*
X147177275Y-102064412D01*
X147172345Y-102065143D01*
X147123514Y-102069953D01*
X147118534Y-102070198D01*
X147100113Y-102070198D01*
X147094000Y-102070800D01*
X146594000Y-102070800D01*
X146584089Y-102069824D01*
X146574560Y-102066933D01*
X146565777Y-102062239D01*
X146558079Y-102055921D01*
X146551761Y-102048223D01*
X146547067Y-102039440D01*
X146544176Y-102029911D01*
X146543200Y-102020000D01*
X146543200Y-100520000D01*
X146544176Y-100510089D01*
X146547067Y-100500560D01*
X146551761Y-100491777D01*
X146558079Y-100484079D01*
X146565777Y-100477761D01*
X146574560Y-100473067D01*
X146584089Y-100470176D01*
X146594000Y-100469200D01*
X147094000Y-100469200D01*
X147100113Y-100469802D01*
G37*
G36*
X146303911Y-100470176D02*
G01*
X146313440Y-100473067D01*
X146322223Y-100477761D01*
X146329921Y-100484079D01*
X146336239Y-100491777D01*
X146340933Y-100500560D01*
X146343824Y-100510089D01*
X146344800Y-100520000D01*
X146344800Y-102020000D01*
X146343824Y-102029911D01*
X146340933Y-102039440D01*
X146336239Y-102048223D01*
X146329921Y-102055921D01*
X146322223Y-102062239D01*
X146313440Y-102066933D01*
X146303911Y-102069824D01*
X146294000Y-102070800D01*
X145794000Y-102070800D01*
X145787887Y-102070198D01*
X145769466Y-102070198D01*
X145764486Y-102069953D01*
X145715655Y-102065143D01*
X145710725Y-102064412D01*
X145662600Y-102054840D01*
X145657763Y-102053628D01*
X145610808Y-102039384D01*
X145606115Y-102037705D01*
X145560782Y-102018928D01*
X145556274Y-102016796D01*
X145513001Y-101993665D01*
X145508727Y-101991103D01*
X145467928Y-101963843D01*
X145463923Y-101960873D01*
X145425994Y-101929745D01*
X145422300Y-101926397D01*
X145387603Y-101891700D01*
X145384255Y-101888006D01*
X145353127Y-101850077D01*
X145350157Y-101846072D01*
X145322897Y-101805273D01*
X145320335Y-101800999D01*
X145297204Y-101757726D01*
X145295072Y-101753218D01*
X145276295Y-101707885D01*
X145274616Y-101703192D01*
X145260372Y-101656237D01*
X145259160Y-101651400D01*
X145249588Y-101603275D01*
X145248857Y-101598345D01*
X145244047Y-101549514D01*
X145243802Y-101544534D01*
X145243802Y-101526113D01*
X145243200Y-101520000D01*
X145243200Y-101020000D01*
X145243802Y-101013887D01*
X145243802Y-100995466D01*
X145244047Y-100990486D01*
X145248857Y-100941655D01*
X145249588Y-100936725D01*
X145259160Y-100888600D01*
X145260372Y-100883763D01*
X145274616Y-100836808D01*
X145276295Y-100832115D01*
X145295072Y-100786782D01*
X145297204Y-100782274D01*
X145320335Y-100739001D01*
X145322897Y-100734727D01*
X145350157Y-100693928D01*
X145353127Y-100689923D01*
X145384255Y-100651994D01*
X145387603Y-100648300D01*
X145422300Y-100613603D01*
X145425994Y-100610255D01*
X145463923Y-100579127D01*
X145467928Y-100576157D01*
X145508727Y-100548897D01*
X145513001Y-100546335D01*
X145556274Y-100523204D01*
X145560782Y-100521072D01*
X145606115Y-100502295D01*
X145610808Y-100500616D01*
X145657763Y-100486372D01*
X145662600Y-100485160D01*
X145710725Y-100475588D01*
X145715655Y-100474857D01*
X145764486Y-100470047D01*
X145769466Y-100469802D01*
X145787887Y-100469802D01*
X145794000Y-100469200D01*
X146294000Y-100469200D01*
X146303911Y-100470176D01*
G37*
G36*
X147100113Y-106819802D02*
G01*
X147118534Y-106819802D01*
X147123514Y-106820047D01*
X147172345Y-106824857D01*
X147177275Y-106825588D01*
X147225400Y-106835160D01*
X147230237Y-106836372D01*
X147277192Y-106850616D01*
X147281885Y-106852295D01*
X147327218Y-106871072D01*
X147331726Y-106873204D01*
X147374999Y-106896335D01*
X147379273Y-106898897D01*
X147420072Y-106926157D01*
X147424077Y-106929127D01*
X147462006Y-106960255D01*
X147465700Y-106963603D01*
X147500397Y-106998300D01*
X147503745Y-107001994D01*
X147534873Y-107039923D01*
X147537843Y-107043928D01*
X147565103Y-107084727D01*
X147567665Y-107089001D01*
X147590796Y-107132274D01*
X147592928Y-107136782D01*
X147611705Y-107182115D01*
X147613384Y-107186808D01*
X147627628Y-107233763D01*
X147628840Y-107238600D01*
X147638412Y-107286725D01*
X147639143Y-107291655D01*
X147643953Y-107340486D01*
X147644198Y-107345466D01*
X147644198Y-107363887D01*
X147644800Y-107370000D01*
X147644800Y-107870000D01*
X147644198Y-107876113D01*
X147644198Y-107894534D01*
X147643953Y-107899514D01*
X147639143Y-107948345D01*
X147638412Y-107953275D01*
X147628840Y-108001400D01*
X147627628Y-108006237D01*
X147613384Y-108053192D01*
X147611705Y-108057885D01*
X147592928Y-108103218D01*
X147590796Y-108107726D01*
X147567665Y-108150999D01*
X147565103Y-108155273D01*
X147537843Y-108196072D01*
X147534873Y-108200077D01*
X147503745Y-108238006D01*
X147500397Y-108241700D01*
X147465700Y-108276397D01*
X147462006Y-108279745D01*
X147424077Y-108310873D01*
X147420072Y-108313843D01*
X147379273Y-108341103D01*
X147374999Y-108343665D01*
X147331726Y-108366796D01*
X147327218Y-108368928D01*
X147281885Y-108387705D01*
X147277192Y-108389384D01*
X147230237Y-108403628D01*
X147225400Y-108404840D01*
X147177275Y-108414412D01*
X147172345Y-108415143D01*
X147123514Y-108419953D01*
X147118534Y-108420198D01*
X147100113Y-108420198D01*
X147094000Y-108420800D01*
X146594000Y-108420800D01*
X146584089Y-108419824D01*
X146574560Y-108416933D01*
X146565777Y-108412239D01*
X146558079Y-108405921D01*
X146551761Y-108398223D01*
X146547067Y-108389440D01*
X146544176Y-108379911D01*
X146543200Y-108370000D01*
X146543200Y-106870000D01*
X146544176Y-106860089D01*
X146547067Y-106850560D01*
X146551761Y-106841777D01*
X146558079Y-106834079D01*
X146565777Y-106827761D01*
X146574560Y-106823067D01*
X146584089Y-106820176D01*
X146594000Y-106819200D01*
X147094000Y-106819200D01*
X147100113Y-106819802D01*
G37*
G36*
X146303911Y-106820176D02*
G01*
X146313440Y-106823067D01*
X146322223Y-106827761D01*
X146329921Y-106834079D01*
X146336239Y-106841777D01*
X146340933Y-106850560D01*
X146343824Y-106860089D01*
X146344800Y-106870000D01*
X146344800Y-108370000D01*
X146343824Y-108379911D01*
X146340933Y-108389440D01*
X146336239Y-108398223D01*
X146329921Y-108405921D01*
X146322223Y-108412239D01*
X146313440Y-108416933D01*
X146303911Y-108419824D01*
X146294000Y-108420800D01*
X145794000Y-108420800D01*
X145787887Y-108420198D01*
X145769466Y-108420198D01*
X145764486Y-108419953D01*
X145715655Y-108415143D01*
X145710725Y-108414412D01*
X145662600Y-108404840D01*
X145657763Y-108403628D01*
X145610808Y-108389384D01*
X145606115Y-108387705D01*
X145560782Y-108368928D01*
X145556274Y-108366796D01*
X145513001Y-108343665D01*
X145508727Y-108341103D01*
X145467928Y-108313843D01*
X145463923Y-108310873D01*
X145425994Y-108279745D01*
X145422300Y-108276397D01*
X145387603Y-108241700D01*
X145384255Y-108238006D01*
X145353127Y-108200077D01*
X145350157Y-108196072D01*
X145322897Y-108155273D01*
X145320335Y-108150999D01*
X145297204Y-108107726D01*
X145295072Y-108103218D01*
X145276295Y-108057885D01*
X145274616Y-108053192D01*
X145260372Y-108006237D01*
X145259160Y-108001400D01*
X145249588Y-107953275D01*
X145248857Y-107948345D01*
X145244047Y-107899514D01*
X145243802Y-107894534D01*
X145243802Y-107876113D01*
X145243200Y-107870000D01*
X145243200Y-107370000D01*
X145243802Y-107363887D01*
X145243802Y-107345466D01*
X145244047Y-107340486D01*
X145248857Y-107291655D01*
X145249588Y-107286725D01*
X145259160Y-107238600D01*
X145260372Y-107233763D01*
X145274616Y-107186808D01*
X145276295Y-107182115D01*
X145295072Y-107136782D01*
X145297204Y-107132274D01*
X145320335Y-107089001D01*
X145322897Y-107084727D01*
X145350157Y-107043928D01*
X145353127Y-107039923D01*
X145384255Y-107001994D01*
X145387603Y-106998300D01*
X145422300Y-106963603D01*
X145425994Y-106960255D01*
X145463923Y-106929127D01*
X145467928Y-106926157D01*
X145508727Y-106898897D01*
X145513001Y-106896335D01*
X145556274Y-106873204D01*
X145560782Y-106871072D01*
X145606115Y-106852295D01*
X145610808Y-106850616D01*
X145657763Y-106836372D01*
X145662600Y-106835160D01*
X145710725Y-106825588D01*
X145715655Y-106824857D01*
X145764486Y-106820047D01*
X145769466Y-106819802D01*
X145787887Y-106819802D01*
X145794000Y-106819200D01*
X146294000Y-106819200D01*
X146303911Y-106820176D01*
G37*
D11*
X172620000Y-80700000D03*
X170080000Y-80700000D03*
X167540000Y-80700000D03*
G36*
G01*
X165850000Y-81600800D02*
X164150000Y-81600800D01*
G75*
G02*
X164099200Y-81550000I0J50800D01*
G01*
X164099200Y-79850000D01*
G75*
G02*
X164150000Y-79799200I50800J0D01*
G01*
X165850000Y-79799200D01*
G75*
G02*
X165900800Y-79850000I0J-50800D01*
G01*
X165900800Y-81550000D01*
G75*
G02*
X165850000Y-81600800I-50800J0D01*
G01*
G37*
G36*
G01*
X164136000Y-83559200D02*
X165836000Y-83559200D01*
G75*
G02*
X165886800Y-83610000I0J-50800D01*
G01*
X165886800Y-85310000D01*
G75*
G02*
X165836000Y-85360800I-50800J0D01*
G01*
X164136000Y-85360800D01*
G75*
G02*
X164085200Y-85310000I0J50800D01*
G01*
X164085200Y-83610000D01*
G75*
G02*
X164136000Y-83559200I50800J0D01*
G01*
G37*
X162446000Y-84460000D03*
X159906000Y-84460000D03*
X157366000Y-84460000D03*
X154826000Y-84460000D03*
X152286000Y-84460000D03*
X149746000Y-84460000D03*
X147206000Y-84460000D03*
X144666000Y-84460000D03*
X142126000Y-84460000D03*
X139586000Y-84460000D03*
X137046000Y-84460000D03*
X134506000Y-84460000D03*
X131966000Y-84460000D03*
X164986000Y-114960600D03*
X162446000Y-114960600D03*
X159906000Y-114960600D03*
X157366000Y-114960600D03*
X154826000Y-114960600D03*
X152286000Y-114960600D03*
X149746000Y-114960600D03*
X147206000Y-114960600D03*
X144666000Y-114960600D03*
X142126000Y-114960600D03*
X139586000Y-114960600D03*
X137046000Y-114960600D03*
X134506000Y-114960600D03*
G36*
G01*
X132816000Y-115861400D02*
X131116000Y-115861400D01*
G75*
G02*
X131065200Y-115810600I0J50800D01*
G01*
X131065200Y-114110600D01*
G75*
G02*
X131116000Y-114059800I50800J0D01*
G01*
X132816000Y-114059800D01*
G75*
G02*
X132866800Y-114110600I0J-50800D01*
G01*
X132866800Y-115810600D01*
G75*
G02*
X132816000Y-115861400I-50800J0D01*
G01*
G37*
G36*
G01*
X134100000Y-79599200D02*
X135800000Y-79599200D01*
G75*
G02*
X135850800Y-79650000I0J-50800D01*
G01*
X135850800Y-81350000D01*
G75*
G02*
X135800000Y-81400800I-50800J0D01*
G01*
X134100000Y-81400800D01*
G75*
G02*
X134049200Y-81350000I0J50800D01*
G01*
X134049200Y-79650000D01*
G75*
G02*
X134100000Y-79599200I50800J0D01*
G01*
G37*
X132410000Y-80500000D03*
X129870000Y-80500000D03*
X127330000Y-80500000D03*
G36*
G01*
X122449200Y-89260000D02*
X122449200Y-87560000D01*
G75*
G02*
X122500000Y-87509200I50800J0D01*
G01*
X124200000Y-87509200D01*
G75*
G02*
X124250800Y-87560000I0J-50800D01*
G01*
X124250800Y-89260000D01*
G75*
G02*
X124200000Y-89310800I-50800J0D01*
G01*
X122500000Y-89310800D01*
G75*
G02*
X122449200Y-89260000I0J50800D01*
G01*
G37*
X123350000Y-90950000D03*
X123350000Y-93490000D03*
X123350000Y-96030000D03*
X123350000Y-98570000D03*
X123350000Y-101110000D03*
G36*
G01*
X126399200Y-77550000D02*
X126399200Y-75850000D01*
G75*
G02*
X126450000Y-75799200I50800J0D01*
G01*
X128150000Y-75799200D01*
G75*
G02*
X128200800Y-75850000I0J-50800D01*
G01*
X128200800Y-77550000D01*
G75*
G02*
X128150000Y-77600800I-50800J0D01*
G01*
X126450000Y-77600800D01*
G75*
G02*
X126399200Y-77550000I0J50800D01*
G01*
G37*
G36*
G01*
X175599200Y-115850000D02*
X175599200Y-114150000D01*
G75*
G02*
X175650000Y-114099200I50800J0D01*
G01*
X177350000Y-114099200D01*
G75*
G02*
X177400800Y-114150000I0J-50800D01*
G01*
X177400800Y-115850000D01*
G75*
G02*
X177350000Y-115900800I-50800J0D01*
G01*
X175650000Y-115900800D01*
G75*
G02*
X175599200Y-115850000I0J50800D01*
G01*
G37*
G36*
G01*
X148845200Y-132600000D02*
X148845200Y-130900000D01*
G75*
G02*
X148896000Y-130849200I50800J0D01*
G01*
X150596000Y-130849200D01*
G75*
G02*
X150646800Y-130900000I0J-50800D01*
G01*
X150646800Y-132600000D01*
G75*
G02*
X150596000Y-132650800I-50800J0D01*
G01*
X148896000Y-132650800D01*
G75*
G02*
X148845200Y-132600000I0J50800D01*
G01*
G37*
G36*
G01*
X175599200Y-85350000D02*
X175599200Y-83650000D01*
G75*
G02*
X175650000Y-83599200I50800J0D01*
G01*
X177350000Y-83599200D01*
G75*
G02*
X177400800Y-83650000I0J-50800D01*
G01*
X177400800Y-85350000D01*
G75*
G02*
X177350000Y-85400800I-50800J0D01*
G01*
X175650000Y-85400800D01*
G75*
G02*
X175599200Y-85350000I0J50800D01*
G01*
G37*
G36*
G01*
X171799200Y-77750000D02*
X171799200Y-76050000D01*
G75*
G02*
X171850000Y-75999200I50800J0D01*
G01*
X173550000Y-75999200D01*
G75*
G02*
X173600800Y-76050000I0J-50800D01*
G01*
X173600800Y-77750000D01*
G75*
G02*
X173550000Y-77800800I-50800J0D01*
G01*
X171850000Y-77800800D01*
G75*
G02*
X171799200Y-77750000I0J50800D01*
G01*
G37*
G36*
G01*
X117679400Y-101916800D02*
X117679400Y-100216800D01*
G75*
G02*
X117730200Y-100166000I50800J0D01*
G01*
X119430200Y-100166000D01*
G75*
G02*
X119481000Y-100216800I0J-50800D01*
G01*
X119481000Y-101916800D01*
G75*
G02*
X119430200Y-101967600I-50800J0D01*
G01*
X117730200Y-101967600D01*
G75*
G02*
X117679400Y-101916800I0J50800D01*
G01*
G37*
G36*
G01*
X132008800Y-122868000D02*
X132008800Y-123868000D01*
G75*
G02*
X131958000Y-123918800I-50800J0D01*
G01*
X130958000Y-123918800D01*
G75*
G02*
X130907200Y-123868000I0J50800D01*
G01*
X130907200Y-122868000D01*
G75*
G02*
X130958000Y-122817200I50800J0D01*
G01*
X131958000Y-122817200D01*
G75*
G02*
X132008800Y-122868000I0J-50800D01*
G01*
G37*
D12*
X130188000Y-123368000D03*
X131458000Y-122098000D03*
X130188000Y-122098000D03*
X131458000Y-120828000D03*
X130188000Y-120828000D03*
X131458000Y-119558000D03*
X130188000Y-119558000D03*
X131458000Y-118288000D03*
X130188000Y-118288000D03*
D10*
G36*
X130908365Y-123045110D02*
G01*
X130909200Y-123046736D01*
X130909200Y-123689264D01*
X130908200Y-123690996D01*
X130906200Y-123690996D01*
X130905210Y-123689460D01*
X130902828Y-123665273D01*
X130895828Y-123642198D01*
X130884463Y-123620934D01*
X130869168Y-123602297D01*
X130850531Y-123587002D01*
X130829267Y-123575637D01*
X130806192Y-123568637D01*
X130782201Y-123566274D01*
X130758210Y-123568637D01*
X130735135Y-123575637D01*
X130713871Y-123587002D01*
X130695234Y-123602297D01*
X130679876Y-123621012D01*
X130676606Y-123625906D01*
X130674812Y-123626791D01*
X130673149Y-123625680D01*
X130673095Y-123624030D01*
X130713159Y-123527307D01*
X130734148Y-123421789D01*
X130734148Y-123314211D01*
X130713159Y-123208693D01*
X130673095Y-123111970D01*
X130673356Y-123109987D01*
X130675204Y-123109222D01*
X130676606Y-123110094D01*
X130679876Y-123114988D01*
X130695234Y-123133703D01*
X130713871Y-123148998D01*
X130735135Y-123160363D01*
X130758210Y-123167363D01*
X130782201Y-123169726D01*
X130806192Y-123167363D01*
X130829267Y-123160363D01*
X130850531Y-123148998D01*
X130869168Y-123133703D01*
X130884463Y-123115066D01*
X130895828Y-123093802D01*
X130902828Y-123070727D01*
X130905210Y-123046540D01*
X130906375Y-123044914D01*
X130908365Y-123045110D01*
G37*
G36*
X130360385Y-122618825D02*
G01*
X130361150Y-122620673D01*
X130360110Y-122622176D01*
X130344089Y-122630738D01*
X130325452Y-122646033D01*
X130310157Y-122664670D01*
X130298791Y-122685933D01*
X130291791Y-122709008D01*
X130289428Y-122732999D01*
X130291791Y-122756990D01*
X130298791Y-122780065D01*
X130310156Y-122801329D01*
X130325451Y-122819966D01*
X130344088Y-122835261D01*
X130360109Y-122843824D01*
X130361165Y-122845523D01*
X130360222Y-122847286D01*
X130358401Y-122847436D01*
X130347307Y-122842841D01*
X130241789Y-122821852D01*
X130134211Y-122821852D01*
X130028693Y-122842841D01*
X130017598Y-122847436D01*
X130015615Y-122847175D01*
X130014850Y-122845327D01*
X130015890Y-122843824D01*
X130031911Y-122835262D01*
X130050548Y-122819967D01*
X130065843Y-122801330D01*
X130077209Y-122780067D01*
X130084209Y-122756992D01*
X130086572Y-122733001D01*
X130084209Y-122709010D01*
X130077209Y-122685935D01*
X130065844Y-122664671D01*
X130050549Y-122646034D01*
X130031912Y-122630739D01*
X130015891Y-122622176D01*
X130014835Y-122620477D01*
X130015778Y-122618714D01*
X130017599Y-122618564D01*
X130028693Y-122623159D01*
X130134211Y-122644148D01*
X130241789Y-122644148D01*
X130347307Y-122623159D01*
X130358402Y-122618564D01*
X130360385Y-122618825D01*
G37*
G36*
X131716013Y-122583356D02*
G01*
X131716778Y-122585204D01*
X131715906Y-122586606D01*
X131711012Y-122589876D01*
X131692297Y-122605234D01*
X131677002Y-122623871D01*
X131665637Y-122645135D01*
X131658637Y-122668210D01*
X131656274Y-122692201D01*
X131658637Y-122716192D01*
X131665637Y-122739267D01*
X131677002Y-122760531D01*
X131692297Y-122779168D01*
X131710934Y-122794463D01*
X131732198Y-122805828D01*
X131755273Y-122812828D01*
X131779460Y-122815210D01*
X131781086Y-122816375D01*
X131780890Y-122818365D01*
X131779264Y-122819200D01*
X131136736Y-122819200D01*
X131135004Y-122818200D01*
X131135004Y-122816200D01*
X131136540Y-122815210D01*
X131160727Y-122812828D01*
X131183802Y-122805828D01*
X131205066Y-122794463D01*
X131223703Y-122779168D01*
X131238998Y-122760531D01*
X131250363Y-122739267D01*
X131257363Y-122716192D01*
X131259726Y-122692201D01*
X131257363Y-122668210D01*
X131250363Y-122645135D01*
X131238998Y-122623871D01*
X131223703Y-122605234D01*
X131204988Y-122589876D01*
X131200094Y-122586606D01*
X131199209Y-122584812D01*
X131200320Y-122583149D01*
X131201970Y-122583095D01*
X131298693Y-122623159D01*
X131404211Y-122644148D01*
X131511789Y-122644148D01*
X131617307Y-122623159D01*
X131714030Y-122583095D01*
X131716013Y-122583356D01*
G37*
G36*
X130937287Y-121925776D02*
G01*
X130937437Y-121927597D01*
X130932841Y-121938693D01*
X130911852Y-122044211D01*
X130911852Y-122151789D01*
X130932841Y-122257307D01*
X130937436Y-122268402D01*
X130937175Y-122270385D01*
X130935327Y-122271150D01*
X130933824Y-122270110D01*
X130925262Y-122254089D01*
X130909967Y-122235452D01*
X130891330Y-122220157D01*
X130870067Y-122208791D01*
X130846992Y-122201791D01*
X130823001Y-122199428D01*
X130799010Y-122201791D01*
X130775935Y-122208791D01*
X130754671Y-122220156D01*
X130736034Y-122235451D01*
X130720739Y-122254088D01*
X130712175Y-122270111D01*
X130710476Y-122271167D01*
X130708713Y-122270224D01*
X130708563Y-122268403D01*
X130713159Y-122257307D01*
X130734148Y-122151789D01*
X130734148Y-122044211D01*
X130713159Y-121938693D01*
X130708564Y-121927598D01*
X130708825Y-121925615D01*
X130710673Y-121924850D01*
X130712176Y-121925890D01*
X130720738Y-121941911D01*
X130736033Y-121960548D01*
X130754670Y-121975843D01*
X130775933Y-121987209D01*
X130799008Y-121994209D01*
X130822999Y-121996572D01*
X130846990Y-121994209D01*
X130870065Y-121987209D01*
X130891329Y-121975844D01*
X130909966Y-121960549D01*
X130925261Y-121941912D01*
X130933825Y-121925889D01*
X130935524Y-121924833D01*
X130937287Y-121925776D01*
G37*
G36*
X130360385Y-121348825D02*
G01*
X130361150Y-121350673D01*
X130360110Y-121352176D01*
X130344089Y-121360738D01*
X130325452Y-121376033D01*
X130310157Y-121394670D01*
X130298791Y-121415933D01*
X130291791Y-121439008D01*
X130289428Y-121462999D01*
X130291791Y-121486990D01*
X130298791Y-121510065D01*
X130310156Y-121531329D01*
X130325451Y-121549966D01*
X130344088Y-121565261D01*
X130360109Y-121573824D01*
X130361165Y-121575523D01*
X130360222Y-121577286D01*
X130358401Y-121577436D01*
X130347307Y-121572841D01*
X130241789Y-121551852D01*
X130134211Y-121551852D01*
X130028693Y-121572841D01*
X130017598Y-121577436D01*
X130015615Y-121577175D01*
X130014850Y-121575327D01*
X130015890Y-121573824D01*
X130031911Y-121565262D01*
X130050548Y-121549967D01*
X130065843Y-121531330D01*
X130077209Y-121510067D01*
X130084209Y-121486992D01*
X130086572Y-121463001D01*
X130084209Y-121439010D01*
X130077209Y-121415935D01*
X130065844Y-121394671D01*
X130050549Y-121376034D01*
X130031912Y-121360739D01*
X130015891Y-121352176D01*
X130014835Y-121350477D01*
X130015778Y-121348714D01*
X130017599Y-121348564D01*
X130028693Y-121353159D01*
X130134211Y-121374148D01*
X130241789Y-121374148D01*
X130347307Y-121353159D01*
X130358402Y-121348564D01*
X130360385Y-121348825D01*
G37*
G36*
X131630385Y-121348825D02*
G01*
X131631150Y-121350673D01*
X131630110Y-121352176D01*
X131614089Y-121360738D01*
X131595452Y-121376033D01*
X131580157Y-121394670D01*
X131568791Y-121415933D01*
X131561791Y-121439008D01*
X131559428Y-121462999D01*
X131561791Y-121486990D01*
X131568791Y-121510065D01*
X131580156Y-121531329D01*
X131595451Y-121549966D01*
X131614088Y-121565261D01*
X131630109Y-121573824D01*
X131631165Y-121575523D01*
X131630222Y-121577286D01*
X131628401Y-121577436D01*
X131617307Y-121572841D01*
X131511789Y-121551852D01*
X131404211Y-121551852D01*
X131298693Y-121572841D01*
X131287598Y-121577436D01*
X131285615Y-121577175D01*
X131284850Y-121575327D01*
X131285890Y-121573824D01*
X131301911Y-121565262D01*
X131320548Y-121549967D01*
X131335843Y-121531330D01*
X131347209Y-121510067D01*
X131354209Y-121486992D01*
X131356572Y-121463001D01*
X131354209Y-121439010D01*
X131347209Y-121415935D01*
X131335844Y-121394671D01*
X131320549Y-121376034D01*
X131301912Y-121360739D01*
X131285891Y-121352176D01*
X131284835Y-121350477D01*
X131285778Y-121348714D01*
X131287599Y-121348564D01*
X131298693Y-121353159D01*
X131404211Y-121374148D01*
X131511789Y-121374148D01*
X131617307Y-121353159D01*
X131628402Y-121348564D01*
X131630385Y-121348825D01*
G37*
G36*
X130937287Y-120655776D02*
G01*
X130937437Y-120657597D01*
X130932841Y-120668693D01*
X130911852Y-120774211D01*
X130911852Y-120881789D01*
X130932841Y-120987307D01*
X130937436Y-120998402D01*
X130937175Y-121000385D01*
X130935327Y-121001150D01*
X130933824Y-121000110D01*
X130925262Y-120984089D01*
X130909967Y-120965452D01*
X130891330Y-120950157D01*
X130870067Y-120938791D01*
X130846992Y-120931791D01*
X130823001Y-120929428D01*
X130799010Y-120931791D01*
X130775935Y-120938791D01*
X130754671Y-120950156D01*
X130736034Y-120965451D01*
X130720739Y-120984088D01*
X130712175Y-121000111D01*
X130710476Y-121001167D01*
X130708713Y-121000224D01*
X130708563Y-120998403D01*
X130713159Y-120987307D01*
X130734148Y-120881789D01*
X130734148Y-120774211D01*
X130713159Y-120668693D01*
X130708564Y-120657598D01*
X130708825Y-120655615D01*
X130710673Y-120654850D01*
X130712176Y-120655890D01*
X130720738Y-120671911D01*
X130736033Y-120690548D01*
X130754670Y-120705843D01*
X130775933Y-120717209D01*
X130799008Y-120724209D01*
X130822999Y-120726572D01*
X130846990Y-120724209D01*
X130870065Y-120717209D01*
X130891329Y-120705844D01*
X130909966Y-120690549D01*
X130925261Y-120671912D01*
X130933825Y-120655889D01*
X130935524Y-120654833D01*
X130937287Y-120655776D01*
G37*
G36*
X130360385Y-120078825D02*
G01*
X130361150Y-120080673D01*
X130360110Y-120082176D01*
X130344089Y-120090738D01*
X130325452Y-120106033D01*
X130310157Y-120124670D01*
X130298791Y-120145933D01*
X130291791Y-120169008D01*
X130289428Y-120192999D01*
X130291791Y-120216990D01*
X130298791Y-120240065D01*
X130310156Y-120261329D01*
X130325451Y-120279966D01*
X130344088Y-120295261D01*
X130360109Y-120303824D01*
X130361165Y-120305523D01*
X130360222Y-120307286D01*
X130358401Y-120307436D01*
X130347307Y-120302841D01*
X130241789Y-120281852D01*
X130134211Y-120281852D01*
X130028693Y-120302841D01*
X130017598Y-120307436D01*
X130015615Y-120307175D01*
X130014850Y-120305327D01*
X130015890Y-120303824D01*
X130031911Y-120295262D01*
X130050548Y-120279967D01*
X130065843Y-120261330D01*
X130077209Y-120240067D01*
X130084209Y-120216992D01*
X130086572Y-120193001D01*
X130084209Y-120169010D01*
X130077209Y-120145935D01*
X130065844Y-120124671D01*
X130050549Y-120106034D01*
X130031912Y-120090739D01*
X130015891Y-120082176D01*
X130014835Y-120080477D01*
X130015778Y-120078714D01*
X130017599Y-120078564D01*
X130028693Y-120083159D01*
X130134211Y-120104148D01*
X130241789Y-120104148D01*
X130347307Y-120083159D01*
X130358402Y-120078564D01*
X130360385Y-120078825D01*
G37*
G36*
X131630385Y-120078825D02*
G01*
X131631150Y-120080673D01*
X131630110Y-120082176D01*
X131614089Y-120090738D01*
X131595452Y-120106033D01*
X131580157Y-120124670D01*
X131568791Y-120145933D01*
X131561791Y-120169008D01*
X131559428Y-120192999D01*
X131561791Y-120216990D01*
X131568791Y-120240065D01*
X131580156Y-120261329D01*
X131595451Y-120279966D01*
X131614088Y-120295261D01*
X131630109Y-120303824D01*
X131631165Y-120305523D01*
X131630222Y-120307286D01*
X131628401Y-120307436D01*
X131617307Y-120302841D01*
X131511789Y-120281852D01*
X131404211Y-120281852D01*
X131298693Y-120302841D01*
X131287598Y-120307436D01*
X131285615Y-120307175D01*
X131284850Y-120305327D01*
X131285890Y-120303824D01*
X131301911Y-120295262D01*
X131320548Y-120279967D01*
X131335843Y-120261330D01*
X131347209Y-120240067D01*
X131354209Y-120216992D01*
X131356572Y-120193001D01*
X131354209Y-120169010D01*
X131347209Y-120145935D01*
X131335844Y-120124671D01*
X131320549Y-120106034D01*
X131301912Y-120090739D01*
X131285891Y-120082176D01*
X131284835Y-120080477D01*
X131285778Y-120078714D01*
X131287599Y-120078564D01*
X131298693Y-120083159D01*
X131404211Y-120104148D01*
X131511789Y-120104148D01*
X131617307Y-120083159D01*
X131628402Y-120078564D01*
X131630385Y-120078825D01*
G37*
G36*
X130937287Y-119385776D02*
G01*
X130937437Y-119387597D01*
X130932841Y-119398693D01*
X130911852Y-119504211D01*
X130911852Y-119611789D01*
X130932841Y-119717307D01*
X130937436Y-119728402D01*
X130937175Y-119730385D01*
X130935327Y-119731150D01*
X130933824Y-119730110D01*
X130925262Y-119714089D01*
X130909967Y-119695452D01*
X130891330Y-119680157D01*
X130870067Y-119668791D01*
X130846992Y-119661791D01*
X130823001Y-119659428D01*
X130799010Y-119661791D01*
X130775935Y-119668791D01*
X130754671Y-119680156D01*
X130736034Y-119695451D01*
X130720739Y-119714088D01*
X130712175Y-119730111D01*
X130710476Y-119731167D01*
X130708713Y-119730224D01*
X130708563Y-119728403D01*
X130713159Y-119717307D01*
X130734148Y-119611789D01*
X130734148Y-119504211D01*
X130713159Y-119398693D01*
X130708564Y-119387598D01*
X130708825Y-119385615D01*
X130710673Y-119384850D01*
X130712176Y-119385890D01*
X130720738Y-119401911D01*
X130736033Y-119420548D01*
X130754670Y-119435843D01*
X130775933Y-119447209D01*
X130799008Y-119454209D01*
X130822999Y-119456572D01*
X130846990Y-119454209D01*
X130870065Y-119447209D01*
X130891329Y-119435844D01*
X130909966Y-119420549D01*
X130925261Y-119401912D01*
X130933825Y-119385889D01*
X130935524Y-119384833D01*
X130937287Y-119385776D01*
G37*
G36*
X131630385Y-118808825D02*
G01*
X131631150Y-118810673D01*
X131630110Y-118812176D01*
X131614089Y-118820738D01*
X131595452Y-118836033D01*
X131580157Y-118854670D01*
X131568791Y-118875933D01*
X131561791Y-118899008D01*
X131559428Y-118922999D01*
X131561791Y-118946990D01*
X131568791Y-118970065D01*
X131580156Y-118991329D01*
X131595451Y-119009966D01*
X131614088Y-119025261D01*
X131630109Y-119033824D01*
X131631165Y-119035523D01*
X131630222Y-119037286D01*
X131628401Y-119037436D01*
X131617307Y-119032841D01*
X131511789Y-119011852D01*
X131404211Y-119011852D01*
X131298693Y-119032841D01*
X131287598Y-119037436D01*
X131285615Y-119037175D01*
X131284850Y-119035327D01*
X131285890Y-119033824D01*
X131301911Y-119025262D01*
X131320548Y-119009967D01*
X131335843Y-118991330D01*
X131347209Y-118970067D01*
X131354209Y-118946992D01*
X131356572Y-118923001D01*
X131354209Y-118899010D01*
X131347209Y-118875935D01*
X131335844Y-118854671D01*
X131320549Y-118836034D01*
X131301912Y-118820739D01*
X131285891Y-118812176D01*
X131284835Y-118810477D01*
X131285778Y-118808714D01*
X131287599Y-118808564D01*
X131298693Y-118813159D01*
X131404211Y-118834148D01*
X131511789Y-118834148D01*
X131617307Y-118813159D01*
X131628402Y-118808564D01*
X131630385Y-118808825D01*
G37*
G36*
X130360385Y-118808825D02*
G01*
X130361150Y-118810673D01*
X130360110Y-118812176D01*
X130344089Y-118820738D01*
X130325452Y-118836033D01*
X130310157Y-118854670D01*
X130298791Y-118875933D01*
X130291791Y-118899008D01*
X130289428Y-118922999D01*
X130291791Y-118946990D01*
X130298791Y-118970065D01*
X130310156Y-118991329D01*
X130325451Y-119009966D01*
X130344088Y-119025261D01*
X130360109Y-119033824D01*
X130361165Y-119035523D01*
X130360222Y-119037286D01*
X130358401Y-119037436D01*
X130347307Y-119032841D01*
X130241789Y-119011852D01*
X130134211Y-119011852D01*
X130028693Y-119032841D01*
X130017598Y-119037436D01*
X130015615Y-119037175D01*
X130014850Y-119035327D01*
X130015890Y-119033824D01*
X130031911Y-119025262D01*
X130050548Y-119009967D01*
X130065843Y-118991330D01*
X130077209Y-118970067D01*
X130084209Y-118946992D01*
X130086572Y-118923001D01*
X130084209Y-118899010D01*
X130077209Y-118875935D01*
X130065844Y-118854671D01*
X130050549Y-118836034D01*
X130031912Y-118820739D01*
X130015891Y-118812176D01*
X130014835Y-118810477D01*
X130015778Y-118808714D01*
X130017599Y-118808564D01*
X130028693Y-118813159D01*
X130134211Y-118834148D01*
X130241789Y-118834148D01*
X130347307Y-118813159D01*
X130358402Y-118808564D01*
X130360385Y-118808825D01*
G37*
G36*
X130937287Y-118115776D02*
G01*
X130937437Y-118117597D01*
X130932841Y-118128693D01*
X130911852Y-118234211D01*
X130911852Y-118341789D01*
X130932841Y-118447307D01*
X130937436Y-118458402D01*
X130937175Y-118460385D01*
X130935327Y-118461150D01*
X130933824Y-118460110D01*
X130925262Y-118444089D01*
X130909967Y-118425452D01*
X130891330Y-118410157D01*
X130870067Y-118398791D01*
X130846992Y-118391791D01*
X130823001Y-118389428D01*
X130799010Y-118391791D01*
X130775935Y-118398791D01*
X130754671Y-118410156D01*
X130736034Y-118425451D01*
X130720739Y-118444088D01*
X130712175Y-118460111D01*
X130710476Y-118461167D01*
X130708713Y-118460224D01*
X130708563Y-118458403D01*
X130713159Y-118447307D01*
X130734148Y-118341789D01*
X130734148Y-118234211D01*
X130713159Y-118128693D01*
X130708564Y-118117598D01*
X130708825Y-118115615D01*
X130710673Y-118114850D01*
X130712176Y-118115890D01*
X130720738Y-118131911D01*
X130736033Y-118150548D01*
X130754670Y-118165843D01*
X130775933Y-118177209D01*
X130799008Y-118184209D01*
X130822999Y-118186572D01*
X130846990Y-118184209D01*
X130870065Y-118177209D01*
X130891329Y-118165844D01*
X130909966Y-118150549D01*
X130925261Y-118131912D01*
X130933825Y-118115889D01*
X130935524Y-118114833D01*
X130937287Y-118115776D01*
G37*
G36*
X152577236Y-106843225D02*
G01*
X152577940Y-106844082D01*
X152578058Y-106844241D01*
X152586927Y-106857516D01*
X152603974Y-106874563D01*
X152624021Y-106887958D01*
X152646295Y-106897185D01*
X152669945Y-106901890D01*
X152694051Y-106901890D01*
X152717701Y-106897186D01*
X152739975Y-106887960D01*
X152760023Y-106874566D01*
X152777070Y-106857519D01*
X152785940Y-106844243D01*
X152786057Y-106844085D01*
X152786762Y-106843226D01*
X152788634Y-106842522D01*
X152790180Y-106843791D01*
X152790072Y-106845438D01*
X152786924Y-106851329D01*
X152784146Y-106860484D01*
X152783200Y-106870094D01*
X152783200Y-108369906D01*
X152784146Y-108379516D01*
X152786924Y-108388671D01*
X152790073Y-108394562D01*
X152790007Y-108396561D01*
X152788244Y-108397504D01*
X152786764Y-108396775D01*
X152786060Y-108395918D01*
X152785942Y-108395759D01*
X152777073Y-108382484D01*
X152760026Y-108365437D01*
X152739979Y-108352042D01*
X152717705Y-108342815D01*
X152694055Y-108338110D01*
X152669949Y-108338110D01*
X152646299Y-108342814D01*
X152624025Y-108352040D01*
X152603977Y-108365434D01*
X152586930Y-108382481D01*
X152578060Y-108395757D01*
X152577943Y-108395915D01*
X152577238Y-108396774D01*
X152575366Y-108397478D01*
X152573820Y-108396209D01*
X152573928Y-108394562D01*
X152577076Y-108388671D01*
X152579854Y-108379516D01*
X152580800Y-108369906D01*
X152580800Y-106870094D01*
X152579854Y-106860484D01*
X152577076Y-106851329D01*
X152573927Y-106845438D01*
X152573993Y-106843439D01*
X152575756Y-106842496D01*
X152577236Y-106843225D01*
G37*
G36*
X146339236Y-106843225D02*
G01*
X146339940Y-106844082D01*
X146340058Y-106844241D01*
X146348927Y-106857516D01*
X146365974Y-106874563D01*
X146386021Y-106887958D01*
X146408295Y-106897185D01*
X146431945Y-106901890D01*
X146456051Y-106901890D01*
X146479701Y-106897186D01*
X146501975Y-106887960D01*
X146522023Y-106874566D01*
X146539070Y-106857519D01*
X146547940Y-106844243D01*
X146548057Y-106844085D01*
X146548762Y-106843226D01*
X146550634Y-106842522D01*
X146552180Y-106843791D01*
X146552072Y-106845438D01*
X146548924Y-106851329D01*
X146546146Y-106860484D01*
X146545200Y-106870094D01*
X146545200Y-108369906D01*
X146546146Y-108379516D01*
X146548924Y-108388671D01*
X146552073Y-108394562D01*
X146552007Y-108396561D01*
X146550244Y-108397504D01*
X146548764Y-108396775D01*
X146548060Y-108395918D01*
X146547942Y-108395759D01*
X146539073Y-108382484D01*
X146522026Y-108365437D01*
X146501979Y-108352042D01*
X146479705Y-108342815D01*
X146456055Y-108338110D01*
X146431949Y-108338110D01*
X146408299Y-108342814D01*
X146386025Y-108352040D01*
X146365977Y-108365434D01*
X146348930Y-108382481D01*
X146340060Y-108395757D01*
X146339943Y-108395915D01*
X146339238Y-108396774D01*
X146337366Y-108397478D01*
X146335820Y-108396209D01*
X146335928Y-108394562D01*
X146339076Y-108388671D01*
X146341854Y-108379516D01*
X146342800Y-108369906D01*
X146342800Y-106870094D01*
X146341854Y-106860484D01*
X146339076Y-106851329D01*
X146335927Y-106845438D01*
X146335993Y-106843439D01*
X146337756Y-106842496D01*
X146339236Y-106843225D01*
G37*
G36*
X152577236Y-100493225D02*
G01*
X152577940Y-100494082D01*
X152578058Y-100494241D01*
X152586927Y-100507516D01*
X152603974Y-100524563D01*
X152624021Y-100537958D01*
X152646295Y-100547185D01*
X152669945Y-100551890D01*
X152694051Y-100551890D01*
X152717701Y-100547186D01*
X152739975Y-100537960D01*
X152760023Y-100524566D01*
X152777070Y-100507519D01*
X152785940Y-100494243D01*
X152786057Y-100494085D01*
X152786762Y-100493226D01*
X152788634Y-100492522D01*
X152790180Y-100493791D01*
X152790072Y-100495438D01*
X152786924Y-100501329D01*
X152784146Y-100510484D01*
X152783200Y-100520094D01*
X152783200Y-102019906D01*
X152784146Y-102029516D01*
X152786924Y-102038671D01*
X152790073Y-102044562D01*
X152790007Y-102046561D01*
X152788244Y-102047504D01*
X152786764Y-102046775D01*
X152786060Y-102045918D01*
X152785942Y-102045759D01*
X152777073Y-102032484D01*
X152760026Y-102015437D01*
X152739979Y-102002042D01*
X152717705Y-101992815D01*
X152694055Y-101988110D01*
X152669949Y-101988110D01*
X152646299Y-101992814D01*
X152624025Y-102002040D01*
X152603977Y-102015434D01*
X152586930Y-102032481D01*
X152578060Y-102045757D01*
X152577943Y-102045915D01*
X152577238Y-102046774D01*
X152575366Y-102047478D01*
X152573820Y-102046209D01*
X152573928Y-102044562D01*
X152577076Y-102038671D01*
X152579854Y-102029516D01*
X152580800Y-102019906D01*
X152580800Y-100520094D01*
X152579854Y-100510484D01*
X152577076Y-100501329D01*
X152573927Y-100495438D01*
X152573993Y-100493439D01*
X152575756Y-100492496D01*
X152577236Y-100493225D01*
G37*
G36*
X146339236Y-100493225D02*
G01*
X146339940Y-100494082D01*
X146340058Y-100494241D01*
X146348927Y-100507516D01*
X146365974Y-100524563D01*
X146386021Y-100537958D01*
X146408295Y-100547185D01*
X146431945Y-100551890D01*
X146456051Y-100551890D01*
X146479701Y-100547186D01*
X146501975Y-100537960D01*
X146522023Y-100524566D01*
X146539070Y-100507519D01*
X146547940Y-100494243D01*
X146548057Y-100494085D01*
X146548762Y-100493226D01*
X146550634Y-100492522D01*
X146552180Y-100493791D01*
X146552072Y-100495438D01*
X146548924Y-100501329D01*
X146546146Y-100510484D01*
X146545200Y-100520094D01*
X146545200Y-102019906D01*
X146546146Y-102029516D01*
X146548924Y-102038671D01*
X146552073Y-102044562D01*
X146552007Y-102046561D01*
X146550244Y-102047504D01*
X146548764Y-102046775D01*
X146548060Y-102045918D01*
X146547942Y-102045759D01*
X146539073Y-102032484D01*
X146522026Y-102015437D01*
X146501979Y-102002042D01*
X146479705Y-101992815D01*
X146456055Y-101988110D01*
X146431949Y-101988110D01*
X146408299Y-101992814D01*
X146386025Y-102002040D01*
X146365977Y-102015434D01*
X146348930Y-102032481D01*
X146340060Y-102045757D01*
X146339943Y-102045915D01*
X146339238Y-102046774D01*
X146337366Y-102047478D01*
X146335820Y-102046209D01*
X146335928Y-102044562D01*
X146339076Y-102038671D01*
X146341854Y-102029516D01*
X146342800Y-102019906D01*
X146342800Y-100520094D01*
X146341854Y-100510484D01*
X146339076Y-100501329D01*
X146335927Y-100495438D01*
X146335993Y-100493439D01*
X146337756Y-100492496D01*
X146339236Y-100493225D01*
G37*
G36*
X140101236Y-100493225D02*
G01*
X140101940Y-100494082D01*
X140102058Y-100494241D01*
X140110927Y-100507516D01*
X140127974Y-100524563D01*
X140148021Y-100537958D01*
X140170295Y-100547185D01*
X140193945Y-100551890D01*
X140218051Y-100551890D01*
X140241701Y-100547186D01*
X140263975Y-100537960D01*
X140284023Y-100524566D01*
X140301070Y-100507519D01*
X140309940Y-100494243D01*
X140310057Y-100494085D01*
X140310762Y-100493226D01*
X140312634Y-100492522D01*
X140314180Y-100493791D01*
X140314072Y-100495438D01*
X140310924Y-100501329D01*
X140308146Y-100510484D01*
X140307200Y-100520094D01*
X140307200Y-102019906D01*
X140308146Y-102029516D01*
X140310924Y-102038671D01*
X140314073Y-102044562D01*
X140314007Y-102046561D01*
X140312244Y-102047504D01*
X140310764Y-102046775D01*
X140310060Y-102045918D01*
X140309942Y-102045759D01*
X140301073Y-102032484D01*
X140284026Y-102015437D01*
X140263979Y-102002042D01*
X140241705Y-101992815D01*
X140218055Y-101988110D01*
X140193949Y-101988110D01*
X140170299Y-101992814D01*
X140148025Y-102002040D01*
X140127977Y-102015434D01*
X140110930Y-102032481D01*
X140102060Y-102045757D01*
X140101943Y-102045915D01*
X140101238Y-102046774D01*
X140099366Y-102047478D01*
X140097820Y-102046209D01*
X140097928Y-102044562D01*
X140101076Y-102038671D01*
X140103854Y-102029516D01*
X140104800Y-102019906D01*
X140104800Y-100520094D01*
X140103854Y-100510484D01*
X140101076Y-100501329D01*
X140097927Y-100495438D01*
X140097993Y-100493439D01*
X140099756Y-100492496D01*
X140101236Y-100493225D01*
G37*
G36*
X146339236Y-94143225D02*
G01*
X146339940Y-94144082D01*
X146340058Y-94144241D01*
X146348927Y-94157516D01*
X146365974Y-94174563D01*
X146386021Y-94187958D01*
X146408295Y-94197185D01*
X146431945Y-94201890D01*
X146456051Y-94201890D01*
X146479701Y-94197186D01*
X146501975Y-94187960D01*
X146522023Y-94174566D01*
X146539070Y-94157519D01*
X146547940Y-94144243D01*
X146548057Y-94144085D01*
X146548762Y-94143226D01*
X146550634Y-94142522D01*
X146552180Y-94143791D01*
X146552072Y-94145438D01*
X146548924Y-94151329D01*
X146546146Y-94160484D01*
X146545200Y-94170094D01*
X146545200Y-95669906D01*
X146546146Y-95679516D01*
X146548924Y-95688671D01*
X146552073Y-95694562D01*
X146552007Y-95696561D01*
X146550244Y-95697504D01*
X146548764Y-95696775D01*
X146548060Y-95695918D01*
X146547942Y-95695759D01*
X146539073Y-95682484D01*
X146522026Y-95665437D01*
X146501979Y-95652042D01*
X146479705Y-95642815D01*
X146456055Y-95638110D01*
X146431949Y-95638110D01*
X146408299Y-95642814D01*
X146386025Y-95652040D01*
X146365977Y-95665434D01*
X146348930Y-95682481D01*
X146340060Y-95695757D01*
X146339943Y-95695915D01*
X146339238Y-95696774D01*
X146337366Y-95697478D01*
X146335820Y-95696209D01*
X146335928Y-95694562D01*
X146339076Y-95688671D01*
X146341854Y-95679516D01*
X146342800Y-95669906D01*
X146342800Y-94170094D01*
X146341854Y-94160484D01*
X146339076Y-94151329D01*
X146335927Y-94145438D01*
X146335993Y-94143439D01*
X146337756Y-94142496D01*
X146339236Y-94143225D01*
G37*
G36*
X152577236Y-94143225D02*
G01*
X152577940Y-94144082D01*
X152578058Y-94144241D01*
X152586927Y-94157516D01*
X152603974Y-94174563D01*
X152624021Y-94187958D01*
X152646295Y-94197185D01*
X152669945Y-94201890D01*
X152694051Y-94201890D01*
X152717701Y-94197186D01*
X152739975Y-94187960D01*
X152760023Y-94174566D01*
X152777070Y-94157519D01*
X152785940Y-94144243D01*
X152786057Y-94144085D01*
X152786762Y-94143226D01*
X152788634Y-94142522D01*
X152790180Y-94143791D01*
X152790072Y-94145438D01*
X152786924Y-94151329D01*
X152784146Y-94160484D01*
X152783200Y-94170094D01*
X152783200Y-95669906D01*
X152784146Y-95679516D01*
X152786924Y-95688671D01*
X152790073Y-95694562D01*
X152790007Y-95696561D01*
X152788244Y-95697504D01*
X152786764Y-95696775D01*
X152786060Y-95695918D01*
X152785942Y-95695759D01*
X152777073Y-95682484D01*
X152760026Y-95665437D01*
X152739979Y-95652042D01*
X152717705Y-95642815D01*
X152694055Y-95638110D01*
X152669949Y-95638110D01*
X152646299Y-95642814D01*
X152624025Y-95652040D01*
X152603977Y-95665434D01*
X152586930Y-95682481D01*
X152578060Y-95695757D01*
X152577943Y-95695915D01*
X152577238Y-95696774D01*
X152575366Y-95697478D01*
X152573820Y-95696209D01*
X152573928Y-95694562D01*
X152577076Y-95688671D01*
X152579854Y-95679516D01*
X152580800Y-95669906D01*
X152580800Y-94170094D01*
X152579854Y-94160484D01*
X152577076Y-94151329D01*
X152573927Y-94145438D01*
X152573993Y-94143439D01*
X152575756Y-94142496D01*
X152577236Y-94143225D01*
G37*
G36*
X140101236Y-94143225D02*
G01*
X140101940Y-94144082D01*
X140102058Y-94144241D01*
X140110927Y-94157516D01*
X140127974Y-94174563D01*
X140148021Y-94187958D01*
X140170295Y-94197185D01*
X140193945Y-94201890D01*
X140218051Y-94201890D01*
X140241701Y-94197186D01*
X140263975Y-94187960D01*
X140284023Y-94174566D01*
X140301070Y-94157519D01*
X140309940Y-94144243D01*
X140310057Y-94144085D01*
X140310762Y-94143226D01*
X140312634Y-94142522D01*
X140314180Y-94143791D01*
X140314072Y-94145438D01*
X140310924Y-94151329D01*
X140308146Y-94160484D01*
X140307200Y-94170094D01*
X140307200Y-95669906D01*
X140308146Y-95679516D01*
X140310924Y-95688671D01*
X140314073Y-95694562D01*
X140314007Y-95696561D01*
X140312244Y-95697504D01*
X140310764Y-95696775D01*
X140310060Y-95695918D01*
X140309942Y-95695759D01*
X140301073Y-95682484D01*
X140284026Y-95665437D01*
X140263979Y-95652042D01*
X140241705Y-95642815D01*
X140218055Y-95638110D01*
X140193949Y-95638110D01*
X140170299Y-95642814D01*
X140148025Y-95652040D01*
X140127977Y-95665434D01*
X140110930Y-95682481D01*
X140102060Y-95695757D01*
X140101943Y-95695915D01*
X140101238Y-95696774D01*
X140099366Y-95697478D01*
X140097820Y-95696209D01*
X140097928Y-95694562D01*
X140101076Y-95688671D01*
X140103854Y-95679516D01*
X140104800Y-95669906D01*
X140104800Y-94170094D01*
X140103854Y-94160484D01*
X140101076Y-94151329D01*
X140097927Y-94145438D01*
X140097993Y-94143439D01*
X140099756Y-94142496D01*
X140101236Y-94143225D01*
G37*
M02*
