G04 #@! TF.GenerationSoftware,KiCad,Pcbnew,5.1.9+dfsg1-1~bpo10+1*
G04 #@! TF.CreationDate,2021-09-15T19:30:04-04:00*
G04 #@! TF.ProjectId,wifi_shield,77696669-5f73-4686-9965-6c642e6b6963,rev?*
G04 #@! TF.SameCoordinates,Original*
G04 #@! TF.FileFunction,Copper,L1,Top*
G04 #@! TF.FilePolarity,Positive*
%FSLAX46Y46*%
G04 Gerber Fmt 4.6, Leading zero omitted, Abs format (unit mm)*
G04 Created by KiCad (PCBNEW 5.1.9+dfsg1-1~bpo10+1) date 2021-09-15 19:30:04*
%MOMM*%
%LPD*%
G01*
G04 APERTURE LIST*
G04 #@! TA.AperFunction,ComponentPad*
%ADD10R,1.700000X1.700000*%
G04 #@! TD*
G04 #@! TA.AperFunction,ComponentPad*
%ADD11O,1.700000X1.700000*%
G04 #@! TD*
G04 #@! TA.AperFunction,ComponentPad*
%ADD12R,1.000000X1.000000*%
G04 #@! TD*
G04 #@! TA.AperFunction,ComponentPad*
%ADD13O,1.000000X1.000000*%
G04 #@! TD*
G04 #@! TA.AperFunction,ViaPad*
%ADD14C,0.800000*%
G04 #@! TD*
G04 #@! TA.AperFunction,Conductor*
%ADD15C,0.250000*%
G04 #@! TD*
G04 APERTURE END LIST*
D10*
X146250000Y-69000000D03*
D11*
X148790000Y-69000000D03*
X151330000Y-69000000D03*
X153870000Y-69000000D03*
X172620000Y-80700000D03*
X170080000Y-80700000D03*
X167540000Y-80700000D03*
D10*
X165000000Y-80700000D03*
X164986000Y-84460000D03*
D11*
X162446000Y-84460000D03*
X159906000Y-84460000D03*
X157366000Y-84460000D03*
X154826000Y-84460000D03*
X152286000Y-84460000D03*
X149746000Y-84460000D03*
X147206000Y-84460000D03*
X144666000Y-84460000D03*
X142126000Y-84460000D03*
X139586000Y-84460000D03*
X137046000Y-84460000D03*
X134506000Y-84460000D03*
X131966000Y-84460000D03*
X164986000Y-114960600D03*
X162446000Y-114960600D03*
X159906000Y-114960600D03*
X157366000Y-114960600D03*
X154826000Y-114960600D03*
X152286000Y-114960600D03*
X149746000Y-114960600D03*
X147206000Y-114960600D03*
X144666000Y-114960600D03*
X142126000Y-114960600D03*
X139586000Y-114960600D03*
X137046000Y-114960600D03*
X134506000Y-114960600D03*
D10*
X131966000Y-114960600D03*
X134950000Y-80500000D03*
D11*
X132410000Y-80500000D03*
X129870000Y-80500000D03*
X127330000Y-80500000D03*
D10*
X127350000Y-84410000D03*
D11*
X127350000Y-86950000D03*
X127350000Y-89490000D03*
X127350000Y-92030000D03*
X127350000Y-94570000D03*
X127350000Y-97110000D03*
D10*
X127300000Y-76700000D03*
X176500000Y-115000000D03*
X149746000Y-131750000D03*
X176500000Y-84500000D03*
X172700000Y-76900000D03*
X119500000Y-100000000D03*
D12*
X131458000Y-123368000D03*
D13*
X130188000Y-123368000D03*
X131458000Y-122098000D03*
X130188000Y-122098000D03*
X131458000Y-120828000D03*
X130188000Y-120828000D03*
X131458000Y-119558000D03*
X130188000Y-119558000D03*
X131458000Y-118288000D03*
X130188000Y-118288000D03*
D14*
X146300000Y-81900000D03*
X142126000Y-119557996D03*
X140094000Y-103810000D03*
X142126000Y-105588000D03*
X156096000Y-111430000D03*
X156096000Y-109652000D03*
X143650002Y-99238000D03*
X145936000Y-109652000D03*
X140094000Y-107366000D03*
X144000000Y-72300000D03*
X144000000Y-74800000D03*
X151400000Y-73399999D03*
X139332000Y-88316004D03*
X143650000Y-101778000D03*
X140094000Y-105588000D03*
X139586000Y-98730000D03*
X142380000Y-88315996D03*
X149492000Y-101015996D03*
X164224008Y-101016000D03*
X149492000Y-94920000D03*
X161430000Y-95682000D03*
X164224000Y-95682000D03*
X154862990Y-97496990D03*
X168542000Y-98222000D03*
X155842000Y-107620000D03*
X149491996Y-97968000D03*
X172098000Y-95682000D03*
X152286000Y-104572000D03*
X171081990Y-98222000D03*
X129274990Y-104900001D03*
D15*
X164986000Y-81114000D02*
X165500000Y-80600000D01*
X129840000Y-84460000D02*
X127350000Y-86950000D01*
X131966000Y-84460000D02*
X129840000Y-84460000D01*
X165500000Y-80600000D02*
X165500000Y-78500000D01*
X167100000Y-76900000D02*
X173100000Y-76900000D01*
X165500000Y-78500000D02*
X167100000Y-76900000D01*
X134506000Y-119812000D02*
X132220000Y-122098000D01*
X131458000Y-122098000D02*
X132220000Y-122098000D01*
X136062000Y-81712000D02*
X134850000Y-80500000D01*
X146300000Y-81900000D02*
X146112000Y-81712000D01*
X146112000Y-81712000D02*
X136062000Y-81712000D01*
X134506000Y-116510000D02*
X134506000Y-114960600D01*
X134506000Y-116510000D02*
X134506000Y-119812000D01*
X157366000Y-114960600D02*
X152768604Y-119557996D01*
X152768604Y-119557996D02*
X142126000Y-119557996D01*
X127350000Y-92030000D02*
X139130000Y-103810000D01*
X139130000Y-103810000D02*
X140094000Y-103810000D01*
X150254000Y-105588000D02*
X155696001Y-111030001D01*
X142126000Y-105588000D02*
X150254000Y-105588000D01*
X155696001Y-111030001D02*
X156096000Y-111430000D01*
X127350000Y-97644600D02*
X127350000Y-97110000D01*
X144666000Y-114960600D02*
X127350000Y-97644600D01*
X156096000Y-109652000D02*
X145682000Y-99238000D01*
X145682000Y-99238000D02*
X143650002Y-99238000D01*
X127350000Y-94570000D02*
X140094000Y-107314000D01*
X140094000Y-107314000D02*
X140094000Y-107366000D01*
X158153400Y-113208000D02*
X159906000Y-114960600D01*
X145936000Y-109652000D02*
X149492000Y-113208000D01*
X149492000Y-113208000D02*
X158153400Y-113208000D01*
X150570000Y-72300000D02*
X144000000Y-72300000D01*
X153870000Y-69000000D02*
X150570000Y-72300000D01*
X157366000Y-84460000D02*
X156096000Y-83190000D01*
X156096000Y-71226000D02*
X153870000Y-69000000D01*
X156096000Y-83190000D02*
X156096000Y-71226000D01*
X149999999Y-74800000D02*
X151400000Y-73399999D01*
X144000000Y-74800000D02*
X149999999Y-74800000D01*
X151400000Y-81034000D02*
X151400000Y-73399999D01*
X154826000Y-84460000D02*
X151400000Y-81034000D01*
X132310000Y-80500000D02*
X132310000Y-82210000D01*
X134506000Y-84406000D02*
X134506000Y-84460000D01*
X132310000Y-82210000D02*
X134506000Y-84406000D01*
X138362004Y-88316004D02*
X139332000Y-88316004D01*
X134506000Y-84460000D02*
X138362004Y-88316004D01*
X143650000Y-101778000D02*
X140094000Y-105334000D01*
X140094000Y-105334000D02*
X140094000Y-105588000D01*
X127300000Y-76700000D02*
X126200000Y-76700000D01*
X126200000Y-76700000D02*
X124900000Y-78000000D01*
X126410000Y-84410000D02*
X124900000Y-82900000D01*
X127350000Y-84410000D02*
X126410000Y-84410000D01*
X124900000Y-78000000D02*
X124900000Y-82900000D01*
X139922999Y-87336999D02*
X170383985Y-87336999D01*
X176500000Y-83400000D02*
X176500000Y-84500000D01*
X170383985Y-87336999D02*
X174701986Y-83018998D01*
X174701986Y-83018998D02*
X176118998Y-83018998D01*
X137046000Y-84460000D02*
X139922999Y-87336999D01*
X176118998Y-83018998D02*
X176500000Y-83400000D01*
X139586000Y-91109996D02*
X142380000Y-88315996D01*
X139586000Y-98730000D02*
X139586000Y-91109996D01*
X149492000Y-101015996D02*
X164224004Y-101015996D01*
X164224004Y-101015996D02*
X164224008Y-101016000D01*
X149492000Y-94920000D02*
X160668000Y-94920000D01*
X160668000Y-94920000D02*
X161430000Y-95682000D01*
X162409010Y-97496990D02*
X154862990Y-97496990D01*
X164224000Y-95682000D02*
X162409010Y-97496990D01*
X149745996Y-98222000D02*
X149491996Y-97968000D01*
X168542000Y-98222000D02*
X149745996Y-98222000D01*
X163716000Y-107620000D02*
X172098000Y-99238000D01*
X172098000Y-99238000D02*
X172098000Y-95682000D01*
X155842000Y-107620000D02*
X163716000Y-107620000D01*
X152286000Y-104572000D02*
X164731990Y-104572000D01*
X164731990Y-104572000D02*
X171081990Y-98222000D01*
X120600000Y-100000000D02*
X119500000Y-100000000D01*
X126973002Y-100000000D02*
X120600000Y-100000000D01*
X137000000Y-110026998D02*
X126973002Y-100000000D01*
X137046000Y-114960600D02*
X137000000Y-114914600D01*
X137000000Y-114914600D02*
X137000000Y-110026998D01*
X137046000Y-114960600D02*
X137046000Y-121590000D01*
X147206000Y-131750000D02*
X149746000Y-131750000D01*
X137046000Y-121590000D02*
X147206000Y-131750000D01*
X131957999Y-120328001D02*
X131458000Y-120828000D01*
X129172000Y-105002991D02*
X129172000Y-115145004D01*
X133236000Y-119050000D02*
X131957999Y-120328001D01*
X130790996Y-116764000D02*
X132220000Y-116764000D01*
X133236000Y-117780000D02*
X133236000Y-119050000D01*
X129274990Y-104900001D02*
X129172000Y-105002991D01*
X132220000Y-116764000D02*
X133236000Y-117780000D01*
X129172000Y-115145004D02*
X130790996Y-116764000D01*
M02*
