%TF.GenerationSoftware,KiCad,Pcbnew,7.0.0*%
%TF.CreationDate,2024-11-18T00:14:04-05:00*%
%TF.ProjectId,wifi_shield,77696669-5f73-4686-9965-6c642e6b6963,rev?*%
%TF.SameCoordinates,Original*%
%TF.FileFunction,Copper,L1,Top*%
%TF.FilePolarity,Positive*%
%FSLAX46Y46*%
G04 Gerber Fmt 4.6, Leading zero omitted, Abs format (unit mm)*
G04 Created by KiCad (PCBNEW 7.0.0) date 2024-11-18 00:14:04*
%MOMM*%
%LPD*%
G01*
G04 APERTURE LIST*
%TA.AperFunction,ComponentPad*%
%ADD10R,1.700000X1.700000*%
%TD*%
%TA.AperFunction,ComponentPad*%
%ADD11O,1.700000X1.700000*%
%TD*%
%TA.AperFunction,ViaPad*%
%ADD12C,0.600000*%
%TD*%
%TA.AperFunction,Conductor*%
%ADD13C,0.200000*%
%TD*%
G04 APERTURE END LIST*
D10*
X131965999Y-114960599D03*
D11*
X134505999Y-114960599D03*
X137045999Y-114960599D03*
X139585999Y-114960599D03*
X142125999Y-114960599D03*
X144665999Y-114960599D03*
X147205999Y-114960599D03*
X149745999Y-114960599D03*
X152285999Y-114960599D03*
X154825999Y-114960599D03*
X157365999Y-114960599D03*
X159905999Y-114960599D03*
X162445999Y-114960599D03*
X164985999Y-114960599D03*
D10*
X164985999Y-84459999D03*
D11*
X162445999Y-84459999D03*
X159905999Y-84459999D03*
X157365999Y-84459999D03*
X154825999Y-84459999D03*
X152285999Y-84459999D03*
X149745999Y-84459999D03*
X147205999Y-84459999D03*
X144665999Y-84459999D03*
X142125999Y-84459999D03*
X139585999Y-84459999D03*
X137045999Y-84459999D03*
X134505999Y-84459999D03*
X131965999Y-84459999D03*
D10*
X134949999Y-80499999D03*
D11*
X132409999Y-80499999D03*
X129869999Y-80499999D03*
X127329999Y-80499999D03*
D10*
X164999999Y-80699999D03*
D11*
X167539999Y-80699999D03*
X170079999Y-80699999D03*
X172619999Y-80699999D03*
D10*
X146249999Y-69011999D03*
D11*
X148789999Y-69011999D03*
X151329999Y-69011999D03*
X153869999Y-69011999D03*
D10*
X123329999Y-88569999D03*
D11*
X123329999Y-91109999D03*
X123329999Y-93649999D03*
X123329999Y-96189999D03*
X123329999Y-98729999D03*
X123329999Y-101269999D03*
D10*
X127299999Y-76699999D03*
X172864999Y-114999999D03*
D11*
X170324999Y-114999999D03*
D10*
X172859999Y-84759999D03*
D11*
X170319999Y-84759999D03*
D10*
X172699999Y-76899999D03*
X143649999Y-128955999D03*
D11*
X146189999Y-128955999D03*
X148729999Y-128955999D03*
X151269999Y-128955999D03*
X153809999Y-128955999D03*
X156349999Y-128955999D03*
D10*
X146189999Y-123875999D03*
D11*
X148729999Y-123875999D03*
X151269999Y-123875999D03*
X153809999Y-123875999D03*
D12*
X140094000Y-103810000D03*
X152540000Y-110160000D03*
X143624602Y-105588000D03*
X143142000Y-99288798D03*
X155842000Y-109652000D03*
X145936000Y-112166600D03*
X140094000Y-107366000D03*
X144000000Y-72300000D03*
X135776000Y-107366000D03*
X142634000Y-104064000D03*
X129934000Y-86538000D03*
X151400000Y-73399999D03*
X141364000Y-102794000D03*
X145936000Y-118542000D03*
X144000000Y-74800000D03*
X139332000Y-88341402D03*
X145936000Y-99492000D03*
X143624600Y-102235200D03*
X145936000Y-97206000D03*
X140094000Y-105588000D03*
X139586000Y-98730000D03*
X142380000Y-88315996D03*
X164224008Y-101016000D03*
X149542800Y-101015996D03*
X149492000Y-94920000D03*
X161430000Y-95682000D03*
X154862990Y-97166790D03*
X164224000Y-95682000D03*
X167061914Y-98476000D03*
X155842000Y-107620000D03*
X172098000Y-95682000D03*
X149492000Y-98476000D03*
X149542800Y-104495800D03*
X171081990Y-98222000D03*
D13*
X156350000Y-128956000D02*
X153810000Y-126416000D01*
X153810000Y-126416000D02*
X153810000Y-123876000D01*
X147968000Y-105588000D02*
X152540000Y-110160000D01*
X143624602Y-105588000D02*
X147968000Y-105588000D01*
X132474000Y-96190000D02*
X123330000Y-96190000D01*
X140094000Y-103810000D02*
X132474000Y-96190000D01*
X144666000Y-113970000D02*
X144666000Y-114960600D01*
X131966000Y-101270000D02*
X144666000Y-113970000D01*
X123330000Y-101270000D02*
X131966000Y-101270000D01*
X155588000Y-109652000D02*
X151031800Y-105095800D01*
X151031800Y-105095800D02*
X148949002Y-105095800D01*
X148949002Y-105095800D02*
X143142000Y-99288798D01*
X131458000Y-98730000D02*
X140094000Y-107366000D01*
X123330000Y-98730000D02*
X131458000Y-98730000D01*
X157112000Y-112166600D02*
X159906000Y-114960600D01*
X145936000Y-112166600D02*
X157112000Y-112166600D01*
X135776000Y-116256000D02*
X135776000Y-107366000D01*
X150570000Y-72300000D02*
X144000000Y-72300000D01*
X156096000Y-70726000D02*
X154382000Y-69012000D01*
X146698000Y-121844000D02*
X141364000Y-121844000D01*
X141364000Y-121844000D02*
X135776000Y-116256000D01*
X153554600Y-69315400D02*
X153554600Y-68815400D01*
X154382000Y-69012000D02*
X153870000Y-69012000D01*
X157366000Y-84460000D02*
X156096000Y-83190000D01*
X153554600Y-69315400D02*
X150570000Y-72300000D01*
X156096000Y-83190000D02*
X156096000Y-70726000D01*
X148730000Y-123876000D02*
X146698000Y-121844000D01*
X129934000Y-91364000D02*
X141364000Y-102794000D01*
X145936000Y-118542000D02*
X145936000Y-113462000D01*
X149999999Y-74800000D02*
X151400000Y-73399999D01*
X129934000Y-86538000D02*
X129934000Y-91364000D01*
X142634000Y-110160000D02*
X142634000Y-104064000D01*
X145936000Y-113462000D02*
X142634000Y-110160000D01*
X151400000Y-81034000D02*
X151400000Y-73399999D01*
X144000000Y-74800000D02*
X149999999Y-74800000D01*
X154826000Y-84460000D02*
X151400000Y-81034000D01*
X134506000Y-84406000D02*
X134506000Y-84460000D01*
X145936000Y-97206000D02*
X145936000Y-99492000D01*
X140094000Y-105588000D02*
X143446800Y-102235200D01*
X151270000Y-126416000D02*
X151270000Y-123876000D01*
X143446800Y-102235200D02*
X143624600Y-102235200D01*
X139332000Y-88341402D02*
X138387402Y-88341402D01*
X132310000Y-80500000D02*
X132310000Y-82210000D01*
X138387402Y-88341402D02*
X134506000Y-84460000D01*
X153810000Y-128956000D02*
X151270000Y-126416000D01*
X132310000Y-82210000D02*
X134506000Y-84406000D01*
X124600000Y-78638600D02*
X124600000Y-86160000D01*
X127300000Y-76700000D02*
X126538600Y-76700000D01*
X124600000Y-86160000D02*
X122850000Y-87910000D01*
X126538600Y-76700000D02*
X124600000Y-78638600D01*
X139586000Y-91109996D02*
X142380000Y-88315996D01*
X139586000Y-98730000D02*
X139586000Y-91109996D01*
X164224004Y-101015996D02*
X164224008Y-101016000D01*
X149492000Y-101015996D02*
X164224004Y-101015996D01*
X150254000Y-95682000D02*
X149492000Y-94920000D01*
X161430000Y-95682000D02*
X150254000Y-95682000D01*
X162739210Y-97166790D02*
X162750800Y-97155200D01*
X154862990Y-97166790D02*
X162739210Y-97166790D01*
X164224000Y-95682000D02*
X162750800Y-97155200D01*
X163716000Y-107620000D02*
X172098000Y-99238000D01*
X167061914Y-98476000D02*
X149492000Y-98476000D01*
X172098000Y-99238000D02*
X172098000Y-95682000D01*
X155842000Y-107620000D02*
X163716000Y-107620000D01*
X164808190Y-104495800D02*
X149542800Y-104495800D01*
X171081990Y-98222000D02*
X164808190Y-104495800D01*
X152768600Y-114960600D02*
X152286000Y-114960600D01*
X170325000Y-115000000D02*
X168053000Y-117272000D01*
X168053000Y-117272000D02*
X155080000Y-117272000D01*
X155080000Y-117272000D02*
X152768600Y-114960600D01*
X172798000Y-87238000D02*
X172798000Y-110222000D01*
X156604000Y-116738600D02*
X154826000Y-114960600D01*
X156604000Y-116764000D02*
X156604000Y-116738600D01*
X172798000Y-110222000D02*
X166256000Y-116764000D01*
X166256000Y-116764000D02*
X156604000Y-116764000D01*
X170320000Y-84760000D02*
X172798000Y-87238000D01*
M02*
